<?xml version="1.0" encoding="utf-8"?>
<!-- Generator: Adobe Illustrator 24.1.2, SVG Export Plug-In . SVG Version: 6.00 Build 0)  -->
<svg version="1.1" id="圖層_1" xmlns="http://www.w3.org/2000/svg" xmlns:xlink="http://www.w3.org/1999/xlink" x="0px" y="0px"
	 viewBox="0 0 649.1 595" style="enable-background:new 0 0 649.1 595;" xml:space="preserve">
<style type="text/css">
	.st0{fill:#CCCCCC;}
	.st1{fill:#999999;}
</style>
<g>
	<g>
		<circle class="st0" cx="324.8" cy="298.5" r="271.8"/>
	</g>
	<g>
		<g>
			<path class="st1" d="M390.1,311.2c-18.3,13.5-40.1,20.8-63.5,21.3h-2c-24.4,0-47.2-8.1-65.5-21.8c-29.7,23.9-49,63.5-48.3,108.2
				c0,0.8,7.6-14,0,2.3c-6.6,14.2,227.9,16,227.6-4.1c0-1.5,0-2.3,0-3C437.6,371.4,418.5,334.1,390.1,311.2z"/>
		</g>
		<g>
			<path class="st1" d="M438.6,414.1c0,0.3,0,0.5,0,0.8C438.6,415.6,438.6,410,438.6,414.1z"/>
		</g>
		<g>
			<path class="st1" d="M324.8,303.8c0.5,0,1,0,1.5,0c-1.8,0-3.3,0-5.1-0.3C322.3,303.6,323.5,303.8,324.8,303.8z"/>
		</g>
		<g>
			<path class="st1" d="M407.1,211.1c0-1-0.3-1.8-0.5-2.8c-0.3-1.8-0.5-3.6-1-5.3c-0.3-1-0.5-2-0.8-3c-0.5-1.5-0.8-3.3-1.3-4.8
				c-0.3-1-0.8-2-1.3-3c-0.5-1.5-1-3-1.8-4.6c-0.5-1-1-2-1.5-3c-0.8-1.5-1.3-2.8-2-4.1c-0.5-1-1.3-1.8-1.8-2.8
				c-0.8-1.3-1.5-2.5-2.5-3.8c-0.8-1-1.3-1.8-2-2.5c-1-1.3-1.8-2.5-2.8-3.6c-0.8-0.8-1.5-1.5-2.3-2.5c-1-1-2-2.3-3-3.3
				c-0.8-0.8-1.8-1.5-2.5-2.3c-1-1-2.3-2-3.3-3c-1-0.8-1.8-1.3-2.8-2c-1.3-0.8-2.3-1.8-3.6-2.5c-1-0.8-2-1.3-3-1.8
				c-1.3-0.8-2.5-1.5-3.8-2.3c-1-0.5-2-1-3.3-1.5c-1.3-0.5-2.5-1.3-4.1-1.8c-1-0.5-2.3-0.8-3.6-1.3c-1.3-0.5-2.8-1-4.1-1.5
				c-1.3-0.3-2.5-0.5-3.6-1c-1.5-0.3-2.8-0.8-4.3-1c-1.3-0.3-2.5-0.5-3.8-0.5c-1.5-0.3-2.8-0.5-4.3-0.5c-1.3,0-2.8-0.3-4.1-0.3
				c-1.8,0-3.3-0.3-5.1-0.3c-5.8,0-11.2,0.8-16.8,2c-37.6,8.4-65.3,42.2-64.8,82.3c0,2.8,0.3,5.6,0.5,8.4c0,0.8,0.3,1.8,0.5,2.5
				c0.3,1.8,0.5,3.8,1,5.6c0.3,1,0.5,2,0.8,3c0.5,1.5,0.8,3.3,1.3,4.8c0.3,1,0.8,2,1.3,3c0.5,1.5,1,3,1.8,4.3c0.5,1,1,2,1.5,3
				c0.8,1.3,1.3,2.8,2,4.1c0.5,1,1.3,2,1.8,2.8c0.8,1.3,1.5,2.5,2.5,3.8c0.8,1,1.3,1.8,2,2.8c1,1.3,1.8,2.5,2.8,3.6
				c0.8,0.8,1.5,1.8,2.3,2.5c1,1,2,2.3,3,3.3c0.8,0.8,1.8,1.5,2.5,2.3c1,1,2,2,3.3,2.8c1,0.8,2,1.5,2.8,2c1.3,0.8,2.3,1.8,3.6,2.5
				c1,0.8,2,1.3,3,1.8c1.3,0.8,2.5,1.5,3.8,2.3c0.3,0,0.5,0.3,0.5,0.3c1,0.5,1.8,0.8,2.8,1.3c1.3,0.5,2.5,1.3,3.8,1.8
				s2.3,0.8,3.6,1.3c1.3,0.5,2.5,1,4.1,1.3c1.3,0.3,2.5,0.8,3.8,1c1.3,0.3,2.8,0.8,4.1,1c1.3,0.3,2.5,0.5,3.8,0.5
				c1.5,0.3,2.8,0.5,4.3,0.5c1.3,0,2.8,0.3,4.1,0.3c1.8,0,3.3,0.3,5.1,0.3c13-0.3,25.1-3.6,36.1-9.1c27.4-14,46-42.4,45.5-75.2
				C407.6,216.7,407.4,213.9,407.1,211.1z"/>
		</g>
		<g>
			<path class="st1" d="M286.2,294.2c0.3,0,0.5,0.3,0.5,0.3l0,0C286.7,294.4,286.4,294.4,286.2,294.2z"/>
		</g>
		<g>
			<path class="st1" d="M286.7,294.4c1,0.5,1.8,0.8,2.8,1.3C288.7,295.5,287.7,294.9,286.7,294.4L286.7,294.4z"/>
		</g>
	</g>
</g>
</svg>
