<?xml version="1.0" encoding="utf-8"?>
<!-- Generator: Adobe Illustrator 24.1.2, SVG Export Plug-In . SVG Version: 6.00 Build 0)  -->
<svg version="1.1" id="圖層_1" xmlns="http://www.w3.org/2000/svg" xmlns:xlink="http://www.w3.org/1999/xlink" x="0px" y="0px"
	 viewBox="0 0 898.5 297.2" style="enable-background:new 0 0 898.5 297.2;" xml:space="preserve">
<style type="text/css">
	.st0{fill:#C74042;}
	.st1{font-family:'Kefa-Regular';}
	.st2{font-size:42.7758px;}
	.st3{fill:#C38150;}
	.st4{font-family:'NaikaiFont-Bold';}
	.st5{font-size:28.5172px;}
	.st6{fill:#D8B479;}
</style>
<g>
	<text transform="matrix(1 0 0 1 370.8044 147.2778)" class="st0 st1 st2">Account</text>
	<text transform="matrix(1 0 0 1 392.1159 177.1352)" class="st3 st4 st5">個人資料</text>
	<g>
		<g>
			<path class="st6" d="M441.3,83c0.6-2,0.8-4.2,3.5-4.1c-0.6,1.4-1.8,2.6-1.7,3.9c0.1,1.4,1.1,2.8,1.9,4c2,3,2.4,6.2,0.8,8.6
				c-1.7,2.6-6.5,4.7-9.3,4c-0.7-0.2-1.2-0.8-2.1-1.5c2.5,0,4.5,0.4,6.2-0.1c2.7-0.9,4.9-2.7,5-6c0-2.6-2.7-6.7-5.2-7.4
				c-1.2-0.3-2.8,0-4,0.5c-1.9,0.8-3.2,0.8-4.4-1.2c0.7-0.4,1.2-0.6,2.2-1.2c-4,0-7.8-1.1-9.6,3.6c-1.6-4.2,0.2-6.1,5.8-6.9
				c-10.2-3.1-20.5-4.6-30.5,0.7c-5.1,2.6-6.5,7.6-4,12.1c2.4,4.3,8.3,6.3,12.7,3.8c1.7-1,3.6-3.1,3.7-4.8c0.1-1.5-2.3-3.1-4-5.2
				c0.4-0.2,1.2-1.3,2.2-1.4c2.5-0.3,4.2,1.7,5.8,6.5c0.7-1.1,1.3-2.2,2-3.2c1-1.5,1.9-2.9,4-0.9c0.7,0.7,2.7,0.1,4.1,0.1
				c2.5-0.1,5.1-0.8,7.6-0.5c3.8,0.5,5.2,2.7,4.9,7c-2.4-3.1-5.4-2.4-8.1-1.4c-3.6,1.3-7,3-10.4,4.7c-5.4,2.8-11,3.5-17,2.4
				c-9.8-1.9-13.7-12.3-6.2-19.2c-4,0.2-5.5,2.2-6.4,8.1c-0.6-1.4-1.1-2.9-1.8-4.7c-4.6,3.5-9.3,7.1-14.5,11.1
				c1.6,0.1,2.6,0.2,3.6,0.2c1.9,0,3.8-1.3,5.6,0.8c0.4,0.5,2.5-0.5,3.8-0.5c1.2-0.1,2.4,0.1,3.6,0.5c-5.5,4.9-11.1,4-16.8,1
				c-0.9-0.4-2.3-0.5-3.1-0.2c-7.5,3.3-15.2,3.5-23.1,1.9c-1.2-0.3-2.4-0.7-3.6-0.8c-1.7-0.1-3.5,0.2-5.5,0.3
				c-0.4-2.1,1.6-2.5,3.7-3.3c-2-0.3-4-0.6-6.2-0.9c0.6-0.6,1.2-1.1,1.9-1.6c-4.1-1.4-8.2-1.6-12.2-0.5c-1.4,0.4-2.7,1.4-3.7,2.4
				c-0.5,0.5-0.2,1.8-0.2,2.8c0.9-0.3,1.8-0.5,2.6-0.8c0.3-0.1,0.4-0.6,1-1.4c0.3,1.4,0.4,2.2,0.6,3.3c2.8,0.3,4.6-4,7.7-1.8
				c0.4,0.3,0.3,1.2,0.3,1.1c-1.8,0.5-3.3,0.7-4.6,1.4c-4.1,2.2-7.3,1.8-10.2-2c-0.4,1.1-0.8,2-1.3,3.3c-0.6-0.8-1.1-1.4-1.6-2.1
				c-0.2,0.4-0.4,0.8-0.8,1.6c-0.3-0.8-0.4-1.3-0.6-2c-3.9,2.4-7.9,2.8-12.4,1.6c-2.1-0.6-4.7,0.1-7.1,0.2c0.4-0.5,1-1.2,2.1-2.5
				c-3.5,1-6.2,1.9-9,2.6c-1.5,0.4-3.2,0.6-4.7,0.5c-0.6-0.1-1.1-1.5-1.2-2.7c2,2.2,3.9,1.4,5.9,0.3c3.5-2,7.2-2.5,11.3-1.4
				c0-1.3,0-2.6,0-3.9c2.3,2.5,4.5,4.4,7.9,4c0,0,0-0.8,0-1.4c0.9,0.3,1.8,0.6,3,1c-1-1.2-2.2-2.1-2.4-3.2c-0.3-1,0.5-2.2,1.1-3.4
				c2.2,3.9,5.6,3,8.6,2.8c2.4-0.2,4.7-0.9,7-1.4c6-1.2,7.6-1,17.4,2.1c-0.6-1.4-1.3-2.6-1.6-3.9c-0.2-0.8,0.2-1.8,0.3-2.7
				c0.9,0.2,2.1,0,2.5,0.6c1.5,1.7,2.8,3.7,3.9,5.2c2.1-5.6,7.6-7.3,13.6-7.7c3.8-0.3,7.6,0.5,11.5,0.5c2.7,0,5.4-0.4,6.9-3.2
				c1.3,3.3,0.6,5.3-2.3,6.7c-1.4,0.7-3.1,0.8-4.6,1.4c-1.6,0.6-3.2,1.4-5.1,2.3c3.1,2.8,5.4,2.7,8.1,0.5c3.9-3.3,8.1-6.4,12.3-9.6
				c-1-0.5-2.2-0.8-3-1.5c-0.7-0.7-0.9-2-0.9-3.3c2.8,4.1,6.4,3.3,9.8,1.9C410.4,72.7,426,73.9,441.3,83z M370.8,94.9
				c-2.4-1.6-4.3-2.9-5.8-3.9c-1.2,1.6-2.2,3.1-3.5,4.4c-0.3,0.3-1.5-0.4-2.6-0.8c1.8-1.8,3.3-3.3,1.8-5.4c-1.4-2-4.5-2.2-7.3-0.6
				c3.9,1.8,4.9,3.9,3.4,8.7c-1.2-1.8-2.3-3-2.9-4.4c-0.5-1.2-0.5-2.8-2.5-2.4c-1.6,0.4-2.9,2.8-1.8,4.1c1.1,1.4,2.8,2.8,4.5,3.1
				C359.8,98.5,365.3,97.6,370.8,94.9z"/>
		</g>
		<g>
			<path class="st6" d="M523.3,94.1c-4.7-3.6-9.4-7.3-14.1-10.8c-0.6,1.8-1,3.3-1.5,4.9c-0.4,0.1-0.7,0.2-1.1,0.3
				c1.3-5-1.1-7.5-5.8-9c0.5,0.7,0.6,0.9,0.8,1.1c0.2,0.3,0.5,0.5,0.8,0.8c4.8,5.9,2.8,14-4.4,16.7c-6.7,2.6-13.3,2-19.7-1.2
				c-4-2-8.2-3.7-12.3-5.3c-2.4-0.9-4.7-0.6-6.5,1.7c-0.4-3.7,0.9-6.2,3.9-6.7c2.7-0.4,5.5-0.1,8.2,0.2c1.9,0.2,3.9,1.4,5.5-0.8
				c0.2-0.2,1.6,0.2,2.1,0.7c1,1.1,1.8,2.5,2.8,4c1.1-3.3,2.1-6.5,6.2-6.3c0.8,0,1.5,1.2,2.3,1.8c-0.4,0-0.7,0-1.1,0
				c-1.2,1.7-3.6,3.5-3.4,5c0.2,1.8,2.4,3.9,4.3,4.8c4.6,2.2,10.4-0.2,12.5-4.6c2.1-4.4,0.4-9.2-4.5-11.8
				c-6.9-3.7-14.4-3.6-21.9-2.6c-2.9,0.4-5.7,1.3-8.5,2.1c5.8,1,7.4,2.6,5.9,7.1c-1.9-5-5.7-3.7-9.9-3.9c1.2,0.6,1.7,0.9,2.4,1.3
				c-1.1,1.9-2.6,2.4-4.1,1.3c-3.4-2.4-6.3,0.3-8.4,3.4c-1.9,3-1.4,6,1.4,8.1c2,1.6,2.8,1.7,8.5,1.7c-0.7,0.4-1.5,1.1-2.3,1.3
				c-3.2,0.5-7.7-1.7-9.1-4.4c-1.7-3.2-0.7-6.1,1.4-8.8c2.5-3.2,2.4-4.1-0.4-7c2.5-0.1,2.8,0.3,3.7,3.9c6.9-4.5,14.5-7,22.6-7.7
				c8.1-0.7,15.8,0.5,23.4,3.5c1.3,0.5,2.7,1.1,4.1,1.3c2.6,0.4,5,0.2,6.1-2.9c1.4,2.5,0.5,3.8-3.5,4.9c5,3.8,9.7,7.6,14.7,10.9
				c1.2,0.8,3.4-0.2,5.2-0.3c-0.6-3.1-2.4-3.5-4.4-3.8c-1.7-0.3-3.4-0.7-4.9-1.4c-2.8-1.4-3.3-3.2-2.3-5.7c1.9,0.8,3.7,2,5.7,2.2
				c2.3,0.3,4.8-0.2,7.1-0.1c3.9,0.2,7.8,0.2,11.6,1c3.7,0.8,6.7,3.1,8.2,7.1c-0.1-3,1.4-4.9,3.8-6.2c0.6-0.3,1.7-0.6,2-0.3
				c0.5,0.5,0.7,1.5,0.6,2.2c-0.4,1.4-1.1,2.8-1.7,4.3c2.4-0.7,4.8-1.5,7.3-2.2c5.4-1.4,10.6,0.5,15.9,1.3c1.6,0.3,3.3,0.5,4.8,0.3
				c1.7-0.3,3.3-1.1,5.6-2c1.8,1,1.6,2.7-1.6,5.7c0.9-0.3,1.8-0.7,2.9-1c-0.1,0.5-0.2,1-0.4,1.6c3.5,0.2,5.9-1.3,8.2-4.1
				c0.1,1.2,0.1,2.4,0.2,3.8c4.2-1.1,8.3-0.1,12.3,2c1.1,0.5,2.7-0.1,4.2-0.5c1.3,0.9,0.8,2.2-0.8,2.4c-1.6,0.2-3.3-0.3-4.9-0.6
				c-2.7-0.6-5.3-1.4-8-2.2c-0.2,0.3-0.3,0.5-0.5,0.8c0.8,0.3,1.5,0.7,2.2,1c-4,0.3-7.6,0.9-11.2,0.9c-2.9-0.1-5.7-0.9-8.8-1.5
				c0,0-0.1,0.5-0.4,1.2c-0.4-0.6-0.7-1.2-1.1-1.7c-0.4,0.8-0.7,1.5-1.3,2.7c-0.6-1.6-1-2.6-1.4-3.7c-2.9,3.9-6,4.4-10.3,2
				c-1.2-0.7-2.7-0.9-4.4-1.5c-0.1-1.3,1-2.2,3.2-1.2c1.5,0.7,3,1.6,4.7,2.5c0.2-1.3,0.3-2.1,0.4-2.9c0.4,0,0.6-0.1,0.7,0
				c0.8,1,1.5,2.8,3,1.5c1.5-1.3,0.4-3.1-0.8-3.5c-2.8-1.1-5.7-1.9-8.7-2.2c-2-0.2-4.1,0.5-6.7,0.9c0.9,0.8,1.4,1.3,2.1,1.9
				c-2.2,0.3-4.3,0.5-6.4,0.8c1.8,1,4.2,1,3.7,4.4c-2-2.5-4.3-1.8-6.6-1.2c-8.8,2.3-17.4,2.3-25.9-1.4c-0.9-0.4-2.4,0.1-3.4,0.6
				c-5.5,2.7-10.9,3.5-16.2-1c2.5-3.2,5.8,1.8,8-0.5C517.9,92.6,520.8,96.4,523.3,94.1z M527.4,94.9c5.4,2.6,10.8,3.5,16.4,2.9
				c2.2-0.2,4.6-1.1,4.9-3.7c0.1-1.1-1.2-2.4-1.9-3.6c-0.8,0.7-1.8,1.3-2.4,2.2c-1,1.3-1.8,2.8-2.7,4.2c-0.4-0.2-0.8-0.3-1.1-0.5
				c0.2-1.6,0-3.5,0.7-4.8c0.7-1.4,2.2-2.3,3.4-3.3c-3.3-1.2-6.7-0.8-7.3,1.3c-0.4,1.5,0.5,3.3,1,5.5c-0.1,0-1.4,0.7-1.7,0.4
				c-1.3-1.3-2.3-2.9-3.4-4.4C531.6,92.1,529.7,93.4,527.4,94.9z"/>
		</g>
		<g>
			<path class="st6" d="M648.3,99.1c0.1,0.8,0.1,1.3,0.2,1.8c0,0.3-0.1,0.5-0.2,0.9c-132.8,0-265.5,0-398.4,0c0-0.8,0-1.6,0-2.7
				c7.7,0,15.5-0.9,23,0.3c5.7,0.9,11.3,0.8,16.8,0.8c109.9,0.1,219.7,0.2,329.6-0.1c8.6,0,17.3-0.9,26-0.9
				C646.2,99.1,647.1,99.1,648.3,99.1z"/>
		</g>
	</g>
	<g>
		<g>
			<path class="st6" d="M457,214.6c-0.6,2-0.8,4.2-3.5,4.1c0.6-1.4,1.8-2.6,1.7-3.9c-0.1-1.4-1.1-2.8-1.9-4c-2-3-2.4-6.2-0.8-8.6
				c1.7-2.6,6.5-4.7,9.3-4c0.7,0.2,1.2,0.8,2.1,1.5c-2.5,0-4.5-0.4-6.2,0.1c-2.7,0.9-4.9,2.7-5,6c0,2.6,2.7,6.7,5.2,7.4
				c1.2,0.3,2.8,0,4-0.5c1.9-0.8,3.2-0.8,4.4,1.2c-0.7,0.4-1.2,0.6-2.2,1.2c4,0,7.8,1.1,9.6-3.6c1.6,4.2-0.2,6.1-5.8,6.9
				c10.2,3.1,20.5,4.6,30.5-0.7c5.1-2.6,6.5-7.6,4-12.1c-2.4-4.3-8.3-6.3-12.7-3.8c-1.7,1-3.6,3.1-3.7,4.8c-0.1,1.5,2.3,3.1,4,5.2
				c-0.4,0.2-1.2,1.3-2.2,1.4c-2.5,0.3-4.2-1.7-5.8-6.5c-0.7,1.1-1.3,2.2-2,3.2c-1,1.5-1.9,2.9-4,0.9c-0.7-0.7-2.7-0.1-4.1-0.1
				c-2.5,0.1-5.1,0.8-7.6,0.5c-3.8-0.5-5.2-2.7-4.9-7c2.4,3.1,5.4,2.4,8.1,1.4c3.6-1.3,7-3,10.4-4.7c5.4-2.8,11-3.5,17-2.4
				c9.8,1.9,13.7,12.3,6.2,19.2c4-0.2,5.5-2.2,6.4-8.1c0.6,1.4,1.1,2.9,1.8,4.7c4.6-3.5,9.3-7.1,14.5-11.1c-1.6-0.1-2.6-0.2-3.6-0.2
				c-1.9,0-3.8,1.3-5.6-0.8c-0.4-0.5-2.5,0.5-3.8,0.5c-1.2,0.1-2.4-0.1-3.6-0.5c5.5-4.9,11.1-4,16.8-1c0.9,0.4,2.3,0.5,3.1,0.2
				c7.5-3.3,15.2-3.5,23.1-1.9c1.2,0.3,2.4,0.7,3.6,0.8c1.7,0.1,3.5-0.2,5.5-0.3c0.4,2.1-1.6,2.5-3.7,3.3c2,0.3,4,0.6,6.2,0.9
				c-0.6,0.6-1.2,1.1-1.9,1.6c4.1,1.4,8.2,1.6,12.2,0.5c1.4-0.4,2.7-1.4,3.7-2.4c0.5-0.5,0.2-1.8,0.2-2.8c-0.9,0.3-1.8,0.5-2.6,0.8
				c-0.3,0.1-0.4,0.6-1,1.4c-0.3-1.4-0.4-2.2-0.6-3.3c-2.8-0.3-4.6,4-7.7,1.8c-0.4-0.3-0.3-1.2-0.3-1.1c1.8-0.5,3.3-0.7,4.6-1.4
				c4.1-2.2,7.3-1.8,10.2,2c0.4-1.1,0.8-2,1.3-3.3c0.6,0.8,1.1,1.4,1.6,2.1c0.2-0.4,0.4-0.8,0.8-1.6c0.3,0.8,0.4,1.3,0.6,2
				c3.9-2.4,7.9-2.8,12.4-1.6c2.1,0.6,4.7-0.1,7.1-0.2c-0.4,0.5-1,1.2-2.1,2.5c3.5-1,6.2-1.9,9-2.6c1.5-0.4,3.2-0.6,4.7-0.5
				c0.6,0.1,1.1,1.5,1.2,2.7c-2-2.2-3.9-1.4-5.9-0.3c-3.5,2-7.2,2.5-11.3,1.4c0,1.3,0,2.6,0,3.9c-2.3-2.5-4.5-4.4-7.9-4
				c0,0,0,0.8,0,1.4c-0.9-0.3-1.8-0.6-3-1c1,1.2,2.2,2.1,2.4,3.2c0.3,1-0.5,2.2-1.1,3.4c-2.2-3.9-5.6-3-8.6-2.8
				c-2.4,0.2-4.7,0.9-7,1.4c-6,1.2-7.6,1-17.4-2.1c0.6,1.4,1.3,2.6,1.6,3.9c0.2,0.8-0.2,1.8-0.3,2.7c-0.9-0.2-2.1,0-2.5-0.6
				c-1.5-1.7-2.8-3.7-3.9-5.2c-2.1,5.6-7.6,7.3-13.6,7.7c-3.8,0.3-7.6-0.5-11.5-0.5c-2.7,0-5.4,0.4-6.9,3.2
				c-1.3-3.3-0.6-5.3,2.3-6.7c1.4-0.7,3.1-0.8,4.6-1.4c1.6-0.6,3.2-1.4,5.1-2.3c-3.1-2.8-5.4-2.7-8.1-0.5c-3.9,3.3-8.1,6.4-12.3,9.6
				c1,0.5,2.2,0.8,3,1.5c0.7,0.7,0.9,2,0.9,3.3c-2.8-4.1-6.4-3.3-9.8-1.9C487.9,224.9,472.3,223.7,457,214.6z M527.5,202.7
				c2.4,1.6,4.3,2.9,5.8,3.9c1.2-1.6,2.2-3.1,3.5-4.4c0.3-0.3,1.5,0.4,2.6,0.8c-1.8,1.8-3.3,3.3-1.8,5.4c1.4,2,4.5,2.2,7.3,0.6
				c-3.9-1.8-4.9-3.9-3.4-8.7c1.2,1.8,2.3,3,2.9,4.4c0.5,1.2,0.5,2.8,2.5,2.4c1.6-0.4,2.9-2.8,1.8-4.1c-1.1-1.4-2.8-2.8-4.5-3.1
				C538.5,199,533,200,527.5,202.7z"/>
		</g>
		<g>
			<path class="st6" d="M375,203.5c4.7,3.6,9.4,7.3,14.1,10.8c0.6-1.8,1-3.3,1.5-4.9c0.4-0.1,0.7-0.2,1.1-0.3c-1.3,5,1.1,7.5,5.8,9
				c-0.5-0.7-0.6-0.9-0.8-1.1c-0.2-0.3-0.5-0.5-0.8-0.8c-4.8-5.9-2.8-14,4.4-16.7c6.7-2.6,13.3-2,19.7,1.2c4,2,8.2,3.7,12.3,5.3
				c2.4,0.9,4.7,0.6,6.5-1.7c0.4,3.7-0.9,6.2-3.9,6.7c-2.7,0.4-5.5,0.1-8.2-0.2c-1.9-0.2-3.9-1.4-5.5,0.8c-0.2,0.2-1.6-0.2-2.1-0.7
				c-1-1.1-1.8-2.5-2.8-4c-1.1,3.3-2.1,6.5-6.2,6.3c-0.8,0-1.5-1.2-2.3-1.8c0.4,0,0.7,0,1.1,0c1.2-1.7,3.6-3.5,3.4-5
				c-0.2-1.8-2.4-3.9-4.3-4.8c-4.6-2.2-10.4,0.2-12.5,4.6c-2.1,4.4-0.4,9.2,4.5,11.8c6.9,3.7,14.4,3.6,21.9,2.6
				c2.9-0.4,5.7-1.3,8.5-2.1c-5.8-1-7.4-2.6-5.9-7.1c1.9,5,5.7,3.7,9.9,3.9c-1.2-0.6-1.7-0.9-2.4-1.3c1.1-1.9,2.6-2.4,4.1-1.3
				c3.4,2.4,6.3-0.3,8.4-3.4c1.9-3,1.4-6-1.4-8.1c-2-1.6-2.8-1.7-8.5-1.7c0.7-0.4,1.5-1.1,2.3-1.3c3.2-0.5,7.7,1.7,9.1,4.4
				c1.7,3.2,0.7,6.1-1.4,8.8c-2.5,3.2-2.4,4.1,0.4,7c-2.5,0.1-2.8-0.3-3.7-3.9c-6.9,4.5-14.5,7-22.6,7.7c-8.1,0.7-15.8-0.5-23.4-3.5
				c-1.3-0.5-2.7-1.1-4.1-1.3c-2.6-0.4-5-0.2-6.1,2.9c-1.4-2.5-0.5-3.8,3.5-4.9c-5-3.8-9.7-7.6-14.7-10.9c-1.2-0.8-3.4,0.2-5.2,0.3
				c0.6,3.1,2.4,3.5,4.4,3.8c1.7,0.3,3.4,0.7,4.9,1.4c2.8,1.4,3.3,3.2,2.3,5.7c-1.9-0.8-3.7-2-5.7-2.2c-2.3-0.3-4.8,0.2-7.1,0.1
				c-3.9-0.2-7.8-0.2-11.6-1c-3.7-0.8-6.7-3.1-8.2-7.1c0.1,3-1.4,4.9-3.8,6.2c-0.6,0.3-1.7,0.6-2,0.3c-0.5-0.5-0.7-1.5-0.6-2.2
				c0.4-1.4,1.1-2.8,1.7-4.3c-2.4,0.7-4.8,1.5-7.3,2.2c-5.4,1.4-10.6-0.5-15.9-1.3c-1.6-0.3-3.3-0.5-4.8-0.3c-1.7,0.3-3.3,1.1-5.6,2
				c-1.8-1-1.6-2.7,1.6-5.7c-0.9,0.3-1.8,0.7-2.9,1c0.1-0.5,0.2-1,0.4-1.6c-3.5-0.2-5.9,1.3-8.2,4.1c-0.1-1.2-0.1-2.4-0.2-3.8
				c-4.2,1.1-8.3,0.1-12.3-2c-1.1-0.5-2.7,0.1-4.2,0.5c-1.3-0.9-0.8-2.2,0.8-2.4c1.6-0.2,3.3,0.3,4.9,0.6c2.7,0.6,5.3,1.4,8,2.2
				c0.2-0.3,0.3-0.5,0.5-0.8c-0.8-0.3-1.5-0.7-2.2-1c4-0.3,7.6-0.9,11.2-0.9c2.9,0.1,5.7,0.9,8.8,1.5c0,0,0.1-0.5,0.4-1.2
				c0.4,0.6,0.7,1.2,1.1,1.7c0.4-0.8,0.7-1.5,1.3-2.7c0.6,1.6,1,2.6,1.4,3.7c2.9-3.9,6-4.4,10.3-2c1.2,0.7,2.7,0.9,4.4,1.5
				c0.1,1.3-1,2.2-3.2,1.2c-1.5-0.7-3-1.6-4.7-2.5c-0.2,1.3-0.3,2.1-0.4,2.9c-0.4,0-0.6,0.1-0.7,0c-0.8-1-1.5-2.8-3-1.5
				c-1.5,1.3-0.4,3.1,0.8,3.5c2.8,1.1,5.7,1.9,8.7,2.2c2,0.2,4.1-0.5,6.7-0.9c-0.9-0.8-1.4-1.3-2.1-1.9c2.2-0.3,4.3-0.5,6.4-0.8
				c-1.8-1-4.2-1-3.7-4.4c2,2.5,4.3,1.8,6.6,1.2c8.8-2.3,17.4-2.3,25.9,1.4c0.9,0.4,2.4-0.1,3.4-0.6c5.5-2.7,10.9-3.5,16.2,1
				c-2.5,3.2-5.8-1.8-8,0.5C380.4,205,377.6,201.2,375,203.5z M370.9,202.7c-5.4-2.6-10.8-3.5-16.4-2.9c-2.2,0.2-4.6,1.1-4.9,3.7
				c-0.1,1.1,1.2,2.4,1.9,3.6c0.8-0.7,1.8-1.3,2.4-2.2c1-1.3,1.8-2.8,2.7-4.2c0.4,0.2,0.8,0.3,1.1,0.5c-0.2,1.6,0,3.5-0.7,4.8
				c-0.7,1.4-2.2,2.3-3.4,3.3c3.3,1.2,6.7,0.8,7.3-1.3c0.4-1.5-0.5-3.3-1-5.5c0.1,0,1.4-0.7,1.7-0.4c1.3,1.3,2.3,2.9,3.4,4.4
				C366.7,205.5,368.6,204.2,370.9,202.7z"/>
		</g>
		<g>
			<path class="st6" d="M250,198.5c-0.1-0.8-0.1-1.3-0.2-1.8c0-0.3,0.1-0.5,0.2-0.9c132.8,0,265.5,0,398.4,0c0,0.8,0,1.6,0,2.7
				c-7.7,0-15.5,0.9-23-0.3c-5.7-0.9-11.3-0.8-16.8-0.8c-109.9-0.1-219.7-0.2-329.6,0.1c-8.6,0-17.3,0.9-26,0.9
				C252.1,198.5,251.2,198.5,250,198.5z"/>
		</g>
	</g>
</g>
</svg>
