<?xml version="1.0" encoding="utf-8"?>
<!-- Generator: Adobe Illustrator 24.1.2, SVG Export Plug-In . SVG Version: 6.00 Build 0)  -->
<svg version="1.1" id="圖層_1" xmlns="http://www.w3.org/2000/svg" xmlns:xlink="http://www.w3.org/1999/xlink" x="0px" y="0px"
	 viewBox="0 0 515.8 490.2" style="enable-background:new 0 0 515.8 490.2;" xml:space="preserve">
<style type="text/css">
	.st0{fill:#FFFFFF;}
	.st1{fill:#D8B479;}
	.st2{fill:#CB4042;}
	.st3{font-family:'Kefa-Regular';}
	.st4{font-size:45.4901px;}
	.st5{fill:#C78550;}
	.st6{font-family:'NaikaiFont-Regular';}
	.st7{font-size:40.4356px;}
</style>
<g>
	<g>
		<g>
			<g>
				
					<ellipse transform="matrix(0.7071 -0.7071 0.7071 0.7071 -136.1824 271.8182)" class="st0" cx="260" cy="300.3" rx="162" ry="162"/>
				<path class="st1" d="M260,140.9c42.6,0,82.6,16.6,112.7,46.7s46.7,70.2,46.7,112.7s-16.6,82.6-46.7,112.7s-70.2,46.7-112.7,46.7
					s-82.6-16.6-112.7-46.7s-46.7-70.2-46.7-112.7s16.6-82.6,46.7-112.7S217.4,140.9,260,140.9 M260,135.8
					c-90.8,0-164.5,73.6-164.5,164.5c0,90.8,73.6,164.5,164.5,164.5s164.5-73.6,164.5-164.5C424.5,209.4,350.9,135.8,260,135.8
					L260,135.8z"/>
			</g>
			<g>
				<path class="st1" d="M260,146.4c41.1,0,79.7,16,108.8,45.1c29.1,29.1,45.1,67.7,45.1,108.8s-16,79.7-45.1,108.8
					s-67.7,45.1-108.8,45.1s-79.7-16-108.8-45.1c-29.1-29.1-45.1-67.7-45.1-108.8s16-79.7,45.1-108.8
					C180.3,162.4,218.9,146.4,260,146.4 M260,144.5c-86,0-155.8,69.7-155.8,155.8S174,456.1,260,456.1s155.8-69.7,155.8-155.8
					S346,144.5,260,144.5L260,144.5z"/>
			</g>
			<g>
				<g>
					<path class="st1" d="M85,308.7c-10.7,9.4-7.1,19.9-4.4,30.4c2.8,10.9,6.8,21.3,14.6,29.9c0.8-2.5,1.2-5.3,2.6-7.2
						c1.2-1.7,3.7-2.8,5.8-3.4c0.7-0.2,2.5,1.7,3,3c0.2,0.7-1.1,2.6-2.1,3c-7.1,2.8-8.1,6.2-3.3,12.4c5.9,7.6,10.8,15.5,9.8,25.6
						c-0.1,0.7-0.2,1.4-1.1,2.2c-0.2-1-0.3-2-0.6-2.9c-1.8-4.7-2.7-10-5.6-13.8c-7-9.1-19.2-6.9-23.7,3.7c-0.6,1.5-1.9,2.7-2.9,4.1
						c-1.5-1.5-3.6-2.8-4.3-4.6c-2.7-6.9,2.9-14.6,11.5-14.9c5.2-0.2,10.4,1.3,15.3,2c-3.3-3.8-7.2-8.2-10.9-12.7
						c-7.4-8.9-14.3-18.2-17-29.6c-1.3-5.7-1.4-12.2-0.3-18C72.3,311.4,78,308,85,308.7z M75,316.4c-8.4,8.2-0.4,35.1,13.4,46.3
						C80.1,348.3,75.3,333.1,75,316.4z M99,381.9c-7.5-5.7-17.3-5.8-22.4-0.4c-2.3,2.4-3.6,5-0.8,8.6C82.4,383.9,89,377.8,99,381.9z
						 M96.9,365.3c0.4,0.2,0.8,0.5,1.2,0.7c1.7-0.8,3.5-1.5,5-2.5c0.7-0.5,0.9-1.8,1.3-2.7c-1-0.2-2.6-1-3-0.6
						C99.6,361.7,98.3,363.6,96.9,365.3z"/>
				</g>
				<g>
					<path class="st1" d="M84.8,240.2c3.7-4.6,7.3-9.3,11-13.9c1.2-1.5,2.4-2.9,3.5-4.6c-6,2.4-11.9,4.1-18.2,2.2
						c-7.1-2.2-11-8.7-8.5-14.7c0.7-1.7,2.7-2.8,4.1-4.2c1,1.3,2.4,2.4,3,3.9c4.7,11,17.2,12.8,24.4,3.3c1.8-2.3,3.1-5.1,4-7.9
						c0.9-2.6,1-5.5,1.8-8.3c1.6,4.7,1.5,9.5-0.6,13.8c-2.3,4.9-5.3,9.6-8.5,14.1c-4.3,6.2-3.5,9.7,3.4,12.1
						c2.1,0.7,3.4,1.9,2.1,3.8c-0.8,1.3-3,2.5-4.4,2.3c-3.5-0.4-5.3-3.6-6.8-11.3c-2.9,4.5-6.3,8.2-7.9,12.5
						c-3.6,9.9-6.7,20-9.2,30.2c-1.5,5.9,0.1,11.6,4.7,16c0.4,0.4,0.7,1,1,1.5c0.1,0.2,0,0.6,0,0.9c-4.8,0.8-9.6-1.4-11.6-6.8
						c-1.6-4.3-2.6-9.3-2.1-13.8c1.3-12,6.8-22.3,15-31.2c-0.6,1.3-1.3,2.6-1.9,3.8c-3.2,5.9-7.1,11.5-9.2,17.8
						c-1.8,5.3-1.8,11.3-2.1,17c-0.1,1.8,1.5,3.7,2.4,5.5c1-16.6,6.3-31.3,13.8-46c-0.9,0.7-1.3,0.9-1.6,1.2
						C85.8,239.7,85.3,239.9,84.8,240.2z M99,218.6c-8.1,3.1-14.3,0.1-19.9-5c-1.1-1-2.6-1.5-3.9-2.2c-0.1,1.8-0.7,3.7-0.2,5.3
						c0.5,1.5,2,2.9,3.4,4C83.8,224.6,94.7,223.6,99,218.6z M97.4,233.9c-0.3,0.2-0.6,0.4-0.9,0.6c1.6,2,3,4.1,4.7,5.9
						c0.4,0.4,2-0.4,3-0.6c-0.4-0.9-0.5-2.2-1.2-2.7C101.3,235.9,99.3,234.9,97.4,233.9z"/>
				</g>
				<g>
					<path class="st1" d="M83.2,238.8c-1,1.5-2.1,4.3-4.2,5.8c-5.7,4.2-11.4,8.8-17.7,11.7c-10,4.6-19.2,9.7-24.4,19.9
						c-0.4,0.8-1.1,1.4-1.8,2c-0.3,0.3-0.8,0.3-2.6,0.7c0.3-3.7,0-7.1,0.9-10.1c2.4-7.7,7.6-12.5,15.9-13.8c5.7-0.9,11.8-1.4,16.8-4
						C72.5,247.9,77.8,242.8,83.2,238.8z M36.5,270.5c7.3-5.1,14.8-10.3,21.6-15C44.6,256.1,35.5,262.4,36.5,270.5z"/>
				</g>
				<g>
					<path class="st1" d="M62.4,345.3c9.6,2.7,16.4,8.7,20.6,17.8c-0.3-0.2-0.7-0.2-0.9-0.5c-7.3-11.2-18.2-15.8-31-16.9
						c-10.7-0.9-17.8-8.2-18.6-18.9c-0.1-1.7,0.5-3.4,0.9-6.1c1.8,1.9,3.2,2.9,3.9,4.2c4.8,9.1,12.5,14.6,21.9,18.2
						C60.4,343.6,61.4,344.5,62.4,345.3c-10.1-2.6-18.6-8.1-25.8-15.9c-0.5,4.7,1.5,8.1,4.7,10.5C47.5,344.7,55,345.1,62.4,345.3z"
						/>
				</g>
				<g>
					<path class="st1" d="M70,358.9c9,2.3,15.7,7.7,21.1,15c-6.1-5.4-12.2-10.8-20.6-12.1c-8.2-1.3-15,2.4-19.4,10.5
						c-5.2-3.3-3.4-9.7,4-13.8c-1.1,1.2-2.2,2.3-3.1,3.6c-0.8,1.3-1.4,2.8-2,4.2c6.9-4.4,13.7-6.8,21.7-5.5
						C70.9,359.9,70.5,359.4,70,358.9z"/>
				</g>
				<g>
					<path class="st1" d="M51.6,328.9c-7.8-3.3-10.5-17.1-4.5-22c1.3-1,3.7-0.6,5.6-0.9c-0.1,2,0.7,4.7-0.3,6
						C46,320,45.9,320.3,51.6,328.9z M44.5,317.8c0.4,0,0.7,0.1,1.1,0.1c1.6-2.1,3.5-4,4.8-6.2c0.6-1,0.1-2.6,0.2-4
						c-1.2,0.5-3.1,0.7-3.5,1.6C45.9,312,45.3,315,44.5,317.8z"/>
				</g>
				<g>
					<path class="st1" d="M61.7,243.5c-3.6-1.5-7.8-2.2-10.8-4.5c-4-3.1-3.5-8.4,0.4-10.7c3.3,10.3,12.1,10.4,20.6,11
						c0.1,0.2,0.2,0.4,0.1,0.6c-8,1.1-15.1-0.9-21.8-6.6c0.2,5,3,6.7,6.2,8.1C58.1,242.1,59.9,242.8,61.7,243.5z"/>
				</g>
				<g>
					<path class="st1" d="M51.3,272c-0.8,1.2-1.6,2.4-2.3,3.6c-2.7,4.5-2.3,7.6,1.5,11.1c2,1.9,4.3,3.6,2.8,6.7
						c-0.4,0.9-2.6,2.1-3.1,1.8c-2-1.5-4.5-3-5.5-5.2C42,283.6,44.8,276,51.3,272z M45.6,282.4c-0.4,0.1-0.7,0.1-1.1,0.2
						c0.7,2.9,1.2,5.8,2.4,8.5c0.4,0.9,2.3,1.2,3.5,1.8c0-1.4,0.4-3.1-0.2-4.2C49,286.4,47.2,284.4,45.6,282.4z"/>
				</g>
				<g>
					<path class="st1" d="M57.3,324.9c1.8-1.6,3-2.8,4.3-4c1,1.2,2.9,2.7,2.7,3.7c-0.4,1.8-2,3.4-3.1,5
						C60.1,328.3,58.9,326.9,57.3,324.9z"/>
				</g>
				<g>
					<path class="st1" d="M57.1,274.8c2.1-1.8,3.4-2.9,4.7-4c0.9,1.9,2.2,3.7,2.5,5.7c0.1,0.8-1.8,2-2.9,3
						C60.2,278.1,58.9,276.8,57.1,274.8z"/>
				</g>
				<g>
					<path class="st1" d="M71.4,241c0.2-0.4,0.3-0.7,0.5-1.1c0.1-0.2,0.1-0.4-0.1-0.6c6.5-4.1,13.1-8.2,19.2-12
						C86.2,233.4,80,238.7,71.4,241z"/>
				</g>
				<g>
					<path class="st1" d="M61.6,338.5c-1.7-2.4-2-5,0.7-6.4c1-0.5,4.3,0.9,4.4,1.7c0.4,2.7,0.8,6.8-0.7,8c-2.3,1.9-3.9-1.1-4.6-3.5
						c1.3,1,2.6,1.9,4.8,3.6c-0.3-3.6,1.2-6.4-2.4-7.7C63.6,334.2,62.4,337,61.6,338.5z"/>
				</g>
				<g>
					<path class="st1" d="M59,264.9c2.4-2.7,4.2-4.8,6.1-6.8c0.9,1.6,2.6,3.2,2.6,4.8c0,2.6-0.1,6.2-4.1,6
						C62.3,268.8,61.1,266.8,59,264.9z M66.7,260.3c-0.9-0.4-1.7-0.7-2.6-1.1c-0.8,1.9-1.6,3.8-2.1,5.8c-0.1,0.3,1.4,1,2.2,1.5
						C65.1,264.5,65.9,262.4,66.7,260.3z"/>
				</g>
				<g>
					<path class="st1" d="M65.5,286.4c-1.5,1-2.9,2.1-3,1.9c-0.9-0.9-1.9-2.1-2.2-3.3c-0.2-0.7,1.1-1.6,1.7-2.5
						C63,283.6,64,284.7,65.5,286.4z"/>
				</g>
			</g>
			<g>
				<g>
					<path class="st1" d="M431.4,291.9c10.7-9.4,7.1-19.9,4.4-30.4c-2.8-10.9-6.8-21.3-14.6-29.9c-0.8,2.5-1.2,5.3-2.6,7.2
						c-1.2,1.7-3.7,2.8-5.8,3.4c-0.7,0.2-2.5-1.7-3-3c-0.2-0.7,1.1-2.6,2.1-3c7.1-2.8,8.1-6.2,3.3-12.4c-5.9-7.6-10.8-15.5-9.8-25.6
						c0.1-0.7,0.2-1.4,1.1-2.2c0.2,1,0.3,2,0.6,2.9c1.8,4.7,2.7,10,5.6,13.8c7,9.1,19.2,6.9,23.7-3.7c0.6-1.5,1.9-2.7,2.9-4.1
						c1.5,1.5,3.6,2.8,4.3,4.6c2.7,6.9-2.9,14.6-11.5,14.9c-5.2,0.2-10.4-1.3-15.3-2c3.3,3.8,7.2,8.2,10.9,12.7
						c7.4,8.9,14.3,18.2,17,29.6c1.3,5.7,1.4,12.2,0.3,18C444.1,289.2,438.4,292.6,431.4,291.9z M441.4,284.2
						c8.4-8.2,0.4-35.1-13.4-46.3C436.2,252.3,441.1,267.5,441.4,284.2z M417.4,218.8c7.5,5.7,17.3,5.8,22.4,0.4
						c2.3-2.4,3.6-5,0.8-8.6C434,216.7,427.4,222.8,417.4,218.8z M419.5,235.3c-0.4-0.2-0.8-0.5-1.2-0.7c-1.7,0.8-3.5,1.5-5,2.5
						c-0.7,0.5-0.9,1.8-1.3,2.7c1,0.2,2.6,1,3,0.6C416.8,238.9,418.1,237,419.5,235.3z"/>
				</g>
				<g>
					<path class="st1" d="M431.6,360.4c-3.7,4.6-7.3,9.3-11,13.9c-1.2,1.5-2.4,2.9-3.5,4.6c6-2.4,11.9-4.1,18.2-2.2
						c7.1,2.2,11,8.7,8.5,14.7c-0.7,1.7-2.7,2.8-4.1,4.2c-1-1.3-2.4-2.4-3-3.9c-4.7-11-17.2-12.8-24.4-3.3c-1.8,2.3-3.1,5.1-4,7.9
						c-0.9,2.6-1,5.5-1.8,8.3c-1.6-4.7-1.5-9.5,0.6-13.8c2.3-4.9,5.3-9.6,8.5-14.1c4.3-6.2,3.5-9.7-3.4-12.1
						c-2.1-0.7-3.4-1.9-2.1-3.8c0.8-1.3,3-2.5,4.4-2.3c3.5,0.4,5.3,3.6,6.8,11.3c2.9-4.5,6.3-8.2,7.9-12.5c3.6-9.9,6.7-20,9.2-30.2
						c1.5-5.9-0.1-11.6-4.7-16c-0.4-0.4-0.7-1-1-1.5c-0.1-0.2,0-0.6,0-0.9c4.8-0.8,9.6,1.4,11.6,6.8c1.6,4.3,2.6,9.3,2.1,13.8
						c-1.3,12-6.8,22.3-15,31.2c0.6-1.3,1.3-2.6,1.9-3.8c3.2-5.9,7.1-11.5,9.2-17.8c1.8-5.3,1.8-11.3,2.1-17
						c0.1-1.8-1.5-3.7-2.4-5.5c-1,16.6-6.3,31.3-13.8,46c0.9-0.7,1.3-0.9,1.6-1.2C430.6,361,431.1,360.7,431.6,360.4z M417.4,382.1
						c8.1-3.1,14.3-0.1,19.9,5c1.1,1,2.6,1.5,3.9,2.2c0.1-1.8,0.7-3.7,0.2-5.3c-0.5-1.5-2-2.9-3.4-4
						C432.6,376,421.7,377,417.4,382.1z M419,366.7c0.3-0.2,0.6-0.4,0.9-0.6c-1.6-2-3-4.1-4.7-5.9c-0.4-0.4-2,0.4-3,0.6
						c0.4,0.9,0.5,2.2,1.2,2.7C415.1,364.8,417.1,365.7,419,366.7z"/>
				</g>
				<g>
					<path class="st1" d="M433.2,361.8c1-1.5,2.1-4.3,4.2-5.8c5.7-4.2,11.4-8.8,17.7-11.7c10-4.6,19.2-9.7,24.4-19.9
						c0.4-0.8,1.1-1.4,1.8-2c0.3-0.3,0.8-0.3,2.6-0.7c-0.3,3.7,0,7.1-0.9,10.1c-2.4,7.7-7.6,12.5-15.9,13.8
						c-5.7,0.9-11.8,1.4-16.8,4C443.9,352.7,438.6,357.8,433.2,361.8z M479.9,330.1c-7.3,5.1-14.8,10.3-21.6,15
						C471.8,344.6,480.9,338.3,479.9,330.1z"/>
				</g>
				<g>
					<path class="st1" d="M454,255.4c-9.6-2.7-16.4-8.7-20.6-17.8c0.3,0.2,0.7,0.2,0.9,0.5c7.3,11.2,18.2,15.8,31,16.9
						c10.7,0.9,17.8,8.2,18.6,18.9c0.1,1.7-0.5,3.4-0.9,6.1c-1.8-1.9-3.2-2.9-3.9-4.2c-4.8-9.1-12.5-14.6-21.9-18.2
						C456,257,455,256.1,454,255.4c10.1,2.6,18.6,8.1,25.8,15.9c0.5-4.7-1.5-8.1-4.7-10.5C468.9,255.9,461.4,255.5,454,255.4z"/>
				</g>
				<g>
					<path class="st1" d="M446.4,241.7c-9-2.3-15.7-7.7-21.1-15c6.1,5.4,12.2,10.8,20.6,12.1c8.2,1.3,15-2.4,19.4-10.5
						c5.2,3.3,3.4,9.7-4,13.8c1.1-1.2,2.2-2.3,3.1-3.6c0.8-1.3,1.4-2.8,2-4.2c-6.9,4.4-13.7,6.8-21.7,5.5
						C445.4,240.7,445.9,241.2,446.4,241.7z"/>
				</g>
				<g>
					<path class="st1" d="M464.8,271.7c7.8,3.3,10.5,17.1,4.5,22c-1.3,1-3.7,0.6-5.6,0.9c0.1-2-0.7-4.7,0.3-6
						C470.4,280.6,470.5,280.3,464.8,271.7z M471.9,282.8c-0.4,0-0.7-0.1-1.1-0.1c-1.6,2.1-3.5,4-4.8,6.2c-0.6,1-0.1,2.6-0.2,4
						c1.2-0.5,3.1-0.7,3.5-1.6C470.5,288.6,471.1,285.6,471.9,282.8z"/>
				</g>
				<g>
					<path class="st1" d="M454.7,357.1c3.6,1.5,7.8,2.2,10.8,4.5c4,3.1,3.5,8.4-0.4,10.7c-3.3-10.3-12.1-10.4-20.6-11
						c-0.1-0.2-0.2-0.4-0.1-0.6c8-1.1,15.1,0.9,21.8,6.6c-0.2-5-3-6.7-6.2-8.1C458.3,358.5,456.5,357.8,454.7,357.1z"/>
				</g>
				<g>
					<path class="st1" d="M465,328.6c0.8-1.2,1.6-2.4,2.3-3.6c2.7-4.5,2.3-7.6-1.5-11.1c-2-1.9-4.3-3.6-2.8-6.7
						c0.4-0.9,2.6-2.1,3.1-1.8c2,1.5,4.5,3,5.5,5.2C474.3,317,471.6,324.7,465,328.6z M470.8,318.3c0.4-0.1,0.7-0.1,1.1-0.2
						c-0.7-2.9-1.2-5.8-2.4-8.5c-0.4-0.9-2.3-1.2-3.5-1.8c0,1.4-0.4,3.1,0.2,4.2C467.4,314.2,469.2,316.2,470.8,318.3z"/>
				</g>
				<g>
					<path class="st1" d="M459.1,275.7c-1.8,1.6-3,2.8-4.3,4c-1-1.2-2.9-2.7-2.7-3.7c0.4-1.8,2-3.4,3.1-5
						C456.3,272.3,457.4,273.7,459.1,275.7z"/>
				</g>
				<g>
					<path class="st1" d="M459.3,325.8c-2.1,1.8-3.4,2.9-4.7,4c-0.9-1.9-2.2-3.7-2.5-5.7c-0.1-0.8,1.8-2,2.9-3
						C456.2,322.5,457.4,323.8,459.3,325.8z"/>
				</g>
				<g>
					<path class="st1" d="M444.9,359.6c-0.2,0.4-0.3,0.7-0.5,1.1c-0.1,0.2-0.1,0.4,0.1,0.6c-6.5,4.1-13.1,8.2-19.2,12
						C430.2,367.3,436.4,361.9,444.9,359.6z"/>
				</g>
				<g>
					<path class="st1" d="M454.8,262.1c1.7,2.4,2,5-0.7,6.4c-1,0.5-4.3-0.9-4.4-1.7c-0.4-2.7-0.8-6.8,0.7-8c2.3-1.9,3.9,1.1,4.6,3.5
						c-1.3-1-2.6-1.9-4.8-3.6c0.3,3.6-1.2,6.4,2.4,7.7C452.8,266.4,454,263.6,454.8,262.1z"/>
				</g>
				<g>
					<path class="st1" d="M457.4,335.7c-2.4,2.7-4.2,4.8-6.1,6.8c-0.9-1.6-2.6-3.2-2.6-4.8c0-2.6,0.1-6.2,4.1-6
						C454.1,331.8,455.3,333.8,457.4,335.7z M449.6,340.3c0.9,0.4,1.7,0.7,2.6,1.1c0.8-1.9,1.6-3.8,2.1-5.8c0.1-0.3-1.4-1-2.2-1.5
						C451.3,336.1,450.5,338.2,449.6,340.3z"/>
				</g>
				<g>
					<path class="st1" d="M450.9,314.2c1.5-1,2.9-2.1,3-1.9c0.9,0.9,1.9,2.1,2.2,3.3c0.2,0.7-1.1,1.6-1.7,2.5
						C453.4,317,452.4,315.9,450.9,314.2z"/>
				</g>
			</g>
		</g>
		<text transform="matrix(1 0 0 1 146.45 63.3918)" class="st2 st3 st4">My Account</text>
		<text transform="matrix(1 0 0 1 176.0032 106.7112)" class="st5 st6 st7">個人資料</text>
	</g>
	<g>
		<path class="st1" d="M291.3,305.2c-9.3,6.8-20.4,10.6-32.1,10.8l-1,0c-12.4,0-23.9-4.1-33.3-11c-15.1,12.1-24.8,32.2-24.4,54.9
			c0,0.4,3.9-7,0,1.2c-3.4,7.2,115.5,8.1,115.4-2c0-0.7,0-1.2,0-1.6C315.4,335.8,305.8,316.8,291.3,305.2z"/>
	</g>
	<g>
		<path class="st1" d="M299.9,254.5c-0.1-0.5-0.2-0.9-0.2-1.4c-0.1-0.9-0.3-1.8-0.5-2.8c-0.1-0.5-0.3-1-0.4-1.5
			c-0.2-0.8-0.4-1.6-0.7-2.4c-0.2-0.5-0.4-1-0.6-1.6c-0.3-0.8-0.5-1.5-0.9-2.3c-0.2-0.5-0.5-1-0.7-1.5c-0.3-0.7-0.7-1.4-1.1-2.1
			c-0.3-0.5-0.6-1-0.9-1.4c-0.4-0.7-0.8-1.3-1.2-2c-0.3-0.5-0.7-0.9-1-1.3c-0.5-0.6-0.9-1.2-1.4-1.8c-0.4-0.4-0.8-0.8-1.2-1.2
			c-0.5-0.6-1-1.1-1.6-1.7c-0.4-0.4-0.8-0.8-1.3-1.1c-0.6-0.5-1.1-1-1.7-1.5c-0.5-0.4-0.9-0.7-1.4-1c-0.6-0.5-1.2-0.9-1.8-1.3
			c-0.5-0.3-1-0.6-1.5-0.9c-0.6-0.4-1.3-0.8-2-1.1c-0.5-0.3-1.1-0.5-1.6-0.8c-0.7-0.3-1.3-0.7-2-0.9c-0.6-0.2-1.2-0.4-1.7-0.6
			c-0.7-0.3-1.4-0.5-2.1-0.7c-0.6-0.2-1.2-0.3-1.8-0.5c-0.7-0.2-1.4-0.4-2.2-0.5c-0.6-0.1-1.3-0.2-1.9-0.3c-0.7-0.1-1.5-0.2-2.2-0.3
			c-0.7-0.1-1.4-0.1-2-0.1c-0.9,0-1.7-0.1-2.6-0.1c-2.9,0.1-5.7,0.4-8.4,1c-19.1,4.2-33.2,21.4-32.8,41.7c0,1.4,0.1,2.9,0.3,4.3
			c0.1,0.4,0.1,0.8,0.2,1.3c0.1,1,0.3,1.9,0.5,2.9c0.1,0.5,0.3,1,0.4,1.5c0.2,0.8,0.4,1.6,0.7,2.4c0.2,0.5,0.4,1,0.6,1.6
			c0.3,0.8,0.5,1.5,0.9,2.2c0.2,0.5,0.5,1,0.8,1.5c0.3,0.7,0.7,1.4,1.1,2.1c0.3,0.5,0.6,1,0.9,1.5c0.4,0.7,0.8,1.3,1.2,1.9
			c0.3,0.5,0.7,0.9,1,1.4c0.5,0.6,0.9,1.2,1.4,1.8c0.4,0.4,0.8,0.9,1.2,1.3c0.5,0.6,1,1.1,1.5,1.6c0.4,0.4,0.9,0.8,1.3,1.2
			c0.6,0.5,1.1,1,1.7,1.5c0.5,0.4,1,0.7,1.5,1.1c0.6,0.4,1.2,0.9,1.8,1.3c0.5,0.3,1.1,0.6,1.6,0.9c0.6,0.4,1.2,0.8,1.9,1.1
			c0.1,0.1,0.2,0.1,0.3,0.1c0.5,0.2,0.9,0.4,1.4,0.7c0.7,0.3,1.3,0.6,2,0.9c0.6,0.2,1.2,0.4,1.8,0.7c0.7,0.2,1.3,0.5,2,0.7
			c0.6,0.2,1.3,0.3,1.9,0.5c0.7,0.2,1.4,0.4,2.1,0.5c0.7,0.1,1.3,0.2,2,0.3c0.7,0.1,1.4,0.2,2.2,0.3c0.7,0.1,1.4,0.1,2,0.1
			c0.9,0,1.7,0.1,2.6,0.1c6.6-0.1,12.8-1.8,18.3-4.6c13.9-7.1,23.3-21.5,23-38.1C300.2,257.3,300.1,255.9,299.9,254.5z"/>
	</g>
</g>
</svg>
