<?xml version="1.0" encoding="utf-8"?>
<!-- Generator: Adobe Illustrator 24.1.2, SVG Export Plug-In . SVG Version: 6.00 Build 0)  -->
<svg version="1.1" id="圖層_1" xmlns="http://www.w3.org/2000/svg" xmlns:xlink="http://www.w3.org/1999/xlink" x="0px" y="0px"
	 viewBox="0 0 112.7 63.4" style="enable-background:new 0 0 112.7 63.4;" xml:space="preserve">
<style type="text/css">
	.st0{fill:#CB4042;}
</style>
<g>
	<g>
		<path class="st0" d="M64.6,34.2c-2.1,1.5-4.7,2.4-7.3,2.5l-0.2,0c-2.8,0-5.5-0.9-7.6-2.5c-3.5,2.8-5.7,7.4-5.6,12.5
			c0,0.1,0.9-1.6,0,0.3c-0.8,1.7,26.4,1.9,26.4-0.5c0-0.2,0-0.3,0-0.4C70.1,41.2,67.9,36.9,64.6,34.2z"/>
	</g>
	<g>
		<path class="st0" d="M70.2,46.2C70.2,46.2,70.2,46.2,70.2,46.2C70.2,46.3,70.2,45.7,70.2,46.2z"/>
	</g>
	<g>
		<path class="st0" d="M57,33.4c0.1,0,0.1,0,0.2,0c-0.2,0-0.4,0-0.6,0C56.7,33.4,56.9,33.4,57,33.4z"/>
	</g>
	<g>
		<path class="st0" d="M66.5,22.6c0-0.1,0-0.2-0.1-0.3c0-0.2-0.1-0.4-0.1-0.6c0-0.1-0.1-0.2-0.1-0.4c0-0.2-0.1-0.4-0.2-0.6
			c0-0.1-0.1-0.2-0.1-0.4c-0.1-0.2-0.1-0.3-0.2-0.5c-0.1-0.1-0.1-0.2-0.2-0.3c-0.1-0.2-0.2-0.3-0.2-0.5c-0.1-0.1-0.1-0.2-0.2-0.3
			c-0.1-0.2-0.2-0.3-0.3-0.5c-0.1-0.1-0.2-0.2-0.2-0.3c-0.1-0.1-0.2-0.3-0.3-0.4c-0.1-0.1-0.2-0.2-0.3-0.3c-0.1-0.1-0.2-0.3-0.4-0.4
			c-0.1-0.1-0.2-0.2-0.3-0.3c-0.1-0.1-0.3-0.2-0.4-0.3c-0.1-0.1-0.2-0.2-0.3-0.2c-0.1-0.1-0.3-0.2-0.4-0.3c-0.1-0.1-0.2-0.1-0.3-0.2
			c-0.1-0.1-0.3-0.2-0.4-0.3c-0.1-0.1-0.2-0.1-0.4-0.2C61,15,60.8,15,60.6,14.9c-0.1-0.1-0.3-0.1-0.4-0.1c-0.2-0.1-0.3-0.1-0.5-0.2
			c-0.1,0-0.3-0.1-0.4-0.1c-0.2,0-0.3-0.1-0.5-0.1c-0.1,0-0.3,0-0.4-0.1c-0.2,0-0.3-0.1-0.5-0.1c-0.2,0-0.3,0-0.5,0
			c-0.2,0-0.4,0-0.6,0c-0.7,0-1.3,0.1-1.9,0.2c-4.4,1-7.6,4.9-7.5,9.5c0,0.3,0,0.7,0.1,1c0,0.1,0,0.2,0,0.3c0,0.2,0.1,0.4,0.1,0.7
			c0,0.1,0.1,0.2,0.1,0.4c0,0.2,0.1,0.4,0.2,0.6c0,0.1,0.1,0.2,0.1,0.4c0.1,0.2,0.1,0.3,0.2,0.5c0.1,0.1,0.1,0.2,0.2,0.4
			c0.1,0.2,0.2,0.3,0.2,0.5c0.1,0.1,0.1,0.2,0.2,0.3c0.1,0.1,0.2,0.3,0.3,0.4c0.1,0.1,0.2,0.2,0.2,0.3c0.1,0.1,0.2,0.3,0.3,0.4
			c0.1,0.1,0.2,0.2,0.3,0.3c0.1,0.1,0.2,0.3,0.4,0.4c0.1,0.1,0.2,0.2,0.3,0.3c0.1,0.1,0.2,0.2,0.4,0.3c0.1,0.1,0.2,0.2,0.3,0.2
			c0.1,0.1,0.3,0.2,0.4,0.3c0.1,0.1,0.2,0.1,0.4,0.2c0.1,0.1,0.3,0.2,0.4,0.3c0,0,0,0,0.1,0c0.1,0.1,0.2,0.1,0.3,0.2
			c0.1,0.1,0.3,0.1,0.4,0.2c0.1,0.1,0.3,0.1,0.4,0.1c0.2,0.1,0.3,0.1,0.5,0.2c0.1,0,0.3,0.1,0.4,0.1c0.2,0,0.3,0.1,0.5,0.1
			c0.1,0,0.3,0,0.5,0.1c0.2,0,0.3,0.1,0.5,0.1c0.2,0,0.3,0,0.5,0c0.2,0,0.4,0,0.6,0c1.5,0,2.9-0.4,4.2-1c3.2-1.6,5.3-4.9,5.3-8.7
			C66.6,23.3,66.6,23,66.5,22.6z"/>
	</g>
	<g>
		<path class="st0" d="M52.5,32.3C52.6,32.3,52.6,32.3,52.5,32.3C52.6,32.3,52.6,32.3,52.5,32.3C52.6,32.3,52.6,32.3,52.5,32.3z"/>
	</g>
	<g>
		<path class="st0" d="M52.6,32.3c0.1,0.1,0.2,0.1,0.3,0.1C52.8,32.4,52.7,32.4,52.6,32.3C52.6,32.3,52.6,32.3,52.6,32.3z"/>
	</g>
</g>
</svg>
