<svg xmlns="http://www.w3.org/2000/svg" viewBox="0 0 90.5 31.52"><defs><style>.cls-1{font-size:22.17px;font-family:Kefa-Regular, Kefa;}.cls-1,.cls-5{fill:#e16b8c;}.cls-2{letter-spacing:-0.02em;}.cls-3,.cls-4{fill:none;stroke-miterlimit:10;}.cls-3{stroke:#f4a7b9;}.cls-4{stroke:#e16b8c;stroke-width:2px;}</style></defs><title>資產 8</title><g id="圖層_2" data-name="圖層 2"><g id="圖層_1-2" data-name="圖層 1"><text class="cls-1" transform="translate(21.67 18.48) scale(1.08 1)"><tspan class="cls-2">T</tspan><tspan x="13.05" y="0">OP</tspan></text><line class="cls-3" y1="31.02" x2="90.5" y2="31.02"/><line class="cls-4" y1="27.71" x2="90.5" y2="27.71"/><path class="cls-5" d="M6.08,2.57c0,3.84-2.56,8.31-4.75,8.31,2.19,0,4.75,4.47,4.75,8.31,0-3.84,2.55-8.31,4.74-8.31C8.63,10.88,6.08,6.41,6.08,2.57Zm77,0c0,3.84-2.56,8.31-4.75,8.31,2.19,0,4.75,4.47,4.75,8.31,0-3.84,2.55-8.31,4.74-8.31C85.63,10.88,83.08,6.41,83.08,2.57Z"/></g></g></svg>