<?xml version="1.0" encoding="utf-8"?>
<!-- Generator: Adobe Illustrator 24.0.1, SVG Export Plug-In . SVG Version: 6.00 Build 0)  -->
<svg version="1.1" id="圖層_1" xmlns="http://www.w3.org/2000/svg" xmlns:xlink="http://www.w3.org/1999/xlink" x="0px" y="0px"
	 viewBox="0 0 504.8 418.9" style="enable-background:new 0 0 504.8 418.9;" xml:space="preserve">
<style type="text/css">
	.st0{fill:none;stroke:#EDD2A6;stroke-miterlimit:10;}
</style>
<title>資產 3</title>
<g id="圖層_2_1_">
	<g id="background">
		<path class="st0" d="M315.8,85.4c9.1,12.4,19.5,23.4,32.2,32.3c6.1,4.3,12.3,8.2,19.3,10.5c6.5,2.1,13.3,3.1,20.2,1.6
			c6.1-1.4,9.6-4.9,9.5-11.5c-0.2-10.4,2.6-20.4,2.8-30.7c0.1-4.3-0.2-8.6-1.1-12.9c-1.2-5.6,0-11.5-1-17.3
			c-0.6-4.4-2.2-8.6-4.7-12.3c-6-8.5-11.8-17.1-18.4-25.1c-3.8-4.7-8.2-9.4-14.6-11c-0.4-0.1-0.9-0.4-1.2-0.3
			c-6.9,2.6-10.5-2.7-14.5-6.4c-2.9-2.7-6.7-3.3-9.9-5.4c-2.7-1.8-5.5-3.4-6.8-6.4c-1.7-4.1-5.2-5.1-8.9-5.7
			c-5.8-0.9-11.8-0.3-17.4,1.5c-6.2,1.9-11.8,2.2-16.9-2.5s-10.5-9.5-15.7-14.2"/>
		<path class="st0" d="M280.1,217c4.2,5.3,9.5,7.1,16.1,5.4c6.3-1.6,13-2,19.1-4.6s10.5-8,12-14.5c1.7-6.6,5.4-11.1,11.2-13.7
			c8-3.5,11.9-9,11.6-17.8c0-3.1,0.4-6.1,1.4-9c3.1-10.4-0.1-19-6.8-26.8c-4.4-4.8-7.8-10.4-10.3-16.4c-3.8-9.6-11.1-16.6-18.8-23
			c-5.5-4.6-9.5-10.8-15.5-14.7c-2.6-1.7-4.2-4.9-7.5-5.6"/>
		<path class="st0" d="M132.1-60.5c-2.7,3.4-7.1,3-10.6,4.3c-7.1,2.5-13.2,7.4-17.1,13.9c-4.2,6.8-9.7,12.5-16.3,17
			c-8.3,5.5-12.9,14.5-18.4,22.6C67.2,1,66,5,65,9.1c-1.7,7-0.1,9.5,6.9,10.2c4,0.4,7.9,0.5,11.9,0.8c7.3,0.5,14.4-1.8,21.8-1.5
			c2.7,0.1,4.2,1.3,6.6,1.9c-5.1,5.4-11.3,6.7-17.8,7.2c-1.7,0.2-3.5,0.5-5.2,0.9"/>
		<path class="st0" d="M171.6,349.7c3.5-2.5,4.4-6.7,5.5-10.3c3.2-10.4,5.6-21,4.6-32c-1.2-13.7-7.5-25.3-16.3-35.3
			c-8.3-9.4-17.5-17.9-26.3-26.9"/>
		<path class="st0" d="M242.6,134.2c-1.8-2.4-5.4-1.2-7.1-4c-2.2-3.5-5.8-5.3-9.3-7.4c-2.2-1.3-1.4-4.2-2.2-6.2
			c-1.2-2.8,0.4-3.9,1.5-5.6c3.2-4.6,6.6-8.8,12.8-9.9c3.5-0.6,3.4-4.8,4-7.4c1.7-7.7,3.1-15.5,0.9-23.6c-1.4-5.4-4.7-10.2-9.3-13.5
			c-5.9-4-10.4-9.7-12.8-16.4c-3.6-9.8-10.4-17.2-22.3-17c-1.5-0.1-2.9-0.3-4.3-0.6"/>
		<path class="st0" d="M27.4,99.6c-7.9-3.5-15.2-2.8-21.8,3.1c-2.5,2.2-4.3,5.1-2.4,8.2c1.6,2.7,4.8,3.8,8,3.4
			c5-0.6,9.4-2.7,11.6-7.4C26.4,99.5,33,97,40.2,95.2c0.8-0.2,1.2-0.1,1.6-1c1.5-3.8,4.8-6.1,7.9-8.3c6.7-4.7,8.6-11.5,8.6-18.9
			c0-3.2-2.8-5.7-4.2-8.7c7.6-7.6,16.5-11.8,27-11.9c8.4-0.1,15.6-3.2,22.8-6.9c7.8-4.1,15.6-8.1,24.1-10.5c1.6-0.6,3.4-0.6,5-0.1"
			/>
		<path class="st0" d="M204.1-98c5.9-7.9,12.7-15.1,17.7-23.7c7.5-12.9,8.7-26.6,6.5-40.9c-1.1-7-3.6-13.9-4.4-20.9
			c-0.6-5.4-1.7-10.7-2.1-16.1c-0.1-1.6,0.7-2.5,1-3.8"/>
		<path class="st0" d="M-100,331.4c6-5.2,14-6.8,20.4-11.4c6.2-4.3,9.9-9.8,10.4-17.2c0.2-3.3,1.6-5.3,4.4-6.5
			c7.9-3.5,13.9-9.5,20.4-15c3.3-2.8,4.5-7,6.5-10.5c2.4-4.4,4-9.1,4.8-14c1.8-11.4,8.4-21.1,14-30.9c4.2-7.3,7.7-15.2,12.9-21.9
			c1.8-2.4,3.4-4.9,6.4-6.6c3.9-2.4,5-7.5,8.1-10.9c1.4-1.4,2.7-3,3.6-4.8"/>
		<path class="st0" d="M237.5,163.8c0.9,6.6,0.3,13.4-1.8,19.7c-1.8,5.4-1.8,11.2-3.3,16.6c-0.8,3.1-0.4,6.5,1.3,9.3
			c1.8,3.1,3.4,6.3,4.8,9.7c1.4,3.7,5.3,4.8,9.6,4.3c6.6-0.6,12.7-3.4,19.3-3.8c2.5-0.2,4-1.6,3.8-4.4"/>
		<path class="st0" d="M183.3-145.3c-7.9-11.1-18.4-19.9-26.9-30.4c-4.4-5.5-9.1-10.9-11.6-17.4c-4.1-10.9-10.8-21.2-10.5-33.4
			c0.1-5.3-0.3-10.7,0.8-15.9"/>
		<path class="st0" d="M46.5,339.9c1-6-3.4-10.5-4.6-15.9c-1.2-5.1-2.7-10.2-3.1-15.7c-4.1-1.8-8.9-2.5-13.4-4.4
			C13.5,299,3.5,292.1-2.7,280.6c-2.9-5.4-2.3-11.2-1.1-16.8c0.8-3.9,2.8-4,6.8-2.4c8.9,3.5,13.3,11.2,18.2,18.5"/>
		<path class="st0" d="M263.8-227.2c-2.9-4.2,0.6-7.3,1.9-10.7c2.4-6.6,8-10.2,14-13c3.2-1.5,4.4-6,8.8-5.8c2.5,6.6,6.8,12.7,6,20.7
			c-0.4,4.4,1.1,8.9,2.6,13.3c2.7,7.5,3.8,15.3-0.3,22.7c-2.6,4.5-6,8.5-10,11.9c-6.1,5.3-7.6,13.1-4.3,20.9
			c3.1-0.8,4.2-3.5,5.4-5.9c1.6-3.3,3.8-5.9,7.3-7.1c5.2-1.8,7.9-5.6,9-10.8c0.4-2.1,1.1-4.2,1.6-6.3c1.5-6.2,2.9-8.6,11-8.1
			c7.4,0.4,14.5,0.8,20.6,5.6c2.7,2.1,6.6,1.2,8.1-2.8c2.5-6.4,7.8-10.7,11-16.5c2.2-3.8,4.3-7.6,6.4-11.4"/>
		<path class="st0" d="M49.1,328c3.9-5.2,5-11.6,6.5-17.6c1-3.7,2.8-5.9,6.3-6.9c19.9-6,32.9-19.6,41.2-38.1
			c1.7-3.8,2.9-8.3,1.1-12.7c-0.5-1.3-0.4-2.7,0.1-4"/>
		<path class="st0" d="M268.9-41.9c3.4-1.2,6.4,0.1,9.5,1.5c4.9,2.1,10.1,3.7,15.4,4.8c6.4,1.3,11.7-1.8,17.2-4.2
			c7.1-3.1,9.5-10.1,13.4-15.9c1.4-2.1,2.4-4.6,4-6.6c1.6-1.9,3.2-4,6.4-2.6c1.1,0.3,2.2,0.1,3.2-0.5c4.9-2.6,10.3-1.4,15.4-2.2
			c1.7-0.3,4.4,0.2,5.1,2.1c1.1,2.9,3.3,4.3,5.6,5.8"/>
		<path class="st0" d="M-57,188.1c5,0.8,10.2,0.7,15.2,2c1.4,0.5,2.9,0.4,4.2-0.2c6.7-3.5,13.8-2.1,20.9-1.6
			c1.5,0.1,2.7,0.9,4.4,0.3c7.5-2.5,15.2-4.3,21.6-9.4c4-3.2,8-6.4,12.8-8.6c5.3-2.3,9.4-6.5,13.3-10.5c6.5-6.8,14.7-10.9,22.4-15.9
			c2.6-1.7,4.9,0.8,7.5-0.6c4.6-2.4,9.5-4,14.4-5.9c1.8-0.7,3.6-1.8,5.7-1.4c0.5,2.3-1.3,3.4-2.1,5c-0.7,1.4-2.4,2.5-1.6,4.5"/>
		<path class="st0" d="M90.8,136c1.9,2.3,0.7,4.9,0.8,7.4c0.5,14,14.5,28.7,28.1,29.4c9.3,0.5,15.8-5.9,15.5-15.8
			c-0.1-3.8,0.9-7.6,2.9-10.9c0.6-1.1,1.8-1.9,2.5-3c6.4-10.8,9.1-13.2,0.1-25.5c-2.4-3.2-4.6-6.6-7.1-9.7c-3.2-4-7.7-6.6-12.8-7.3
			c-1,0-2-0.2-3-0.5c-7.5-3-8.5-4.2-6-13.1c5.7-21,15.8-39,36-49.7c2-1.1,4.3-1.3,6.5-0.6"/>
		<path class="st0" d="M147.9,396.2c1.8-4.6,1.3-9.5,2-14.2c0.8-5.8,1.2-11.6,1.9-17.5c1.1-10,2.1-20.1,3.1-30.1
			c0.2-2.9,1-5.8,2.1-8.4"/>
		<path class="st0" d="M147.6,418.9c0.2-6.3,0.5-12.7,0.8-19.1c0.1-0.7-0.1-1.3-0.4-1.9c-4.1-7.5-3.3-16-4.8-24
			c-1.2-6.5-1.4-13.2-3.9-19.5c-1.4,0.5-2.2,1.8-3.8,1.4c-12.7-22.7-14.5-46.5-6.5-71.3c-3.1-0.6-4.2-1.8-4-4.7
			c0.7-9.1,2.4-18.2,5.1-26.9c0.2-0.7,1.1-1.2,1.7-1.8"/>
		<path class="st0" d="M-32.7,260.9c5.5-14.5,13.8-27.7,21.2-41.2c3.4-6.2,5.7-13.1,10.7-18.4c0.6-0.6,0.5-1.9,0.8-2.9"/>
		<path class="st0" d="M167.8,91.7c-0.4-11.1,0.2-22,2.8-32.9c2.5-9.9,6.7-19.3,12.5-27.7c0.7-1.1,1.6-1.9,1.2-3.3"/>
		<path class="st0" d="M380.8-67.8c3.5,2.2,3.8,6.4,5.3,9.7c0.9,2,2,3.2,4.1,3.6c1.7,0.2,3.2,1.1,4.2,2.5c0.9,1.4,2.7,1.9,4.1,1
			c0.2-0.1,0.4-0.3,0.6-0.4c4.1-5.4,10.8-7.9,14.4-13.8c2.8-4.7,3.7-9.9,3.7-15.2c0.1-11.5-0.1-23-0.3-34.6c0-1.7,0.7-4-1.8-5"/>
		<path class="st0" d="M403.4-57c-1.2-3.9,1.6-6.8,3.1-9.4c3.1-5.5,1.8-10.2-1.1-14.6c-4.9-7.4-5.1-11.5,0.2-18.4
			c0.2-0.3,1-0.4,1-0.6c-0.1-6.7,5.3-11,7.2-17c2.7-8.3,0.3-14.4-5.1-20c-1.7-1.8-4.2-2.7-6.7-3.6c-8.9-3.2-17.7-6.8-26.7-9.6
			c-4-1.3-8.6-1.9-12.7,0.7c-2.1,1.4-3.5-0.4-4.6-1.3c-2.5-2-5.3-3.6-8.3-4.6"/>
		<path class="st0" d="M160.3,336.1c-1.1-1.7-0.5-3.7-0.8-5.6s-0.3-3.1-1.9-4.6c-3.4-3.1-2-7.8-2.9-11.8c-1.7-7.4-1.9-15.4-5.1-22.1
			c-4.2-9.2-7.9-18.5-11.1-28.1c-0.3-0.8-1-2-0.7-2.4c2.4-3-0.3-5-1.7-6.6c-2.8-3.1-3-6.3-2.8-10.2c0.4-8.1-0.5-16.1-1.6-24.1
			c-1.5-11-5.1-21.5-9-31.8c-0.4-1.1-1.1-2.1-0.5-3.3"/>
		<path class="st0" d="M378.6-13.5c4.4,0,8.2,2,12,3.9c5.8,2.9,7.2,2.5,10.6-2.7c1.1-1.5,2.4-2.7,4-3.5c7.5-4.7,8.5-8.5,6.5-17.1
			c-1.8-7.4-6.3-13.2-11.9-18.2"/>
		<path class="st0" d="M195.1-76.5c-4-11.1-8.4-22.1-10.4-33.9c-1.3-7.2-1.8-14.6-1.5-21.9c0.3-5.4,0.5-10.7,1.8-16.1
			c1-4.6-1.2-9.9-2.2-14.9c-1.1-5.6-3-11-3.7-16.7c-0.8-5.5-0.7-11,0.5-16.4c1-5.1,2.5-10.1,4.5-15c1.7-3.8,1.6-8.2-0.3-11.8
			c-1.8-3.8-1.6-8.6-2.3-13c-0.2-1.2,0.3-2.6-1.5-3"/>
		<path class="st0" d="M4.4,193.2c2.1,0.3,2.7-1.5,3.8-2.6c15.3-17,32.8-31.9,51.9-44.3c0.7-0.4,1.3-1.1,1.4-1.9"/>
		<path class="st0" d="M104.9,247.9c1.5-2,3.2-1.9,5.4-0.2c3.3-5.6,5.6-11.8,6.7-18.2c2.6-13.4,1.1-26.8,0.3-40.2
			c0-0.5-0.6-1-0.9-1.6"/>
		<path class="st0" d="M227.9,323.5c1.6-3,0.8-6.3,0.4-9.2c-1.1-7.9,0.3-16.2-3.1-23.5c-2.6-5.7-4.8-11.5-6.6-17.5
			c-4.1-12.5-8.2-25-12.1-37.5c-1.6-5.1-4.8-9.6-5.2-15.2"/>
		<path class="st0" d="M-10.6,260.2c-3.8-3.8-4.5-7.6-3.4-13.4s1.5-11.8,2.6-17.7c0.4-2.9,2-5.5,4.3-7.3c1.7-1.3,3.1-3,4.1-5
			c9.3-17.4,24.2-25.9,43.3-27.6c3.1-0.3,6.3-0.8,9.4,0.1"/>
		<path class="st0" d="M185.4-71.8c-3.9-3.9-7.2-8.4-12.6-10.4c-0.6-0.2-1.3-1.3-2-0.8c-4,3-5.7-1.1-7.3-2.9
			c-5.2-5.8-10.7-11.1-18-14.2c-9.5-3.9-19-7.6-29.5-7.2"/>
		<path class="st0" d="M141,200.5c6.1,3.9,10.7,9.9,11.6,16.5c1,7.6,4.2,14.1,7,20.7c3,6.8,7.1,13,12.2,18.4
			c5,5.4,11.3,9.1,17.3,13.2c2.2,1.5,3.9,0.3,3.2-2.8c4.7-1.1,7.4,2.2,10.2,4.6c8.8,7.3,15.3,16.5,20.7,26.6
			c0.8,1.5,1.2,3.2,3.2,3.5"/>
		<path class="st0" d="M196.7-111.5c-1.1-2.7,0.4-4.6,1.6-6.8c2.1-3.4,2.9-7.3,3.7-11.1c1.5-7.1,4.7-13.4,8.6-19.3
			c1-1.5,1.7-5.4,5.5-2.9c0.9,0.6,1.7-1.6,2-2.9c1.9-7.2,1.6-14.4,0.9-21.7c-0.9-7.9-0.9-15.9-0.2-23.8c0.2-1.7,0.3-3.7,2-4.8"/>
		<path class="st0" d="M140.9,263.2c-0.4-1.8,0.6-3.4,0.8-5.2c0.1-0.9,0.8-1.6,0.2-2.6c-5.3-10-4.6-21.3-6.3-32
			c-1.9-11.7-4.7-23.1-8.5-34.3c-0.3-0.9-0.5-1.9-0.6-2.9"/>
		<path class="st0" d="M132.9,105.8c1.4-6.8,4-13.3,4.7-20.3c1.1-10.3,4.5-20,7.7-29.9c2-5.9,4.7-11.5,7.9-16.8
			c3.7-6.4,9.9-9.2,16.6-10.5c7.9-1.6,15.8-3,23.6-5"/>
		<path class="st0" d="M199.7-76.7c-1.1-2.8,0-5.8-0.5-8.8l-2.8,1c-5.2-14.6-10.6-29.1-9.5-45.1c0.4-4.1,0.3-8.2-0.5-12.2"/>
		<path class="st0" d="M245.9-64.7c-0.4-5.2-0.3-10.4,0.3-15.5c0.4-6.1,1.4-12.2,2.9-18.2c3.5-12.8,8-25.3,16.9-35.7
			c3.7-4.4,5.4-9,2.1-14.8c-1.5-2.9-1-6.5,1.2-8.9c2.9-3.2,4.3-7.3,5.7-11.1c1.4-3.7,0.3-7.6-1.6-11.1c-0.8-1.5-1.4-3-0.6-4.7"/>
		<path class="st0" d="M181.1-149c0.3-1,0.3-2.1,0-3.2c-1.2-4.5-2-9.1-3-13.7c-2.6-11.7-7.8-22.3-14.3-32.2
			c-1.5-2.3-2.9-4.8-6.7-3.6c-1.7,0.5-3-1.6-4.1-2.8c-7.5-7.8-13.9-16.4-17.5-26.7"/>
		<path class="st0" d="M-5.7,221.1c1,3.2-0.5,6.2-1.5,9c-2.5,7.6-0.4,15,0.3,22.5c0.1,0.8,0.2,2,1.6,2.3s2.2-0.6,3.1-1.5
			c1.7-1.7,2.1-4,3.6-5.9c2.1-2.8,4-3.7,6.6-1"/>
		<path class="st0" d="M-101.6,332.3c-6.9,3.7-17.9,2.6-23.4-2.8c-2.5-2.5-1.1-6,0-8.8c2.7-7,7.4-12.9,12.3-18.3
			c6.8-7.7,18.3-9.1,27.9-4.8c3.6,1.6,7.4,1.4,11.2,0.2c1.7-0.7,3.7-0.4,5.1,0.8"/>
		<path class="st0" d="M20.3,260.3c3.3-1.9,1.9-5.8,3.7-8.5c3.2-4.8,5.5-10.1,6.6-15.7c1.1-5.9,5.7-10.2,10.5-13.9
			c2.8-2.1,5.5-4.3,8.9-5.4"/>
		<path class="st0" d="M19.7,263.7c0.1-0.3,0.3-0.8,0.4-0.8c7-0.1,10.9,5.2,9.2,11.7c-2,7.7-2,15.2,4.4,21.3c0.5,0.6,0.8,1.3,0.9,2
			c0.6,3.4,3,3.5,5.8,3.8c5.1,0.4,10.1,1.3,15.2,2c0.3,0,0.5,0.4,0.7,0.6"/>
		<path class="st0" d="M163-42.9c-1.8-3.7-1.1-7.7-1-11.5c0.1-2.9-1-4.4-3-6.2c-8.7-7.5-19-12.6-28.4-19.1c-4.8-3.3-8-8.1-12.1-12.1
			c-1-1-0.8-3.3-1-5.1c-2.3-17.2-11.3-29.5-27.1-36.8c-1.7-0.8-3-2.2-4.6-3.3c-1.3-1-2.4-2.6-4.4-2"/>
		<path class="st0" d="M494.5-190c-0.3,5.3-3.5,7.7-9,7.2c-5.2-0.4-9.8-2.9-14.5-4.8c-2.5-1-4.7-0.4-7-0.7c-1.6-0.2-2.3,1.2-2.8,2.4
			c-2.1,4.6-0.5,14.4,3.2,17.8c4.4,3.9,9.9,4.8,13.2-1.1c1.7-2.9,1.2-6.8-2.7-9c-7.1-4.1-13-9.9-21.6-11.8c-4.5-1-7,0.4-10.3,1.8
			c-11,4.7-22.2,9.2-33.8,11.5c-11,2.2-21.9,4.4-31.9,9.6c-1.1,0.6-2.6,0.3-3.3-0.8"/>
		<path class="st0" d="M149.9,397.1c2.4-2.3,2.4-5.7,3.3-8.6c1.9-6,3.4-11.8,7.3-17.1c3.6-4.8,5.4-11.1,8-16.7
			c1.9-3.9,1.5-8.3,2.5-12.4c0.3-1.4,0.7-2.8,1.2-4.2"/>
		<path class="st0" d="M162.1-58.8c2.3-2.4,5.4-4,8.7-4.6c5.8-1,11.2-3.7,15.5-7.6c7.1-6.4,15.6-6.4,24.2-2.6
			c2.7,1.2,5.5,2.1,8.1,3.4c3.8,2,8.1,1.1,12.1,1.9c5,0.9,9.8,2.6,14.7,3.9c0.6,0.1,1.4,0,1.6,0.8c0.8,3.9,4.3,5.5,6.5,8.3
			c3.5,4.6,8.3,7.9,12.9,11.3c2.5,1.8,4.7,10.7,2.5,12.7c-2.9,2.6-6.9,2.4-10.6,1.9s-7.2-2.4-10.7-3.8c-2.5-1-5.6-0.3-7.2-3.3"/>
		<path class="st0" d="M314.2,64.8c3-14.4,5.5-28.8,1.9-43.4c-0.4-1.6,0.8-2.5,1-3.8"/>
		<path class="st0" d="M262.8,69.9c-0.6-9.3-4.9-17.3-9.4-25.1c-3.4-6.1-7.8-11.5-12.9-16.2c-2.5-2.2-1.3-4.7-1.3-7.1"/>
		<path class="st0" d="M480.3-204.8c5.8,2.9,17.5,1.6,21.7-2.7c2.6-2.6,2.8-6,1.9-9.3c-0.7-2.5-5.8-4.9-8.7-4.4
			c-2.1,0.4-4.2,1-6.2,1.6"/>
		<path class="st0" d="M348.8,5.4c6.4-1.1,12.9-1,19.2,0.4c4.3,0.8,8.1,0.5,11.7-2c7.6-5.3,7.6-5.3,3-13.6c-0.4-0.7-1.3-1.4-0.8-2.4
			"/>
		<path class="st0" d="M382.8-71.1c0.3-5.5-0.6-11,2.1-16.5c3.9-7.8-1.8-15.8-10.6-15.5c-5.1,0.1-9.2-1.7-13.1-4.8
			c-2.1,2.7-0.6,4.9,0.8,6c2.5,1.9,3.5,4.5,4.4,7.1c1.6,4.6,3.7,8.9,7.1,12.6c2.5,2.6,1.7,5.6-0.3,8.4c-2.6,3.7-6.3,6.8-7,11.7"/>
		<path class="st0" d="M-90.3,242.4c0.5,0.4,1,1.2,1.5,1.2c9.7-0.4,19.2,4.3,28.9,1c4.2-1.4,8.4-3.1,12.4-5c3.9-1.7,5.5-5.7,6.2-9.2
			c1.4-7.3,4.1-14.3,8.1-20.7c4.1-6.5,9.5-12.9,17.7-16.1c7.3-2.8,14.4-6.4,22-8.7c0.7-0.4,1.5-0.5,2.3-0.3"/>
		<path class="st0" d="M370.8-252.4c-4.8-7.4-5.4-15.3-2.6-23.5c3.8-11,10.5-18.8,22.1-22.4c4.6-1.5,8.6-5.1,12.8-7.8
			c1.7-1.1,3.3-1.7,5.1-0.5c2.5,1.7,2.8-0.2,3.2-1.9"/>
		<path class="st0" d="M40.7,118.1c-4.9,1-9.7,2.5-14.6,3c-8.2,0.8-16.5,0.9-24.3-2.9c-1-0.5-2.1-0.9-3.3-1.2c-4.3-1-6.4-4.5-8.2-8
			c-1.1-2.1-2.7-2.8-4.5-3.9c-4.3-2.6-8.5-5.5-10.4-10.5c-1.5-3.9-0.5-8,2.4-9.7s6.8-0.6,9.6,2.8c2.2,2.6,1.8,5.9,2.7,8.8"/>
		<path class="st0" d="M104.1,247.7c-3.4-5.6-4.5-12.2-8-17.8c-0.8-1.3-0.5-2.7,0.9-4.2c7.1-8,11.7-17.9,13.2-28.4
			c0.6-4.2,3.1-8.1,5.9-11.5"/>
		<path class="st0" d="M201.7-88.3c4.3-3.4,9-6.2,14.1-8.2c10.4-4.1,16.1-12.6,19.1-22.9c2.6-8.7,4.6-17.7,6.7-26.5
			c0.4-2,0.6-4.1,0.7-6.1"/>
		<path class="st0" d="M153.3,217.5c0.7,0.3,1.4,0.6,2,1c6,5,13.2,4,20,4c6.2,0,12.4-3.1,18.5-2.2c10.8,1.5,25.8-10.2,27.6-21"/>
		<path class="st0" d="M116.4-55.5c-5.8-7.6-11.8-15.1-14.4-24.7c-1.2-4.6-2.5-9.1-3.4-13.8c-3-14.4-6.7-28.7-15.3-41.2
			c-4.1-6-9.7-10.6-13.9-16.3"/>
		<path class="st0" d="M373.6-168.8c3-4.8,6.1-9.4,8.9-14.4c0.9-1.7,2.1-3.3,3.7-3.4c4.9-0.4,8.6-3.8,13.2-4.9
			c4.3-1,8.8,0.1,13.2-1.9c2.3-1.1,5.1-1.6,6.9-3.4c4.3-4.2,1.4-10.2-2.8-11.4c-5.1-1.6-9.2-1.1-12.8,5c-0.9,1.3-1.9,2.5-3,3.6
			c-2.1,2.2-3.4,5.1-3.7,8.1"/>
		<path class="st0" d="M340.7,105.5c11.4,8.4,23.3,15.8,37.3,19.2"/>
		<path class="st0" d="M-22.8,334.1c3.6-0.4,4-3.8,4.9-6c3.6-8.3,1.4-16.9-5.9-22.4c-5.4-4.1-7.9-10.1-11.8-15.2"/>
		<path class="st0" d="M346.1-203.5c3.8,0.1,5-3.5,6.6-5.6c4-5.4,7.6-11,10.6-17c1.8-3.5,2.4-7.7,3.5-11.6"/>
		<path class="st0" d="M40.3,110.8c0.8,4.4,1.4,8.8,0.7,13.2c-0.5,3.2,1.1,4.4,3.8,4.5c8.7,0.5,13.9-0.4,18.7-9.6
			c3.6-6.9,8.1-13.4,16-16.1c2-0.6,3.4-2.4,3.6-4.5c0-3.5,2.1-6.4,1.5-10c-0.4-2.4,1.6-4.4,2.8-6.4c2.9-4.8,4.7-10.4,9.7-13.7"/>
		<path class="st0" d="M332.7-66.2c0.8-5.3,1.4-10.4-1.3-15.7c-1.6-3.3-4.3-5.3-6.3-8.1c-2.6-3.6-4.4-7.3-4.1-11.9
			c0.2-3.7,3-5.2,5.7-6.6c5.2-3,11.3-3.7,17.1-2.1c5.3,1.5,10.7,2.5,16.1,3.6"/>
		<path class="st0" d="M178.1-253.2c0.3,2.8,0.7,5.7,1.4,8.5c0.9,3.5,0.2,7.3-1.9,10.3c-1.4,2-1.6,4.9-2,7.5
			c-0.8,5.9-2,11.7-3.5,17.5c-1.3,5-0.3,10.1-0.1,15.2c0,1.2,0.9,2.1,2,2.3"/>
		<path class="st0" d="M93.2,125c-1.6-0.8-3.1-1-4.4,0.1c-0.4,7.1,4.7,11,9.4,14.4c8.5,6.3,18.3,10.3,28.8,11.8"/>
		<path class="st0" d="M297.9,176.3c1.5-7.9-0.3-15.5-2.4-22.9c-1.7-6.3-4-12.5-6.9-18.4"/>
		<path class="st0" d="M285.1,37.8c7.1-9.2,10.8-20,13-31.2c0.3-1.4,1.1-2.1,1.4-3.2"/>
		<path class="st0" d="M225.4,288.9c2-3.8-0.2-7.6-1.1-10.9c-2.5-9.4-3.8-19.1-6-28.5"/>
		<path class="st0" d="M264.2,110.5c6-9.9,7.8-20.8,7.5-32.1c0-1,0.3-1.8,0.3-2.6"/>
		<path class="st0" d="M170.7,341c-3.3-1.8-1.8-4.7-1.3-7c1.6-6.9,2.6-14,3-21.1c0.3-4.9,1.5-11.4-4.1-15.6c-1.4-1-1.5-3.8-2.3-5.7
			c-3.9-9-6.3-19.1-14.8-25c-3.8-2.7-6.4-7.6-11.9-7.7"/>
		<path class="st0" d="M118.5-1.2c9.2,3.3,17.8,7.9,25.7,13.6c1.6,1.1,3.4,2,5,3.1"/>
		<path class="st0" d="M215.8,64.4c-1.8-13.6-5.9-26.3-16-36.2"/>
		<path class="st0" d="M-15.9,113.3c-4,1.8-8.3,2-12.6,2.2c-4.7,0.2-9.7-5.1-9.3-9.4s4-6.7,9.1-5.8c5,0.9,9.4,4.2,11.6,8.8
			c2.2,4.3,5.6,5.5,9.9,5.5"/>
		<path class="st0" d="M284.1,31.3c5.2-7,7.9-15.2,10.3-23.4c1.1-4,1.7-8.2,6.8-9"/>
		<path class="st0" d="M225.1,193.8c3.5-5,2.4-11,4-16.5c1.3-4.8,2.7-9.5,4.2-14.4c-0.5-1.8-2.1-3.1-3.5-4.8
			c-7.2,2.2-14.1,1-20.5-2.8c-4.6-2.7-8.3-6.5-10-11.8"/>
		<path class="st0" d="M213.9,190.1c2.3-9.5,4.5-19,9.6-27.6c0.4-0.9,0.6-1.9,0.8-2.9"/>
		<path class="st0" d="M-20.2,141.4c-0.8,0.8-1.6,1.7-2.4,2.5c-4.5,4.1-4.9,7.1-1.4,10.9c3.7,4,7.3,4.1,11.6,0.2
			c1.4-1.3,3.6-2.1,3.8-4.4"/>
		<path class="st0" d="M358.8-191.8c2.5-5.5,3.1-11.6,6.8-16.7c5.2-7.2,11.1-13.8,19-18c6.1-3.3,13-3.1,19.8-2.3
			c1.7,0.2,2.3,1.7,3.4,2.6"/>
		<path class="st0" d="M451-191.5c0.5-0.4,1-0.7,1.6-0.9c5.8-1.2,8.1-6.3,11.5-10.1c1.3-1.4,0.7-2.9,0.6-4.3
			c-0.5-7.4,6.5-15.8,13.7-17.2c4-0.8,6.3,1.2,8.4,4"/>
		<path class="st0" d="M104.1,86.9c1.4-2.1,1.7-4.7,2.2-7.1c1.4-7.9,5.2-14.9,8.3-22.1"/>
		<path class="st0" d="M378-68.3c0.4-4.5,0.6-9.1,1.2-13.6c0.4-2.8-0.1-5-2.5-6.4c-1.8-1.1-2.6-3-3.8-4.5c-1.3-1.5-2.9-2.5-5-1.3"/>
		<path class="st0" d="M98-101.7c2-4.6,1.1-9.2,0-13.9c-1.5-6.1-4.2-11.8-7.9-16.8c-0.2-0.3-0.1-0.9-0.1-1.4"/>
		<path class="st0" d="M23.2,82.4c-1.1-3-2.9-5.7-3.7-8.9c-1.2-4.7-8.2-9.4-12.8-9.1c-4.9,0.4-7.2,4.9-5.9,9.6s7.1,9.4,12,8.7
			c8.6-1.1,15.6,2.5,22.7,6c2.2,1.2,4.5,2.2,6.9,3"/>
		<path class="st0" d="M290.1,193.1c2.2-10,1.7-20,1.3-30.1"/>
		<path class="st0" d="M129.4,48.1c6.3-7.5,12.9-14.4,23.2-16.3c1.8-0.5,3.7-0.1,5.2,1"/>
		<path class="st0" d="M440.3-159.7c2.8,4.2,6.9,6.9,11.1,9.4c1.9,1.1,10.2,0.2,11.7-2c1.2-1.8,2.5-3.4,1.6-5.9
			c-1.3-3.7-4-5.5-7.5-6.3c-4.1-0.9-8.4-0.2-12,2.1c-4.8,3.2-9.7,2.5-14.7,2.4c-2.8,0-5.7-0.5-8.5,0.1c-4,0.8-6.9-2.3-10.4-3.1
			c-5.5-1.3-10.8-3.2-16.2-4.9c-0.7-0.3-1.3-0.8-1.9-1.3"/>
		<path class="st0" d="M264.2,39.3c-4.2-1.4-6.9-4.4-9.9-7.6c-3.6-4-8.4-7-13.1-9.6c-3-1.7-4-3.6-4.6-6.7c-1-5.2-2.5-10.5-9.3-10.9"
			/>
		<path class="st0" d="M151.8,84.1c-0.1-9.8,3.1-18.9,5.3-28.2"/>
		<path class="st0" d="M238.9-176.1c1.5,1.8,0.2,4,0.9,6.2c1.5,4.3,4.4,7.3,7,10.5c3.3,4.2,8.5,6.4,13.8,5.9
			c1.4-0.1,3.9-0.5,3.4,2.5"/>
		<path class="st0" d="M196.1,143.2c0.3-0.1,0.6-0.2,0.9-0.2c3.7,0.9,7.1-1.9,10.6-1.3s5,4.8,8.3,6c1.2,0.5,2.5,0.9,3.7,1.4
			c6.5,2.4,10-1,9.1-7.6c-0.3-2.2-0.3-4.1,1.8-5.9c1.6-1.4,1.7-4.1,3.4-5.8"/>
		<path class="st0" d="M296.6-22c9.1,2.6,18.4,3.1,27.8,3.4"/>
		<path class="st0" d="M149.9,27.2c8.1-2,16.2-4.5,24.8-4c1.6,0.1,3.7-0.3,4.4,1.9"/>
		<path class="st0" d="M305.1,85.4c1.5-0.4,3-0.5,4.5-0.3c5.5,1,10.7-0.8,15.7-2.4c7.8-2.5,9.2-9.4,9-16.4
			c-0.2-8.1-0.5-16.5-2.3-24.1c-2.5-10.8-8.6-20.4-17.3-27.2c-5.6-4.4-12.1-8-16.3-14.1"/>
		<path class="st0" d="M323.4-152.3c-1.5-2,0.5-3.5,0.9-5.1c2-7,3.2-14.2,3.5-21.5"/>
		<path class="st0" d="M233.7,162.9c7.3,0.9,14.1-0.7,20.7-3.8c5-2.3,10.2-4,15.1-6.5s8.3-6.7,11.9-10.6c3.8-4.1,6.8-8.9,9.8-13.6
			c3.9-6,4-12.9,3.5-19.7c-0.5-8.2,0.4-16.2,1.3-24.3c0.3-1.3,0.7-2.5,1.3-3.7"/>
		<path class="st0" d="M469.9-188.6c4.2-4.2,8.5-8.2,15.1-8.3c4.8-0.1,8.9,2.4,8.8,5c0,4,2.4,1,3.4,1.7"/>
		<path class="st0" d="M427.4-150.9c-1.7,4.3-3.3,8.6-2,13.4c1.3,5.1,5.4,8.8,8.9,7.6c4-1.4,6.6-7.5,4.7-11.8
			c-1.6-3.7-4.2-6.8-8.2-8.3c-4.7-1.8-7.6-5.1-9.7-9.4"/>
		<path class="st0" d="M182.3,141c1.2-4.6,3-8.5,8.3-10.1c4.2-1.3,4.2-5,3.7-8.8c-0.8-7.2,1.6-9.6,8.6-9.5"/>
		<path class="st0" d="M234,27.7c-4.8-2.5-7.6-6.2-6.4-11.9c0.8-3.6-0.5-7-0.6-10.4c0-1.7-1.3-2.7-2.7-3.4c-5.8-2.8-9.2-7.7-12.4-13
			c-2.8-4.6-5.7-9.3-11.1-11.2c-7-2.5-6.6-8.7-7-14c-0.2-2.9,3.7-4.6,6.8-4.9c9.1-0.6,18.3,0.4,27,3c3.1,0.9,6.6,2.5,10.1,0.9"/>
		<path class="st0" d="M308.5-105.4c6.2-1.8,11.6-5.4,16.6-9.4c3.8-3,6.1-7.3,5-12.5c-0.3-2.1-0.2-4.2,0.3-6.2
			c1.2-5.6,0.2-10.1-5.3-13.1c-1.2-0.6-1.9-2.2-2.8-3.3"/>
		<path class="st0" d="M162.7,169.3c3.6-7.1,8.5-13.7,10.8-21.5c0.2-0.6,1.1-0.9,1.6-1.4"/>
		<path class="st0" d="M215.5,158.8c-3.2,3.6-7.7,4.7-11.9,6.5c-1.4,0.7-3.1,0.5-4.4-0.4c-3.9-3.7-8.9-4.7-13.7-6.5
			c-6.5-2.4-9.1-7.4-9.5-14c-0.3-4-1.8-4.8-5.5-3.2c-0.2,0.1-0.4,0.2-0.5,0.3c-11.4,4.9-13.4,1.8-14.7-8.7
			c-0.7-6.2-1.8-11.4-6.1-16.5c-4.2-5.2-6.7-11.5-7.2-18.1c-0.3-3.4-2-4.6-4.6-5.6"/>
		<path class="st0" d="M81.6-7.8c8,1.2,16,2.9,23.8,5.1"/>
		<path class="st0" d="M356.3-6.6c9.3-3.6,15.4-11.1,21.6-18.4c1.5-1.9,2.8-4,3.8-6.2c3.5-7.4,10.6-12,14.3-19.2"/>
		<path class="st0" d="M199.2-92.9c-0.6-5.7-1.7-11.3-3.3-16.7c3.7-1.1,3.5-4.4,4.4-7.2"/>
		<path class="st0" d="M-24.1,335.6c-1.1,2.3-3.2,4.1-5.7,4.8c-5.3,1.3-10.4,3.3-15.2,6.1c-2.5-3.8-4.7-7.2-7-10.7
			c-1.6-2.3-1.9-5-2-7.7c-0.4-6.9-2.7-14,1.5-20.7c2.4-3.5,5.5-6.5,9.1-8.8c2.7-1.9,5-3.4,5.1-7.3c0-2.2,2.8-3.7,3.3-6.3
			c1.1-6.3,1.5-12.6,1.1-19"/>
		<path class="st0" d="M61.7,143.5c0.7-2.5,3.3-2.7,5-3.6c7.1-3.4,14.4-6.4,21.6-9.5"/>
		<path class="st0" d="M363.1-160.7c5.8-0.6,11.6-1.8,17.1-3.7c5.1-1.7,10.4-2.8,15.8-0.6c0.7,0.2,1.4,0.1,1.9-0.4"/>
		<path class="st0" d="M237.9-214.9c-3.2,2.6-3.1,6.7-2.2,9.6c1.8,5.6,2.5,11.3,3.9,16.9c0.8,3.4,0.2,7.1,0.1,10.7
			c0,0.9-0.6,1.2-1.2,1.4c-9.7-4.6-10.2-14.7-13.5-23.1c-0.2-0.6-0.3-2-0.5-2.2c-5.4-6.8-0.9-12.3,2.3-17.9"/>
		<path class="st0" d="M278.6-229.3c1.6-8.3,6.7-14.8,11.6-21.3"/>
		<path class="st0" d="M153,165c3.8-5.9,8-11.5,11.3-17.7c0.7-1.3,0.3-2.4,0.7-3.4"/>
		<path class="st0" d="M49.5,195.5c0-8.1,4.5-14.1,9.9-19.4c4.8-4.8,11.2-7.8,16.1-12.6"/>
		<path class="st0" d="M393.3-118.6c-1.4-9.8-7.1-16.9-14.4-22.9"/>
		<path class="st0" d="M289.3,99.8c2.3-7.8,3.4-15.7,2-24.5c-2,1.2-1.7,2.7-2.2,3.8"/>
		<path class="st0" d="M222.3-40.1c3-7.1,4.5-14.7,6.4-22.1"/>
		<path class="st0" d="M333.8,54.5c7.3,2.3,14.8,3.1,22.3,3.8"/>
		<path class="st0" d="M96.3,200.1c0.4-3.4,2.7-5.5,5-7.8c3-2.9,5.8-5.8,10.2-6.3c1,0,2,0.1,3,0.3"/>
		<path class="st0" d="M127.8-70.5c-0.4,2.3,0.9,4.3,1.7,6.2c1.9,4.5,5.2,5.5,9.8,3.4c7-3.2,12.5-1,15.5,6.1c1.2,2.9,3,5.2,6,6.4"/>
		<path class="st0" d="M362.8-148.7c6.6,3.7,13.9,5.3,21.1,7.1"/>
		<path class="st0" d="M90.7,125.7c5.8,5.5,12.1,10.3,19.5,13.4"/>
		<path class="st0" d="M218.1,248.5c-2.9-6.5-2-13.5-2-20.2c0-5.2-0.5-10.1-3.7-14.3"/>
		<path class="st0" d="M275.4,90.9c0.8-7.4,0.8-14.9,0.2-22.3"/>
		<path class="st0" d="M362-186.5c5.7,1.1,11.5,1.1,17.1-0.1c1.1-0.2,3.2-0.6,4.1,1.3"/>
		<path class="st0" d="M279.5-32.5l20.2,5.1"/>
		<path class="st0" d="M357.1-152.8c9.7-9.8,7-21.3,3.5-36.2c4-0.1,4.9-3.3,6.2-6.1"/>
		<path class="st0" d="M104.4,185.6c-3.8-5.7-6.5-11.6-6.6-18.6c-0.1-1.4,0.4-2.8,1.5-3.7"/>
		<path class="st0" d="M46.6,332.3c1.3-0.2,2.2-1.4,2.1-2.7c0-0.1,0-0.2-0.1-0.3c-2-7.1,0-14,0.4-21"/>
		<path class="st0" d="M340.8-198.5c1.3,4.4,4.2,6.1,9.1,6.4c3.6,0.2,7.5-0.2,10.5,2.5"/>
		<path class="st0" d="M207.7,18c1.5-4.2,4.5-7.4,7.9-10.1c2.5-2,4.7-4,5.8-7.1"/>
		<path class="st0" d="M159.3,179.2c4.6-5.4,9.1-10.9,11.6-17.7"/>
		<path class="st0" d="M202.3,182.8c0.8-6.1,4-11.2,6.1-16.8c0.2-0.7,0.2-1.5,0-2.3"/>
		<path class="st0" d="M19.9,262c-5.2-6-5.6-13.1-5.1-20.5"/>
		<path class="st0" d="M106.2,90.6c-7.8-5.9-9.5-14.4-8.2-23.1c0.6-4,3.6-8,6.3-11.3s6-6.5,8.5-10.4c3-4.7,8.3-7.1,12.7-10.3
			c2.8-2.1,6.1-3.4,8.5-6.3c1.8-2.2,4.9-3.3,7.9-4c4.7-1,9.3-2.4,13.9-3.6"/>
		<path class="st0" d="M177.3,61c0.9-6.6,2.2-13.2,4-19.6"/>
		<path class="st0" d="M321.1,133.7c-2.8-8.3-7.2-15.7-12.2-22.8"/>
		<path class="st0" d="M315.2,128.7c-3.1-8.2-7.9-15.3-13.3-22.1"/>
		<path class="st0" d="M312.1,105.5c-5.3-4.8-10.1-10.4-16.7-13.6"/>
		<path class="st0" d="M241.1-11.7c5.8-5.7,12.7-10,20.2-12.8"/>
		<path class="st0" d="M317.9-151.9c3.1-5.7,4.8-12,5.1-18.4"/>
		<path class="st0" d="M354.7,75c5.7,3,11.8,5.1,18.1,6.3"/>
		<path class="st0" d="M101.6,82.3c2.3-6,3.4-12.4,6.8-18"/>
		<path class="st0" d="M271.6,188.5c1.8-5.4,2.2-11.1,3.3-16.6c0.2-1,0.1-1.6-0.9-2"/>
		<path class="st0" d="M246.7-34c0.2-6.4,0.4-12.7,0.8-19.1c0-1.8,0.6-3.5,1.6-5"/>
		<path class="st0" d="M-48.2,208.7c0.2-2.5,2.8-3,3.9-4.8c2.4-3.9,3.8-8.3,4.1-12.9"/>
		<path class="st0" d="M280.2-174.7c-1.8-0.6-1.5-2-1.4-3.5c0.2-3.5-1.9-5.4-5-6.7c-7.6-3.2-14.1-7.6-16.6-16.2
			c-0.4-1.1-0.5-2.2-0.5-3.3c0.7-8.5,3.1-16.5,5.7-24.5"/>
		<path class="st0" d="M158.7,13.3c3.7,4.8,3.8,4.9,9,3.1c3.5-1.2,7-0.3,10.4-0.4c4.1,0,7.8-1.5,11.7-2.1c1.1-0.1,2-0.7,2.6-1.6
			c3.3-5.5,6.8-10.8,8.3-17.2"/>
		<path class="st0" d="M-2.4,141.8c1.5-1.1,3.3-2,4.4-3.4c5.4-7.1,12.8-12.5,21.3-15.2c0.3-0.1,0.5-0.7,0.8-1.1"/>
		<path class="st0" d="M241.9,181.9c1.4-6.2,1.9-12.5,1.6-18.9"/>
		<path class="st0" d="M363.3,115.6c5.6,2.4,11.2,5,17.3,6.1"/>
		<path class="st0" d="M290.5,75.4c-3.1-4.4-5.4-9.5-10.5-11.9c-3.4-1.7-7.1-2.8-10.4-4.9c-8.5-5.4-9.5-14.8-2.1-22"/>
		<path class="st0" d="M299.6,155.2c-1.3-7.3-4.2-14-7.4-20.7"/>
		<path class="st0" d="M239.1-37.7c1.5-5.9,3.1-11.7,8-15.9"/>
		<path class="st0" d="M-14,256.2c-1.2,1.9-1,3.6-0.2,5.8c1.8,4.8,4.1,8.8,9.1,10.7"/>
		<path class="st0" d="M308-153.5c3.9,1,8.1,1.3,11.6,3.8c1.3,0.9,6.8-2.7,6.9-4.5c0.3-6.1,3.5-11.8,3.2-18"/>
		<path class="st0" d="M266.4,98.5c2-5.9,1.8-12.1,2.7-18.1"/>
		<path class="st0" d="M209.9,141.7c3.2-3.8,7.4-2.5,11.3-2c2.4,0.3,4.7,0.6,6.9-0.6"/>
		<path class="st0" d="M378.9-250.8c-6.6,2-8.1,8.4-11.2,14.1c-2.3-3.6-0.3-6.4,0.6-8.6c3.1-7.6,3.4-7.5,11.5-5.6
			c6.1,1.4,11.6-1,16.4-3.8c3.3-1.9,7.8-3,9.7-7.2"/>
		<path class="st0" d="M408.4-109.1c-4.8-4.2-11.1-4.6-16.6-6.9"/>
		<path class="st0" d="M88.4,199.4c-0.1-0.9-0.5-2.1-0.1-2.7c4.2-7.1,2.8-14.1,0.5-21.5c-2.1-6.7-6.4-11-12.2-14.2"/>
		<path class="st0" d="M205.3,113.7c5.9,3,11.8,2,17.8,0.4"/>
		<path class="st0" d="M164.7,347.1c0.8-6,0.3-11.9,0-17.9"/>
		<path class="st0" d="M156,74.4c1.9-7.6,3.4-15.3,6.5-22.5"/>
		<path class="st0" d="M459.6-195.6c7,0.4,12.6-2.9,17.4-7.4c3.2-2.9,7.5-4.4,9.9-8.2c0.2-0.3,1.4,0,2.1,0.1"/>
		<path class="st0" d="M71.9,74c7.3-2.4,13.6-6.8,20.4-10.1"/>
		<path class="st0" d="M102.9,27.1c2.6,2.4,5.8,2,9,1.8c2.7-0.2,5.5,0,7.5,2.3"/>
		<path class="st0" d="M46.8,195.8l2.8,0.2c-0.9,6,3,11.7,1.2,17.8c-0.7,2.5-0.1,4.3,1.5,6.3c3.2,4,7,1.3,9.7,0.3
			c5.9-2.2,11.4-5.6,17.1-8.5c1.2-0.6,2.1-1.6,2.6-2.9c0.8-1.7,2.4-2.8,4.2-3"/>
		<path class="st0" d="M271.4,178.6c2.5-8.9,4-17.8,1.4-27"/>
		<path class="st0" d="M350-4.6c3.5,2.3,7.8,1,11.5,2.4c1.6,0.5,3.3,1,5,1.3"/>
		<path class="st0" d="M218.5-41.1c2.3-5.2,3.1-10.9,4.5-16.3"/>
		<path class="st0" d="M196.7-52.4c1.1-5.7,0.1-11.4-0.2-17.1"/>
		<path class="st0" d="M97.2,119.7c4.6,3.9,8.9,8.1,14.3,10.8"/>
		<path class="st0" d="M162.4,338.4c0.3-5.5-0.2-11-1.3-16.4"/>
		<path class="st0" d="M108-77.3c0-5.3,1.8-10.3,3-15.4"/>
		<path class="st0" d="M366.9-111.4c2.4-1.3,4.9-0.9,7.3-0.4c5.2,1.1,10.5,2.2,15.8,3.1c2,0.3,3.8,1.7,5.6,2.6
			c1.5,0.8,1.9,2.4,0.9,3.3c-3.9,3.4-1.8,6.9,0,9.8c1.7,2.6,1.1,4.2,0.2,6.9c-1.6,5-4.2,9.9-3.5,15.7c0.5,4.3-2.5,7.6-6,10.1"/>
		<path class="st0" d="M83.1-10.1c5.4-0.4,10.2,2,15.4,3"/>
		<path class="st0" d="M90.4,100.1c4,4.9,7.4,10.2,12.6,13.9"/>
		<path class="st0" d="M77.5,167.6c-3.8-6.3-1.3-16.7,4.8-21.2c1.6-1.4,2.9-3,3.9-4.8c1.6-2.4,3-4.9,4.6-7.4"/>
		<path class="st0" d="M200,127.6c1.3-4.8,0.4-10,3.3-14.4c3.4,0.8-0.1,2.5,0.3,3.7"/>
		<path class="st0" d="M204.9,7.9l10.8-12.5"/>
		<path class="st0" d="M41.9,109.9l-2,0.9c-3.4-5.2,0.9-10.1,0.6-15.1"/>
		<path class="st0" d="M278.2-45.4l15.4-0.6"/>
		<path class="st0" d="M102.7-95.6c0.3-5,0.7-10,1.1-15"/>
		<path class="st0" d="M376.8,72.4c4.2,1.1,8.4,0.3,12.5-0.1c0.9,0,1.8,0.1,2.6,0.3"/>
		<path class="st0" d="M145.9,68.3c0.6-5,3.4-9.3,4.4-14.1"/>
		<path class="st0" d="M379.8-27.1l13.3,6"/>
		<path class="st0" d="M250.5-33.1c4.8-3.7,10.7-6.1,14.4-11.2"/>
		<path class="st0" d="M200.8-92.1c2-2,2.3-3.9,1.5-6.9c-0.9-3.3-0.3-7,0.6-10.5c0.4-1.6,1.2-3.2,0.3-4.8"/>
		<path class="st0" d="M335.3-3.3c1.4-1.1,3.1-1,4.7-1c4.1-0.1,8.2,0.1,12-1.5c3.6-1.5,6.7,0.8,10,1.2"/>
		<path class="st0" d="M185.8,14.3L183-1.2"/>
		<path class="st0" d="M264.2,210.8c2.7-4.1,2.9-8.8,3.4-13.5"/>
		<path class="st0" d="M147.8,346.4c-0.8-5-1.7-10-2.5-15"/>
		<path class="st0" d="M133.9,344.7c-1.3-5-3.1-9.9-3.4-15.2"/>
		<path class="st0" d="M146.4,352.3c-1.1-5.1-2.2-10.1-3.4-15.2"/>
		<path class="st0" d="M118.9,140.4c4,2.9,9.1,2,13.5,3.4"/>
		<path class="st0" d="M238.5,120.2c1.1-4.5,3.6-8.6,4.2-13.3"/>
		<path class="st0" d="M244.1-9.2c3.5-4.5,8.2-7.7,12.6-11.2"/>
		<path class="st0" d="M121.2-12.2c-3.4-3.1-7.4-5.5-11.6-7.4"/>
		<path class="st0" d="M275.6-154.8c3.1-3.6,6-7.3,6.6-12.2"/>
		<path class="st0" d="M212.4-23.8c4.8-2.9,10-5.1,15.5-6.4"/>
		<path class="st0" d="M215.3,173.5c2.1-4,3.6-8.3,4.5-12.8"/>
		<path class="st0" d="M-83.3,310.9c-0.3-2.1,2.4-2.1,2.8-3.7c-3.6-1.5-7.5-1.1-11.2-2"/>
		<path class="st0" d="M297-20.1c4.1,1.3,8.6,1.6,12.5,3.6"/>
		<path class="st0" d="M110.4,227.8c1.4-4.2,1.3-8.6,1.9-13"/>
		<path class="st0" d="M205.1,3.5c2.6-3.7,5-7.6,7-11.7"/>
		<path class="st0" d="M150.2,340.7c-0.9-4.7-1.8-9.4-2.7-14.1"/>
		<path class="st0" d="M132.1,323.7c-0.4-4.6-1.7-9-1-13.7"/>
		<path class="st0" d="M183.7,242.6c-3.8-3.3-7.4-6.9-10.7-10.8"/>
		<path class="st0" d="M275.3-37.2l12.4,4"/>
		<path class="st0" d="M139,292.3c-0.1-4.7-0.7-9.3-1.9-13.9"/>
		<path class="st0" d="M251.6-189.5c1.6-3.9,0.8-8.7,4.3-11.9"/>
		<path class="st0" d="M177.7,2c-2.2-2.6-3.9-5.6-5-8.8c-2.6-8-8.5-14.3-11.4-22.1"/>
		<path class="st0" d="M-71.4,190.3c4.2-2.7,8.8-2.5,13.5-2"/>
		<path class="st0" d="M179.7,247.9c-3.5-3.5-6.8-7.3-9.7-11.4"/>
		<path class="st0" d="M338.9-164.1c0.1-4.3,1.9-8.2,2.6-12.3"/>
		<path class="st0" d="M92.2,220.1c-0.7-0.3-1.6,0-2-0.9c-1.9-3.8-5.2-6.2-8.6-8.4"/>
		<path class="st0" d="M173.6,139.8c1.6-2.6,3.9-4.8,6.6-6.3c1.5-0.9,3.5-0.7,4.7,0.6"/>
		<path class="st0" d="M264.2-175.2c1.3-4,1.5-8.3,3.5-12.1"/>
		<path class="st0" d="M168.4,153.7c1.4-2.8,1.9-5.9,3.8-8.5c0.6-0.8,0.4-2.3,0.5-3.4"/>
		<path class="st0" d="M131.3,58.4c2.5-4.1,6.3-6.9,9.7-10.1"/>
		<path class="st0" d="M204.1-3.1l5-11.3"/>
		<path class="st0" d="M181.4,244.7c-3.6-3.3-6.9-6.8-9.9-10.5"/>
		<path class="st0" d="M-56.2,208c-4.3,0.3-8.5-0.3-12.8,1.8c-2.2,1.1-2.2,2.9-3.6,4.1c-5.4,4.3-11.4,7.8-17.7,10.6
			c-4.5,2-6.1,5.8-6.9,10c-0.9,5.1,2.8,7.6,7.9,5.6"/>
		<path class="st0" d="M133.1,265.7c0.2-4.1-0.8-8.3,1.7-12.1"/>
		<path class="st0" d="M89.4,124c-4.1-5.9-5.9-12.5-6.3-19.5c-0.1-0.5-0.3-1-0.5-1.5"/>
		<path class="st0" d="M146.9,214.6c-4.9-4.7-6-11.1-7.7-17.2c-0.2-0.9,0.5-2.3,1.2-3.2c3-4.2,3.6-9.3,5.2-13.9"/>
		<path class="st0" d="M127.2-14.3l10.7,7.2"/>
		<path class="st0" d="M254.1-88.2c2.1-3.9,5.1-7.2,8-10.5"/>
		<path class="st0" d="M-41.1,214c-3.4,1.8-6.5,0-9.7-0.6c-1.7-0.3-3.4-0.8-5.1-1.3"/>
		<path class="st0" d="M403.5-263c2.2,0.7,3.5,0.8,5.2-1.8c2.5-3.8,4.4-7.5,4.5-11.9c0.2-6.6,3.9-12.6,3.5-19.3
			c-0.2-3.2,0.8-6.7-2.5-9.3c-0.9-0.8-2.1-1.2-3.3-1.2"/>
		<path class="st0" d="M411.2-209.6c-0.5-5.3,0.5-10.4,1.5-15.6c-4-1.8-5.9,0.2-6.9,3.5c-0.5,1.7-1.4,3.4-2.6,4.7"/>
		<path class="st0" d="M200.8,256.7l-9-10.3"/>
		<path class="st0" d="M127.2,28.3c-1.9-2.7-6.8-4.1-10-3"/>
		<path class="st0" d="M263.2,21.6l6.1-10.1"/>
		<path class="st0" d="M465.2-203.6c2.8,0.8,5.5-0.5,8.2-0.6c1.2-0.1,2.5-1,3.5,0.4"/>
		<path class="st0" d="M336.6-156.6c4.2,0.7,8.6-0.8,12.9,1.1c0.5-1.9,2.3-2.9,2.4-4.9"/>
		<path class="st0" d="M247.8,151.2c3.5-3.2,8.7-4.3,11.2-8.9"/>
		<path class="st0" d="M143.8,355.3c0.3-2.7-0.7-5.2-1.7-7.6c-0.9-2.1-1.8-4.2-1-6.5"/>
		<path class="st0" d="M89.7,204.7c0.6,2.3,1,4.7,3.4,5.8c5.4-1.8,6-2.5,6.1-8.3"/>
		<path class="st0" d="M295.4-151.2l11.8-2.4"/>
		<path class="st0" d="M198.1,124.4c1.1-3.5,1.2-7.2,1.4-10.9"/>
		<path class="st0" d="M201.4,261.4l-8.4-9.3"/>
		<path class="st0" d="M364.5-60.9c3.3-1.3,6.5-2.6,9-5.3c1-1,2.8-1.4,4.4-1.6c4-0.5,8.8-4.3,10.1-8.3"/>
		<path class="st0" d="M157.1,348.8c-1,2.7,0,5.6-1.1,8.2c-0.2,0.8,0.3,1.6,1.1,1.8c0.2,0,0.4,0,0.6,0"/>
		<path class="st0" d="M248.7-192c1.4,2.4,4.3,3.7,4.7,7.2c3.7-3.1,2.4-7.6,4.6-10.7"/>
		<path class="st0" d="M209.1,25.1c3-3.5,6.8-4.1,11.2-3.5c2.4,0.2,4.8,0.2,7.2,0.1"/>
		<path class="st0" d="M321.2,37c0.1-3.8-0.5-7.6-1.7-11.2"/>
		<path class="st0" d="M263.3-7.1c3.4-3.1,7.7-4.7,11.9-6.4"/>
		<path class="st0" d="M-54.6,208.9c3.6-0.9,6.9,1.3,10.4,1.3c2.2,0,4.9-0.9,6.2,2"/>
		<path class="st0" d="M44.4,319.6L44,308.8"/>
		<path class="st0" d="M373.6-256.1c1.3,0.2,1.3-1,1.9-1.8c1.3-1.8,2.8-3.4,4.4-4.9c4.9-5.1,11.5-8.6,15.3-14.5c2-3,3.4-6.4,4.2-10"
			/>
		<path class="st0" d="M254.8-184.2c0.4,0.9,1,1.7,1.6,0.4c1.3-2.8,2.4-5.7,3.5-8.5"/>
		<path class="st0" d="M131.8-68.6c-1.1-1.5-2.9-2.4-4.7-2.4c-5,0.2-6.6-3.4-7.6-7c-1.1-3.9-2.4-8-0.6-12.2"/>
		<path class="st0" d="M226.5,168.2c0.9-2.9,1.8-5.8,2.6-8.7c1.3-4.5,4.3-8.2,8.4-10.4c0-2.9-0.9-4.9-4.3-4.3"/>
		<path class="st0" d="M135.5,107.8c1.7-3.1,3.1-6.4,5.8-8.9"/>
		<path class="st0" d="M364.1-102.2c3.5-0.8,6,2.3,9.2,2.7"/>
		<path class="st0" d="M246.9-199.2l2.3-9.3"/>
		<path class="st0" d="M390.7-169c4-2.1,8.8-2.5,12.5-5.4"/>
		<path class="st0" d="M194.3,153.9c1.6-2.9,3.2-5.8,4.9-8.6"/>
		<path class="st0" d="M372.8-194.1c5.5-2.8,10.7-0.4,15.9,0.8"/>
		<path class="st0" d="M118.9-106.3l9,3.6"/>
		<path class="st0" d="M243.8-186.6c3.1,0.5,6.1,2.1,9.4,1.9"/>
		<path class="st0" d="M134.2,186.3c1.2,3.5,1.8,7.4,4.6,10.1"/>
		<path class="st0" d="M201.6,174.5c0-3.3,3.5-5.6,2.7-9.2"/>
		<path class="st0" d="M174.5,36.1c0.2-1.9,1.7-2.9,2.8-4.3c0.9-1.1,2.3-2.2,1.5-4.1"/>
		<path class="st0" d="M383.3-110.9c2.9-2.9,7.2-3.7,9.8-6.9c0.7-0.9,1.8-0.5,2.7-0.2l6.7,1.7"/>
		<path class="st0" d="M95.5,226.3c-3.9-4.8-3.7-10.4-3.2-16"/>
		<path class="st0" d="M296.9,0c-2-2.1-4.1-4-5.6-6.7c-1.1-1.9-1.7-3.5-1.2-5.6"/>
		<path class="st0" d="M239.9-172.8l9,1.8"/>
		<path class="st0" d="M279.5-187.9c2.8-2.4,5.3-5.3,8.9-6.7"/>
		<path class="st0" d="M184.6,146.1c1-3.1,3.2-5.5,4.8-8.2"/>
		<path class="st0" d="M99.5,53.1c3.9-1,6.4-4.9,10.6-4.9"/>
		<path class="st0" d="M293.9-150.7c3.2-3,1.4-6.9,1.7-10.3"/>
		<path class="st0" d="M176.1-202.6c-1.2,5.3-2.5,10.6-0.5,16.1c0.6,1.7,0.9,3.3,2.6,4.2"/>
		<path class="st0" d="M6,262.1c4.1-4.6,5.5-9.6,1.8-15l5.8-4.6"/>
		<path class="st0" d="M293.8-18.2c2.8,0.9,5.8,0.9,8.3,2.5"/>
		<path class="st0" d="M327.3-153.5c2.5-1.1,5-2.1,7.5-3c0.8-0.2,1.3,0,1.6-1c1.4-5.1,5.4-8.9,6.6-14"/>
		<path class="st0" d="M203.5,256.5c-2-3-5.2-5.2-5.8-9.1"/>
		<path class="st0" d="M242.6-212.4c-1-1.8-3.8-2.7-3.1-5.2c0.5-2-1.2-4.7,1-5.9c2.6-1.3,5.3,0.1,7.6,1.4c2.1,1,3.9,2.5,5.2,4.3
			c1,1.4,2.6,2.3,4.3,2.5"/>
		<path class="st0" d="M270.1-139.7c3.4-1,5.8-4.2,9.6-4.3"/>
		<path class="st0" d="M-7.7,150.3c0.5-0.8,1.3-1.5,1.4-2.3c0.2-2.1,3.6-4,1.8-5.6s-4.8-2-7.5-1.6c-2.1,0.3-4.3-1.7-6.3,0.1"/>
		<path class="st0" d="M230.2,28.5c-1.9-2.5-5.7-3-7-6.2"/>
		<path class="st0" d="M364.1-164.5c3.9,0.6,6.3-3,9.8-3.4"/>
		<path class="st0" d="M291.3,6.2c0.8-2.8,1.1-5.8,3-8.2"/>
		<path class="st0" d="M-70.8,232.6c3.1-0.6,6.1-1.7,8.9-3.2"/>
		<path class="st0" d="M390.9-40.9c3.3,1.9,7.5,1.6,10.6,4"/>
		<path class="st0" d="M151.1,272.9c-2.2-2.4-3.7-5.4-4.1-8.6"/>
		<path class="st0" d="M171.2,315.6c-2.9-2.3-1.4-6-2.7-8.8"/>
		<path class="st0" d="M274-207.2l1-11"/>
		<path class="st0" d="M110.9,213.2c3.2-2.4,2.1-6.4,3.7-9.4"/>
		<path class="st0" d="M157.7,373.1c-1.6-2.9,0.4-5.6,0.7-8.3"/>
		<path class="st0" d="M-10.8,105.7c0.4-2.7,2.1-5.3,1.2-8.2"/>
		<path class="st0" d="M333.2,46.3l8,0.2"/>
		<path class="st0" d="M333.4,49c2.6,0.6,5.1,1.5,7.8,1.1"/>
		<path class="st0" d="M103.5,47.9c3.1-0.5,5-4.4,8.8-2.7"/>
		<path class="st0" d="M147.7,127l4-7"/>
		<path class="st0" d="M117.5,185.3c2-2.1,4.5-0.4,6.3,0c6.3,1.3,12.7,0,18.9,1.4"/>
		<path class="st0" d="M230.9,20.2c-1.4-2.5,0.3-5.1-0.3-7.7"/>
		<path class="st0" d="M277.8-183c1.9-5.1-0.1-9.8-1.3-14.6c-0.6-2.6-0.5-5.3-1.9-7.8c-0.6-1.2-1.7-1.1-2.3-1.8"/>
		<path class="st0" d="M57.9,215.6l14.6-15.2"/>
		<path class="st0" d="M236,144.6c1.1-5.1,5.2-8.1,8.3-11.8c0.5-0.6,1.2-0.1,1.8,0"/>
		<path class="st0" d="M402.2-214.9c0-3.2,0.5-6.4,1.5-9.5"/>
		<path class="st0" d="M-49.7,191.3c2.2,1,4.7,3.5,6.1-1"/>
		<path class="st0" d="M265.6-170.3c0.3,1.4-1.8,2.2-1,3.8c3.6-1.4,3.6-1.4,4.4-6.5"/>
		<path class="st0" d="M-84.8,220.6c-5.4-5.9-5.2-10.8,0.6-18.6"/>
		<path class="st0" d="M-92.8,234.7c5,1,10.1,2.1,15-0.7c0.7-0.4,2,0.1,3,0.2"/>
		<path class="st0" d="M217.6-144.8l3-6.4"/>
		<path class="st0" d="M196.2,146.3c0.6-4.9-4.3-5.5-6.5-8.3c-0.9-1.2-2.5-1.9-3.7-2.8"/>
		<path class="st0" d="M153.4,149c1.2-2.1,1.9-4.5,3.8-6.2"/>
		<path class="st0" d="M269.8,161.6c0.2-2.4-0.5-4.7-0.9-7"/>
		<path class="st0" d="M173.8,156.8c0.6-2.1,0.7-4.4,2.4-6.1"/>
		<path class="st0" d="M99.9,155.3l8.2,3"/>
		<path class="st0" d="M253.9-166.1l10.8,1.8"/>
		<path class="st0" d="M189.2,13.4l1.6-6.3"/>
		<path class="st0" d="M275-30.5c2.5-0.6,4.2,1.1,6.2,2"/>
		<path class="st0" d="M393.6-68l6.4,1.2"/>
		<path class="st0" d="M-54.6,199.9l1.9-1.8c-1.6-2.3-3.2-1.3-5-0.4c-1.9,1-3.6,2.7-6,2.5"/>
		<path class="st0" d="M260.4-49.4c3.2-2,6.7-1.8,10.2-1.5"/>
		<path class="st0" d="M253.1-188.3c2.2-1.5,1.5-4.1,2.4-6.1"/>
		<path class="st0" d="M396.7-83.8c2.2,0.3,4.2,1.5,6.4,1.2"/>
		<path class="st0" d="M144.9,122.3c1.8-1.6,2.5-3.8,3.7-5.8"/>
		<path class="st0" d="M-69.5,209.6c0.6-2-0.6-4.2,0.9-6.3c-1.8,0.2-3.3,0.6-4.7-0.1"/>
		<path class="st0" d="M222.2-157.9c0.4-2,0.7-4,1.1-6"/>
		<path class="st0" d="M117.5-100.9l5.9,1.5"/>
		<path class="st0" d="M-80.5,203.3l-3.4-0.9c2.4-8.3,8.8-12.3,16-10.3"/>
		<path class="st0" d="M116.3,98.5l0.2-6.2"/>
		<path class="st0" d="M-35.9,318.3c1.8-3.7-1.3-5.7-2.8-8.3"/>
		<path class="st0" d="M285.3,148c-0.3-2.3-1.2-4.5-2.4-6.4"/>
		<path class="st0" d="M397.1-103.4l5.5,1.4"/>
		<path class="st0" d="M40.1,308.2c3.7,0,7.5,0.8,10.9-0.9c2-1,2.9,0.6,4.4,0.7"/>
		<path class="st0" d="M365.2-190.6c3.7-1.3,7.5-2,11.3-0.3"/>
		<path class="st0" d="M263.1-168.7c-1.2-5.2-4.4-9.3-7.4-13.5"/>
		<path class="st0" d="M212.1,21.8c-5.7-4.8-12.6-6.7-19.6-8.5"/>
		<path class="st0" d="M74.8,198.3c2.4-2.9,2.4-6.6,3.4-9.9"/>
		<path class="st0" d="M145.2,42.2c1.5-1.9,3.4-2.7,5.8-1.7"/>
		<path class="st0" d="M163.9-171.6c-0.1-2.5-3.4-3.4-3-6.1"/>
		<path class="st0" d="M229-127.6c0.6-1.8,0.6-3.8,1.8-5.4c2.3,1.2,0.2,2.8,0.3,4.1"/>
		<path class="st0" d="M378.4-25.2c1.6,1.2,3.6,1.2,5.4,1.8"/>
		<path class="st0" d="M141.3,290.2c-0.9-3.5,1.5-7.6-1.8-10.7"/>
		<path class="st0" d="M83.8,115.9c-5.7,1.6-10.9-0.3-15.9-2.6"/>
		<path class="st0" d="M216.6,164.9l1.4-5.5"/>
		<path class="st0" d="M300.3,109.7c-1.7-1.4-2.1-4.1-4.7-4.3"/>
		<path class="st0" d="M272.4-34.7c2-0.4,3.7,0.6,5.6,1"/>
		<path class="st0" d="M160.7-178.7c-1.4-2.1-2.8-4.3-4.2-6.4"/>
		<path class="st0" d="M386.4-255.6c1.6,0.6,3.5,0.4,5,1.7"/>
		<path class="st0" d="M-39.6,329.5c2.8-2.1,2.7-5.6,3.9-8.4"/>
		<path class="st0" d="M400.2-287.5c1.7-2.8,2.9-5.8,3.6-8.9c0.7-3.6,4.2-5.6,5.3-9"/>
		<path class="st0" d="M226.2-39.6l1.7-5"/>
		<path class="st0" d="M393.6-198.3h5.4"/>
		<path class="st0" d="M102.1,155.4c-0.6-2-2.6-2.7-3.9-4.1"/>
		<path class="st0" d="M272.6-219.6c1,0.7,1.8,2.3,3.4,0.8c-0.7-4,0.2-7.4,3.8-9.7c1.2-0.8,1.1-2.2,2.1-3.1"/>
		<path class="st0" d="M21.3,277.6c2.9-1.6,4-5.6,7.8-6.1"/>
		<path class="st0" d="M309.2,17c0.5-1.7-1.2-3.9,1.3-5.1"/>
		<path class="st0" d="M-94.4,316.2c-0.5-1.4,1.1-4.8-2.8-3"/>
		<path class="st0" d="M113.2,177.4c0.7-1.6,2.1-2.9,2.1-4.9"/>
		<path class="st0" d="M168.8,352.1c-2.1-0.9-2.4-2.5-1.6-4.4"/>
		<path class="st0" d="M188.2,20.7c1.7,0.6,3.7-1.1,5.2,0.8"/>
		<path class="st0" d="M110.2,81.8c-2.1,2.6-2.3,6-3.4,9c-0.6,1.7,1,3.7,3.2,4.4"/>
		<path class="st0" d="M392.4-65.1l5.1,1.3"/>
		<path class="st0" d="M373.5-107.5c-2.5-1.3-5.5-0.6-7.9-2.7c-0.8-0.7-2.9,0.6-4,2"/>
		<path class="st0" d="M267.2,62.9c0.6-1.7-1.3-3.6,0.4-5.3"/>
		<path class="st0" d="M159.4,364.6c-2.5-2.2-0.6-4.9-0.8-7.4"/>
		<path class="st0" d="M253.5-211c0.6-1.6,1.1-3.3,1.7-4.9"/>
		<path class="st0" d="M300.1,99.8c-1.7-0.9-2.3-3.2-4.5-3.4"/>
		<path class="st0" d="M243.3-206.4c0.5-1.7-0.5-3.1-0.6-4.6c-0.1-0.7,0.4-1.4,1.1-1.5c0.1,0,0.1,0,0.2,0"/>
		<path class="st0" d="M299.2,103.2c-1.6-0.6-1.9-3.2-4.2-2.8"/>
		<path class="st0" d="M155.7,275.9c1.2,1.2,2.1,2.9,4.2,2.8"/>
		<path class="st0" d="M118.1-98l4.6,1.2"/>
		<path class="st0" d="M159.7,148.8c0-1.6,1.9-2.8,1.2-4.6"/>
		<path class="st0" d="M388.2-39.3l4.6,1.2"/>
		<path class="st0" d="M101.9-117.3c0.2-3.2-2.8-5.1-3.4-8"/>
		<path class="st0" d="M-41.1,278.5c2.4,0.4,2.7-2.3,4.3-3"/>
		<path class="st0" d="M202.2,250.8c-0.5-0.6-0.8-1.4-1.4-1.6c-3.2-1.5-4.8-4.4-6.2-7.4"/>
		<path class="st0" d="M116.7,177.4c0.5-1.5,1-3,1.6-4.5"/>
		<path class="st0" d="M390.3-62.1l4.6,1.2"/>
		<path class="st0" d="M87.9,95.9c-0.8-1.5-0.5-3.9-3-4.3"/>
		<path class="st0" d="M401.4-93.8c-1.5-0.5-2.8-1.8-4.6-1.2"/>
		<path class="st0" d="M331-155.8l1.1-4.2"/>
		<path class="st0" d="M230.9-133.4c1.2-1.1,0.9-2.8,1.5-4.1"/>
		<path class="st0" d="M98,245.3c0.8-1.3-0.4-3.2,1.5-4.1"/>
		<path class="st0" d="M214.6,1.4l3.2-3.7"/>
		<path class="st0" d="M380.2-196.7c6.7-2.6,11.8-7.5,17.3-11.8c0.8-0.6,0.6-1.4,0.9-2"/>
		<path class="st0" d="M109.3,194.4c-0.6-1.5,0.5-2.9,0.6-4.3"/>
		<path class="st0" d="M335,71.4l3.9,2.3"/>
		<path class="st0" d="M331.2-124.4c1.5,0.3,3-0.6,4.4,0.2"/>
		<path class="st0" d="M232.8-132c1.6-0.6,2.6-2.1,2.7-3.8"/>
		<path class="st0" d="M181.3,30.6c0.5-1.4,1-2.7,1.5-4.1"/>
		<path class="st0" d="M264.2-50.2c1.1,1.2,2.8,0.9,4.1,1.5"/>
		<path class="st0" d="M198.3,152.2c0.1-1.7,1.4-2.7,2.3-3.9"/>
		<path class="st0" d="M268-161.7l-0.9,2c-2.5-1.6-2.4-3.8-1.6-6.2"/>
		<path class="st0" d="M233.6-133.6c-0.6-1.6,0.5-2.9,0.6-4.3"/>
		<path class="st0" d="M282.5-21.5c1.2-2.1,2.7-0.3,4.1-0.3"/>
		<path class="st0" d="M242.9-193.9c1.5-0.1,2.7,1.9,4.3,0.6"/>
		<path class="st0" d="M344.3-67.8c0.4-2.2,2.3-2.4,3.9-3.1"/>
		<path class="st0" d="M366.1-99.1c1.5-0.6,2.9,0.5,4.3,0.6"/>
		<path class="st0" d="M157.4,147.3c0.2-1.4,0.8-2.6,1.8-3.6"/>
		<path class="st0" d="M389-113.9l3.7,1.4"/>
		<path class="st0" d="M247.6-195c1.1-3.1-2.7-4-2.8-6.5"/>
		<path class="st0" d="M167.5,16c-0.7-1.5-1.3-3-2-4.5"/>
		<path class="st0" d="M201.1,169.9l1-3.8"/>
		<path class="st0" d="M396.9-201l3.8,1"/>
		<path class="st0" d="M194.7,134.3c0.1-1.3,1.3-2.6,0.1-4"/>
		<path class="st0" d="M197.6,169.1c0.5-1.2,0.9-2.5,1.4-3.7"/>
		<path class="st0" d="M396.1-81.2l3.8,1"/>
		<path class="st0" d="M157.4,324.2c1.2-1,1-2.4,1.4-3.7"/>
		<path class="st0" d="M-80.1,215.9l1-3.9c-2.8,0-2.7,2.5-4,3.6"/>
		<path class="st0" d="M118.3-95.3l3.8,0.9"/>
		<path class="st0" d="M117-104.1l3.9,0.5"/>
		<path class="st0" d="M113.1,97.3c0.4-1.2,0.9-2.5,1.4-3.7"/>
		<path class="st0" d="M94,132.4c-1.1-0.8-1.9-2.1-3.5-2.2"/>
		<path class="st0" d="M312.3,18.7l1-3.8"/>
		<path class="st0" d="M99.9,78.3c1.1-0.8,0.8-2.2,1.3-3.3"/>
		<path class="st0" d="M487-212c1.7-2.4,2.2-4.9,0.5-7.5"/>
		<path class="st0" d="M463.7-174.5c-1.1-2.2,0.2-4.1,0.6-6.1"/>
		<path class="st0" d="M307.4,8c0.9-1.1,2.2-1.9,3.7-2.2"/>
		<path class="st0" d="M391.4-43l3.4,0.8"/>
		<path class="st0" d="M240.6-199l-3.1-2.1"/>
		<path class="st0" d="M-57.4,197c-0.8-1.1-2.2-0.8-3.3-1.3"/>
		<path class="st0" d="M248.2-81.1c1.9,0.1,1.6-1.6,2-2.6"/>
		<path class="st0" d="M278,66.5l0.4-3.5"/>
		<path class="st0" d="M247.9-83.4c1.1-0.8,0.8-2.2,1.3-3.3"/>
		<path class="st0" d="M235.2,137.3l3.5,0.4"/>
		<path class="st0" d="M324.7,87.2c-0.8-1-2.4-1.4-1.9-3.2"/>
		<path class="st0" d="M382.1-263.4l6,1"/>
		<path class="st0" d="M227.4,154.1l3.4,0.8"/>
		<path class="st0" d="M81.2,87.1c0.8-1.7,2.1-0.7,3.3-0.5"/>
		<path class="st0" d="M323.3-14.4c0.5-1.8,1.7-1.4,3-1"/>
		<path class="st0" d="M160.1,363.8c1.1-0.8,0.8-2.2,1.3-3.3"/>
		<path class="st0" d="M109.3,221.3c0-1.2,1.1-2.2,0.4-3.5"/>
		<path class="st0" d="M158.4,356.2c-0.6-1.2,0.4-2.3,0.4-3.5"/>
		<path class="st0" d="M395.1-79.2c0.8,1.1,2.2,0.8,3.3,1.3"/>
		<path class="st0" d="M-58.6,223.1c2-0.5,4.2,0.9,6-0.7"/>
		<path class="st0" d="M385.4-137.2c1.2-0.6,2.3,0.4,3.5,0.4"/>
		<path class="st0" d="M196.8,118.7c0-1.2,1-2.2,0.4-3.5"/>
		<path class="st0" d="M264-167.2l-3.4-0.9"/>
		<path class="st0" d="M244.2-195.4c1.6,0.5,3.6,0.3,3.8,2.7"/>
		<path class="st0" d="M238.5-195.9l3,0.7"/>
		<path class="st0" d="M330.6-142l3,0.3"/>
		<path class="st0" d="M397.5-105.1c1-1.1,2.1-0.3,3.2-0.1"/>
		<path class="st0" d="M-98.2,313.4l-5.1-1.3"/>
		<path class="st0" d="M371.6-108.9c1-1.1,2.1-0.3,3.2-0.1"/>
		<path class="st0" d="M214.9-142.8c0.4-1,0.2-2.3,1.6-2.7"/>
		<path class="st0" d="M269.1-183.8c0.1-1,0.2-2,0.3-3"/>
		<path class="st0" d="M216.3-141.5c0-1.2,1-2.2,0.4-3.5"/>
		<path class="st0" d="M99.5,56.7l3.1,0.3"/>
		<path class="st0" d="M78.8,175.1l-0.8-5.6"/>
		<path class="st0" d="M-52.5,196.9c1.8-0.8,3.8-1,5.2-2.7"/>
		<path class="st0" d="M-39.7,304.8c-1.6-2.7,1.9-5.5-0.2-8.1"/>
		<path class="st0" d="M373.2-253.1c0.6-1.9-1-3-1.6-4.4"/>
		<path class="st0" d="M-56.1,205.8c0.1,2.3,0.7,4.3,3.2,5.3"/>
		<path class="st0" d="M-39.7,312l1.1-4.2"/>
	</g>
</g>
</svg>
