<?xml version="1.0" encoding="utf-8"?>
<!-- Generator: Adobe Illustrator 24.0.1, SVG Export Plug-In . SVG Version: 6.00 Build 0)  -->
<svg version="1.1" id="圖層_1" xmlns="http://www.w3.org/2000/svg" xmlns:xlink="http://www.w3.org/1999/xlink" x="0px" y="0px"
	 viewBox="0 0 530.7 418.8" style="enable-background:new 0 0 530.7 418.8;" xml:space="preserve">
<style type="text/css">
	.st0{fill:none;stroke:#FFFFFF;stroke-miterlimit:10;}
</style>
<title>資產 6</title>
<g id="圖層_2_1_">
	<g id="background">
		<path class="st0" d="M341.7,85.3c9.1,12.4,19.5,23.4,32.2,32.3c6.1,4.3,12.3,8.2,19.3,10.5c6.5,2.1,13.3,3.1,20.2,1.6
			c6.1-1.4,9.6-4.9,9.5-11.5c-0.2-10.4,2.6-20.4,2.8-30.7c0.1-4.3-0.2-8.6-1.1-12.9c-1.2-5.6,0-11.5-1-17.3
			c-0.6-4.4-2.2-8.6-4.7-12.3c-6-8.5-11.8-17.1-18.4-25.1c-3.8-4.7-8.2-9.4-14.6-11c-0.4-0.1-0.9-0.4-1.2-0.3
			c-6.9,2.6-10.5-2.7-14.5-6.4c-2.9-2.7-6.7-3.3-9.9-5.4c-2.7-1.8-5.5-3.4-6.8-6.4c-1.7-4.1-5.2-5.1-8.9-5.7
			c-5.8-0.9-11.8-0.3-17.4,1.5c-6.2,1.9-11.8,2.2-16.9-2.5s-10.5-9.5-15.7-14.2"/>
		<path class="st0" d="M306,216.9c4.2,5.3,9.5,7.1,16.1,5.4c6.3-1.6,13-2,19.1-4.6s10.5-8,12-14.5c1.7-6.6,5.4-11.1,11.2-13.7
			c8-3.5,11.9-9,11.6-17.8c0-3.1,0.4-6.1,1.4-9c3.1-10.4-0.1-19-6.8-26.8c-4.4-4.8-7.8-10.4-10.3-16.4c-3.8-9.6-11.1-16.6-18.8-23
			C336,91.9,332,85.7,326,81.8c-2.6-1.7-4.2-4.9-7.5-5.6"/>
		<path class="st0" d="M158-60.7c-2.7,3.4-7.1,3-10.6,4.3c-7.1,2.5-13.2,7.4-17.1,13.9c-4.2,6.8-9.7,12.5-16.3,17
			C105.7-20,101.1-11,95.6-2.9c-2.5,3.7-3.7,7.7-4.7,11.8c-1.7,7-0.1,9.5,6.9,10.2c4,0.4,7.9,0.5,11.9,0.8
			c7.3,0.5,14.4-1.8,21.8-1.5c2.7,0.1,4.2,1.3,6.6,1.9c-5.1,5.4-11.3,6.7-17.8,7.2c-1.7,0.2-3.5,0.5-5.2,0.9"/>
		<path class="st0" d="M197.6,349.6c3.5-2.5,4.4-6.7,5.5-10.3c3.2-10.4,5.6-21,4.6-32c-1.2-13.7-7.5-25.3-16.3-35.3
			c-8.3-9.4-17.5-17.9-26.3-26.9"/>
		<path class="st0" d="M268.6,134.1c-1.8-2.4-5.4-1.2-7.1-4c-2.2-3.5-5.8-5.3-9.3-7.4c-2.2-1.3-1.4-4.2-2.2-6.2
			c-1.2-2.8,0.4-3.9,1.5-5.6c3.2-4.6,6.6-8.8,12.8-9.9c3.5-0.6,3.4-4.8,4-7.4c1.7-7.7,3.1-15.5,0.9-23.6c-1.4-5.4-4.7-10.2-9.3-13.5
			c-5.9-4-10.4-9.7-12.8-16.4c-3.6-9.8-10.4-17.2-22.3-17c-1.5-0.1-2.9-0.3-4.3-0.6"/>
		<path class="st0" d="M53.4,99.4c-7.9-3.5-15.2-2.8-21.8,3.1c-2.5,2.2-4.3,5.1-2.4,8.2c1.6,2.7,4.8,3.8,8,3.4
			c5-0.6,9.4-2.7,11.6-7.4C52.4,99.3,59,96.8,66.2,95c0.8-0.2,1.2-0.1,1.6-1c1.5-3.8,4.8-6.1,7.9-8.3c6.7-4.7,8.6-11.5,8.6-18.9
			c0-3.2-2.8-5.7-4.2-8.7c7.6-7.6,16.5-11.8,27-11.9c8.4-0.1,15.6-3.2,22.8-6.9c7.8-4.1,15.6-8.1,24.1-10.5c1.6-0.6,3.4-0.6,5-0.1"
			/>
		<path class="st0" d="M230-98.1c5.9-7.9,12.7-15.1,17.7-23.7c7.5-12.9,8.7-26.6,6.5-40.9c-1.1-7-3.6-13.9-4.4-20.9
			c-0.6-5.4-1.7-10.7-2.1-16.1c-0.1-1.6,0.7-2.5,1-3.8"/>
		<path class="st0" d="M-74.1,331.2c6-5.2,14-6.8,20.4-11.4c6.2-4.3,9.9-9.8,10.4-17.2c0.2-3.3,1.6-5.3,4.4-6.5
			c7.9-3.5,13.9-9.5,20.4-15c3.3-2.8,4.5-7,6.5-10.5c2.4-4.4,4-9.1,4.8-14c1.8-11.4,8.4-21.1,14-30.9c4.2-7.3,7.7-15.2,12.9-21.9
			c1.8-2.4,3.4-4.9,6.4-6.6c3.9-2.4,5-7.5,8.1-10.9c1.4-1.4,2.7-3,3.6-4.8"/>
		<path class="st0" d="M263.4,163.7c0.9,6.6,0.3,13.4-1.8,19.7c-1.8,5.4-1.8,11.2-3.3,16.6c-0.8,3.1-0.4,6.5,1.3,9.3
			c1.8,3.1,3.4,6.3,4.8,9.7c1.4,3.7,5.3,4.8,9.6,4.3c6.6-0.6,12.7-3.4,19.3-3.8c2.5-0.2,4-1.6,3.8-4.4"/>
		<path class="st0" d="M209.2-145.4c-7.9-11.1-18.4-19.9-26.9-30.4c-4.4-5.5-9.1-10.9-11.6-17.4c-4.1-10.9-10.8-21.2-10.5-33.4
			c0.1-5.3-0.3-10.7,0.8-15.9"/>
		<path class="st0" d="M72.4,339.7c1-6-3.4-10.5-4.6-15.9c-1.2-5.1-2.7-10.2-3.1-15.7c-4.1-1.8-8.9-2.5-13.4-4.4
			c-11.9-4.9-21.9-11.8-28.1-23.3c-2.9-5.4-2.3-11.2-1.1-16.8c0.8-3.9,2.8-4,6.8-2.4c8.9,3.5,13.3,11.2,18.2,18.5"/>
		<path class="st0" d="M289.7-227.4c-2.9-4.2,0.6-7.3,1.9-10.7c2.4-6.6,8-10.2,14-13c3.2-1.5,4.4-6,8.8-5.8c2.5,6.6,6.8,12.7,6,20.7
			c-0.4,4.4,1.1,8.9,2.6,13.3c2.7,7.5,3.8,15.3-0.3,22.7c-2.6,4.5-6,8.5-10,11.9c-6.1,5.3-7.6,13.1-4.3,20.9
			c3.1-0.8,4.2-3.5,5.4-5.9c1.6-3.3,3.8-5.9,7.3-7.1c5.2-1.8,7.9-5.6,9-10.8c0.4-2.1,1.1-4.2,1.6-6.3c1.5-6.2,2.9-8.6,11-8.1
			c7.4,0.4,14.5,0.8,20.6,5.6c2.7,2.1,6.6,1.2,8.1-2.8c2.5-6.4,7.8-10.7,11-16.5c2.2-3.8,4.3-7.6,6.4-11.4"/>
		<path class="st0" d="M75,327.8c3.9-5.2,5-11.6,6.5-17.6c1-3.7,2.8-5.9,6.3-6.9c19.9-6,32.9-19.6,41.2-38.1
			c1.7-3.8,2.9-8.3,1.1-12.7c-0.5-1.3-0.4-2.7,0.1-4"/>
		<path class="st0" d="M294.8-42.1c3.4-1.2,6.4,0.1,9.5,1.5c4.9,2.1,10.1,3.7,15.4,4.8c6.4,1.3,11.7-1.8,17.2-4.2
			c7.1-3.1,9.5-10.1,13.4-15.9c1.4-2.1,2.4-4.6,4-6.6s3.2-4,6.4-2.6c1.1,0.3,2.2,0.1,3.2-0.5c4.9-2.6,10.3-1.4,15.4-2.2
			c1.7-0.3,4.4,0.2,5.1,2.1c1.1,2.9,3.3,4.3,5.6,5.8"/>
		<path class="st0" d="M-31.1,188c5,0.8,10.2,0.7,15.2,2c1.4,0.5,2.9,0.4,4.2-0.2c6.7-3.5,13.8-2.1,20.9-1.6
			c1.5,0.1,2.7,0.9,4.4,0.3c7.5-2.5,15.2-4.3,21.6-9.4c4-3.2,8-6.4,12.8-8.6c5.3-2.3,9.4-6.5,13.3-10.5c6.5-6.8,14.7-10.9,22.4-15.9
			c2.6-1.7,4.9,0.8,7.5-0.6c4.6-2.4,9.5-4,14.4-5.9c1.8-0.7,3.6-1.8,5.7-1.4c0.5,2.3-1.3,3.4-2.1,5c-0.7,1.4-2.4,2.5-1.6,4.5"/>
		<path class="st0" d="M116.8,135.9c1.9,2.3,0.7,4.9,0.8,7.4c0.5,14,14.5,28.7,28.1,29.4c9.3,0.5,15.8-5.9,15.5-15.8
			c-0.1-3.8,0.9-7.6,2.9-10.9c0.6-1.1,1.8-1.9,2.5-3c6.4-10.8,9.1-13.2,0.1-25.5c-2.4-3.2-4.6-6.6-7.1-9.7c-3.2-4-7.7-6.6-12.8-7.3
			c-1,0-2-0.2-3-0.5c-7.5-3-8.5-4.2-6-13.1c5.7-21,15.8-39,36-49.7c2-1.1,4.3-1.3,6.5-0.6"/>
		<path class="st0" d="M173.9,396c1.8-4.6,1.3-9.5,2-14.2c0.8-5.8,1.2-11.6,1.9-17.5c1.1-10,2.1-20.1,3.1-30.1
			c0.2-2.9,1-5.8,2.1-8.4"/>
		<path class="st0" d="M173.5,418.8c0.2-6.3,0.5-12.7,0.8-19.1c0.1-0.7-0.1-1.3-0.4-1.9c-4.1-7.5-3.3-16-4.8-24
			c-1.2-6.5-1.4-13.2-3.9-19.5c-1.4,0.5-2.2,1.8-3.8,1.4c-12.7-22.7-14.5-46.5-6.4-71.3c-3.1-0.6-4.2-1.8-4-4.7
			c0.7-9.1,2.4-18.2,5.1-26.9c0.2-0.7,1.1-1.2,1.7-1.8"/>
		<path class="st0" d="M-6.8,260.8c5.5-14.5,13.8-27.7,21.2-41.2c3.4-6.2,5.7-13.1,10.7-18.4c0.6-0.6,0.5-1.9,0.8-2.9"/>
		<path class="st0" d="M193.7,91.6c-0.4-11.1,0.2-22,2.8-32.9c2.5-9.9,6.7-19.3,12.5-27.7c0.7-1.1,1.6-1.9,1.2-3.3"/>
		<path class="st0" d="M406.7-68c3.5,2.2,3.8,6.4,5.3,9.7c0.9,2,2,3.2,4.1,3.6c1.7,0.2,3.2,1.1,4.2,2.5c0.9,1.4,2.7,1.9,4.1,1
			c0.2-0.1,0.4-0.3,0.6-0.4c4.1-5.4,10.8-7.9,14.4-13.8c2.8-4.7,3.7-9.9,3.7-15.2c0.1-11.5-0.1-23-0.3-34.6c0-1.7,0.7-4-1.8-5"/>
		<path class="st0" d="M429.3-57.2c-1.2-3.9,1.6-6.8,3.1-9.4c3.1-5.5,1.8-10.2-1.1-14.6c-4.9-7.4-5.1-11.5,0.2-18.4
			c0.2-0.3,1-0.4,1-0.6c-0.1-6.7,5.3-11,7.2-17c2.7-8.3,0.3-14.4-5.1-20c-1.7-1.8-4.2-2.7-6.7-3.6c-8.9-3.2-17.7-6.8-26.7-9.6
			c-4-1.3-8.6-1.9-12.7,0.7c-2.1,1.4-3.5-0.4-4.6-1.3c-2.5-2-5.3-3.6-8.3-4.6"/>
		<path class="st0" d="M186.2,336c-1.1-1.7-0.5-3.7-0.8-5.6c-0.3-1.9-0.3-3.1-1.9-4.6c-3.4-3.1-2-7.8-2.9-11.8
			c-1.7-7.4-1.9-15.4-5.1-22.1c-4.2-9.2-7.9-18.5-11.1-28.1c-0.3-0.8-1-2-0.7-2.4c2.4-3-0.3-5-1.7-6.6c-2.8-3.1-3-6.3-2.8-10.2
			c0.4-8.1-0.5-16.1-1.6-24.1c-1.5-11-5.1-21.5-9-31.8c-0.4-1.1-1.1-2.1-0.5-3.3"/>
		<path class="st0" d="M404.6-13.7c4.4,0,8.2,2,12,3.9c5.8,2.9,7.2,2.5,10.6-2.7c1.1-1.5,2.4-2.7,4-3.5c7.5-4.7,8.5-8.5,6.5-17.1
			c-1.8-7.4-6.3-13.2-11.9-18.2"/>
		<path class="st0" d="M221.1-76.6c-4-11.1-8.4-22.1-10.4-33.9c-1.3-7.2-1.8-14.6-1.5-21.9c0.3-5.4,0.5-10.7,1.8-16.1
			c1-4.6-1.2-9.9-2.2-14.9c-1.1-5.6-3-11-3.7-16.7c-0.8-5.5-0.7-11,0.5-16.4c1-5.1,2.5-10.1,4.5-15c1.7-3.8,1.6-8.2-0.3-11.8
			c-1.8-3.8-1.6-8.6-2.3-13c-0.2-1.2,0.3-2.6-1.5-3"/>
		<path class="st0" d="M30.4,193c2.1,0.3,2.7-1.5,3.8-2.6c15.3-16.9,32.8-31.8,51.9-44.3c0.7-0.4,1.3-1.1,1.4-1.9"/>
		<path class="st0" d="M130.8,247.8c1.5-2,3.2-1.9,5.4-0.2c3.3-5.6,5.6-11.8,6.7-18.2c2.6-13.4,1.1-26.8,0.3-40.2
			c0-0.5-0.6-1-0.9-1.6"/>
		<path class="st0" d="M253.8,323.4c1.6-3,0.8-6.3,0.4-9.2c-1.1-7.9,0.3-16.2-3.1-23.5c-2.6-5.7-4.8-11.5-6.6-17.5
			c-4.1-12.5-8.2-25-12.1-37.5c-1.6-5.1-4.8-9.6-5.2-15.2"/>
		<path class="st0" d="M15.4,260c-3.8-3.8-4.5-7.6-3.4-13.4s1.5-11.8,2.6-17.7c0.4-2.9,2-5.5,4.3-7.3c1.7-1.3,3.1-3,4.1-5
			c9.3-17.4,24.2-25.9,43.3-27.6c3.1-0.3,6.3-0.8,9.4,0.1"/>
		<path class="st0" d="M211.4-71.9c-3.9-3.9-7.2-8.4-12.6-10.4c-0.6-0.2-1.3-1.3-2-0.8c-4,3-5.7-1.1-7.3-2.9
			c-5.2-5.8-10.7-11.1-18-14.2c-9.5-3.9-19-7.6-29.5-7.2"/>
		<path class="st0" d="M166.9,200.4c6.1,3.9,10.7,9.9,11.6,16.5c1,7.6,4.2,14.1,7,20.7c3,6.8,7.1,13,12.2,18.4
			c5,5.4,11.3,9.1,17.3,13.2c2.2,1.5,3.9,0.3,3.2-2.8c4.7-1.1,7.4,2.2,10.2,4.6c8.8,7.3,15.3,16.5,20.7,26.6
			c0.8,1.5,1.2,3.2,3.2,3.5"/>
		<path class="st0" d="M222.7-111.6c-1.1-2.7,0.4-4.6,1.6-6.8c2.1-3.4,2.9-7.3,3.7-11.1c1.5-7.1,4.7-13.4,8.6-19.3
			c1-1.5,1.7-5.4,5.5-2.9c0.9,0.6,1.7-1.6,2-2.9c1.9-7.2,1.6-14.4,0.9-21.7c-0.9-7.9-0.9-15.9-0.2-23.8c0.2-1.7,0.3-3.7,2-4.8"/>
		<path class="st0" d="M166.9,263.1c-0.4-1.8,0.6-3.4,0.8-5.2c0.1-0.9,0.8-1.6,0.2-2.6c-5.3-10-4.6-21.3-6.3-32
			c-1.9-11.7-4.7-23.1-8.5-34.3c-0.3-0.9-0.5-1.9-0.6-2.9"/>
		<path class="st0" d="M158.8,105.7c1.4-6.8,4-13.3,4.7-20.3c1.1-10.3,4.5-20,7.7-29.9c2-5.9,4.7-11.5,7.9-16.8
			c3.7-6.4,9.9-9.2,16.6-10.5c7.9-1.6,15.8-3,23.6-5"/>
		<path class="st0" d="M225.6-76.9c-1.1-2.8,0-5.8-0.5-8.8l-2.8,1c-5.2-14.6-10.6-29.1-9.5-45.1c0.4-4.1,0.3-8.2-0.5-12.2"/>
		<path class="st0" d="M271.8-64.8c-0.4-5.2-0.3-10.4,0.3-15.5c0.4-6.1,1.4-12.2,2.9-18.2c3.5-12.8,8-25.3,16.9-35.7
			c3.7-4.4,5.4-9,2.1-14.8c-1.5-2.9-1-6.5,1.2-8.9c2.9-3.2,4.3-7.3,5.7-11.1c1.4-3.7,0.3-7.6-1.6-11.1c-0.8-1.5-1.4-3-0.6-4.7"/>
		<path class="st0" d="M207-149.1c0.3-1,0.3-2.1,0-3.2c-1.2-4.5-2-9.1-3-13.7c-2.6-11.7-7.8-22.3-14.3-32.2
			c-1.5-2.3-2.9-4.8-6.7-3.6c-1.7,0.5-3-1.6-4.1-2.8c-7.5-7.8-13.9-16.4-17.5-26.7"/>
		<path class="st0" d="M20.2,221c1,3.2-0.5,6.2-1.5,9c-2.5,7.6-0.4,15,0.3,22.5c0.1,0.8,0.2,2,1.6,2.3s2.2-0.6,3.1-1.5
			c1.7-1.7,2.1-4,3.6-5.9c2.1-2.8,4-3.7,6.6-1"/>
		<path class="st0" d="M-75.7,332.2c-6.9,3.7-17.9,2.6-23.4-2.8c-2.5-2.5-1.1-6,0-8.8c2.7-7,7.4-12.9,12.3-18.3
			c6.8-7.7,18.3-9.1,27.9-4.8c3.6,1.6,7.4,1.4,11.2,0.2c1.7-0.7,3.7-0.4,5.2,0.8"/>
		<path class="st0" d="M46.2,260.2c3.3-1.9,1.9-5.8,3.7-8.5c3.2-4.8,5.5-10.1,6.6-15.7c1.1-5.9,5.7-10.2,10.5-13.9
			c2.8-2.1,5.5-4.3,8.9-5.4"/>
		<path class="st0" d="M45.6,263.6c0.1-0.3,0.3-0.8,0.4-0.8c7-0.1,10.9,5.2,9.2,11.7c-2,7.7-2,15.2,4.4,21.3c0.5,0.6,0.8,1.3,0.9,2
			c0.6,3.4,3,3.5,5.8,3.8c5.1,0.4,10.1,1.3,15.2,2c0.3,0,0.5,0.4,0.7,0.6"/>
		<path class="st0" d="M188.9-43.1c-1.8-3.7-1.1-7.7-1-11.5c0.1-2.9-1-4.4-3-6.2c-8.7-7.5-19-12.6-28.4-19.1
			c-4.8-3.3-8-8.1-12.1-12.1c-1-1-0.8-3.3-1-5.1c-2.3-17.2-11.3-29.5-27.1-36.8c-1.7-0.8-3-2.2-4.6-3.3c-1.3-1-2.4-2.6-4.4-2"/>
		<path class="st0" d="M520.4-190.2c-0.3,5.3-3.5,7.7-9,7.2c-5.2-0.4-9.8-2.9-14.5-4.8c-2.5-1-4.7-0.4-7-0.7
			c-1.6-0.2-2.3,1.2-2.8,2.4c-2.1,4.6-0.5,14.4,3.2,17.8c4.4,3.9,9.9,4.8,13.2-1.1c1.7-2.9,1.2-6.8-2.7-9c-7.1-4.1-13-9.9-21.6-11.8
			c-4.5-1-7,0.4-10.3,1.8c-11,4.7-22.2,9.2-33.8,11.5c-11,2.2-21.9,4.4-31.9,9.6c-1.1,0.6-2.6,0.3-3.3-0.8"/>
		<path class="st0" d="M175.9,397c2.4-2.3,2.4-5.7,3.3-8.6c1.9-6,3.4-11.8,7.3-17.1c3.6-4.8,5.4-11.1,8-16.7
			c1.9-3.9,1.5-8.3,2.5-12.4c0.3-1.4,0.7-2.8,1.2-4.2"/>
		<path class="st0" d="M188-59c2.3-2.4,5.4-4,8.7-4.6c5.8-1,11.2-3.7,15.5-7.6c7.1-6.4,15.6-6.4,24.2-2.6c2.7,1.2,5.5,2.1,8.1,3.4
			c3.8,2,8.1,1.1,12.1,1.9c5,0.9,9.8,2.6,14.7,3.9c0.6,0.1,1.4,0,1.6,0.8c0.8,3.9,4.3,5.5,6.5,8.3c3.5,4.6,8.3,7.9,12.9,11.3
			c2.5,1.8,4.7,10.7,2.5,12.7c-2.9,2.6-6.9,2.4-10.6,1.9s-7.2-2.4-10.7-3.8c-2.5-1-5.6-0.3-7.2-3.3"/>
		<path class="st0" d="M340.1,64.7c3-14.4,5.5-28.8,1.9-43.4c-0.4-1.6,0.8-2.5,1-3.8"/>
		<path class="st0" d="M288.7,69.7c-0.6-9.3-4.9-17.3-9.4-25.1c-3.4-6.1-7.8-11.5-12.9-16.2c-2.5-2.2-1.3-4.7-1.3-7.1"/>
		<path class="st0" d="M506.2-204.9c5.8,2.9,17.5,1.6,21.7-2.7c2.6-2.6,2.8-6,1.9-9.3c-0.7-2.5-5.8-4.9-8.7-4.4
			c-2.1,0.4-4.2,1-6.2,1.6"/>
		<path class="st0" d="M374.7,5.3c6.4-1.1,12.9-1,19.2,0.4c4.3,0.8,8.1,0.5,11.7-2c7.6-5.3,7.6-5.3,3-13.6c-0.4-0.7-1.3-1.4-0.8-2.4
			"/>
		<path class="st0" d="M408.7-71.3c0.3-5.6-0.6-11,2.1-16.5c3.9-7.8-1.8-15.8-10.6-15.5c-5.1,0.1-9.2-1.7-13.1-4.8
			c-2.1,2.7-0.6,4.9,0.8,6c2.5,1.9,3.5,4.5,4.4,7.1c1.6,4.6,3.7,8.9,7.1,12.6c2.5,2.6,1.7,5.6-0.3,8.4c-2.6,3.7-6.3,6.8-7,11.7"/>
		<path class="st0" d="M-64.4,242.3c0.5,0.4,1,1.2,1.5,1.2c9.6-0.4,19.1,4.3,28.9,1c4.2-1.4,8.4-3.1,12.4-5c3.9-1.7,5.5-5.7,6.2-9.2
			c1.4-7.3,4.1-14.3,8.1-20.7c4.1-6.5,9.5-12.9,17.7-16.1c7.3-2.8,14.4-6.4,22-8.7c0.7-0.4,1.5-0.5,2.3-0.3"/>
		<path class="st0" d="M396.8-252.5c-4.8-7.4-5.4-15.3-2.6-23.5c3.8-11,10.5-18.8,22.1-22.4c4.6-1.5,8.6-5.1,12.8-7.8
			c1.7-1.1,3.3-1.7,5.1-0.5c2.5,1.7,2.8-0.2,3.2-1.9"/>
		<path class="st0" d="M66.6,118c-4.9,1-9.7,2.5-14.6,3c-8.2,0.8-16.5,0.9-24.3-2.9c-1-0.5-2.1-0.9-3.3-1.2c-4.3-1-6.4-4.5-8.2-8
			c-1.1-2.1-2.7-2.8-4.5-3.9c-4.3-2.6-8.4-5.6-10.4-10.6c-1.5-3.9-0.5-8,2.4-9.7s6.8-0.6,9.6,2.8c2.2,2.6,1.8,5.9,2.7,8.8"/>
		<path class="st0" d="M130,247.6c-3.4-5.6-4.5-12.2-8-17.8c-0.8-1.3-0.5-2.7,0.9-4.2c7.1-8,11.7-17.9,13.2-28.4
			c0.6-4.2,3.1-8.1,5.9-11.5"/>
		<path class="st0" d="M227.6-88.4c4.3-3.4,9-6.2,14.1-8.2c10.4-4.1,16.1-12.6,19.1-22.9c2.6-8.7,4.6-17.7,6.7-26.5
			c0.4-2,0.6-4.1,0.7-6.1"/>
		<path class="st0" d="M179.2,217.3c0.7,0.3,1.4,0.6,2,1c6,5,13.2,4,20,4c6.2,0,12.4-3.1,18.5-2.2c10.8,1.5,25.8-10.2,27.6-21"/>
		<path class="st0" d="M142.4-55.6c-5.8-7.6-11.8-15.1-14.4-24.7c-1.2-4.6-2.5-9.1-3.4-13.8c-3-14.4-6.7-28.7-15.3-41.2
			c-4.1-6-9.7-10.6-13.9-16.3"/>
		<path class="st0" d="M399.6-169c3-4.8,6.1-9.4,8.9-14.4c0.9-1.7,2.1-3.3,3.7-3.4c4.9-0.4,8.6-3.8,13.2-4.9c4.3-1,8.8,0.1,13.2-1.9
			c2.3-1.1,5.1-1.6,6.9-3.4c4.3-4.2,1.4-10.2-2.8-11.4c-5.1-1.6-9.2-1.1-12.8,5c-0.9,1.3-1.9,2.5-3,3.6c-2.1,2.2-3.4,5.1-3.7,8.1"/>
		<path class="st0" d="M366.7,105.4c11.4,8.4,23.3,15.8,37.3,19.2"/>
		<path class="st0" d="M3.1,334c3.6-0.4,4-3.8,4.9-6c3.6-8.3,1.4-16.9-5.9-22.4c-5.4-4.1-7.9-10.1-11.8-15.2"/>
		<path class="st0" d="M372-203.6c3.8,0.1,5-3.5,6.6-5.6c4-5.4,7.6-11,10.6-17c1.8-3.5,2.4-7.7,3.5-11.6"/>
		<path class="st0" d="M66.2,110.7c0.8,4.4,1.4,8.8,0.7,13.2c-0.5,3.2,1.1,4.4,3.8,4.5c8.7,0.5,13.9-0.4,18.7-9.6
			c3.6-6.9,8.1-13.4,16-16.1c2-0.6,3.4-2.4,3.6-4.5c0-3.5,2.1-6.4,1.5-10c-0.4-2.4,1.6-4.4,2.8-6.4c2.9-4.8,4.7-10.4,9.7-13.7"/>
		<path class="st0" d="M358.6-66.4c0.8-5.3,1.4-10.4-1.3-15.7c-1.6-3.3-4.3-5.3-6.3-8.1c-2.6-3.6-4.4-7.3-4.1-11.9
			c0.2-3.7,3-5.2,5.7-6.6c5.2-3,11.3-3.7,17.1-2.1c5.3,1.5,10.7,2.5,16.1,3.6"/>
		<path class="st0" d="M204-253.3c0.3,2.8,0.7,5.7,1.4,8.5c0.9,3.5,0.2,7.3-1.9,10.3c-1.4,2-1.6,4.9-2,7.5c-0.8,5.9-2,11.7-3.5,17.5
			c-1.3,5-0.3,10.1-0.1,15.2c0,1.2,0.9,2.1,2,2.3"/>
		<path class="st0" d="M119.1,124.8c-1.6-0.8-3.1-1-4.4,0.1c-0.4,7.1,4.7,11,9.4,14.4c8.5,6.3,18.3,10.3,28.8,11.8"/>
		<path class="st0" d="M323.9,176.1c1.5-7.9-0.3-15.5-2.4-22.9c-1.7-6.3-4-12.5-6.9-18.4"/>
		<path class="st0" d="M311.1,37.7c7.1-9.2,10.8-20,13-31.2c0.3-1.4,1.1-2.1,1.4-3.2"/>
		<path class="st0" d="M251.3,288.7c2-3.8-0.2-7.6-1.1-10.9c-2.5-9.4-3.8-19.1-6-28.5"/>
		<path class="st0" d="M290.2,110.4c6-9.9,7.8-20.8,7.5-32.1c0-1,0.3-1.8,0.3-2.6"/>
		<path class="st0" d="M196.6,340.8c-3.3-1.8-1.8-4.7-1.3-7.1c1.6-6.9,2.6-14,3-21.1c0.3-4.9,1.5-11.4-4.1-15.6
			c-1.4-1-1.5-3.8-2.3-5.7c-3.9-9-6.3-19.1-14.8-25.1c-3.8-2.7-6.4-7.6-11.9-7.7"/>
		<path class="st0" d="M144.4-1.4c9.2,3.3,17.8,7.9,25.7,13.6c1.6,1.1,3.4,2,5,3.1"/>
		<path class="st0" d="M241.8,64.3c-1.8-13.6-5.9-26.3-16-36.2"/>
		<path class="st0" d="M10.1,113.2c-4,1.8-8.3,2-12.6,2.2c-4.7,0.2-9.7-5.1-9.3-9.4s4-6.7,9.1-5.8c5,0.9,9.4,4.2,11.6,8.8
			c2.2,4.3,5.6,5.5,9.9,5.5"/>
		<path class="st0" d="M310,31.2c5.2-7,7.9-15.2,10.3-23.4c1.1-4,1.7-8.2,6.8-9"/>
		<path class="st0" d="M251,193.7c3.5-5,2.4-11,4-16.5c1.3-4.8,2.7-9.5,4.2-14.4c-0.5-1.8-2.1-3.1-3.5-4.8c-7.2,2.2-14.1,1-20.5-2.8
			c-4.6-2.7-8.3-6.5-10-11.8"/>
		<path class="st0" d="M239.8,190c2.3-9.5,4.5-19,9.6-27.6c0.4-0.9,0.6-1.9,0.8-2.9"/>
		<path class="st0" d="M5.7,141.3c-0.8,0.8-1.6,1.7-2.4,2.5c-4.5,4.1-4.9,7.1-1.4,10.9c3.7,4,7.3,4.1,11.6,0.2
			c1.4-1.3,3.6-2.1,3.8-4.4"/>
		<path class="st0" d="M384.7-191.9c2.5-5.5,3.1-11.6,6.8-16.7c5.2-7.2,11.1-13.8,19-18c6.1-3.3,13-3.1,19.8-2.3
			c1.7,0.2,2.3,1.7,3.4,2.6"/>
		<path class="st0" d="M476.9-191.7c0.5-0.4,1-0.7,1.6-0.9c5.8-1.2,8.1-6.3,11.5-10.1c1.3-1.4,0.7-2.9,0.6-4.3
			c-0.5-7.4,6.5-15.8,13.7-17.2c4-0.8,6.3,1.2,8.4,4"/>
		<path class="st0" d="M130,86.8c1.4-2.1,1.7-4.7,2.2-7.1c1.4-7.9,5.2-14.9,8.3-22.1"/>
		<path class="st0" d="M403.9-68.4c0.4-4.5,0.6-9.1,1.2-13.6c0.4-2.8-0.1-5-2.5-6.4c-1.8-1.1-2.6-3-3.8-4.5s-2.9-2.5-5-1.3"/>
		<path class="st0" d="M123.9-101.9c2-4.6,1.1-9.2,0-13.9c-1.5-6.1-4.2-11.8-7.9-16.8c-0.2-0.3-0.1-0.9-0.1-1.4"/>
		<path class="st0" d="M49.2,82.3c-1.1-3-2.9-5.7-3.7-8.9c-1.2-4.7-8.2-9.4-12.8-9.1c-4.9,0.4-7.2,4.9-5.9,9.6s7.1,9.4,12,8.7
			c8.6-1.1,15.6,2.5,22.7,6c2.2,1.2,4.5,2.2,6.9,3"/>
		<path class="st0" d="M316.1,193c2.2-10,1.7-20,1.3-30.1"/>
		<path class="st0" d="M155.4,47.9c6.3-7.5,12.9-14.4,23.2-16.3c1.8-0.5,3.7-0.1,5.2,1"/>
		<path class="st0" d="M466.2-159.9c2.8,4.2,6.9,6.9,11.1,9.4c1.9,1.1,10.2,0.2,11.7-2c1.2-1.8,2.5-3.4,1.6-5.9
			c-1.3-3.7-4-5.5-7.5-6.3c-4.1-0.9-8.4-0.2-12,2.1c-4.8,3.2-9.7,2.5-14.7,2.4c-2.8,0-5.7-0.5-8.5,0.1c-4,0.8-6.9-2.3-10.4-3.1
			c-5.5-1.3-10.8-3.2-16.2-4.9c-0.7-0.3-1.3-0.8-1.9-1.3"/>
		<path class="st0" d="M290.1,39.2c-4.2-1.4-6.9-4.4-9.9-7.6c-3.6-4-8.4-7-13.1-9.6c-3-1.7-4-3.6-4.6-6.7c-1-5.2-2.5-10.5-9.3-10.9"
			/>
		<path class="st0" d="M177.7,84c-0.1-9.8,3.1-18.9,5.3-28.2"/>
		<path class="st0" d="M264.8-176.3c1.5,1.8,0.2,4,0.9,6.2c1.5,4.3,4.4,7.3,7,10.5c3.3,4.2,8.5,6.4,13.8,5.9
			c1.4-0.1,3.9-0.5,3.4,2.5"/>
		<path class="st0" d="M222,143c0.3-0.1,0.6-0.2,0.9-0.2c3.7,0.9,7.1-1.9,10.6-1.3s5,4.8,8.3,6c1.2,0.5,2.5,0.9,3.7,1.4
			c6.5,2.4,10-1,9.1-7.6c-0.3-2.2-0.3-4.1,1.8-5.9c1.6-1.4,1.7-4.1,3.4-5.8"/>
		<path class="st0" d="M322.5-22.1c9.1,2.6,18.4,3.1,27.8,3.4"/>
		<path class="st0" d="M175.8,27.1c8.1-2,16.2-4.5,24.8-4c1.6,0.1,3.7-0.3,4.4,1.9"/>
		<path class="st0" d="M331,85.3c1.5-0.4,3-0.5,4.5-0.3c5.5,1,10.7-0.8,15.7-2.4c7.8-2.5,9.2-9.4,9-16.4c-0.2-8.1-0.5-16.5-2.3-24.1
			c-2.5-10.8-8.6-20.4-17.3-27.2c-5.6-4.4-12.1-8-16.3-14.1"/>
		<path class="st0" d="M349.3-152.4c-1.5-2,0.5-3.5,0.9-5.1c2-7,3.2-14.2,3.5-21.5"/>
		<path class="st0" d="M259.6,162.7c7.3,0.9,14.1-0.7,20.7-3.8c5-2.3,10.2-4,15.1-6.5s8.3-6.7,11.9-10.6c3.8-4.1,6.8-8.9,9.8-13.6
			c3.9-6,4-12.9,3.5-19.7c-0.5-8.2,0.4-16.2,1.3-24.3c0.3-1.3,0.7-2.5,1.3-3.7"/>
		<path class="st0" d="M495.9-188.7c4.2-4.2,8.5-8.2,15.1-8.3c4.8-0.1,8.9,2.4,8.8,5c0,4,2.4,1,3.4,1.7"/>
		<path class="st0" d="M453.3-151c-1.7,4.3-3.3,8.6-2,13.4c1.3,5.1,5.4,8.8,8.9,7.6c4-1.4,6.6-7.5,4.7-11.8
			c-1.6-3.7-4.2-6.8-8.2-8.3c-4.7-1.8-7.6-5.1-9.7-9.4"/>
		<path class="st0" d="M208.2,140.9c1.2-4.6,3-8.5,8.3-10.1c4.2-1.3,4.2-5,3.7-8.8c-0.8-7.2,1.6-9.6,8.6-9.5"/>
		<path class="st0" d="M259.9,27.5c-4.8-2.5-7.6-6.2-6.4-11.9c0.8-3.6-0.5-7-0.6-10.4c0-1.7-1.3-2.7-2.7-3.4
			c-5.8-2.8-9.2-7.7-12.4-13c-2.8-4.6-5.7-9.3-11.1-11.2c-7-2.5-6.6-8.7-7-14c-0.2-2.9,3.7-4.6,6.8-4.9c9.1-0.6,18.3,0.4,27,3
			c3.1,0.9,6.6,2.5,10.1,0.9"/>
		<path class="st0" d="M334.4-105.6c6.2-1.8,11.6-5.4,16.6-9.4c3.8-3,6.1-7.3,5-12.5c-0.3-2.1-0.2-4.2,0.3-6.2
			c1.2-5.6,0.2-10.1-5.3-13.1c-1.2-0.6-1.9-2.2-2.8-3.3"/>
		<path class="st0" d="M188.6,169.1c3.6-7.1,8.5-13.7,10.8-21.5c0.2-0.6,1.1-0.9,1.6-1.4"/>
		<path class="st0" d="M241.4,158.6c-3.2,3.6-7.7,4.7-11.9,6.5c-1.4,0.7-3.1,0.5-4.4-0.4c-3.9-3.7-8.9-4.7-13.7-6.5
			c-6.5-2.4-9.1-7.4-9.5-14c-0.3-4-1.8-4.8-5.5-3.2c-0.2,0.1-0.4,0.2-0.5,0.3c-11.4,4.9-13.4,1.8-14.7-8.7
			c-0.7-6.2-1.8-11.4-6.1-16.5c-4.2-5.2-6.7-11.5-7.2-18.1c-0.3-3.4-2-4.6-4.6-5.6"/>
		<path class="st0" d="M107.6-7.9c8,1.2,16,2.9,23.8,5.1"/>
		<path class="st0" d="M382.2-6.7c9.3-3.6,15.4-11.1,21.6-18.4c1.5-1.9,2.8-4,3.8-6.2c3.5-7.4,10.6-12,14.3-19.2"/>
		<path class="st0" d="M225.2-93.1c-0.6-5.7-1.7-11.3-3.3-16.7c3.7-1.1,3.5-4.4,4.4-7.2"/>
		<path class="st0" d="M1.8,335.5c-1.1,2.3-3.2,4.1-5.7,4.8c-5.3,1.3-10.4,3.3-15.2,6.1c-2.5-3.8-4.7-7.2-7-10.7
			c-1.6-2.3-1.9-5-2-7.7c-0.4-6.9-2.7-14,1.5-20.7c2.4-3.5,5.5-6.5,9.1-8.8c2.7-1.9,5-3.4,5.1-7.3c0-2.2,2.8-3.7,3.3-6.3
			c1.1-6.3,1.5-12.6,1.1-19"/>
		<path class="st0" d="M87.6,143.4c0.7-2.5,3.3-2.7,5-3.6c7.1-3.4,14.4-6.4,21.6-9.5"/>
		<path class="st0" d="M389-160.8c5.8-0.6,11.6-1.8,17.1-3.7c5.1-1.7,10.4-2.8,15.8-0.6c0.7,0.2,1.4,0.1,1.9-0.4"/>
		<path class="st0" d="M263.8-215.1c-3.2,2.6-3.1,6.7-2.2,9.6c1.8,5.6,2.5,11.3,3.9,16.9c0.8,3.4,0.2,7.1,0.1,10.7
			c0,0.9-0.6,1.2-1.2,1.4c-9.7-4.6-10.2-14.7-13.5-23.1c-0.2-0.6-0.3-2-0.5-2.2c-5.4-6.8-0.9-12.3,2.3-17.9"/>
		<path class="st0" d="M304.6-229.5c1.6-8.3,6.7-14.8,11.6-21.3"/>
		<path class="st0" d="M178.9,164.9c3.8-5.9,8-11.5,11.3-17.7c0.7-1.3,0.3-2.4,0.7-3.4"/>
		<path class="st0" d="M75.5,195.4c0-8.1,4.5-14.1,9.9-19.4c4.8-4.8,11.2-7.8,16.1-12.6"/>
		<path class="st0" d="M419.2-118.7c-1.4-9.8-7.1-16.9-14.4-22.9"/>
		<path class="st0" d="M315.3,99.6c2.3-7.8,3.4-15.7,2-24.5c-2,1.2-1.7,2.7-2.2,3.8"/>
		<path class="st0" d="M248.2-40.3c3-7.1,4.5-14.7,6.4-22.1"/>
		<path class="st0" d="M359.7,54.4c7.3,2.3,14.8,3.1,22.3,3.8"/>
		<path class="st0" d="M122.2,199.9c0.4-3.4,2.7-5.5,5-7.8c3-2.9,5.8-5.8,10.2-6.3c1,0,2,0.1,3,0.3"/>
		<path class="st0" d="M153.7-70.7c-0.4,2.3,0.9,4.3,1.7,6.2c1.9,4.5,5.2,5.5,9.8,3.4c7-3.2,12.5-1,15.5,6.1c1.2,2.9,3,5.2,6,6.4"/>
		<path class="st0" d="M388.7-148.8c6.6,3.7,13.9,5.3,21.1,7.1"/>
		<path class="st0" d="M116.7,125.6c5.8,5.5,12.1,10.3,19.5,13.4"/>
		<path class="st0" d="M244,248.3c-2.9-6.5-2-13.5-2-20.2c0-5.2-0.5-10.1-3.7-14.3"/>
		<path class="st0" d="M301.4,90.8c0.8-7.4,0.8-14.9,0.2-22.3"/>
		<path class="st0" d="M387.9-186.7c5.7,1.1,11.5,1.1,17.1-0.1c1.1-0.2,3.2-0.6,4.1,1.3"/>
		<path class="st0" d="M305.4-32.7l20.2,5.1"/>
		<path class="st0" d="M383-152.9c9.7-9.8,7-21.3,3.5-36.2c4-0.1,4.9-3.3,6.2-6.1"/>
		<path class="st0" d="M130.3,185.4c-3.8-5.7-6.5-11.6-6.6-18.6c-0.1-1.4,0.4-2.8,1.5-3.7"/>
		<path class="st0" d="M72.5,332.1c1.3-0.2,2.2-1.4,2.1-2.7c0-0.1,0-0.2-0.1-0.3c-2-7.1,0-14,0.4-21"/>
		<path class="st0" d="M366.7-198.7c1.3,4.4,4.2,6.1,9.1,6.4c3.6,0.2,7.5-0.2,10.5,2.5"/>
		<path class="st0" d="M233.7,17.9c1.5-4.2,4.5-7.4,7.9-10.1c2.5-2,4.7-4,5.8-7.1"/>
		<path class="st0" d="M185.2,179c4.6-5.4,9.1-10.9,11.6-17.7"/>
		<path class="st0" d="M228.2,182.6c0.8-6.1,4-11.2,6.1-16.8c0.2-0.7,0.2-1.5,0-2.3"/>
		<path class="st0" d="M45.8,261.8c-5.2-6-5.6-13.1-5.1-20.5"/>
		<path class="st0" d="M132.2,90.5c-7.8-5.9-9.5-14.4-8.2-23.1c0.6-4,3.6-8,6.3-11.3c2.7-3.3,6-6.5,8.5-10.4
			c3-4.7,8.3-7.1,12.7-10.3c2.8-2.1,6.1-3.4,8.5-6.3c1.8-2.2,4.9-3.3,7.9-4c4.7-1,9.3-2.4,13.9-3.6"/>
		<path class="st0" d="M203.2,60.8c0.9-6.6,2.2-13.2,4-19.6"/>
		<path class="st0" d="M347.1,133.6c-2.8-8.3-7.2-15.7-12.2-22.8"/>
		<path class="st0" d="M341.2,128.5c-3.1-8.2-7.9-15.3-13.3-22.1"/>
		<path class="st0" d="M338,105.3c-5.3-4.8-10.1-10.4-16.7-13.6"/>
		<path class="st0" d="M267.1-11.8c5.8-5.7,12.7-10,20.2-12.8"/>
		<path class="st0" d="M343.8-152c3.1-5.7,4.8-12,5.1-18.4"/>
		<path class="st0" d="M380.6,74.8c5.7,3,11.8,5.1,18.1,6.3"/>
		<path class="st0" d="M127.5,82.2c2.3-6,3.4-12.4,6.8-18"/>
		<path class="st0" d="M297.5,188.3c1.8-5.4,2.2-11.1,3.3-16.6c0.2-1,0.1-1.6-0.9-2"/>
		<path class="st0" d="M272.7-34.2c0.2-6.4,0.4-12.7,0.8-19.1c0-1.8,0.6-3.5,1.6-4.9"/>
		<path class="st0" d="M-22.3,208.5c0.2-2.5,2.8-3,3.9-4.8c2.4-3.9,3.8-8.3,4.1-12.9"/>
		<path class="st0" d="M306.1-174.9c-1.8-0.6-1.5-2-1.4-3.5c0.2-3.5-1.9-5.4-5-6.7c-7.6-3.2-14.1-7.6-16.6-16.2
			c-0.4-1.1-0.5-2.2-0.5-3.3c0.7-8.5,3.1-16.5,5.7-24.5"/>
		<path class="st0" d="M184.7,13.2c3.7,4.8,3.8,4.9,9,3.1c3.5-1.2,7-0.3,10.4-0.4c4.1,0,7.8-1.5,11.7-2.1c1.1-0.1,2-0.7,2.6-1.6
			c3.3-5.5,6.8-10.8,8.3-17.2"/>
		<path class="st0" d="M23.5,141.6c1.5-1.1,3.3-2,4.4-3.4c5.4-7.1,12.8-12.5,21.3-15.2c0.3-0.1,0.5-0.7,0.8-1.1"/>
		<path class="st0" d="M267.8,181.8c1.4-6.2,1.9-12.5,1.6-18.9"/>
		<path class="st0" d="M389.2,115.5c5.6,2.4,11.2,5,17.3,6.1"/>
		<path class="st0" d="M316.4,75.3c-3.1-4.4-5.4-9.5-10.5-11.9c-3.4-1.7-7.1-2.8-10.4-4.9c-8.5-5.4-9.5-14.8-2.1-22"/>
		<path class="st0" d="M325.6,155.1c-1.3-7.3-4.2-14-7.4-20.7"/>
		<path class="st0" d="M265.1-37.9c1.5-5.9,3.1-11.7,8-15.9"/>
		<path class="st0" d="M11.9,256c-1.2,1.9-1,3.6-0.2,5.8c1.8,4.8,4.1,8.8,9.1,10.7"/>
		<path class="st0" d="M333.9-153.6c3.9,1,8.1,1.3,11.6,3.8c1.3,0.9,6.8-2.7,6.9-4.5c0.3-6.1,3.5-11.8,3.2-18"/>
		<path class="st0" d="M292.3,98.4c2-5.9,1.8-12.1,2.7-18.1"/>
		<path class="st0" d="M235.8,141.5c3.2-3.8,7.4-2.5,11.3-2c2.4,0.3,4.7,0.6,6.9-0.6"/>
		<path class="st0" d="M404.9-250.9c-6.6,2-8.1,8.4-11.2,14.1c-2.3-3.6-0.3-6.4,0.6-8.6c3.1-7.6,3.4-7.5,11.5-5.6
			c6.1,1.4,11.6-1,16.4-3.8c3.3-1.9,7.8-3,9.7-7.2"/>
		<path class="st0" d="M434.3-109.2c-4.8-4.2-11.1-4.6-16.6-6.9"/>
		<path class="st0" d="M114.3,199.3c-0.1-0.9-0.5-2.1-0.1-2.7c4.2-7.1,2.8-14.1,0.5-21.5c-2.1-6.7-6.4-11-12.2-14.2"/>
		<path class="st0" d="M231.2,113.5c5.9,3,11.8,2,17.8,0.4"/>
		<path class="st0" d="M190.6,346.9c0.8-6,0.3-11.9,0-17.9"/>
		<path class="st0" d="M181.9,74.3c1.9-7.6,3.4-15.3,6.5-22.5"/>
		<path class="st0" d="M485.5-195.7c7,0.4,12.6-2.9,17.4-7.4c3.2-2.9,7.5-4.4,9.9-8.2c0.2-0.3,1.4,0,2.1,0.1"/>
		<path class="st0" d="M97.8,73.8c7.3-2.4,13.6-6.8,20.4-10.1"/>
		<path class="st0" d="M128.8,27c2.6,2.4,5.8,2,9,1.8c2.7-0.2,5.5,0,7.5,2.3"/>
		<path class="st0" d="M72.7,195.6l2.8,0.2c-0.9,6,3,11.7,1.2,17.8c-0.7,2.5-0.1,4.3,1.5,6.3c3.2,4,7,1.3,9.7,0.3
			c5.9-2.2,11.4-5.6,17.1-8.5c1.2-0.6,2.1-1.6,2.6-2.9c0.8-1.7,2.4-2.8,4.2-3"/>
		<path class="st0" d="M297.3,178.4c2.5-8.9,4-17.8,1.4-27"/>
		<path class="st0" d="M375.9-4.7c3.5,2.3,7.8,1,11.5,2.4c1.6,0.5,3.3,1,5,1.3"/>
		<path class="st0" d="M244.4-41.2c2.3-5.2,3.1-10.9,4.5-16.3"/>
		<path class="st0" d="M222.6-52.5c1.1-5.7,0.1-11.4-0.2-17.1"/>
		<path class="st0" d="M123.1,119.6c4.6,3.9,8.9,8.1,14.3,10.8"/>
		<path class="st0" d="M188.3,338.2c0.3-5.5-0.2-11-1.3-16.4"/>
		<path class="st0" d="M133.9-77.4c0-5.3,1.8-10.3,3-15.4"/>
		<path class="st0" d="M392.8-111.5c2.4-1.3,4.9-0.9,7.3-0.4c5.2,1.1,10.5,2.2,15.8,3.1c2,0.3,3.8,1.7,5.6,2.6
			c1.5,0.8,1.9,2.4,0.9,3.3c-3.9,3.4-1.8,6.9,0,9.8c1.7,2.6,1.1,4.2,0.2,6.9c-1.6,5-4.2,9.9-3.5,15.7c0.5,4.3-2.5,7.6-6,10.1"/>
		<path class="st0" d="M109.1-10.2c5.4-0.4,10.2,2,15.4,3"/>
		<path class="st0" d="M116.4,100c4,4.9,7.4,10.2,12.6,13.9"/>
		<path class="st0" d="M103.5,167.5c-3.8-6.3-1.3-16.7,4.8-21.2c1.6-1.4,2.9-3,3.9-4.8c1.6-2.4,3-4.9,4.6-7.4"/>
		<path class="st0" d="M225.9,127.4c1.3-4.8,0.4-10,3.3-14.4c3.4,0.8-0.1,2.5,0.3,3.7"/>
		<path class="st0" d="M230.8,7.7l10.8-12.5"/>
		<path class="st0" d="M67.8,109.7l-2,0.9c-3.4-5.2,0.9-10.1,0.6-15.1"/>
		<path class="st0" d="M304.2-45.5l15.4-0.6"/>
		<path class="st0" d="M128.7-95.7c0.3-5,0.7-10,1.1-14.9"/>
		<path class="st0" d="M402.7,72.3c4.2,1.1,8.4,0.3,12.5-0.1c0.9,0,1.8,0.1,2.6,0.3"/>
		<path class="st0" d="M171.8,68.2c0.6-5,3.4-9.3,4.4-14.1"/>
		<path class="st0" d="M405.7-27.3l13.3,6"/>
		<path class="st0" d="M276.5-33.2c4.8-3.7,10.7-6.1,14.4-11.2"/>
		<path class="st0" d="M226.8-92.2c2-2,2.3-3.9,1.5-6.9c-0.9-3.3-0.3-7,0.6-10.5c0.4-1.6,1.2-3.2,0.3-4.8"/>
		<path class="st0" d="M361.2-3.5c1.4-1.1,3.1-1,4.7-1c4.1-0.1,8.2,0.1,12-1.5c3.6-1.5,6.7,0.8,10,1.2"/>
		<path class="st0" d="M211.8,14.2L209-1.3"/>
		<path class="st0" d="M290.1,210.7c2.7-4.1,2.9-8.8,3.4-13.5"/>
		<path class="st0" d="M173.8,346.2c-0.8-5-1.7-10-2.5-15"/>
		<path class="st0" d="M159.9,344.6c-1.3-5-3.1-9.9-3.4-15.2"/>
		<path class="st0" d="M172.3,352.2c-1.1-5.1-2.2-10.1-3.4-15.2"/>
		<path class="st0" d="M144.8,140.3c4,2.9,9.1,2,13.5,3.4"/>
		<path class="st0" d="M264.5,120c1.1-4.5,3.6-8.6,4.2-13.3"/>
		<path class="st0" d="M270-9.3c3.5-4.5,8.2-7.7,12.6-11.2"/>
		<path class="st0" d="M147.2-12.3c-3.4-3.1-7.4-5.5-11.6-7.4"/>
		<path class="st0" d="M301.6-155c3.1-3.6,6-7.3,6.6-12.2"/>
		<path class="st0" d="M238.3-24c4.8-2.9,10-5.1,15.5-6.4"/>
		<path class="st0" d="M241.3,173.4c2.1-4,3.6-8.3,4.5-12.8"/>
		<path class="st0" d="M-57.3,310.8c-0.3-2.1,2.4-2.1,2.8-3.7c-3.6-1.5-7.5-1.1-11.2-2"/>
		<path class="st0" d="M322.9-20.2c4.1,1.3,8.6,1.6,12.5,3.6"/>
		<path class="st0" d="M136.3,227.7c1.4-4.2,1.3-8.6,1.9-13"/>
		<path class="st0" d="M231,3.3c2.6-3.7,5-7.6,7-11.7"/>
		<path class="st0" d="M176.1,340.6c-0.9-4.7-1.8-9.4-2.7-14.1"/>
		<path class="st0" d="M158,323.5c-0.4-4.6-1.7-9-1-13.7"/>
		<path class="st0" d="M209.6,242.4c-3.8-3.3-7.4-6.9-10.7-10.8"/>
		<path class="st0" d="M301.2-37.3l12.4,4"/>
		<path class="st0" d="M164.9,292.1c-0.1-4.7-0.7-9.3-1.9-13.9"/>
		<path class="st0" d="M277.6-189.7c1.6-3.9,0.8-8.7,4.3-11.9"/>
		<path class="st0" d="M203.6,1.8c-2.2-2.6-3.9-5.6-5-8.8c-2.6-8-8.5-14.3-11.4-22.1"/>
		<path class="st0" d="M-45.5,190.2c4.2-2.7,8.8-2.5,13.5-2"/>
		<path class="st0" d="M205.6,247.7c-3.5-3.5-6.8-7.3-9.7-11.4"/>
		<path class="st0" d="M364.8-164.2c0.1-4.3,1.9-8.2,2.6-12.3"/>
		<path class="st0" d="M118.1,220c-0.7-0.3-1.6,0-2-0.9c-1.9-3.8-5.2-6.2-8.6-8.4"/>
		<path class="st0" d="M199.6,139.6c1.6-2.6,3.9-4.8,6.6-6.3c1.5-0.9,3.5-0.7,4.7,0.6"/>
		<path class="st0" d="M290.1-175.3c1.3-4,1.5-8.3,3.5-12.1"/>
		<path class="st0" d="M194.3,153.5c1.4-2.8,1.9-5.9,3.8-8.5c0.6-0.8,0.4-2.3,0.5-3.4"/>
		<path class="st0" d="M157.3,58.3c2.5-4.1,6.3-6.9,9.7-10.1"/>
		<path class="st0" d="M230-3.2l5-11.3"/>
		<path class="st0" d="M207.3,244.5c-3.6-3.3-6.9-6.8-9.9-10.5"/>
		<path class="st0" d="M-30.2,207.9c-4.3,0.3-8.5-0.3-12.8,1.8c-2.2,1.1-2.2,2.9-3.6,4.1c-5.4,4.3-11.4,7.8-17.7,10.6
			c-4.5,2-6.1,5.8-6.9,10c-0.9,5.1,2.8,7.6,7.9,5.6"/>
		<path class="st0" d="M159.1,265.6c0.2-4.1-0.8-8.3,1.7-12.1"/>
		<path class="st0" d="M115.3,123.9c-4.1-5.9-5.9-12.5-6.3-19.5c-0.1-0.5-0.3-1-0.5-1.5"/>
		<path class="st0" d="M172.8,214.4c-4.9-4.7-6-11.1-7.7-17.2c-0.2-0.9,0.5-2.3,1.2-3.2c3-4.2,3.6-9.3,5.2-13.9"/>
		<path class="st0" d="M153.1-14.4l10.7,7.2"/>
		<path class="st0" d="M280-88.3c2.1-3.9,5.1-7.2,8-10.5"/>
		<path class="st0" d="M-15.2,213.9c-3.4,1.8-6.5,0-9.7-0.6c-1.7-0.3-3.4-0.8-5.1-1.3"/>
		<path class="st0" d="M429.4-263.1c2.2,0.7,3.5,0.8,5.2-1.8c2.5-3.8,4.4-7.5,4.5-11.9c0.2-6.6,3.9-12.6,3.5-19.3
			c-0.2-3.2,0.8-6.7-2.5-9.3c-0.9-0.8-2.1-1.2-3.3-1.2"/>
		<path class="st0" d="M437.1-209.7c-0.5-5.3,0.5-10.4,1.5-15.6c-4-1.8-5.9,0.2-6.9,3.5c-0.5,1.7-1.4,3.4-2.6,4.7"/>
		<path class="st0" d="M226.7,256.6l-9-10.3"/>
		<path class="st0" d="M153.2,28.1c-1.9-2.7-6.8-4.1-10-3"/>
		<path class="st0" d="M289.2,21.5l6.1-10.1"/>
		<path class="st0" d="M491.1-203.7c2.8,0.8,5.5-0.5,8.2-0.6c1.2-0.1,2.5-1,3.5,0.4"/>
		<path class="st0" d="M362.5-156.7c4.2,0.7,8.6-0.8,12.9,1.1c0.5-1.9,2.3-2.9,2.4-4.9"/>
		<path class="st0" d="M273.7,151c3.5-3.2,8.7-4.3,11.2-8.9"/>
		<path class="st0" d="M169.8,355.1c0.3-2.7-0.7-5.2-1.7-7.6c-0.9-2.1-1.8-4.2-1-6.5"/>
		<path class="st0" d="M115.7,204.6c0.6,2.3,1,4.7,3.4,5.8c5.4-1.8,6-2.5,6.1-8.3"/>
		<path class="st0" d="M321.3-151.4l11.8-2.4"/>
		<path class="st0" d="M224,124.3c1.1-3.5,1.2-7.2,1.4-10.9"/>
		<path class="st0" d="M227.3,261.3l-8.4-9.3"/>
		<path class="st0" d="M390.5-61.1c3.3-1.3,6.5-2.6,9-5.3c1-1,2.8-1.4,4.4-1.6c4-0.6,8.8-4.3,10.1-8.3"/>
		<path class="st0" d="M183,348.6c-1,2.7,0,5.6-1.1,8.2c-0.2,0.8,0.3,1.6,1.1,1.8c0.2,0,0.4,0,0.6,0"/>
		<path class="st0" d="M274.6-192.2c1.4,2.4,4.3,3.7,4.7,7.2c3.7-3.1,2.4-7.6,4.6-10.7"/>
		<path class="st0" d="M235,24.9c3-3.5,6.8-4.1,11.2-3.5c2.4,0.2,4.8,0.2,7.2,0.1"/>
		<path class="st0" d="M347.1,36.9c0.1-3.8-0.5-7.6-1.7-11.2"/>
		<path class="st0" d="M289.2-7.2c3.4-3.1,7.7-4.7,11.9-6.4"/>
		<path class="st0" d="M-28.6,208.7c3.6-0.9,6.9,1.3,10.4,1.3c2.2,0,4.9-0.9,6.2,2"/>
		<path class="st0" d="M70.3,319.5l-0.4-10.8"/>
		<path class="st0" d="M399.5-256.3c1.3,0.2,1.3-1,1.9-1.8c1.3-1.8,2.8-3.4,4.4-4.9c4.9-5.1,11.5-8.6,15.3-14.5c2-3,3.4-6.4,4.2-10"
			/>
		<path class="st0" d="M280.7-184.4c0.4,0.9,1,1.7,1.6,0.4c1.3-2.8,2.4-5.7,3.5-8.5"/>
		<path class="st0" d="M157.7-68.7c-1.1-1.5-2.9-2.4-4.7-2.4c-5,0.2-6.6-3.4-7.6-7c-1.1-3.9-2.4-8-0.6-12.2"/>
		<path class="st0" d="M252.4,168.1c0.9-2.9,1.8-5.8,2.6-8.7c1.3-4.5,4.3-8.2,8.4-10.4c0-2.9-0.9-4.9-4.3-4.3"/>
		<path class="st0" d="M161.5,107.7c1.7-3.1,3.1-6.4,5.8-8.9"/>
		<path class="st0" d="M390.1-102.4c3.5-0.8,6,2.3,9.2,2.7"/>
		<path class="st0" d="M272.9-199.4l2.3-9.3"/>
		<path class="st0" d="M416.6-169.2c4-2.1,8.8-2.5,12.5-5.4"/>
		<path class="st0" d="M220.2,153.7c1.6-2.9,3.2-5.8,4.9-8.6"/>
		<path class="st0" d="M398.7-194.2c5.5-2.8,10.7-0.4,15.9,0.8"/>
		<path class="st0" d="M144.8-106.5l9,3.6"/>
		<path class="st0" d="M269.7-186.7c3.1,0.5,6.1,2.1,9.4,1.9"/>
		<path class="st0" d="M160.2,186.2c1.2,3.5,1.8,7.4,4.6,10.1"/>
		<path class="st0" d="M227.6,174.4c0-3.3,3.5-5.6,2.7-9.2"/>
		<path class="st0" d="M200.5,36c0.2-1.9,1.7-2.9,2.8-4.3c0.9-1.1,2.3-2.2,1.5-4.1"/>
		<path class="st0" d="M409.2-111c2.9-2.9,7.2-3.7,9.8-6.9c0.7-0.9,1.8-0.5,2.7-0.2l6.7,1.7"/>
		<path class="st0" d="M121.5,226.2c-3.9-4.8-3.7-10.4-3.2-16"/>
		<path class="st0" d="M322.8-0.1c-2-2.1-4.1-4-5.6-6.7c-1.1-1.9-1.7-3.5-1.2-5.6"/>
		<path class="st0" d="M265.8-172.9l9,1.8"/>
		<path class="st0" d="M305.4-188.1c2.8-2.4,5.3-5.3,8.9-6.7"/>
		<path class="st0" d="M210.5,145.9c1-3.1,3.2-5.5,4.8-8.2"/>
		<path class="st0" d="M125.5,53c3.9-1,6.4-4.9,10.6-4.9"/>
		<path class="st0" d="M319.8-150.9c3.2-3,1.4-6.9,1.7-10.3"/>
		<path class="st0" d="M202.1-202.7c-1.2,5.3-2.5,10.6-0.5,16.1c0.6,1.7,0.9,3.3,2.6,4.2"/>
		<path class="st0" d="M31.9,262c4.1-4.6,5.5-9.6,1.8-15l5.8-4.6"/>
		<path class="st0" d="M319.7-18.4c2.8,0.9,5.8,0.9,8.3,2.5"/>
		<path class="st0" d="M353.2-153.7c2.5-1.1,5-2.1,7.5-3c0.8-0.2,1.3,0,1.6-1c1.4-5.1,5.4-8.9,6.6-14"/>
		<path class="st0" d="M229.4,256.3c-2-3-5.2-5.2-5.8-9.1"/>
		<path class="st0" d="M268.5-212.5c-1-1.8-3.8-2.7-3.1-5.2c0.5-2-1.2-4.7,1-5.9c2.6-1.3,5.3,0.1,7.6,1.4c2.1,1,3.9,2.5,5.2,4.3
			c1,1.4,2.6,2.3,4.3,2.5"/>
		<path class="st0" d="M296-139.8c3.4-1,5.8-4.2,9.6-4.3"/>
		<path class="st0" d="M18.3,150.2c0.5-0.8,1.3-1.5,1.4-2.3c0.2-2.1,3.6-4,1.8-5.6s-4.8-2-7.5-1.6c-2.1,0.3-4.3-1.7-6.3,0.1"/>
		<path class="st0" d="M256.1,28.4c-1.9-2.5-5.7-3-7-6.2"/>
		<path class="st0" d="M390-164.6c3.9,0.6,6.3-3,9.8-3.4"/>
		<path class="st0" d="M317.2,6.1c0.8-2.8,1.1-5.8,3-8.2"/>
		<path class="st0" d="M-44.9,232.4c3.1-0.6,6.1-1.7,8.9-3.2"/>
		<path class="st0" d="M416.8-41.1c3.3,1.9,7.5,1.6,10.6,4"/>
		<path class="st0" d="M177,272.8c-2.2-2.4-3.7-5.4-4.1-8.6"/>
		<path class="st0" d="M197.2,315.4c-2.9-2.3-1.4-6-2.7-8.8"/>
		<path class="st0" d="M299.9-207.3l1-11"/>
		<path class="st0" d="M136.9,213c3.2-2.4,2.1-6.4,3.7-9.4"/>
		<path class="st0" d="M183.7,373c-1.6-2.9,0.4-5.6,0.7-8.3"/>
		<path class="st0" d="M15.1,105.5c0.4-2.7,2.1-5.3,1.2-8.2"/>
		<path class="st0" d="M359.1,46.1l8,0.2"/>
		<path class="st0" d="M359.3,48.9c2.6,0.6,5.1,1.5,7.8,1.1"/>
		<path class="st0" d="M129.5,47.7c3.1-0.5,5-4.4,8.8-2.7"/>
		<path class="st0" d="M173.7,126.9l4-7"/>
		<path class="st0" d="M143.4,185.1c2-2.1,4.5-0.4,6.3,0c6.3,1.3,12.7,0,18.9,1.4"/>
		<path class="st0" d="M256.8,20.1c-1.4-2.5,0.3-5.1-0.3-7.7"/>
		<path class="st0" d="M303.7-183.1c1.9-5.1-0.1-9.8-1.3-14.6c-0.6-2.6-0.5-5.3-1.9-7.8c-0.6-1.2-1.7-1.1-2.3-1.8"/>
		<path class="st0" d="M83.9,215.4l14.6-15.2"/>
		<path class="st0" d="M261.9,144.5c1.1-5.1,5.2-8.1,8.3-11.8c0.5-0.6,1.2-0.1,1.8,0"/>
		<path class="st0" d="M428.1-215.1c0-3.2,0.5-6.4,1.5-9.5"/>
		<path class="st0" d="M-23.8,191.1c2.2,1,4.7,3.5,6.1-1"/>
		<path class="st0" d="M291.6-170.5c0.3,1.4-1.8,2.2-1,3.8c3.6-1.4,3.6-1.4,4.4-6.5"/>
		<path class="st0" d="M-58.9,220.4c-5.4-5.9-5.2-10.8,0.6-18.6"/>
		<path class="st0" d="M-66.9,234.5c5,1,10.1,2.1,15-0.7c0.7-0.4,2,0.1,3,0.2"/>
		<path class="st0" d="M243.5-144.9l3-6.4"/>
		<path class="st0" d="M222.1,146.2c0.6-4.9-4.3-5.5-6.5-8.3c-0.9-1.2-2.5-1.9-3.7-2.8"/>
		<path class="st0" d="M179.3,148.9c1.2-2.1,1.9-4.5,3.8-6.2"/>
		<path class="st0" d="M295.7,161.5c0.2-2.4-0.5-4.7-0.9-7"/>
		<path class="st0" d="M199.8,156.7c0.6-2.1,0.7-4.4,2.4-6.1"/>
		<path class="st0" d="M125.8,155.2l8.2,3"/>
		<path class="st0" d="M279.8-166.3l10.8,1.8"/>
		<path class="st0" d="M215.1,13.3l1.6-6.3"/>
		<path class="st0" d="M300.9-30.7c2.5-0.6,4.2,1.1,6.2,2"/>
		<path class="st0" d="M419.5-68.1l6.4,1.2"/>
		<path class="st0" d="M-28.6,199.8l1.9-1.8c-1.6-2.3-3.2-1.3-5-0.4c-1.9,1-3.6,2.7-6,2.5"/>
		<path class="st0" d="M286.4-49.5c3.2-2,6.7-1.8,10.2-1.5"/>
		<path class="st0" d="M279.1-188.4c2.2-1.5,1.5-4.1,2.4-6.1"/>
		<path class="st0" d="M422.6-83.9c2.2,0.3,4.2,1.5,6.4,1.2"/>
		<path class="st0" d="M170.8,122.1c1.8-1.6,2.5-3.8,3.7-5.8"/>
		<path class="st0" d="M-43.6,209.5c0.6-2-0.6-4.2,0.9-6.3c-1.8,0.2-3.3,0.6-4.7-0.1"/>
		<path class="st0" d="M248.2-158.1c0.4-2,0.7-4,1.1-6"/>
		<path class="st0" d="M143.4-101l5.9,1.5"/>
		<path class="st0" d="M-54.6,203.1l-3.4-0.9c2.4-8.3,8.9-12.3,16-10.3"/>
		<path class="st0" d="M142.3,98.4l0.2-6.2"/>
		<path class="st0" d="M-9.9,318.2c1.8-3.7-1.3-5.7-2.8-8.3"/>
		<path class="st0" d="M311.2,147.9c-0.3-2.3-1.2-4.5-2.4-6.4"/>
		<path class="st0" d="M423-103.5l5.5,1.4"/>
		<path class="st0" d="M66,308.1c3.7,0,7.5,0.8,10.9-0.9c2-1,2.9,0.6,4.4,0.7"/>
		<path class="st0" d="M391.2-190.7c3.7-1.3,7.5-2,11.3-0.3"/>
		<path class="st0" d="M289-168.9c-1.2-5.2-4.4-9.3-7.4-13.5"/>
		<path class="st0" d="M238.1,21.6c-5.7-4.8-12.6-6.7-19.6-8.5"/>
		<path class="st0" d="M100.7,198.1c2.4-2.9,2.4-6.6,3.4-9.9"/>
		<path class="st0" d="M171.2,42c1.5-1.9,3.4-2.7,5.8-1.7"/>
		<path class="st0" d="M189.8-171.7c-0.1-2.5-3.4-3.4-3-6.1"/>
		<path class="st0" d="M254.9-127.7c0.6-1.8,0.6-3.8,1.8-5.4c2.3,1.2,0.2,2.8,0.3,4.1"/>
		<path class="st0" d="M404.3-25.4c1.6,1.2,3.6,1.2,5.4,1.8"/>
		<path class="st0" d="M167.3,290c-0.9-3.5,1.5-7.6-1.8-10.7"/>
		<path class="st0" d="M109.7,115.8c-5.7,1.6-10.9-0.3-15.9-2.6"/>
		<path class="st0" d="M242.5,164.7l1.4-5.5"/>
		<path class="st0" d="M326.2,109.5c-1.7-1.4-2.1-4.1-4.7-4.3"/>
		<path class="st0" d="M298.4-34.9c2-0.4,3.7,0.6,5.6,1"/>
		<path class="st0" d="M186.7-178.9c-1.4-2.1-2.8-4.3-4.2-6.4"/>
		<path class="st0" d="M412.4-255.7c1.6,0.6,3.5,0.4,5,1.7"/>
		<path class="st0" d="M-13.6,329.3c2.8-2.1,2.7-5.6,3.9-8.4"/>
		<path class="st0" d="M426.2-287.7c1.7-2.8,2.9-5.8,3.6-8.9c0.7-3.6,4.2-5.6,5.3-9"/>
		<path class="st0" d="M252.1-39.7l1.7-5"/>
		<path class="st0" d="M419.5-198.4h5.4"/>
		<path class="st0" d="M128,155.3c-0.6-2-2.6-2.7-3.9-4.1"/>
		<path class="st0" d="M298.6-219.7c1,0.7,1.8,2.3,3.4,0.8c-0.7-4,0.2-7.4,3.8-9.7c1.2-0.8,1.1-2.2,2.1-3.1"/>
		<path class="st0" d="M47.3,277.4c2.9-1.6,4-5.6,7.8-6.1"/>
		<path class="st0" d="M335.1,16.9c0.5-1.7-1.2-3.9,1.3-5.1"/>
		<path class="st0" d="M-68.5,316.1c-0.5-1.4,1.1-4.8-2.8-3"/>
		<path class="st0" d="M139.1,177.3c0.7-1.6,2.1-2.9,2.1-4.9"/>
		<path class="st0" d="M194.7,352c-2.1-0.9-2.4-2.5-1.6-4.4"/>
		<path class="st0" d="M214.2,20.6c1.7,0.6,3.7-1.1,5.2,0.8"/>
		<path class="st0" d="M136.2,81.6c-2.1,2.6-2.3,6-3.4,9c-0.6,1.7,1,3.7,3.2,4.4"/>
		<path class="st0" d="M418.4-65.3l5.1,1.3"/>
		<path class="st0" d="M399.4-107.6c-2.5-1.4-5.5-0.6-7.9-2.7c-0.8-0.7-2.9,0.6-4,2"/>
		<path class="st0" d="M293.2,62.8c0.6-1.7-1.3-3.6,0.4-5.3"/>
		<path class="st0" d="M185.4,364.4c-2.5-2.2-0.6-4.9-0.8-7.4"/>
		<path class="st0" d="M279.4-211.1c0.6-1.6,1.1-3.3,1.7-4.9"/>
		<path class="st0" d="M326,99.6c-1.7-0.9-2.3-3.2-4.5-3.4"/>
		<path class="st0" d="M269.3-206.5c0.5-1.7-0.5-3.1-0.6-4.6c-0.1-0.7,0.4-1.4,1.1-1.5c0.1,0,0.1,0,0.2,0"/>
		<path class="st0" d="M325.2,103c-1.6-0.6-1.9-3.2-4.2-2.8"/>
		<path class="st0" d="M181.6,275.7c1.2,1.2,2.1,2.9,4.2,2.8"/>
		<path class="st0" d="M144.1-98.2l4.6,1.2"/>
		<path class="st0" d="M185.7,148.7c0-1.6,1.9-2.8,1.2-4.6"/>
		<path class="st0" d="M414.1-39.5l4.6,1.2"/>
		<path class="st0" d="M127.9-117.5c0.2-3.2-2.8-5.1-3.4-8"/>
		<path class="st0" d="M-15.2,278.4c2.4,0.4,2.7-2.3,4.3-3"/>
		<path class="st0" d="M228.2,250.7c-0.5-0.6-0.8-1.4-1.4-1.6c-3.2-1.5-4.8-4.4-6.2-7.4"/>
		<path class="st0" d="M142.7,177.3c0.5-1.5,1-3,1.6-4.5"/>
		<path class="st0" d="M416.3-62.2l4.6,1.2"/>
		<path class="st0" d="M113.8,95.8c-0.8-1.5-0.5-3.9-3-4.3"/>
		<path class="st0" d="M427.3-93.9c-1.5-0.5-2.8-1.8-4.6-1.2"/>
		<path class="st0" d="M356.9-155.9l1.1-4.2"/>
		<path class="st0" d="M256.8-133.5c1.2-1.1,0.9-2.8,1.5-4.1"/>
		<path class="st0" d="M123.9,245.1c0.8-1.3-0.4-3.2,1.5-4.1"/>
		<path class="st0" d="M240.5,1.3l3.2-3.7"/>
		<path class="st0" d="M406.1-196.9c6.7-2.6,11.8-7.5,17.3-11.8c0.8-0.6,0.6-1.4,0.9-2"/>
		<path class="st0" d="M135.3,194.3c-0.6-1.5,0.5-2.9,0.6-4.3"/>
		<path class="st0" d="M360.9,71.3l3.9,2.3"/>
		<path class="st0" d="M357.1-124.5c1.5,0.3,3-0.6,4.4,0.2"/>
		<path class="st0" d="M258.7-132.1c1.6-0.6,2.6-2.1,2.7-3.8"/>
		<path class="st0" d="M207.2,30.5c0.5-1.4,1-2.7,1.5-4.1"/>
		<path class="st0" d="M290.2-50.4c1.1,1.2,2.8,0.9,4.1,1.5"/>
		<path class="st0" d="M224.2,152.1c0.1-1.7,1.4-2.7,2.3-3.9"/>
		<path class="st0" d="M293.9-161.8l-0.9,2c-2.5-1.6-2.4-3.8-1.6-6.2"/>
		<path class="st0" d="M259.5-133.7c-0.6-1.6,0.5-2.9,0.6-4.3"/>
		<path class="st0" d="M308.5-21.6c1.2-2.1,2.7-0.3,4.1-0.3"/>
		<path class="st0" d="M268.8-194.1c1.5-0.1,2.7,1.9,4.3,0.6"/>
		<path class="st0" d="M370.2-67.9c0.4-2.2,2.3-2.4,3.9-3.1"/>
		<path class="st0" d="M392-99.2c1.5-0.6,2.9,0.5,4.3,0.6"/>
		<path class="st0" d="M183.3,147.2c0.2-1.4,0.8-2.6,1.8-3.6"/>
		<path class="st0" d="M414.9-114.1l3.7,1.4"/>
		<path class="st0" d="M273.6-195.1c1.1-3.1-2.7-4-2.8-6.5"/>
		<path class="st0" d="M193.4,15.8c-0.7-1.5-1.3-3-2-4.5"/>
		<path class="st0" d="M227,169.8l1-3.8"/>
		<path class="st0" d="M422.9-201.2l3.8,1"/>
		<path class="st0" d="M220.6,134.2c0.1-1.3,1.3-2.6,0.1-4"/>
		<path class="st0" d="M223.6,168.9c0.5-1.2,0.9-2.5,1.4-3.7"/>
		<path class="st0" d="M422-81.4l3.8,1"/>
		<path class="st0" d="M183.4,324.1c1.2-1,1-2.4,1.4-3.7"/>
		<path class="st0" d="M-54.1,215.8l1-3.9c-2.8,0-2.7,2.5-4,3.6"/>
		<path class="st0" d="M144.3-95.4l3.8,0.9"/>
		<path class="st0" d="M142.9-104.3l3.9,0.5"/>
		<path class="st0" d="M139,97.1c0.4-1.2,0.9-2.5,1.4-3.7"/>
		<path class="st0" d="M119.9,132.3c-1.1-0.8-1.9-2.1-3.5-2.2"/>
		<path class="st0" d="M338.3,18.5l1-3.8"/>
		<path class="st0" d="M125.9,78.2c1.1-0.8,0.8-2.2,1.3-3.3"/>
		<path class="st0" d="M512.9-212.2c1.7-2.4,2.2-4.9,0.5-7.5"/>
		<path class="st0" d="M489.6-174.6c-1.1-2.2,0.2-4.1,0.6-6.1"/>
		<path class="st0" d="M333.3,7.9c0.9-1.1,2.2-1.9,3.7-2.2"/>
		<path class="st0" d="M417.3-43.2l3.4,0.8"/>
		<path class="st0" d="M266.5-199.1l-3.1-2.1"/>
		<path class="st0" d="M-31.5,196.8c-0.8-1.1-2.2-0.8-3.3-1.3"/>
		<path class="st0" d="M274.2-81.3c1.9,0.1,1.6-1.6,2-2.6"/>
		<path class="st0" d="M303.9,66.3l0.4-3.5"/>
		<path class="st0" d="M273.8-83.6c1.1-0.8,0.8-2.2,1.3-3.3"/>
		<path class="st0" d="M261.1,137.1l3.5,0.4"/>
		<path class="st0" d="M350.7,87c-0.8-1-2.4-1.4-1.9-3.2"/>
		<path class="st0" d="M408-263.5l6,1"/>
		<path class="st0" d="M253.3,154l3.4,0.8"/>
		<path class="st0" d="M107.1,86.9c0.8-1.7,2.1-0.7,3.3-0.5"/>
		<path class="st0" d="M349.2-14.5c0.5-1.8,1.7-1.4,3-1"/>
		<path class="st0" d="M186,363.7c1.1-0.8,0.8-2.2,1.3-3.3"/>
		<path class="st0" d="M135.3,221.1c0-1.2,1.1-2.2,0.4-3.5"/>
		<path class="st0" d="M184.3,356.1c-0.6-1.2,0.4-2.3,0.4-3.5"/>
		<path class="st0" d="M421-79.4c0.8,1.1,2.2,0.8,3.3,1.3"/>
		<path class="st0" d="M-32.6,222.9c2-0.5,4.2,0.9,6-0.7"/>
		<path class="st0" d="M411.4-137.4c1.2-0.6,2.3,0.4,3.5,0.4"/>
		<path class="st0" d="M222.8,118.6c0-1.2,1-2.2,0.4-3.5"/>
		<path class="st0" d="M289.9-167.3l-3.4-0.9"/>
		<path class="st0" d="M270.1-195.6c1.6,0.5,3.6,0.3,3.8,2.7"/>
		<path class="st0" d="M264.4-196.1l3,0.7"/>
		<path class="st0" d="M356.6-142.1l3,0.3"/>
		<path class="st0" d="M423.5-105.2c1-1.1,2.1-0.3,3.2-0.1"/>
		<path class="st0" d="M-72.3,313.3l-5-1.3"/>
		<path class="st0" d="M397.5-109c1-1.1,2.1-0.3,3.2-0.1"/>
		<path class="st0" d="M240.8-142.9c0.4-1,0.2-2.3,1.6-2.7"/>
		<path class="st0" d="M295-184c0.1-1,0.2-2,0.3-3"/>
		<path class="st0" d="M242.3-141.6c0-1.2,1-2.2,0.4-3.5"/>
		<path class="st0" d="M125.5,56.6l3.1,0.3"/>
		<path class="st0" d="M104.7,175l-0.8-5.6"/>
		<path class="st0" d="M-26.5,196.7c1.8-0.8,3.8-1,5.2-2.7"/>
		<path class="st0" d="M-13.7,304.7c-1.6-2.7,1.9-5.5-0.2-8.1"/>
		<path class="st0" d="M399.2-253.2c0.6-1.9-1-3-1.6-4.4"/>
		<path class="st0" d="M-30.1,205.7c0.1,2.3,0.7,4.3,3.2,5.3"/>
		<path class="st0" d="M-13.7,311.9l1.1-4.2"/>
	</g>
</g>
</svg>
