<?xml version="1.0" encoding="utf-8"?>
<!-- Generator: Adobe Illustrator 24.0.1, SVG Export Plug-In . SVG Version: 6.00 Build 0)  -->
<svg version="1.1" id="圖層_1" xmlns="http://www.w3.org/2000/svg" xmlns:xlink="http://www.w3.org/1999/xlink" x="0px" y="0px"
	 viewBox="0 0 504.8 237.8" style="enable-background:new 0 0 504.8 237.8;" xml:space="preserve">
<style type="text/css">
	.st0{fill:none;stroke:#EDD2A6;stroke-miterlimit:10;}
</style>
<title>資產 3</title>
<g id="圖層_2_1_">
	<g id="background">
		<path class="st0" d="M315.8,321.8c9.1,12.4,19.5,23.4,32.2,32.3c6.1,4.3,12.3,8.2,19.3,10.5c6.5,2.1,13.3,3.1,20.2,1.6
			c6.1-1.4,9.6-4.9,9.5-11.5c-0.2-10.4,2.6-20.4,2.8-30.7c0.1-4.3-0.2-8.6-1.1-12.9c-1.2-5.6,0-11.5-1-17.3
			c-0.6-4.4-2.2-8.6-4.7-12.3c-6-8.5-11.8-17.1-18.4-25.1c-3.8-4.7-8.2-9.4-14.6-11c-0.4-0.1-0.9-0.4-1.2-0.3
			c-6.9,2.6-10.5-2.7-14.5-6.4c-2.9-2.7-6.7-3.3-9.9-5.4c-2.7-1.8-5.5-3.4-6.8-6.4c-1.7-4.1-5.2-5.1-8.9-5.7
			c-5.8-0.9-11.8-0.3-17.4,1.5c-6.2,1.9-11.8,2.2-16.9-2.5s-10.5-9.5-15.7-14.2"/>
		<path class="st0" d="M280.1,453.4c4.2,5.3,9.5,7.1,16.1,5.4c6.3-1.6,13-2,19.1-4.6s10.5-8,12-14.5c1.7-6.6,5.4-11.1,11.2-13.7
			c8-3.5,11.9-9,11.6-17.8c0-3.1,0.4-6.1,1.4-9c3.1-10.4-0.1-19-6.8-26.8c-4.4-4.8-7.8-10.4-10.3-16.4c-3.8-9.6-11.1-16.6-18.8-23
			c-5.5-4.6-9.5-10.8-15.5-14.7c-2.6-1.7-4.2-4.9-7.5-5.6"/>
		<path class="st0" d="M132.1,175.9c-2.7,3.4-7.1,3-10.6,4.3c-7.1,2.5-13.2,7.4-17.1,13.9c-4.2,6.8-9.7,12.5-16.3,17
			c-8.3,5.5-12.9,14.5-18.4,22.6c-2.5,3.7-3.7,7.7-4.7,11.8c-1.7,7-0.1,9.5,6.9,10.2c4,0.4,7.9,0.5,11.9,0.8
			c7.3,0.5,14.4-1.8,21.8-1.5c2.7,0.1,4.2,1.3,6.6,1.9c-5.1,5.4-11.3,6.7-17.8,7.2c-1.7,0.2-3.5,0.5-5.2,0.9"/>
		<path class="st0" d="M171.6,586.1c3.5-2.5,4.4-6.7,5.5-10.3c3.2-10.4,5.6-21,4.6-32c-1.2-13.7-7.5-25.3-16.3-35.3
			c-8.3-9.4-17.5-17.9-26.3-26.9"/>
		<path class="st0" d="M242.6,370.6c-1.8-2.4-5.4-1.2-7.1-4c-2.2-3.5-5.8-5.3-9.3-7.4c-2.2-1.3-1.4-4.2-2.2-6.2
			c-1.2-2.8,0.4-3.9,1.5-5.6c3.2-4.6,6.6-8.8,12.8-9.9c3.5-0.6,3.4-4.8,4-7.4c1.7-7.7,3.1-15.5,0.9-23.6c-1.4-5.4-4.7-10.2-9.3-13.5
			c-5.9-4-10.4-9.7-12.8-16.4c-3.6-9.8-10.4-17.2-22.3-17c-1.5-0.1-2.9-0.3-4.3-0.6"/>
		<path class="st0" d="M27.4,336c-7.9-3.5-15.2-2.8-21.8,3.1c-2.5,2.2-4.3,5.1-2.4,8.2c1.6,2.7,4.8,3.8,8,3.4
			c5-0.6,9.4-2.7,11.6-7.4c3.6-7.4,10.2-9.9,17.4-11.7c0.8-0.2,1.2-0.1,1.6-1c1.5-3.8,4.8-6.1,7.9-8.3c6.7-4.7,8.6-11.5,8.6-18.9
			c0-3.2-2.8-5.7-4.2-8.7c7.6-7.6,16.5-11.8,27-11.9c8.4-0.1,15.6-3.2,22.8-6.9c7.8-4.1,15.6-8.1,24.1-10.5c1.6-0.6,3.4-0.6,5-0.1"
			/>
		<path class="st0" d="M204.1,138.4c5.9-7.9,12.7-15.1,17.7-23.7c7.5-12.9,8.7-26.6,6.5-40.9c-1.1-7-3.6-13.9-4.4-20.9
			c-0.6-5.4-1.7-10.7-2.1-16.1c-0.1-1.6,0.7-2.5,1-3.8"/>
		<path class="st0" d="M-100,567.8c6-5.2,14-6.8,20.4-11.4c6.2-4.3,9.9-9.8,10.4-17.2c0.2-3.3,1.6-5.3,4.4-6.5
			c7.9-3.5,13.9-9.5,20.4-15c3.3-2.8,4.5-7,6.5-10.5c2.4-4.4,4-9.1,4.8-14c1.8-11.4,8.4-21.1,14-30.9c4.2-7.3,7.7-15.2,12.9-21.9
			c1.8-2.4,3.4-4.9,6.4-6.6c3.9-2.4,5-7.5,8.1-10.9c1.4-1.4,2.7-3,3.6-4.8"/>
		<path class="st0" d="M237.5,400.2c0.9,6.6,0.3,13.4-1.8,19.7c-1.8,5.4-1.8,11.2-3.3,16.6c-0.8,3.1-0.4,6.5,1.3,9.3
			c1.8,3.1,3.4,6.3,4.8,9.7c1.4,3.7,5.3,4.8,9.6,4.3c6.6-0.6,12.7-3.4,19.3-3.8c2.5-0.2,4-1.6,3.8-4.4"/>
		<path class="st0" d="M183.3,91.1c-7.9-11.1-18.4-19.9-26.9-30.4c-4.4-5.5-9.1-10.9-11.6-17.4c-4.1-10.9-10.8-21.2-10.5-33.4
			c0.1-5.3-0.3-10.7,0.8-15.9"/>
		<path class="st0" d="M46.5,576.3c1-6-3.4-10.5-4.6-15.9c-1.2-5.1-2.7-10.2-3.1-15.7c-4.1-1.8-8.9-2.5-13.4-4.4
			C13.5,535.4,3.5,528.5-2.7,517c-2.9-5.4-2.3-11.2-1.1-16.8c0.8-3.9,2.8-4,6.8-2.4c8.9,3.5,13.3,11.2,18.2,18.5"/>
		<path class="st0" d="M263.8,9.2c-2.9-4.2,0.6-7.3,1.9-10.7c2.4-6.6,8-10.2,14-13c3.2-1.5,4.4-6,8.8-5.8c2.5,6.6,6.8,12.7,6,20.7
			c-0.4,4.4,1.1,8.9,2.6,13.3c2.7,7.5,3.8,15.3-0.3,22.7c-2.6,4.5-6,8.5-10,11.9c-6.1,5.3-7.6,13.1-4.3,20.9
			c3.1-0.8,4.2-3.5,5.4-5.9c1.6-3.3,3.8-5.9,7.3-7.1c5.2-1.8,7.9-5.6,9-10.8c0.4-2.1,1.1-4.2,1.6-6.3c1.5-6.2,2.9-8.6,11-8.1
			c7.4,0.4,14.5,0.8,20.6,5.6c2.7,2.1,6.6,1.2,8.1-2.8c2.5-6.4,7.8-10.7,11-16.5c2.2-3.8,4.3-7.6,6.4-11.4"/>
		<path class="st0" d="M49.1,564.4c3.9-5.2,5-11.6,6.5-17.6c1-3.7,2.8-5.9,6.3-6.9c19.9-6,32.9-19.6,41.2-38.1
			c1.7-3.8,2.9-8.3,1.1-12.7c-0.5-1.3-0.4-2.7,0.1-4"/>
		<path class="st0" d="M268.9,194.5c3.4-1.2,6.4,0.1,9.5,1.5c4.9,2.1,10.1,3.7,15.4,4.8c6.4,1.3,11.7-1.8,17.2-4.2
			c7.1-3.1,9.5-10.1,13.4-15.9c1.4-2.1,2.4-4.6,4-6.6c1.6-1.9,3.2-4,6.4-2.6c1.1,0.3,2.2,0.1,3.2-0.5c4.9-2.6,10.3-1.4,15.4-2.2
			c1.7-0.3,4.4,0.2,5.1,2.1c1.1,2.9,3.3,4.3,5.6,5.8"/>
		<path class="st0" d="M-57,424.5c5,0.8,10.2,0.7,15.2,2c1.4,0.5,2.9,0.4,4.2-0.2c6.7-3.5,13.8-2.1,20.9-1.6
			c1.5,0.1,2.7,0.9,4.4,0.3c7.5-2.5,15.2-4.3,21.6-9.4c4-3.2,8-6.4,12.8-8.6c5.3-2.3,9.4-6.5,13.3-10.5c6.5-6.8,14.7-10.9,22.4-15.9
			c2.6-1.7,4.9,0.8,7.5-0.6c4.6-2.4,9.5-4,14.4-5.9c1.8-0.7,3.6-1.8,5.7-1.4c0.5,2.3-1.3,3.4-2.1,5c-0.7,1.4-2.4,2.5-1.6,4.5"/>
		<path class="st0" d="M90.8,372.4c1.9,2.3,0.7,4.9,0.8,7.4c0.5,14,14.5,28.7,28.1,29.4c9.3,0.5,15.8-5.9,15.5-15.8
			c-0.1-3.8,0.9-7.6,2.9-10.9c0.6-1.1,1.8-1.9,2.5-3c6.4-10.8,9.1-13.2,0.1-25.5c-2.4-3.2-4.6-6.6-7.1-9.7c-3.2-4-7.7-6.6-12.8-7.3
			c-1,0-2-0.2-3-0.5c-7.5-3-8.5-4.2-6-13.1c5.7-21,15.8-39,36-49.7c2-1.1,4.3-1.3,6.5-0.6"/>
		<path class="st0" d="M147.9,632.6c1.8-4.6,1.3-9.5,2-14.2c0.8-5.8,1.2-11.6,1.9-17.5c1.1-10,2.1-20.1,3.1-30.1
			c0.2-2.9,1-5.8,2.1-8.4"/>
		<path class="st0" d="M147.6,655.3c0.2-6.3,0.5-12.7,0.8-19.1c0.1-0.7-0.1-1.3-0.4-1.9c-4.1-7.5-3.3-16-4.8-24
			c-1.2-6.5-1.4-13.2-3.9-19.5c-1.4,0.5-2.2,1.8-3.8,1.4c-12.7-22.7-14.5-46.5-6.5-71.3c-3.1-0.6-4.2-1.8-4-4.7
			c0.7-9.1,2.4-18.2,5.1-26.9c0.2-0.7,1.1-1.2,1.7-1.8"/>
		<path class="st0" d="M-32.7,497.3c5.5-14.5,13.8-27.7,21.2-41.2c3.4-6.2,5.7-13.1,10.7-18.4c0.6-0.6,0.5-1.9,0.8-2.9"/>
		<path class="st0" d="M167.8,328.1c-0.4-11.1,0.2-22,2.8-32.9c2.5-9.9,6.7-19.3,12.5-27.7c0.7-1.1,1.6-1.9,1.2-3.3"/>
		<path class="st0" d="M380.8,168.6c3.5,2.2,3.8,6.4,5.3,9.7c0.9,2,2,3.2,4.1,3.6c1.7,0.2,3.2,1.1,4.2,2.5c0.9,1.4,2.7,1.9,4.1,1
			c0.2-0.1,0.4-0.3,0.6-0.4c4.1-5.4,10.8-7.9,14.4-13.8c2.8-4.7,3.7-9.9,3.7-15.2c0.1-11.5-0.1-23-0.3-34.6c0-1.7,0.7-4-1.8-5"/>
		<path class="st0" d="M403.4,179.4c-1.2-3.9,1.6-6.8,3.1-9.4c3.1-5.5,1.8-10.2-1.1-14.6c-4.9-7.4-5.1-11.5,0.2-18.4
			c0.2-0.3,1-0.4,1-0.6c-0.1-6.7,5.3-11,7.2-17c2.7-8.3,0.3-14.4-5.1-20c-1.7-1.8-4.2-2.7-6.7-3.6c-8.9-3.2-17.7-6.8-26.7-9.6
			c-4-1.3-8.6-1.9-12.7,0.7c-2.1,1.4-3.5-0.4-4.6-1.3c-2.5-2-5.3-3.6-8.3-4.6"/>
		<path class="st0" d="M160.3,572.5c-1.1-1.7-0.5-3.7-0.8-5.6s-0.3-3.1-1.9-4.6c-3.4-3.1-2-7.8-2.9-11.8c-1.7-7.4-1.9-15.4-5.1-22.1
			c-4.2-9.2-7.9-18.5-11.1-28.1c-0.3-0.8-1-2-0.7-2.4c2.4-3-0.3-5-1.7-6.6c-2.8-3.1-3-6.3-2.8-10.2c0.4-8.1-0.5-16.1-1.6-24.1
			c-1.5-11-5.1-21.5-9-31.8c-0.4-1.1-1.1-2.1-0.5-3.3"/>
		<path class="st0" d="M378.6,222.9c4.4,0,8.2,2,12,3.9c5.8,2.9,7.2,2.5,10.6-2.7c1.1-1.5,2.4-2.7,4-3.5c7.5-4.7,8.5-8.5,6.5-17.1
			c-1.8-7.4-6.3-13.2-11.9-18.2"/>
		<path class="st0" d="M195.1,159.9c-4-11.1-8.4-22.1-10.4-33.9c-1.3-7.2-1.8-14.6-1.5-21.9c0.3-5.4,0.5-10.7,1.8-16.1
			c1-4.6-1.2-9.9-2.2-14.9c-1.1-5.6-3-11-3.7-16.7c-0.8-5.5-0.7-11,0.5-16.4c1-5.1,2.5-10.1,4.5-15c1.7-3.8,1.6-8.2-0.3-11.8
			c-1.8-3.8-1.6-8.6-2.3-13c-0.2-1.2,0.3-2.6-1.5-3"/>
		<path class="st0" d="M4.4,429.6c2.1,0.3,2.7-1.5,3.8-2.6c15.3-17,32.8-31.9,51.9-44.3c0.7-0.4,1.3-1.1,1.4-1.9"/>
		<path class="st0" d="M104.9,484.3c1.5-2,3.2-1.9,5.4-0.2c3.3-5.6,5.6-11.8,6.7-18.2c2.6-13.4,1.1-26.8,0.3-40.2
			c0-0.5-0.6-1-0.9-1.6"/>
		<path class="st0" d="M227.9,559.9c1.6-3,0.8-6.3,0.4-9.2c-1.1-7.9,0.3-16.2-3.1-23.5c-2.6-5.7-4.8-11.5-6.6-17.5
			c-4.1-12.5-8.2-25-12.1-37.5c-1.6-5.1-4.8-9.6-5.2-15.2"/>
		<path class="st0" d="M-10.6,496.6c-3.8-3.8-4.5-7.6-3.4-13.4s1.5-11.8,2.6-17.7c0.4-2.9,2-5.5,4.3-7.3c1.7-1.3,3.1-3,4.1-5
			c9.3-17.4,24.2-25.9,43.3-27.6c3.1-0.3,6.3-0.8,9.4,0.1"/>
		<path class="st0" d="M185.4,164.6c-3.9-3.9-7.2-8.4-12.6-10.4c-0.6-0.2-1.3-1.3-2-0.8c-4,3-5.7-1.1-7.3-2.9
			c-5.2-5.8-10.7-11.1-18-14.2c-9.5-3.9-19-7.6-29.5-7.2"/>
		<path class="st0" d="M141,436.9c6.1,3.9,10.7,9.9,11.6,16.5c1,7.6,4.2,14.1,7,20.7c3,6.8,7.1,13,12.2,18.4
			c5,5.4,11.3,9.1,17.3,13.2c2.2,1.5,3.9,0.3,3.2-2.8c4.7-1.1,7.4,2.2,10.2,4.6c8.8,7.3,15.3,16.5,20.7,26.6
			c0.8,1.5,1.2,3.2,3.2,3.5"/>
		<path class="st0" d="M196.7,124.9c-1.1-2.7,0.4-4.6,1.6-6.8c2.1-3.4,2.9-7.3,3.7-11.1c1.5-7.1,4.7-13.4,8.6-19.3
			c1-1.5,1.7-5.4,5.5-2.9c0.9,0.6,1.7-1.6,2-2.9c1.9-7.2,1.6-14.4,0.9-21.7c-0.9-7.9-0.9-15.9-0.2-23.8c0.2-1.7,0.3-3.7,2-4.8"/>
		<path class="st0" d="M140.9,499.6c-0.4-1.8,0.6-3.4,0.8-5.2c0.1-0.9,0.8-1.6,0.2-2.6c-5.3-10-4.6-21.3-6.3-32
			c-1.9-11.7-4.7-23.1-8.5-34.3c-0.3-0.9-0.5-1.9-0.6-2.9"/>
		<path class="st0" d="M132.9,342.2c1.4-6.8,4-13.3,4.7-20.3c1.1-10.3,4.5-20,7.7-29.9c2-5.9,4.7-11.5,7.9-16.8
			c3.7-6.4,9.9-9.2,16.6-10.5c7.9-1.6,15.8-3,23.6-5"/>
		<path class="st0" d="M199.7,159.7c-1.1-2.8,0-5.8-0.5-8.8l-2.8,1c-5.2-14.6-10.6-29.1-9.5-45.1c0.4-4.1,0.3-8.2-0.5-12.2"/>
		<path class="st0" d="M245.9,171.7c-0.4-5.2-0.3-10.4,0.3-15.5c0.4-6.1,1.4-12.2,2.9-18.2c3.5-12.8,8-25.3,16.9-35.7
			c3.7-4.4,5.4-9,2.1-14.8c-1.5-2.9-1-6.5,1.2-8.9c2.9-3.2,4.3-7.3,5.7-11.1c1.4-3.7,0.3-7.6-1.6-11.1c-0.8-1.5-1.4-3-0.6-4.7"/>
		<path class="st0" d="M181.1,87.4c0.3-1,0.3-2.1,0-3.2c-1.2-4.5-2-9.1-3-13.7c-2.6-11.7-7.8-22.3-14.3-32.2
			c-1.5-2.3-2.9-4.8-6.7-3.6c-1.7,0.5-3-1.6-4.1-2.8c-7.5-7.8-13.9-16.4-17.5-26.7"/>
		<path class="st0" d="M-5.7,457.5c1,3.2-0.5,6.2-1.5,9c-2.5,7.6-0.4,15,0.3,22.5c0.1,0.8,0.2,2,1.6,2.3s2.2-0.6,3.1-1.5
			c1.7-1.7,2.1-4,3.6-5.9c2.1-2.8,4-3.7,6.6-1"/>
		<path class="st0" d="M-101.6,568.7c-6.9,3.7-17.9,2.6-23.4-2.8c-2.5-2.5-1.1-6,0-8.8c2.7-7,7.4-12.9,12.3-18.3
			c6.8-7.7,18.3-9.1,27.9-4.8c3.6,1.6,7.4,1.4,11.2,0.2c1.7-0.7,3.7-0.4,5.1,0.8"/>
		<path class="st0" d="M20.3,496.7c3.3-1.9,1.9-5.8,3.7-8.5c3.2-4.8,5.5-10.1,6.6-15.7c1.1-5.9,5.7-10.2,10.5-13.9
			c2.8-2.1,5.5-4.3,8.9-5.4"/>
		<path class="st0" d="M19.7,500.1c0.1-0.3,0.3-0.8,0.4-0.8c7-0.1,10.9,5.2,9.2,11.7c-2,7.7-2,15.2,4.4,21.3c0.5,0.6,0.8,1.3,0.9,2
			c0.6,3.4,3,3.5,5.8,3.8c5.1,0.4,10.1,1.3,15.2,2c0.3,0,0.5,0.4,0.7,0.6"/>
		<path class="st0" d="M163,193.5c-1.8-3.7-1.1-7.7-1-11.5c0.1-2.9-1-4.4-3-6.2c-8.7-7.5-19-12.6-28.4-19.1
			c-4.8-3.3-8-8.1-12.1-12.1c-1-1-0.8-3.3-1-5.1c-2.3-17.2-11.3-29.5-27.1-36.8c-1.7-0.8-3-2.2-4.6-3.3c-1.3-1-2.4-2.6-4.4-2"/>
		<path class="st0" d="M494.5,46.4c-0.3,5.3-3.5,7.7-9,7.2c-5.2-0.4-9.8-2.9-14.5-4.8c-2.5-1-4.7-0.4-7-0.7
			c-1.6-0.2-2.3,1.2-2.8,2.4c-2.1,4.6-0.5,14.4,3.2,17.8c4.4,3.9,9.9,4.8,13.2-1.1c1.7-2.9,1.2-6.8-2.7-9c-7.1-4.1-13-9.9-21.6-11.8
			c-4.5-1-7,0.4-10.3,1.8c-11,4.7-22.2,9.2-33.8,11.5c-11,2.2-21.9,4.4-31.9,9.6c-1.1,0.6-2.6,0.3-3.3-0.8"/>
		<path class="st0" d="M149.9,633.5c2.4-2.3,2.4-5.7,3.3-8.6c1.9-6,3.4-11.8,7.3-17.1c3.6-4.8,5.4-11.1,8-16.7
			c1.9-3.9,1.5-8.3,2.5-12.4c0.3-1.4,0.7-2.8,1.2-4.2"/>
		<path class="st0" d="M162.1,177.6c2.3-2.4,5.4-4,8.7-4.6c5.8-1,11.2-3.7,15.5-7.6c7.1-6.4,15.6-6.4,24.2-2.6
			c2.7,1.2,5.5,2.1,8.1,3.4c3.8,2,8.1,1.1,12.1,1.9c5,0.9,9.8,2.6,14.7,3.9c0.6,0.1,1.4,0,1.6,0.8c0.8,3.9,4.3,5.5,6.5,8.3
			c3.5,4.6,8.3,7.9,12.9,11.3c2.5,1.8,4.7,10.7,2.5,12.7c-2.9,2.6-6.9,2.4-10.6,1.9s-7.2-2.4-10.7-3.8c-2.5-1-5.6-0.3-7.2-3.3"/>
		<path class="st0" d="M314.2,301.2c3-14.4,5.5-28.8,1.9-43.4c-0.4-1.6,0.8-2.5,1-3.8"/>
		<path class="st0" d="M262.8,306.3c-0.6-9.3-4.9-17.3-9.4-25.1c-3.4-6.1-7.8-11.5-12.9-16.2c-2.5-2.2-1.3-4.7-1.3-7.1"/>
		<path class="st0" d="M480.3,31.6c5.8,2.9,17.5,1.6,21.7-2.7c2.6-2.6,2.8-6,1.9-9.3c-0.7-2.5-5.8-4.9-8.7-4.4
			c-2.1,0.4-4.2,1-6.2,1.6"/>
		<path class="st0" d="M348.8,241.8c6.4-1.1,12.9-1,19.2,0.4c4.3,0.8,8.1,0.5,11.7-2c7.6-5.3,7.6-5.3,3-13.6
			c-0.4-0.7-1.3-1.4-0.8-2.4"/>
		<path class="st0" d="M382.8,165.3c0.3-5.5-0.6-11,2.1-16.5c3.9-7.8-1.8-15.8-10.6-15.5c-5.1,0.1-9.2-1.7-13.1-4.8
			c-2.1,2.7-0.6,4.9,0.8,6c2.5,1.9,3.5,4.5,4.4,7.1c1.6,4.6,3.7,8.9,7.1,12.6c2.5,2.6,1.7,5.6-0.3,8.4c-2.6,3.7-6.3,6.8-7,11.7"/>
		<path class="st0" d="M-90.3,478.8c0.5,0.4,1,1.2,1.5,1.2c9.7-0.4,19.2,4.3,28.9,1c4.2-1.4,8.4-3.1,12.4-5c3.9-1.7,5.5-5.7,6.2-9.2
			c1.4-7.3,4.1-14.3,8.1-20.7c4.1-6.5,9.5-12.9,17.7-16.1c7.3-2.8,14.4-6.4,22-8.7c0.7-0.4,1.5-0.5,2.3-0.3"/>
		<path class="st0" d="M370.8-16c-4.8-7.4-5.4-15.3-2.6-23.5c3.8-11,10.5-18.8,22.1-22.4c4.6-1.5,8.6-5.1,12.8-7.8
			c1.7-1.1,3.3-1.7,5.1-0.5c2.5,1.7,2.8-0.2,3.2-1.9"/>
		<path class="st0" d="M40.7,354.5c-4.9,1-9.7,2.5-14.6,3c-8.2,0.8-16.5,0.9-24.3-2.9c-1-0.5-2.1-0.9-3.3-1.2c-4.3-1-6.4-4.5-8.2-8
			c-1.1-2.1-2.7-2.8-4.5-3.9c-4.3-2.6-8.5-5.5-10.4-10.5c-1.5-3.9-0.5-8,2.4-9.7s6.8-0.6,9.6,2.8c2.2,2.6,1.8,5.9,2.7,8.8"/>
		<path class="st0" d="M104.1,484.1c-3.4-5.6-4.5-12.2-8-17.8c-0.8-1.3-0.5-2.7,0.9-4.2c7.1-8,11.7-17.9,13.2-28.4
			c0.6-4.2,3.1-8.1,5.9-11.5"/>
		<path class="st0" d="M201.7,148.1c4.3-3.4,9-6.2,14.1-8.2c10.4-4.1,16.1-12.6,19.1-22.9c2.6-8.7,4.6-17.7,6.7-26.5
			c0.4-2,0.6-4.1,0.7-6.1"/>
		<path class="st0" d="M153.3,453.9c0.7,0.3,1.4,0.6,2,1c6,5,13.2,4,20,4c6.2,0,12.4-3.1,18.5-2.2c10.8,1.5,25.8-10.2,27.6-21"/>
		<path class="st0" d="M116.4,180.9c-5.8-7.6-11.8-15.1-14.4-24.7c-1.2-4.6-2.5-9.1-3.4-13.8c-3-14.4-6.7-28.7-15.3-41.2
			c-4.1-6-9.7-10.6-13.9-16.3"/>
		<path class="st0" d="M373.6,67.6c3-4.8,6.1-9.4,8.9-14.4c0.9-1.7,2.1-3.3,3.7-3.4c4.9-0.4,8.6-3.8,13.2-4.9
			c4.3-1,8.8,0.1,13.2-1.9c2.3-1.1,5.1-1.6,6.9-3.4c4.3-4.2,1.4-10.2-2.8-11.4c-5.1-1.6-9.2-1.1-12.8,5c-0.9,1.3-1.9,2.5-3,3.6
			c-2.1,2.2-3.4,5.1-3.7,8.1"/>
		<path class="st0" d="M340.7,341.9c11.4,8.4,23.3,15.8,37.3,19.2"/>
		<path class="st0" d="M-22.8,570.5c3.6-0.4,4-3.8,4.9-6c3.6-8.3,1.4-16.9-5.9-22.4c-5.4-4.1-7.9-10.1-11.8-15.2"/>
		<path class="st0" d="M346.1,32.9c3.8,0.1,5-3.5,6.6-5.6c4-5.4,7.6-11,10.6-17c1.8-3.5,2.4-7.7,3.5-11.6"/>
		<path class="st0" d="M40.3,347.2c0.8,4.4,1.4,8.8,0.7,13.2c-0.5,3.2,1.1,4.4,3.8,4.5c8.7,0.5,13.9-0.4,18.7-9.6
			c3.6-6.9,8.1-13.4,16-16.1c2-0.6,3.4-2.4,3.6-4.5c0-3.5,2.1-6.4,1.5-10c-0.4-2.4,1.6-4.4,2.8-6.4c2.9-4.8,4.7-10.4,9.7-13.7"/>
		<path class="st0" d="M332.7,170.2c0.8-5.3,1.4-10.4-1.3-15.7c-1.6-3.3-4.3-5.3-6.3-8.1c-2.6-3.6-4.4-7.3-4.1-11.9
			c0.2-3.7,3-5.2,5.7-6.6c5.2-3,11.3-3.7,17.1-2.1c5.3,1.5,10.7,2.5,16.1,3.6"/>
		<path class="st0" d="M178.1-16.8c0.3,2.8,0.7,5.7,1.4,8.5c0.9,3.5,0.2,7.3-1.9,10.3c-1.4,2-1.6,4.9-2,7.5
			c-0.8,5.9-2,11.7-3.5,17.5c-1.3,5-0.3,10.1-0.1,15.2c0,1.2,0.9,2.1,2,2.3"/>
		<path class="st0" d="M93.2,361.4c-1.6-0.8-3.1-1-4.4,0.1c-0.4,7.1,4.7,11,9.4,14.4c8.5,6.3,18.3,10.3,28.8,11.8"/>
		<path class="st0" d="M297.9,412.7c1.5-7.9-0.3-15.5-2.4-22.9c-1.7-6.3-4-12.5-6.9-18.4"/>
		<path class="st0" d="M285.1,274.2c7.1-9.2,10.8-20,13-31.2c0.3-1.4,1.1-2.1,1.4-3.2"/>
		<path class="st0" d="M225.4,525.3c2-3.8-0.2-7.6-1.1-10.9c-2.5-9.4-3.8-19.1-6-28.5"/>
		<path class="st0" d="M264.2,346.9c6-9.9,7.8-20.8,7.5-32.1c0-1,0.3-1.8,0.3-2.6"/>
		<path class="st0" d="M170.7,577.4c-3.3-1.8-1.8-4.7-1.3-7c1.6-6.9,2.6-14,3-21.1c0.3-4.9,1.5-11.4-4.1-15.6
			c-1.4-1-1.5-3.8-2.3-5.7c-3.9-9-6.3-19.1-14.8-25c-3.8-2.7-6.4-7.6-11.9-7.7"/>
		<path class="st0" d="M118.5,235.2c9.2,3.3,17.8,7.9,25.7,13.6c1.6,1.1,3.4,2,5,3.1"/>
		<path class="st0" d="M215.8,300.8c-1.8-13.6-5.9-26.3-16-36.2"/>
		<path class="st0" d="M-15.9,349.7c-4,1.8-8.3,2-12.6,2.2c-4.7,0.2-9.7-5.1-9.3-9.4s4-6.7,9.1-5.8c5,0.9,9.4,4.2,11.6,8.8
			c2.2,4.3,5.6,5.5,9.9,5.5"/>
		<path class="st0" d="M284.1,267.7c5.2-7,7.9-15.2,10.3-23.4c1.1-4,1.7-8.2,6.8-9"/>
		<path class="st0" d="M225.1,430.2c3.5-5,2.4-11,4-16.5c1.3-4.8,2.7-9.5,4.2-14.4c-0.5-1.8-2.1-3.1-3.5-4.8
			c-7.2,2.2-14.1,1-20.5-2.8c-4.6-2.7-8.3-6.5-10-11.8"/>
		<path class="st0" d="M213.9,426.5c2.3-9.5,4.5-19,9.6-27.6c0.4-0.9,0.6-1.9,0.8-2.9"/>
		<path class="st0" d="M-20.2,377.8c-0.8,0.8-1.6,1.7-2.4,2.5c-4.5,4.1-4.9,7.1-1.4,10.9c3.7,4,7.3,4.1,11.6,0.2
			c1.4-1.3,3.6-2.1,3.8-4.4"/>
		<path class="st0" d="M358.8,44.6c2.5-5.5,3.1-11.6,6.8-16.7c5.2-7.2,11.1-13.8,19-18c6.1-3.3,13-3.1,19.8-2.3
			c1.7,0.2,2.3,1.7,3.4,2.6"/>
		<path class="st0" d="M451,44.9c0.5-0.4,1-0.7,1.6-0.9c5.8-1.2,8.1-6.3,11.5-10.1c1.3-1.4,0.7-2.9,0.6-4.3
			c-0.5-7.4,6.5-15.8,13.7-17.2c4-0.8,6.3,1.2,8.4,4"/>
		<path class="st0" d="M104.1,323.3c1.4-2.1,1.7-4.7,2.2-7.1c1.4-7.9,5.2-14.9,8.3-22.1"/>
		<path class="st0" d="M378,168.1c0.4-4.5,0.6-9.1,1.2-13.6c0.4-2.8-0.1-5-2.5-6.4c-1.8-1.1-2.6-3-3.8-4.5c-1.3-1.5-2.9-2.5-5-1.3"
			/>
		<path class="st0" d="M98,134.7c2-4.6,1.1-9.2,0-13.9c-1.5-6.1-4.2-11.8-7.9-16.8c-0.2-0.3-0.1-0.9-0.1-1.4"/>
		<path class="st0" d="M23.2,318.8c-1.1-3-2.9-5.7-3.7-8.9c-1.2-4.7-8.2-9.4-12.8-9.1c-4.9,0.4-7.2,4.9-5.9,9.6s7.1,9.4,12,8.7
			c8.6-1.1,15.6,2.5,22.7,6c2.2,1.2,4.5,2.2,6.9,3"/>
		<path class="st0" d="M290.1,429.5c2.2-10,1.7-20,1.3-30.1"/>
		<path class="st0" d="M129.4,284.5c6.3-7.5,12.9-14.4,23.2-16.3c1.8-0.5,3.7-0.1,5.2,1"/>
		<path class="st0" d="M440.3,76.7c2.8,4.2,6.9,6.9,11.1,9.4c1.9,1.1,10.2,0.2,11.7-2c1.2-1.8,2.5-3.4,1.6-5.9
			c-1.3-3.7-4-5.5-7.5-6.3c-4.1-0.9-8.4-0.2-12,2.1c-4.8,3.2-9.7,2.5-14.7,2.4c-2.8,0-5.7-0.5-8.5,0.1c-4,0.8-6.9-2.3-10.4-3.1
			c-5.5-1.3-10.8-3.2-16.2-4.9c-0.7-0.3-1.3-0.8-1.9-1.3"/>
		<path class="st0" d="M264.2,275.7c-4.2-1.4-6.9-4.4-9.9-7.6c-3.6-4-8.4-7-13.1-9.6c-3-1.7-4-3.6-4.6-6.7c-1-5.2-2.5-10.5-9.3-10.9
			"/>
		<path class="st0" d="M151.8,320.5c-0.1-9.8,3.1-18.9,5.3-28.2"/>
		<path class="st0" d="M238.9,60.3c1.5,1.8,0.2,4,0.9,6.2c1.5,4.3,4.4,7.3,7,10.5c3.3,4.2,8.5,6.4,13.8,5.9c1.4-0.1,3.9-0.5,3.4,2.5
			"/>
		<path class="st0" d="M196.1,379.6c0.3-0.1,0.6-0.2,0.9-0.2c3.7,0.9,7.1-1.9,10.6-1.3s5,4.8,8.3,6c1.2,0.5,2.5,0.9,3.7,1.4
			c6.5,2.4,10-1,9.1-7.6c-0.3-2.2-0.3-4.1,1.8-5.9c1.6-1.4,1.7-4.1,3.4-5.8"/>
		<path class="st0" d="M296.6,214.4c9.1,2.6,18.4,3.1,27.8,3.4"/>
		<path class="st0" d="M149.9,263.6c8.1-2,16.2-4.5,24.8-4c1.6,0.1,3.7-0.3,4.4,1.9"/>
		<path class="st0" d="M305.1,321.8c1.5-0.4,3-0.5,4.5-0.3c5.5,1,10.7-0.8,15.7-2.4c7.8-2.5,9.2-9.4,9-16.4
			c-0.2-8.1-0.5-16.5-2.3-24.1c-2.5-10.8-8.6-20.4-17.3-27.2c-5.6-4.4-12.1-8-16.3-14.1"/>
		<path class="st0" d="M323.4,84.1c-1.5-2,0.5-3.5,0.9-5.1c2-7,3.2-14.2,3.5-21.5"/>
		<path class="st0" d="M233.7,399.3c7.3,0.9,14.1-0.7,20.7-3.8c5-2.3,10.2-4,15.1-6.5s8.3-6.7,11.9-10.6c3.8-4.1,6.8-8.9,9.8-13.6
			c3.9-6,4-12.9,3.5-19.7c-0.5-8.2,0.4-16.2,1.3-24.3c0.3-1.3,0.7-2.5,1.3-3.7"/>
		<path class="st0" d="M469.9,47.8c4.2-4.2,8.5-8.2,15.1-8.3c4.8-0.1,8.9,2.4,8.8,5c0,4,2.4,1,3.4,1.7"/>
		<path class="st0" d="M427.4,85.5c-1.7,4.3-3.3,8.6-2,13.4c1.3,5.1,5.4,8.8,8.9,7.6c4-1.4,6.6-7.5,4.7-11.8
			c-1.6-3.7-4.2-6.8-8.2-8.3c-4.7-1.8-7.6-5.1-9.7-9.4"/>
		<path class="st0" d="M182.3,377.4c1.2-4.6,3-8.5,8.3-10.1c4.2-1.3,4.2-5,3.7-8.8c-0.8-7.2,1.6-9.6,8.6-9.5"/>
		<path class="st0" d="M234,264.1c-4.8-2.5-7.6-6.2-6.4-11.9c0.8-3.6-0.5-7-0.6-10.4c0-1.7-1.3-2.7-2.7-3.4
			c-5.8-2.8-9.2-7.7-12.4-13c-2.8-4.6-5.7-9.3-11.1-11.2c-7-2.5-6.6-8.7-7-14c-0.2-2.9,3.7-4.6,6.8-4.9c9.1-0.6,18.3,0.4,27,3
			c3.1,0.9,6.6,2.5,10.1,0.9"/>
		<path class="st0" d="M308.5,131c6.2-1.8,11.6-5.4,16.6-9.4c3.8-3,6.1-7.3,5-12.5c-0.3-2.1-0.2-4.2,0.3-6.2
			c1.2-5.6,0.2-10.1-5.3-13.1c-1.2-0.6-1.9-2.2-2.8-3.3"/>
		<path class="st0" d="M162.7,405.7c3.6-7.1,8.5-13.7,10.8-21.5c0.2-0.6,1.1-0.9,1.6-1.4"/>
		<path class="st0" d="M215.5,395.2c-3.2,3.6-7.7,4.7-11.9,6.5c-1.4,0.7-3.1,0.5-4.4-0.4c-3.9-3.7-8.9-4.7-13.7-6.5
			c-6.5-2.4-9.1-7.4-9.5-14c-0.3-4-1.8-4.8-5.5-3.2c-0.2,0.1-0.4,0.2-0.5,0.3c-11.4,4.9-13.4,1.8-14.7-8.7
			c-0.7-6.2-1.8-11.4-6.1-16.5c-4.2-5.2-6.7-11.5-7.2-18.1c-0.3-3.4-2-4.6-4.6-5.6"/>
		<path class="st0" d="M81.6,228.6c8,1.2,16,2.9,23.8,5.1"/>
		<path class="st0" d="M356.3,229.8c9.3-3.6,15.4-11.1,21.6-18.4c1.5-1.9,2.8-4,3.8-6.2c3.5-7.4,10.6-12,14.3-19.2"/>
		<path class="st0" d="M199.2,143.5c-0.6-5.7-1.7-11.3-3.3-16.7c3.7-1.1,3.5-4.4,4.4-7.2"/>
		<path class="st0" d="M-24.1,572c-1.1,2.3-3.2,4.1-5.7,4.8c-5.3,1.3-10.4,3.3-15.2,6.1c-2.5-3.8-4.7-7.2-7-10.7
			c-1.6-2.3-1.9-5-2-7.7c-0.4-6.9-2.7-14,1.5-20.7c2.4-3.5,5.5-6.5,9.1-8.8c2.7-1.9,5-3.4,5.1-7.3c0-2.2,2.8-3.7,3.3-6.3
			c1.1-6.3,1.5-12.6,1.1-19"/>
		<path class="st0" d="M61.7,379.9c0.7-2.5,3.3-2.7,5-3.6c7.1-3.4,14.4-6.4,21.6-9.5"/>
		<path class="st0" d="M363.1,75.7c5.8-0.6,11.6-1.8,17.1-3.7c5.1-1.7,10.4-2.8,15.8-0.6c0.7,0.2,1.4,0.1,1.9-0.4"/>
		<path class="st0" d="M237.9,21.5c-3.2,2.6-3.1,6.7-2.2,9.6c1.8,5.6,2.5,11.3,3.9,16.9c0.8,3.4,0.2,7.1,0.1,10.7
			c0,0.9-0.6,1.2-1.2,1.4c-9.7-4.6-10.2-14.7-13.5-23.1c-0.2-0.6-0.3-2-0.5-2.2c-5.4-6.8-0.9-12.3,2.3-17.9"/>
		<path class="st0" d="M278.6,7.1c1.6-8.3,6.7-14.8,11.6-21.3"/>
		<path class="st0" d="M153,401.4c3.8-5.9,8-11.5,11.3-17.7c0.7-1.3,0.3-2.4,0.7-3.4"/>
		<path class="st0" d="M49.5,431.9c0-8.1,4.5-14.1,9.9-19.4c4.8-4.8,11.2-7.8,16.1-12.6"/>
		<path class="st0" d="M393.3,117.8c-1.4-9.8-7.1-16.9-14.4-22.9"/>
		<path class="st0" d="M289.3,336.2c2.3-7.8,3.4-15.7,2-24.5c-2,1.2-1.7,2.7-2.2,3.8"/>
		<path class="st0" d="M222.3,196.3c3-7.1,4.5-14.7,6.4-22.1"/>
		<path class="st0" d="M333.8,290.9c7.3,2.3,14.8,3.1,22.3,3.8"/>
		<path class="st0" d="M96.3,436.5c0.4-3.4,2.7-5.5,5-7.8c3-2.9,5.8-5.8,10.2-6.3c1,0,2,0.1,3,0.3"/>
		<path class="st0" d="M127.8,165.9c-0.4,2.3,0.9,4.3,1.7,6.2c1.9,4.5,5.2,5.5,9.8,3.4c7-3.2,12.5-1,15.5,6.1c1.2,2.9,3,5.2,6,6.4"
			/>
		<path class="st0" d="M362.8,87.7c6.6,3.7,13.9,5.3,21.1,7.1"/>
		<path class="st0" d="M90.7,362.1c5.8,5.5,12.1,10.3,19.5,13.4"/>
		<path class="st0" d="M218.1,484.9c-2.9-6.5-2-13.5-2-20.2c0-5.2-0.5-10.1-3.7-14.3"/>
		<path class="st0" d="M275.4,327.3c0.8-7.4,0.8-14.9,0.2-22.3"/>
		<path class="st0" d="M362,49.9c5.7,1.1,11.5,1.1,17.1-0.1c1.1-0.2,3.2-0.6,4.1,1.3"/>
		<path class="st0" d="M279.5,203.9l20.2,5.1"/>
		<path class="st0" d="M357.1,83.6c9.7-9.8,7-21.3,3.5-36.2c4-0.1,4.9-3.3,6.2-6.1"/>
		<path class="st0" d="M104.4,422c-3.8-5.7-6.5-11.6-6.6-18.6c-0.1-1.4,0.4-2.8,1.5-3.7"/>
		<path class="st0" d="M46.6,568.7c1.3-0.2,2.2-1.4,2.1-2.7c0-0.1,0-0.2-0.1-0.3c-2-7.1,0-14,0.4-21"/>
		<path class="st0" d="M340.8,37.9c1.3,4.4,4.2,6.1,9.1,6.4c3.6,0.2,7.5-0.2,10.5,2.5"/>
		<path class="st0" d="M207.7,254.4c1.5-4.2,4.5-7.4,7.9-10.1c2.5-2,4.7-4,5.8-7.1"/>
		<path class="st0" d="M159.3,415.6c4.6-5.4,9.1-10.9,11.6-17.7"/>
		<path class="st0" d="M202.3,419.2c0.8-6.1,4-11.2,6.1-16.8c0.2-0.7,0.2-1.5,0-2.3"/>
		<path class="st0" d="M19.9,498.4c-5.2-6-5.6-13.1-5.1-20.5"/>
		<path class="st0" d="M106.2,327c-7.8-5.9-9.5-14.4-8.2-23.1c0.6-4,3.6-8,6.3-11.3s6-6.5,8.5-10.4c3-4.7,8.3-7.1,12.7-10.3
			c2.8-2.1,6.1-3.4,8.5-6.3c1.8-2.2,4.9-3.3,7.9-4c4.7-1,9.3-2.4,13.9-3.6"/>
		<path class="st0" d="M177.3,297.4c0.9-6.6,2.2-13.2,4-19.6"/>
		<path class="st0" d="M321.1,370.1c-2.8-8.3-7.2-15.7-12.2-22.8"/>
		<path class="st0" d="M315.2,365.1c-3.1-8.2-7.9-15.3-13.3-22.1"/>
		<path class="st0" d="M312.1,341.9c-5.3-4.8-10.1-10.4-16.7-13.6"/>
		<path class="st0" d="M241.1,224.7c5.8-5.7,12.7-10,20.2-12.8"/>
		<path class="st0" d="M317.9,84.5c3.1-5.7,4.8-12,5.1-18.4"/>
		<path class="st0" d="M354.7,311.4c5.7,3,11.8,5.1,18.1,6.3"/>
		<path class="st0" d="M101.6,318.7c2.3-6,3.4-12.4,6.8-18"/>
		<path class="st0" d="M271.6,424.9c1.8-5.4,2.2-11.1,3.3-16.6c0.2-1,0.1-1.6-0.9-2"/>
		<path class="st0" d="M246.7,202.4c0.2-6.4,0.4-12.7,0.8-19.1c0-1.8,0.6-3.5,1.6-5"/>
		<path class="st0" d="M-48.2,445.1c0.2-2.5,2.8-3,3.9-4.8c2.4-3.9,3.8-8.3,4.1-12.9"/>
		<path class="st0" d="M280.2,61.7c-1.8-0.6-1.5-2-1.4-3.5c0.2-3.5-1.9-5.4-5-6.7c-7.6-3.2-14.1-7.6-16.6-16.2
			c-0.4-1.1-0.5-2.2-0.5-3.3c0.7-8.5,3.1-16.5,5.7-24.5"/>
		<path class="st0" d="M158.7,249.7c3.7,4.8,3.8,4.9,9,3.1c3.5-1.2,7-0.3,10.4-0.4c4.1,0,7.8-1.5,11.7-2.1c1.1-0.1,2-0.7,2.6-1.6
			c3.3-5.5,6.8-10.8,8.3-17.2"/>
		<path class="st0" d="M-2.4,378.2c1.5-1.1,3.3-2,4.4-3.4c5.4-7.1,12.8-12.5,21.3-15.2c0.3-0.1,0.5-0.7,0.8-1.1"/>
		<path class="st0" d="M241.9,418.3c1.4-6.2,1.9-12.5,1.6-18.9"/>
		<path class="st0" d="M363.3,352c5.6,2.4,11.2,5,17.3,6.1"/>
		<path class="st0" d="M290.5,311.8c-3.1-4.4-5.4-9.5-10.5-11.9c-3.4-1.7-7.1-2.8-10.4-4.9c-8.5-5.4-9.5-14.8-2.1-22"/>
		<path class="st0" d="M299.6,391.6c-1.3-7.3-4.2-14-7.4-20.7"/>
		<path class="st0" d="M239.1,198.7c1.5-5.9,3.1-11.7,8-15.9"/>
		<path class="st0" d="M-14,492.6c-1.2,1.9-1,3.6-0.2,5.8c1.8,4.8,4.1,8.8,9.1,10.7"/>
		<path class="st0" d="M308,82.9c3.9,1,8.1,1.3,11.6,3.8c1.3,0.9,6.8-2.7,6.9-4.5c0.3-6.1,3.5-11.8,3.2-18"/>
		<path class="st0" d="M266.4,334.9c2-5.9,1.8-12.1,2.7-18.1"/>
		<path class="st0" d="M209.9,378.1c3.2-3.8,7.4-2.5,11.3-2c2.4,0.3,4.7,0.6,6.9-0.6"/>
		<path class="st0" d="M378.9-14.4c-6.6,2-8.1,8.4-11.2,14.1c-2.3-3.6-0.3-6.4,0.6-8.6c3.1-7.6,3.4-7.5,11.5-5.6
			c6.1,1.4,11.6-1,16.4-3.8c3.3-1.9,7.8-3,9.7-7.2"/>
		<path class="st0" d="M408.4,127.3c-4.8-4.2-11.1-4.6-16.6-6.9"/>
		<path class="st0" d="M88.4,435.8c-0.1-0.9-0.5-2.1-0.1-2.7c4.2-7.1,2.8-14.1,0.5-21.5c-2.1-6.7-6.4-11-12.2-14.2"/>
		<path class="st0" d="M205.3,350.1c5.9,3,11.8,2,17.8,0.4"/>
		<path class="st0" d="M164.7,583.5c0.8-6,0.3-11.9,0-17.9"/>
		<path class="st0" d="M156,310.8c1.9-7.6,3.4-15.3,6.5-22.5"/>
		<path class="st0" d="M459.6,40.8c7,0.4,12.6-2.9,17.4-7.4c3.2-2.9,7.5-4.4,9.9-8.2c0.2-0.3,1.4,0,2.1,0.1"/>
		<path class="st0" d="M71.9,310.4c7.3-2.4,13.6-6.8,20.4-10.1"/>
		<path class="st0" d="M102.9,263.5c2.6,2.4,5.8,2,9,1.8c2.7-0.2,5.5,0,7.5,2.3"/>
		<path class="st0" d="M46.8,432.2l2.8,0.2c-0.9,6,3,11.7,1.2,17.8c-0.7,2.5-0.1,4.3,1.5,6.3c3.2,4,7,1.3,9.7,0.3
			c5.9-2.2,11.4-5.6,17.1-8.5c1.2-0.6,2.1-1.6,2.6-2.9c0.8-1.7,2.4-2.8,4.2-3"/>
		<path class="st0" d="M271.4,415c2.5-8.9,4-17.8,1.4-27"/>
		<path class="st0" d="M350,231.8c3.5,2.3,7.8,1,11.5,2.4c1.6,0.5,3.3,1,5,1.3"/>
		<path class="st0" d="M218.5,195.3c2.3-5.2,3.1-10.9,4.5-16.3"/>
		<path class="st0" d="M196.7,184c1.1-5.7,0.1-11.4-0.2-17.1"/>
		<path class="st0" d="M97.2,356.1c4.6,3.9,8.9,8.1,14.3,10.8"/>
		<path class="st0" d="M162.4,574.8c0.3-5.5-0.2-11-1.3-16.4"/>
		<path class="st0" d="M108,159.1c0-5.3,1.8-10.3,3-15.4"/>
		<path class="st0" d="M366.9,125c2.4-1.3,4.9-0.9,7.3-0.4c5.2,1.1,10.5,2.2,15.8,3.1c2,0.3,3.8,1.7,5.6,2.6
			c1.5,0.8,1.9,2.4,0.9,3.3c-3.9,3.4-1.8,6.9,0,9.8c1.7,2.6,1.1,4.2,0.2,6.9c-1.6,5-4.2,9.9-3.5,15.7c0.5,4.3-2.5,7.6-6,10.1"/>
		<path class="st0" d="M83.1,226.3c5.4-0.4,10.2,2,15.4,3"/>
		<path class="st0" d="M90.4,336.5c4,4.9,7.4,10.2,12.6,13.9"/>
		<path class="st0" d="M77.5,404c-3.8-6.3-1.3-16.7,4.8-21.2c1.6-1.4,2.9-3,3.9-4.8c1.6-2.4,3-4.9,4.6-7.4"/>
		<path class="st0" d="M200,364c1.3-4.8,0.4-10,3.3-14.4c3.4,0.8-0.1,2.5,0.3,3.7"/>
		<path class="st0" d="M204.9,244.3l10.8-12.5"/>
		<path class="st0" d="M41.9,346.3l-2,0.9c-3.4-5.2,0.9-10.1,0.6-15.1"/>
		<path class="st0" d="M278.2,191l15.4-0.6"/>
		<path class="st0" d="M102.7,140.8c0.3-5,0.7-10,1.1-15"/>
		<path class="st0" d="M376.8,308.8c4.2,1.1,8.4,0.3,12.5-0.1c0.9,0,1.8,0.1,2.6,0.3"/>
		<path class="st0" d="M145.9,304.7c0.6-5,3.4-9.3,4.4-14.1"/>
		<path class="st0" d="M379.8,209.3l13.3,6"/>
		<path class="st0" d="M250.5,203.3c4.8-3.7,10.7-6.1,14.4-11.2"/>
		<path class="st0" d="M200.8,144.3c2-2,2.3-3.9,1.5-6.9c-0.9-3.3-0.3-7,0.6-10.5c0.4-1.6,1.2-3.2,0.3-4.8"/>
		<path class="st0" d="M335.3,233.1c1.4-1.1,3.1-1,4.7-1c4.1-0.1,8.2,0.1,12-1.5c3.6-1.5,6.7,0.8,10,1.2"/>
		<path class="st0" d="M185.8,250.7l-2.8-15.5"/>
		<path class="st0" d="M264.2,447.2c2.7-4.1,2.9-8.8,3.4-13.5"/>
		<path class="st0" d="M147.8,582.8c-0.8-5-1.7-10-2.5-15"/>
		<path class="st0" d="M133.9,581.1c-1.3-5-3.1-9.9-3.4-15.2"/>
		<path class="st0" d="M146.4,588.7c-1.1-5.1-2.2-10.1-3.4-15.2"/>
		<path class="st0" d="M118.9,376.8c4,2.9,9.1,2,13.5,3.4"/>
		<path class="st0" d="M238.5,356.6c1.1-4.5,3.6-8.6,4.2-13.3"/>
		<path class="st0" d="M244.1,227.2c3.5-4.5,8.2-7.7,12.6-11.2"/>
		<path class="st0" d="M121.2,224.2c-3.4-3.1-7.4-5.5-11.6-7.4"/>
		<path class="st0" d="M275.6,81.6c3.1-3.6,6-7.3,6.6-12.2"/>
		<path class="st0" d="M212.4,212.6c4.8-2.9,10-5.1,15.5-6.4"/>
		<path class="st0" d="M215.3,409.9c2.1-4,3.6-8.3,4.5-12.8"/>
		<path class="st0" d="M-83.3,547.3c-0.3-2.1,2.4-2.1,2.8-3.7c-3.6-1.5-7.5-1.1-11.2-2"/>
		<path class="st0" d="M297,216.3c4.1,1.3,8.6,1.6,12.5,3.6"/>
		<path class="st0" d="M110.4,464.2c1.4-4.2,1.3-8.6,1.9-13"/>
		<path class="st0" d="M205.1,239.9c2.6-3.7,5-7.6,7-11.7"/>
		<path class="st0" d="M150.2,577.1c-0.9-4.7-1.8-9.4-2.7-14.1"/>
		<path class="st0" d="M132.1,560.1c-0.4-4.6-1.7-9-1-13.7"/>
		<path class="st0" d="M183.7,479c-3.8-3.3-7.4-6.9-10.7-10.8"/>
		<path class="st0" d="M275.3,199.2l12.4,4"/>
		<path class="st0" d="M139,528.7c-0.1-4.7-0.7-9.3-1.9-13.9"/>
		<path class="st0" d="M251.6,46.9c1.6-3.9,0.8-8.7,4.3-11.9"/>
		<path class="st0" d="M177.7,238.4c-2.2-2.6-3.9-5.6-5-8.8c-2.6-8-8.5-14.3-11.4-22.1"/>
		<path class="st0" d="M-71.4,426.7c4.2-2.7,8.8-2.5,13.5-2"/>
		<path class="st0" d="M179.7,484.3c-3.5-3.5-6.8-7.3-9.7-11.4"/>
		<path class="st0" d="M338.9,72.3c0.1-4.3,1.9-8.2,2.6-12.3"/>
		<path class="st0" d="M92.2,456.5c-0.7-0.3-1.6,0-2-0.9c-1.9-3.8-5.2-6.2-8.6-8.4"/>
		<path class="st0" d="M173.6,376.2c1.6-2.6,3.9-4.8,6.6-6.3c1.5-0.9,3.5-0.7,4.7,0.6"/>
		<path class="st0" d="M264.2,61.2c1.3-4,1.5-8.3,3.5-12.1"/>
		<path class="st0" d="M168.4,390.1c1.4-2.8,1.9-5.9,3.8-8.5c0.6-0.8,0.4-2.3,0.5-3.4"/>
		<path class="st0" d="M131.3,294.8c2.5-4.1,6.3-6.9,9.7-10.1"/>
		<path class="st0" d="M204.1,233.3l5-11.3"/>
		<path class="st0" d="M181.4,481.1c-3.6-3.3-6.9-6.8-9.9-10.5"/>
		<path class="st0" d="M-56.2,444.4c-4.3,0.3-8.5-0.3-12.8,1.8c-2.2,1.1-2.2,2.9-3.6,4.1c-5.4,4.3-11.4,7.8-17.7,10.6
			c-4.5,2-6.1,5.8-6.9,10c-0.9,5.1,2.8,7.6,7.9,5.6"/>
		<path class="st0" d="M133.1,502.1c0.2-4.1-0.8-8.3,1.7-12.1"/>
		<path class="st0" d="M89.4,360.4c-4.1-5.9-5.9-12.5-6.3-19.5c-0.1-0.5-0.3-1-0.5-1.5"/>
		<path class="st0" d="M146.9,451c-4.9-4.7-6-11.1-7.7-17.2c-0.2-0.9,0.5-2.3,1.2-3.2c3-4.2,3.6-9.3,5.2-13.9"/>
		<path class="st0" d="M127.2,222.1l10.7,7.2"/>
		<path class="st0" d="M254.1,148.2c2.1-3.9,5.1-7.2,8-10.5"/>
		<path class="st0" d="M-41.1,450.4c-3.4,1.8-6.5,0-9.7-0.6c-1.7-0.3-3.4-0.8-5.1-1.3"/>
		<path class="st0" d="M403.5-26.6c2.2,0.7,3.5,0.8,5.2-1.8c2.5-3.8,4.4-7.5,4.5-11.9c0.2-6.6,3.9-12.6,3.5-19.3
			c-0.2-3.2,0.8-6.7-2.5-9.3c-0.9-0.8-2.1-1.2-3.3-1.2"/>
		<path class="st0" d="M411.2,26.8c-0.5-5.3,0.5-10.4,1.5-15.6c-4-1.8-5.9,0.2-6.9,3.5c-0.5,1.7-1.4,3.4-2.6,4.7"/>
		<path class="st0" d="M200.8,493.1l-9-10.3"/>
		<path class="st0" d="M127.2,264.7c-1.9-2.7-6.8-4.1-10-3"/>
		<path class="st0" d="M263.2,258l6.1-10.1"/>
		<path class="st0" d="M465.2,32.8c2.8,0.8,5.5-0.5,8.2-0.6c1.2-0.1,2.5-1,3.5,0.4"/>
		<path class="st0" d="M336.6,79.8c4.2,0.7,8.6-0.8,12.9,1.1c0.5-1.9,2.3-2.9,2.4-4.9"/>
		<path class="st0" d="M247.8,387.6c3.5-3.2,8.7-4.3,11.2-8.9"/>
		<path class="st0" d="M143.8,591.7c0.3-2.7-0.7-5.2-1.7-7.6c-0.9-2.1-1.8-4.2-1-6.5"/>
		<path class="st0" d="M89.7,441.1c0.6,2.3,1,4.7,3.4,5.8c5.4-1.8,6-2.5,6.1-8.3"/>
		<path class="st0" d="M295.4,85.2l11.8-2.4"/>
		<path class="st0" d="M198.1,360.8c1.1-3.5,1.2-7.2,1.4-10.9"/>
		<path class="st0" d="M201.4,497.8l-8.4-9.3"/>
		<path class="st0" d="M364.5,175.5c3.3-1.3,6.5-2.6,9-5.3c1-1,2.8-1.4,4.4-1.6c4-0.5,8.8-4.3,10.1-8.3"/>
		<path class="st0" d="M157.1,585.2c-1,2.7,0,5.6-1.1,8.2c-0.2,0.8,0.3,1.6,1.1,1.8c0.2,0,0.4,0,0.6,0"/>
		<path class="st0" d="M248.7,44.4c1.4,2.4,4.3,3.7,4.7,7.2c3.7-3.1,2.4-7.6,4.6-10.7"/>
		<path class="st0" d="M209.1,261.5c3-3.5,6.8-4.1,11.2-3.5c2.4,0.2,4.8,0.2,7.2,0.1"/>
		<path class="st0" d="M321.2,273.4c0.1-3.8-0.5-7.6-1.7-11.2"/>
		<path class="st0" d="M263.3,229.3c3.4-3.1,7.7-4.7,11.9-6.4"/>
		<path class="st0" d="M-54.6,445.3c3.6-0.9,6.9,1.3,10.4,1.3c2.2,0,4.9-0.9,6.2,2"/>
		<path class="st0" d="M44.4,556L44,545.2"/>
		<path class="st0" d="M373.6-19.7c1.3,0.2,1.3-1,1.9-1.8c1.3-1.8,2.8-3.4,4.4-4.9c4.9-5.1,11.5-8.6,15.3-14.5c2-3,3.4-6.4,4.2-10"
			/>
		<path class="st0" d="M254.8,52.2c0.4,0.9,1,1.7,1.6,0.4c1.3-2.8,2.4-5.7,3.5-8.5"/>
		<path class="st0" d="M131.8,167.8c-1.1-1.5-2.9-2.4-4.7-2.4c-5,0.2-6.6-3.4-7.6-7c-1.1-3.9-2.4-8-0.6-12.2"/>
		<path class="st0" d="M226.5,404.6c0.9-2.9,1.8-5.8,2.6-8.7c1.3-4.5,4.3-8.2,8.4-10.4c0-2.9-0.9-4.9-4.3-4.3"/>
		<path class="st0" d="M135.5,344.2c1.7-3.1,3.1-6.4,5.8-8.9"/>
		<path class="st0" d="M364.1,134.2c3.5-0.8,6,2.3,9.2,2.7"/>
		<path class="st0" d="M246.9,37.2l2.3-9.3"/>
		<path class="st0" d="M390.7,67.4c4-2.1,8.8-2.5,12.5-5.4"/>
		<path class="st0" d="M194.3,390.3c1.6-2.9,3.2-5.8,4.9-8.6"/>
		<path class="st0" d="M372.8,42.3c5.5-2.8,10.7-0.4,15.9,0.8"/>
		<path class="st0" d="M118.9,130.1l9,3.6"/>
		<path class="st0" d="M243.8,49.8c3.1,0.5,6.1,2.1,9.4,1.9"/>
		<path class="st0" d="M134.2,422.7c1.2,3.5,1.8,7.4,4.6,10.1"/>
		<path class="st0" d="M201.6,410.9c0-3.3,3.5-5.6,2.7-9.2"/>
		<path class="st0" d="M174.5,272.5c0.2-1.9,1.7-2.9,2.8-4.3c0.9-1.1,2.3-2.2,1.5-4.1"/>
		<path class="st0" d="M383.3,125.5c2.9-2.9,7.2-3.7,9.8-6.9c0.7-0.9,1.8-0.5,2.7-0.2l6.7,1.7"/>
		<path class="st0" d="M95.5,462.7c-3.9-4.8-3.7-10.4-3.2-16"/>
		<path class="st0" d="M296.9,236.4c-2-2.1-4.1-4-5.6-6.7c-1.1-1.9-1.7-3.5-1.2-5.6"/>
		<path class="st0" d="M239.9,63.6l9,1.8"/>
		<path class="st0" d="M279.5,48.5c2.8-2.4,5.3-5.3,8.9-6.7"/>
		<path class="st0" d="M184.6,382.5c1-3.1,3.2-5.5,4.8-8.2"/>
		<path class="st0" d="M99.5,289.5c3.9-1,6.4-4.9,10.6-4.9"/>
		<path class="st0" d="M293.9,85.7c3.2-3,1.4-6.9,1.7-10.3"/>
		<path class="st0" d="M176.1,33.8c-1.2,5.3-2.5,10.6-0.5,16.1c0.6,1.7,0.9,3.3,2.6,4.2"/>
		<path class="st0" d="M6,498.5c4.1-4.6,5.5-9.6,1.8-15l5.8-4.6"/>
		<path class="st0" d="M293.8,218.2c2.8,0.9,5.8,0.9,8.3,2.5"/>
		<path class="st0" d="M327.3,82.9c2.5-1.1,5-2.1,7.5-3c0.8-0.2,1.3,0,1.6-1c1.4-5.1,5.4-8.9,6.6-14"/>
		<path class="st0" d="M203.5,492.9c-2-3-5.2-5.2-5.8-9.1"/>
		<path class="st0" d="M242.6,24c-1-1.8-3.8-2.7-3.1-5.2c0.5-2-1.2-4.7,1-5.9c2.6-1.3,5.3,0.1,7.6,1.4c2.1,1,3.9,2.5,5.2,4.3
			c1,1.4,2.6,2.3,4.3,2.5"/>
		<path class="st0" d="M270.1,96.7c3.4-1,5.8-4.2,9.6-4.3"/>
		<path class="st0" d="M-7.7,386.7c0.5-0.8,1.3-1.5,1.4-2.3c0.2-2.1,3.6-4,1.8-5.6s-4.8-2-7.5-1.6c-2.1,0.3-4.3-1.7-6.3,0.1"/>
		<path class="st0" d="M230.2,264.9c-1.9-2.5-5.7-3-7-6.2"/>
		<path class="st0" d="M364.1,71.9c3.9,0.6,6.3-3,9.8-3.4"/>
		<path class="st0" d="M291.3,242.6c0.8-2.8,1.1-5.8,3-8.2"/>
		<path class="st0" d="M-70.8,469c3.1-0.6,6.1-1.7,8.9-3.2"/>
		<path class="st0" d="M390.9,195.5c3.3,1.9,7.5,1.6,10.6,4"/>
		<path class="st0" d="M151.1,509.3c-2.2-2.4-3.7-5.4-4.1-8.6"/>
		<path class="st0" d="M171.2,552c-2.9-2.3-1.4-6-2.7-8.8"/>
		<path class="st0" d="M274,29.2l1-11"/>
		<path class="st0" d="M110.9,449.6c3.2-2.4,2.1-6.4,3.7-9.4"/>
		<path class="st0" d="M157.7,609.5c-1.6-2.9,0.4-5.6,0.7-8.3"/>
		<path class="st0" d="M-10.8,342.1c0.4-2.7,2.1-5.3,1.2-8.2"/>
		<path class="st0" d="M333.2,282.7l8,0.2"/>
		<path class="st0" d="M333.4,285.4c2.6,0.6,5.1,1.5,7.8,1.1"/>
		<path class="st0" d="M103.5,284.3c3.1-0.5,5-4.4,8.8-2.7"/>
		<path class="st0" d="M147.7,363.4l4-7"/>
		<path class="st0" d="M117.5,421.7c2-2.1,4.5-0.4,6.3,0c6.3,1.3,12.7,0,18.9,1.4"/>
		<path class="st0" d="M230.9,256.6c-1.4-2.5,0.3-5.1-0.3-7.7"/>
		<path class="st0" d="M277.8,53.4c1.9-5.1-0.1-9.8-1.3-14.6c-0.6-2.6-0.5-5.3-1.9-7.8c-0.6-1.2-1.7-1.1-2.3-1.8"/>
		<path class="st0" d="M57.9,452l14.6-15.2"/>
		<path class="st0" d="M236,381c1.1-5.1,5.2-8.1,8.3-11.8c0.5-0.6,1.2-0.1,1.8,0"/>
		<path class="st0" d="M402.2,21.5c0-3.2,0.5-6.4,1.5-9.5"/>
		<path class="st0" d="M-49.7,427.7c2.2,1,4.7,3.5,6.1-1"/>
		<path class="st0" d="M265.6,66.1c0.3,1.4-1.8,2.2-1,3.8c3.6-1.4,3.6-1.4,4.4-6.5"/>
		<path class="st0" d="M-84.8,457c-5.4-5.9-5.2-10.8,0.6-18.6"/>
		<path class="st0" d="M-92.8,471.1c5,1,10.1,2.1,15-0.7c0.7-0.4,2,0.1,3,0.2"/>
		<path class="st0" d="M217.6,91.6l3-6.4"/>
		<path class="st0" d="M196.2,382.7c0.6-4.9-4.3-5.5-6.5-8.3c-0.9-1.2-2.5-1.9-3.7-2.8"/>
		<path class="st0" d="M153.4,385.4c1.2-2.1,1.9-4.5,3.8-6.2"/>
		<path class="st0" d="M269.8,398c0.2-2.4-0.5-4.7-0.9-7"/>
		<path class="st0" d="M173.8,393.2c0.6-2.1,0.7-4.4,2.4-6.1"/>
		<path class="st0" d="M99.9,391.7l8.2,3"/>
		<path class="st0" d="M253.9,70.3l10.8,1.8"/>
		<path class="st0" d="M189.2,249.8l1.6-6.3"/>
		<path class="st0" d="M275,205.9c2.5-0.6,4.2,1.1,6.2,2"/>
		<path class="st0" d="M393.6,168.4l6.4,1.2"/>
		<path class="st0" d="M-54.6,436.3l1.9-1.8c-1.6-2.3-3.2-1.3-5-0.4c-1.9,1-3.6,2.7-6,2.5"/>
		<path class="st0" d="M260.4,187c3.2-2,6.7-1.8,10.2-1.5"/>
		<path class="st0" d="M253.1,48.1c2.2-1.5,1.5-4.1,2.4-6.1"/>
		<path class="st0" d="M396.7,152.6c2.2,0.3,4.2,1.5,6.4,1.2"/>
		<path class="st0" d="M144.9,358.7c1.8-1.6,2.5-3.8,3.7-5.8"/>
		<path class="st0" d="M-69.5,446c0.6-2-0.6-4.2,0.9-6.3c-1.8,0.2-3.3,0.6-4.7-0.1"/>
		<path class="st0" d="M222.2,78.5c0.4-2,0.7-4,1.1-6"/>
		<path class="st0" d="M117.5,135.5l5.9,1.5"/>
		<path class="st0" d="M-80.5,439.7l-3.4-0.9c2.4-8.3,8.8-12.3,16-10.3"/>
		<path class="st0" d="M116.3,334.9l0.2-6.2"/>
		<path class="st0" d="M-35.9,554.7c1.8-3.7-1.3-5.7-2.8-8.3"/>
		<path class="st0" d="M285.3,384.4c-0.3-2.3-1.2-4.5-2.4-6.4"/>
		<path class="st0" d="M397.1,133l5.5,1.4"/>
		<path class="st0" d="M40.1,544.6c3.7,0,7.5,0.8,10.9-0.9c2-1,2.9,0.6,4.4,0.7"/>
		<path class="st0" d="M365.2,45.8c3.7-1.3,7.5-2,11.3-0.3"/>
		<path class="st0" d="M263.1,67.7c-1.2-5.2-4.4-9.3-7.4-13.5"/>
		<path class="st0" d="M212.1,258.2c-5.7-4.8-12.6-6.7-19.6-8.5"/>
		<path class="st0" d="M74.8,434.7c2.4-2.9,2.4-6.6,3.4-9.9"/>
		<path class="st0" d="M145.2,278.6c1.5-1.9,3.4-2.7,5.8-1.7"/>
		<path class="st0" d="M163.9,64.8c-0.1-2.5-3.4-3.4-3-6.1"/>
		<path class="st0" d="M229,108.8c0.6-1.8,0.6-3.8,1.8-5.4c2.3,1.2,0.2,2.8,0.3,4.1"/>
		<path class="st0" d="M378.4,211.2c1.6,1.2,3.6,1.2,5.4,1.8"/>
		<path class="st0" d="M141.3,526.6c-0.9-3.5,1.5-7.6-1.8-10.7"/>
		<path class="st0" d="M83.8,352.3c-5.7,1.6-10.9-0.3-15.9-2.6"/>
		<path class="st0" d="M216.6,401.3l1.4-5.5"/>
		<path class="st0" d="M300.3,346.1c-1.7-1.4-2.1-4.1-4.7-4.3"/>
		<path class="st0" d="M272.4,201.7c2-0.4,3.7,0.6,5.6,1"/>
		<path class="st0" d="M160.7,57.7c-1.4-2.1-2.8-4.3-4.2-6.4"/>
		<path class="st0" d="M386.4-19.2c1.6,0.6,3.5,0.4,5,1.7"/>
		<path class="st0" d="M-39.6,565.9c2.8-2.1,2.7-5.6,3.9-8.4"/>
		<path class="st0" d="M400.2-51.1c1.7-2.8,2.9-5.8,3.6-8.9c0.7-3.6,4.2-5.6,5.3-9"/>
		<path class="st0" d="M226.2,196.8l1.7-5"/>
		<path class="st0" d="M393.6,38.1h5.4"/>
		<path class="st0" d="M102.1,391.8c-0.6-2-2.6-2.7-3.9-4.1"/>
		<path class="st0" d="M272.6,16.8c1,0.7,1.8,2.3,3.4,0.8c-0.7-4,0.2-7.4,3.8-9.7c1.2-0.8,1.1-2.2,2.1-3.1"/>
		<path class="st0" d="M21.3,514c2.9-1.6,4-5.6,7.8-6.1"/>
		<path class="st0" d="M309.2,253.4c0.5-1.7-1.2-3.9,1.3-5.1"/>
		<path class="st0" d="M-94.4,552.6c-0.5-1.4,1.1-4.8-2.8-3"/>
		<path class="st0" d="M113.2,413.8c0.7-1.6,2.1-2.9,2.1-4.9"/>
		<path class="st0" d="M168.8,588.5c-2.1-0.9-2.4-2.5-1.6-4.4"/>
		<path class="st0" d="M188.2,257.1c1.7,0.6,3.7-1.1,5.2,0.8"/>
		<path class="st0" d="M110.2,318.2c-2.1,2.6-2.3,6-3.4,9c-0.6,1.7,1,3.7,3.2,4.4"/>
		<path class="st0" d="M392.4,171.3l5.1,1.3"/>
		<path class="st0" d="M373.5,128.9c-2.5-1.3-5.5-0.6-7.9-2.7c-0.8-0.7-2.9,0.6-4,2"/>
		<path class="st0" d="M267.2,299.3c0.6-1.7-1.3-3.6,0.4-5.3"/>
		<path class="st0" d="M159.4,601c-2.5-2.2-0.6-4.9-0.8-7.4"/>
		<path class="st0" d="M253.5,25.4c0.6-1.6,1.1-3.3,1.7-4.9"/>
		<path class="st0" d="M300.1,336.2c-1.7-0.9-2.3-3.2-4.5-3.4"/>
		<path class="st0" d="M243.3,30c0.5-1.7-0.5-3.1-0.6-4.6c-0.1-0.7,0.4-1.4,1.1-1.5c0.1,0,0.1,0,0.2,0"/>
		<path class="st0" d="M299.2,339.6c-1.6-0.6-1.9-3.2-4.2-2.8"/>
		<path class="st0" d="M155.7,512.3c1.2,1.2,2.1,2.9,4.2,2.8"/>
		<path class="st0" d="M118.1,138.4l4.6,1.2"/>
		<path class="st0" d="M159.7,385.2c0-1.6,1.9-2.8,1.2-4.6"/>
		<path class="st0" d="M388.2,197.1l4.6,1.2"/>
		<path class="st0" d="M101.9,119.1c0.2-3.2-2.8-5.1-3.4-8"/>
		<path class="st0" d="M-41.1,514.9c2.4,0.4,2.7-2.3,4.3-3"/>
		<path class="st0" d="M202.2,487.2c-0.5-0.6-0.8-1.4-1.4-1.6c-3.2-1.5-4.8-4.4-6.2-7.4"/>
		<path class="st0" d="M116.7,413.8c0.5-1.5,1-3,1.6-4.5"/>
		<path class="st0" d="M390.3,174.3l4.6,1.2"/>
		<path class="st0" d="M87.9,332.3c-0.8-1.5-0.5-3.9-3-4.3"/>
		<path class="st0" d="M401.4,142.6c-1.5-0.5-2.8-1.8-4.6-1.2"/>
		<path class="st0" d="M331,80.6l1.1-4.2"/>
		<path class="st0" d="M230.9,103c1.2-1.1,0.9-2.8,1.5-4.1"/>
		<path class="st0" d="M98,481.7c0.8-1.3-0.4-3.2,1.5-4.1"/>
		<path class="st0" d="M214.6,237.8l3.2-3.7"/>
		<path class="st0" d="M380.2,39.7c6.7-2.6,11.8-7.5,17.3-11.8c0.8-0.6,0.6-1.4,0.9-2"/>
		<path class="st0" d="M109.3,430.8c-0.6-1.5,0.5-2.9,0.6-4.3"/>
		<path class="st0" d="M335,307.8l3.9,2.3"/>
		<path class="st0" d="M331.2,112c1.5,0.3,3-0.6,4.4,0.2"/>
		<path class="st0" d="M232.8,104.4c1.6-0.6,2.6-2.1,2.7-3.8"/>
		<path class="st0" d="M181.3,267c0.5-1.4,1-2.7,1.5-4.1"/>
		<path class="st0" d="M264.2,186.2c1.1,1.2,2.8,0.9,4.1,1.5"/>
		<path class="st0" d="M198.3,388.6c0.1-1.7,1.4-2.7,2.3-3.9"/>
		<path class="st0" d="M268,74.7l-0.9,2c-2.5-1.6-2.4-3.8-1.6-6.2"/>
		<path class="st0" d="M233.6,102.8c-0.6-1.6,0.5-2.9,0.6-4.3"/>
		<path class="st0" d="M282.5,214.9c1.2-2.1,2.7-0.3,4.1-0.3"/>
		<path class="st0" d="M242.9,42.5c1.5-0.1,2.7,1.9,4.3,0.6"/>
		<path class="st0" d="M344.3,168.6c0.4-2.2,2.3-2.4,3.9-3.1"/>
		<path class="st0" d="M366.1,137.3c1.5-0.6,2.9,0.5,4.3,0.6"/>
		<path class="st0" d="M157.4,383.7c0.2-1.4,0.8-2.6,1.8-3.6"/>
		<path class="st0" d="M389,122.5l3.7,1.4"/>
		<path class="st0" d="M247.6,41.4c1.1-3.1-2.7-4-2.8-6.5"/>
		<path class="st0" d="M167.5,252.4c-0.7-1.5-1.3-3-2-4.5"/>
		<path class="st0" d="M201.1,406.3l1-3.8"/>
		<path class="st0" d="M396.9,35.4l3.8,1"/>
		<path class="st0" d="M194.7,370.7c0.1-1.3,1.3-2.6,0.1-4"/>
		<path class="st0" d="M197.6,405.5c0.5-1.2,0.9-2.5,1.4-3.7"/>
		<path class="st0" d="M396.1,155.2l3.8,1"/>
		<path class="st0" d="M157.4,560.6c1.2-1,1-2.4,1.4-3.7"/>
		<path class="st0" d="M-80.1,452.3l1-3.9c-2.8,0-2.7,2.5-4,3.6"/>
		<path class="st0" d="M118.3,141.1l3.8,0.9"/>
		<path class="st0" d="M117,132.3l3.9,0.5"/>
		<path class="st0" d="M113.1,333.7c0.4-1.2,0.9-2.5,1.4-3.7"/>
		<path class="st0" d="M94,368.8c-1.1-0.8-1.9-2.1-3.5-2.2"/>
		<path class="st0" d="M312.3,255.1l1-3.8"/>
		<path class="st0" d="M99.9,314.7c1.1-0.8,0.8-2.2,1.3-3.3"/>
		<path class="st0" d="M487,24.4c1.7-2.4,2.2-4.9,0.5-7.5"/>
		<path class="st0" d="M463.7,61.9c-1.1-2.2,0.2-4.1,0.6-6.1"/>
		<path class="st0" d="M307.4,244.4c0.9-1.1,2.2-1.9,3.7-2.2"/>
		<path class="st0" d="M391.4,193.4l3.4,0.8"/>
		<path class="st0" d="M240.6,37.4l-3.1-2.1"/>
		<path class="st0" d="M-57.4,433.4c-0.8-1.1-2.2-0.8-3.3-1.3"/>
		<path class="st0" d="M248.2,155.3c1.9,0.1,1.6-1.6,2-2.6"/>
		<path class="st0" d="M278,302.9l0.4-3.5"/>
		<path class="st0" d="M247.9,153c1.1-0.8,0.8-2.2,1.3-3.3"/>
		<path class="st0" d="M235.2,373.7l3.5,0.4"/>
		<path class="st0" d="M324.7,323.6c-0.8-1-2.4-1.4-1.9-3.2"/>
		<path class="st0" d="M382.1-27l6,1"/>
		<path class="st0" d="M227.4,390.5l3.4,0.8"/>
		<path class="st0" d="M81.2,323.5c0.8-1.7,2.1-0.7,3.3-0.5"/>
		<path class="st0" d="M323.3,222c0.5-1.8,1.7-1.4,3-1"/>
		<path class="st0" d="M160.1,600.2c1.1-0.8,0.8-2.2,1.3-3.3"/>
		<path class="st0" d="M109.3,457.7c0-1.2,1.1-2.2,0.4-3.5"/>
		<path class="st0" d="M158.4,592.6c-0.6-1.2,0.4-2.3,0.4-3.5"/>
		<path class="st0" d="M395.1,157.2c0.8,1.1,2.2,0.8,3.3,1.3"/>
		<path class="st0" d="M-58.6,459.5c2-0.5,4.2,0.9,6-0.7"/>
		<path class="st0" d="M385.4,99.2c1.2-0.6,2.3,0.4,3.5,0.4"/>
		<path class="st0" d="M196.8,355.1c0-1.2,1-2.2,0.4-3.5"/>
		<path class="st0" d="M264,69.2l-3.4-0.9"/>
		<path class="st0" d="M244.2,41c1.6,0.5,3.6,0.3,3.8,2.7"/>
		<path class="st0" d="M238.5,40.5l3,0.7"/>
		<path class="st0" d="M330.6,94.4l3,0.3"/>
		<path class="st0" d="M397.5,131.3c1-1.1,2.1-0.3,3.2-0.1"/>
		<path class="st0" d="M-98.2,549.8l-5.1-1.3"/>
		<path class="st0" d="M371.6,127.5c1-1.1,2.1-0.3,3.2-0.1"/>
		<path class="st0" d="M214.9,93.6c0.4-1,0.2-2.3,1.6-2.7"/>
		<path class="st0" d="M269.1,52.6c0.1-1,0.2-2,0.3-3"/>
		<path class="st0" d="M216.3,94.9c0-1.2,1-2.2,0.4-3.5"/>
		<path class="st0" d="M99.5,293.1l3.1,0.3"/>
		<path class="st0" d="M78.8,411.5l-0.8-5.6"/>
		<path class="st0" d="M-52.5,433.3c1.8-0.8,3.8-1,5.2-2.7"/>
		<path class="st0" d="M-39.7,541.2c-1.6-2.7,1.9-5.5-0.2-8.1"/>
		<path class="st0" d="M373.2-16.7c0.6-1.9-1-3-1.6-4.4"/>
		<path class="st0" d="M-56.1,442.2c0.1,2.3,0.7,4.3,3.2,5.3"/>
		<path class="st0" d="M-39.7,548.4l1.1-4.2"/>
	</g>
</g>
</svg>
