<?xml version="1.0" encoding="utf-8"?>
<!-- Generator: Adobe Illustrator 24.0.1, SVG Export Plug-In . SVG Version: 6.00 Build 0)  -->
<svg version="1.1" id="圖層_1" xmlns="http://www.w3.org/2000/svg" xmlns:xlink="http://www.w3.org/1999/xlink" x="0px" y="0px"
	 viewBox="0 0 245.3 323.4" style="enable-background:new 0 0 245.3 323.4;" xml:space="preserve">
<style type="text/css">
	.st0{opacity:0.5;}
	.st1{clip-path:url(#SVGID_2_);}
	.st2{fill:none;stroke:#FFFFFF;stroke-miterlimit:10;}
</style>
<title>資產 10</title>
<g id="圖層_2_1_">
	<g id="登入註冊">
		<g class="st0">
			<g>
				<defs>
					<rect id="SVGID_1_" width="245.3" height="323.4"/>
				</defs>
				<clipPath id="SVGID_2_">
					<use xlink:href="#SVGID_1_"  style="overflow:visible;"/>
				</clipPath>
				<g class="st1">
					<path class="st2" d="M74.6,189.2c-4.8,6.7-10.7,12.6-17.4,17.5c-3.2,2.4-6.7,4.3-10.5,5.7c-3.5,1.3-7.3,1.6-10.9,0.9
						c-3.3-0.7-5.2-2.7-5.1-6.2c0.1-5.6-1.4-11-1.5-16.6c-0.1-2.3,0.1-4.7,0.6-7c0.6-3,0-6.2,0.5-9.3c0.3-2.4,1.2-4.6,2.5-6.6
						c3.2-4.6,6.4-9.2,10-13.6c2.1-2.5,4.4-5.1,7.9-5.9c0.2-0.1,0.5-0.2,0.7-0.2c3.7,1.4,5.6-1.5,7.8-3.5c1.6-1.4,3.6-1.8,5.4-2.9
						c1.5-1,3-1.8,3.7-3.4c0.9-2.2,2.8-2.8,4.8-3.1c3.1-0.5,6.4-0.2,9.4,0.8c3.3,1,6.4,1.2,9.1-1.4s5.7-5.1,8.5-7.7"/>
					<path class="st2" d="M93.9,260.4c-2,2.8-5.5,4-8.7,2.9c-3.4-0.9-7-1-10.3-2.5c-3.3-1.4-5.7-4.3-6.5-7.8c-0.7-3.3-3-6.1-6.1-7.4
						c-4.3-1.9-6.4-4.9-6.3-9.6c0-1.7-0.2-3.3-0.7-4.9c-1.7-5.6,0-10.3,3.7-14.5c2.4-2.6,4.2-5.6,5.6-8.9c2-5.2,6-9,10.2-12.4
						c3-2.5,5.2-5.8,8.4-7.9c1.4-0.9,2.2-2.6,4.1-3"/>
					<path class="st2" d="M173.9,110.4c1.5,1.8,3.8,1.6,5.7,2.3c3.9,1.4,7.1,4,9.3,7.5c2.3,3.7,5.3,6.8,8.8,9.2
						c4.5,3,7,7.8,9.9,12.2c1.2,2,2.1,4.1,2.5,6.4c0.9,3.8,0,5.1-3.7,5.5c-2.1,0.2-4.3,0.3-6.4,0.4c-4,0.3-7.8-1-11.8-0.8
						c-1.4,0.1-2.3,0.7-3.6,1c2.8,2.9,6.1,3.6,9.6,3.9c0.9,0.1,1.9,0.3,2.8,0.5"/>
					<path class="st2" d="M152.5,332.1c-1.9-1.4-2.4-3.6-3-5.5c-1.7-5.6-3-11.3-2.5-17.3c0.6-7.4,4-13.7,8.8-19.1
						c4.5-5.1,9.5-9.7,14.2-14.5"/>
					<path class="st2" d="M114.1,215.6c0.9-1.3,2.9-0.7,3.8-2.1c1.2-1.9,3.2-2.9,5-4c1.2-0.7,0.8-2.3,1.2-3.3c0.7-1.5-0.2-2.1-0.8-3
						c-1.7-2.5-3.6-4.8-6.9-5.4c-1.9-0.3-1.8-2.6-2.1-4c-0.9-4.2-1.7-8.4-0.5-12.8c0.8-2.9,2.5-5.5,5-7.3c3.2-2.2,5.6-5.3,6.9-8.9
						c1.9-5.3,5.6-9.3,12.1-9.2c0.8,0,1.6-0.2,2.3-0.3"/>
					<path class="st2" d="M230.4,196.9c4.3-1.9,8.2-1.5,11.8,1.7c1.3,1.2,2.3,2.7,1.3,4.4c-0.9,1.4-2.6,2.2-4.3,1.8
						c-2.7-0.3-5.1-1.5-6.3-4c-1.9-4-5.5-5.4-9.4-6.3c-0.4-0.1-0.7-0.1-0.9-0.5c-0.8-2-2.6-3.3-4.3-4.5c-3.6-2.5-4.6-6.2-4.6-10.2
						c0-1.7,1.5-3.1,2.3-4.7c-3.8-4-9.1-6.4-14.6-6.4c-4.5-0.1-8.4-1.7-12.3-3.8c-4.1-2.3-8.5-4.2-13-5.7c-0.9-0.3-1.8-0.3-2.7-0.1"
						/>
					<path class="st2" d="M135,90.1c-3.2-4.3-6.9-8.2-9.6-12.8c-4-7-4.7-14.4-3.5-22.1c0.6-3.8,2-7.5,2.3-11.3
						c0.3-2.9,0.9-5.8,1.1-8.7c0.1-0.8-0.4-1.4-0.6-2"/>
					<path class="st2" d="M299.3,322.2c-3.2-2.8-7.6-3.7-11-6.1c-3.3-2.4-5.3-5.3-5.6-9.3c0-1.6-0.9-3-2.4-3.5
						c-4.3-1.9-7.5-5.2-11-8.1c-1.8-1.5-2.4-3.8-3.5-5.7c-1.3-2.4-2.2-4.9-2.6-7.6c-1-6.2-4.6-11.4-7.6-16.7c-2.3-4-4.2-8.2-7-11.8
						c-0.9-1.4-2.1-2.6-3.4-3.6c-2.1-1.3-2.7-4-4.4-5.9c-0.8-0.8-1.5-1.6-2-2.6"/>
					<path class="st2" d="M116.9,231.6c-0.5,3.6-0.1,7.2,1,10.6c1,2.9,1,6,1.8,9c0.5,1.7,0.2,3.5-0.7,5c-1,1.7-1.9,3.4-2.6,5.2
						c-0.8,2-2.9,2.6-5.2,2.4c-3.6-0.4-6.8-1.9-10.4-2.1c-1.1,0.1-2-0.8-2.1-1.9c0-0.2,0-0.3,0-0.5"/>
					<path class="st2" d="M146.2,64.5c4.3-6,9.9-10.8,14.5-16.5c2.4-3,4.9-5.9,6.2-9.4c2.2-5.9,5.8-11.5,5.7-18.1
						c-0.1-2.9,0.2-5.8-0.4-8.6"/>
					<path class="st2" d="M220.1,326.8c-0.6-3.3,1.8-5.7,2.5-8.6c0.8-2.8,1.3-5.6,1.7-8.5c2.2-1,4.8-1.4,7.2-2.4
						c6.4-2.7,11.8-6.4,15.2-12.6c1.6-2.9,1.2-6.1,0.6-9.1c-0.5-2.1-1.5-2.1-3.7-1.3c-4.8,1.9-7.2,6-9.8,10"/>
					<path class="st2" d="M102.7,20.3c1.6-2.2-0.3-4-1-5.8c-1.3-3.6-4.3-5.5-7.6-7c-1.8-0.8-2.4-3.2-4.8-3.2
						c-1.4,3.5-3.7,6.8-3.2,11.1c0.2,2.4-0.6,4.8-1.4,7.2c-1.4,4.1-2.1,8.3,0.2,12.3c1.4,2.4,3.3,4.6,5.4,6.4
						c3.3,2.9,4.1,7.1,2.3,11.3c-1.7-0.4-2.3-1.9-2.9-3.2c-0.7-1.8-2.2-3.1-3.9-3.8c-2.6-0.9-4.5-3.1-4.8-5.8
						c-0.2-1.2-0.6-2.3-0.8-3.4c-0.8-3.3-1.5-4.6-5.9-4.4c-4,0.2-7.8,0.4-11.1,3c-1.5,1.1-3.5,0.6-4.4-1.5c-1.3-3.5-4.2-5.8-6-8.9
						l-3.5-6.1"/>
					<path class="st2" d="M218.8,320.3c-2.1-2.8-2.7-6.2-3.5-9.5c-0.3-1.8-1.7-3.3-3.4-3.7c-10.7-3.3-17.8-10.6-22.3-20.6
						c-0.9-2.1-1.6-4.5-0.6-6.9c0.3-0.7,0.3-1.5,0-2.2"/>
					<path class="st2" d="M100,120.4c-1.8-0.6-3.5,0.1-5.1,0.8c-2.7,1.1-5.5,2-8.3,2.6c-3.4,0.7-6.3-1-9.3-2.3
						c-3.9-1.7-5.2-5.5-7.2-8.6c-0.6-1.2-1.4-2.4-2.2-3.6c-0.8-1-1.7-2.2-3.4-1.4c-0.6,0.1-1.2,0.1-1.7-0.3
						c-2.6-1.4-5.6-0.8-8.3-1.2c-0.9-0.1-2.4,0.1-2.8,1.2c-0.6,1.4-1.7,2.5-3,3.1"/>
					<path class="st2" d="M276,244.7c-2.7,0.4-5.5,0.4-8.2,1.1c-0.7,0.3-1.5,0.2-2.2-0.1c-3.6-1.9-7.5-1.1-11.3-0.9
						c-0.8,0.1-1.4,0.5-2.4,0.2c-4-1.4-8.2-2.3-11.7-5.1c-2.1-1.8-4.4-3.4-6.9-4.6c-2.9-1.3-5.1-3.5-7.2-5.7
						c-3.5-3.7-7.9-5.9-12.1-8.6c-1.4-0.9-2.6,0.4-4-0.3c-2.5-1.2-5.1-2.3-7.8-3.2c-0.9-0.5-2-0.8-3.1-0.8c-0.3,1.2,0.7,1.9,1.1,2.7
						s1.3,1.4,0.9,2.4"/>
					<path class="st2" d="M196.2,216.6c-1,1.2-0.4,2.7-0.4,4c-0.3,7.5-7.8,15.5-15.2,15.9c-5,0.3-8.6-3.2-8.4-8.5
						c0-2.1-0.5-4.1-1.6-5.9c-0.3-0.6-1-1-1.3-1.6c-3.4-5.9-4.9-7.2-0.1-13.8c1.3-1.8,2.5-3.6,3.9-5.2c1.7-2.2,4.2-3.6,6.9-4
						c0.6,0,1.1-0.1,1.6-0.3c4.1-1.6,4.6-2.2,3.2-7.1c-3.1-11.3-8.6-21.1-19.5-26.9c-1.1-0.6-2.3-0.7-3.5-0.3"/>
					<path class="st2" d="M165.3,357.2c-1-2.5-0.7-5.1-1.1-7.7c-0.4-3.1-0.7-6.3-1-9.4c-0.6-5.4-1.1-10.9-1.7-16.3
						c-0.1-1.6-0.5-3.1-1.2-4.5"/>
					<path class="st2" d="M165.5,369.5c-0.1-3.4-0.3-6.9-0.4-10.3c0-0.3,0-0.7,0.2-1c2.2-4,1.8-8.6,2.6-13c0.6-3.5,0.7-7.1,2.1-10.5
						c0.7,0.3,1.2,1,2.1,0.8c6.9-12.2,7.8-25.1,3.5-38.6c1.7-0.3,2.3-1,2.1-2.5c-0.4-4.9-1.3-9.8-2.8-14.6c-0.1-0.4-0.6-0.6-0.9-1"
						/>
					<path class="st2" d="M262.9,284.1c-3-7.9-7.5-14.9-11.4-22.3c-1.8-3.4-3.1-7.1-5.8-10c-0.3-0.4-0.3-1-0.4-1.6"/>
					<path class="st2" d="M154.6,192.6c0.3-6-0.2-11.9-1.5-17.8c-1.4-5.4-3.6-10.4-6.7-15c-0.4-0.6-0.9-1-0.6-1.8"/>
					<path class="st2" d="M39.4,106.4c-1.9,1.2-2,3.4-2.9,5.2c-0.3,1-1.2,1.8-2.2,2c-0.9,0.1-1.7,0.6-2.3,1.4
						c-0.4,0.8-1.4,1-2.2,0.6c-0.1-0.1-0.3-0.2-0.4-0.3c-2.2-2.9-5.9-4.3-7.8-7.4c-1.4-2.5-2.1-5.3-2-8.2c0-6.2,0-12.4,0.2-18.7
						c0-0.9-0.4-2.2,1-2.7"/>
					<path class="st2" d="M27.2,112.2c0.7-2.1-0.9-3.7-1.7-5.1c-1.7-3-1-5.5,0.6-7.9c2.7-4,2.8-6.2-0.1-9.9
						c-0.1-0.2-0.5-0.2-0.5-0.3c0-3.6-2.9-6-3.9-9.2c-1.5-4.5-0.1-7.8,2.8-10.8c1-0.9,2.3-1.6,3.6-2c4.8-1.7,9.6-3.7,14.4-5.2
						c2.2-0.7,4.7-1,6.8,0.4c1.2,0.7,1.9-0.2,2.5-0.7c1.3-1.1,2.9-1.9,4.5-2.5"/>
					<path class="st2" d="M158.6,324.7c0.6-0.9,0.3-2,0.4-3c0-0.9,0.4-1.8,1.1-2.5c1.8-1.7,1.1-4.2,1.6-6.4c0.9-4,1-8.3,2.7-11.9
						c2.3-4.9,4.3-10,6-15.2c0.1-0.4,0.5-1.1,0.4-1.3c-1.3-1.6,0.2-2.7,0.9-3.5c1.5-1.7,1.6-3.4,1.5-5.5c-0.1-4.4,0.2-8.7,0.8-13
						c0.8-5.9,2.8-11.6,4.9-17.2c0.2-0.6,0.6-1.1,0.3-1.8"/>
					<path class="st2" d="M40.6,135.8c-2.4,0-4.4,1.1-6.5,2.1c-3.1,1.6-3.9,1.4-5.7-1.5c-0.6-0.8-1.3-1.4-2.1-1.9
						c-4-2.6-4.6-4.6-3.5-9.2c1.1-3.9,3.3-7.3,6.4-9.9"/>
					<path class="st2" d="M139.8,101.7c2.2-6,4.5-12,5.6-18.3c0.7-3.9,1-7.9,0.8-11.8c-0.1-2.9-0.4-5.8-0.9-8.7
						c-0.6-2.5,0.6-5.4,1.2-8c0.6-3,1.6-6,2-9c0.4-2.9,0.4-6-0.2-8.9c-0.6-2.8-1.4-5.5-2.4-8.1c-0.9-2.1-0.9-4.4,0.2-6.5
						c1-2.1,0.9-4.6,1.2-7c0.1-0.6-0.1-1.4,0.8-1.6"/>
					<path class="st2" d="M242.9,247.5c-1.1,0.2-1.5-0.8-2-1.4c-8.3-9.1-17.7-17.2-28-23.9c-0.4-0.2-0.7-0.6-0.7-1"/>
					<path class="st2" d="M188.6,277.1c-0.8-1.1-1.7-1-2.9-0.1c-1.8-3-3-6.4-3.6-9.9c-1.4-7.2-0.6-14.5-0.1-21.7
						c0-0.3,0.3-0.6,0.5-0.9"/>
					<path class="st2" d="M122.1,317.9c-0.8-1.6-0.4-3.4-0.2-5c0.6-4.2-0.2-8.8,1.7-12.7c1.4-3.1,2.6-6.2,3.6-9.4
						c2.2-6.7,4.4-13.5,6.5-20.3c0.9-2.8,2.6-5.2,2.8-8.2"/>
					<path class="st2" d="M251,283.7c2-2.1,2.4-4.1,1.8-7.2s-0.8-6.4-1.4-9.6c-0.2-1.6-1.1-3-2.3-3.9c-0.9-0.7-1.7-1.6-2.2-2.7
						c-5-9.4-13.1-14-23.4-14.9c-1.7-0.3-3.4-0.3-5.1,0"/>
					<path class="st2" d="M145,104.3c2.1-2.1,3.9-4.5,6.8-5.7c0.3-0.1,0.7-0.7,1.1-0.4c2.2,1.6,3.1-0.6,3.9-1.6
						c2.8-3.2,5.8-6,9.8-7.7c5.1-2.1,10.3-4.1,16-3.9"/>
					<path class="st2" d="M169.1,251.4c-3.3,2.1-5.8,5.3-6.3,8.9c-0.5,4.1-2.3,7.6-3.8,11.2c-1.6,3.7-3.8,7-6.6,10
						c-2.7,2.9-6.1,4.9-9.4,7.1c-1.2,0.8-2.1,0.2-1.7-1.5c-2.5-0.6-4,1.2-5.5,2.5c-4.6,4-8.4,8.9-11.2,14.4
						c-0.4,0.8-0.6,1.7-1.7,1.9"/>
					<path class="st2" d="M138.9,82.8c0.6-1.4-0.2-2.5-0.9-3.7c-1-1.9-1.7-3.9-2-6c-0.9-3.7-2.5-7.3-4.6-10.4
						c-0.5-0.8-0.9-2.9-3-1.5c-0.5,0.3-0.9-0.8-1.1-1.6c-0.9-3.9-1-7.8-0.5-11.7c0.5-4.3,0.5-8.6,0.1-12.9c0.1-1-0.3-2-1.1-2.6"/>
					<path class="st2" d="M169.1,285.3c0.2-1-0.3-1.9-0.4-2.8c-0.1-0.5-0.4-0.9-0.1-1.4c2.9-5.4,2.5-11.5,3.4-17.3
						c1-6.3,2.5-12.5,4.6-18.6c0.2-0.5,0.3-1,0.3-1.6"/>
					<path class="st2" d="M173.4,200.3c-0.8-3.7-2.1-7.2-2.6-11c-0.6-5.6-2.5-10.8-4.2-16.1c-1.1-3.2-2.5-6.2-4.3-9.1
						c-2-3.4-5.4-5-9-5.7c-4.3-0.9-8.5-1.6-12.7-2.7"/>
					<path class="st2" d="M137.3,101.6c0.6-1.5,0-3.1,0.3-4.7l1.5,0.5c2.8-7.9,5.7-15.7,5.1-24.4c-0.2-2.2-0.2-4.4,0.2-6.6"/>
					<path class="st2" d="M112.3,108.1c0.2-2.8,0.2-5.6-0.1-8.4c-0.2-3.3-0.7-6.6-1.6-9.8c-1.9-6.9-4.3-13.7-9.1-19.3
						c-2-2.3-2.9-4.9-1.1-8c0.8-1.6,0.5-3.5-0.7-4.8c-1.4-1.8-2.5-3.8-3.1-6c-0.6-2-0.3-4.2,0.8-6c0.5-0.7,0.7-1.7,0.3-2.5"/>
					<path class="st2" d="M147.4,62.5c-0.1-0.6-0.1-1.2,0-1.7c0.7-2.4,1-4.9,1.6-7.4c1.5-6.2,4.1-12.2,7.8-17.4
						c0.8-1.2,1.6-2.6,3.6-2c0.9,0.3,1.6-0.8,2.2-1.5c4.2-4.1,7.4-9,9.5-14.5"/>
					<path class="st2" d="M248.3,262.6c-0.5,1.8,0.3,3.3,0.8,4.9c1.4,4.1,0.2,8.1-0.2,12.1c0,0.5-0.1,1.1-0.9,1.2s-1.2-0.3-1.7-0.8
						c-0.9-0.9-1.2-2.2-1.9-3.2c-1.1-1.5-2.1-2-3.6-0.5"/>
					<path class="st2" d="M300.2,322.7c3.8,2,9.7,1.4,12.6-1.5c1.4-1.4,0.6-3.2,0-4.8c-1.5-3.8-4-7-6.6-9.9
						c-3.7-4.1-9.9-4.9-15.1-2.6c-1.9,0.8-4.1,0.8-6,0.1c-0.9-0.4-2-0.2-2.8,0.4"/>
					<path class="st2" d="M234.3,283.8c-1.8-1-1-3.1-2-4.6c-1.7-2.6-2.9-5.5-3.6-8.5c-0.6-3.2-3.1-5.5-5.7-7.5
						c-1.4-1.2-3.1-2.2-4.8-2.9"/>
					<path class="st2" d="M234.6,285.6c-0.1-0.1-0.1-0.4-0.2-0.4c-3.8-0.1-5.9,2.8-5,6.3c1.1,4.2,1.1,8.2-2.4,11.5
						c-0.3,0.3-0.4,0.7-0.5,1.1c-0.3,1.8-1.6,1.9-3.1,2c-2.7,0.2-5.5,0.7-8.2,1.1c-0.1,0-0.3,0.2-0.4,0.3"/>
					<path class="st2" d="M157.2,119.9c1-2,0.6-4.2,0.5-6.2c-0.1-1.3,0.5-2.6,1.6-3.3c4.7-4.1,10.3-6.8,15.4-10.3
						c2.6-1.8,4.3-4.4,6.5-6.6c0.6-0.5,0.4-1.8,0.6-2.7c1.3-9.3,6.1-15.9,14.6-19.9c0.9-0.5,1.7-1.1,2.5-1.8
						c0.7-0.5,1.3-1.4,2.4-1.1"/>
					<path class="st2" d="M-22,40.4c0.2,2.9,1.9,4.2,4.8,3.9s5.3-1.5,7.8-2.6c1.3-0.5,2.5-0.2,3.8-0.3c0.9-0.1,1.2,0.7,1.5,1.3
						c1.2,2.5,0.3,7.8-1.7,9.6c-2.4,2.1-5.3,2.6-7.2-0.6c-1-1.7-0.4-3.8,1.2-4.8c0.1,0,0.2-0.1,0.2-0.1c3.8-2.2,7-5.3,11.7-6.4
						c2.5-0.6,3.8,0.2,5.6,1c5.9,2.7,12,4.8,18.3,6.2c5.9,1.2,11.9,2.4,17.3,5.2c0.6,0.3,1.4,0.2,1.8-0.4"/>
					<path class="st2" d="M164.2,357.7c-1.3-1.3-1.3-3.1-1.8-4.6c-1-3.2-1.8-6.4-4-9.2c-1.9-2.6-2.9-6-4.3-9c-1-2.1-0.8-4.5-1.3-6.7
						c-0.2-0.8-0.4-1.5-0.6-2.3"/>
					<path class="st2" d="M157.7,111.3c-1.2-1.3-2.9-2.2-4.7-2.5c-3.1-0.6-6-2-8.4-4.1c-3.8-3.5-8.4-3.5-13.1-1.4
						c-1.4,0.7-3,1.1-4.4,1.8c-2.1,1.1-4.4,0.6-6.5,1c-2.7,0.5-5.3,1.4-8,2.1c-0.3,0.1-0.8,0-0.8,0.4c-0.4,2.1-2.3,3-3.5,4.5
						c-1.9,2.5-4.5,4.3-6.9,6.1c-1.3,1-2.5,5.8-1.4,6.8c1.6,1.4,3.7,1.3,5.8,1c2-0.4,4-1.1,5.8-2.1c1.3-0.6,3-0.2,3.9-1.8"/>
					<path class="st2" d="M75.4,178.1c-1.6-7.8-3-15.5-1-23.4c0.2-0.9-0.4-1.4-0.5-2.1"/>
					<path class="st2" d="M103.2,180.8c0.3-5,2.7-9.4,5.1-13.6c1.9-3.3,4.2-6.2,7-8.8c1.3-1.2,0.7-2.5,0.7-3.8"/>
					<path class="st2" d="M-14.3,32.4C-17.4,34-23.8,33.2-26,31c-1.2-1.4-1.6-3.3-1-5c0.4-1.3,3.1-2.7,4.7-2.4
						c1.1,0.2,2.2,0.5,3.4,0.8"/>
					<path class="st2" d="M56.7,146c-3.4-0.6-6.9-0.5-10.4,0.2c-2.2,0.6-4.5,0.2-6.3-1.1c-4.1-2.9-4.1-2.9-1.6-7.4
						c0.2-0.4,0.7-0.7,0.4-1.3"/>
					<path class="st2" d="M38.4,104.6c-0.2-3,0.3-5.9-1.2-8.9c-2.1-4.2,1-8.5,5.8-8.4c2.6,0,5.1-0.9,7.1-2.6c0.8,0.9,0.7,2.2-0.2,3
						c-0.1,0.1-0.2,0.1-0.3,0.2c-1.2,1-2,2.3-2.4,3.8c-0.8,2.5-2.1,4.8-3.8,6.8c-1.3,1.4-0.9,3,0.1,4.5c1.4,2,3.4,3.7,3.8,6.3"/>
					<path class="st2" d="M294.1,274.1c-0.3,0.2-0.5,0.7-0.8,0.7c-5.2-0.2-10.4,2.3-15.6,0.5c-2.3-0.8-4.5-1.7-6.7-2.7
						c-1.9-1-3.1-2.9-3.3-5c-0.7-4-2.2-7.8-4.4-11.2c-2.2-3.5-5.1-7-9.6-8.7c-4-1.5-7.8-3.4-11.9-4.7c-0.4-0.2-0.8-0.3-1.3-0.1"/>
					<path class="st2" d="M44.8,6.7c2.5-3.8,3-8.5,1.4-12.7c-2-5.9-5.7-10.1-11.9-12.1c-2.5-0.8-4.6-2.8-6.9-4.2
						c-0.9-0.6-1.8-0.9-2.7-0.3c-1.4,0.9-1.5-0.1-1.7-1"/>
					<path class="st2" d="M223.2,206.9c2.6,0.7,5.3,1.2,7.9,1.6c4.5,0.4,9,0.5,13.1-1.5c0.6-0.3,1.2-0.5,1.8-0.7
						c2.3-0.6,3.5-2.4,4.4-4.3c0.6-0.9,1.4-1.7,2.4-2.1c2.3-1.4,4.6-3,5.6-5.7c0.8-2.1,0.3-4.3-1.3-5.2s-3.6-0.3-5.2,1.5
						c-1.2,1.4-1,3.2-1.5,4.7"/>
					<path class="st2" d="M189,277c1.8-3,2.5-6.6,4.3-9.6c0.4-0.7,0.3-1.5-0.5-2.3c-3.8-4.3-6.3-9.7-7.1-15.4
						c-0.5-2.3-1.6-4.5-3.2-6.2"/>
					<path class="st2" d="M136.3,95.3c-2.3-1.9-4.9-3.3-7.6-4.4c-5.6-2.2-8.6-6.8-10.3-12.4c-1.4-4.7-2.5-9.6-3.6-14.3
						c-0.2-1.1-0.3-2.2-0.4-3.3"/>
					<path class="st2" d="M162.4,260.6c-0.4,0.1-0.7,0.3-1.1,0.5c-3.2,2.7-7.1,2.2-10.8,2.1c-3.4,0-6.7-1.7-10-1.2
						c-5.8,0.8-13.9-5.5-14.9-11.4"/>
					<path class="st2" d="M182.3,113.1c3.1-4.1,6.4-8.2,7.8-13.3c0.7-2.5,1.3-4.9,1.9-7.4c1.6-7.8,3.6-15.5,8.3-22.3
						c2.2-3.2,5.2-5.7,7.5-8.8"/>
					<path class="st2" d="M43.3,51.8c-1.6-2.6-3.3-5.1-4.8-7.8c-0.5-0.9-1.2-1.8-2-1.8c-2.7-0.2-4.7-2.1-7.2-2.7
						c-2.3-0.5-4.8,0-7.1-1c-1.3-0.6-2.8-0.9-3.7-1.8c-1.5-1.4-1.5-3.8-0.1-5.2c0.4-0.5,1-0.8,1.6-1c2.7-0.9,5-0.6,6.9,2.7
						c0.5,0.7,1,1.4,1.6,1.9c1.1,1.2,1.8,2.7,2,4.4"/>
					<path class="st2" d="M61.1,200.1c-6.2,4.5-12.6,8.5-20.2,10.4"/>
					<path class="st2" d="M257.6,323.7c-1.9-0.2-2.1-2-2.7-3.2c-2-4.3-0.7-9.4,3.2-12.1c2.9-2.2,4.3-5.5,6.4-8.2"/>
					<path class="st2" d="M58.2,33.1c-2,0-2.7-1.9-3.6-3c-2.1-2.9-4-6-5.7-9.2c-1-1.9-1.3-4.2-1.9-6.3"/>
					<path class="st2" d="M223.5,203c-0.5,2.3-0.7,4.7-0.4,7.1c0.3,1.7-0.6,2.4-2.1,2.4c-4.7,0.2-7.5-0.2-10.1-5.2
						c-1.9-3.7-4.4-7.2-8.7-8.7c-1.1-0.3-1.8-1.3-1.9-2.4c0-1.9-1.1-3.5-0.8-5.4c0.2-1.3-0.9-2.4-1.5-3.5c-1.6-2.6-2.5-5.6-5.2-7.4"
						/>
					<path class="st2" d="M65.4,107.3c-0.4-2.9-0.8-5.6,0.7-8.5c0.9-1.8,2.3-2.9,3.4-4.4c1.5-1.8,2.3-4.1,2.2-6.4
						c-0.1-2-1.6-2.8-3.1-3.6c-2.8-1.6-6.1-2-9.2-1.1c-2.9,0.8-5.8,1.3-8.7,2"/>
					<path class="st2" d="M149,6.2c-0.2,1.5-0.4,3.1-0.7,4.6c-0.5,1.9-0.1,3.9,1,5.6c0.6,1.2,1,2.6,1.1,4c0.5,3.2,1.1,6.3,1.9,9.4
						c0.7,2.7,0.1,5.5,0.1,8.2c0,0.6-0.5,1.2-1.1,1.2"/>
					<path class="st2" d="M194.9,210.6c0.7-0.5,1.7-0.5,2.4,0.1c0.2,3.9-2.5,5.9-5,7.8c-4.6,3.4-9.9,5.6-15.6,6.4"/>
					<path class="st2" d="M84.2,238.3c-0.8-4.3,0.2-8.4,1.3-12.4c0.9-3.4,2.2-6.8,3.8-9.9"/>
					<path class="st2" d="M91.1,163.5c-3.8-5-5.8-10.8-7-16.9c-0.1-0.7-0.6-1.1-0.8-1.7"/>
					<path class="st2" d="M123.4,299.2c-1.1-2.1,0.1-4.1,0.6-5.9c1.3-5.1,2-10.3,3.3-15.4"/>
					<path class="st2" d="M102.4,202.8c-3.2-5.3-4.2-11.2-4.1-17.4c0-0.5-0.2-0.9-0.2-1.4"/>
					<path class="st2" d="M153,327.4c1.8-1,1-2.5,0.7-3.8c-0.8-3.8-1.4-7.6-1.6-11.4c-0.2-2.6-0.8-6.1,2.2-8.4
						c0.7-0.6,0.8-2.1,1.3-3.1c2.1-4.8,3.4-10.3,8-13.5c2-1.5,3.4-4.1,6.4-4.1"/>
					<path class="st2" d="M181.2,142.4c-5,1.8-9.6,4.2-13.9,7.3c-0.9,0.6-1.8,1.1-2.7,1.7"/>
					<path class="st2" d="M128.6,177.9c1-7.4,3.2-14.2,8.6-19.6"/>
					<path class="st2" d="M253.8,204.3c2.2,0.8,4.5,1.2,6.8,1.2c2.5,0.1,5.2-2.7,5-5.1s-2.2-3.6-4.9-3.1c-2.7,0.5-5.1,2.3-6.3,4.8
						c-1.2,2.3-3,3-5.4,3"/>
					<path class="st2" d="M91.7,160c-2.8-3.8-4.3-8.2-5.6-12.6c-0.6-2.2-0.9-4.4-3.7-4.9"/>
					<path class="st2" d="M123.6,247.8c-1.9-2.7-1.3-6-2.1-8.9c-0.7-2.6-1.4-5.1-2.3-7.8c0.3-1,1.2-1.7,1.9-2.6
						c3.7,1.2,7.8,0.6,11.1-1.5c2.5-1.4,4.5-3.7,5.4-6.4"/>
					<path class="st2" d="M129.7,245.8c-1.2-5.1-2.4-10.3-5.2-14.9c-0.2-0.5-0.4-1-0.4-1.6"/>
					<path class="st2" d="M256.2,219.5c0.4,0.5,0.9,0.9,1.3,1.4c2.4,2.2,2.6,3.8,0.7,5.9s-4,2.2-6.2,0.1c-0.8-0.7-1.9-1.1-2.1-2.4"
						/>
					<path class="st2" d="M51.3,39.4c-1.3-3-1.7-6.3-3.7-9c-2.8-3.9-6-7.4-10.3-9.7c-3.3-1.8-7-1.7-10.7-1.2
						c-0.9,0.1-1.2,0.9-1.8,1.4"/>
					<path class="st2" d="M1.5,39.6c-0.3-0.2-0.5-0.4-0.9-0.5c-3.1-0.7-4.4-3.4-6.2-5.5c-0.7-0.8-0.4-1.5-0.3-2.3
						c0.2-4-3.5-8.6-7.4-9.3c-2.2-0.4-3.4,0.6-4.6,2.1"/>
					<path class="st2" d="M189,190.1c-0.7-1.2-1.1-2.5-1.2-3.8c-0.8-4.3-2.8-8-4.5-12"/>
					<path class="st2" d="M41,106.2c-0.2-2.4-0.3-4.9-0.7-7.3c-0.2-1.5,0-2.7,1.3-3.5c1-0.6,1.4-1.6,2.1-2.4
						c0.6-0.9,1.8-1.2,2.7-0.7"/>
					<path class="st2" d="M192.3,88.1c-1.1-2.5-0.6-5,0-7.5c0.8-3.3,2.3-6.3,4.3-9c0.1-0.2,0-0.5,0.1-0.7"/>
					<path class="st2" d="M232.7,187.6c0.8-1.6,1.4-3.2,2-4.8c0.6-2.6,4.4-5.1,6.9-4.9c2.7,0.2,3.9,2.6,3.2,5.2s-3.8,5.1-6.5,4.7
						c-4.6-0.6-8.4,1.4-12.3,3.2c-1.2,0.7-2.4,1.2-3.7,1.6"/>
					<path class="st2" d="M88.4,247.4c-1.2-5.4-0.9-10.8-0.7-16.3"/>
					<path class="st2" d="M175.3,169.1c-3.4-4.1-7-7.8-12.6-8.8c-1-0.3-2-0.1-2.8,0.6"/>
					<path class="st2" d="M7.3,56.8c-1.5,2.3-3.7,3.7-6,5.1c-1,0.6-5.5,0.1-6.3-1.1c-0.7-1-1.3-1.8-0.8-3.2c0.6-1.8,2.1-3.1,4-3.4
						c2.2-0.5,4.5-0.1,6.5,1.1c2.6,1.8,5.2,1.3,7.9,1.3c1.5-0.2,3.1-0.1,4.6,0c2.1,0.4,3.7-1.2,5.6-1.7c3-0.7,5.9-1.7,8.8-2.7
						c0.4-0.2,0.7-0.4,1-0.7"/>
					<path class="st2" d="M102.5,164.3c2.3-0.8,3.8-2.4,5.3-4.1c2.1-2.1,4.5-3.9,7.1-5.2c1.4-0.7,2.3-2.1,2.5-3.6
						c0.6-2.8,1.3-5.6,5-5.9"/>
					<path class="st2" d="M163.2,188.5c0.1-5.3-1.7-10.2-2.9-15.3"/>
					<path class="st2" d="M116.1,47.9c-0.8,1-0.1,2.2-0.5,3.3c-0.8,2.3-2.4,3.9-3.8,5.7c-1.8,2.3-4.6,3.5-7.4,3.2
						c-0.7-0.1-2.1-0.3-1.8,1.4"/>
					<path class="st2" d="M139.3,220.4c-0.2,0-0.4-0.1-0.5-0.1c-2,0.5-3.8-1-5.7-0.7s-2.7,2.6-4.5,3.3l-2,0.7
						c-3.5,1.3-5.4-0.6-4.9-4.1c0.3-1.2-0.1-2.4-1-3.2c-0.9-0.8-0.9-2.2-1.8-3.1"/>
					<path class="st2" d="M85,131.2c-4.9,1.2-9.9,1.8-15,1.8"/>
					<path class="st2" d="M164.2,157.8c-4.4-1.1-8.8-2.5-13.4-2.2c-0.9,0-2-0.2-2.4,1"/>
					<path class="st2" d="M80.4,189.2c-0.8-0.2-1.6-0.3-2.4-0.1c-3,0.5-5.8-0.4-8.5-1.3c-4.2-1.3-5-5.1-4.9-8.9
						c0-4.4,0.4-8.7,1.3-13c1.3-5.8,4.6-11,9.3-14.7c3-2.4,6.5-4.3,8.8-7.6"/>
					<path class="st2" d="M70.5,60.8c0.8-1.1-0.3-1.9-0.5-2.8c-1.1-3.8-1.7-7.7-1.9-11.6"/>
					<path class="st2" d="M119,231.1c-3.8,0.4-7.7-0.3-11.2-2c-2.7-1.2-5.5-2.1-8.2-3.5s-4.5-3.6-6.4-5.7c-2-2.3-3.7-4.8-5.3-7.4
						c-2.1-3.2-2.1-7-1.9-10.6c0.2-4.4-0.1-8.8-0.7-13.1c-0.2-0.7-0.4-1.4-0.7-2"/>
					<path class="st2" d="M-8.7,41.2c-2.3-2.3-4.6-4.4-8.1-4.5c-2.6-0.1-4.8,1.3-4.8,2.7c0,2.2-1.3,0.5-1.8,0.9"/>
					<path class="st2" d="M14.3,61.5c0.9,2.3,1.8,4.6,1.1,7.2c-0.7,2.8-2.9,4.8-4.8,4.1c-2.1-0.7-3.6-4-2.5-6.4
						c0.8-2,2.4-3.7,4.4-4.5c2.4-0.9,4.3-2.8,5.3-5.1"/>
					<path class="st2" d="M146.7,219.3c-0.6-2.5-1.6-4.6-4.5-5.5c-2.3-0.7-2.2-2.7-2-4.8c0.4-3.9-0.9-5.2-4.6-5.1"/>
					<path class="st2" d="M118.8,158c2.6-1.4,4.1-3.4,3.4-6.4c-0.4-1.9,0.3-3.8,0.3-5.6c0.1-0.8,0.7-1.5,1.5-1.8
						c3.1-1.5,5-4.2,6.7-7c1.5-2.5,3.1-5,6-6c3.8-1.3,3.6-4.7,3.8-7.6c0.1-1.6-2-2.5-3.7-2.6c-4.9-0.3-9.9,0.2-14.6,1.6
						c-1.7,0.5-3.6,1.3-5.4,0.5"/>
					<path class="st2" d="M78.5,86.1c-3.3-1.1-6.4-2.8-9-5.1c-2.2-1.5-3.2-4.2-2.7-6.8c0.2-1.1,0.1-2.3-0.2-3.4
						c-0.6-3-0.1-5.5,2.8-7c0.6-0.3,1-1.2,1.5-1.8"/>
					<path class="st2" d="M157.3,234.5c-2-3.9-4.6-7.4-5.9-11.6c-0.1-0.3-0.6-0.5-0.9-0.8"/>
					<path class="st2" d="M128.8,228.9c1.7,1.9,4.1,2.6,6.4,3.5c0.8,0.4,1.7,0.3,2.4-0.2c2.1-2,4.8-2.6,7.4-3.5
						c3.5-1.3,4.9-4,5.1-7.6c0.1-2.1,1-2.6,2.9-1.7c0.1,0,0.2,0.1,0.3,0.2c6.2,2.7,7.3,1,7.9-4.7c0.4-3.4,1-6.1,3.3-8.9
						c2.2-2.8,3.6-6.2,3.9-9.8c0-1.4,1.1-2.7,2.5-3"/>
					<path class="st2" d="M201.1,138.9c-4.3,0.7-8.6,1.6-12.9,2.7"/>
					<path class="st2" d="M52.7,139.5c-5-2-8.3-6-11.7-9.9c-0.8-1-1.5-2.2-2-3.3c-1.9-4-5.7-6.5-7.7-10.4"/>
					<path class="st2" d="M137.6,92.8c0.3-3,0.9-6.1,1.8-9c-2-0.6-1.9-2.4-2.4-3.9"/>
					<path class="st2" d="M258.3,324.5c0.6,1.3,1.7,2.2,3.1,2.6c2.9,0.7,5.6,1.8,8.2,3.3c1.4-2.1,2.6-3.9,3.8-5.8
						c0.7-1.3,1.1-2.7,1.1-4.2c0.2-3.8,1.5-7.5-0.8-11.2c-1.3-1.9-3-3.5-4.9-4.8c-1.5-1-2.7-1.9-2.8-4c0-1.2-1.5-2-1.8-3.4
						c-0.6-3.4-0.8-6.8-0.6-10.2"/>
					<path class="st2" d="M211.9,220.6c-0.4-1.4-1.8-1.5-2.7-1.9c-3.8-1.8-7.8-3.4-11.6-5.1"/>
					<path class="st2" d="M49,56.2c-3.1-0.3-6.2-1-9.2-2c-2.8-0.9-5.6-1.5-8.5-0.3c-0.4,0.1-0.7,0-1-0.2"/>
					<path class="st2" d="M116.7,26.9c1.4,1.3,1.9,3.4,1.2,5.2c-1,3-1.4,6.1-2.1,9.1c-0.4,1.8-0.1,3.8-0.1,5.8
						c0,0.5,0.3,0.6,0.6,0.8c5.3-2.5,5.5-7.9,7.3-12.5c0.1-0.3,0.2-1.1,0.3-1.2c2.9-3.7,0.5-6.6-1.2-9.7"/>
					<path class="st2" d="M94.7,19.1c-0.9-4.5-3.6-8-6.3-11.5"/>
					<path class="st2" d="M162.6,232.3c-2-3.2-4.3-6.2-6.1-9.6c-0.4-0.7-0.2-1.3-0.4-1.9"/>
					<path class="st2" d="M218.5,248.8c0-4.4-2.4-7.6-5.3-10.5c-2.6-2.6-6-4.2-8.7-6.8"/>
					<path class="st2" d="M32.7,78.9c0.8-5.3,3.8-9.1,7.8-12.4"/>
					<path class="st2" d="M88.9,197c-1.4-4.3-1.8-8.8-1.1-13.2c1.1,0.6,0.9,1.5,1.2,2.1"/>
					<path class="st2" d="M125.1,121.4c-1.6-3.8-2.4-7.9-3.5-12"/>
					<path class="st2" d="M64.8,172.5c-3.9,1.1-8,1.8-12.1,2.1"/>
					<path class="st2" d="M193.2,251.2c-0.2-1.9-1.4-3-2.7-4.2c-1.6-1.6-3.1-3.1-5.5-3.4c-0.6,0-1.1,0-1.6,0.1"/>
					<path class="st2" d="M176.2,105c0.2,1.2-0.5,2.3-0.9,3.3c-1,2.4-2.8,3-5.3,1.8c-3.8-1.7-6.7-0.6-8.4,3.3
						c-0.5,1.6-1.7,2.8-3.2,3.5"/>
					<path class="st2" d="M49.2,62.7c-3.5,2-7.5,2.9-11.4,3.8"/>
					<path class="st2" d="M196.2,211c-3,3-6.6,5.5-10.5,7.2"/>
					<path class="st2" d="M127.4,277.4c1.6-3.5,1.1-7.3,1.1-10.9c0-2.8,0.3-5.4,2-7.7"/>
					<path class="st2" d="M96.4,192.2c-0.4-4-0.5-8.1-0.1-12.1"/>
					<path class="st2" d="M49.6,42.3c-3,0.6-6.2,0.6-9.2,0c-0.6-0.1-1.7-0.3-2.2,0.7"/>
					<path class="st2" d="M94.2,125.5l-10.9,2.7"/>
					<path class="st2" d="M52.3,60.5C47,55.2,48.5,49,50.4,40.9c-2.1,0-2.6-1.8-3.4-3.3"/>
					<path class="st2" d="M188.8,243.4c2.1-2.9,3.4-6.4,3.6-10.1c0.1-0.8-0.2-1.5-0.8-2"/>
					<path class="st2" d="M220.1,322.6c-0.7-0.1-1.2-0.7-1.1-1.5c0-0.1,0-0.1,0-0.2c1.1-3.8,0-7.6-0.2-11.3"/>
					<path class="st2" d="M61.1,35.8c-0.7,2.4-2.3,3.3-4.9,3.5c-1.9,0.1-4.1-0.1-5.7,1.4"/>
					<path class="st2" d="M133,152.8c-0.9-2.2-2.4-4.1-4.3-5.5c-1.4-0.9-2.5-2.3-3.1-3.8"/>
					<path class="st2" d="M159.2,239.9c-2.5-2.9-4.9-5.9-6.3-9.6"/>
					<path class="st2" d="M135.9,241.8c-0.4-3.3-2.2-6.1-3.3-9.1c-0.1-0.4-0.1-0.8,0-1.2"/>
					<path class="st2" d="M234.5,284.7c2.8-3.2,3.1-7.1,2.8-11.1"/>
					<path class="st2" d="M187.8,192.1c4.2-3.2,5.1-7.8,4.5-12.5c-0.3-2.2-1.9-4.3-3.4-6.1c-1.6-1.8-3.2-3.7-4.6-5.6
						c-1.6-2.5-4.5-3.8-6.9-5.6c-1.5-1.1-3.3-1.8-4.6-3.4c-1.2-1.2-2.7-1.9-4.3-2.2c-2.5-0.5-5-1.3-7.5-1.9"/>
					<path class="st2" d="M149.4,176c-0.5-3.6-1.2-7.1-2.2-10.6"/>
					<path class="st2" d="M71.7,215.3c1.6-4.4,3.8-8.5,6.6-12.3"/>
					<path class="st2" d="M74.9,212.6c1.8-4.3,4.2-8.4,7.2-12"/>
					<path class="st2" d="M76.6,200.1c2.9-2.6,5.5-5.6,9-7.4"/>
					<path class="st2" d="M114.9,136.8c-3.1-3.1-6.8-5.4-10.9-6.9"/>
					<path class="st2" d="M73.4,61c-1.7-3.1-2.6-6.5-2.7-10"/>
					<path class="st2" d="M53.6,183.6c-3.1,1.6-6.4,2.8-9.8,3.4"/>
					<path class="st2" d="M190.3,187.6c-1.2-3.2-1.8-6.7-3.6-9.7"/>
					<path class="st2" d="M98.5,244.9c-1-2.9-1.2-6-1.8-9c-0.1-0.5,0-0.9,0.5-1.1"/>
					<path class="st2" d="M111.9,124.7c-0.1-3.4-0.2-6.9-0.4-10.3c0-1-0.3-1.9-0.9-2.7"/>
					<path class="st2" d="M271.3,255.8c-0.1-1.4-1.5-1.6-2.1-2.6c-1.3-2.1-2-4.5-2.2-6.9"/>
					<path class="st2" d="M93.8,48.6c1-0.3,0.8-1.1,0.8-1.9c-0.1-1.9,1-2.9,2.7-3.6c4.1-1.7,7.6-4.1,9-8.8c0.2-0.6,0.3-1.2,0.3-1.8
						c-0.5-4.5-1.5-9-3.1-13.3"/>
					<path class="st2" d="M159.5,150.3c-2,2.6-2.1,2.6-4.9,1.7c-1.9-0.6-3.8-0.2-5.6-0.2c-2.2,0-4.2-0.8-6.3-1.1
						c-0.6,0-1.1-0.4-1.4-0.9c-1.8-3-3.7-5.8-4.5-9.3"/>
					<path class="st2" d="M246.6,219.7c-0.9-0.5-1.7-1.1-2.4-1.9c-2.9-3.9-6.9-6.7-11.5-8.2c-0.2-0.1-0.3-0.4-0.4-0.6"/>
					<path class="st2" d="M114.5,241.4c-0.7-3.3-1-6.8-0.9-10.2"/>
					<path class="st2" d="M48.9,205.6c-3,1.5-6.1,2.6-9.3,3.3"/>
					<path class="st2" d="M88.2,183.9c1.7-2.4,2.9-5.1,5.7-6.4c1.9-0.8,3.8-1.7,5.6-2.7c4.6-2.9,5.1-8,1.1-11.9"/>
					<path class="st2" d="M83.3,227c0.8-3.9,2.2-7.6,4-11.2"/>
					<path class="st2" d="M116,122.7c-0.8-3.2-1.7-6.3-4.3-8.6"/>
					<path class="st2" d="M252.8,281.5c0.6,1,0.6,2.1,0.1,3.1c-1,2.6-2.2,4.7-4.9,5.8"/>
					<path class="st2" d="M78.8,60.1c-2.1,0.6-4.4,0.7-6.3,2c-0.7,0.5-3.7-1.4-3.7-2.4c-0.2-3.3-1.9-6.4-1.7-9.7"/>
					<path class="st2" d="M101.3,196.3c-1.1-3.2-1-6.5-1.5-9.8"/>
					<path class="st2" d="M131.8,219.6c-1.7-2-4-1.4-6.1-1.1c-1.2,0.3-2.6,0.2-3.7-0.3"/>
					<path class="st2" d="M40.5,7.5c3.6,1.1,4.4,4.6,6.1,7.6c1.2-2,0.2-3.4-0.3-4.7c-1.7-4.1-1.8-4.1-6.2-3.1
						c-3.3,0.8-6.3-0.6-8.9-2c-1.8-1-4.2-1.6-5.2-3.9"/>
					<path class="st2" d="M24.5,84.1c2.6-2.3,6-2.5,9-3.7"/>
					<path class="st2" d="M197.5,250.9c0-0.5,0.3-1.1,0.1-1.5c-2.3-3.8-1.5-7.6-0.3-11.6c1.1-3.4,3.5-6.1,6.6-7.7"/>
					<path class="st2" d="M134.3,204.5c-3.2,1.6-6.4,1.1-9.6,0.2"/>
					<path class="st2" d="M156.2,330.6c-0.3-3.2-0.3-6.5,0-9.7"/>
					<path class="st2" d="M161,183.3c-1-4.1-1.8-8.3-3.5-12.2"/>
					<path class="st2" d="M-3.2,37.3c-3.8,0.2-6.8-1.6-9.4-4c-1.7-1.6-4-2.4-5.3-4.4c-0.1-0.2-0.8,0-1.2,0"/>
					<path class="st2" d="M206.4,183.1c-3.9-1.3-7.4-3.6-11-5.5"/>
					<path class="st2" d="M189.6,157.7c-1.4,1.3-3.1,1.1-4.8,1c-1.5-0.1-3,0-4,1.2"/>
					<path class="st2" d="M220,248.9l-1.5,0.1c0.5,3.2-1.6,6.3-0.6,9.6c0.4,1.2,0,2.5-0.9,3.4c-1.7,2.2-3.8,0.7-5.2,0.2
						c-3.2-1.3-6.2-2.9-9.2-4.6c-0.7-0.3-1.2-0.9-1.4-1.6c-0.4-0.9-1.3-1.5-2.3-1.6"/>
					<path class="st2" d="M98.6,239.6c-1.4-4.8-2.2-9.6-0.8-14.6"/>
					<path class="st2" d="M56.1,140.6c-1.9,1.2-4.2,0.6-6.2,1.3c-0.9,0.3-1.8,0.5-2.7,0.7"/>
					<path class="st2" d="M127.2,120.9c-1.2-2.8-1.7-5.9-2.4-8.8"/>
					<path class="st2" d="M138.9,114.8c-0.6-3.1,0-6.2,0.1-9.2"/>
					<path class="st2" d="M192.7,207.8c-2.5,2.1-4.8,4.4-7.7,5.8"/>
					<path class="st2" d="M157.5,326c-0.1-3,0.1-6,0.7-8.9"/>
					<path class="st2" d="M186.9,101.3c0-2.9-1-5.6-1.6-8.3"/>
					<path class="st2" d="M47,82.9c-1.2-0.5-2.6-0.6-3.9-0.2c-2.8,0.6-5.7,1.2-8.5,1.7c-1.1,0.3-2.1,0.8-3,1.4
						c-0.8,0.4-1,1.3-0.5,1.8c2.1,1.8,1,3.7,0,5.3s-0.6,2.3-0.1,3.7c0.9,2.7,2.2,5.4,1.9,8.5c-0.3,2.3,1.3,4.1,3.2,5.4"/>
					<path class="st2" d="M200.3,137.6c-2.9-0.2-5.5,1.1-8.3,1.6"/>
					<path class="st2" d="M196.4,197.2c-2.1,2.6-4,5.5-6.8,7.5"/>
					<path class="st2" d="M203.3,233.7c2-3.4,0.7-9-2.6-11.5c-0.8-0.7-1.6-1.6-2.1-2.6c-0.9-1.3-1.6-2.6-2.5-4"/>
					<path class="st2" d="M137.2,212c-0.7-2.6-0.2-5.4-1.8-7.8c-1.8,0.4,0.1,1.3-0.1,2"/>
					<path class="st2" d="M134.5,147.3c-1.9-2.3-3.9-4.5-5.8-6.8"/>
					<path class="st2" d="M222.6,202.5l1.1,0.5c1.9-2.8-0.5-5.4-0.3-8.2"/>
					<path class="st2" d="M94.9,118.5l-8.3-0.3"/>
					<path class="st2" d="M189.7,91.4l-0.6-8.1"/>
					<path class="st2" d="M41.6,182.2c-2.3,0.6-4.5,0.2-6.8-0.1c-0.5,0-1,0.1-1.4,0.2"/>
					<path class="st2" d="M166.4,180c-0.3-2.7-1.8-5-2.4-7.6"/>
					<path class="st2" d="M40,128.4l-7.2,3.2"/>
					<path class="st2" d="M109.8,125.2c-2.6-2-5.8-3.3-7.8-6"/>
					<path class="st2" d="M136.7,93.3c-1-1-1.3-2.4-0.8-3.7c0.4-1.9,0.3-3.8-0.3-5.7c-0.4-0.8-0.5-1.8-0.2-2.6"/>
					<path class="st2" d="M64,141.3c-0.8-0.5-1.7-0.7-2.6-0.6c-2.2-0.1-4.4,0-6.5-0.8s-3.6,0.5-5.4,0.6"/>
					<path class="st2" d="M144.8,150.8l1.5-8.4"/>
					<path class="st2" d="M102.5,257c-1.5-2.2-1.6-4.8-1.8-7.3"/>
					<path class="st2" d="M165.4,330.3c0.5-2.7,0.9-5.4,1.4-8.1"/>
					<path class="st2" d="M172.9,329.4c0.7-2.7,1.7-5.4,1.8-8.2"/>
					<path class="st2" d="M166.1,333.5c0.6-2.7,1.2-5.5,1.8-8.2"/>
					<path class="st2" d="M181,218.9c-2.2,1.6-4.9,1.1-7.3,1.8"/>
					<path class="st2" d="M116.3,208c-0.6-2.4-2-4.6-2.3-7.2"/>
					<path class="st2" d="M113.3,138.1c-1.9-2.5-4.4-4.2-6.8-6"/>
					<path class="st2" d="M179.7,136.5c1.9-1.7,4-3,6.3-4"/>
					<path class="st2" d="M96.3,59.4c-1.7-1.9-3.2-3.9-3.6-6.6"/>
					<path class="st2" d="M130.5,130.2c-2.6-1.6-5.4-2.8-8.4-3.5"/>
					<path class="st2" d="M128.9,236.8c-1.1-2.2-1.9-4.5-2.4-6.9"/>
					<path class="st2" d="M290.3,311.1c0.1-1.1-1.3-1.1-1.5-2c2-0.8,4.1-0.6,6-1.1"/>
					<path class="st2" d="M84.8,132.2c-2.2,0.7-4.6,0.9-6.8,1.9"/>
					<path class="st2" d="M185.6,266.2c-0.8-2.3-0.7-4.7-1-7"/>
					<path class="st2" d="M134.4,144.9c-1.4-2-2.7-4.1-3.8-6.3"/>
					<path class="st2" d="M164.1,327.2c0.5-2.5,1-5.1,1.5-7.6"/>
					<path class="st2" d="M173.9,318c0.2-2.5,0.9-4.9,0.6-7.4"/>
					<path class="st2" d="M146,274.2c2.1-1.8,4-3.7,5.8-5.8"/>
					<path class="st2" d="M96.5,123l-6.7,2.2"/>
					<path class="st2" d="M170.1,301c0.1-2.5,0.4-5.1,1-7.5"/>
					<path class="st2" d="M109.2,40.6c-0.8-2.1-0.4-4.7-2.3-6.4"/>
					<path class="st2" d="M149.2,144.1c1.2-1.4,2.1-3,2.7-4.8c1.4-4.3,4.6-7.7,6.2-12"/>
					<path class="st2" d="M283.9,245.9c-2.3-1.5-4.8-1.4-7.3-1.1"/>
					<path class="st2" d="M148.1,277c1.9-1.9,3.7-4,5.2-6.1"/>
					<path class="st2" d="M62.1,54.4c0-2.3-1-4.4-1.4-6.7"/>
					<path class="st2" d="M195.4,262c0.4-0.2,0.8,0,1.1-0.5c1.1-1.9,2.7-3.5,4.7-4.6"/>
					<path class="st2" d="M151.4,218.6c-0.9-1.4-2.1-2.6-3.6-3.4c-0.8-0.5-1.9-0.4-2.5,0.3"/>
					<path class="st2" d="M102.5,48.4c-0.7-2.2-0.8-4.5-1.9-6.5"/>
					<path class="st2" d="M154.3,226.1c-0.8-1.5-1-3.2-2.1-4.6c-0.3-0.4-0.2-1.2-0.3-1.9"/>
					<path class="st2" d="M174.3,174.6c-1.3-2.2-3.4-3.7-5.2-5.5"/>
					<path class="st2" d="M135,141.4l-2.7-6.1"/>
					<path class="st2" d="M147.2,275.3c1.9-1.8,3.7-3.7,5.4-5.7"/>
					<path class="st2" d="M275.6,255.5c2.3,0.1,4.6-0.2,6.9,1c1.2,0.6,1.2,1.6,2,2.2c2.9,2.3,6.1,4.2,9.6,5.7
						c2.4,1.1,3.3,3.1,3.7,5.4c0.5,2.8-1.5,4.1-4.3,3"/>
					<path class="st2" d="M173.3,286.7c-0.1-2.2,0.4-4.5-0.9-6.5"/>
					<path class="st2" d="M197,210.1c2.1-3.1,3.3-6.8,3.4-10.5c0.1-0.3,0.2-0.5,0.3-0.8"/>
					<path class="st2" d="M165.9,259c2.7-2.5,3.2-6,4.2-9.3c0-0.6-0.2-1.3-0.7-1.7c-1.6-2.3-1.9-5-2.8-7.5"/>
					<path class="st2" d="M176.5,135.4l-5.8,3.9"/>
					<path class="st2" d="M108,95.4c-1.2-2-2.7-4-4.3-5.7"/>
					<path class="st2" d="M267.5,258.7c1.8,1,3.5,0,5.2-0.4c0.9-0.2,1.8-0.5,2.7-0.7"/>
					<path class="st2" d="M27.2,0.9c-1,0.5-2.2,0.2-2.7-0.8c0,0,0-0.1-0.1-0.1C23-1.9,22.2-4.1,22-6.5c-0.1-3.6-2.1-6.8-1.9-10.4
						c0.1-1.7-0.4-3.6,1.4-5c0.5-0.4,1.1-0.7,1.8-0.6"/>
					<path class="st2" d="M23,29.8c0.1-2.8-0.1-5.7-0.8-8.4c2.2-1,3.2,0.1,3.8,1.9c0.3,0.9,0.7,1.8,1.4,2.5"/>
					<path class="st2" d="M136.8,281.8l4.9-5.6"/>
					<path class="st2" d="M176.5,158.4c1.3-1.5,3.4-2.2,5.4-1.6"/>
					<path class="st2" d="M103,154.8l-3.3-5.5"/>
					<path class="st2" d="M-6.2,33c-1.5,0.4-3-0.3-4.4-0.3c-0.6,0-1.3-0.5-1.9,0.2"/>
					<path class="st2" d="M63.4,58.4c-2.3,0.4-4.7-0.4-7,0.6c-0.2-1-1.2-1.6-1.3-2.7"/>
					<path class="st2" d="M111.3,224.8c-1.9-1.7-4.7-2.3-6-4.8"/>
					<path class="st2" d="M167.5,335.1c0-1.4,0.3-2.8,0.9-4.1c0.6-1.1,0.8-2.3,0.6-3.5"/>
					<path class="st2" d="M196.7,253.7c-0.3,1.2-0.5,2.5-1.9,3.1c-2.9-1-3.2-1.4-3.3-4.5"/>
					<path class="st2" d="M85.6,61.3L79.2,60"/>
					<path class="st2" d="M138.2,210.3c-0.5-1.9-0.7-3.9-0.7-5.9"/>
					<path class="st2" d="M136.4,284.3c1.5-1.7,3-3.3,4.6-5"/>
					<path class="st2" d="M48.2,110.1c-1.8-0.6-3.5-1.5-4.9-2.8c-0.7-0.5-1.5-0.8-2.3-0.9c-2.5-0.5-4.5-2.2-5.5-4.5"/>
					<path class="st2" d="M160.3,331.6c0.5,1.4,0,3,0.6,4.5c0.1,0.4-0.1,0.9-0.6,1c-0.1,0-0.2,0-0.3,0"/>
					<path class="st2" d="M110.8,39.3c-0.8,1.3-2.3,2-2.6,3.9c-2-1.7-1.3-4.1-2.5-5.8"/>
					<path class="st2" d="M132.2,156.6c-1.6-1.9-3.7-2.2-6-1.9c-1.3,0.1-2.6,0.1-3.9,0"/>
					<path class="st2" d="M71.7,163.1c-0.1-2,0.3-4.1,0.9-6"/>
					<path class="st2" d="M103,139.3c-1.9-1.7-4.2-2.5-6.4-3.5"/>
					<path class="st2" d="M274.8,256c-2-0.5-3.7,0.7-5.6,0.7c-1.2,0-2.6-0.5-3.4,1.1"/>
					<path class="st2" d="M221.3,315.8c0.1-2,0.1-3.9,0.2-5.9"/>
					<path class="st2" d="M43.3,4.6c-0.7,0.1-0.7-0.5-1-0.9c-0.7-1-1.5-1.9-2.3-2.7c-2.7-2.8-6.2-4.6-8.2-7.8
						c-1.1-1.6-1.9-3.5-2.3-5.4"/>
					<path class="st2" d="M107.5,43.5c-0.2,0.5-0.6,0.9-0.9,0.2c-0.7-1.5-1.3-3.1-1.9-4.6"/>
					<path class="st2" d="M174,106c0.6-0.8,1.6-1.3,2.6-1.3c2.7,0.1,3.6-1.8,4.1-3.8c0.6-2.1,1.3-4.3,0.3-6.6"/>
					<path class="st2" d="M122.8,234c-0.5-1.6-0.9-3.1-1.4-4.7c-0.7-2.4-2.3-4.4-4.6-5.6c0-1.6,0.5-2.6,2.3-2.3"/>
					<path class="st2" d="M172,201.3c-0.8-1.8-1.8-3.4-3.1-4.8"/>
					<path class="st2" d="M48.5,87.8c-1.9-0.4-3.2,1.2-5,1.5"/>
					<path class="st2" d="M111.8,35.4l-1.2-5"/>
					<path class="st2" d="M34.1,51.7c-2.2-1.1-4.8-1.4-6.8-2.9"/>
					<path class="st2" d="M140.2,226.2l-2.6-4.7"/>
					<path class="st2" d="M43.8,38.2c-3-1.5-5.8-0.2-8.6,0.5"/>
					<path class="st2" d="M181,85.6l-4.8,1.9"/>
					<path class="st2" d="M113.5,42.2c-1.7,0.3-3.3,1.1-5.1,1"/>
					<path class="st2" d="M172.7,243.8c-0.6,1.9-1,4-2.5,5.5"/>
					<path class="st2" d="M136.3,237.4c0-1.8-1.9-3-1.5-5"/>
					<path class="st2" d="M150.9,162.6c-0.1-1-0.9-1.6-1.5-2.3s-1.2-1.2-0.8-2.2"/>
					<path class="st2" d="M38.1,83.2c-1.5-1.6-3.9-2-5.3-3.7c-0.4-0.5-1-0.2-1.5-0.1l-3.6,0.9"/>
					<path class="st2" d="M193.6,265.4c2.1-2.6,2-5.6,1.7-8.7"/>
					<path class="st2" d="M84.8,143.1c1.1-1.1,2.1-2.3,3-3.6c0.6-0.9,0.9-2,0.6-3"/>
					<path class="st2" d="M115.6,49.7l-4.8,1"/>
					<path class="st2" d="M94.2,41.5c-1.5-1.3-2.8-2.9-4.8-3.6"/>
					<path class="st2" d="M145.5,222c-0.5-1.7-1.7-3-2.6-4.4"/>
					<path class="st2" d="M191.5,171.8c-2.1-0.5-3.4-2.6-5.8-2.7"/>
					<path class="st2" d="M86.4,61.6c-1.7-1.6-0.7-3.7-0.9-5.6"/>
					<path class="st2" d="M150.1,33.6c0.7,2.9,1.3,5.7,0.3,8.7c-0.3,0.9-0.5,1.8-1.4,2.3"/>
					<path class="st2" d="M242,284.7c-2.2-2.5-3-5.2-1-8.1l-3.1-2.5"/>
					<path class="st2" d="M86.5,133.2c-1.5,0.5-3.1,0.5-4.5,1.4"/>
					<path class="st2" d="M68.4,60.1c-1.3-0.6-2.7-1.1-4.1-1.6c-0.4-0.1-0.7,0-0.8-0.6c-0.7-2.7-2.9-4.8-3.6-7.6"/>
					<path class="st2" d="M135.3,281.7c1.1-1.6,2.8-2.8,3.1-4.9"/>
					<path class="st2" d="M114.1,28.3c0.5-1,2-1.5,1.7-2.8c-0.3-1.1,0.6-2.6-0.6-3.2c-1.4-0.7-2.9,0.1-4.1,0.8
						c-1.1,0.6-2.1,1.4-2.8,2.3c-0.5,0.7-1.4,1.2-2.3,1.3"/>
					<path class="st2" d="M99.3,67.6c-1.8-0.5-3.1-2.2-5.2-2.3"/>
					<path class="st2" d="M249.4,224.3c-0.3-0.4-0.7-0.8-0.8-1.3c-0.1-1.1-1.9-2.2-1-3c1.2-0.8,2.6-1.1,4.1-0.9
						c1.2,0.2,2.3-0.9,3.4,0.1"/>
					<path class="st2" d="M120.9,158.5c1-1.4,3.1-1.6,3.8-3.4"/>
					<path class="st2" d="M48.5,54.2c-2.1,0.3-3.4-1.6-5.3-1.8"/>
					<path class="st2" d="M87.8,146.4c-0.4-1.5-0.6-3.1-1.6-4.4"/>
					<path class="st2" d="M283.5,268.8c-1.7-0.3-3.3-0.9-4.8-1.7"/>
					<path class="st2" d="M34,121c-1.8,1-4,0.8-5.8,2.2"/>
					<path class="st2" d="M163.6,290.6c1.2-1.3,2-2.9,2.2-4.7"/>
					<path class="st2" d="M152.7,313.6c1.6-1.2,0.8-3.2,1.5-4.7"/>
					<path class="st2" d="M97.2,31.1c-0.2-2-0.3-4-0.5-5.9"/>
					<path class="st2" d="M185.3,258.3c-1.7-1.3-1.1-3.4-2-5.1"/>
					<path class="st2" d="M160,344.7c0.9-1.6-0.2-3-0.4-4.5"/>
					<path class="st2" d="M251.1,200.2c-0.2-1.5-1.1-2.9-0.6-4.4"/>
					<path class="st2" d="M65.2,168.1l-4.3,0.1"/>
					<path class="st2" d="M65.1,169.6c-1.4,0.5-2.8,0.7-4.2,0.6"/>
					<path class="st2" d="M189.3,168.9c-1.6-0.3-2.7-2.4-4.7-1.5"/>
					<path class="st2" d="M165.4,211.7l-2.2-3.8"/>
					<path class="st2" d="M181.8,243.2c-1.1-1.2-2.4-0.2-3.4,0c-3.4,0.7-6.9,0-10.2,0.8"/>
					<path class="st2" d="M120.5,154c0.8-1.4-0.2-2.8,0.2-4.2"/>
					<path class="st2" d="M95.1,44.2c-1-2.8,0.1-5.3,0.7-7.9c0.3-1.4,0.3-2.9,1-4.2c0.3-0.6,0.9-0.6,1.3-1"/>
					<path class="st2" d="M213.9,259.6l-7.9-8.2"/>
					<path class="st2" d="M117.7,221.2c-0.6-2.8-2.8-4.4-4.5-6.4c-0.3-0.4-0.6,0-1,0"/>
					<path class="st2" d="M27.9,26.9c0-1.7-0.3-3.5-0.8-5.1"/>
					<path class="st2" d="M272.1,246.4c-1.2,0.5-2.5,1.9-3.3-0.5"/>
					<path class="st2" d="M101.7,51c-0.2,0.8,1,1.2,0.5,2c-1.9-0.8-1.9-0.8-2.3-3.5"/>
					<path class="st2" d="M291.1,262.3c2.9-3.2,2.8-5.9-0.3-10.1"/>
					<path class="st2" d="M295.4,269.9c-2.7,0.5-5.4,1.1-8.1-0.4c-0.4-0.2-1.1,0.1-1.6,0.1"/>
					<path class="st2" d="M127.7,64.8l-1.6-3.5"/>
					<path class="st2" d="M139.2,222.1c-0.3-2.6,2.3-3,3.5-4.5c0.6-0.6,1.3-1.1,2-1.5"/>
					<path class="st2" d="M162.3,223.6c-0.7-1.1-1-2.4-2.1-3.4"/>
					<path class="st2" d="M99.4,230.4c0-1.3,0.1-2.5,0.5-3.8"/>
					<path class="st2" d="M151.3,227.8c-0.3-1.1-0.4-2.4-1.3-3.3"/>
					<path class="st2" d="M191.3,227l-4.4,1.6"/>
					<path class="st2" d="M108.1,53.3l-5.8,1"/>
					<path class="st2" d="M143,150.3l-0.9-3.4"/>
					<path class="st2" d="M96.7,126.6c-1.3-0.3-2.3,0.6-3.4,1.1"/>
					<path class="st2" d="M32.5,106.3L29,107"/>
					<path class="st2" d="M274.8,251.1l-1-1c0.9-1.2,1.8-0.7,2.7-0.2s1.9,1.5,3.2,1.4"/>
					<path class="st2" d="M104.5,116.4c-1.7-1.1-3.6-1-5.5-0.8"/>
					<path class="st2" d="M108.4,41.3c-1.2-0.8-0.8-2.2-1.3-3.3"/>
					<path class="st2" d="M30.9,97.8c-1.2,0.2-2.2,0.8-3.5,0.6"/>
					<path class="st2" d="M167,209.1c-0.8-0.9-1.5-2-2-3.1"/>
					<path class="st2" d="M282.8,256.4c-0.3-1.1,0.3-2.3-0.5-3.4c0.8,0.2,1.7,0.2,2.5,0"/>
					<path class="st2" d="M125.1,57.7l-0.6-3.2"/>
					<path class="st2" d="M181.8,88.6l-3.2,0.8"/>
					<path class="st2" d="M288.8,252.9l1.8-0.5c-1.3-4.5-4.8-6.7-8.7-5.6"/>
					<path class="st2" d="M182.4,196.3l-0.1-3.4"/>
					<path class="st2" d="M264.6,315.1c-1-2,0.7-3.1,1.5-4.5"/>
					<path class="st2" d="M91.1,223.1c0.2-1.2,0.6-2.4,1.3-3.5"/>
					<path class="st2" d="M30.6,87.2l-3,0.7"/>
					<path class="st2" d="M223.6,309.7c-2,0-4.1,0.4-5.9-0.5c-1.1-0.5-1.6,0.4-2.4,0.4"/>
					<path class="st2" d="M47.9,40c-2-0.7-4-1.1-6.1-0.2"/>
					<path class="st2" d="M103.1,51.9c0.7-2.8,2.4-5,4-7.3"/>
					<path class="st2" d="M130.6,154.9c3.1-2.6,6.8-3.6,10.6-4.6"/>
					<path class="st2" d="M204.8,250.2c-1.3-1.6-1.3-3.5-1.8-5.4"/>
					<path class="st2" d="M166.8,165.9c-0.7-1-2-1.4-3.1-0.9"/>
					<path class="st2" d="M156.7,50.3c0-1.3,1.9-1.8,1.6-3.3"/>
					<path class="st2" d="M121.5,74.1c-0.3-1-0.3-2.1-1-2.9c-1.2,0.7-0.1,1.5-0.2,2.2"/>
					<path class="st2" d="M40.7,129.4c-0.9,0.7-1.9,0.6-2.9,1"/>
					<path class="st2" d="M168.9,299.9c0.5-1.9-0.8-4.1,1-5.8"/>
					<path class="st2" d="M200,205.7c3.1,0.9,5.9-0.1,8.6-1.4"/>
					<path class="st2" d="M128.2,232.2l-0.7-3"/>
					<path class="st2" d="M83,202.4c0.9-0.7,1.1-2.2,2.6-2.3"/>
					<path class="st2" d="M98,124.3c-1.1-0.2-2,0.3-3,0.5"/>
					<path class="st2" d="M158.4,46.5l2.3-3.5"/>
					<path class="st2" d="M36.4,4.9c-0.9,0.3-1.9,0.2-2.7,0.9"/>
					<path class="st2" d="M266.6,321.1c-1.5-1.1-1.4-3-2.1-4.6"/>
					<path class="st2" d="M28.9-12.3c-0.9-1.5-1.6-3.1-2-4.8c-0.4-1.9-2.3-3-2.9-4.8"/>
					<path class="st2" d="M123,121.7c-0.3-0.9-0.6-1.8-0.9-2.7"/>
					<path class="st2" d="M32.5,35.9h-2.9"/>
					<path class="st2" d="M190.1,227.1c0.4-1.1,1.4-1.5,2.1-2.2"/>
					<path class="st2" d="M97.9,24.4c-0.6,0.4-1,1.3-1.8,0.4c0.4-2.1-0.1-4-2-5.2c-0.7-0.4-0.6-1.2-1.1-1.7"/>
					<path class="st2" d="M233.7,293.1c-1.6-0.9-2.2-3-4.2-3.3"/>
					<path class="st2" d="M78.2,152.2c-0.2-0.9,0.6-2.1-0.7-2.7"/>
					<path class="st2" d="M296.3,314c0.3-0.8-0.6-2.6,1.5-1.6"/>
					<path class="st2" d="M184.1,239c-0.4-0.9-1.1-1.6-1.1-2.6"/>
					<path class="st2" d="M154,333.4c0.8-0.3,1.3-1.2,1-2c0-0.1-0.1-0.3-0.2-0.4"/>
					<path class="st2" d="M143.5,154.3c-0.9,0.3-2-0.6-2.8,0.5"/>
					<path class="st2" d="M185.7,187.3c1.1,1.4,1.2,3.3,1.8,4.9c0.3,0.9-0.6,2-1.7,2.4"/>
					<path class="st2" d="M33.2,107.9l-2.7,0.7"/>
					<path class="st2" d="M43.4,85c1.3-0.7,3-0.3,4.3-1.5c0.4-0.4,1.6,0.3,2.2,1.1"/>
					<path class="st2" d="M100.8,177.1c-0.3-0.9,0.7-2-0.2-2.9"/>
					<path class="st2" d="M159.1,340.1c1.4-1.2,0.3-2.6,0.5-4"/>
					<path class="st2" d="M108.3,29l-0.9-2.7"/>
					<path class="st2" d="M83.1,197c0.9-0.5,1.2-1.7,2.4-1.8"/>
					<path class="st2" d="M113.7,31.5c-0.3-0.9,0.2-1.7,0.3-2.5c0-0.4-0.2-0.7-0.6-0.8c0,0-0.1,0-0.1,0"/>
					<path class="st2" d="M83.5,198.8c0.9-0.3,1-1.7,2.3-1.5"/>
					<path class="st2" d="M161.1,292.2c-0.6,0.7-1.2,1.5-2.3,1.5"/>
					<path class="st2" d="M181.4,90.1l-2.5,0.6"/>
					<path class="st2" d="M158.9,223.5c0-0.9-1-1.5-0.6-2.5"/>
					<path class="st2" d="M35.4,121.8l-2.5,0.6"/>
					<path class="st2" d="M190.2,79.7c-0.1-1.7,1.5-2.8,1.8-4.3"/>
					<path class="st2" d="M267.5,293.6c-1.3,0.2-1.5-1.2-2.3-1.6"/>
					<path class="st2" d="M136,278.6c0.2-0.3,0.4-0.7,0.8-0.9c1.6-0.9,2.8-2.3,3.4-4"/>
					<path class="st2" d="M182.2,239c-0.3-0.8-0.6-1.6-0.9-2.4"/>
					<path class="st2" d="M34.3,109.5l-2.5,0.6"/>
					<path class="st2" d="M197.7,194.9c0.4-0.8,0.3-2.1,1.6-2.3"/>
					<path class="st2" d="M28.3,92.4c0.8-0.3,1.5-1,2.5-0.6"/>
					<path class="st2" d="M66.4,58.9l-0.6-2.3"/>
					<path class="st2" d="M120.5,71c-0.7-0.6-0.5-1.5-0.8-2.2"/>
					<path class="st2" d="M192.3,275.6c-0.4-0.7,0.2-1.8-0.8-2.2"/>
					<path class="st2" d="M129.3,143.8l-1.7-2"/>
					<path class="st2" d="M39.8,36.8c-3.6-1.4-6.3-4.1-9.4-6.4c-0.4-0.3-0.3-0.7-0.5-1.1"/>
					<path class="st2" d="M186.1,248.1c0.3-0.8-0.3-1.6-0.3-2.3"/>
					<path class="st2" d="M64.2,181.6l-2.1,1.2"/>
					<path class="st2" d="M66.3,75.8c-0.8,0.1-1.6-0.3-2.4,0.1"/>
					<path class="st2" d="M119.4,71.7c-0.8-0.3-1.4-1.1-1.5-2"/>
					<path class="st2" d="M147.3,159.6l-0.8-2.2"/>
					<path class="st2" d="M102.4,115.9c-0.6,0.7-1.5,0.5-2.2,0.8"/>
					<path class="st2" d="M138.1,225.3c-0.1-0.9-0.7-1.5-1.3-2.1"/>
					<path class="st2" d="M100.4,55.7c0.2,0.4,0.3,0.7,0.5,1.1c1.4-0.9,1.3-2.1,0.9-3.4"/>
					<path class="st2" d="M119,70.9c0.3-0.8-0.3-1.6-0.3-2.3"/>
					<path class="st2" d="M92.6,131.5c-0.7-1.1-1.5-0.2-2.2-0.2"/>
					<path class="st2" d="M114,38.2c-0.8-0.1-1.4,1-2.3,0.3"/>
					<path class="st2" d="M59.2,106.4c-0.2-1.2-1.2-1.3-2.1-1.7"/>
					<path class="st2" d="M47.4,89.5c-0.8-0.3-1.5,0.3-2.3,0.3"/>
					<path class="st2" d="M160.2,222.7c-0.1-0.7-0.5-1.4-1-1.9"/>
					<path class="st2" d="M35,81.5l-2,0.7"/>
					<path class="st2" d="M111.4,37.7c-0.6-1.7,1.5-2.2,1.5-3.5"/>
					<path class="st2" d="M154.7,151.7l1.1-2.4"/>
					<path class="st2" d="M136.6,234.9l-0.5-2.1"/>
					<path class="st2" d="M30.7,34.4l-2,0.5"/>
					<path class="st2" d="M140,215.6c-0.1-0.7-0.7-1.4-0.1-2.2"/>
					<path class="st2" d="M138.4,234.4c-0.2-0.7-0.5-1.3-0.7-2"/>
					<path class="st2" d="M31.2,99.2l-2,0.5"/>
					<path class="st2" d="M160.2,318.3c-0.6-0.5-0.5-1.3-0.8-2"/>
					<path class="st2" d="M288.5,259.8l-0.5-2.1c1.5,0,1.5,1.4,2.2,1.9"/>
					<path class="st2" d="M181.3,91.6l-2,0.5"/>
					<path class="st2" d="M182,86.8l-2.1,0.3"/>
					<path class="st2" d="M184.1,195.6c-0.2-0.7-0.5-1.3-0.7-2"/>
					<path class="st2" d="M194.4,214.6c0.6-0.4,1.1-1.1,1.9-1.2"/>
					<path class="st2" d="M76.4,153.2l-0.5-2"/>
					<path class="st2" d="M191.2,185.4c-0.6-0.4-0.4-1.2-0.7-1.8"/>
					<path class="st2" d="M-18,28.5c-1-1.1-1.1-2.8-0.3-4"/>
					<path class="st2" d="M-5.4,48.8c0.6-1.2-0.1-2.2-0.3-3.3"/>
					<path class="st2" d="M79.1,147.4c-0.5-0.6-1.2-1-2-1.2"/>
					<path class="st2" d="M33.7,119.8l-1.8,0.5"/>
					<path class="st2" d="M115.2,35.5l1.7-1.1"/>
					<path class="st2" d="M276.3,249.5c0.4-0.6,1.2-0.4,1.8-0.7"/>
					<path class="st2" d="M111.1,99.2c-1,0-0.8-0.8-1.1-1.4"/>
					<path class="st2" d="M95,179l-0.2-1.9"/>
					<path class="st2" d="M111.3,98c-0.6-0.4-0.4-1.2-0.7-1.8"/>
					<path class="st2" d="M118.2,217.2l-1.9,0.2"/>
					<path class="st2" d="M69.8,190.2c0.4-0.5,1.3-0.8,1-1.7"/>
					<path class="st2" d="M38.7,0.7l-3.2,0.6"/>
					<path class="st2" d="M122.4,226.4l-1.8,0.5"/>
					<path class="st2" d="M201.4,190.1c-0.4-0.9-1.1-0.4-1.8-0.3"/>
					<path class="st2" d="M70.5,135.3c-0.3-1-0.9-0.7-1.6-0.6"/>
					<path class="st2" d="M158.8,339.7c-0.6-0.4-0.4-1.2-0.7-1.8"/>
					<path class="st2" d="M186.2,262.7c0-0.6-0.6-1.2-0.2-1.9"/>
					<path class="st2" d="M159.7,335.6c0.3-0.7-0.2-1.2-0.2-1.9"/>
					<path class="st2" d="M31.7,100.2c-0.4,0.6-1.2,0.4-1.8,0.7"/>
					<path class="st2" d="M276.9,263.6c-1.1-0.3-2.3,0.5-3.2-0.4"/>
					<path class="st2" d="M37,68.9c-0.7-0.3-1.2,0.2-1.9,0.2"/>
					<path class="st2" d="M138.9,207.2c0-0.6-0.6-1.2-0.2-1.9"/>
					<path class="st2" d="M102.6,52.7l1.8-0.5"/>
					<path class="st2" d="M113.3,37.5c-0.9,0.3-2,0.2-2.1,1.5"/>
					<path class="st2" d="M116.4,37.2l-1.6,0.4"/>
					<path class="st2" d="M66.6,66.3l-1.7,0.2"/>
					<path class="st2" d="M30.4,86.3c-0.5-0.6-1.1-0.2-1.7-0.1"/>
					<path class="st2" d="M298.4,312.5l2.7-0.7"/>
					<path class="st2" d="M44.4,84.2c-0.6-0.6-1.1-0.2-1.7-0.1"/>
					<path class="st2" d="M129.1,65.9c-0.2-0.6-0.1-1.3-0.9-1.5"/>
					<path class="st2" d="M99.8,43.7c-0.1-0.5-0.1-1.1-0.2-1.7"/>
					<path class="st2" d="M128.3,66.6c0-0.6-0.6-1.2-0.2-1.9"/>
					<path class="st2" d="M191.5,173.7l-1.6,0.2"/>
					<path class="st2" d="M202.7,237.7l0.4-3"/>
					<path class="st2" d="M273.6,249.5c-1-0.4-2.1-0.6-2.8-1.5"/>
					<path class="st2" d="M266.7,307.8c0.9-1.4-1-3,0.1-4.4"/>
					<path class="st2" d="M43.5,6.3c-0.3-1,0.6-1.6,0.9-2.4"/>
					<path class="st2" d="M275.5,254.3c0.1,1.2-0.6,2.4-1.7,2.8"/>
					<path class="st2" d="M266.7,311.7l-0.6-2.3"/>
				</g>
			</g>
		</g>
	</g>
</g>
</svg>
