<?xml version="1.0" encoding="utf-8"?>
<!-- Generator: Adobe Illustrator 24.1.2, SVG Export Plug-In . SVG Version: 6.00 Build 0)  -->
<svg version="1.1" id="Layer_1" xmlns="http://www.w3.org/2000/svg" xmlns:xlink="http://www.w3.org/1999/xlink" x="0px" y="0px"
	 viewBox="0 0 3775.7 1278.1" style="enable-background:new 0 0 3775.7 1278.1;" xml:space="preserve">
<style type="text/css">
	.st0{fill:#010202;}
</style>
<g id="Layer_1_1_">
</g>
<g id="Layer_2">
	<g>
		<path class="st0" d="M434.7,802.7v-327h55.7c16,0,27.3,2.1,34,6.4c8.2,5.7,12.2,16.2,12.2,31.3v82.7c0,12.4-2.5,21.2-7.5,26.5
			s-13.4,8.2-25.1,8.8v0.9c22.6,0.9,34,11,34,30.3v102.5c0,15.1-4.2,25.4-12.7,30.8c-6.6,4.5-18.3,6.8-34.9,6.8H434.7L434.7,802.7z
			 M464.6,620.1h19.9c14.8,0,22.2-7.8,22.2-23.5v-73.4c0-14.8-8.5-22.2-25.4-22.2h-16.7V620.1L464.6,620.1z M464.6,777.3h18.1
			c16.9,0,25.4-7.4,25.4-22.2v-89.7c0-13.3-7.9-19.9-23.5-19.9h-20V777.3L464.6,777.3z"/>
		<path class="st0" d="M725.5,750.1v-222c0-36.8,17.5-55.3,52.5-55.3s52.5,18.4,52.5,55.3v222c0,36.8-17.5,55.3-52.5,55.3
			S725.5,787,725.5,750.1z M755.4,529.1v220.1c0,20.6,7.5,30.8,22.6,30.8c15.1,0,22.7-10.2,22.7-30.8V529.1
			c0-20.5-7.6-30.8-22.7-30.8C762.9,498.3,755.4,508.6,755.4,529.1z"/>
		<path class="st0" d="M1017.7,802.7v-327h55.7c16,0,27.4,2.1,34,6.4c8.2,5.7,12.2,16.2,12.2,31.3v82.7c0,12.4-2.5,21.2-7.5,26.5
			s-13.4,8.2-25.1,8.8v0.9c22.6,0.9,33.9,11,33.9,30.3v102.5c0,15.1-4.2,25.4-12.7,30.8c-6.6,4.5-18.3,6.8-34.9,6.8H1017.7
			L1017.7,802.7L1017.7,802.7z M1047.6,620.1h19.9c14.8,0,22.2-7.8,22.2-23.5v-73.4c0-14.8-8.4-22.2-25.4-22.2h-16.7V620.1
			L1047.6,620.1z M1047.6,777.3h18.1c16.9,0,25.4-7.4,25.4-22.2v-89.7c0-13.3-7.9-19.9-23.5-19.9h-19.9L1047.6,777.3L1047.6,777.3z"
			/>
		<path class="st0" d="M1308.9,802.7v-327h55.7c16,0,27.3,2.1,34,6.4c8.2,5.7,12.2,16.2,12.2,31.3v82.7c0,12.4-2.5,21.2-7.5,26.5
			s-13.4,8.2-25.2,8.8v0.9c22.7,0.9,34,11,34,30.3v102.5c0,15.1-4.2,25.4-12.7,30.8c-6.7,4.5-18.3,6.8-34.9,6.8H1308.9L1308.9,802.7
			L1308.9,802.7z M1338.8,620.1h19.9c14.8,0,22.2-7.8,22.2-23.5v-73.4c0-14.8-8.4-22.2-25.4-22.2h-16.7V620.1L1338.8,620.1
			L1338.8,620.1z M1338.8,777.3h18.1c16.9,0,25.4-7.4,25.4-22.2v-89.7c0-13.3-7.9-19.9-23.6-19.9h-19.9V777.3z"/>
		<path class="st0" d="M1599.7,802.7v-327h29.9v327H1599.7z"/>
		<path class="st0" d="M2019.6,802.7v-327h55.7c16,0,27.3,2.1,34,6.4c8.1,5.7,12.2,16.2,12.2,31.3v82.7c0,12.4-2.5,21.2-7.5,26.5
			s-13.4,8.2-25.1,8.8v0.9c22.7,0.9,34,11,34,30.3v102.5c0,15.1-4.2,25.4-12.7,30.8c-6.6,4.5-18.3,6.8-34.9,6.8H2019.6L2019.6,802.7
			L2019.6,802.7z M2049.5,620.1h19.9c14.8,0,22.2-7.8,22.2-23.5v-73.4c0-14.8-8.4-22.2-25.4-22.2h-16.8L2049.5,620.1L2049.5,620.1z
			 M2049.5,777.3h18.1c16.9,0,25.4-7.4,25.4-22.2v-89.7c0-13.3-7.9-19.9-23.6-19.9h-19.9V777.3L2049.5,777.3z"/>
		<path class="st0" d="M2384.2,802.7V665.4c0-13.3-7.9-19.9-23.5-19.9h-19.9v157.2h-30V475.6h55.7c16,0,27.3,2.1,33.9,6.4
			c8.2,5.7,12.2,16.2,12.2,31.3v82.8c0,12.4-2.5,21.2-7.5,26.5s-13.4,8.2-25.1,8.8v0.9c22.7,1.5,34,11.6,34,30.3v140L2384.2,802.7
			L2384.2,802.7L2384.2,802.7L2384.2,802.7z M2340.7,620.1h20c14.8,0,22.2-7.8,22.2-23.5v-73.4c0-14.8-8.4-22.2-25.4-22.2h-16.8
			L2340.7,620.1L2340.7,620.1z"/>
		<path class="st0" d="M2601.7,750.1v-222c0-36.8,17.5-55.3,52.5-55.3s52.6,18.4,52.6,55.3v222c0,36.8-17.5,55.3-52.6,55.3
			C2619.2,805.4,2601.7,787,2601.7,750.1z M2631.6,529.1v220.1c0,20.6,7.6,30.8,22.7,30.8c15.1,0,22.7-10.2,22.7-30.8V529.1
			c0-20.5-7.6-30.8-22.7-30.8C2639.1,498.3,2631.6,508.6,2631.6,529.1z"/>
		<path class="st0" d="M3015.2,768.3l22.6-292.6h28.1l-33.1,327h-38.9l-22.7-290.8h-0.9l-22.7,290.8h-38.8l-33.1-327h28.1
			l24.5,292.6h0.9l23.1-292.6h37.1l24.9,292.6L3015.2,768.3L3015.2,768.3z"/>
		<path class="st0" d="M3314.6,475.6h26.3v327h-43.1l-38-290.8v290.8h-26.3v-327h44l37.1,279.9V475.6L3314.6,475.6z"/>
	</g>
</g>
</svg>
