<?xml version="1.0" encoding="utf-8"?>
<!-- Generator: Adobe Illustrator 24.1.2, SVG Export Plug-In . SVG Version: 6.00 Build 0)  -->
<svg version="1.1" id="Layer_1" xmlns="http://www.w3.org/2000/svg" xmlns:xlink="http://www.w3.org/1999/xlink" x="0px" y="0px"
	 viewBox="0 0 3775.7 672.2" style="enable-background:new 0 0 3775.7 672.2;" xml:space="preserve">
<style type="text/css">
	.st0{fill:#010202;}
</style>
<g id="Layer_1_1_">
</g>
<g id="Layer_2">
	<g>
		<path class="st0" d="M55.1,542.5V130.1h70.3c20.2,0,34.4,2.6,42.9,8.1c10.3,7.2,15.4,20.4,15.4,39.5v104.3
			c0,15.6-3.2,26.7-9.5,33.4c-6.3,6.7-16.9,10.3-31.7,11.1v1.1c28.5,1.1,42.9,13.9,42.9,38.2v129.3c0,19-5.3,32-16,38.8
			c-8.3,5.7-23.1,8.6-44,8.6H55.1L55.1,542.5z M92.8,312.2h25.1c18.7,0,28-9.8,28-29.6V190c0-18.7-10.7-28-32-28H92.8V312.2
			L92.8,312.2z M92.8,510.4h22.8c21.3,0,32-9.3,32-28V369.3c0-16.8-10-25.1-29.6-25.1H92.8V510.4L92.8,510.4z"/>
		<path class="st0" d="M421.9,476.1v-280c0-46.4,22.1-69.7,66.2-69.7s66.2,23.2,66.2,69.7v280c0,46.4-22.1,69.7-66.2,69.7
			S421.9,522.7,421.9,476.1z M459.6,197.4V475c0,26,9.5,38.8,28.5,38.8c19,0,28.6-12.9,28.6-38.8V197.4c0-25.9-9.6-38.8-28.6-38.8
			C469,158.6,459.6,171.6,459.6,197.4z"/>
		<path class="st0" d="M790.4,542.5V130.1h70.3c20.2,0,34.6,2.6,42.9,8.1c10.3,7.2,15.4,20.4,15.4,39.5v104.3
			c0,15.6-3.2,26.7-9.5,33.4s-16.9,10.3-31.7,11.1v1.1c28.5,1.1,42.8,13.9,42.8,38.2v129.3c0,19-5.3,32-16,38.8
			c-8.3,5.7-23.1,8.6-44,8.6H790.4L790.4,542.5L790.4,542.5z M828.1,312.2h25.1c18.7,0,28-9.8,28-29.6V190c0-18.7-10.6-28-32-28
			h-21.1V312.2L828.1,312.2z M828.1,510.4h22.8c21.3,0,32-9.3,32-28V369.3c0-16.8-10-25.1-29.6-25.1h-25.1L828.1,510.4L828.1,510.4z
			"/>
		<path class="st0" d="M1157.7,542.5V130.1h70.3c20.2,0,34.4,2.6,42.9,8.1c10.3,7.2,15.4,20.4,15.4,39.5v104.3
			c0,15.6-3.2,26.7-9.5,33.4c-6.3,6.7-16.9,10.3-31.8,11.1v1.1c28.6,1.1,42.9,13.9,42.9,38.2v129.3c0,19-5.3,32-16,38.8
			c-8.5,5.7-23.1,8.6-44,8.6H1157.7L1157.7,542.5L1157.7,542.5z M1195.4,312.2h25.1c18.7,0,28-9.8,28-29.6V190c0-18.7-10.6-28-32-28
			h-21.1V312.2L1195.4,312.2L1195.4,312.2z M1195.4,510.4h22.8c21.3,0,32-9.3,32-28V369.3c0-16.8-10-25.1-29.8-25.1h-25.1V510.4z"/>
		<path class="st0" d="M1524.4,542.5V130.1h37.7v412.4H1524.4z"/>
		<path class="st0" d="M2054,542.5V130.1h70.3c20.2,0,34.4,2.6,42.9,8.1c10.2,7.2,15.4,20.4,15.4,39.5v104.3
			c0,15.6-3.2,26.7-9.5,33.4s-16.9,10.3-31.7,11.1v1.1c28.6,1.1,42.9,13.9,42.9,38.2v129.3c0,19-5.3,32-16,38.8
			c-8.3,5.7-23.1,8.6-44,8.6H2054L2054,542.5L2054,542.5z M2091.7,312.2h25.1c18.7,0,28-9.8,28-29.6V190c0-18.7-10.6-28-32-28h-21.2
			L2091.7,312.2L2091.7,312.2z M2091.7,510.4h22.8c21.3,0,32-9.3,32-28V369.3c0-16.8-10-25.1-29.8-25.1h-25.1V510.4L2091.7,510.4z"
			/>
		<path class="st0" d="M2513.9,542.5V369.3c0-16.8-10-25.1-29.6-25.1h-25.1v198.3h-37.8V129.9h70.3c20.2,0,34.4,2.6,42.8,8.1
			c10.3,7.2,15.4,20.4,15.4,39.5v104.4c0,15.6-3.2,26.7-9.5,33.4c-6.3,6.7-16.9,10.3-31.7,11.1v1.1c28.6,1.9,42.9,14.6,42.9,38.2
			v176.6L2513.9,542.5L2513.9,542.5L2513.9,542.5L2513.9,542.5z M2459,312.2h25.2c18.7,0,28-9.8,28-29.6V190c0-18.7-10.6-28-32-28
			H2459V312.2L2459,312.2z"/>
		<path class="st0" d="M2788.2,476.1v-280c0-46.4,22.1-69.7,66.2-69.7s66.3,23.2,66.3,69.7v280c0,46.4-22.1,69.7-66.3,69.7
			C2810.3,545.9,2788.2,522.7,2788.2,476.1z M2825.9,197.4V475c0,26,9.6,38.8,28.6,38.8c19,0,28.6-12.9,28.6-38.8V197.4
			c0-25.9-9.6-38.8-28.6-38.8C2835.4,158.6,2825.9,171.6,2825.9,197.4z"/>
		<path class="st0" d="M3309.7,499.1l28.5-369h35.4l-41.7,412.4h-49.1l-28.6-366.8h-1.1l-28.6,366.8h-48.9l-41.7-412.4h35.4
			l30.9,369h1.1l29.1-369h46.8l31.4,369L3309.7,499.1L3309.7,499.1z"/>
		<path class="st0" d="M3687.3,129.9h33.2v412.4h-54.4l-47.9-366.8v366.8h-33.2V129.9h55.5l46.8,353V129.9L3687.3,129.9z"/>
	</g>
</g>
</svg>
