<?xml version="1.0" encoding="utf-8"?>
<!-- Generator: Adobe Illustrator 24.0.1, SVG Export Plug-In . SVG Version: 6.00 Build 0)  -->
<svg version="1.1" id="圖層_1" xmlns="http://www.w3.org/2000/svg" xmlns:xlink="http://www.w3.org/1999/xlink" x="0px" y="0px"
	 viewBox="0 0 356.5 259.8" style="enable-background:new 0 0 356.5 259.8;" xml:space="preserve">
<style type="text/css">
	.st0{fill:#FFFFFF;}
	.st1{fill:#DCB879;}
</style>
<title>資產 12</title>
<g id="圖層_2_1_">
	<g id="圖層_1-2">
		<circle class="st0" cx="179.7" cy="129" r="126.9"/>
		<path class="st1" d="M179.7,3c70.1,0,126.9,56.8,126.9,126.9c0,33.7-13.4,65.9-37.2,89.7c-50.2,48.9-130.6,47.8-179.5-2.5
			c-47.9-49.3-47.9-127.7,0-177C113.7,16.3,146,2.9,179.7,3 M179.7,0C108,0,49.8,58.2,49.8,129.9S108,259.8,179.7,259.8
			s129.9-58.2,129.9-129.9S251.5,0,179.7,0C179.7,0,179.7,0,179.7,0z"/>
		<path class="st1" d="M180.7,6.7C248.3,6.7,303,61.5,302.9,129.1c0,32.4-12.9,63.4-35.7,86.3C220.4,264,143,265.5,94.3,218.7
			S44.2,94.4,91,45.8c1.1-1.1,2.2-2.2,3.3-3.3C117.2,19.5,148.3,6.6,180.7,6.7 M180.7,5.7C112.7,5.7,57.5,60.9,57.5,129
			s55.2,123.3,123.3,123.3S304,197,304,129S248.8,5.7,180.7,5.7L180.7,5.7z"/>
		<path class="st1" d="M41.5,136.5c-8.4,7.4-5.6,15.8-3.5,24c2.2,8.6,5.4,16.8,11.5,23.6c0.7-2,0.9-4.2,2-5.7
			c1.2-1.3,2.8-2.3,4.6-2.7c0.6-0.2,2,1.4,2.4,2.4c0.2,0.6-0.9,2.1-1.7,2.4c-5.6,2.2-6.4,4.9-2.6,9.8c4.6,6,8.5,12.2,7.7,20.2
			c0,0.7-0.3,1.3-0.8,1.8c-0.1-0.8-0.3-1.5-0.5-2.3c-1.4-3.7-2.1-7.9-4.4-10.9c-5.5-7.2-15.2-5.4-18.7,3c-0.6,1.1-1.4,2.2-2.3,3.2
			c-1.2-1.2-2.8-2.2-3.4-3.6c-2.2-5.5,2.4-11.6,9.1-11.8c4.1-0.1,8.2,1,12.1,1.6c-2.6-3-5.7-6.5-8.6-10c-5.9-7-11.3-14.4-13.4-23.4
			c-1-4.7-1.1-9.5-0.3-14.2C31.5,138.7,36,136,41.5,136.5z M33.6,142.6c-6.6,6.5-0.3,27.7,10.6,36.5
			C37.7,167.8,33.8,155.8,33.6,142.6z M52.6,194.3c-5.9-4.5-13.7-4.5-17.7-0.3c-1.8,1.9-2.8,4-0.7,6.8
			C39.4,196,44.6,191.2,52.6,194.3L52.6,194.3z M50.9,181.3l0.9,0.6c1.4-0.6,2.7-1.2,4-2c0.6-0.4,0.7-1.4,1-2.1
			c-0.8-0.2-2-0.8-2.4-0.5C53.1,178.5,51.9,179.9,50.9,181.3L50.9,181.3z"/>
		<path class="st1" d="M41.3,82.4c2.9-3.7,5.8-7.3,8.7-11c1-1.1,1.9-2.4,2.8-3.7c-4.7,1.9-9.4,3.3-14.4,1.7
			c-5.6-1.8-8.7-6.8-6.7-11.6c0.6-1.3,2.1-2.2,3.2-3.3c0.9,0.9,1.7,1.9,2.4,3.1c3.7,8.7,13.6,10.1,19.3,2.6c1.4-1.9,2.4-4,3.1-6.2
			c0.7-2.1,0.8-4.4,1.5-6.5c1.3,3.6,1.1,7.5-0.5,10.9c-1.9,3.9-4.1,7.6-6.7,11.1c-3.4,4.9-2.8,7.7,2.7,9.6c1.7,0.6,2.7,1.5,1.7,3
			c-0.8,1.1-2.1,1.8-3.5,1.9c-2.8-0.3-4.2-2.9-5.4-8.9c-2.3,3.6-5,6.4-6.2,9.8c-2.8,7.8-5.3,15.8-7.3,23.8
			c-1.2,4.6,0.2,9.5,3.7,12.6c0.3,0.3,0.6,0.7,0.8,1.2c0,0.2,0,0.5,0,0.7c-4,0.8-7.9-1.5-9.1-5.3c-1.4-3.5-2-7.2-1.7-10.9
			c1.1-9.4,5.4-17.6,11.8-24.6c-0.5,1-1,2-1.5,3c-2.5,4.7-5.6,9.1-7.3,14c-1.4,4.2-1.4,8.9-1.6,13.5c-0.1,1.4,1.2,2.9,1.8,4.4
			c0.8-13.1,5-24.7,10.9-36.3c-0.7,0.5-1,0.8-1.3,0.9S41.7,82.2,41.3,82.4z M52.5,65.4c-6.4,2.4-11.3,0.1-15.7-4
			c-1-0.7-2-1.3-3.1-1.8c-0.1,1.4-0.6,3-0.2,4.2c0.6,1.3,1.5,2.4,2.7,3.1C40.5,70.2,49.2,69.3,52.5,65.4z M51.3,77.5L50.6,78
			c1.2,1.6,2.4,3.2,3.7,4.6c0.3,0.3,1.5-0.3,2.4-0.4c-0.3-0.7-0.4-1.7-0.9-2.1C54.3,79.1,52.8,78.2,51.3,77.5z"/>
		<path class="st1" d="M40,81.4c-0.8,1.2-1.7,3.4-3.3,4.6c-4.5,3.3-9,6.9-14,9.2c-7.9,3.6-15.1,7.6-19.3,15.7
			c-0.4,0.6-0.8,1.1-1.4,1.6c-0.2,0.2-0.6,0.2-2,0.6c0.2-2.9,0-5.6,0.8-8c1.9-6.1,6-9.9,12.5-10.9c4.5-0.7,9.4-1.1,13.3-3.2
			C31.6,88.5,35.8,84.5,40,81.4z M3.2,106.4l17-11.8C9.6,95,2.4,100,3.2,106.4L3.2,106.4z"/>
		<path class="st1" d="M23.7,165.4c7.3,1.9,13.3,7.1,16.2,14.1c-0.2-0.1-0.6-0.2-0.7-0.4c-5.8-8.9-14.3-12.5-24.5-13.4
			C6.3,165,0.6,159.3,0,150.9c-0.1-1.3,0.4-2.6,0.7-4.8c1.4,1.5,2.5,2.3,3.1,3.3c3.8,7.2,9.9,11.5,17.3,14.4
			C22,164.2,22.9,164.8,23.7,165.4c-7.9-2.1-14.9-6.4-20.4-12.5c-0.4,3.2,1,6.4,3.7,8.3C11.9,165,17.8,165.3,23.7,165.4z"/>
		<path class="st1" d="M29.6,176.2c7.1,1.8,12.4,6.1,16.7,11.9c-4.8-4.2-9.6-8.5-16.3-9.6c-6.5-1.1-11.9,1.9-15.4,8.3
			c-4.1-2.6-2.7-7.6,3.2-10.9c-0.9,0.9-1.7,1.9-2.5,2.9c-0.6,1.1-1.1,2.2-1.6,3.3c5.5-3.5,10.8-5.4,17.1-4.4L29.6,176.2z"/>
		<path class="st1" d="M15.1,152.5c-6.2-2.6-8.3-13.5-3.6-17.4c1-0.8,2.9-0.5,4.4-0.7c-0.1,1.6,0.5,3.7-0.3,4.7
			C10.7,145.5,10.6,145.7,15.1,152.5z M9.5,143.8l0.9,0.1c1.4-1.5,2.6-3.2,3.8-4.9c0.5-0.8,0.1-2.1,0.1-3.1c-1,0.4-2.5,0.6-2.8,1.2
			C10.7,139.3,10,141.5,9.5,143.8z"/>
		<path class="st1" d="M23,85.1c-2.9-1.1-6.2-1.8-8.6-3.6c-2.3-1.6-2.9-4.7-1.3-7c0.4-0.6,1-1.1,1.6-1.5c2.6,8.1,9.5,8.2,16.2,8.7
			c0.1,0.1,0.1,0.3,0.1,0.5c-6.3,0.9-11.9-0.7-17.2-5.2c0.1,4,2.4,5.3,4.9,6.4C20.2,84,21.6,84.5,23,85.1z"/>
		<path class="st1" d="M14.9,107.6c-0.6,0.9-1.3,1.9-1.8,2.8c-2.1,3.5-1.8,6,1.2,8.8c1.6,1.5,3.4,2.9,2.2,5.3
			c-0.4,0.7-2.1,1.6-2.4,1.4c-1.6-1.1-3.6-2.4-4.3-4.1C7.6,116.7,9.7,110.7,14.9,107.6z M10.4,115.8l-0.8,0.1
			c0.5,2.3,1.1,4.5,1.9,6.7c0.3,0.7,1.8,1,2.8,1.4c0-1.1,0.3-2.4-0.2-3.3C12.9,119,11.7,117.3,10.4,115.8z"/>
		<path class="st1" d="M19.6,149.4c1.4-1.3,2.4-2.2,3.4-3.1c0.8,1,2.3,2.1,2.1,2.9c-0.3,1.4-1.6,2.6-2.5,4L19.6,149.4z"/>
		<path class="st1" d="M19.5,109.8l3.7-3.2c0.7,1.5,1.7,2.9,2,4.5c0.1,0.7-1.5,1.6-2.3,2.4L19.5,109.8z"/>
		<path class="st1" d="M30.8,83.1l0.4-0.9c0.1-0.2,0-0.3-0.1-0.5c5.2-3.2,10.4-6.4,15.1-9.4C42.4,77.1,37.5,81.3,30.8,83.1z"/>
		<path class="st1" d="M23,160.1c-1.3-1.9-1.5-3.9,0.6-5.1c0.8-0.4,3.4,0.7,3.5,1.4c0.3,2.1,0.6,5.4-0.5,6.4
			c-1.8,1.5-3.1-0.8-3.6-2.8l3.8,2.8c-0.2-2.9,0.9-5.1-1.9-6C24.6,156.7,23.6,158.9,23,160.1z"/>
		<path class="st1" d="M21,101.9l4.8-5.4c0.7,1.3,2,2.5,2.1,3.8c0,2.1-0.1,4.9-3.2,4.8C23.6,105,22.6,103.4,21,101.9z M27.1,98.4
			L25,97.5c-0.7,1.5-1.2,3-1.7,4.6c-0.1,0.2,1.1,0.8,1.8,1.2C25.7,101.6,26.4,100,27.1,98.4L27.1,98.4z"/>
		<path class="st1" d="M26.1,118.9c-0.7,0.6-1.5,1.1-2.4,1.5c-0.8-0.7-1.4-1.6-1.7-2.6c-0.1-0.5,0.9-1.3,1.3-1.9L26.1,118.9z"/>
		<path class="st1" d="M315.1,123.3c8.4-7.4,5.6-15.8,3.5-24c-2.2-8.6-5.4-16.8-11.5-23.6c-0.7,2-0.9,4.2-2,5.7
			c-1.2,1.3-2.8,2.2-4.6,2.6c-0.6,0.2-2-1.4-2.4-2.4c-0.2-0.6,0.9-2.1,1.7-2.4c5.6-2.2,6.4-4.9,2.6-9.8c-4.6-6-8.5-12.2-7.7-20.2
			c0-0.7,0.4-1.3,0.9-1.8c0.1,0.8,0.3,1.5,0.5,2.3c1.4,3.7,2.1,7.9,4.4,10.9c5.5,7.2,15.2,5.4,18.7-3c0.6-1.1,1.4-2.2,2.3-3.2
			c1.2,1.2,2.9,2.2,3.4,3.6c2.2,5.4-2.3,11.5-9,11.7c-4.1,0.1-8.2-1-12.1-1.6c2.6,3,5.6,6.5,8.6,10c5.9,7,11.3,14.4,13.4,23.4
			c1,4.7,1.1,9.5,0.3,14.2C325.1,121.1,320.6,123.8,315.1,123.3z M323,117.2c6.6-6.5,0.4-27.7-10.6-36.5
			C318.9,92,322.7,104,323,117.2z M304,65.5c5.9,4.5,13.6,4.5,17.7,0.3c1.8-1.9,2.9-4,0.6-6.8C317.1,63.9,311.9,68.7,304,65.5z
			 M305.7,78.5l-0.9-0.6c-1.4,0.6-2.7,1.2-4,2c-0.6,0.4-0.7,1.4-1,2.1c0.8,0.2,2,0.8,2.4,0.5C303.4,81.3,304.6,80,305.7,78.5
			L305.7,78.5z"/>
		<path class="st1" d="M315.2,177.4c-2.9,3.7-5.8,7.3-8.7,11c-1,1.1-1.9,2.4-2.8,3.7c4.7-1.9,9.4-3.3,14.4-1.7
			c5.6,1.8,8.7,6.8,6.7,11.6c-0.6,1.3-2.1,2.2-3.2,3.3c-0.9-0.9-1.7-1.9-2.4-3.1c-3.7-8.7-13.6-10.1-19.2-2.6
			c-1.4,1.9-2.4,4-3.2,6.2c-0.7,2.1-0.8,4.4-1.4,6.5c-1.3-3.6-1.1-7.5,0.5-10.9c1.9-3.9,4.2-7.6,6.7-11.1c3.4-4.9,2.8-7.7-2.7-9.6
			c-1.6-0.6-2.7-1.5-1.7-3c0.8-1.1,2.1-1.8,3.5-1.9c2.8,0.3,4.2,2.9,5.4,9c2.3-3.6,5-6.4,6.2-9.9c2.8-7.8,5.3-15.8,7.3-23.9
			c1.2-4.6-0.2-9.5-3.7-12.6c-0.3-0.3-0.6-0.7-0.8-1.2c-0.1-0.2,0-0.4,0-0.7c3.9-0.8,7.8,1.5,9.1,5.3c1.4,3.5,2,7.2,1.7,10.9
			c-1.1,9.4-5.4,17.6-11.8,24.6c0.5-1,1-2,1.5-3c2.5-4.7,5.6-9.1,7.3-14c1.4-4.2,1.4-8.9,1.6-13.5c0.1-1.4-1.2-2.9-1.9-4.4
			c-0.8,13.1-5,24.7-10.9,36.3c0.8-0.5,1-0.8,1.3-0.9S314.8,177.6,315.2,177.4z M304,194.5c6.4-2.4,11.3-0.1,15.7,4
			c1,0.7,2,1.3,3.1,1.8c0.1-1.4,0.6-2.9,0.2-4.2c-0.6-1.3-1.5-2.3-2.7-3.1C316,189.7,307.4,190.5,304,194.5z M305.2,182.4l0.7-0.5
			c-1.2-1.6-2.4-3.2-3.8-4.6c-0.3-0.3-1.5,0.3-2.4,0.4c0.3,0.7,0.4,1.7,0.9,2.1C302.2,180.8,303.7,181.6,305.2,182.4L305.2,182.4z"
			/>
		<path class="st1" d="M316.5,178.5c0.8-1.2,1.7-3.4,3.3-4.6c4.5-3.4,9-6.9,14-9.2c7.9-3.7,15.2-7.7,19.3-15.7
			c0.4-0.6,0.8-1.1,1.4-1.6c0.2-0.2,0.6-0.2,2-0.6c-0.2,2.9,0,5.6-0.8,8c-1.9,6.1-6,9.9-12.6,10.9c-4.5,0.7-9.3,1.1-13.3,3.1
			C325,171.3,320.7,175.3,316.5,178.5z M353.3,153.5l-17,11.8C347,164.9,354.2,159.9,353.3,153.5L353.3,153.5z"/>
		<path class="st1" d="M332.9,94.4c-7.3-1.9-13.3-7.1-16.2-14.1c0.2,0.1,0.6,0.2,0.7,0.4c5.7,8.9,14.3,12.5,24.5,13.3
			c8.5,0.7,14.1,6.5,14.7,14.9c0.1,1.3-0.4,2.7-0.7,4.8c-1.4-1.5-2.5-2.3-3.1-3.3c-3.8-7.2-9.9-11.5-17.3-14.4
			C334.5,95.6,333.7,95.1,332.9,94.4c7.9,2.1,14.9,6.5,20.4,12.6c0.4-3.2-1-6.4-3.7-8.3C344.7,94.8,338.8,94.5,332.9,94.4z"/>
		<path class="st1" d="M326.9,83.7c-7.1-1.8-12.4-6.1-16.6-11.9c4.8,4.2,9.6,8.5,16.3,9.6c6.5,1.1,11.9-1.9,15.4-8.2
			c4.1,2.6,2.7,7.6-3.2,10.9c0.9-0.9,1.7-1.9,2.5-2.9c0.6-1.1,1.1-2.2,1.6-3.3c-5.5,3.5-10.8,5.3-17.1,4.4L326.9,83.7z"/>
		<path class="st1" d="M341.5,107.3c6.2,2.6,8.3,13.5,3.6,17.4c-1,0.8-2.9,0.5-4.5,0.7c0.1-1.6-0.5-3.7,0.3-4.7
			C345.9,114.3,346,114.1,341.5,107.3z M347,116.1l-0.9-0.1c-1.4,1.6-2.6,3.2-3.8,4.9c-0.5,0.8-0.1,2.1-0.1,3.2
			c1-0.4,2.5-0.6,2.8-1.3C345.9,120.6,346.5,118.4,347,116.1L347,116.1z"/>
		<path class="st1" d="M333.5,174.8c2.9,1.1,6.2,1.8,8.5,3.6c2.3,1.6,2.9,4.7,1.3,6.9c-0.4,0.6-1,1.1-1.6,1.5
			c-2.6-8.1-9.5-8.2-16.3-8.7c-0.1-0.1-0.1-0.3-0.1-0.5c6.3-0.9,11.9,0.7,17.2,5.2c-0.1-4-2.4-5.3-4.9-6.4
			C336.3,175.9,334.9,175.3,333.5,174.8z"/>
		<path class="st1" d="M341.6,152.3c0.6-0.9,1.3-1.9,1.8-2.8c2.1-3.5,1.8-6-1.2-8.8c-1.6-1.5-3.4-2.9-2.2-5.3
			c0.3-0.7,2.1-1.6,2.4-1.4c1.6,1.1,3.6,2.4,4.3,4.1C349,143.1,346.8,149.2,341.6,152.3z M346.2,144.1l0.8-0.1
			c-0.5-2.3-1.1-4.5-1.9-6.7c-0.3-0.7-1.8-1-2.8-1.4c0,1.1-0.3,2.4,0.2,3.3C343.6,140.9,344.8,142.5,346.2,144.1L346.2,144.1z"/>
		<path class="st1" d="M336.9,110.5l-3.4,3.2c-0.8-1-2.3-2.1-2.1-2.9c0.3-1.4,1.6-2.7,2.5-4L336.9,110.5z"/>
		<path class="st1" d="M337.1,150l-3.7,3.2c-0.7-1.5-1.7-2.9-2-4.5c-0.1-0.7,1.5-1.6,2.3-2.4L337.1,150z"/>
		<path class="st1" d="M325.8,176.8l-0.4,0.9c-0.1,0.2,0,0.3,0.1,0.5l-15.1,9.4C314.1,182.8,319,178.6,325.8,176.8z"/>
		<path class="st1" d="M333.5,99.8c1.3,1.9,1.6,3.9-0.5,5.1c-0.8,0.4-3.4-0.7-3.5-1.4c-0.3-2.1-0.6-5.4,0.5-6.4
			c1.8-1.5,3.1,0.8,3.6,2.8c-1-0.8-2-1.5-3.8-2.8c0.2,2.8-0.9,5.1,1.9,6C331.9,103.2,332.9,100.9,333.5,99.8z"/>
		<path class="st1" d="M335.6,157.9l-4.8,5.4c-0.7-1.3-2-2.5-2.1-3.8c0-2.1,0.1-4.9,3.2-4.8C333,154.8,333.9,156.4,335.6,157.9z
			 M329.5,161.5l2.1,0.9c0.6-1.5,1.2-3,1.7-4.6c0-0.2-1.1-0.8-1.8-1.2L329.5,161.5z"/>
		<path class="st1" d="M330.4,140.9c0.7-0.6,1.5-1.1,2.4-1.5c0.8,0.7,1.4,1.6,1.8,2.6c0.1,0.5-0.9,1.3-1.3,1.9L330.4,140.9z"/>
		<path class="st1" d="M179.7,3c70.1,0,126.9,56.8,126.9,126.9c0,33.7-13.4,65.9-37.2,89.7c-50.2,48.9-130.6,47.8-179.5-2.5
			c-47.9-49.3-47.9-127.7,0-177C113.7,16.3,146,2.9,179.7,3 M179.7,0C108,0,49.8,58.2,49.8,129.9S108,259.8,179.7,259.8
			s129.9-58.2,129.9-129.9S251.5,0,179.7,0C179.7,0,179.7,0,179.7,0z"/>
	</g>
</g>
</svg>
