<?xml version="1.0" encoding="utf-8"?>
<!-- Generator: Adobe Illustrator 24.1.2, SVG Export Plug-In . SVG Version: 6.00 Build 0)  -->
<svg version="1.1" id="圖層_1" xmlns="http://www.w3.org/2000/svg" xmlns:xlink="http://www.w3.org/1999/xlink" x="0px" y="0px"
	 viewBox="0 0 898.5 203.2" style="enable-background:new 0 0 898.5 203.2;" xml:space="preserve">
<style type="text/css">
	.st0{fill:#C74042;}
	.st1{font-family:'Kefa-Regular';}
	.st2{font-size:43.5834px;}
	.st3{fill:#C38150;}
	.st4{font-family:'NaikaiFont-Bold';}
	.st5{font-size:29.0556px;}
	.st6{fill:#D8B479;}
</style>
<g>
	<text transform="matrix(1 0 0 1 363.4278 98.5062)" class="st0 st1 st2">BRANDS</text>
	<text transform="matrix(1 0 0 1 390.6968 128.9291)" class="st3 st4 st5">品牌列表</text>
	<g>
		<g>
			<path class="st6" d="M440.8,33c0.6-2.1,0.8-4.3,3.6-4.2c-0.7,1.4-1.8,2.7-1.8,3.9c0.1,1.4,1.1,2.8,1.9,4.1c2,3,2.4,6.3,0.9,8.8
				c-1.7,2.7-6.6,4.8-9.5,4.1c-0.7-0.2-1.2-0.8-2.1-1.5c2.5,0,4.6,0.5,6.3-0.1c2.8-0.9,5-2.7,5.1-6.1c0-2.6-2.7-6.9-5.3-7.6
				c-1.2-0.3-2.9,0-4.1,0.5c-1.9,0.8-3.3,0.8-4.5-1.3c0.7-0.4,1.2-0.6,2.2-1.2c-4.1,0-8-1.1-9.8,3.7c-1.6-4.3,0.2-6.2,5.9-7
				c-10.4-3.2-20.9-4.6-31.1,0.7c-5.2,2.7-6.6,7.8-4.1,12.4c2.4,4.4,8.4,6.4,12.9,3.9c1.7-1,3.7-3.2,3.8-4.9
				c0.1-1.5-2.3-3.2-4.1-5.3c0.4-0.2,1.3-1.3,2.3-1.5c2.6-0.3,4.3,1.8,5.9,6.7c0.7-1.1,1.3-2.3,2-3.3c1-1.5,2-2.9,4.1-0.9
				c0.7,0.7,2.7,0.1,4.1,0.1c2.6-0.1,5.2-0.8,7.8-0.5c3.9,0.5,5.3,2.8,5,7.1c-2.4-3.2-5.5-2.5-8.3-1.4c-3.6,1.3-7.2,3-10.6,4.8
				c-5.5,2.9-11.2,3.6-17.3,2.4c-10-1.9-13.9-12.5-6.3-19.5c-4.1,0.2-5.6,2.3-6.5,8.3c-0.6-1.5-1.1-2.9-1.8-4.8
				c-4.7,3.6-9.4,7.2-14.8,11.3c1.7,0.1,2.7,0.2,3.6,0.2c1.9,0,3.9-1.3,5.7,0.8c0.4,0.5,2.5-0.5,3.8-0.6c1.2-0.1,2.5,0.1,3.7,0.5
				c-5.6,5-11.3,4.1-17.1,1c-0.9-0.5-2.3-0.6-3.2-0.2c-7.6,3.4-15.5,3.6-23.5,1.9c-1.2-0.3-2.5-0.7-3.7-0.8
				c-1.8-0.1-3.5,0.2-5.6,0.3c-0.4-2.1,1.7-2.5,3.8-3.4c-2-0.3-4.1-0.6-6.3-0.9c0.7-0.6,1.3-1.1,2-1.7c-4.2-1.4-8.3-1.6-12.4-0.5
				c-1.4,0.4-2.8,1.4-3.8,2.5c-0.5,0.5-0.2,1.8-0.2,2.8c0.9-0.3,1.8-0.5,2.7-0.8c0.3-0.1,0.4-0.6,1-1.5c0.3,1.4,0.4,2.3,0.6,3.3
				c2.8,0.3,4.7-4.1,7.9-1.8c0.4,0.3,0.3,1.2,0.3,1.1c-1.8,0.5-3.4,0.7-4.7,1.4c-4.2,2.3-7.4,1.8-10.4-2.1c-0.4,1.1-0.8,2-1.3,3.4
				c-0.6-0.8-1.1-1.5-1.7-2.2c-0.2,0.4-0.4,0.8-0.8,1.6c-0.3-0.8-0.4-1.4-0.7-2.1c-4,2.5-8,2.9-12.6,1.6c-2.2-0.6-4.8,0.1-7.2,0.2
				c0.5-0.6,1-1.2,2.1-2.6c-3.6,1.1-6.3,2-9.1,2.7c-1.6,0.4-3.2,0.7-4.8,0.5c-0.6-0.1-1.1-1.5-1.3-2.7c2.1,2.2,4,1.4,6,0.3
				c3.6-2,7.3-2.5,11.5-1.4c0-1.4,0-2.7,0-3.9c2.3,2.6,4.6,4.5,8.1,4.1c0.1,0,0-0.8,0-1.4c0.9,0.3,1.8,0.6,3.1,1
				c-1-1.3-2.2-2.2-2.5-3.3c-0.3-1,0.5-2.3,1.1-3.4c2.2,3.9,5.7,3.1,8.8,2.8c2.4-0.2,4.8-1,7.2-1.4c6.1-1.2,7.7-1,17.8,2.1
				c-0.6-1.4-1.3-2.7-1.6-4c-0.2-0.8,0.2-1.8,0.3-2.7c0.9,0.2,2.1,0,2.6,0.6c1.6,1.8,2.9,3.8,4,5.3c2.2-5.7,7.8-7.5,13.9-7.9
				c3.9-0.3,7.8,0.5,11.7,0.5c2.7,0,5.5-0.4,7-3.3c1.3,3.3,0.6,5.4-2.4,6.8c-1.5,0.7-3.2,0.8-4.7,1.4c-1.7,0.6-3.2,1.5-5.2,2.4
				c3.2,2.9,5.6,2.8,8.2,0.5c4-3.4,8.3-6.5,12.5-9.8c-1-0.5-2.3-0.8-3-1.6c-0.7-0.8-0.9-2-1-3.4c2.8,4.2,6.5,3.4,10,1.9
				C409.3,22.5,425.2,23.8,440.8,33z M369,45.2c-2.4-1.6-4.4-3-5.9-4c-1.2,1.6-2.2,3.2-3.5,4.5c-0.3,0.3-1.6-0.5-2.6-0.8
				c1.9-1.8,3.4-3.3,1.8-5.5c-1.4-2-4.6-2.2-7.5-0.6c4,1.9,5,4,3.4,8.9c-1.2-1.8-2.3-3-3-4.5c-0.5-1.3-0.5-2.8-2.5-2.4
				c-1.7,0.4-2.9,2.8-1.8,4.2c1.2,1.4,2.9,2.9,4.6,3.1C357.7,48.9,363.4,47.9,369,45.2z"/>
		</g>
		<g>
			<path class="st6" d="M524.4,44.3c-4.8-3.7-9.6-7.4-14.4-11.1c-0.6,1.8-1.1,3.4-1.5,4.9c-0.4,0.1-0.8,0.2-1.1,0.3
				c1.3-5.1-1.1-7.6-5.9-9.1c0.5,0.7,0.7,0.9,0.8,1.2c0.3,0.3,0.5,0.6,0.8,0.9c4.9,6,2.8,14.3-4.5,17.1c-6.8,2.6-13.5,2-20.1-1.2
				c-4.1-2-8.3-3.7-12.6-5.4c-2.4-0.9-4.8-0.6-6.6,1.7c-0.4-3.7,0.9-6.4,4-6.9c2.7-0.4,5.6-0.1,8.3,0.2c2,0.2,4,1.4,5.6-0.8
				c0.2-0.2,1.7,0.2,2.1,0.7c1,1.1,1.8,2.5,2.9,4.1c1.1-3.3,2.2-6.6,6.3-6.4c0.8,0,1.6,1.2,2.4,1.9c-0.4,0-0.7,0-1.1,0
				c-1.3,1.7-3.7,3.6-3.5,5.1c0.2,1.8,2.5,3.9,4.4,4.9c4.7,2.2,10.6-0.2,12.7-4.7c2.2-4.5,0.4-9.3-4.6-12c-7-3.8-14.7-3.6-22.3-2.7
				c-2.9,0.4-5.8,1.3-8.7,2.1c5.9,1,7.5,2.7,6,7.2c-1.9-5.1-5.8-3.7-10.1-3.9c1.2,0.6,1.8,0.9,2.5,1.3c-1.1,1.9-2.6,2.4-4.2,1.3
				c-3.4-2.5-6.5,0.3-8.5,3.5c-2,3.1-1.4,6.1,1.4,8.3c2.1,1.6,2.8,1.7,8.6,1.7c-0.8,0.4-1.5,1.2-2.3,1.3c-3.3,0.5-7.8-1.7-9.3-4.5
				c-1.7-3.3-0.7-6.2,1.5-8.9c2.5-3.2,2.4-4.2-0.4-7.2c2.5-0.1,2.9,0.3,3.8,4c7-4.6,14.7-7.1,23-7.9c8.2-0.7,16.1,0.5,23.8,3.5
				c1.4,0.5,2.7,1.1,4.2,1.3c2.7,0.5,5.1,0.2,6.2-3c1.5,2.5,0.5,3.8-3.5,5c5.1,3.8,9.9,7.7,15,11.2c1.2,0.8,3.5-0.2,5.3-0.3
				c-0.6-3.1-2.4-3.6-4.5-3.9c-1.7-0.3-3.5-0.7-5-1.4c-2.8-1.4-3.3-3.3-2.3-5.9c1.9,0.8,3.8,2,5.8,2.3c2.4,0.3,4.9-0.2,7.3-0.1
				c4,0.2,8,0.2,11.8,1c3.8,0.8,6.8,3.2,8.4,7.3c-0.1-3.1,1.4-5,3.9-6.3c0.6-0.3,1.8-0.6,2.1-0.3c0.5,0.5,0.8,1.6,0.6,2.3
				c-0.4,1.5-1.1,2.9-1.7,4.4c2.5-0.7,4.9-1.5,7.4-2.2c5.5-1.5,10.8,0.5,16.2,1.3c1.6,0.3,3.3,0.5,4.9,0.3c1.7-0.3,3.3-1.2,5.7-2
				c1.8,1,1.6,2.7-1.6,5.8c0.9-0.3,1.9-0.7,3-1.1c-0.1,0.5-0.2,1-0.4,1.6c3.6,0.3,6-1.3,8.4-4.2c0.1,1.2,0.1,2.4,0.2,3.9
				c4.3-1.1,8.5-0.1,12.6,2c1.1,0.6,2.8-0.1,4.3-0.5c1.3,1,0.8,2.2-0.8,2.5c-1.6,0.2-3.4-0.3-5-0.7c-2.7-0.6-5.4-1.5-8.1-2.2
				c-0.2,0.3-0.3,0.6-0.5,0.8c0.8,0.3,1.6,0.7,2.2,1c-4.1,0.3-7.7,1-11.4,0.9c-2.9-0.1-5.8-1-8.9-1.5c0,0-0.1,0.5-0.4,1.2
				c-0.4-0.7-0.8-1.2-1.1-1.7c-0.4,0.8-0.7,1.5-1.3,2.8c-0.6-1.6-1-2.7-1.4-3.8c-2.9,3.9-6.2,4.5-10.5,2.1c-1.2-0.7-2.7-0.9-4.5-1.5
				c-0.1-1.4,1-2.2,3.3-1.3c1.6,0.7,3,1.6,4.8,2.6c0.2-1.3,0.3-2.2,0.4-3c0.4,0,0.6-0.1,0.7,0c0.8,1.1,1.6,2.8,3.1,1.5
				c1.6-1.3,0.4-3.1-0.8-3.6c-2.8-1.1-5.8-1.9-8.8-2.3c-2.1-0.2-4.2,0.5-6.8,0.9c0.9,0.8,1.5,1.4,2.1,2c-2.2,0.3-4.4,0.5-6.5,0.8
				c1.9,1,4.2,1.1,3.8,4.5c-2.1-2.6-4.4-1.8-6.7-1.2c-8.9,2.4-17.7,2.4-26.3-1.4c-0.9-0.4-2.4,0.1-3.4,0.6c-5.6,2.8-11.1,3.5-16.5-1
				c2.6-3.3,6,1.8,8.1-0.5C518.8,42.8,521.8,46.7,524.4,44.3z M528.6,45.2c5.5,2.7,11,3.6,16.7,3c2.2-0.2,4.7-1.1,5-3.7
				c0.1-1.1-1.3-2.4-1.9-3.7c-0.8,0.7-1.8,1.3-2.4,2.2c-1,1.3-1.8,2.9-2.7,4.3c-0.4-0.2-0.8-0.3-1.2-0.5c0.2-1.7,0-3.5,0.7-4.9
				c0.7-1.4,2.3-2.3,3.4-3.4c-3.3-1.2-6.8-0.9-7.4,1.3c-0.4,1.5,0.5,3.4,1,5.6c-0.1,0-1.4,0.7-1.7,0.4c-1.3-1.3-2.4-2.9-3.5-4.4
				C532.8,42.3,530.9,43.6,528.6,45.2z"/>
		</g>
		<g>
			<path class="st6" d="M651.7,49.5c0.1,0.9,0.2,1.3,0.2,1.8c0,0.3-0.1,0.5-0.2,1c-135.3,0-270.5,0-405.9,0c0-0.9,0-1.7,0-2.8
				c7.9,0,15.8-0.9,23.4,0.3c5.8,0.9,11.5,0.8,17.2,0.8c111.9,0.1,223.9,0.2,335.8-0.1c8.8,0,17.6-0.9,26.5-1
				C649.5,49.5,650.5,49.5,651.7,49.5z"/>
		</g>
	</g>
	<g>
		<g>
			<path class="st6" d="M456.8,167.1c-0.6,2.1-0.8,4.3-3.6,4.2c0.7-1.4,1.8-2.7,1.8-3.9c-0.1-1.4-1.1-2.8-1.9-4.1
				c-2-3-2.4-6.3-0.9-8.8c1.7-2.7,6.6-4.8,9.5-4.1c0.7,0.2,1.2,0.8,2.1,1.5c-2.5,0-4.6-0.5-6.3,0.1c-2.8,0.9-5,2.7-5.1,6.1
				c0,2.6,2.7,6.9,5.3,7.6c1.2,0.3,2.9,0,4.1-0.5c1.9-0.8,3.3-0.8,4.5,1.3c-0.7,0.4-1.2,0.6-2.2,1.2c4.1,0,8,1.1,9.8-3.7
				c1.6,4.3-0.2,6.2-5.9,7c10.4,3.2,20.9,4.6,31.1-0.7c5.2-2.7,6.6-7.8,4.1-12.4c-2.4-4.4-8.4-6.4-12.9-3.9c-1.7,1-3.7,3.2-3.8,4.9
				c-0.1,1.5,2.3,3.2,4.1,5.3c-0.4,0.2-1.3,1.3-2.3,1.5c-2.6,0.3-4.3-1.8-5.9-6.7c-0.7,1.1-1.3,2.3-2,3.3c-1,1.5-2,2.9-4.1,0.9
				c-0.7-0.7-2.7-0.1-4.1-0.1c-2.6,0.1-5.2,0.8-7.8,0.5c-3.9-0.5-5.3-2.8-5-7.1c2.4,3.2,5.5,2.5,8.3,1.4c3.6-1.3,7.2-3,10.6-4.8
				c5.5-2.9,11.2-3.6,17.3-2.4c10,1.9,13.9,12.5,6.3,19.5c4.1-0.2,5.6-2.3,6.5-8.3c0.6,1.5,1.1,2.9,1.8,4.8
				c4.7-3.6,9.4-7.2,14.8-11.3c-1.7-0.1-2.7-0.2-3.6-0.2c-1.9,0-3.9,1.3-5.7-0.8c-0.4-0.5-2.5,0.5-3.8,0.6c-1.2,0.1-2.5-0.1-3.7-0.5
				c5.6-5,11.3-4.1,17.1-1c0.9,0.5,2.3,0.6,3.2,0.2c7.6-3.4,15.5-3.6,23.5-1.9c1.2,0.3,2.5,0.7,3.7,0.8c1.8,0.1,3.5-0.2,5.6-0.3
				c0.4,2.1-1.7,2.5-3.8,3.4c2,0.3,4.1,0.6,6.3,0.9c-0.7,0.6-1.3,1.1-2,1.7c4.2,1.4,8.3,1.6,12.4,0.5c1.4-0.4,2.8-1.4,3.8-2.5
				c0.5-0.5,0.2-1.8,0.2-2.8c-0.9,0.3-1.8,0.5-2.7,0.8c-0.3,0.1-0.4,0.6-1,1.5c-0.3-1.4-0.4-2.3-0.6-3.3c-2.8-0.3-4.7,4.1-7.9,1.8
				c-0.4-0.3-0.3-1.2-0.3-1.1c1.8-0.5,3.4-0.7,4.7-1.4c4.2-2.3,7.4-1.8,10.4,2.1c0.4-1.1,0.8-2,1.3-3.4c0.6,0.8,1.1,1.5,1.7,2.2
				c0.2-0.4,0.4-0.8,0.8-1.6c0.3,0.8,0.4,1.4,0.7,2.1c4-2.5,8-2.9,12.6-1.6c2.2,0.6,4.8-0.1,7.2-0.2c-0.5,0.6-1,1.2-2.1,2.6
				c3.6-1.1,6.3-2,9.1-2.7c1.6-0.4,3.2-0.7,4.8-0.5c0.6,0.1,1.1,1.5,1.3,2.7c-2.1-2.2-4-1.4-6-0.3c-3.6,2-7.3,2.5-11.5,1.4
				c0,1.4,0,2.7,0,3.9c-2.3-2.6-4.6-4.5-8.1-4.1c-0.1,0,0,0.8,0,1.4c-0.9-0.3-1.8-0.6-3.1-1c1,1.3,2.2,2.2,2.5,3.3
				c0.3,1-0.5,2.3-1.1,3.4c-2.2-3.9-5.7-3.1-8.8-2.8c-2.4,0.2-4.8,1-7.2,1.4c-6.1,1.2-7.7,1-17.8-2.1c0.6,1.4,1.3,2.7,1.6,4
				c0.2,0.8-0.2,1.8-0.3,2.7c-0.9-0.2-2.1,0-2.6-0.6c-1.6-1.8-2.9-3.8-4-5.3c-2.2,5.7-7.8,7.5-13.9,7.9c-3.9,0.3-7.8-0.5-11.7-0.5
				c-2.7,0-5.5,0.4-7,3.3c-1.3-3.3-0.6-5.4,2.4-6.8c1.5-0.7,3.2-0.8,4.7-1.4c1.7-0.6,3.2-1.5,5.2-2.4c-3.2-2.9-5.6-2.8-8.2-0.5
				c-4,3.4-8.3,6.5-12.5,9.8c1,0.5,2.3,0.8,3,1.6c0.7,0.8,0.9,2,1,3.4c-2.8-4.2-6.5-3.4-10-1.9C488.3,177.6,472.4,176.3,456.8,167.1
				z M528.7,154.9c2.4,1.6,4.4,3,5.9,4c1.2-1.6,2.2-3.2,3.5-4.5c0.3-0.3,1.6,0.5,2.6,0.8c-1.9,1.8-3.4,3.3-1.8,5.5
				c1.4,2,4.6,2.2,7.5,0.6c-4-1.9-5-4-3.4-8.9c1.2,1.8,2.3,3,3,4.5c0.5,1.3,0.5,2.8,2.5,2.4c1.7-0.4,2.9-2.8,1.8-4.2
				c-1.2-1.4-2.9-2.9-4.6-3.1C539.9,151.3,534.2,152.2,528.7,154.9z"/>
		</g>
		<g>
			<path class="st6" d="M373.2,155.8c4.8,3.7,9.6,7.4,14.4,11.1c0.6-1.8,1.1-3.4,1.5-4.9c0.4-0.1,0.8-0.2,1.1-0.3
				c-1.3,5.1,1.1,7.6,5.9,9.1c-0.5-0.7-0.7-0.9-0.8-1.2c-0.3-0.3-0.5-0.6-0.8-0.9c-4.9-6-2.8-14.3,4.5-17.1c6.8-2.6,13.5-2,20.1,1.2
				c4.1,2,8.3,3.7,12.6,5.4c2.4,0.9,4.8,0.6,6.6-1.7c0.4,3.7-0.9,6.4-4,6.9c-2.7,0.4-5.6,0.1-8.3-0.2c-2-0.2-4-1.4-5.6,0.8
				c-0.2,0.2-1.7-0.2-2.1-0.7c-1-1.1-1.8-2.5-2.9-4.1c-1.1,3.3-2.2,6.6-6.3,6.4c-0.8,0-1.6-1.2-2.4-1.9c0.4,0,0.7,0,1.1,0
				c1.3-1.7,3.7-3.6,3.5-5.1c-0.2-1.8-2.5-3.9-4.4-4.9c-4.7-2.2-10.6,0.2-12.7,4.7c-2.2,4.5-0.4,9.3,4.6,12c7,3.8,14.7,3.6,22.3,2.7
				c2.9-0.4,5.8-1.3,8.7-2.1c-5.9-1-7.5-2.7-6-7.2c1.9,5.1,5.8,3.7,10.1,3.9c-1.2-0.6-1.8-0.9-2.5-1.3c1.1-1.9,2.6-2.4,4.2-1.3
				c3.4,2.5,6.5-0.3,8.5-3.5c2-3.1,1.4-6.1-1.4-8.3c-2.1-1.6-2.8-1.7-8.6-1.7c0.8-0.4,1.5-1.2,2.3-1.3c3.3-0.5,7.8,1.7,9.3,4.5
				c1.7,3.3,0.7,6.2-1.5,8.9c-2.5,3.2-2.4,4.2,0.4,7.2c-2.5,0.1-2.9-0.3-3.8-4c-7,4.6-14.7,7.1-23,7.9c-8.2,0.7-16.1-0.5-23.8-3.5
				c-1.4-0.5-2.7-1.1-4.2-1.3c-2.7-0.5-5.1-0.2-6.2,3c-1.5-2.5-0.5-3.8,3.5-5c-5.1-3.8-9.9-7.7-15-11.2c-1.2-0.8-3.5,0.2-5.3,0.3
				c0.6,3.1,2.4,3.6,4.5,3.9c1.7,0.3,3.5,0.7,5,1.4c2.8,1.4,3.3,3.3,2.3,5.9c-1.9-0.8-3.8-2-5.8-2.3c-2.4-0.3-4.9,0.2-7.3,0.1
				c-4-0.2-8-0.2-11.8-1c-3.8-0.8-6.8-3.2-8.4-7.3c0.1,3.1-1.4,5-3.9,6.3c-0.6,0.3-1.8,0.6-2.1,0.3c-0.5-0.5-0.8-1.6-0.6-2.3
				c0.4-1.5,1.1-2.9,1.7-4.4c-2.5,0.7-4.9,1.5-7.4,2.2c-5.5,1.5-10.8-0.5-16.2-1.3c-1.6-0.3-3.3-0.5-4.9-0.3c-1.7,0.3-3.3,1.2-5.7,2
				c-1.8-1-1.6-2.7,1.6-5.8c-0.9,0.3-1.9,0.7-3,1.1c0.1-0.5,0.2-1,0.4-1.6c-3.6-0.3-6,1.3-8.4,4.2c-0.1-1.2-0.1-2.4-0.2-3.9
				c-4.3,1.1-8.5,0.1-12.6-2c-1.1-0.6-2.8,0.1-4.3,0.5c-1.3-1-0.8-2.2,0.8-2.5c1.6-0.2,3.4,0.3,5,0.7c2.7,0.6,5.4,1.5,8.1,2.2
				c0.2-0.3,0.3-0.6,0.5-0.8c-0.8-0.3-1.6-0.7-2.2-1c4.1-0.3,7.7-1,11.4-0.9c2.9,0.1,5.8,1,8.9,1.5c0,0,0.1-0.5,0.4-1.2
				c0.4,0.7,0.8,1.2,1.1,1.7c0.4-0.8,0.7-1.5,1.3-2.8c0.6,1.6,1,2.7,1.4,3.8c2.9-3.9,6.2-4.5,10.5-2.1c1.2,0.7,2.7,0.9,4.5,1.5
				c0.1,1.4-1,2.2-3.3,1.3c-1.6-0.7-3-1.6-4.8-2.6c-0.2,1.3-0.3,2.2-0.4,3c-0.4,0-0.6,0.1-0.7,0c-0.8-1.1-1.6-2.8-3.1-1.5
				c-1.6,1.3-0.4,3.1,0.8,3.6c2.8,1.1,5.8,1.9,8.8,2.3c2.1,0.2,4.2-0.5,6.8-0.9c-0.9-0.8-1.5-1.4-2.1-2c2.2-0.3,4.4-0.5,6.5-0.8
				c-1.9-1-4.2-1.1-3.8-4.5c2.1,2.6,4.4,1.8,6.7,1.2c8.9-2.4,17.7-2.4,26.3,1.4c0.9,0.4,2.4-0.1,3.4-0.6c5.6-2.8,11.1-3.5,16.5,1
				c-2.6,3.3-6-1.8-8.1,0.5C378.8,157.3,375.9,153.4,373.2,155.8z M369,155c-5.5-2.7-11-3.6-16.7-3c-2.2,0.2-4.7,1.1-5,3.7
				c-0.1,1.1,1.3,2.4,1.9,3.7c0.8-0.7,1.8-1.3,2.4-2.2c1-1.3,1.8-2.9,2.7-4.3c0.4,0.2,0.8,0.3,1.2,0.5c-0.2,1.7,0,3.5-0.7,4.9
				c-0.7,1.4-2.3,2.3-3.4,3.4c3.3,1.2,6.8,0.9,7.4-1.3c0.4-1.5-0.5-3.4-1-5.6c0.1,0,1.4-0.7,1.7-0.4c1.3,1.3,2.4,2.9,3.5,4.4
				C364.8,157.8,366.7,156.5,369,155z"/>
		</g>
		<g>
			<path class="st6" d="M245.9,150.7c-0.1-0.9-0.2-1.3-0.2-1.8c0-0.3,0.1-0.5,0.2-1c135.3,0,270.5,0,405.9,0c0,0.9,0,1.7,0,2.8
				c-7.9,0-15.8,0.9-23.4-0.3c-5.8-0.9-11.5-0.8-17.2-0.8c-111.9-0.1-223.9-0.2-335.8,0.1c-8.8,0-17.6,0.9-26.5,1
				C248.1,150.7,247.1,150.7,245.9,150.7z"/>
		</g>
	</g>
</g>
</svg>
