<?xml version="1.0" encoding="utf-8"?>
<!-- Generator: Adobe Illustrator 24.1.2, SVG Export Plug-In . SVG Version: 6.00 Build 0)  -->
<svg version="1.1" id="圖層_1" xmlns="http://www.w3.org/2000/svg" xmlns:xlink="http://www.w3.org/1999/xlink" x="0px" y="0px"
	 viewBox="0 0 898.5 375.2" style="enable-background:new 0 0 898.5 375.2;" xml:space="preserve">
<style type="text/css">
	.st0{fill:#C74042;}
	.st1{font-family:'Kefa-Regular';}
	.st2{font-size:92.6603px;}
	.st3{fill:#C38150;}
	.st4{font-family:'NaikaiFont-Bold';}
	.st5{font-size:61.7735px;}
	.st6{fill:#D8B479;}
</style>
<g>
	<text transform="matrix(1 0 0 1 267.2954 182.7676)" class="st0 st1 st2">BRANDS</text>
	<text transform="matrix(1 0 0 1 325.271 247.4482)" class="st3 st4 st5">品牌列表</text>
	<g>
		<g>
			<path class="st6" d="M431.8,43.5c1.3-4.5,1.7-9.1,7.7-8.9c-1.5,3-3.8,5.7-3.8,8.3c0.2,3,2.3,6,4,8.7c4.3,6.4,5.1,13.4,1.9,18.7
				c-3.6,5.7-14,10.2-20.2,8.7c-1.5-0.4-2.6-1.7-4.5-3.2c5.3,0,9.8,1.1,13.4-0.2c6-1.9,10.6-5.7,10.8-13c0-5.5-5.7-14.7-11.3-16.2
				c-2.6-0.6-6.2,0-8.7,1.1c-4,1.7-7,1.7-9.6-2.8c1.5-0.9,2.6-1.3,4.7-2.6c-8.7,0-17-2.3-20.8,7.9c-3.4-9.1,0.4-13.2,12.5-14.9
				c-22.1-6.8-44.4-9.8-66.1,1.5c-11.1,5.7-14,16.6-8.7,26.4c5.1,9.4,17.9,13.6,27.4,8.3c3.6-2.1,7.9-6.8,8.1-10.4
				c0.2-3.2-4.9-6.8-8.7-11.3c0.9-0.4,2.8-2.8,4.9-3.2c5.5-0.6,9.1,3.8,12.5,14.2c1.5-2.3,2.8-4.9,4.3-7c2.1-3.2,4.3-6.2,8.7-1.9
				c1.5,1.5,5.7,0.2,8.7,0.2c5.5-0.2,11.1-1.7,16.6-1.1c8.3,1.1,11.3,6,10.6,15.1c-5.1-6.8-11.7-5.3-17.6-3
				c-7.7,2.8-15.3,6.4-22.5,10.2c-11.7,6.2-23.8,7.7-36.8,5.1c-21.3-4-29.6-26.6-13.4-41.5c-8.7,0.4-11.9,4.9-13.8,17.6
				c-1.3-3.2-2.3-6.2-3.8-10.2c-10,7.7-20,15.3-31.5,24c3.6,0.2,5.7,0.4,7.7,0.4c4,0,8.3-2.8,12.1,1.7c0.9,1.1,5.3-1.1,8.1-1.3
				c2.6-0.2,5.3,0.2,7.9,1.1c-11.9,10.6-24,8.7-36.4,2.1c-1.9-1.1-4.9-1.3-6.8-0.4c-16.2,7.2-33,7.7-50,4c-2.6-0.6-5.3-1.5-7.9-1.7
				c-3.8-0.2-7.4,0.4-11.9,0.6c-0.9-4.5,3.6-5.3,8.1-7.2c-4.3-0.6-8.7-1.3-13.4-1.9c1.5-1.3,2.8-2.3,4.3-3.6
				c-8.9-3-17.6-3.4-26.4-1.1c-3,0.9-6,3-8.1,5.3c-1.1,1.1-0.4,3.8-0.4,6c1.9-0.6,3.8-1.1,5.7-1.7c0.6-0.2,0.9-1.3,2.1-3.2
				c0.6,3,0.9,4.9,1.3,7c6,0.6,10-8.7,16.8-3.8c0.9,0.6,0.6,2.6,0.6,2.3c-3.8,1.1-7.2,1.5-10,3c-8.9,4.9-15.7,3.8-22.1-4.5
				c-0.9,2.3-1.7,4.3-2.8,7.2c-1.3-1.7-2.3-3.2-3.6-4.7c-0.4,0.9-0.9,1.7-1.7,3.4c-0.6-1.7-0.9-3-1.5-4.5c-8.5,5.3-17,6.2-26.8,3.4
				c-4.7-1.3-10.2,0.2-15.3,0.4c1.1-1.3,2.1-2.6,4.5-5.5c-7.7,2.3-13.4,4.3-19.3,5.7c-3.4,0.9-6.8,1.5-10.2,1.1
				c-1.3-0.2-2.3-3.2-2.8-5.7c4.5,4.7,8.5,3,12.8,0.6c7.7-4.3,15.5-5.3,24.4-3c0-3,0-5.7,0-8.3c4.9,5.5,9.8,9.6,17.2,8.7
				c0.2,0,0-1.7,0-3c1.9,0.6,3.8,1.3,6.6,2.1c-2.1-2.8-4.7-4.7-5.3-7c-0.6-2.1,1.1-4.9,2.3-7.2c4.7,8.3,12.1,6.6,18.7,6
				c5.1-0.4,10.2-2.1,15.3-3c13-2.6,16.4-2.1,37.8,4.5c-1.3-3-2.8-5.7-3.4-8.5c-0.4-1.7,0.4-3.8,0.6-5.7c1.9,0.4,4.5,0,5.5,1.3
				c3.4,3.8,6.2,8.1,8.5,11.3c4.7-12.1,16.6-15.9,29.6-16.8c8.3-0.6,16.6,1.1,24.9,1.1c5.7,0,11.7-0.9,14.9-7
				c2.8,7,1.3,11.5-5.1,14.5c-3.2,1.5-6.8,1.7-10,3c-3.6,1.3-6.8,3.2-11.1,5.1c6.8,6.2,11.9,6,17.4,1.1c8.5-7.2,17.6-13.8,26.6-20.8
				c-2.1-1.1-4.9-1.7-6.4-3.4c-1.5-1.7-1.9-4.3-2.1-7.2c6,8.9,13.8,7.2,21.3,4C364.8,21.2,398.6,23.9,431.8,43.5z M279.1,69.4
				c-5.1-3.4-9.4-6.4-12.5-8.5c-2.6,3.4-4.7,6.8-7.4,9.6c-0.6,0.6-3.4-1.1-5.5-1.7c4-3.8,7.2-7,3.8-11.7c-3-4.3-9.8-4.7-15.9-1.3
				c8.5,4,10.6,8.5,7.2,18.9c-2.6-3.8-4.9-6.4-6.4-9.6c-1.1-2.8-1.1-6-5.3-5.1c-3.6,0.9-6.2,6-3.8,8.9c2.6,3,6.2,6.2,9.8,6.6
				C255.1,77.3,267.2,75.2,279.1,69.4z"/>
		</g>
		<g>
			<path class="st6" d="M609.5,67.5c-10.2-7.9-20.4-15.7-30.6-23.6c-1.3,3.8-2.3,7.2-3.2,10.4c-0.9,0.2-1.7,0.4-2.3,0.6
				c2.8-10.8-2.3-16.2-12.5-19.3c1.1,1.5,1.5,1.9,1.7,2.6c0.6,0.6,1.1,1.3,1.7,1.9c10.4,12.8,6,30.4-9.6,36.4
				c-14.5,5.5-28.7,4.3-42.7-2.6c-8.7-4.3-17.6-7.9-26.8-11.5c-5.1-1.9-10.2-1.3-14,3.6c-0.9-7.9,1.9-13.6,8.5-14.7
				c5.7-0.9,11.9-0.2,17.6,0.4c4.3,0.4,8.5,3,11.9-1.7c0.4-0.4,3.6,0.4,4.5,1.5c2.1,2.3,3.8,5.3,6.2,8.7c2.3-7,4.7-14,13.4-13.6
				c1.7,0,3.4,2.6,5.1,4c-0.9,0-1.5,0-2.3,0c-2.8,3.6-7.9,7.7-7.4,10.8c0.4,3.8,5.3,8.3,9.4,10.4c10,4.7,22.5-0.4,27-10
				c4.7-9.6,0.9-19.8-9.8-25.5c-14.9-8.1-31.3-7.7-47.4-5.7c-6.2,0.9-12.3,2.8-18.5,4.5c12.5,2.1,15.9,5.7,12.8,15.3
				c-4-10.8-12.3-7.9-21.5-8.3c2.6,1.3,3.8,1.9,5.3,2.8c-2.3,4-5.5,5.1-8.9,2.8c-7.2-5.3-13.8,0.6-18.1,7.4c-4.3,6.6-3,13,3,17.6
				c4.5,3.4,6,3.6,18.3,3.6c-1.7,0.9-3.2,2.6-4.9,2.8c-7,1.1-16.6-3.6-19.8-9.6c-3.6-7-1.5-13.2,3.2-18.9c5.3-6.8,5.1-8.9-0.9-15.3
				c5.3-0.2,6.2,0.6,8.1,8.5c14.9-9.8,31.3-15.1,48.9-16.8c17.4-1.5,34.2,1.1,50.6,7.4c3,1.1,5.7,2.3,8.9,2.8
				c5.7,1.1,10.8,0.4,13.2-6.4c3.2,5.3,1.1,8.1-7.4,10.6c10.8,8.1,21,16.4,31.9,23.8c2.6,1.7,7.4-0.4,11.3-0.6
				c-1.3-6.6-5.1-7.7-9.6-8.3c-3.6-0.6-7.4-1.5-10.6-3c-6-3-7-7-4.9-12.5c4,1.7,8.1,4.3,12.3,4.9c5.1,0.6,10.4-0.4,15.5-0.2
				c8.5,0.4,17,0.4,25.1,2.1c8.1,1.7,14.5,6.8,17.9,15.5c-0.2-6.6,3-10.6,8.3-13.4c1.3-0.6,3.8-1.3,4.5-0.6c1.1,1.1,1.7,3.4,1.3,4.9
				c-0.9,3.2-2.3,6.2-3.6,9.4c5.3-1.5,10.4-3.2,15.7-4.7c11.7-3.2,23,1.1,34.4,2.8c3.4,0.6,7,1.1,10.4,0.6c3.6-0.6,7-2.6,12.1-4.3
				c3.8,2.1,3.4,5.7-3.4,12.3c1.9-0.6,4-1.5,6.4-2.3c-0.2,1.1-0.4,2.1-0.9,3.4c7.7,0.6,12.8-2.8,17.9-8.9c0.2,2.6,0.2,5.1,0.4,8.3
				c9.1-2.3,18.1-0.2,26.8,4.3c2.3,1.3,6-0.2,9.1-1.1c2.8,2.1,1.7,4.7-1.7,5.3c-3.4,0.4-7.2-0.6-10.6-1.5
				c-5.7-1.3-11.5-3.2-17.2-4.7c-0.4,0.6-0.6,1.3-1.1,1.7c1.7,0.6,3.4,1.5,4.7,2.1c-8.7,0.6-16.4,2.1-24.2,1.9
				c-6.2-0.2-12.3-2.1-18.9-3.2c0,0-0.2,1.1-0.9,2.6c-0.9-1.5-1.7-2.6-2.3-3.6c-0.9,1.7-1.5,3.2-2.8,6c-1.3-3.4-2.1-5.7-3-8.1
				c-6.2,8.3-13.2,9.6-22.3,4.5c-2.6-1.5-5.7-1.9-9.6-3.2c-0.2-3,2.1-4.7,7-2.8c3.4,1.5,6.4,3.4,10.2,5.5c0.4-2.8,0.6-4.7,0.9-6.4
				c0.9,0,1.3-0.2,1.5,0c1.7,2.3,3.4,6,6.6,3.2c3.4-2.8,0.9-6.6-1.7-7.7c-6-2.3-12.3-4-18.7-4.9c-4.5-0.4-8.9,1.1-14.5,1.9
				c1.9,1.7,3.2,3,4.5,4.3c-4.7,0.6-9.4,1.1-13.8,1.7c4,2.1,8.9,2.3,8.1,9.6c-4.5-5.5-9.4-3.8-14.2-2.6c-18.9,5.1-37.6,5.1-55.9-3
				c-1.9-0.9-5.1,0.2-7.2,1.3c-11.9,6-23.6,7.4-35.1-2.1c5.5-7,12.8,3.8,17.2-1.1C597.6,64.3,604,72.6,609.5,67.5z M618.5,69.4
				c11.7,5.7,23.4,7.7,35.5,6.4c4.7-0.4,10-2.3,10.6-7.9c0.2-2.3-2.8-5.1-4-7.9c-1.7,1.5-3.8,2.8-5.1,4.7c-2.1,2.8-3.8,6.2-5.7,9.1
				c-0.9-0.4-1.7-0.6-2.6-1.1c0.4-3.6,0-7.4,1.5-10.4c1.5-3,4.9-4.9,7.2-7.2c-7-2.6-14.5-1.9-15.7,2.8c-0.9,3.2,1.1,7.2,2.1,11.9
				c-0.2,0-3,1.5-3.6,0.9c-2.8-2.8-5.1-6.2-7.4-9.4C627.4,63.3,623.3,66,618.5,69.4z"/>
		</g>
		<g>
			<path class="st6" d="M880.2,78.6c0.2,1.9,0.4,2.8,0.4,3.8c0,0.6-0.2,1.1-0.4,2.1c-287.7,0-575.1,0-863,0c0-1.9,0-3.6,0-6
				c16.8,0,33.6-1.9,49.7,0.6c12.3,1.9,24.4,1.7,36.6,1.7c237.9,0.2,476,0.4,713.9-0.2c18.7,0,37.4-1.9,56.3-2.1
				C875.5,78.6,877.6,78.6,880.2,78.6z"/>
		</g>
	</g>
	<g>
		<g>
			<path class="st6" d="M465.8,328.6c-1.3,4.5-1.7,9.1-7.7,8.9c1.5-3,3.8-5.7,3.8-8.3c-0.2-3-2.3-6-4-8.7
				c-4.3-6.4-5.1-13.4-1.9-18.7c3.6-5.7,14-10.2,20.2-8.7c1.5,0.4,2.6,1.7,4.5,3.2c-5.3,0-9.8-1.1-13.4,0.2c-6,1.9-10.6,5.7-10.8,13
				c0,5.5,5.7,14.7,11.3,16.2c2.6,0.6,6.2,0,8.7-1.1c4-1.7,7-1.7,9.6,2.8c-1.5,0.9-2.6,1.3-4.7,2.6c8.7,0,17,2.3,20.8-7.9
				c3.4,9.1-0.4,13.2-12.5,14.9c22.1,6.8,44.4,9.8,66.1-1.5c11.1-5.7,14-16.6,8.7-26.4c-5.1-9.4-17.9-13.6-27.4-8.3
				c-3.6,2.1-7.9,6.8-8.1,10.4c-0.2,3.2,4.9,6.8,8.7,11.3c-0.9,0.4-2.8,2.8-4.9,3.2c-5.5,0.6-9.1-3.8-12.5-14.2
				c-1.5,2.3-2.8,4.9-4.3,7c-2.1,3.2-4.3,6.2-8.7,1.9c-1.5-1.5-5.7-0.2-8.7-0.2c-5.5,0.2-11.1,1.7-16.6,1.1
				c-8.3-1.1-11.3-6-10.6-15.1c5.1,6.8,11.7,5.3,17.6,3c7.7-2.8,15.3-6.4,22.5-10.2c11.7-6.2,23.8-7.7,36.8-5.1
				c21.3,4,29.6,26.6,13.4,41.5c8.7-0.4,11.9-4.9,13.8-17.6c1.3,3.2,2.3,6.2,3.8,10.2c10-7.7,20-15.3,31.5-24
				c-3.6-0.2-5.7-0.4-7.7-0.4c-4,0-8.3,2.8-12.1-1.7c-0.9-1.1-5.3,1.1-8.1,1.3c-2.6,0.2-5.3-0.2-7.9-1.1c11.9-10.6,24-8.7,36.4-2.1
				c1.9,1.1,4.9,1.3,6.8,0.4c16.2-7.2,33-7.7,50-4c2.6,0.6,5.3,1.5,7.9,1.7c3.8,0.2,7.4-0.4,11.9-0.6c0.9,4.5-3.6,5.3-8.1,7.2
				c4.3,0.6,8.7,1.3,13.4,1.9c-1.5,1.3-2.8,2.3-4.3,3.6c8.9,3,17.6,3.4,26.4,1.1c3-0.9,6-3,8.1-5.3c1.1-1.1,0.4-3.8,0.4-6
				c-1.9,0.6-3.8,1.1-5.7,1.7c-0.6,0.2-0.9,1.3-2.1,3.2c-0.6-3-0.9-4.9-1.3-7c-6-0.6-10,8.7-16.8,3.8c-0.9-0.6-0.6-2.6-0.6-2.3
				c3.8-1.1,7.2-1.5,10-3c8.9-4.9,15.7-3.8,22.1,4.5c0.9-2.3,1.7-4.3,2.8-7.2c1.3,1.7,2.3,3.2,3.6,4.7c0.4-0.9,0.9-1.7,1.7-3.4
				c0.6,1.7,0.9,3,1.5,4.5c8.5-5.3,17-6.2,26.8-3.4c4.7,1.3,10.2-0.2,15.3-0.4c-1.1,1.3-2.1,2.6-4.5,5.5c7.7-2.3,13.4-4.3,19.3-5.7
				c3.4-0.9,6.8-1.5,10.2-1.1c1.3,0.2,2.3,3.2,2.8,5.7c-4.5-4.7-8.5-3-12.8-0.6c-7.7,4.3-15.5,5.3-24.4,3c0,3,0,5.7,0,8.3
				c-4.9-5.5-9.8-9.6-17.2-8.7c-0.2,0,0,1.7,0,3c-1.9-0.6-3.8-1.3-6.6-2.1c2.1,2.8,4.7,4.7,5.3,7c0.6,2.1-1.1,4.9-2.3,7.2
				c-4.7-8.3-12.1-6.6-18.7-6c-5.1,0.4-10.2,2.1-15.3,3c-13,2.6-16.4,2.1-37.8-4.5c1.3,3,2.8,5.7,3.4,8.5c0.4,1.7-0.4,3.8-0.6,5.7
				c-1.9-0.4-4.5,0-5.5-1.3c-3.4-3.8-6.2-8.1-8.5-11.3c-4.7,12.1-16.6,15.9-29.6,16.8c-8.3,0.6-16.6-1.1-24.9-1.1
				c-5.7,0-11.7,0.9-14.9,7c-2.8-7-1.3-11.5,5.1-14.5c3.2-1.5,6.8-1.7,10-3c3.6-1.3,6.8-3.2,11.1-5.1c-6.8-6.2-11.9-6-17.4-1.1
				c-8.5,7.2-17.6,13.8-26.6,20.8c2.1,1.1,4.9,1.7,6.4,3.4c1.5,1.7,1.9,4.3,2.1,7.2c-6-8.9-13.8-7.2-21.3-4
				C532.8,350.9,499,348.2,465.8,328.6z M618.7,302.7c5.1,3.4,9.4,6.4,12.5,8.5c2.6-3.4,4.7-6.8,7.4-9.6c0.6-0.6,3.4,1.1,5.5,1.7
				c-4,3.8-7.2,7-3.8,11.7c3,4.3,9.8,4.7,15.9,1.3c-8.5-4-10.6-8.5-7.2-18.9c2.6,3.8,4.9,6.4,6.4,9.6c1.1,2.8,1.1,6,5.3,5.1
				c3.6-0.9,6.2-6,3.8-8.9c-2.6-3-6.2-6.2-9.8-6.6C642.5,295,630.4,296.9,618.7,302.7z"/>
		</g>
		<g>
			<path class="st6" d="M288.1,304.6c10.2,7.9,20.4,15.7,30.6,23.6c1.3-3.8,2.3-7.2,3.2-10.4c0.9-0.2,1.7-0.4,2.3-0.6
				c-2.8,10.8,2.3,16.2,12.5,19.3c-1.1-1.5-1.5-1.9-1.7-2.6c-0.6-0.6-1.1-1.3-1.7-1.9c-10.4-12.8-6-30.4,9.6-36.4
				c14.5-5.5,28.7-4.3,42.7,2.6c8.7,4.3,17.6,7.9,26.8,11.5c5.1,1.9,10.2,1.3,14-3.6c0.9,7.9-1.9,13.6-8.5,14.7
				c-5.7,0.9-11.9,0.2-17.6-0.4c-4.3-0.4-8.5-3-11.9,1.7c-0.4,0.4-3.6-0.4-4.5-1.5c-2.1-2.3-3.8-5.3-6.2-8.7
				c-2.3,7-4.7,14-13.4,13.6c-1.7,0-3.4-2.6-5.1-4c0.9,0,1.5,0,2.3,0c2.8-3.6,7.9-7.7,7.4-10.8c-0.4-3.8-5.3-8.3-9.4-10.4
				c-10-4.7-22.5,0.4-27,10c-4.7,9.6-0.9,19.8,9.8,25.5c14.9,8.1,31.3,7.7,47.4,5.7c6.2-0.9,12.3-2.8,18.5-4.5
				c-12.5-2.1-15.9-5.7-12.8-15.3c4,10.8,12.3,7.9,21.5,8.3c-2.6-1.3-3.8-1.9-5.3-2.8c2.3-4,5.5-5.1,8.9-2.8
				c7.2,5.3,13.8-0.6,18.1-7.4c4.3-6.6,3-13-3-17.6c-4.5-3.4-6-3.6-18.3-3.6c1.7-0.9,3.2-2.6,4.9-2.8c7-1.1,16.6,3.6,19.8,9.6
				c3.6,7,1.5,13.2-3.2,18.9c-5.3,6.8-5.1,8.9,0.9,15.3c-5.3,0.2-6.2-0.6-8.1-8.5c-14.9,9.8-31.3,15.1-48.9,16.8
				c-17.4,1.5-34.2-1.1-50.6-7.4c-3-1.1-5.7-2.3-8.9-2.8c-5.7-1.1-10.8-0.4-13.2,6.4c-3.2-5.3-1.1-8.1,7.4-10.6
				c-10.8-8.1-21-16.4-31.9-23.8c-2.6-1.7-7.4,0.4-11.3,0.6c1.3,6.6,5.1,7.7,9.6,8.3c3.6,0.6,7.4,1.5,10.6,3c6,3,7,7,4.9,12.5
				c-4-1.7-8.1-4.3-12.3-4.9c-5.1-0.6-10.4,0.4-15.5,0.2c-8.5-0.4-17-0.4-25.1-2.1c-8.1-1.7-14.5-6.8-17.9-15.5
				c0.2,6.6-3,10.6-8.3,13.4c-1.3,0.6-3.8,1.3-4.5,0.6c-1.1-1.1-1.7-3.4-1.3-4.9c0.9-3.2,2.3-6.2,3.6-9.4
				c-5.3,1.5-10.4,3.2-15.7,4.7c-11.7,3.2-23-1.1-34.4-2.8c-3.4-0.6-7-1.1-10.4-0.6c-3.6,0.6-7,2.6-12.1,4.3
				c-3.8-2.1-3.4-5.7,3.4-12.3c-1.9,0.6-4,1.5-6.4,2.3c0.2-1.1,0.4-2.1,0.9-3.4c-7.7-0.6-12.8,2.8-17.9,8.9
				c-0.2-2.6-0.2-5.1-0.4-8.3c-9.1,2.3-18.1,0.2-26.8-4.3c-2.3-1.3-6,0.2-9.1,1.1c-2.8-2.1-1.7-4.7,1.7-5.3
				c3.4-0.4,7.2,0.6,10.6,1.5c5.7,1.3,11.5,3.2,17.2,4.7c0.4-0.6,0.6-1.3,1.1-1.7c-1.7-0.6-3.4-1.5-4.7-2.1
				c8.7-0.6,16.4-2.1,24.2-1.9c6.2,0.2,12.3,2.1,18.9,3.2c0,0,0.2-1.1,0.9-2.6c0.9,1.5,1.7,2.6,2.3,3.6c0.9-1.7,1.5-3.2,2.8-6
				c1.3,3.4,2.1,5.7,3,8.1c6.2-8.3,13.2-9.6,22.3-4.5c2.6,1.5,5.7,1.9,9.6,3.2c0.2,3-2.1,4.7-7,2.8c-3.4-1.5-6.4-3.4-10.2-5.5
				c-0.4,2.8-0.6,4.7-0.9,6.4c-0.9,0-1.3,0.2-1.5,0c-1.7-2.3-3.4-6-6.6-3.2c-3.4,2.8-0.9,6.6,1.7,7.7c6,2.3,12.3,4,18.7,4.9
				c4.5,0.4,8.9-1.1,14.5-1.9c-1.9-1.7-3.2-3-4.5-4.3c4.7-0.6,9.4-1.1,13.8-1.7c-4-2.1-8.9-2.3-8.1-9.6c4.5,5.5,9.4,3.8,14.2,2.6
				c18.9-5.1,37.6-5.1,55.9,3c1.9,0.9,5.1-0.2,7.2-1.3c11.9-6,23.6-7.4,35.1,2.1c-5.5,7-12.8-3.8-17.2,1.1
				C300,307.8,293.8,299.5,288.1,304.6z M279.1,302.9c-11.7-5.7-23.4-7.7-35.5-6.4c-4.7,0.4-10,2.3-10.6,7.9c-0.2,2.3,2.8,5.1,4,7.9
				c1.7-1.5,3.8-2.8,5.1-4.7c2.1-2.8,3.8-6.2,5.7-9.1c0.9,0.4,1.7,0.6,2.6,1.1c-0.4,3.6,0,7.4-1.5,10.4c-1.5,3-4.9,4.9-7.2,7.2
				c7,2.6,14.5,1.9,15.7-2.8c0.9-3.2-1.1-7.2-2.1-11.9c0.2,0,3-1.5,3.6-0.9c2.8,2.8,5.1,6.2,7.4,9.4
				C270.2,308.8,274.3,306.1,279.1,302.9z"/>
		</g>
		<g>
			<path class="st6" d="M17.4,293.7c-0.2-1.9-0.4-2.8-0.4-3.8c0-0.6,0.2-1.1,0.4-2.1c287.7,0,575.1,0,863,0c0,1.9,0,3.6,0,6
				c-16.8,0-33.6,1.9-49.7-0.6c-12.3-1.9-24.4-1.7-36.6-1.7c-237.9-0.2-476-0.4-713.9,0.2c-18.7,0-37.4,1.9-56.3,2.1
				C22.1,293.7,20,293.7,17.4,293.7z"/>
		</g>
	</g>
</g>
</svg>
