<svg xmlns="http://www.w3.org/2000/svg" viewBox="0 0 152.09 75.07"><defs><style>.cls-1{fill:#f4a7b9;}.cls-2{fill:none;stroke:#fedfe1;stroke-miterlimit:10;stroke-width:2px;}</style></defs><title>資產 10</title><g id="圖層_2" data-name="圖層 2"><g id="圖層_1-2" data-name="圖層 1"><path class="cls-1" d="M152.09,61.85V13.21A13.21,13.21,0,0,1,138.88,0H13.21A13.2,13.2,0,0,1,0,13.21V61.85A13.21,13.21,0,0,1,13.21,75.07H138.88A13.22,13.22,0,0,1,152.09,61.85Z"/><path class="cls-2" d="M146.15,57.89V17.18c-6.61-1.32-10.57-4-13.22-11.89H19.16C16.52,13.21,12.55,15.86,6,17.18V57.89c7.92,2.64,10.57,5.29,13.21,11.89H132.93C135.58,61.85,139.54,59.21,146.15,57.89Z"/></g></g></svg>