<svg xmlns="http://www.w3.org/2000/svg" viewBox="0 0 189.09 75.07"><defs><style>.cls-1{fill:#fff;}.cls-2{fill:#6699a1;}</style></defs><title>資產 6</title><g id="圖層_2" data-name="圖層 2"><g id="登入註冊"><path class="cls-1" d="M14.18,74.07A14.24,14.24,0,0,0,1,60.89V14.18A14.24,14.24,0,0,0,14.18,1H174.92a14.23,14.23,0,0,0,13.17,13.18V60.89a14.23,14.23,0,0,0-13.17,13.18Z"/><path class="cls-2" d="M174,2a15.24,15.24,0,0,0,13.08,13.08V60A15.27,15.27,0,0,0,174,73.07H15.08A15.25,15.25,0,0,0,2,60V15.08A15.23,15.23,0,0,0,15.08,2H174m1.87-2H13.21A13.2,13.2,0,0,1,0,13.21V61.85A13.21,13.21,0,0,1,13.21,75.07H175.88a13.22,13.22,0,0,1,13.21-13.22V13.21A13.21,13.21,0,0,1,175.88,0Z"/><path class="cls-2" d="M169.22,6.29C172,14.1,176.27,16.68,182.15,18V57.08C176.27,58.39,172,61,169.22,68.78H19.83C17.14,62.33,14.21,59.69,7,57.17V18c5.88-1.31,10.13-3.89,12.92-11.7H169.22m.71-1H19.16C16.52,13.21,12.55,15.86,6,17.18V57.89c7.92,2.64,10.57,5.29,13.21,11.89H169.93c2.65-7.93,6.61-10.57,13.22-11.89V17.18c-6.61-1.32-10.57-4-13.22-11.89Z"/></g></g></svg>