<svg xmlns="http://www.w3.org/2000/svg" viewBox="0 0 309.43 128.03"><defs><style>.cls-1{fill:#cb4042;}.cls-2{fill:#fff;}</style></defs><title>資產 9</title><g id="圖層_2" data-name="圖層 2"><g id="圖層_1-2" data-name="圖層 1"><path class="cls-1" d="M309.43,108.57V19.46A19.46,19.46,0,0,1,290,0H19.46A19.46,19.46,0,0,1,0,19.46v89.11A19.46,19.46,0,0,1,19.46,128H290A19.46,19.46,0,0,1,309.43,108.57Z"/><path class="cls-2" d="M279.78,9.78c3.08,8.55,7.6,14.45,18.89,17.13v74.2c-8.54,2-14.76,5.85-18.88,17.13H29.56C25.64,109,21.13,105,10.76,101.3V26.91c8.53-2,14.76-5.85,18.88-17.13H279.78m1.43-2h-253C24.33,19.46,18.49,23.35,8.76,25.3v77.43c11.67,3.89,15.57,7.78,19.46,17.51h253c3.89-11.67,9.73-15.57,19.46-17.51V25.3c-9.73-1.95-15.57-5.84-19.46-17.52Z"/></g></g></svg>