<svg xmlns="http://www.w3.org/2000/svg" viewBox="0 0 189.09 75.07"><defs><style>.cls-1{fill:#e16b8c;}.cls-2{fill:none;stroke:#fff;stroke-miterlimit:10;stroke-width:2px;}</style></defs><title>資產 7</title><g id="圖層_2" data-name="圖層 2"><g id="登入註冊"><path class="cls-1" d="M189.09,61.85V13.21A13.21,13.21,0,0,1,175.88,0H13.21A13.2,13.2,0,0,1,0,13.21V61.85A13.21,13.21,0,0,1,13.21,75.07H175.88A13.22,13.22,0,0,1,189.09,61.85Z"/><path class="cls-2" d="M183.15,57.89V17.18c-6.61-1.32-10.57-4-13.22-11.89H19.16C16.52,13.21,12.55,15.86,6,17.18V57.89c7.92,2.64,10.57,5.29,13.21,11.89H169.93C172.58,61.85,176.54,59.21,183.15,57.89Z"/></g></g></svg>