<?xml version="1.0" encoding="utf-8"?>
<!-- Generator: Adobe Illustrator 24.1.2, SVG Export Plug-In . SVG Version: 6.00 Build 0)  -->
<svg version="1.1" id="圖層_1" xmlns="http://www.w3.org/2000/svg" xmlns:xlink="http://www.w3.org/1999/xlink" x="0px" y="0px"
	 viewBox="0 0 395.3 222.3" style="enable-background:new 0 0 395.3 222.3;" xml:space="preserve">
<style type="text/css">
	.st0{fill:#6699A1;}
	.st1{fill:none;stroke:#FFFFFF;stroke-width:2;stroke-miterlimit:10;}
	.st2{fill:#FFFFFF;}
	.st3{font-family:'NotoSansCJKtc-Bold-B5pc-H';}
	.st4{font-size:23.8845px;}
	.st5{letter-spacing:4;}
</style>
<g>
	<g>
		<path class="st0" d="M215.8,138.3V83c-8.3,0-15-6.7-15-15h-185c0,8.3-6.7,15-15,15v55.3c8.3,0,15,6.7,15,15h185
			C200.8,145.1,207.5,138.3,215.8,138.3z"/>
	</g>
	<path class="st1" d="M209.1,133.8V87.5C201.6,86,197,83,194,74H22.6c-3,9-7.5,12-15,13.5v46.3c9,3,12,6,15,13.5H194
		C197,138.3,201.6,135.3,209.1,133.8z"/>
	<g>
		<text transform="matrix(1 0 0 1 79.5397 118.813)" class="st2 st3 st4 st5">取消</text>
	</g>
</g>
</svg>
