<?xml version="1.0" encoding="utf-8"?>
<!-- Generator: Adobe Illustrator 24.1.2, SVG Export Plug-In . SVG Version: 6.00 Build 0)  -->
<svg version="1.1" id="圖層_1" xmlns="http://www.w3.org/2000/svg" xmlns:xlink="http://www.w3.org/1999/xlink" x="0px" y="0px"
	 viewBox="0 0 215 222.3" style="enable-background:new 0 0 215 222.3;" xml:space="preserve">
<style type="text/css">
	.st0{fill:#6699A1;}
	.st1{fill:none;stroke:#FFFFFF;stroke-width:2;stroke-miterlimit:10;}
	.st2{fill:#FFFFFF;}
	.st3{font-family:'NotoSansCJKtc-Bold-B5pc-H';}
	.st4{font-size:23.8845px;}
	.st5{letter-spacing:3;}
</style>
<g>
	<g>
		<path class="st0" d="M215,138.3V83c-8.3,0-15-6.7-15-15H15c0,8.3-6.7,15-15,15v55.3c8.3,0,15,6.7,15,15h185
			C200,145.1,206.7,138.3,215,138.3z"/>
	</g>
	<path class="st1" d="M208.3,133.8V87.5C200.8,86,196.2,83,193.2,74H21.8c-3,9-7.5,12-15,13.5v46.3c9,3,12,6,15,13.5h171.4
		C196.2,138.3,200.8,135.3,208.3,133.8z"/>
	<g>
		<text transform="matrix(1 0 0 1 78.7397 118.813)" class="st2 st3 st4 st5">取消</text>
	</g>
</g>
</svg>
