<?xml version="1.0" encoding="utf-8"?>
<!-- Generator: Adobe Illustrator 24.0.1, SVG Export Plug-In . SVG Version: 6.00 Build 0)  -->
<svg version="1.1" id="圖層_1" xmlns="http://www.w3.org/2000/svg" xmlns:xlink="http://www.w3.org/1999/xlink" x="0px" y="0px"
	 viewBox="0 0 1208 76" style="enable-background:new 0 0 1208 76;" xml:space="preserve">
<style type="text/css">
	.st0{clip-path:url(#SVGID_2_);}
	.st1{fill:#FFFFFF;}
	.st2{fill:#DCB879;}
</style>
<title>資產 10</title>
<g>
	<g>
		<g>
			<g>
				<g>
					<defs>
						<rect id="SVGID_1_" x="3.5" width="1200.5" height="76"/>
					</defs>
					<clipPath id="SVGID_2_">
						<use xlink:href="#SVGID_1_"  style="overflow:visible;"/>
					</clipPath>
					<g id="圖層_2_1_" class="st0">
						<g id="圖層_1-2">
							<path class="st1" d="M1152.9-993.8H55.6c-0.3,28.7-23.5,51.9-52,51.9v966c28.7,0,51.7,23.1,52,51.9h1097.2
								c0.3-28.4,23-51.4,51.1-51.9V-942C1175.7-942.5,1153.2-965.5,1152.9-993.8z"/>
							<path class="st2" d="M1140,63.3H68.4c-0.6-13.3-6.2-26-15.6-35.4S30.8,13,17.4,12.5v-942.9c13.3-0.5,26-6,35.4-15.5
								c9.5-9.4,15-22,15.6-35.4H1140c1.3,27.4,22.9,49.3,50.1,50.8v943c-13.1,0.7-25.6,6.3-34.8,15.7
								C1146.1,37.5,1140.6,50.1,1140,63.3 M1141.9,65.3c0.2-27.8,22.5-50.4,50.1-50.9v-946.7c-27.7-0.5-49.9-23.1-50.1-50.9H66.5
								c-0.2,28.2-23,50.9-50.9,50.9V14.4c28.1,0,50.7,22.7,50.9,50.9H1141.9L1141.9,65.3z"/>
						</g>
					</g>
				</g>
			</g>
		</g>
	</g>
</g>
</svg>
