<?xml version="1.0" encoding="utf-8"?>
<!-- Generator: Adobe Illustrator 24.0.1, SVG Export Plug-In . SVG Version: 6.00 Build 0)  -->
<svg version="1.1" id="圖層_1" xmlns="http://www.w3.org/2000/svg" xmlns:xlink="http://www.w3.org/1999/xlink" x="0px" y="0px"
	 viewBox="0 0 1576 9" style="enable-background:new 0 0 1576 9;" xml:space="preserve">
<style type="text/css">
	.st0{clip-path:url(#SVGID_2_);}
	.st1{fill:#FFFFFF;}
	.st2{fill:#DCB879;}
</style>
<title>資產 11</title>
<g>
	<g>
		<defs>
			<rect id="SVGID_1_" width="1576" height="9"/>
		</defs>
		<clipPath id="SVGID_2_">
			<use xlink:href="#SVGID_1_"  style="overflow:visible;"/>
		</clipPath>
		<g id="圖層_2_1_" class="st0">
			<g id="圖層_1-2">
				<path class="st1" d="M1576,66.9V-1.5c-28.4-0.1-51.2-3.4-51.5-7.5H52.4C52.1-4.8,28.8-1.5,0-1.5v68.4c28.8,0,52.1,3.4,52.4,7.5
					h1472.1C1524.8,70.3,1547.6,67,1576,66.9z"/>
				<path class="st2" d="M1511.6-7.1c0.6,1.9,6.1,3.7,15.5,5c9.4,1.4,22,2.1,35.2,2.2v65.1c-13.2,0.1-25.7,0.9-35.2,2.2
					c-9.4,1.3-14.9,3.1-15.5,5H65.3c-0.6-1.9-6.3-3.7-15.8-5c-9.6-1.4-22.4-2.1-35.8-2.2V0.2C27.1,0.1,39.8-0.7,49.5-2
					c9.5-1.3,15.2-3.1,15.8-5H1511.6 M1513.5-7.3H63.4c-0.2,4-23.2,7.3-51.6,7.3v65.6c28.3,0,51.4,3.2,51.6,7.3h1450.1
					c0.2-4,22.8-7.2,50.7-7.2V-0.1C1536.2-0.2,1513.7-3.4,1513.5-7.3L1513.5-7.3z"/>
			</g>
		</g>
	</g>
</g>
</svg>
