<?xml version="1.0" encoding="utf-8"?>
<!-- Generator: Adobe Illustrator 24.0.1, SVG Export Plug-In . SVG Version: 6.00 Build 0)  -->
<svg version="1.1" id="圖層_1" xmlns="http://www.w3.org/2000/svg" xmlns:xlink="http://www.w3.org/1999/xlink" x="0px" y="0px"
	 viewBox="0 0 1576 69" style="enable-background:new 0 0 1576 69;" xml:space="preserve">
<style type="text/css">
	.st0{clip-path:url(#SVGID_2_);}
	.st1{fill:#FFFFFF;}
	.st2{fill:#DCB879;}
</style>
<title>資產 11</title>
<g>
	<g>
		<g>
			<defs>
				<polygon id="SVGID_1_" points="1575,70 0,70 1,0 1575,0 				"/>
			</defs>
			<clipPath id="SVGID_2_">
				<use xlink:href="#SVGID_1_"  style="overflow:visible;"/>
			</clipPath>
			<g id="圖層_2_1_" class="st0">
				<g id="圖層_1-2">
					<path class="st1" d="M0-452L1,18.1C29.4,18.6,51.2,41.6,51.5,70h1471.2c0.3-28.8,23.6-51.9,52.4-51.9V-452
						c-28.8,0-52.1-23.2-52.4-51.9H51.5C51.2-475.5,28.4-452.5,0-452z"/>
					<path class="st2" d="M64.4,56.6c-0.6-13-6.1-25.3-15.5-34.4c-9.4-9.3-21-14.7-34.2-15.4l-1-447.6c13.2-0.6,25.7-6.1,35.2-15.4
						c9.4-9.1,14.9-21.4,15.5-34.4h1445.4c0.6,13.2,6.3,25.6,15.8,34.7c9.6,9.3,22.4,14.7,35.8,15.1V6.8
						c-13.4,0.4-26.1,5.8-35.8,15.1c-9.5,9.1-15.2,21.5-15.8,34.7L64.4,56.6 M62.5,58.5h1449.2c0.2-27.6,23.2-49.9,51.6-49.9v-451.2
						c-28.3,0-51.4-22.3-51.6-49.9H62.5c-0.2,27.3-22.8,49.4-50.7,49.8l1,451.4C40.8,9.2,62.3,31.2,62.5,58.5L62.5,58.5z"/>
				</g>
			</g>
		</g>
	</g>
</g>
</svg>
