<?xml version="1.0" encoding="utf-8"?>
<!-- Generator: Adobe Illustrator 24.0.1, SVG Export Plug-In . SVG Version: 6.00 Build 0)  -->
<svg version="1.1" id="圖層_1" xmlns="http://www.w3.org/2000/svg" xmlns:xlink="http://www.w3.org/1999/xlink" x="0px" y="0px"
	 viewBox="0 0 1208 5" style="enable-background:new 0 0 1208 5;" xml:space="preserve">
<style type="text/css">
	.st0{clip-path:url(#SVGID_2_);}
	.st1{fill:#FFFFFF;}
	.st2{fill:#DCB879;}
</style>
<title>資產 10</title>
<g>
	<g>
		<defs>
			<rect id="SVGID_1_" width="1208" height="6"/>
		</defs>
		<clipPath id="SVGID_2_">
			<use xlink:href="#SVGID_1_"  style="overflow:visible;"/>
		</clipPath>
		<g id="圖層_2_1_" class="st0">
			<g id="圖層_1-2">
				<path class="st1" d="M1208,91.7V-1.8c-28.4,0-51.2-2.3-51.5-5H52.4C52.1-4,28.8-1.8,0-1.8v93.5c28.8,0,52.1,2.2,52.4,5h1104.1
					C1156.8,94,1179.6,91.8,1208,91.7z"/>
				<path class="st2" d="M1143.6-5.5c0.6,1.3,6.1,2.5,15.4,3.4c9.3,0.9,21.8,1.5,35,1.5v91.3c-27.4,0.1-49.1,2.3-50.4,4.9H65.3
					c-0.6-1.3-6.2-2.5-15.7-3.4c-9.5-0.9-22.2-1.5-35.6-1.5V-0.6c13.4,0,26.1-0.6,35.6-1.5s15.1-2.1,15.7-3.4H1143.6 M1145.5-5.7
					H63.4C63.2-3,40.3-0.8,12.1-0.8v91.6c28.2,0,51.1,2.2,51.3,4.9h1082.1c0.2-2.7,22.6-4.9,50.4-4.9V-0.8
					C1168.1-0.9,1145.7-3,1145.5-5.7L1145.5-5.7z"/>
			</g>
		</g>
	</g>
</g>
</svg>
