<?xml version="1.0" encoding="utf-8"?>
<!-- Generator: Adobe Illustrator 24.0.1, SVG Export Plug-In . SVG Version: 6.00 Build 0)  -->
<svg version="1.1" id="圖層_1" xmlns="http://www.w3.org/2000/svg" xmlns:xlink="http://www.w3.org/1999/xlink" x="0px" y="0px"
	 viewBox="0 0 1576 61.9" style="enable-background:new 0 0 1576 61.9;" xml:space="preserve">
<style type="text/css">
	.st0{clip-path:url(#SVGID_2_);}
	.st1{fill:#FFFFFF;}
	.st2{fill:#DCB879;}
</style>
<title>資產 11</title>
<g>
	<g>
		<defs>
			<rect id="SVGID_1_" width="1576" height="61.9"/>
		</defs>
		<clipPath id="SVGID_2_">
			<use xlink:href="#SVGID_1_"  style="overflow:visible;"/>
		</clipPath>
		<g id="圖層_2_1_" class="st0">
			<g id="圖層_1-2">
				<path class="st1" d="M1524.5-512H52.4c-0.3,28.7-23.6,51.9-52.4,51.9V10c28.8,0,52.1,23.1,52.4,51.9h1472.1
					c0.3-28.4,23.1-51.4,51.5-51.9v-470.1C1547.6-460.6,1524.8-483.6,1524.5-512z"/>
				<path class="st2" d="M1511.6,48.5H65.3C64.7,35.3,59,22.9,49.5,13.8C39.8,4.5,27.1-0.9,13.7-1.3v-447.6
					c13.4-0.4,26.2-5.8,35.8-15.1c9.5-9.1,15.2-21.5,15.8-34.7h1446.3c0.6,13,6.1,25.3,15.5,34.4c9.5,9.3,22,14.8,35.2,15.4V-1.3
					c-13.2,0.7-25.8,6.1-35.2,15.4C1517.7,23.2,1512.2,35.5,1511.6,48.5 M1513.5,50.4c0.2-27.3,22.7-49.3,50.7-49.8v-451.4
					c-27.9-0.4-50.5-22.5-50.7-49.8H63.4c-0.2,27.6-23.3,49.9-51.6,49.9V0.5c28.4,0,51.4,22.3,51.6,49.9H1513.5L1513.5,50.4z"/>
			</g>
		</g>
	</g>
</g>
</svg>
