<?xml version="1.0" encoding="utf-8"?>
<!-- Generator: Adobe Illustrator 24.1.2, SVG Export Plug-In . SVG Version: 6.00 Build 0)  -->
<svg version="1.1" id="圖層_1" xmlns="http://www.w3.org/2000/svg" xmlns:xlink="http://www.w3.org/1999/xlink" x="0px" y="0px"
	 viewBox="0 0 501 500" style="enable-background:new 0 0 501 500;" xml:space="preserve">
<style type="text/css">
	.st0{fill:#D8B479;}
	.st1{fill:#FFFFFF;}
	.st2{fill:#CB4042;}
	.st3{font-family:'Kefa-Regular';}
	.st4{font-size:44.9798px;}
	.st5{fill:#C78550;}
	.st6{font-family:'NaikaiFont-Regular';}
	.st7{font-size:39.9821px;}
</style>
<g>
	<g>
		<g>
			<path class="st0" d="M259.6,136.8c42.1,0,81.7,16.4,111.5,46.2c29.8,29.8,46.2,69.4,46.2,111.5s-16.4,81.7-46.2,111.5
				c-29.8,29.8-69.4,46.2-111.5,46.2s-81.7-16.4-111.5-46.2c-29.8-29.8-46.2-69.4-46.2-111.5s16.4-81.7,46.2-111.5
				C177.9,153.2,217.5,136.8,259.6,136.8 M259.6,131.8C169.8,131.8,97,204.6,97,294.4s72.8,162.6,162.6,162.6
				s162.6-72.8,162.6-162.6S349.5,131.8,259.6,131.8L259.6,131.8z"/>
		</g>
		<g>
			
				<ellipse transform="matrix(0.7071 -0.7071 0.7071 0.7071 -132.1485 269.832)" class="st1" cx="259.6" cy="294.4" rx="153" ry="153"/>
			<path class="st0" d="M259.6,142.4c40.6,0,78.8,15.8,107.5,44.5c28.7,28.7,44.5,66.9,44.5,107.5s-15.8,78.8-44.5,107.5
				c-28.7,28.7-66.9,44.5-107.5,44.5s-78.8-15.8-107.5-44.5c-28.7-28.7-44.5-66.9-44.5-107.5s15.8-78.8,44.5-107.5
				C180.9,158.2,219,142.4,259.6,142.4 M259.6,140.5c-85,0-153.9,68.9-153.9,153.9s68.9,153.9,153.9,153.9s153.9-68.9,153.9-153.9
				S344.6,140.5,259.6,140.5L259.6,140.5z"/>
		</g>
		<g>
			<g>
				<path class="st0" d="M86.6,302.7c-10.6,9.3-7.1,19.7-4.4,30.1c2.8,10.8,6.7,21,14.4,29.6c0.8-2.5,1.1-5.2,2.6-7.2
					c1.2-1.7,3.6-2.7,5.7-3.3c0.7-0.2,2.5,1.7,3,3c0.2,0.7-1.1,2.6-2.1,3c-7,2.8-8,6.2-3.3,12.3c5.8,7.5,10.7,15.3,9.7,25.3
					c-0.1,0.7-0.2,1.4-1.1,2.2c-0.2-1-0.3-2-0.6-2.9c-1.7-4.6-2.7-9.9-5.5-13.6c-6.9-9-19-6.8-23.5,3.7c-0.6,1.5-1.9,2.7-2.8,4
					c-1.5-1.5-3.6-2.7-4.3-4.5c-2.7-6.8,2.9-14.4,11.3-14.7c5.1-0.2,10.3,1.3,15.1,2c-3.2-3.8-7.1-8.1-10.8-12.6
					c-7.3-8.8-14.2-18-16.8-29.3c-1.3-5.7-1.4-12-0.3-17.8C74.1,305.4,79.7,302.1,86.6,302.7z M76.7,310.4
					c-8.3,8.1-0.4,34.7,13.2,45.7C81.8,341.9,77,326.9,76.7,310.4z M100.4,375.1c-7.4-5.6-17.1-5.7-22.2-0.4
					c-2.2,2.3-3.6,4.9-0.8,8.5C84,377.1,90.5,371.1,100.4,375.1z M98.3,358.8c0.4,0.2,0.8,0.5,1.2,0.7c1.7-0.8,3.5-1.5,5-2.5
					c0.7-0.5,0.9-1.8,1.3-2.7c-1-0.2-2.6-1-3-0.6C101,355.1,99.7,357,98.3,358.8z"/>
			</g>
			<g>
				<path class="st0" d="M86.4,235c3.6-4.6,7.3-9.2,10.9-13.7c1.2-1.5,2.4-2.8,3.4-4.6c-5.9,2.3-11.7,4.1-18,2.1
					c-7-2.2-10.9-8.6-8.4-14.5c0.7-1.7,2.7-2.8,4.1-4.2c1,1.3,2.3,2.4,3,3.8c4.6,10.9,17,12.7,24.1,3.3c1.7-2.3,3-5.1,4-7.8
					c0.9-2.6,1-5.5,1.8-8.2c1.6,4.6,1.4,9.4-0.6,13.7c-2.3,4.9-5.3,9.5-8.4,14c-4.2,6.1-3.5,9.6,3.3,12c2.1,0.7,3.4,1.9,2.1,3.8
					c-0.8,1.2-3,2.5-4.4,2.3c-3.5-0.4-5.3-3.6-6.7-11.2c-2.9,4.5-6.2,8.1-7.8,12.3c-3.6,9.8-6.6,19.8-9.1,29.9
					c-1.5,5.8,0.1,11.4,4.7,15.8c0.4,0.4,0.7,0.9,1,1.5c0.1,0.2,0,0.6,0,0.8c-4.7,0.8-9.5-1.4-11.5-6.7c-1.6-4.3-2.6-9.2-2.1-13.7
					c1.3-11.8,6.7-22,14.8-30.8c-0.6,1.3-1.2,2.5-1.9,3.8c-3.1,5.8-7,11.4-9.1,17.6c-1.8,5.2-1.8,11.2-2.1,16.9
					c-0.1,1.8,1.5,3.7,2.3,5.5c0.9-16.4,6.2-30.9,13.6-45.5c-0.9,0.7-1.2,0.9-1.6,1.1C87.4,234.5,86.9,234.7,86.4,235z M100.4,213.6
					c-8,3-14.1,0.1-19.7-5c-1.1-1-2.6-1.5-3.8-2.2c-0.1,1.8-0.7,3.7-0.2,5.2c0.5,1.5,2,2.9,3.4,3.9
					C85.4,219.6,96.2,218.6,100.4,213.6z M98.9,228.8c-0.3,0.2-0.6,0.4-0.9,0.6c1.5,2,2.9,4,4.7,5.8c0.4,0.4,1.9-0.4,2.9-0.6
					c-0.4-0.9-0.5-2.2-1.2-2.6C102.7,230.7,100.7,229.8,98.9,228.8z"/>
			</g>
			<g>
				<path class="st0" d="M84.8,233.6c-1,1.5-2.1,4.2-4.1,5.7c-5.6,4.2-11.2,8.7-17.5,11.6c-9.9,4.6-19,9.5-24.1,19.7
					c-0.4,0.8-1.1,1.4-1.7,2c-0.3,0.3-0.8,0.3-2.6,0.7c0.3-3.7,0-7,0.9-10c2.4-7.7,7.5-12.3,15.7-13.6c5.6-0.9,11.7-1.4,16.6-3.9
					C74.2,242.6,79.5,237.6,84.8,233.6z M38.7,265c7.2-5,14.6-10.1,21.3-14.8C46.7,250.7,37.6,256.9,38.7,265z"/>
			</g>
			<g>
				<path class="st0" d="M64.3,338.9c9.5,2.7,16.2,8.6,20.3,17.6c-0.3-0.2-0.7-0.2-0.9-0.5c-7.2-11.1-18-15.6-30.6-16.7
					c-10.6-0.9-17.6-8.1-18.4-18.7c-0.1-1.6,0.5-3.3,0.9-6.1c1.8,1.9,3.2,2.9,3.9,4.2c4.7,9,12.4,14.4,21.6,18
					C62.2,337.2,63.2,338.2,64.3,338.9c-10-2.6-18.4-8-25.5-15.7c-0.5,4.6,1.5,8,4.6,10.4C49.5,338.4,56.9,338.7,64.3,338.9z"/>
			</g>
			<g>
				<path class="st0" d="M71.7,352.4c8.9,2.3,15.5,7.6,20.9,14.9c-6-5.3-12-10.6-20.4-12c-8.1-1.3-14.9,2.3-19.2,10.3
					c-5.2-3.3-3.3-9.5,4-13.7c-1,1.2-2.2,2.3-3.1,3.6c-0.8,1.3-1.3,2.7-2,4.1c6.8-4.3,13.6-6.7,21.5-5.5
					C72.7,353.4,72.2,352.9,71.7,352.4z"/>
			</g>
			<g>
				<path class="st0" d="M53.5,322.8c-7.8-3.3-10.4-16.9-4.5-21.8c1.3-1,3.7-0.6,5.6-0.9c-0.1,2,0.7,4.6-0.3,5.9
					C48,313.9,47.9,314.2,53.5,322.8z M46.6,311.8c0.4,0,0.7,0.1,1.1,0.1c1.6-2,3.4-3.9,4.7-6.2c0.6-1,0.1-2.6,0.2-3.9
					c-1.2,0.5-3.1,0.7-3.5,1.6C47.9,306,47.3,308.9,46.6,311.8z"/>
			</g>
			<g>
				<path class="st0" d="M63.5,238.3c-3.6-1.4-7.7-2.2-10.7-4.5c-4-3.1-3.5-8.3,0.4-10.6c3.3,10.2,11.9,10.3,20.4,10.9
					c0.1,0.2,0.2,0.4,0.1,0.6c-7.9,1.1-14.9-0.9-21.5-6.5c0.2,4.9,3,6.7,6.1,8C60,236.9,61.7,237.6,63.5,238.3z"/>
			</g>
			<g>
				<path class="st0" d="M53.3,266.4c-0.8,1.2-1.6,2.3-2.3,3.5c-2.7,4.4-2.3,7.5,1.5,11c2,1.9,4.2,3.6,2.8,6.7c-0.4,0.9-2.6,2-3,1.7
					c-2-1.4-4.5-3-5.4-5.1C44.1,277.9,46.8,270.4,53.3,266.4z M47.6,276.7c-0.4,0.1-0.7,0.1-1.1,0.2c0.7,2.8,1.2,5.7,2.3,8.4
					c0.4,0.9,2.3,1.2,3.5,1.8c0-1.4,0.4-3.1-0.2-4.1C50.9,280.7,49.2,278.7,47.6,276.7z"/>
			</g>
			<g>
				<path class="st0" d="M59.2,318.8c1.7-1.6,3-2.8,4.3-3.9c1,1.2,2.9,2.7,2.7,3.7c-0.4,1.8-2,3.3-3.1,5
					C61.9,322.1,60.8,320.8,59.2,318.8z"/>
			</g>
			<g>
				<path class="st0" d="M59,269.3c2-1.7,3.3-2.8,4.6-3.9c0.9,1.9,2.2,3.7,2.5,5.6c0.1,0.8-1.8,2-2.8,3
					C62.1,272.5,60.8,271.2,59,269.3z"/>
			</g>
			<g>
				<path class="st0" d="M73.2,235.8c0.2-0.4,0.3-0.7,0.5-1.1c0.1-0.2,0.1-0.4-0.1-0.6c6.5-4,12.9-8.1,19-11.8
					C87.7,228.2,81.6,233.6,73.2,235.8z"/>
			</g>
			<g>
				<path class="st0" d="M63.4,332.2c-1.7-2.4-2-4.9,0.7-6.4c0.9-0.5,4.3,0.9,4.4,1.7c0.4,2.7,0.8,6.7-0.7,8c-2.2,1.9-3.9-1-4.5-3.5
					c1.3,0.9,2.5,1.9,4.7,3.5c-0.3-3.6,1.1-6.4-2.3-7.6C65.5,328,64.2,330.7,63.4,332.2z"/>
			</g>
			<g>
				<path class="st0" d="M60.9,259.4c2.4-2.7,4.2-4.7,6-6.8c0.9,1.6,2.6,3.1,2.6,4.7c0,2.6-0.1,6.1-4,5.9
					C64.1,263.3,63,261.3,60.9,259.4z M68.5,254.9c-0.9-0.4-1.7-0.7-2.6-1.1c-0.7,1.9-1.6,3.8-2.1,5.7c-0.1,0.3,1.4,1,2.2,1.4
					C66.9,259,67.7,257,68.5,254.9z"/>
			</g>
			<g>
				<path class="st0" d="M67.3,280.7c-1.5,1-2.8,2.1-3,1.9c-0.9-0.9-1.9-2-2.2-3.3c-0.1-0.7,1.1-1.6,1.7-2.4
					C64.8,278,65.8,279,67.3,280.7z"/>
			</g>
		</g>
		<g>
			<g>
				<path class="st0" d="M429.1,286.2c10.6-9.3,7.1-19.7,4.4-30.1c-2.8-10.8-6.7-21-14.4-29.6c-0.8,2.5-1.1,5.2-2.6,7.2
					c-1.2,1.7-3.6,2.7-5.7,3.3c-0.7,0.2-2.5-1.7-3-3c-0.2-0.7,1.1-2.6,2.1-3c7-2.8,8-6.2,3.3-12.3c-5.8-7.5-10.7-15.3-9.7-25.3
					c0.1-0.7,0.2-1.4,1.1-2.2c0.2,1,0.3,2,0.6,2.9c1.7,4.6,2.7,9.9,5.5,13.6c6.9,9,19,6.8,23.5-3.7c0.6-1.5,1.9-2.7,2.8-4
					c1.5,1.5,3.6,2.7,4.3,4.5c2.7,6.8-2.9,14.4-11.3,14.7c-5.1,0.2-10.3-1.3-15.1-2c3.2,3.8,7.1,8.1,10.8,12.6
					c7.3,8.8,14.2,18,16.8,29.3c1.3,5.7,1.4,12,0.3,17.8C441.6,283.4,436,286.8,429.1,286.2z M439,278.5c8.3-8.1,0.4-34.7-13.2-45.7
					C433.9,247,438.7,262,439,278.5z M415.2,213.8c7.4,5.6,17.1,5.7,22.2,0.4c2.2-2.3,3.6-4.9,0.8-8.5
					C431.7,211.8,425.2,217.8,415.2,213.8z M417.4,230.1c-0.4-0.2-0.8-0.5-1.2-0.7c-1.7,0.8-3.5,1.5-5,2.5c-0.7,0.5-0.9,1.8-1.3,2.7
					c1,0.2,2.6,1,3,0.6C414.6,233.8,415.9,231.9,417.4,230.1z"/>
			</g>
			<g>
				<path class="st0" d="M429.2,353.9c-3.6,4.6-7.3,9.2-10.9,13.7c-1.2,1.5-2.4,2.8-3.4,4.6c5.9-2.3,11.7-4.1,18-2.1
					c7,2.2,10.9,8.6,8.4,14.5c-0.7,1.7-2.7,2.8-4.1,4.2c-1-1.3-2.3-2.4-3-3.8c-4.6-10.9-17-12.7-24.1-3.3c-1.7,2.3-3,5.1-4,7.8
					c-0.9,2.6-1,5.5-1.8,8.2c-1.6-4.6-1.4-9.4,0.6-13.7c2.3-4.9,5.3-9.5,8.4-14c4.2-6.1,3.5-9.6-3.3-12c-2.1-0.7-3.4-1.9-2.1-3.8
					c0.8-1.2,3-2.5,4.4-2.3c3.5,0.4,5.3,3.6,6.7,11.2c2.9-4.5,6.2-8.1,7.8-12.3c3.6-9.8,6.6-19.8,9.1-29.9
					c1.5-5.8-0.1-11.4-4.7-15.8c-0.4-0.4-0.7-0.9-1-1.5c-0.1-0.2,0-0.6,0-0.8c4.7-0.8,9.5,1.4,11.5,6.7c1.6,4.3,2.6,9.2,2.1,13.7
					c-1.3,11.8-6.7,22-14.8,30.8c0.6-1.3,1.2-2.5,1.9-3.8c3.1-5.8,7-11.4,9.1-17.6c1.8-5.2,1.8-11.2,2.1-16.9
					c0.1-1.8-1.5-3.7-2.3-5.5c-0.9,16.4-6.2,30.9-13.6,45.5c0.9-0.7,1.2-0.9,1.6-1.1C428.3,354.4,428.8,354.2,429.2,353.9z
					 M415.3,375.3c8-3,14.1-0.1,19.7,5c1.1,1,2.6,1.5,3.8,2.2c0.1-1.8,0.7-3.7,0.2-5.2c-0.5-1.5-2-2.9-3.4-3.9
					C430.3,369.3,419.5,370.3,415.3,375.3z M416.8,360.1c0.3-0.2,0.6-0.4,0.9-0.6c-1.5-2-2.9-4-4.7-5.8c-0.4-0.4-1.9,0.4-2.9,0.6
					c0.4,0.9,0.5,2.2,1.2,2.6C412.9,358.2,414.9,359.1,416.8,360.1z"/>
			</g>
			<g>
				<path class="st0" d="M430.9,355.2c1-1.5,2.1-4.2,4.1-5.7c5.6-4.2,11.2-8.7,17.5-11.6c9.9-4.6,19-9.5,24.1-19.7
					c0.4-0.8,1.1-1.4,1.7-2c0.3-0.3,0.8-0.3,2.6-0.7c-0.3,3.7,0,7-0.9,10c-2.4,7.7-7.5,12.3-15.7,13.6c-5.6,0.9-11.7,1.4-16.6,3.9
					C441.5,346.3,436.2,351.3,430.9,355.2z M477,323.9c-7.2,5-14.6,10.1-21.3,14.8C469,338.2,478,332,477,323.9z"/>
			</g>
			<g>
				<path class="st0" d="M451.4,250c-9.5-2.7-16.2-8.6-20.3-17.6c0.3,0.2,0.7,0.2,0.9,0.5c7.2,11.1,18,15.6,30.6,16.7
					c10.6,0.9,17.6,8.1,18.4,18.7c0.1,1.6-0.5,3.3-0.9,6.1c-1.8-1.9-3.2-2.9-3.9-4.2c-4.7-9-12.4-14.4-21.6-18
					C453.5,251.7,452.5,250.7,451.4,250c10,2.6,18.4,8,25.5,15.7c0.5-4.6-1.5-8-4.6-10.4C466.1,250.5,458.8,250.1,451.4,250z"/>
			</g>
			<g>
				<path class="st0" d="M444,236.5c-8.9-2.3-15.5-7.6-20.9-14.9c6,5.3,12,10.6,20.4,12c8.1,1.3,14.9-2.3,19.2-10.3
					c5.2,3.3,3.3,9.5-4,13.7c1-1.2,2.2-2.3,3.1-3.6c0.8-1.3,1.3-2.7,2-4.1c-6.8,4.3-13.6,6.7-21.5,5.5
					C443,235.5,443.5,236,444,236.5z"/>
			</g>
			<g>
				<path class="st0" d="M462.1,266.1c7.8,3.3,10.4,16.9,4.5,21.8c-1.3,1-3.7,0.6-5.6,0.9c0.1-2-0.7-4.6,0.3-5.9
					C467.6,274.9,467.8,274.7,462.1,266.1z M469.1,277.1c-0.4,0-0.7-0.1-1.1-0.1c-1.6,2-3.4,3.9-4.7,6.2c-0.6,1-0.1,2.6-0.2,3.9
					c1.2-0.5,3.1-0.7,3.5-1.6C467.8,282.8,468.3,279.9,469.1,277.1z"/>
			</g>
			<g>
				<path class="st0" d="M452.2,350.6c3.6,1.4,7.7,2.2,10.7,4.5c4,3.1,3.5,8.3-0.4,10.6c-3.3-10.2-11.9-10.3-20.4-10.9
					c-0.1-0.2-0.2-0.4-0.1-0.6c7.9-1.1,14.9,0.9,21.5,6.5c-0.2-4.9-3-6.7-6.1-8C455.7,351.9,453.9,351.3,452.2,350.6z"/>
			</g>
			<g>
				<path class="st0" d="M462.4,322.4c0.8-1.2,1.6-2.3,2.3-3.5c2.7-4.4,2.3-7.5-1.5-11c-2-1.9-4.2-3.6-2.8-6.7c0.4-0.9,2.6-2,3-1.7
					c2,1.4,4.5,3,5.4,5.1C471.6,311,468.9,318.5,462.4,322.4z M468,312.2c0.4-0.1,0.7-0.1,1.1-0.2c-0.7-2.8-1.2-5.7-2.3-8.4
					c-0.4-0.9-2.3-1.2-3.5-1.8c0,1.4-0.4,3.1,0.2,4.1C464.7,308.2,466.5,310.1,468,312.2z"/>
			</g>
			<g>
				<path class="st0" d="M456.5,270.1c-1.7,1.6-3,2.8-4.3,3.9c-1-1.2-2.9-2.7-2.7-3.7c0.4-1.8,2-3.3,3.1-5
					C453.7,266.8,454.8,268.1,456.5,270.1z"/>
			</g>
			<g>
				<path class="st0" d="M456.6,319.6c-2,1.7-3.3,2.8-4.6,3.9c-0.9-1.9-2.2-3.7-2.5-5.6c-0.1-0.8,1.8-2,2.8-3
					C453.6,316.4,454.8,317.7,456.6,319.6z"/>
			</g>
			<g>
				<path class="st0" d="M442.5,353.1c-0.2,0.4-0.3,0.7-0.5,1.1c-0.1,0.2-0.1,0.4,0.1,0.6c-6.5,4-12.9,8.1-19,11.8
					C427.9,360.6,434,355.3,442.5,353.1z"/>
			</g>
			<g>
				<path class="st0" d="M452.2,256.7c1.7,2.4,2,4.9-0.7,6.4c-0.9,0.5-4.3-0.9-4.4-1.7c-0.4-2.7-0.8-6.7,0.7-8
					c2.2-1.9,3.9,1,4.5,3.5c-1.3-0.9-2.5-1.9-4.7-3.5c0.3,3.6-1.1,6.4,2.3,7.6C450.2,260.9,451.4,258.1,452.2,256.7z"/>
			</g>
			<g>
				<path class="st0" d="M454.8,329.5c-2.4,2.7-4.2,4.7-6,6.8c-0.9-1.6-2.6-3.1-2.6-4.7c0-2.6,0.1-6.1,4-5.9
					C451.5,325.6,452.7,327.6,454.8,329.5z M447.1,334c0.9,0.4,1.7,0.7,2.6,1.1c0.7-1.9,1.6-3.8,2.1-5.7c0.1-0.3-1.4-1-2.2-1.4
					C448.8,329.9,448,331.9,447.1,334z"/>
			</g>
			<g>
				<path class="st0" d="M448.3,308.2c1.5-1,2.8-2.1,3-1.9c0.9,0.9,1.9,2,2.2,3.3c0.1,0.7-1.1,1.6-1.7,2.4
					C450.8,310.9,449.9,309.8,448.3,308.2z"/>
			</g>
		</g>
	</g>
	<g>
		<text transform="matrix(1 0 0 1 139.7327 62.6847)" class="st2 st3 st4">Credit Card</text>
	</g>
	<g>
		<text transform="matrix(1 0 0 1 159.0755 103.0187)" class="st5 st6 st7">信用卡資料</text>
	</g>
</g>
<g>
	<g>
		<path class="st0" d="M261.1,366.3c-27.9,0-55.7,0-83.6,0c-16,0-20.7-4.6-20.7-20.3c0-31.1-0.1-62.3,0-93.4
			c0-13.8,5.1-19.1,19-19.1c57-0.1,114.1-0.1,171.1,0c13.4,0,18.6,5.2,18.6,18.3c0.1,32.1,0.1,64.3,0,96.4c0,12.7-5.1,17.9-17.9,18
			C318.8,366.4,289.9,366.3,261.1,366.3z M325.7,315.9C325.7,315.9,325.7,315.9,325.7,315.9c4.9-0.1,9.8,0.3,14.7-0.1
			c10.4-0.8,10.8-8.5,10.8-16.4c0-7.8-1.2-14.9-11-15.2c-9.8-0.4-19.7-0.9-29.3,0.3c-3.7,0.5-9,4.8-10,8.3c-4.6,16.5,1,23.1,18,23.1
			C321.1,315.9,323.4,315.9,325.7,315.9z M220.4,333.8c0.2,7.7,0.2,7.7,25.8,7.4c8-0.1,8-0.1,7.9-7.4
			C242.8,333.8,231.6,333.8,220.4,333.8z M303.3,336.8c-0.5-1-1-1.9-1.5-2.9c-11.3,0-22.6,0-33.9,0c0.8,8.3,1.1,8.5,27.6,7.1
			C298.2,340.8,300.7,338.2,303.3,336.8z M351.3,337.5c-0.4-1.2-0.9-2.4-1.3-3.6c-11.3,0-22.5,0-33.8,0c-0.4,1.1-0.8,2.1-1.2,3.2
			c2.8,1.3,5.8,4.1,8.4,3.8C332.6,339.5,343.6,345.4,351.3,337.5z M207.5,336.3c-0.6-1-1.3-2-1.9-3c-9.7,0-19.4-0.2-29.1,0.1
			c-1.7,0.1-3.2,2-4.9,3.1c1.6,1.5,3.1,4.2,4.8,4.3c8.4,0.4,16.9,0.5,25.3,0C203.7,340.7,205.6,337.9,207.5,336.3z"/>
	</g>
</g>
</svg>
