<?xml version="1.0" encoding="utf-8"?>
<!-- Generator: Adobe Illustrator 24.1.2, SVG Export Plug-In . SVG Version: 6.00 Build 0)  -->
<svg version="1.1" id="圖層_1" xmlns="http://www.w3.org/2000/svg" xmlns:xlink="http://www.w3.org/1999/xlink" x="0px" y="0px"
	 viewBox="0 0 369.2 207.6" style="enable-background:new 0 0 369.2 207.6;" xml:space="preserve">
<style type="text/css">
	.st0{fill:#CB4042;}
</style>
<g>
	<g>
		<path class="st0" d="M227.3,158.3c-7.1,0-14.1,0-21.2,0c-7.1,0-14.1,0-21.2,0h-44c-9.6,0-19.3,0-28.9,0c-12.4,0-15.3-2.8-15.3-15
			c0-25.8,0-53.5,0-80.9c0-10.5,3.4-13.9,13.8-13.9c24.7,0,49.4-0.1,74-0.1s49.2,0,73.8,0.1c10.1,0,13.5,3.4,13.5,13.3
			c0.1,28.2,0.1,56.3,0,83.5c0,9.7-3.3,13-12.9,13C249.7,158.3,239.6,158.3,227.3,158.3z M240.7,141.2c1.8,0,3.6,0.2,5.6,0.4
			s4.1,0.5,6.2,0.5c3.1,0,7.7-0.5,11.6-4.4l1.1-1.2l-2.3-6.4h-32.8l-2.5,6.7l2.2,1c0.6,0.3,1.3,0.7,2.1,1.2c1.8,1.2,3.7,2.3,5.9,2.3
			l0,0c0.3,0,0.5,0,0.8-0.1C239.1,141.3,239.9,141.2,240.7,141.2z M187.5,133c0.7,6.9,2.4,9.1,11.9,9.1c3.4,0,8-0.2,14.6-0.6
			c2.3-0.1,4.3-1.5,6-2.7c0.7-0.5,1.3-0.9,1.9-1.3l2.2-1.2l-3.2-6.1h-33.8L187.5,133z M146.4,132.7c0.2,8.2,3,9,14.9,9l0,0
			c2.7,0,5.9,0,10-0.1c4.3-0.1,6.4-0.1,8-1.7c1.5-1.6,1.5-3.7,1.4-7.3l-0.1-2.5h-34.3L146.4,132.7z M123.6,129.7
			c-5.1,0-8.9,0-12.6,0.2c-1.9,0.1-3.3,1.3-4.5,2.3c-0.4,0.3-0.8,0.7-1.1,0.9l-2.7,1.8l2.3,2.2c0.3,0.3,0.7,0.8,1.1,1.2
			c1.2,1.5,2.6,3.1,4.7,3.2c3.9,0.2,7.6,0.3,11.2,0.3l0,0c3.8,0,7.4-0.1,10.9-0.3c2.2-0.1,3.8-1.8,5.2-3.2c0.5-0.5,0.9-1,1.3-1.3
			l1.8-1.5l-3.7-5.7h-1.4c-2.1,0-4.2,0-6.3,0C127.8,129.7,125.7,129.7,123.6,129.7z M243.9,119.8c1.3,0,2.7,0.1,4,0.1
			c1.9,0,3.5-0.1,5-0.2c11.7-0.9,11.7-10.9,11.7-16.8c0-4.6,0-15.4-12-15.8l-2-0.1c-3.8-0.1-7.7-0.3-11.5-0.3
			c-4.6,0-8.6,0.2-12.3,0.7c-4.4,0.5-9.7,5-10.9,9.1c-2.2,8-1.9,13.6,1.1,17.5s8.4,5.8,16.9,5.8h8.5l0,0
			C243.1,119.8,243.5,119.8,243.9,119.8z"/>
		<path class="st0" d="M184.5,51c25.3,0,50.2,0,73.8,0.1c8.6,0,10.9,2.2,10.9,10.7c0.1,28.4,0.1,56.5,0,83.5c0,4.1-0.7,6.9-2.1,8.3
			c-1.4,1.4-4.1,2.1-8.2,2.2c-9.2,0.1-19.3,0.1-31.6,0.1c-7.1,0-14.1,0-21.2,0c-7.1,0-14.1,0-21.2,0h-0.7c-6.7,0-13.5,0-20.2,0
			c-7.6,0-15.3,0-22.9,0c-9.7,0-19.4,0-29.1,0c-5.6,0-9-0.7-10.5-2.2s-2.2-4.7-2.2-10.2c0-2.7,0-5.5,0-8.3l4.1,3.9
			c0.2,0.2,0.6,0.6,0.9,1c1.3,1.6,3.3,4,6.6,4.2c3.9,0.2,7.7,0.3,11.4,0.3c3.8,0,7.5-0.1,11.1-0.3c3.2-0.2,5.3-2.4,6.9-4
			c0.4-0.4,0.8-0.9,1.1-1.1l2.9-2.4c1.2,6.7,5.8,7.9,17.1,7.9c2.7,0,6,0,10.1-0.1c4.5-0.1,7.5-0.1,9.8-2.5s2.2-5.4,2.1-9.2l-0.1-5.1
			h-5.1H149h-5.3l0.1,5.3c0,0.6,0,1.2,0.1,1.8l-1.6-2.6l-1.7-2.6l-1.5-2.4h-2.8c-2.1,0-4.2,0-6.3,0c-2.1,0-4.2,0-6.4,0
			c-5.1,0-9,0.1-12.6,0.2c-2.8,0.1-4.8,1.8-6.1,2.9c-0.3,0.3-0.7,0.6-0.9,0.7l-4.8,3.2c0-23.1,0-47.5,0-71.6c0-4.6,0.7-7.6,2.2-9.1
			s4.4-2.2,9-2.2C136,51,160.9,51,184.5,51 M236.3,122.4h1.9h1.9h3.8c0,0,0,0,0.1,0c1.3,0,2.7,0.1,4.1,0.1c2,0,3.6-0.1,5.2-0.2
			c14.1-1.1,14.1-13.5,14.1-19.4c0-4.4,0-17.9-14.5-18.4l-1.9-0.1c-3.8-0.1-7.7-0.3-11.6-0.3c-4.7,0-8.8,0.2-12.6,0.7
			c-5.4,0.7-11.6,5.9-13,11c-1.5,5.6-3.1,13.7,1.6,19.8c4.6,6.1,13,6.8,19,6.8L236.3,122.4 M199.4,144.7c3.5,0,8.1-0.2,14.7-0.6
			c3.1-0.2,5.4-1.8,7.3-3.2c0.6-0.4,1.2-0.8,1.7-1.1l2-1.1l3.3,1.6c0.5,0.2,1.1,0.6,1.8,1.1c1.9,1.2,4.4,2.7,7.3,2.7
			c0.4,0,0.8,0,1.2-0.1c0.6-0.1,1.2-0.1,2-0.1c1.6,0,3.4,0.2,5.3,0.4c2.1,0.2,4.2,0.5,6.5,0.5c5.6,0,10-1.7,13.4-5.2l2.3-2.3
			l-1.1-3.1l-0.8-2.3l-0.3-0.8l-1.2-3.4H261h-29.2h-3.6L227,131l-1.1,2.8l-0.1,0.3l-0.6-1.1l-1.3-2.5l-1.5-2.8h-3.2h-29.3h-5.7
			l0.6,5.7C185.8,142,189.2,144.7,199.4,144.7 M184.5,45.8c-24.7,0-49.3,0-74,0.1c-12,0-16.4,4.5-16.4,16.5c-0.1,27,0,54,0,80.9
			c0,13.6,4,17.5,17.9,17.6c9.7,0,19.4,0,29.1,0c14.4,0,28.7,0,43.1,0c0.2,0,0.5,0,0.7,0c14.1,0,28.3,0,42.4,0
			c10.6,0,21.1,0,31.7-0.1c11-0.1,15.4-4.6,15.4-15.6c0.1-27.8,0.1-55.7,0-83.5c0-11.3-4.5-15.8-16.1-15.9
			C233.7,45.8,209.1,45.8,184.5,45.8L184.5,45.8z M236.3,117.2c-0.7,0-1.5,0-2.2,0c-14.7,0-19.4-5.7-15.5-20
			c0.8-3.1,5.4-6.8,8.7-7.2c3.9-0.5,7.9-0.6,11.9-0.6c4.5,0,8.9,0.2,13.4,0.4c8.5,0.3,9.5,6.5,9.5,13.2c0,6.8-0.3,13.5-9.3,14.2
			c-1.6,0.1-3.2,0.2-4.8,0.2c-2.6,0-5.3-0.1-7.9-0.1c0,0,0,0,0,0.1C238.8,117.2,237.5,117.2,236.3,117.2L236.3,117.2z M122.1,139.2
			c-3.7,0-7.4-0.1-11.1-0.3c-1.4-0.1-2.7-2.4-4.1-3.7c1.4-0.9,2.8-2.6,4.2-2.7c4.2-0.1,8.3-0.2,12.5-0.2s8.5,0,12.7,0
			c0.6,0.9,1.1,1.7,1.7,2.6c-1.7,1.4-3.3,3.9-5,4C129.3,139,125.7,139.2,122.1,139.2L122.1,139.2z M161.3,139.2
			c-12.1,0-12.2-1-12.3-6.5c9.7,0,19.4,0,29.1,0c0.1,6.3,0.1,6.3-6.8,6.4C167.3,139.1,164,139.2,161.3,139.2L161.3,139.2z
			 M199.4,139.5c-8.6,0-8.8-1.5-9.4-6.7c9.8,0,19.6,0,29.3,0c0.4,0.8,0.9,1.7,1.3,2.5c-2.3,1.3-4.5,3.5-6.8,3.6
			C207.4,139.2,202.8,139.5,199.4,139.5L199.4,139.5z M237.6,138.9c-2.1,0-4.5-2.2-6.8-3.3c0.4-0.9,0.7-1.8,1.1-2.8
			c9.7,0,19.5,0,29.2,0c0.4,1,0.7,2.1,1.1,3.1c-2.8,2.9-6.2,3.6-9.7,3.6c-3.8,0-7.9-0.9-11.7-0.9c-0.9,0-1.8,0.1-2.7,0.2
			C237.9,138.8,237.7,138.9,237.6,138.9L237.6,138.9z"/>
	</g>
</g>
</svg>
