<?xml version="1.0" encoding="utf-8"?>
<!-- Generator: Adobe Illustrator 24.1.2, SVG Export Plug-In . SVG Version: 6.00 Build 0)  -->
<svg version="1.1" id="圖層_1" xmlns="http://www.w3.org/2000/svg" xmlns:xlink="http://www.w3.org/1999/xlink" x="0px" y="0px"
	 viewBox="0 0 322.8 181.5" style="enable-background:new 0 0 322.8 181.5;" xml:space="preserve">
<style type="text/css">
	.st0{fill:#E16B8C;}
	.st1{fill:none;stroke:#FADBDD;stroke-width:1.2344;stroke-miterlimit:10;}
	.st2{fill:#FFFFFF;}
	.st3{font-family:'NaikaiFont-Light';}
	.st4{font-size:32.4236px;}
</style>
<g>
	<g>
		<g>
			<path class="st0" d="M281,138.9V68.1c-17,0-30.8-8.7-30.8-19.4H44.4c0,10.7-13.7,19.4-30.8,19.4v70.9c17,0,30.8,8.7,30.8,19.4
				h206.1C250.5,147.6,264.2,138.9,281,138.9z"/>
		</g>
		<path class="st1" d="M267.3,133.3V73.9c-15.4-2-24.4-5.8-30.8-17.3H58.1c-6,11.5-15.4,15.3-30.8,17.3v59.4
			c18.4,3.9,24.4,7.7,30.8,17.3h178.4C242.8,138.9,251.9,135.1,267.3,133.3z"/>
	</g>
	<g>
		<g>
			<text transform="matrix(1.14 -6.131180e-03 5.378228e-03 1 133.0491 113.8177)" class="st2 st3 st4">編輯</text>
		</g>
		<g>
			<path class="st2" d="M85.8,119.7c1-3.2,1.9-6.5,2.9-9.8c0.2-0.7,0.4-1.2,0.6-1.9c0.2-0.4,0.4-0.5,0.7-0.9
				c0.2-0.2,0.2-0.2,0.4-0.4c5.6-5.1,11.2-10.5,16.8-15.6c0.2-0.2,0.2-0.2,0.4-0.4c4,3.3,7.8,6.4,11.8,9.7c-0.2,0-0.4,0.2-0.4,0.2
				c-5.5,5.1-11,10.3-16.5,15.4c-0.7,0.7-1.6,1.2-2.5,1.3c-3.9,1-7.5,2.2-11.4,3.4c-0.2,0-0.5,0.2-0.7,0.2l-0.2,0
				c-0.2,0-0.4-0.2-0.7-0.2C86.2,120.5,86,120.2,85.8,119.7L85.8,119.7z M92.1,109.4c-0.6,1.9-1.1,3.9-1.7,5.9c0,0.2,0,0.4,0.2,0.4
				c0.4,0.4,0.7,0.7,1.1,0.9c0.2,0.2,0.4,0.2,0.5,0.2c2.1-0.6,4.2-1.2,6.1-1.8c0.2,0,0.2,0,0.4-0.2c-0.4-0.4-0.7-0.5-0.9-0.7
				c-0.2-0.2-0.2-0.2-0.2-0.4c0-0.5,0-1.1-0.2-1.4c0-0.7-0.2-1.2-0.3-1.9c-1.1,0-2.1-0.1-3.2-0.1c-0.7,0-1.2-0.2-1.8-0.6
				C92.3,109.4,92.3,109.4,92.1,109.4z"/>
			<path class="st2" d="M124.6,94.5c-3.6-3.1-7.4-6.2-11.2-9.1c0.7-0.5,1.4-1.4,2.2-1.9c1.6-1,3.4-0.8,4.8,0.3
				c1.9,1.5,3.6,2.9,5.5,4.4c1.6,1.3,1.7,3.4,0.2,4.9C125.5,93.7,125.1,94.2,124.6,94.5z"/>
			<path class="st2" d="M111.5,86.8c3.8,3.3,7.8,6.2,11.6,9.5c-0.9,0.7-1.6,1.5-2.4,2.2c-3.8-3.3-7.8-6.2-11.6-9.5
				C109.8,88.3,110.7,87.5,111.5,86.8z"/>
		</g>
	</g>
</g>
</svg>
