<svg xmlns="http://www.w3.org/2000/svg" viewBox="0 0 32.21 32"><defs><style>.cls-1{fill:#fedfe1;}</style></defs><title>資產 2</title><g id="圖層_2" data-name="圖層 2"><g id="圖層_1-2" data-name="圖層 1"><path class="cls-1" d="M15.41,0h1.23a2.49,2.49,0,0,0,.47,0c.34,0,.68.06,1,.09S19,.25,19.4.34a15.11,15.11,0,0,1,2.71.82,16,16,0,0,1,6.28,4.55A15.85,15.85,0,0,1,32,13.36a15.65,15.65,0,0,1,.2,1.81c0,.2,0,.41.05.61v1.09s0,.06,0,.1a15.54,15.54,0,0,1-.31,2.43,16,16,0,0,1-3.33,6.93,16.16,16.16,0,0,1-5.2,4.16A16.41,16.41,0,0,1,18.76,32c-.07,0-.14,0-.14-.1v-11c0-.1,0-.12.12-.12h3.54s.1,0,.11-.08l.33-2.14c.12-.77.23-1.53.35-2.29,0-.15,0-.16-.12-.16-1.39,0-2.77,0-4.16,0-.2,0-.17,0-.17-.16V13.18a3.78,3.78,0,0,1,.05-.67,2.09,2.09,0,0,1,1.19-1.67,2.84,2.84,0,0,1,1.25-.27h2c.12,0,.14,0,.14-.14,0-1.23,0-2.47,0-3.7V6.67c0-.06,0-.08-.07-.08l-.65-.1c-.49-.06-1-.11-1.46-.15a13.71,13.71,0,0,0-2.22,0,6.82,6.82,0,0,0-1.6.34A5.12,5.12,0,0,0,14.8,8.42a6.24,6.24,0,0,0-1.2,3.7c0,1.28,0,2.56,0,3.84,0,.12,0,.14-.14.14H9.64c-.13,0-.15,0-.15.15v4.38c0,.11,0,.14.14.14h3.83c.1,0,.13,0,.13.12v11c0,.08,0,.11-.11.09-.44-.07-.88-.16-1.31-.27A16,16,0,0,1,4.24,27a15.53,15.53,0,0,1-2.51-3.62A16.12,16.12,0,0,1,0,17.25a16.49,16.49,0,0,1,.13-3.58,16.25,16.25,0,0,1,1.21-4.1A16.1,16.1,0,0,1,15.34,0S15.39,0,15.41,0Z"/></g></g></svg>