<svg xmlns="http://www.w3.org/2000/svg" viewBox="0 0 68.89 56.88"><defs><style>.cls-1{font-size:18.3px;font-family:Copperplate-Bold, Copperplate;font-weight:700;letter-spacing:-0.05em;}.cls-1,.cls-2{fill:#f4a7b9;}</style></defs><title>資產 5</title><g id="圖層_2" data-name="圖層 2"><g id="圖層_1-2" data-name="圖層 1"><text class="cls-1" transform="translate(0 51.61)">Paradis</text><path class="cls-2" d="M41.91,31.21a3.46,3.46,0,0,1-1.54-.4,3.57,3.57,0,0,0-2.69-.15,7.05,7.05,0,0,1-5.4-.48,3,3,0,0,1-.91-.64c-.63-.68-.51-1.34.34-1.7a6.8,6.8,0,0,1,2.23-.48c1-.07,2.1-.08,3.14-.2a17.74,17.74,0,0,0,4.77-1.64,15.3,15.3,0,0,1,2.87-.94,4.22,4.22,0,0,1,.61-.07c.23,0,.48,0,.59.24s-.06.44-.2.61a1.81,1.81,0,0,1-.28.33A3.75,3.75,0,0,0,44.09,29,2,2,0,0,1,41.91,31.21Z"/><path class="cls-2" d="M22.14,36.23a5.45,5.45,0,0,1,.25-2.94,4.75,4.75,0,0,0-.06-3.77A3.79,3.79,0,0,1,22,28.14a2.06,2.06,0,0,1,2.13-2.28,5.17,5.17,0,0,1,1.95.23c.44.16.64.4.45.88s-.43,1.24-.67,1.92a1.46,1.46,0,0,0,.79-.51c.56-.51,1.16-.91,1.94-.55a2,2,0,0,1,1.08,1.88,4.68,4.68,0,0,1-1.86,4A7.45,7.45,0,0,0,26.47,35a.79.79,0,0,1-1.08.31,2.17,2.17,0,0,0-2.62.4Z"/><path class="cls-2" d="M42.61,18.46a8.71,8.71,0,0,0,.25-5,5.26,5.26,0,0,0-4.94-4.52,9.44,9.44,0,0,0-8.51,3,2.85,2.85,0,0,0-.31.38c-.28-.25-.37-.47-.18-.75a41.21,41.21,0,0,1,2.76-4.17,5.1,5.1,0,0,1,4.73-2A10.67,10.67,0,0,1,40,6.08a2.39,2.39,0,0,1,.67.43,12,12,0,0,1,3.68,5.87,7.58,7.58,0,0,1-1.08,5.21C43.14,17.89,43.08,18.29,42.61,18.46Z"/><path class="cls-2" d="M41.21,17.67a9.72,9.72,0,0,1-2.16,4.16,3.93,3.93,0,0,1-2.59,1,7.26,7.26,0,0,1-5.55-1.54c-.35-.27-.8-.64-.56-1.13s.78-.21,1.17-.11a5.07,5.07,0,0,0,2.26,0c1.17-.23,2.34-.49,3.5-.73a9.7,9.7,0,0,0,3.46-1.45C40.86,17.77,41,17.61,41.21,17.67Z"/><path class="cls-2" d="M33.46,0a.93.93,0,0,1,1,1.33,16.43,16.43,0,0,1-1.39,2.25.2.2,0,0,1-.31.07A11.42,11.42,0,0,0,30,2.79a1.84,1.84,0,0,1-1-.61c-.33-.42-.25-.77.24-1a1.43,1.43,0,0,1,.6-.12A3.9,3.9,0,0,0,32.41.37,2.08,2.08,0,0,1,33.46,0Z"/><path class="cls-2" d="M16.49,16a7,7,0,0,0,.28-1.88c0-.24.2-.14.31-.05a2.85,2.85,0,0,1,.6.85,1.67,1.67,0,0,0,2,1,.79.79,0,0,1,1,1,16.75,16.75,0,0,1-.5,1.71.49.49,0,0,1-.74.31A10.81,10.81,0,0,1,17,17.31,1.6,1.6,0,0,1,16.49,16Z"/><path class="cls-2" d="M32.21,11.39a3.12,3.12,0,0,0-.87,2.69.59.59,0,0,0,.44.66.74.74,0,0,0,.87-.4A3,3,0,0,0,33,13h0l.06-.15c.17-1.35,1.45-1.6,2.41-2.33A3.74,3.74,0,0,0,32.21,11.39Z"/><path class="cls-2" d="M35.93,13.2a2.22,2.22,0,0,0-.7.07c-.13,0-.26,0-.33-.13a.3.3,0,0,1,.08-.37,1.54,1.54,0,0,1,1.28-.26.4.4,0,0,1,.25.43c0,.2-.18.25-.35.26A1.74,1.74,0,0,1,35.93,13.2Z"/><path class="cls-2" d="M40.72,12.75a3.59,3.59,0,0,0-3.55-1.25,6.66,6.66,0,0,1,2,2.48,7.6,7.6,0,0,1,.37,1.62c0,.14,0,.31.19.36s.32-.06.43-.18a2.79,2.79,0,0,0,.7-1.55A1.75,1.75,0,0,0,40.72,12.75Z"/><path class="cls-2" d="M51.76,17.12c0-.13-.09-.27-.13-.41a2.89,2.89,0,0,0-.35-.88,8.77,8.77,0,0,0-1.11-2,1.87,1.87,0,0,1-.25-1.71,2.09,2.09,0,0,0-.41-2.19A11.8,11.8,0,0,0,46.12,7a4.43,4.43,0,0,0-2.79-.61A5.13,5.13,0,0,1,45.2,8.2a6.61,6.61,0,0,1,.68,4.25,3.34,3.34,0,0,0,.57,2.85A4.45,4.45,0,0,1,47.2,17a7.43,7.43,0,0,1-.29,4.54l-1,1.67.09.09a4.69,4.69,0,0,0,1.63-1.23,3.17,3.17,0,0,0,1-1.47c.21-.53.38-1.08.62-1.59a2.16,2.16,0,0,1,2.17-1.34C51.88,17.69,51.89,17.5,51.76,17.12Z"/><path class="cls-2" d="M37.69,14.34a.55.55,0,0,0-.74,0,5.5,5.5,0,0,1-2.26.91c-.3.09-.76.09-.73.48s.47.49.85.48A4.49,4.49,0,0,0,37,15.93a1.34,1.34,0,0,0,.87-.74A.72.72,0,0,0,37.69,14.34Z"/><path class="cls-2" d="M42.62,2.34a2.35,2.35,0,0,0-.76-.6C41.1,1,40.31.4,39.18,1a9.09,9.09,0,0,1-2.39.8,1.4,1.4,0,0,0-.74.23,1.56,1.56,0,0,0-1.13,1c-.23.58-.11.75.5.75l.74,0c2,0,4.05-.12,5.92.89a1.79,1.79,0,0,0,.89.2c.25,0,.42-.11.4-.36A2.89,2.89,0,0,0,42.62,2.34Z"/><path class="cls-2" d="M45.48,18.18c-.09-.37-.12-.95-.5-1s-.39.58-.55.92l-.33.68-.34.58a11.79,11.79,0,0,1-4.69,4.88c-.26.12-.71.24-.62.56s.62.3,1,.28A2,2,0,0,0,40,25a7.68,7.68,0,0,1,2.18-.38,3.81,3.81,0,0,0,2.19-.75.74.74,0,0,0,.43-.72,7.24,7.24,0,0,1,.51-1.76A5.16,5.16,0,0,0,45.48,18.18Z"/><path class="cls-2" d="M35.57,17.9a6.49,6.49,0,0,1-3.46-.4L31,16.61l-.61-.89a5.64,5.64,0,0,0-.4-.67c-.27-.34-.41-1-.88-.89s-.45.74-.53,1.2l0,.36c.11.08.11.17,0,.25l0,.25c.13.15.08.33.07.5.06,1.27.19,1.4,1.43,1.42a.73.73,0,0,1,.64.31c.14.2.24.44.51.5a2,2,0,0,0,1.52.34c1.82.09,3.49-.56,3.72-1.49Z"/><path class="cls-2" d="M46,23.29c0,.11-.11.16-.22.08l.13-.17Z"/><path class="cls-2" d="M33,13l.06-.15Z"/><path class="cls-2" d="M25.78,18.35a.47.47,0,0,0-.05.1A.47.47,0,0,1,25.78,18.35Z"/><path class="cls-2" d="M30.35,4.59a.46.46,0,0,0-.37.1c-.53-.05-1,.24-1.6-.06a8.11,8.11,0,0,0-2.14-.75A2.42,2.42,0,0,0,23.15,6.1a2.72,2.72,0,0,1-.7,1.62,3.84,3.84,0,0,0-.73,5l.09.16c.11,1,.19,1.91,1.22,2.38a7.38,7.38,0,0,1,1.31,1.54l1.19,2a.27.27,0,0,0,.1-.13.27.27,0,0,1-.1.13,2.88,2.88,0,0,0,.62,1c.29.38.6.79,1.16.58s.48-.75.45-1.22a2.47,2.47,0,0,0-.13-.6c-.37-1.06-.75-2.12-1.13-3.17l-.37-1.62v-.37l-.05-.52a1,1,0,0,0,0-.58l.05-.39v-.12a6.1,6.1,0,0,1,2-3.46,20.39,20.39,0,0,1,3-2.08,14.13,14.13,0,0,0,2.15-1.47A3.33,3.33,0,0,0,30.35,4.59ZM25.73,18.45a.47.47,0,0,1,.05-.1A.47.47,0,0,0,25.73,18.45Z"/><path class="cls-2" d="M28.61,16.72c0-.17.06-.35-.07-.5A.71.71,0,0,0,28.61,16.72Z"/><path class="cls-2" d="M28.52,15.72V16C28.63,15.89,28.63,15.8,28.52,15.72Z"/><path class="cls-2" d="M34.54,24.58a2.93,2.93,0,0,1-2.15-.35A27.69,27.69,0,0,0,26.91,22a5.17,5.17,0,0,1-3.58-3.83,3.79,3.79,0,0,0-.37-1c-.13-.21-.24-.46-.54-.45s-.45.28-.54.53c-.27.75-.54,1.51-.76,2.28a1.21,1.21,0,0,0,.42,1.43,1.44,1.44,0,0,1,.54.66,4.56,4.56,0,0,0,3.76,3.09,3.36,3.36,0,0,1,1.89.95L28,26c.55,1.31.9,1.46,2.14.84a8.46,8.46,0,0,1,2.7-.82,7.83,7.83,0,0,0,1.28-.14,1,1,0,0,0,.82-.95C35,24.66,34.88,24.51,34.54,24.58Z"/><path class="cls-2" d="M55.49,31.31a15.12,15.12,0,0,1-1.21-3.46c-.12-.56-.41-1.11-1.05-1.12a1.22,1.22,0,0,1-1.23-1,1.24,1.24,0,0,0-.44-.76,1,1,0,0,0-.49-.5,2.2,2.2,0,0,0-1.28-.59h-.25a2.06,2.06,0,0,0-1.25.13c-.39.15-.93.28-1,.71s.37.77.76,1l2,1.61.13.13h0a2.25,2.25,0,0,0,.61.62c-.41.1-.59-.35-.93-.4A4.71,4.71,0,0,0,48.43,27c-.85-.28-1.69-.49-2.39.32a.32.32,0,0,0-.2.26c-.87,1.47-.56,2.56.93,3.19.49.21,1,.36,1.51.53a2.47,2.47,0,0,0,.78.34A6.68,6.68,0,0,1,51,33c.52.57.79.56,1.26-.06a2.53,2.53,0,0,1,1.51-1,7.17,7.17,0,0,1,2.26.29A2.9,2.9,0,0,0,55.49,31.31Z"/><path class="cls-2" d="M50,27.36l.13.13"/><path class="cls-2" d="M50.16,27.49h0"/><path class="cls-2" d="M22.32,24.69c-.92-.52-1.87,0-2.82-.11.48-.31,1-.57,1.48-.83s.56-.54.18-1a6.94,6.94,0,0,0-1.48-1.1c-.38-.25-.63-.16-.84.24-.48.88-.72,1-1.67.69a2,2,0,0,0-1.88.18l-1.65,1.49,0,0c-.2.36-.63.55-.73,1,1.52-.7,2.25-.54,3.47.77a2.06,2.06,0,0,0,2.85.57.87.87,0,0,1,1.13.12c.36.45.54.23.74-.09s.3-.5.43-.75a1.38,1.38,0,0,1,1.12-.83A.49.49,0,0,0,22.32,24.69Z"/></g></g></svg>