<svg xmlns="http://www.w3.org/2000/svg" viewBox="0 0 136.81 102.07"><defs><style>.cls-1{opacity:0.5;}.cls-2{fill:#f4a7b9;}</style></defs><title>資產 1</title><g id="圖層_2" data-name="圖層 2"><g id="圖層_1-2" data-name="圖層 1"><g class="cls-1"><path class="cls-2" d="M103.36,47.28c7.25,5.25,14.85,10.09,21.65,15.87a34.51,34.51,0,0,1,11.43,19.57,17.94,17.94,0,0,1-.09,7.65c-1,4.15-4.49,6-7.82,4.77s-4.75-4.75-3.31-8.64c1.23-3.31,3.47-4,8.77-1.9-.56-2.88-.4-5.68-1.59-7.67-9.5-15.89-23-26.44-41.62-29.25-7.88-1.19-15.44.75-22.76,4.84C72.19,58.88,78.53,61.08,84.51,63c-.72-4.19-1.46-8.42-2.2-12.73,7-.5,7.8,0,10.27,5.67.93,2.14,2.17,4.15,3.27,6.22a45.22,45.22,0,0,1-4.06-4.95c-1.51-2.43-2.91-4.76-6.11-5.07C83.16,59.51,89.56,66.94,97,65.48c.59-.12,1-1.27,1.46-2a26.7,26.7,0,0,0,5.23,1.31c6.5.31,12.51,1.87,17.36,6.43,2,1.85,3.51,4,1.72,7.77-1.22-1.44-2.38-2.27-2.79-3.37-2.24-6.11-9.77-9.54-18-5.9-5.74,2.54-9.42,7.1-9.41,13.91a31.33,31.33,0,0,1-.63,7c-1.06,4.67-4.55,7.28-8.74,6.9-4-.36-8-3.85-7.68-8.17s2-8.68,3.14-13.4C71,80,64.34,74.12,57,72.6c.16-5,5.45-8.81,16.74-11.18-2.87-1.89-5.49-3.79-8.31-5.34a3.39,3.39,0,0,0-3.08.6c-7.21,7.21-10.33,15.81-8.48,26,1,5.29,4.3,8.78,8.58,11.58,2.46,1.61,4.94,3.18,7.51,4.83-8,5.92-22,2.62-27.88-6.55C35.32,82,37,71.31,42.51,60.85,45.6,55,50.3,50.67,56.26,47.08c-6.77-9.64-9.38-20.13-6-31.57,1.45-4.85,3.61-9.4,8.25-12.71,3.22,6.83,3.64,13.8,3.27,20.86-.34,6.68-.52,13.33,1.42,19.11l27.18-.17A17.1,17.1,0,0,0,89.11,41a19.92,19.92,0,0,1-5.91-15.1,97.73,97.73,0,0,0-.82-10.61c4.34-.47,9.06,2.32,11.46,7.41a23.25,23.25,0,0,1,2,6.35,37.17,37.17,0,0,0,7.58,18.21c-4.53-3.11-6.61-7.72-8.11-12.81a62.34,62.34,0,0,0-3.9-10.33c-1-1.91-2.92-3.32-4.86-5.42C84,35.57,90.3,45.75,103.36,47.28ZM55.3,96.9C50,89,48.39,81.28,49.75,73s4-15.55,11.87-21.62c-2.39-.74-4.19-1.94-5.09-1.47-12.2,6.46-20.78,23.9-13.67,38C45.17,92.59,48.79,95.71,55.3,96.9ZM100,68c-9.75.75-19.31,8.44-21.08,16.07-1,4.44.91,8.13,4.58,8.69,3.15.48,6.12-2.38,6.29-6.75C90.11,78.59,92.63,72.52,100,68ZM63.51,50.88c-5.8-8.54-5.63-17.21-5.09-26a41.44,41.44,0,0,0-.64-8.45,29.79,29.79,0,0,0-1.61-4.91C47.05,21.43,50.66,41.85,63.51,50.88ZM89.13,68.15C80.74,62,67.27,62.74,61.25,69.6,69.64,76.22,78.82,75.79,89.13,68.15Zm44.72,19.08c-.61-.49-.9-.7-1.17-.94-1.82-1.64-4.08-2.27-5.31.08A6.59,6.59,0,0,0,127.6,92c1.4,2.24,4.17,2.1,5.68.07,1.29-1.73,1.61-4.19,2.31-6.34.08-.25-.17-.61-.37-1.25Zm-69-41.3c-.09.44-.17.88-.25,1.32.84.34,1.81,1.12,2.5.92,3-.86,6-2,8.91-3l-.12-.66Z"/><path class="cls-2" d="M42.22,39.85c1.57.62,4.13,1.53,6.58,2.68.71.33,1.1,1.35,1.63,2.06-.94.24-1.94.81-2.83.69-3.66-.51-7.27-1.66-10.93-1.78-8-.26-13.67,3.5-16.88,10.92-1.17,2.72-2.3,5.48-3.71,8.09-2.06,3.8-5.5,5.19-9,3.91C2,64.55-.63,60.74.13,56.4c.92-5.31,4.38-8.8,8.65-11.54C18.8,38.43,29.69,37.07,42.22,39.85ZM29.3,41.07c-7.74.53-14.95,2.45-20.78,7.69a12.42,12.42,0,0,0-3.95,6,6.85,6.85,0,0,0,2,5.72c1.14.93,4.08.69,5.62-.14a10.86,10.86,0,0,0,4.29-4.86C19.25,49.31,23.17,44.29,29.3,41.07Z"/><path class="cls-2" d="M114.45,73.55l-7.94,3.36c4,3.83,4.5,6.06,2.06,8.93s-6.47,3.53-9.26,1.35c-3-2.32-3.15-6.26-.27-9.48C103,73.27,108.13,72.72,114.45,73.55Zm-8.63,2.13-.75-.89c-1.75,1.6-3.78,3-5.17,4.87a4.31,4.31,0,0,0,1.73,6.55,4.66,4.66,0,0,0,6.14-2.56c1.07-3-.67-4.33-3.23-5.11-.28-.08-.49-.38-.81-.64Z"/><path class="cls-2" d="M123.21,58.78c-5-3.44-8.14-7.48-7.54-13.16a7.85,7.85,0,0,1,3.5-5.45c1.51-.77,4.8-.24,6,1,1.42,1.53,2.06,4.39,1.93,6.62-.16,2.92-2.14,3.68-7,3.5C121.06,53.67,122,55.9,123.21,58.78ZM119,48.73a11.27,11.27,0,0,1,1.29.41c2.27,1,4.62.72,5.09-1.72a6.47,6.47,0,0,0-2-5.27A3.36,3.36,0,0,0,118,43.84c-.65,2.15-.09,4.68,0,7,0,.09.32.17.65.35C118.72,50.45,118.84,49.76,119,48.73Z"/><path class="cls-2" d="M39.74,34.52c-3.91-.94-5.85-3.38-5.05-6.35s4.67-5.4,7.41-4.74c2.92.7,5.43,4.81,4.78,7.82C46.27,34.06,43.37,35.39,39.74,34.52Zm.46-.36c2.34-1.47,4.63-2.1,5.11-3.39.84-2.25-.49-4.4-3-5.13a3.38,3.38,0,0,0-4.63,2.92C37.55,30,39,31.67,40.2,34.16Z"/><path class="cls-2" d="M27.74,20.61c-2.4-.94-4.42-2.29-3.77-5.41.54-2.57,4.28-4.69,6.76-3.82,2.87,1,3.52,3.34,2.82,6C32.78,20.33,30.7,21.25,27.74,20.61ZM30.27,12c-2,1.82-4,2.78-4.11,4S27.73,18.8,29,19.29c.69.26,2.82-1.34,3.1-2.41S31.2,14.31,30.27,12Z"/><path class="cls-2" d="M23.94,4.27c-2.19,1-4,2.55-4.86,2.14-1.25-.61-2.74-2.86-2.44-4S19.24,0,20.64,0C21.59,0,22.48,2.27,23.94,4.27Z"/><path class="cls-2" d="M83.33,35.52c-1.1,3.66-2.91,4.38-5.25,3.82-2.19-.54-4-1.68-3.58-4.35.3-2,4-4.36,5.85-3.3C81.83,32.53,82.64,34.57,83.33,35.52Zm-2.59-3.37c-1.85,1.28-3.34,1.85-3.95,2.93-.29.51.95,2.69,1.72,2.82a4,4,0,0,0,3.33-1.5C82.26,35.69,81.32,34.16,80.74,32.15Z"/><path class="cls-2" d="M73.68,28.23l-3.87-2.81c1.24-1.11,2.32-2.66,3.77-3.15.83-.29,3.07,1,3.25,1.82.47,2.25-.55,4.08-3.27,4.21.61-.59,1.42-1.08,1.76-1.79s.46-2,.11-2.25a3.43,3.43,0,0,0-2.63-.45c-.62.18-1.55,1.47-1.39,1.78A14.38,14.38,0,0,0,73.68,28.23Z"/><path class="cls-2" d="M73.2,16.07c-2,.71-3.12,1.48-4.22,1.39-.57-.05-1-1.62-1.52-2.51a11.27,11.27,0,0,1,3.34-1.54C71.32,13.35,72,14.69,73.2,16.07Z"/></g></g></g></svg>