<svg xmlns="http://www.w3.org/2000/svg" viewBox="0 0 32.05 26.06"><defs><style>.cls-1{fill:#fedfe1;}</style></defs><title>資產 4</title><g id="圖層_2" data-name="圖層 2"><g id="圖層_1-2" data-name="圖層 1"><path class="cls-1" d="M11.21,26.06H9a2.68,2.68,0,0,0-.49,0,12.37,12.37,0,0,1-2.27-.29,19.28,19.28,0,0,1-2.14-.58A18,18,0,0,1,1.3,24a4.1,4.1,0,0,1-.54-.3,4.72,4.72,0,0,0-.53-.33l-.17-.12a.09.09,0,0,1-.06-.1s.06,0,.1,0l.63,0,.17,0c.57,0,1.13,0,1.7,0a12.86,12.86,0,0,0,1.86-.29,12.91,12.91,0,0,0,3.35-1.26,12.85,12.85,0,0,0,1.61-1s.06,0,.06-.07A1.91,1.91,0,0,0,9,20.41,6.67,6.67,0,0,1,4,17,6.52,6.52,0,0,1,3.58,16c-.08-.21,0-.27.2-.24a6,6,0,0,0,1,.08,6,6,0,0,0,.74,0c.25,0,.49-.08.71-.12A6.72,6.72,0,0,1,2,12.49,6.5,6.5,0,0,1,1.2,9.37c0-.22.06-.25.26-.15a6.68,6.68,0,0,0,2.1.66L4,9.94a.84.84,0,0,0-.21-.18A6.55,6.55,0,0,1,2.12,7.81a6.21,6.21,0,0,1-.8-2.33,6.58,6.58,0,0,1,.34-3.26,9,9,0,0,1,.41-.89c.09-.15.16-.17.27,0,.45.53.93,1,1.43,1.53a18.32,18.32,0,0,0,2.32,1.9A18.84,18.84,0,0,0,8.77,6.28c.52.25,1.06.47,1.6.67a18.1,18.1,0,0,0,3,.8c.57.11,1.15.18,1.73.24.16,0,.33,0,.49,0s.13,0,.11-.11a8,8,0,0,1-.13-1.08,5,5,0,0,1,0-.86,6.28,6.28,0,0,1,.29-1.42,7,7,0,0,1,.64-1.39,6.25,6.25,0,0,1,1.07-1.33A6.46,6.46,0,0,1,21.05.06a7.5,7.5,0,0,1,1.57,0,6.36,6.36,0,0,1,.87.06,6.58,6.58,0,0,1,2.82,1.31,4.53,4.53,0,0,1,.57.51A.29.29,0,0,0,27.2,2a13.31,13.31,0,0,0,1.93-.57A12.43,12.43,0,0,0,31,.54c.06,0,.13-.07.19,0s0,.13,0,.19a6.47,6.47,0,0,1-.79,1.55,6.26,6.26,0,0,1-.77.92,5.44,5.44,0,0,1-1.07.87c.35-.07.72-.13,1.08-.21a13.3,13.3,0,0,0,2.22-.7h0c.06,0,.12-.07.17,0s0,.12,0,.18-.26.36-.39.54a12.68,12.68,0,0,1-1.43,1.59,11.77,11.77,0,0,1-1.21,1,.31.31,0,0,0-.13.27c0,.15,0,.31,0,.46A19.37,19.37,0,0,1,28.25,12,19.49,19.49,0,0,1,27,15.4a19,19,0,0,1-1.39,2.49A18.2,18.2,0,0,1,24,20c-.37.42-.76.82-1.16,1.2a19.07,19.07,0,0,1-1.92,1.57,16.86,16.86,0,0,1-2.69,1.57,18.56,18.56,0,0,1-2.92,1.08,20.1,20.1,0,0,1-2.43.49,9.81,9.81,0,0,1-1.09.09C11.6,26.05,11.4,26,11.21,26.06Z"/></g></g></svg>