<svg xmlns="http://www.w3.org/2000/svg" viewBox="0 0 33.99 33.99"><defs><style>.cls-1{fill:#fedfe1;}</style></defs><title>資產 3</title><g id="圖層_2" data-name="圖層 2"><g id="圖層_1-2" data-name="圖層 1"><path class="cls-1" d="M20.85,34H13.07c-.77,0-1.53,0-2.29-.06s-1.42-.07-2.12-.14a10.1,10.1,0,0,1-2.92-.73,8.54,8.54,0,0,1-4.55-4.24,10.64,10.64,0,0,1-1-3.92c-.07-1-.1-2-.14-3,0-.7,0-1.4,0-2.1,0-2.64,0-5.28,0-7.92,0-.9.06-1.8.12-2.7A11.43,11.43,0,0,1,.71,6.37,8.7,8.7,0,0,1,3.83,2,9.3,9.3,0,0,1,7.38.43,12,12,0,0,1,9.7.12C11,.07,12.25,0,13.52,0c.67,0,1.33,0,2,0l5.61,0c.72,0,1.45,0,2.17.06s1.37.07,2.05.14a10,10,0,0,1,3,.76A8.53,8.53,0,0,1,33,5.63a11.26,11.26,0,0,1,.86,3.91c.06,1.18.08,2.36.11,3.53a.29.29,0,0,0,0,.09v7.68a.19.19,0,0,0,0,.07c0,.76,0,1.53,0,2.29s-.08,1.43-.15,2.13a10.48,10.48,0,0,1-.7,2.87,8.57,8.57,0,0,1-4.55,4.74,11.27,11.27,0,0,1-4.08.92c-1.17.06-2.34.08-3.51.12ZM3.07,17h0c0,1.48,0,3,0,4.44,0,1,.06,1.93.1,2.89a10.32,10.32,0,0,0,.32,2,5.84,5.84,0,0,0,1.91,3,6,6,0,0,0,2.32,1.15,10.77,10.77,0,0,0,2.52.34c1,0,2,.07,2.92.09h1.66c2.15,0,4.3,0,6.44,0,1,0,2,0,3-.1a8.89,8.89,0,0,0,2.28-.41,5.72,5.72,0,0,0,2.3-1.33,5.89,5.89,0,0,0,1.49-2.43,9.92,9.92,0,0,0,.43-2.47c.07-1.27.1-2.54.1-3.81,0-.4,0-.8,0-1.2,0-2,0-4,0-6.06,0-.58,0-1.17,0-1.76,0-.74-.07-1.48-.13-2.22A7.66,7.66,0,0,0,30.22,7a5.48,5.48,0,0,0-2.94-3.09,7.89,7.89,0,0,0-2.86-.65c-1.05-.07-2.09-.09-3.13-.12-.52,0-1,0-1.54,0l-8,0a25.59,25.59,0,0,0-2.63.14,8,8,0,0,0-2,.48A5.51,5.51,0,0,0,3.75,7,8.85,8.85,0,0,0,3.18,9.8c-.05,1.24-.09,2.47-.11,3.71S3.07,15.83,3.07,17Z"/><path class="cls-1" d="M17,8.27a8.73,8.73,0,1,1-8.73,8.55A8.73,8.73,0,0,1,17,8.27ZM11.33,17a5.66,5.66,0,1,0,5.75-5.66A5.67,5.67,0,0,0,11.33,17Z"/><path class="cls-1" d="M28.1,7.93a2,2,0,1,1-2-2A2,2,0,0,1,28.1,7.93Z"/></g></g></svg>