<?xml version="1.0" encoding="utf-8"?>
<!-- Generator: Adobe Illustrator 24.1.2, SVG Export Plug-In . SVG Version: 6.00 Build 0)  -->
<svg version="1.1" id="圖層_1" xmlns="http://www.w3.org/2000/svg" xmlns:xlink="http://www.w3.org/1999/xlink" x="0px" y="0px"
	 viewBox="0 0 1469.1 874.2" style="enable-background:new 0 0 1469.1 874.2;" xml:space="preserve">
<style type="text/css">
	.st0{fill-rule:evenodd;clip-rule:evenodd;fill:#FFFFFF;}
	.st1{fill-rule:evenodd;clip-rule:evenodd;}
</style>
<g>
	<path class="st0" d="M152.7-206h1286.1v1286.1H152.7V-206z"/>
	<path class="st1" d="M524.3,467.5c6,1,10-1,13-3v-1c-2,1-4,2-8,2c-12,1-10-16.9-11-31.9c0-30.9-16.9-35.9-27.9-36.9c0,0,5-1,11-3
		c9-3,18.9-11,18.9-27.9c0-15.9-10-28.9-30.9-28.9h-46.8v1h11v127.5h-11v1h35.9v-1h-9v-67.8h11c19.9,0,19.9,16.9,20.9,34.9
		C502.4,450.6,507.4,465.5,524.3,467.5L524.3,467.5z M469.5,338h12c14.9-1,22.9,11,21.9,26.9c0,6-1,32.9-24.9,31.9h-9L469.5,338
		L469.5,338L469.5,338z M1039.4,467.5c6,1,10-1,13-3l-1-1c-1,1-3,2-7,2c-12,1-10-16.9-11-31.9c0-30.9-16.9-35.9-27.9-36.9
		c0,0,5-1,10-3c10-3,19.9-11,19.9-27.9c0-15.9-10-28.9-30.9-28.9h-47.8v1h12v127.5h-12v1h36.9v-1h-9v-67.8h11
		c19.9,0,19.9,16.9,20.9,34.9C1017.4,450.6,1022.4,465.5,1039.4,467.5L1039.4,467.5z M984.6,338h12c14.9-1,22.9,11,21.9,26.9
		c0,6-1,32.9-25.9,31.9h-8L984.6,338L984.6,338z M327,399.8c0,36.9,24.9,69.7,55.8,69.7c29.9,0,55.8-34.9,55.8-69.7
		c0-35.9-23.9-65.7-55.8-66.8C353.9,333,327,363.9,327,399.8L327,399.8z M345,399.8c0-25.9,4-65.7,37.9-65.7
		c32.9,0,36.9,39.9,36.9,65.7c1,22.9-4,68.7-36.9,68.7C352.9,468.5,345,429.6,345,399.8L345,399.8z M677.7,399.8
		c0,36.9,24.9,69.7,55.8,69.7c30.9,0,55.8-34.9,55.8-69.7c0-35.9-23.9-65.7-55.8-66.8C705.6,333,677.7,363.9,677.7,399.8
		L677.7,399.8z M695.7,399.8c1-25.9,5-65.7,37.9-65.7c33.9,0,37.9,39.9,37.9,65.7c0,22.9-4,68.7-37.9,68.7
		C703.6,468.5,695.7,429.6,695.7,399.8L695.7,399.8z M270.2,467.5v-53.8h10v-1h-36.9v1h11v29.9c0,12.9-14.9,23.9-26.9,23.9
		c-30.9,0-36.9-38.9-36.9-68.7c0-13.9,0-64.8,37.9-64.8c24.9,0,35.9,35.9,35.9,35.9V334c-2,4-6,6-10,6c-9,0-11-7-25.9-6
		c-27.9,0-55.8,27.9-56.8,64.8c0,49.8,37.9,70.7,55.8,70.7c14,0,20.9-8,25.9-11C260.3,456.5,270.2,467.5,270.2,467.5L270.2,467.5z"
		/>
	<path class="st1" d="M624.9,467.5v-53.8h10v-1H598v1h11v29.9c0,13.9-13.9,23.9-26.9,23.9c-30.9,0-36.9-37.9-36.9-67.7
		c0-14.9,0-64.8,37.9-64.8c25.9,0,35.9,35.9,35.9,35.9V334c-2,5-6,6-10,6c-9,0-11-6-25.9-6c-28.9-1-55.8,27.9-55.8,65.7
		c-1,49.8,36.9,69.7,54.8,69.7c13.9,0,20.9-8,26.9-10C615.9,456.5,624.9,467.5,624.9,467.5L624.9,467.5z M1245.6,422.7h-40.8
		l20.9-62.8L1245.6,422.7L1245.6,422.7z M1304.4,466.5v-1h-11V345l78.7,123.5h1V338h10v-1h-22.9v1h12v98.6L1308.3,336l-27.9,1v1h12
		v127.5h-16L1233.6,334h-1l-44.8,131.5h-21.9V338h13v-1h-26.9l-34.9,103.6L1080.2,337h-25.9v1h11v127.5h-11v1h24.9v-1h-12V350.9
		l41.8,116.6h1l38.8-117.6v115.6h-11v1h63.8v-1h-12l14-41.8h42.8l13,41.8h-14.9v1L1304.4,466.5L1304.4,466.5L1304.4,466.5z
		 M909.8,422.7H868l21.9-62.8L909.8,422.7z M957.7,465.5h-15.9L897.9,334h-1l-44.8,131.5h-12v1H866v-1h-12l13.9-41.8h42.8l13.9,41.8
		h-15.9v1h48.8L957.7,465.5L957.7,465.5z M1394,465.5h-11v1h36.9v-1h-11V338h11v-1h-36.9v1h11V465.5z M647.8,465.5h-11v1h36.9v-1
		h-10V338h10v-1h-36.9v1h11V465.5z M294.2,465.5h-11v1h36.9v-1h-10V338h10v-1h-36.9v1h11V465.5z M663.8,496.4h15.9c6,0,14,0,14,11
		c0,10-7,12-13,12h-6v18.9h5v1h-14.9v-1h4v-40.8h-5V496.4L663.8,496.4z M679.7,517.3c5,0,8-4,8-10c0-5-2-10-8-10h-5v19.9H679.7z
		 M692.7,539.2v-1h5l14.9-43.8l16.9,43.8h4v1h-14.9v-1h4l-4-12h-14.9l-5,12h4v1H692.7z M703.6,525.3h13.9l-7-19.9L703.6,525.3z
		 M746.5,538.2h4v1h-14v-1h3v-40.8h-4v-1h16.9c5,0,11,2,11,10c0,6-5,9-9,10c6,1,9,5,9,10v9c0,6,5,4,6,3l1,1c-3,1-5,1-7,1
		c-4-1-6-5-6-10c0-5,0-9-2-10.9c-1-2-3-2-6-2h-3L746.5,538.2L746.5,538.2L746.5,538.2z M746.5,516.3h4c4-1,7-5,7-9c0-8-3-10-7-10h-4
		V516.3z M779.3,497.4h-4v-1h30.9v13h-1c-1-4-2-9-6-11c-1-1-5-1-7-1h-7v19.9c9,0,13-1,13-9h1v18.9h-1c0-9-4-9-13-9v19.9h3v1h-13v-1
		h4L779.3,497.4L779.3,497.4z M848.1,496.4v1h-4v26.9c0,9-4,15.9-13,15.9c-16.9,0-15.9-12-15.9-15.9v-26.9h-4v-1h14v1h-4v29.9
		c0,7,2,12,10,12c7,0,11-7,11-13v-28.9h-4v-1L848.1,496.4L848.1,496.4L848.1,496.4z M891.9,538.2h4v1H881v-1h4v-35.9l-14,37.9
		L857,502.4v35.9h4v1h-10v-1h4v-40.8h-4v-1h10l13,32.9l12-32.9h10v1h-4L891.9,538.2L891.9,538.2z M902.9,540.2h-1v-13.9h1
		c1,7,6,13.9,13.9,13.9c6,0,9-5,9-10c0-6-5-9-9-10c-7-2-13.9-5-13.9-13c0-7,5-12,13-12c4,0,5,0,9,3l2-3h1v13h-1c-1-6-4-12-10.9-12
		c-5,0-8,3-8,8c0,7,7,8,11,10c7,2,12,5,13,12c1,9-6,14.9-14.9,14.9c-4,0-8-2-11-4L902.9,540.2L902.9,540.2z"/>
</g>
</svg>
