<?xml version="1.0" encoding="utf-8"?>
<!-- Generator: Adobe Illustrator 24.1.2, SVG Export Plug-In . SVG Version: 6.00 Build 0)  -->
<svg version="1.1" id="圖層_1" xmlns="http://www.w3.org/2000/svg" xmlns:xlink="http://www.w3.org/1999/xlink" x="0px" y="0px"
	 viewBox="0 0 1286.1 284.7" style="enable-background:new 0 0 1286.1 284.7;" xml:space="preserve">
<style type="text/css">
	.st0{fill-rule:evenodd;clip-rule:evenodd;fill:#FFFFFF;}
	.st1{fill-rule:evenodd;clip-rule:evenodd;}
</style>
<path class="st0" d="M331.9-867.7H1618V418.4H331.9V-867.7z"/>
<path class="st1" d="M366.5,187.1c6,1,10-1,13-3v-1c-2,1-4,2-8,2c-12,1-10-16.9-11-31.9c0-30.9-16.9-35.9-27.9-36.9c0,0,5-1,11-3
	c9-3,18.9-11,18.9-27.9c0-15.9-10-28.9-30.9-28.9h-46.8v1h11V185h-11v1h35.9v-1h-9v-67.8h11c19.9,0,19.9,16.9,20.9,34.9
	C344.6,170.2,349.6,185.1,366.5,187.1L366.5,187.1z M311.7,57.6h12c14.9-1,22.9,11,21.9,26.9c0,6-1,32.9-24.9,31.9h-9V57.6
	L311.7,57.6L311.7,57.6z M881.6,187.1c6,1,10-1,13-3l-1-1c-1,1-3,2-7,2c-12,1-10-16.9-11-31.9c0-30.9-16.9-35.9-27.9-36.9
	c0,0,5-1,10-3c10-3,19.9-11,19.9-27.9c0-15.9-10-28.9-30.9-28.9h-47.8v1h12V185h-12v1h36.9v-1h-9v-67.8h11
	c19.9,0,19.9,16.9,20.9,34.9C859.6,170.2,864.6,185.1,881.6,187.1L881.6,187.1z M826.8,57.6h12c14.9-1,22.9,11,21.9,26.9
	c0,6-1,32.9-25.9,31.9h-8V57.6L826.8,57.6z M169.2,119.4c0,36.9,24.9,69.7,55.8,69.7c29.9,0,55.8-34.9,55.8-69.7
	c0-35.9-23.9-65.7-55.8-66.8C196.1,52.6,169.2,83.5,169.2,119.4L169.2,119.4z M187.2,119.4c0-25.9,4-65.7,37.9-65.7
	c32.9,0,36.9,39.9,36.9,65.7c1,22.9-4,68.7-36.9,68.7C195.1,188.1,187.2,149.2,187.2,119.4L187.2,119.4z M519.9,119.4
	c0,36.9,24.9,69.7,55.8,69.7c30.9,0,55.8-34.9,55.8-69.7c0-35.9-23.9-65.7-55.8-66.8C547.8,52.6,519.9,83.5,519.9,119.4L519.9,119.4
	z M537.9,119.4c1-25.9,5-65.7,37.9-65.7c33.9,0,37.9,39.9,37.9,65.7c0,22.9-4,68.7-37.9,68.7C545.8,188.1,537.9,149.2,537.9,119.4
	L537.9,119.4z M112.4,187.1v-53.8h10v-1H85.5v1h11v29.9c0,12.9-14.9,23.9-26.9,23.9c-30.9,0-36.9-38.9-36.9-68.7
	c0-13.9,0-64.8,37.9-64.8c24.9,0,35.9,35.9,35.9,35.9V53.6c-2,4-6,6-10,6c-9,0-11-7-25.9-6c-27.9,0-55.8,27.9-56.8,64.8
	c0,49.8,37.9,70.7,55.8,70.7c14,0,20.9-8,25.9-11C102.5,176.1,112.4,187.1,112.4,187.1L112.4,187.1z"/>
<path class="st1" d="M467.1,187.1v-53.8h10v-1h-36.9v1h11v29.9c0,13.9-13.9,23.9-26.9,23.9c-30.9,0-36.9-37.9-36.9-67.7
	c0-14.9,0-64.8,37.9-64.8c25.9,0,35.9,35.9,35.9,35.9V53.6c-2,5-6,6-10,6c-9,0-11-6-25.9-6c-28.9-1-55.8,27.9-55.8,65.7
	c-1,49.8,36.9,69.7,54.8,69.7c13.9,0,20.9-8,26.9-10C458.1,176.1,467.1,187.1,467.1,187.1L467.1,187.1z M1087.8,142.3H1047
	l20.9-62.8L1087.8,142.3L1087.8,142.3z M1146.6,186.1v-1h-11V64.6l78.7,123.5h1V57.6h10v-1h-22.9v1h12v98.6l-63.9-100.6l-27.9,1v1
	h12v127.5h-16l-42.8-131.5h-1L1030,185.1h-21.9V57.6h13v-1h-26.9l-34.9,103.6L922.4,56.6h-25.9v1h11v127.5h-11v1h24.9v-1h-12V70.5
	l41.8,116.6h1L991,69.5v115.6h-11v1h63.8v-1h-12l14-41.8h42.8l13,41.8h-14.9v1H1146.6L1146.6,186.1L1146.6,186.1z M752,142.3h-41.8
	l21.9-62.8L752,142.3z M799.9,185.1H784L740.1,53.6h-1l-44.8,131.5h-12v1h25.9v-1h-12l13.9-41.8h42.8l13.9,41.8h-15.9v1h48.8
	L799.9,185.1L799.9,185.1z M1236.2,185.1h-11v1h36.9v-1h-11V57.6h11v-1h-36.9v1h11V185.1z M490,185.1h-11v1h36.9v-1h-10V57.6h10v-1
	H479v1h11V185.1z M136.4,185.1h-11v1h36.9v-1h-10V57.6h10v-1h-36.9v1h11V185.1z M506,216h15.9c6,0,14,0,14,11c0,10-7,12-13,12h-6
	v18.9h5v1H507v-1h4v-40.8h-5V216L506,216z M521.9,236.9c5,0,8-4,8-10c0-5-2-10-8-10h-5v19.9L521.9,236.9L521.9,236.9z M534.9,258.8
	v-1h5l14.9-43.8l16.9,43.8h4v1h-14.9v-1h4l-4-12h-14.9l-5,12h4v1H534.9z M545.8,244.9h13.9l-7-19.9L545.8,244.9z M588.7,257.8h4v1
	h-14v-1h3V217h-4v-1h16.9c5,0,11,2,11,10c0,6-5,9-9,10c6,1,9,5,9,10v9c0,6,5,4,6,3l1,1c-3,1-5,1-7,1c-4-1-6-5-6-10s0-9-2-10.9
	c-1-2-3-2-6-2h-3L588.7,257.8L588.7,257.8L588.7,257.8z M588.7,235.9h4c4-1,7-5,7-9c0-8-3-10-7-10h-4V235.9z M621.5,217h-4v-1h30.9
	v13h-1c-1-4-2-9-6-11c-1-1-5-1-7-1h-7v19.9c9,0,13-1,13-9h1v18.9h-1c0-9-4-9-13-9v19.9h3v1h-13v-1h4L621.5,217L621.5,217z
	 M690.3,216v1h-4v26.9c0,9-4,15.9-13,15.9c-16.9,0-15.9-12-15.9-15.9V217h-4v-1h14v1h-4v29.9c0,7,2,12,10,12c7,0,11-7,11-13V217h-4
	v-1H690.3L690.3,216L690.3,216z M734.1,257.8h4v1h-14.9v-1h4v-35.9l-14,37.9l-14-37.8v35.9h4v1h-10v-1h4v-40.8h-4v-1h10l13,32.9
	l12-32.9h10v1h-4L734.1,257.8L734.1,257.8z M745.1,259.8h-1v-13.9h1c1,7,6,13.9,13.9,13.9c6,0,9-5,9-10c0-6-5-9-9-10
	c-7-2-13.9-5-13.9-13c0-7,5-12,13-12c4,0,5,0,9,3l2-3h1v13h-1c-1-6-4-12-10.9-12c-5,0-8,3-8,8c0,7,7,8,11,10c7,2,12,5,13,12
	c1,9-6,14.9-14.9,14.9c-4,0-8-2-11-4L745.1,259.8L745.1,259.8z"/>
</svg>
