<svg xmlns="http://www.w3.org/2000/svg" viewBox="0 0 269 7.02"><defs><style>.cls-1{opacity:0.7;}.cls-2{fill:#dcb879;}</style></defs><title>資產 4</title><g id="圖層_2" data-name="圖層 2"><g id="圖層_1-2" data-name="圖層 1"><g class="cls-1"><circle class="cls-2" cx="3.51" cy="3.51" r="3.51"/><circle class="cls-2" cx="10.53" cy="3.51" r="1.95"/><circle class="cls-2" cx="15.2" cy="3.51" r="1.95"/><circle class="cls-2" cx="19.88" cy="3.51" r="1.95"/><circle class="cls-2" cx="24.56" cy="3.51" r="1.95"/><circle class="cls-2" cx="29.24" cy="3.51" r="1.95"/><circle class="cls-2" cx="33.92" cy="3.51" r="1.95"/><circle class="cls-2" cx="38.6" cy="3.51" r="1.95"/><circle class="cls-2" cx="43.27" cy="3.51" r="1.95"/><circle class="cls-2" cx="47.95" cy="3.51" r="1.95"/><circle class="cls-2" cx="52.63" cy="3.51" r="1.95"/><circle class="cls-2" cx="57.31" cy="3.51" r="1.95"/><circle class="cls-2" cx="61.99" cy="3.51" r="1.95"/><circle class="cls-2" cx="69" cy="3.51" r="3.51"/><circle class="cls-2" cx="76.02" cy="3.51" r="1.95"/><circle class="cls-2" cx="80.7" cy="3.51" r="1.95"/><circle class="cls-2" cx="85.38" cy="3.51" r="1.95"/><circle class="cls-2" cx="90.06" cy="3.51" r="1.95"/><circle class="cls-2" cx="94.73" cy="3.51" r="1.95"/><circle class="cls-2" cx="99.41" cy="3.51" r="1.95"/><circle class="cls-2" cx="104.09" cy="3.51" r="1.95"/><circle class="cls-2" cx="108.77" cy="3.51" r="1.95"/><circle class="cls-2" cx="113.45" cy="3.51" r="1.95"/><circle class="cls-2" cx="118.13" cy="3.51" r="1.95"/><circle class="cls-2" cx="122.8" cy="3.51" r="1.95"/><circle class="cls-2" cx="127.48" cy="3.51" r="1.95"/><circle class="cls-2" cx="134.5" cy="3.51" r="3.51"/><circle class="cls-2" cx="141.52" cy="3.51" r="1.95"/><circle class="cls-2" cx="146.2" cy="3.51" r="1.95"/><circle class="cls-2" cx="150.87" cy="3.51" r="1.95"/><circle class="cls-2" cx="155.55" cy="3.51" r="1.95"/><circle class="cls-2" cx="160.23" cy="3.51" r="1.95"/><circle class="cls-2" cx="164.91" cy="3.51" r="1.95"/><circle class="cls-2" cx="169.59" cy="3.51" r="1.95"/><circle class="cls-2" cx="174.27" cy="3.51" r="1.95"/><circle class="cls-2" cx="178.94" cy="3.51" r="1.95"/><circle class="cls-2" cx="183.62" cy="3.51" r="1.95"/><circle class="cls-2" cx="188.3" cy="3.51" r="1.95"/><circle class="cls-2" cx="192.98" cy="3.51" r="1.95"/><circle class="cls-2" cx="200" cy="3.51" r="3.51"/><circle class="cls-2" cx="207.01" cy="3.51" r="1.95"/><circle class="cls-2" cx="211.69" cy="3.51" r="1.95"/><circle class="cls-2" cx="216.37" cy="3.51" r="1.95"/><circle class="cls-2" cx="221.05" cy="3.51" r="1.95"/><circle class="cls-2" cx="225.73" cy="3.51" r="1.95"/><circle class="cls-2" cx="230.4" cy="3.51" r="1.95"/><circle class="cls-2" cx="235.08" cy="3.51" r="1.95"/><circle class="cls-2" cx="239.76" cy="3.51" r="1.95"/><circle class="cls-2" cx="244.44" cy="3.51" r="1.95"/><circle class="cls-2" cx="249.12" cy="3.51" r="1.95"/><circle class="cls-2" cx="253.8" cy="3.51" r="1.95"/><circle class="cls-2" cx="258.47" cy="3.51" r="1.95"/><circle class="cls-2" cx="265.49" cy="3.51" r="3.51"/></g></g></g></svg>