<svg xmlns="http://www.w3.org/2000/svg" viewBox="0 0 681 9"><defs><style>.cls-1{opacity:0.7;}.cls-2{fill:#dcb879;}</style></defs><title>資產 3</title><g id="圖層_2" data-name="圖層 2"><g id="圖層_1-2" data-name="圖層 1"><g class="cls-1"><circle class="cls-2" cx="4.5" cy="4.5" r="4.5"/><circle class="cls-2" cx="13.5" cy="4.5" r="2.5"/><circle class="cls-2" cx="19.5" cy="4.5" r="2.5"/><circle class="cls-2" cx="25.5" cy="4.5" r="2.5"/><circle class="cls-2" cx="31.5" cy="4.5" r="2.5"/><circle class="cls-2" cx="37.5" cy="4.5" r="2.5"/><circle class="cls-2" cx="43.5" cy="4.5" r="2.5"/><circle class="cls-2" cx="49.5" cy="4.5" r="2.5"/><circle class="cls-2" cx="55.5" cy="4.5" r="2.5"/><circle class="cls-2" cx="61.5" cy="4.5" r="2.5"/><circle class="cls-2" cx="67.5" cy="4.5" r="2.5"/><circle class="cls-2" cx="73.5" cy="4.5" r="2.5"/><circle class="cls-2" cx="79.5" cy="4.5" r="2.5"/><circle class="cls-2" cx="88.5" cy="4.5" r="4.5"/><circle class="cls-2" cx="97.5" cy="4.5" r="2.5"/><circle class="cls-2" cx="103.5" cy="4.5" r="2.5"/><circle class="cls-2" cx="109.5" cy="4.5" r="2.5"/><circle class="cls-2" cx="115.5" cy="4.5" r="2.5"/><circle class="cls-2" cx="121.5" cy="4.5" r="2.5"/><circle class="cls-2" cx="127.5" cy="4.5" r="2.5"/><circle class="cls-2" cx="133.5" cy="4.5" r="2.5"/><circle class="cls-2" cx="139.5" cy="4.5" r="2.5"/><circle class="cls-2" cx="145.5" cy="4.5" r="2.5"/><circle class="cls-2" cx="151.5" cy="4.5" r="2.5"/><circle class="cls-2" cx="157.5" cy="4.5" r="2.5"/><circle class="cls-2" cx="163.5" cy="4.5" r="2.5"/><circle class="cls-2" cx="172.5" cy="4.5" r="4.5"/><circle class="cls-2" cx="181.5" cy="4.5" r="2.5"/><circle class="cls-2" cx="187.5" cy="4.5" r="2.5"/><circle class="cls-2" cx="193.5" cy="4.5" r="2.5"/><circle class="cls-2" cx="199.5" cy="4.5" r="2.5"/><circle class="cls-2" cx="205.5" cy="4.5" r="2.5"/><circle class="cls-2" cx="211.5" cy="4.5" r="2.5"/><circle class="cls-2" cx="217.5" cy="4.5" r="2.5"/><circle class="cls-2" cx="223.5" cy="4.5" r="2.5"/><circle class="cls-2" cx="229.5" cy="4.5" r="2.5"/><circle class="cls-2" cx="235.5" cy="4.5" r="2.5"/><circle class="cls-2" cx="241.5" cy="4.5" r="2.5"/><circle class="cls-2" cx="247.5" cy="4.5" r="2.5"/><circle class="cls-2" cx="256.5" cy="4.5" r="4.5"/><circle class="cls-2" cx="265.5" cy="4.5" r="2.5"/><circle class="cls-2" cx="271.5" cy="4.5" r="2.5"/><circle class="cls-2" cx="277.5" cy="4.5" r="2.5"/><circle class="cls-2" cx="283.5" cy="4.5" r="2.5"/><circle class="cls-2" cx="289.5" cy="4.5" r="2.5"/><circle class="cls-2" cx="295.5" cy="4.5" r="2.5"/><circle class="cls-2" cx="301.5" cy="4.5" r="2.5"/><circle class="cls-2" cx="307.5" cy="4.5" r="2.5"/><circle class="cls-2" cx="313.5" cy="4.5" r="2.5"/><circle class="cls-2" cx="319.5" cy="4.5" r="2.5"/><circle class="cls-2" cx="325.5" cy="4.5" r="2.5"/><circle class="cls-2" cx="331.5" cy="4.5" r="2.5"/><circle class="cls-2" cx="340.5" cy="4.5" r="4.5"/><circle class="cls-2" cx="349.5" cy="4.5" r="2.5"/><circle class="cls-2" cx="355.5" cy="4.5" r="2.5"/><circle class="cls-2" cx="361.5" cy="4.5" r="2.5"/><circle class="cls-2" cx="367.5" cy="4.5" r="2.5"/><circle class="cls-2" cx="373.5" cy="4.5" r="2.5"/><circle class="cls-2" cx="379.5" cy="4.5" r="2.5"/><circle class="cls-2" cx="385.5" cy="4.5" r="2.5"/><circle class="cls-2" cx="391.5" cy="4.5" r="2.5"/><circle class="cls-2" cx="397.5" cy="4.5" r="2.5"/><circle class="cls-2" cx="403.5" cy="4.5" r="2.5"/><circle class="cls-2" cx="409.5" cy="4.5" r="2.5"/><circle class="cls-2" cx="415.5" cy="4.5" r="2.5"/><circle class="cls-2" cx="424.5" cy="4.5" r="4.5"/><circle class="cls-2" cx="433.5" cy="4.5" r="2.5"/><circle class="cls-2" cx="439.5" cy="4.5" r="2.5"/><circle class="cls-2" cx="445.5" cy="4.5" r="2.5"/><circle class="cls-2" cx="451.5" cy="4.5" r="2.5"/><circle class="cls-2" cx="457.5" cy="4.5" r="2.5"/><circle class="cls-2" cx="463.5" cy="4.5" r="2.5"/><circle class="cls-2" cx="469.5" cy="4.5" r="2.5"/><circle class="cls-2" cx="475.5" cy="4.5" r="2.5"/><circle class="cls-2" cx="481.5" cy="4.5" r="2.5"/><circle class="cls-2" cx="487.5" cy="4.5" r="2.5"/><circle class="cls-2" cx="493.5" cy="4.5" r="2.5"/><circle class="cls-2" cx="499.5" cy="4.5" r="2.5"/><circle class="cls-2" cx="508.5" cy="4.5" r="4.5"/><circle class="cls-2" cx="517.5" cy="4.5" r="2.5"/><circle class="cls-2" cx="523.5" cy="4.5" r="2.5"/><circle class="cls-2" cx="529.5" cy="4.5" r="2.5"/><circle class="cls-2" cx="535.5" cy="4.5" r="2.5"/><circle class="cls-2" cx="541.5" cy="4.5" r="2.5"/><circle class="cls-2" cx="547.5" cy="4.5" r="2.5"/><circle class="cls-2" cx="553.5" cy="4.5" r="2.5"/><circle class="cls-2" cx="559.5" cy="4.5" r="2.5"/><circle class="cls-2" cx="565.5" cy="4.5" r="2.5"/><circle class="cls-2" cx="571.5" cy="4.5" r="2.5"/><circle class="cls-2" cx="577.5" cy="4.5" r="2.5"/><circle class="cls-2" cx="583.5" cy="4.5" r="2.5"/><circle class="cls-2" cx="592.5" cy="4.5" r="4.5"/><circle class="cls-2" cx="601.5" cy="4.5" r="2.5"/><circle class="cls-2" cx="607.5" cy="4.5" r="2.5"/><circle class="cls-2" cx="613.5" cy="4.5" r="2.5"/><circle class="cls-2" cx="619.5" cy="4.5" r="2.5"/><circle class="cls-2" cx="625.5" cy="4.5" r="2.5"/><circle class="cls-2" cx="631.5" cy="4.5" r="2.5"/><circle class="cls-2" cx="637.5" cy="4.5" r="2.5"/><circle class="cls-2" cx="643.5" cy="4.5" r="2.5"/><circle class="cls-2" cx="649.5" cy="4.5" r="2.5"/><circle class="cls-2" cx="655.5" cy="4.5" r="2.5"/><circle class="cls-2" cx="661.5" cy="4.5" r="2.5"/><circle class="cls-2" cx="667.5" cy="4.5" r="2.5"/><circle class="cls-2" cx="676.5" cy="4.5" r="4.5"/></g></g></g></svg>