<?xml version="1.0" encoding="utf-8"?>
<!-- Generator: Adobe Illustrator 24.1.2, SVG Export Plug-In . SVG Version: 6.00 Build 0)  -->
<svg version="1.1" id="圖層_1" xmlns="http://www.w3.org/2000/svg" xmlns:xlink="http://www.w3.org/1999/xlink" x="0px" y="0px"
	 viewBox="0 0 326.4 147.4" style="enable-background:new 0 0 326.4 147.4;" xml:space="preserve">
<style type="text/css">
	.st0{fill:#F4A7B9;}
	.st1{fill:none;stroke:#FFFFFF;stroke-width:2.072;stroke-miterlimit:10;}
	.st2{fill:#FFFFFF;}
	.st3{font-family:'NotoSansCJKtc-Bold-B5pc-H';}
	.st4{font-size:28.9943px;}
	.st5{letter-spacing:5;}
</style>
<g>
	<g>
		<path class="st0" d="M294,107.1V39.9c-10.1,0-18.2-8.2-18.2-18.2H51.2c0,10.1-8.2,18.2-18.2,18.2v67.2c10.1,0,18.2,8.2,18.2,18.2
			h224.6C275.8,115.3,284,107.1,294,107.1z"/>
	</g>
	<path class="st1" d="M285.8,101.6V45.4c-9.1-1.8-14.6-5.5-18.2-16.4H59.4c-3.6,10.9-9.1,14.6-18.2,16.4v56.2
		c10.9,3.6,14.6,7.3,18.2,16.4h208.2C271.2,107.1,276.7,103.4,285.8,101.6z"/>
	<g>
		<text transform="matrix(1 0 0 1 138.2619 83.3861)" class="st2 st3 st4 st5">回前頁</text>
	</g>
	<path class="st2" d="M117.9,89.3c-1,0.8-1.6,0.8-2.2-0.2c-2.5-4.5-6.6-6.8-11.4-8.1c-4.2-1.1-8.5-1.2-13-1.2c0,0.4-0.1,0.8-0.1,1.2
		c0,2.4,0,4.8,0,7.2c0,0.5-0.3,1.2-0.6,1.3c-0.4,0.2-1.1,0-1.4-0.3c-7.4-5-14.9-10-22.3-15c-0.3-0.2-0.6-0.5-0.8-0.8
		c0-0.2,0-0.5,0-0.7c0.4-0.3,0.7-0.7,1.1-1c7.2-4.9,14.5-9.8,21.7-14.6c0.5-0.3,1.3-0.5,1.8-0.4c0.3,0.1,0.5,1,0.5,1.6
		c0.1,2.2,0,4.4,0,6.6c0,0.7,0.2,1,1,1.2c6.7,1.1,13,3.1,18.4,7.4c4.1,3.3,6.6,7.6,7.1,12.9c0,0.3,0.1,0.7,0.2,1
		C117.9,88.2,117.9,88.7,117.9,89.3z"/>
</g>
</svg>
