<?xml version="1.0" encoding="utf-8"?>
<!-- Generator: Adobe Illustrator 24.0.1, SVG Export Plug-In . SVG Version: 6.00 Build 0)  -->
<svg version="1.1" id="圖層_1" xmlns="http://www.w3.org/2000/svg" xmlns:xlink="http://www.w3.org/1999/xlink" x="0px" y="0px"
	 viewBox="0 0 44.9 44.9" style="enable-background:new 0 0 44.9 44.9;" xml:space="preserve">
<style type="text/css">
	.st0{fill:#E16B8C;}
	.st1{fill:#FEDFE1;}
</style>
<title>資產 12</title>
<g id="圖層_2_1_">
	<g id="登入註冊">
		<circle class="st0" cx="21.5" cy="22.5" r="22.5"/>
		<path class="st1" d="M26.5,24.3C25,25.4,23.2,26,21.3,26h-0.2c-1.9,0-3.8-0.6-5.4-1.8c-2.6,2.2-4.1,5.5-4,8.9c0,0.1,0.6-1.1,0,0.2
			c-0.5,1.2,18.8,1.3,18.8-0.4v-0.2C30.5,29.5,29,26.4,26.5,24.3z"/>
		<path class="st1" d="M30.5,32.8L30.5,32.8C30.5,32.8,30.5,32.4,30.5,32.8z"/>
		<path class="st1" d="M21.1,23.7L21.1,23.7z"/>
		<path class="st1" d="M27.9,16.1c0-0.1,0-0.1,0-0.2s0-0.3-0.1-0.4s0-0.2-0.1-0.2c0-0.1-0.1-0.3-0.1-0.4l-0.1-0.3l-0.1-0.4
			c0-0.1-0.1-0.2-0.1-0.2s-0.1-0.2-0.2-0.3s-0.1-0.2-0.1-0.2L26.7,13l-0.2-0.2c-0.1-0.1-0.1-0.2-0.2-0.3l-0.2-0.2L25.9,12l-0.2-0.2
			l-0.3-0.2l-0.2-0.2l-0.3-0.2L24.6,11c-0.1-0.1-0.2-0.1-0.3-0.2L24,10.7c-0.1-0.1-0.2-0.1-0.3-0.1l-0.3-0.1
			c-0.1-0.1-0.2-0.1-0.3-0.1l-0.3-0.1l-0.4-0.1h-0.3l-0.4-0.1h-0.3H21c-0.5,0-0.9,0.1-1.4,0.2c-3.1,0.7-5.4,3.5-5.3,6.7
			c0,0.2,0,0.5,0,0.7v0.2c0,0.2,0,0.3,0.1,0.5l0.1,0.2c0,0.1,0.1,0.3,0.1,0.4l0.1,0.2c0,0.1,0.1,0.2,0.1,0.4l0.1,0.2l0.2,0.3
			l0.1,0.2c0.1,0.1,0.1,0.2,0.2,0.3c0.1,0.1,0.1,0.1,0.2,0.2l0.2,0.3l0.2,0.2l0.2,0.3l0.2,0.2c0.1,0.1,0.2,0.2,0.3,0.2l0.2,0.2
			l0.3,0.2l0.2,0.2l0.3,0.2h0l0.2,0.1l0.3,0.1l0.3,0.1l0.3,0.1l0.3,0.1l0.3,0.1h0.3l0.4,0h0.3h0.4c3.8-0.1,6.8-3.2,6.7-6.9
			C27.9,16.5,27.9,16.3,27.9,16.1z"/>
		<path class="st1" d="M17.9,22.9L17.9,22.9L17.9,22.9L17.9,22.9z"/>
		<path class="st1" d="M18,22.9l0.2,0.1L18,22.9z"/>
	</g>
</g>
</svg>
