<svg xmlns="http://www.w3.org/2000/svg" viewBox="0 0 269 7.02"><defs><style>.cls-1{fill:#6699a1;}</style></defs><title>資產 1</title><g id="圖層_2" data-name="圖層 2"><g id="登入註冊"><circle class="cls-1" cx="3.51" cy="3.51" r="3.51"/><circle class="cls-1" cx="10.53" cy="3.51" r="1.95"/><circle class="cls-1" cx="15.2" cy="3.51" r="1.95"/><circle class="cls-1" cx="19.88" cy="3.51" r="1.95"/><circle class="cls-1" cx="24.56" cy="3.51" r="1.95"/><circle class="cls-1" cx="29.24" cy="3.51" r="1.95"/><circle class="cls-1" cx="33.92" cy="3.51" r="1.95"/><circle class="cls-1" cx="38.6" cy="3.51" r="1.95"/><circle class="cls-1" cx="43.27" cy="3.51" r="1.95"/><circle class="cls-1" cx="47.95" cy="3.51" r="1.95"/><circle class="cls-1" cx="52.63" cy="3.51" r="1.95"/><circle class="cls-1" cx="57.31" cy="3.51" r="1.95"/><circle class="cls-1" cx="61.99" cy="3.51" r="1.95"/><circle class="cls-1" cx="69" cy="3.51" r="3.51"/><circle class="cls-1" cx="76.02" cy="3.51" r="1.95"/><circle class="cls-1" cx="80.7" cy="3.51" r="1.95"/><circle class="cls-1" cx="85.38" cy="3.51" r="1.95"/><circle class="cls-1" cx="90.06" cy="3.51" r="1.95"/><circle class="cls-1" cx="94.73" cy="3.51" r="1.95"/><circle class="cls-1" cx="99.41" cy="3.51" r="1.95"/><circle class="cls-1" cx="104.09" cy="3.51" r="1.95"/><circle class="cls-1" cx="108.77" cy="3.51" r="1.95"/><circle class="cls-1" cx="113.45" cy="3.51" r="1.95"/><circle class="cls-1" cx="118.13" cy="3.51" r="1.95"/><circle class="cls-1" cx="122.8" cy="3.51" r="1.95"/><circle class="cls-1" cx="127.48" cy="3.51" r="1.95"/><circle class="cls-1" cx="134.5" cy="3.51" r="3.51"/><circle class="cls-1" cx="141.52" cy="3.51" r="1.95"/><circle class="cls-1" cx="146.2" cy="3.51" r="1.95"/><circle class="cls-1" cx="150.87" cy="3.51" r="1.95"/><circle class="cls-1" cx="155.55" cy="3.51" r="1.95"/><circle class="cls-1" cx="160.23" cy="3.51" r="1.95"/><circle class="cls-1" cx="164.91" cy="3.51" r="1.95"/><circle class="cls-1" cx="169.59" cy="3.51" r="1.95"/><circle class="cls-1" cx="174.27" cy="3.51" r="1.95"/><circle class="cls-1" cx="178.94" cy="3.51" r="1.95"/><circle class="cls-1" cx="183.62" cy="3.51" r="1.95"/><circle class="cls-1" cx="188.3" cy="3.51" r="1.95"/><circle class="cls-1" cx="192.98" cy="3.51" r="1.95"/><circle class="cls-1" cx="200" cy="3.51" r="3.51"/><circle class="cls-1" cx="207.01" cy="3.51" r="1.95"/><circle class="cls-1" cx="211.69" cy="3.51" r="1.95"/><circle class="cls-1" cx="216.37" cy="3.51" r="1.95"/><circle class="cls-1" cx="221.05" cy="3.51" r="1.95"/><circle class="cls-1" cx="225.73" cy="3.51" r="1.95"/><circle class="cls-1" cx="230.4" cy="3.51" r="1.95"/><circle class="cls-1" cx="235.08" cy="3.51" r="1.95"/><circle class="cls-1" cx="239.76" cy="3.51" r="1.95"/><circle class="cls-1" cx="244.44" cy="3.51" r="1.95"/><circle class="cls-1" cx="249.12" cy="3.51" r="1.95"/><circle class="cls-1" cx="253.8" cy="3.51" r="1.95"/><circle class="cls-1" cx="258.47" cy="3.51" r="1.95"/><circle class="cls-1" cx="265.49" cy="3.51" r="3.51"/></g></g></svg>