<?xml version="1.0" encoding="utf-8"?>
<!-- Generator: Adobe Illustrator 24.0.1, SVG Export Plug-In . SVG Version: 6.00 Build 0)  -->
<svg version="1.1" id="圖層_1" xmlns="http://www.w3.org/2000/svg" xmlns:xlink="http://www.w3.org/1999/xlink" x="0px" y="0px"
	 viewBox="0 0 44.9 44.9" style="enable-background:new 0 0 44.9 44.9;" xml:space="preserve">
<style type="text/css">
	.st0{fill:#E16B8C;}
	.st1{fill:#FEDFE1;}
</style>
<title>資產 12</title>
<g id="圖層_2_1_">
	<g id="登入註冊">
		<circle class="st0" cx="21.5" cy="22.5" r="22.5"/>
		<path class="st1" d="M30.5,31.8L30.5,31.8C30.5,31.8,30.5,31.4,30.5,31.8z"/>
		<path class="st1" d="M20.1,22.7L20.1,22.7z"/>
		<path class="st1" d="M16.9,21.9L16.9,21.9L16.9,21.9L16.9,21.9z"/>
		<path class="st1" d="M17,21.9l0.2,0.1L17,21.9z"/>
		<path class="st1" d="M21.5,18.7h6.4c1.3-0.1,2.5,0.8,2.9,2.1c0.1,0.3,0.1,0.7,0.1,1c0,3,0,6,0,8.9c0.1,1.6-1.1,2.9-2.6,3
			c-0.1,0-0.2,0-0.4,0H15.2c-1.4,0.1-2.6-0.8-2.9-2.1c-0.1-0.3-0.1-0.7-0.1-1c0-3,0-5.9,0-8.9c-0.1-1.4,0.8-2.6,2.1-3
			c0.3-0.1,0.7-0.1,1-0.1L21.5,18.7z M20.4,27.7L20.4,27.7c0,0.4,0,0.7,0,1.1c0,0.4,0.1,0.7,0.5,0.9c0.5,0.4,1.2,0.2,1.5-0.2
			c0.1-0.2,0.2-0.4,0.2-0.7c0-0.7,0-1.4,0-2.1c0-0.2,0.1-0.4,0.3-0.5c0.9-0.7,1.1-2,0.4-2.9c0-0.1-0.1-0.1-0.2-0.2
			c-0.9-0.9-2.3-1-3.2-0.1c-0.9,0.7-1,2-0.3,2.8c0.1,0.1,0.1,0.1,0.2,0.2c0.4,0.4,0.6,1,0.5,1.5L20.4,27.7z"/>
		<path class="st1" d="M29,16.9h-2.4c0-1.5-0.7-2.9-1.8-3.9c-1-0.9-2.4-1.4-3.7-1.3c-2.7,0.2-4.7,2.4-4.8,5.1H14c0-0.3,0-0.5,0-0.8
			c0.1-2.4,1.5-4.6,3.6-5.8c1.7-0.9,3.7-1.2,5.6-0.8c1.2,0.2,2.4,0.8,3.4,1.6c1.3,1.1,2.1,2.7,2.3,4.4C29,15.9,29,16.4,29,16.9z"/>
	</g>
</g>
</svg>
