<?xml version="1.0" encoding="utf-8"?>
<!-- Generator: Adobe Illustrator 24.1.2, SVG Export Plug-In . SVG Version: 6.00 Build 0)  -->
<svg version="1.1" id="圖層_1" xmlns="http://www.w3.org/2000/svg" xmlns:xlink="http://www.w3.org/1999/xlink" x="0px" y="0px"
	 viewBox="0 0 455 256.2" style="enable-background:new 0 0 455 256.2;" xml:space="preserve">
<style type="text/css">
	.st0{fill:none;}
	.st1{fill:#C78550;}
	.st2{font-family:'Copperplate-Bold';}
	.st3{font-size:74.6812px;}
	.st4{opacity:0.46;}
	.st5{fill:url(#SVGID_3_);}
	.st6{fill:url(#SVGID_50_);}
	.st7{opacity:0.75;}
	.st8{fill:#7A1414;}
	.st9{fill:#E16B8C;}
	.st10{fill:#81C7D4;}
	.st11{fill:#CB4042;}
	.st12{fill:#9B1F2B;}
	.st13{fill:#D82948;}
	.st14{fill:#6699A1;}
	.st15{opacity:0.5;}
	.st16{fill:url(#SVGID_52_);}
	.st17{fill:url(#SVGID_53_);}
	.st18{fill:url(#SVGID_54_);}
	.st19{fill:url(#SVGID_55_);}
	.st20{fill:url(#SVGID_56_);}
	.st21{fill:url(#SVGID_57_);}
	.st22{fill:url(#SVGID_58_);}
	.st23{fill:url(#SVGID_59_);}
	.st24{fill:url(#SVGID_60_);}
	.st25{fill:url(#SVGID_61_);}
	.st26{fill:url(#SVGID_62_);}
	.st27{fill:url(#SVGID_63_);}
	.st28{fill:url(#SVGID_64_);}
	.st29{fill:url(#SVGID_65_);}
	.st30{fill:url(#SVGID_66_);}
	.st31{fill:url(#SVGID_67_);}
	.st32{fill:url(#SVGID_68_);}
	.st33{fill:url(#SVGID_69_);}
	.st34{fill:url(#SVGID_70_);}
	.st35{fill:url(#SVGID_71_);}
	.st36{fill:url(#SVGID_72_);}
	.st37{fill:url(#SVGID_73_);}
	.st38{fill:url(#SVGID_74_);}
	.st39{fill:url(#SVGID_75_);}
	.st40{fill:url(#SVGID_76_);}
	.st41{fill:url(#SVGID_77_);}
	.st42{fill:url(#SVGID_78_);}
	.st43{fill:url(#SVGID_79_);}
	.st44{fill:url(#SVGID_80_);}
	.st45{fill:url(#SVGID_81_);}
	.st46{fill:url(#SVGID_82_);}
	.st47{fill:url(#SVGID_83_);}
	.st48{fill:url(#SVGID_84_);}
	.st49{fill:url(#SVGID_85_);}
	.st50{fill:url(#SVGID_86_);}
	.st51{fill:url(#SVGID_87_);}
	.st52{fill:url(#SVGID_88_);}
	.st53{fill:url(#SVGID_89_);}
	.st54{fill:url(#SVGID_90_);}
	.st55{fill:url(#SVGID_91_);}
	.st56{fill:url(#SVGID_92_);}
	.st57{fill:url(#SVGID_93_);}
	.st58{fill:url(#SVGID_94_);}
	.st59{fill:url(#SVGID_95_);}
	.st60{fill:url(#SVGID_96_);}
	.st61{fill:#681515;}
</style>
<pattern  y="256.2" width="455" height="256.2" patternUnits="userSpaceOnUse" id="SVGID_1_" viewBox="0 -256.2 455 256.2" style="overflow:visible;">
	<g>
		<rect y="-256.2" class="st0" width="455" height="256.2"/>
	</g>
</pattern>
<pattern  y="256.2" width="455" height="256.2" patternUnits="userSpaceOnUse" id="SVGID_10_" viewBox="0 -256.2 455 256.2" style="overflow:visible;">
	<g>
		<rect y="-256.2" class="st0" width="455" height="256.2"/>
	</g>
</pattern>
<pattern  y="256.2" width="455" height="256.2" patternUnits="userSpaceOnUse" id="SVGID_11_" viewBox="0 -256.2 455 256.2" style="overflow:visible;">
	<g>
		<rect y="-256.2" class="st0" width="455" height="256.2"/>
	</g>
</pattern>
<pattern  y="256.2" width="455" height="256.2" patternUnits="userSpaceOnUse" id="SVGID_12_" viewBox="0 -256.2 455 256.2" style="overflow:visible;">
	<g>
		<rect y="-256.2" class="st0" width="455" height="256.2"/>
	</g>
</pattern>
<pattern  y="256.2" width="455" height="256.2" patternUnits="userSpaceOnUse" id="SVGID_13_" viewBox="0 -256.2 455 256.2" style="overflow:visible;">
	<g>
		<rect y="-256.2" class="st0" width="455" height="256.2"/>
	</g>
</pattern>
<pattern  y="256.2" width="455" height="256.2" patternUnits="userSpaceOnUse" id="SVGID_14_" viewBox="0 -256.2 455 256.2" style="overflow:visible;">
	<g>
		<rect y="-256.2" class="st0" width="455" height="256.2"/>
	</g>
</pattern>
<pattern  y="256.2" width="455" height="256.2" patternUnits="userSpaceOnUse" id="SVGID_15_" viewBox="0 -256.2 455 256.2" style="overflow:visible;">
	<g>
		<rect y="-256.2" class="st0" width="455" height="256.2"/>
	</g>
</pattern>
<pattern  y="256.2" width="455" height="256.2" patternUnits="userSpaceOnUse" id="SVGID_16_" viewBox="0 -256.2 455 256.2" style="overflow:visible;">
	<g>
		<rect y="-256.2" class="st0" width="455" height="256.2"/>
	</g>
</pattern>
<pattern  y="256.2" width="455" height="256.2" patternUnits="userSpaceOnUse" id="SVGID_17_" viewBox="0 -256.2 455 256.2" style="overflow:visible;">
	<g>
		<rect y="-256.2" class="st0" width="455" height="256.2"/>
	</g>
</pattern>
<pattern  y="256.2" width="455" height="256.2" patternUnits="userSpaceOnUse" id="SVGID_18_" viewBox="0 -256.2 455 256.2" style="overflow:visible;">
	<g>
		<rect y="-256.2" class="st0" width="455" height="256.2"/>
	</g>
</pattern>
<pattern  y="256.2" width="455" height="256.2" patternUnits="userSpaceOnUse" id="SVGID_19_" viewBox="0 -256.2 455 256.2" style="overflow:visible;">
	<g>
		<rect y="-256.2" class="st0" width="455" height="256.2"/>
	</g>
</pattern>
<pattern  y="256.2" width="455" height="256.2" patternUnits="userSpaceOnUse" id="SVGID_20_" viewBox="0 -256.2 455 256.2" style="overflow:visible;">
	<g>
		<rect y="-256.2" class="st0" width="455" height="256.2"/>
	</g>
</pattern>
<pattern  y="256.2" width="455" height="256.2" patternUnits="userSpaceOnUse" id="SVGID_21_" viewBox="0 -256.2 455 256.2" style="overflow:visible;">
	<g>
		<rect y="-256.2" class="st0" width="455" height="256.2"/>
	</g>
</pattern>
<pattern  y="256.2" width="455" height="256.2" patternUnits="userSpaceOnUse" id="SVGID_22_" viewBox="0 -256.2 455 256.2" style="overflow:visible;">
	<g>
		<rect y="-256.2" class="st0" width="455" height="256.2"/>
	</g>
</pattern>
<pattern  y="256.2" width="455" height="256.2" patternUnits="userSpaceOnUse" id="SVGID_23_" viewBox="0 -256.2 455 256.2" style="overflow:visible;">
	<g>
		<rect y="-256.2" class="st0" width="455" height="256.2"/>
	</g>
</pattern>
<pattern  y="256.2" width="455" height="256.2" patternUnits="userSpaceOnUse" id="SVGID_24_" viewBox="0 -256.2 455 256.2" style="overflow:visible;">
	<g>
		<rect y="-256.2" class="st0" width="455" height="256.2"/>
	</g>
</pattern>
<pattern  y="256.2" width="455" height="256.2" patternUnits="userSpaceOnUse" id="SVGID_25_" viewBox="0 -256.2 455 256.2" style="overflow:visible;">
	<g>
		<rect y="-256.2" class="st0" width="455" height="256.2"/>
	</g>
</pattern>
<pattern  y="256.2" width="455" height="256.2" patternUnits="userSpaceOnUse" id="SVGID_26_" viewBox="0 -256.2 455 256.2" style="overflow:visible;">
	<g>
		<rect y="-256.2" class="st0" width="455" height="256.2"/>
	</g>
</pattern>
<pattern  y="256.2" width="455" height="256.2" patternUnits="userSpaceOnUse" id="SVGID_27_" viewBox="0 -256.2 455 256.2" style="overflow:visible;">
	<g>
		<rect y="-256.2" class="st0" width="455" height="256.2"/>
	</g>
</pattern>
<pattern  y="256.2" width="455" height="256.2" patternUnits="userSpaceOnUse" id="SVGID_28_" viewBox="0 -256.2 455 256.2" style="overflow:visible;">
	<g>
		<rect y="-256.2" class="st0" width="455" height="256.2"/>
	</g>
</pattern>
<pattern  y="256.2" width="455" height="256.2" patternUnits="userSpaceOnUse" id="SVGID_29_" viewBox="0 -256.2 455 256.2" style="overflow:visible;">
	<g>
		<rect y="-256.2" class="st0" width="455" height="256.2"/>
	</g>
</pattern>
<pattern  y="256.2" width="455" height="256.2" patternUnits="userSpaceOnUse" id="SVGID_30_" viewBox="0 -256.2 455 256.2" style="overflow:visible;">
	<g>
		<rect y="-256.2" class="st0" width="455" height="256.2"/>
	</g>
</pattern>
<pattern  y="256.2" width="455" height="256.2" patternUnits="userSpaceOnUse" id="SVGID_31_" viewBox="0 -256.2 455 256.2" style="overflow:visible;">
	<g>
		<rect y="-256.2" class="st0" width="455" height="256.2"/>
	</g>
</pattern>
<pattern  y="256.2" width="455" height="256.2" patternUnits="userSpaceOnUse" id="SVGID_32_" viewBox="0 -256.2 455 256.2" style="overflow:visible;">
	<g>
		<rect y="-256.2" class="st0" width="455" height="256.2"/>
	</g>
</pattern>
<pattern  y="256.2" width="455" height="256.2" patternUnits="userSpaceOnUse" id="SVGID_33_" viewBox="0 -256.2 455 256.2" style="overflow:visible;">
	<g>
		<rect y="-256.2" class="st0" width="455" height="256.2"/>
	</g>
</pattern>
<pattern  y="256.2" width="455" height="256.2" patternUnits="userSpaceOnUse" id="SVGID_34_" viewBox="0 -256.2 455 256.2" style="overflow:visible;">
	<g>
		<rect y="-256.2" class="st0" width="455" height="256.2"/>
	</g>
</pattern>
<pattern  y="256.2" width="455" height="256.2" patternUnits="userSpaceOnUse" id="SVGID_35_" viewBox="0 -256.2 455 256.2" style="overflow:visible;">
	<g>
		<rect y="-256.2" class="st0" width="455" height="256.2"/>
	</g>
</pattern>
<pattern  y="256.2" width="455" height="256.2" patternUnits="userSpaceOnUse" id="SVGID_36_" viewBox="0 -256.2 455 256.2" style="overflow:visible;">
	<g>
		<rect y="-256.2" class="st0" width="455" height="256.2"/>
	</g>
</pattern>
<pattern  y="256.2" width="455" height="256.2" patternUnits="userSpaceOnUse" id="SVGID_37_" viewBox="0 -256.2 455 256.2" style="overflow:visible;">
	<g>
		<rect y="-256.2" class="st0" width="455" height="256.2"/>
	</g>
</pattern>
<pattern  y="256.2" width="455" height="256.2" patternUnits="userSpaceOnUse" id="SVGID_38_" viewBox="0 -256.2 455 256.2" style="overflow:visible;">
	<g>
		<rect y="-256.2" class="st0" width="455" height="256.2"/>
	</g>
</pattern>
<pattern  y="256.2" width="455" height="256.2" patternUnits="userSpaceOnUse" id="SVGID_39_" viewBox="0 -256.2 455 256.2" style="overflow:visible;">
	<g>
		<rect y="-256.2" class="st0" width="455" height="256.2"/>
	</g>
</pattern>
<pattern  y="256.2" width="455" height="256.2" patternUnits="userSpaceOnUse" id="SVGID_4_" viewBox="0 -256.2 455 256.2" style="overflow:visible;">
	<g>
		<rect y="-256.2" class="st0" width="455" height="256.2"/>
	</g>
</pattern>
<pattern  y="256.2" width="455" height="256.2" patternUnits="userSpaceOnUse" id="SVGID_40_" viewBox="0 -256.2 455 256.2" style="overflow:visible;">
	<g>
		<rect y="-256.2" class="st0" width="455" height="256.2"/>
	</g>
</pattern>
<pattern  y="256.2" width="455" height="256.2" patternUnits="userSpaceOnUse" id="SVGID_41_" viewBox="0 -256.2 455 256.2" style="overflow:visible;">
	<g>
		<rect y="-256.2" class="st0" width="455" height="256.2"/>
	</g>
</pattern>
<pattern  y="256.2" width="455" height="256.2" patternUnits="userSpaceOnUse" id="SVGID_42_" viewBox="0 -256.2 455 256.2" style="overflow:visible;">
	<g>
		<rect y="-256.2" class="st0" width="455" height="256.2"/>
	</g>
</pattern>
<pattern  y="256.2" width="455" height="256.2" patternUnits="userSpaceOnUse" id="SVGID_43_" viewBox="0 -256.2 455 256.2" style="overflow:visible;">
	<g>
		<rect y="-256.2" class="st0" width="455" height="256.2"/>
	</g>
</pattern>
<pattern  y="256.2" width="455" height="256.2" patternUnits="userSpaceOnUse" id="SVGID_44_" viewBox="0 -256.2 455 256.2" style="overflow:visible;">
	<g>
		<rect y="-256.2" class="st0" width="455" height="256.2"/>
	</g>
</pattern>
<pattern  y="256.2" width="455" height="256.2" patternUnits="userSpaceOnUse" id="SVGID_45_" viewBox="0 -256.2 455 256.2" style="overflow:visible;">
	<g>
		<rect y="-256.2" class="st0" width="455" height="256.2"/>
	</g>
</pattern>
<pattern  y="256.2" width="455" height="256.2" patternUnits="userSpaceOnUse" id="SVGID_46_" viewBox="0 -256.2 455 256.2" style="overflow:visible;">
	<g>
		<rect y="-256.2" class="st0" width="455" height="256.2"/>
	</g>
</pattern>
<pattern  y="256.2" width="455" height="256.2" patternUnits="userSpaceOnUse" id="SVGID_48_" viewBox="0 -256.2 455 256.2" style="overflow:visible;">
	<g>
		<rect y="-256.2" class="st0" width="455" height="256.2"/>
	</g>
</pattern>
<pattern  y="256.2" width="455" height="256.2" patternUnits="userSpaceOnUse" id="SVGID_49_" viewBox="0 -256.2 455 256.2" style="overflow:visible;">
	<g>
		<rect y="-256.2" class="st0" width="455" height="256.2"/>
	</g>
</pattern>
<pattern  y="256.2" width="455" height="256.2" patternUnits="userSpaceOnUse" id="SVGID_5_" viewBox="0 -256.2 455 256.2" style="overflow:visible;">
	<g>
		<rect y="-256.2" class="st0" width="455" height="256.2"/>
	</g>
</pattern>
<pattern  y="256.2" width="455" height="256.2" patternUnits="userSpaceOnUse" id="SVGID_6_" viewBox="0 -256.2 455 256.2" style="overflow:visible;">
	<g>
		<rect y="-256.2" class="st0" width="455" height="256.2"/>
	</g>
</pattern>
<pattern  y="256.2" width="455" height="256.2" patternUnits="userSpaceOnUse" id="SVGID_7_" viewBox="0 -256.2 455 256.2" style="overflow:visible;">
	<g>
		<rect y="-256.2" class="st0" width="455" height="256.2"/>
	</g>
</pattern>
<pattern  y="256.2" width="455" height="256.2" patternUnits="userSpaceOnUse" id="SVGID_8_" viewBox="0 -256.2 455 256.2" style="overflow:visible;">
	<g>
		<rect y="-256.2" class="st0" width="455" height="256.2"/>
	</g>
</pattern>
<pattern  y="256.2" width="455" height="256.2" patternUnits="userSpaceOnUse" id="SVGID_9_" viewBox="0 -256.2 455 256.2" style="overflow:visible;">
	<g>
		<rect y="-256.2" class="st0" width="455" height="256.2"/>
	</g>
</pattern>
<g>
	<g>
		<text transform="matrix(1 7.550012e-03 -7.550012e-03 1 57.5693 226.6486)" class="st1 st2 st3">PARADIS</text>
		<g class="st4">
			
				<pattern  id="SVGID_3_" xlink:href="#SVGID_1_" patternTransform="matrix(1 7.550012e-03 7.550012e-03 -1 1306.4218 -17345.1543)"  style="enable-background:new    ;">
			</pattern>
			<text transform="matrix(1 7.550012e-03 -7.550012e-03 1 57.5693 226.6486)" class="st5 st2 st3">			<pattern  id="SVGID_47_" xlink:href="#SVGID_1_" patternTransform="matrix(1 7.550012e-03 7.550012e-03 -1 1306.4218 -17345.1543)">
			</pattern>
   </text>
			
				<pattern  id="SVGID_50_" xlink:href="#SVGID_1_" patternTransform="matrix(1 7.550012e-03 7.550012e-03 -1 1306.4218 -17345.1543)"  style="enable-background:new    ;">
			</pattern>
			<text transform="matrix(1 7.550012e-03 -7.550012e-03 1 125.9009 227.1645)" class="st6 st2 st3">			<pattern  id="SVGID_51_" xlink:href="#SVGID_1_" patternTransform="matrix(1 7.550012e-03 7.550012e-03 -1 1306.4218 -17345.1543)">
			</pattern>
 PARADIS</text>
		</g>
	</g>
	<g class="st7">
		<path class="st8" d="M101.3,191.4c-1.2-1.2-2.7-2.1-4.5-2.8s-3.9-1-6.2-1.1l-26.7-0.2v0.9c0.9,0.1,1.5,0.3,1.8,0.5
			c0.2,0.2,0.3,0.5,0.3,0.9l-0.3,34.8c0,0.3-0.1,0.6-0.3,0.9c-0.2,0.2-0.8,0.4-1.8,0.5v0.9l15.4,0.1v-0.9c-0.9-0.1-1.5-0.3-1.8-0.5
			c-0.2-0.2-0.3-0.5-0.3-0.9l0.1-12.2l13.4,0.1c2.3,0,4.4-0.3,6.2-1c1.8-0.7,3.3-1.5,4.5-2.7c1.2-1.1,2.1-2.4,2.7-3.9
			s0.9-3.1,0.9-4.7c0-1.6-0.3-3.2-0.9-4.7C103.4,193.9,102.5,192.6,101.3,191.4z M93,203.5c-1,0.7-2.5,1-4.6,1L77,204.4l0.1-8.6
			l11.4,0.1c2.1,0,3.6,0.4,4.6,1c1,0.7,1.4,1.7,1.4,3.1C94.5,201.7,94,202.9,93,203.5z M155.4,224.3c-0.8-1.9-1.7-4-2.6-6.4
			c-1-2.4-1.9-4.9-3-7.4c-1-2.5-2-5-3-7.4s-1.8-4.6-2.5-6.5s-1.3-3.5-1.8-4.7s-0.7-1.8-0.7-1.9c0-0.4,0.1-0.6,0.4-0.7
			c0.2-0.1,0.6-0.2,1-0.2v-0.9l-19.5-0.1v0.9c0.3,0.1,0.7,0.1,1,0.2c0.3,0.1,0.5,0.3,0.5,0.5c0,0-0.2,0.6-0.6,1.6s-0.9,2.3-1.5,3.9
			c-0.6,1.6-1.3,3.4-2.1,5.4c-0.8,2-1.6,4.1-2.4,6.2c-0.8,2.1-1.6,4.2-2.4,6.2s-1.5,3.9-2.2,5.5c-0.7,1.7-1.2,3-1.6,4.1
			s-0.7,1.8-0.8,2c-0.3,0.6-0.5,1-0.8,1.2s-0.7,0.4-1.2,0.5v0.9l13.2,0.1v-0.9c-0.5,0-0.9-0.1-1.1-0.2c-0.2-0.1-0.3-0.3-0.3-0.6
			c0-0.1,0-0.3,0.1-0.5s0.2-0.6,0.4-1.1c0.2-0.5,0.4-1.2,0.7-2c0.3-0.8,0.7-1.9,1.2-3.3l17.7,0.1c0,0.2,0.2,0.7,0.5,1.4
			s0.5,1.4,0.8,2.2s0.6,1.5,0.8,2.1s0.4,1,0.4,1c0,0.5-0.5,0.8-1.4,0.9v0.9l14.7,0.1v-0.9c-0.4,0-0.8-0.2-1.1-0.5
			C156.1,225.8,155.8,225.2,155.4,224.3z M125.9,212.7l6.8-17.7l7.1,17.8L125.9,212.7z M207.1,225.5l-8.7-12.5
			c3.1-0.8,5.7-2.2,7.7-4.1c2-1.9,3.1-4.6,3.1-8c0-4.2-1.2-7.4-3.7-9.4s-6.5-3.1-12-3.1l-27.3-0.2v0.9c0.9,0.1,1.5,0.3,1.8,0.5
			c0.2,0.2,0.3,0.5,0.3,0.9l-0.3,34.8c0,0.3-0.1,0.6-0.3,0.9c-0.2,0.2-0.8,0.4-1.8,0.5v0.9l15.4,0.1v-0.9c-0.9-0.1-1.5-0.3-1.8-0.5
			c-0.2-0.2-0.3-0.5-0.3-0.9l0.1-12.5l7.3,0.1c0.1,0.3,0.5,0.7,1,1.4s1.1,1.5,1.7,2.4c0.7,0.9,1.4,1.8,2.1,2.8c0.7,1,1.4,1.9,2,2.7
			c0.6,0.9,1.1,1.6,1.5,2.2c0.4,0.6,0.6,1,0.6,1.1c0,0.8-0.6,1.3-1.7,1.3v0.9l15.5,0.1V227C208.4,226.9,207.7,226.4,207.1,225.5z
			 M196.4,203.8c-0.8,0.8-2.3,1.2-4.5,1.2l-12.5-0.1l0.1-8.2l12.5,0.1c2.2,0,3.7,0.4,4.5,1.3c0.8,0.8,1.2,1.8,1.2,2.9
			C197.6,202,197.2,202.9,196.4,203.8z M261.8,225.1c-0.8-1.9-1.6-4-2.6-6.4s-1.9-4.9-3-7.4c-1-2.5-2-5-3-7.4s-1.8-4.6-2.5-6.5
			s-1.3-3.5-1.8-4.7s-0.7-1.8-0.7-1.9c0-0.4,0.1-0.6,0.4-0.7c0.2-0.1,0.6-0.2,1-0.2V189l-19.5-0.1v0.9c0.3,0.1,0.7,0.1,1,0.2
			c0.3,0.1,0.5,0.3,0.5,0.5c0,0-0.2,0.6-0.6,1.6c-0.4,1-0.9,2.3-1.5,3.9c-0.6,1.6-1.3,3.4-2.1,5.4s-1.6,4.1-2.4,6.2
			c-0.8,2.1-1.6,4.2-2.4,6.2c-0.8,2-1.5,3.9-2.2,5.5c-0.7,1.7-1.2,3-1.6,4.1s-0.7,1.8-0.8,2c-0.3,0.6-0.5,1-0.8,1.2
			s-0.6,0.4-1.2,0.5v0.9l13.2,0.1v-0.9c-0.5,0-0.9-0.1-1.1-0.2c-0.2-0.1-0.3-0.3-0.3-0.6c0-0.1,0-0.3,0.1-0.5s0.2-0.6,0.4-1.1
			s0.4-1.2,0.7-2s0.7-1.9,1.2-3.3l17.7,0.1c0,0.2,0.2,0.7,0.5,1.4s0.5,1.4,0.8,2.2s0.6,1.5,0.8,2.1s0.4,1,0.4,1
			c0,0.5-0.5,0.8-1.4,0.9v0.9l14.7,0.1v-0.9c-0.4,0-0.8-0.2-1.1-0.5C262.5,226.6,262.2,226,261.8,225.1z M232.3,213.5l6.8-17.7
			l7.1,17.8L232.3,213.5z M312.5,194.9c-1.6-1.8-3.7-3.2-6.2-4.2s-5.5-1.5-8.9-1.6l-24.8-0.2v0.9c0.9,0.1,1.5,0.3,1.8,0.5
			c0.2,0.2,0.3,0.5,0.3,0.9l-0.3,34.8c0,0.3-0.1,0.6-0.3,0.9c-0.2,0.2-0.8,0.4-1.8,0.5v0.9l24,0.2c3.5,0,6.5-0.5,9.2-1.6
			c2.6-1.1,4.8-2.5,6.6-4.3c1.8-1.8,3.1-3.9,4-6.2c0.9-2.4,1.3-4.8,1.4-7.3c0-2.8-0.4-5.4-1.2-7.8S314.1,196.7,312.5,194.9z
			 M303.6,216.7c-1.8,2-4.6,3-8.5,3l-9.5-0.1l0.2-21.7l9.5,0.1c3.9,0,6.8,1.1,8.5,3.1s2.6,4.6,2.6,7.8
			C306.2,212.1,305.3,214.7,303.6,216.7z M326.5,190.3c0.9,0.1,1.5,0.3,1.8,0.5c0.2,0.2,0.3,0.5,0.3,0.9l-0.3,34.8
			c0,0.3-0.1,0.6-0.3,0.9c-0.2,0.2-0.8,0.4-1.8,0.5v0.9l15.4,0.1V228c-0.9-0.1-1.5-0.3-1.8-0.5s-0.3-0.5-0.3-0.9l0.3-34.8
			c0-0.3,0.1-0.6,0.3-0.9c0.2-0.2,0.8-0.4,1.8-0.5v-0.9l-15.4-0.1V190.3z M392.6,210.8c-0.9-1.4-2-2.6-3.5-3.5
			c-1.4-0.9-3.1-1.6-4.9-2s-3.7-0.8-5.7-1.1c-1.9-0.3-3.8-0.5-5.7-0.6c-1.8-0.1-3.5-0.3-4.9-0.5s-2.6-0.5-3.5-1
			c-0.9-0.4-1.3-1.1-1.3-1.9c0-0.8,0.7-1.6,2-2.4c1.3-0.7,3.6-1.1,6.8-1.1c1.7,0,3.5,0.2,5.4,0.4c1.8,0.3,3.5,0.6,5,1
			s2.7,0.8,3.7,1.3s1.4,0.9,1.4,1.4v0.8l0.9,0.5l5.2-10.3l-0.8-0.3c-0.3,0.3-0.5,0.6-0.8,0.8s-0.7,0.3-1.2,0.3s-1.3-0.2-2.5-0.5
			c-1.1-0.3-2.6-0.7-4.2-1.1c-1.7-0.4-3.6-0.8-5.8-1.1c-2.2-0.3-4.6-0.5-7.1-0.5c-2.7,0-5.2,0.3-7.5,0.9c-2.2,0.6-4.2,1.5-5.7,2.5
			c-1.6,1.1-2.8,2.4-3.7,3.9c-0.9,1.5-1.3,3.3-1.3,5.1c0,2.4,0.7,4.3,2.2,5.7s3.4,2.4,5.7,3.2c2.3,0.7,4.7,1.3,7.4,1.5
			c2.6,0.3,5.1,0.6,7.4,0.8s4.2,0.6,5.7,0.9c1.5,0.4,2.3,1,2.3,1.9c0,1.6-0.9,2.9-2.6,3.8c-1.8,0.9-4.5,1.3-8.2,1.2
			c-1.9,0-3.9-0.2-5.7-0.6c-1.9-0.4-3.6-0.9-5-1.4c-1.5-0.6-2.7-1.2-3.6-1.8s-1.4-1.2-1.4-1.7c0-0.7,0.1-1.3,0.2-1.6l-0.7-0.4
			l-5.6,13.3l0.9,0.2c0.3-0.2,0.5-0.5,0.7-0.7s0.5-0.3,0.8-0.3c0.4,0,1.1,0.2,2,0.5c0.9,0.4,2.2,0.8,3.8,1.2
			c1.6,0.4,3.5,0.8,5.8,1.1s5,0.5,8.1,0.5c4,0,7.4-0.3,10.1-1s4.9-1.7,6.5-3s2.8-2.7,3.5-4.3s1-3.2,1-4.8
			C394,214,393.5,212.2,392.6,210.8z"/>
		<g class="st4">
			<path class="st8" d="M101.3,191.4c-1.2-1.2-2.7-2.1-4.5-2.8s-3.9-1-6.2-1.1l-26.7-0.2v0.9c0.9,0.1,1.5,0.3,1.8,0.5
				c0.2,0.2,0.3,0.5,0.3,0.9l-0.3,34.8c0,0.3-0.1,0.6-0.3,0.9c-0.2,0.2-0.8,0.4-1.8,0.5v0.9l15.4,0.1v-0.9c-0.9-0.1-1.5-0.3-1.8-0.5
				c-0.2-0.2-0.3-0.5-0.3-0.9l0.1-12.2l13.4,0.1c2.3,0,4.4-0.3,6.2-1c1.8-0.7,3.3-1.5,4.5-2.7c1.2-1.1,2.1-2.4,2.7-3.9
				s0.9-3.1,0.9-4.7c0-1.6-0.3-3.2-0.9-4.7C103.4,193.9,102.5,192.6,101.3,191.4z M93,203.5c-1,0.7-2.5,1-4.6,1L77,204.4l0.1-8.6
				l11.4,0.1c2.1,0,3.6,0.4,4.6,1c1,0.7,1.4,1.7,1.4,3.1C94.5,201.7,94,202.9,93,203.5z M155.4,224.3c-0.8-1.9-1.7-4-2.6-6.4
				c-1-2.4-1.9-4.9-3-7.4c-1-2.5-2-5-3-7.4s-1.8-4.6-2.5-6.5s-1.3-3.5-1.8-4.7s-0.7-1.8-0.7-1.9c0-0.4,0.1-0.6,0.4-0.7
				c0.2-0.1,0.6-0.2,1-0.2v-0.9l-19.5-0.1v0.9c0.3,0.1,0.7,0.1,1,0.2c0.3,0.1,0.5,0.3,0.5,0.5c0,0-0.2,0.6-0.6,1.6s-0.9,2.3-1.5,3.9
				c-0.6,1.6-1.3,3.4-2.1,5.4c-0.8,2-1.6,4.1-2.4,6.2c-0.8,2.1-1.6,4.2-2.4,6.2s-1.5,3.9-2.2,5.5c-0.7,1.7-1.2,3-1.6,4.1
				s-0.7,1.8-0.8,2c-0.3,0.6-0.5,1-0.8,1.2s-0.7,0.4-1.2,0.5v0.9l13.2,0.1v-0.9c-0.5,0-0.9-0.1-1.1-0.2c-0.2-0.1-0.3-0.3-0.3-0.6
				c0-0.1,0-0.3,0.1-0.5s0.2-0.6,0.4-1.1c0.2-0.5,0.4-1.2,0.7-2c0.3-0.8,0.7-1.9,1.2-3.3l17.7,0.1c0,0.2,0.2,0.7,0.5,1.4
				s0.5,1.4,0.8,2.2s0.6,1.5,0.8,2.1s0.4,1,0.4,1c0,0.5-0.5,0.8-1.4,0.9v0.9l14.7,0.1v-0.9c-0.4,0-0.8-0.2-1.1-0.5
				C156.1,225.8,155.8,225.2,155.4,224.3z M125.9,212.7l6.8-17.7l7.1,17.8L125.9,212.7z M207.1,225.5l-8.7-12.5
				c3.1-0.8,5.7-2.2,7.7-4.1c2-1.9,3.1-4.6,3.1-8c0-4.2-1.2-7.4-3.7-9.4s-6.5-3.1-12-3.1l-27.3-0.2v0.9c0.9,0.1,1.5,0.3,1.8,0.5
				c0.2,0.2,0.3,0.5,0.3,0.9l-0.3,34.8c0,0.3-0.1,0.6-0.3,0.9c-0.2,0.2-0.8,0.4-1.8,0.5v0.9l15.4,0.1v-0.9c-0.9-0.1-1.5-0.3-1.8-0.5
				c-0.2-0.2-0.3-0.5-0.3-0.9l0.1-12.5l7.3,0.1c0.1,0.3,0.5,0.7,1,1.4s1.1,1.5,1.7,2.4c0.7,0.9,1.4,1.8,2.1,2.8c0.7,1,1.4,1.9,2,2.7
				c0.6,0.9,1.1,1.6,1.5,2.2c0.4,0.6,0.6,1,0.6,1.1c0,0.8-0.6,1.3-1.7,1.3v0.9l15.5,0.1V227C208.4,226.9,207.7,226.4,207.1,225.5z
				 M196.4,203.8c-0.8,0.8-2.3,1.2-4.5,1.2l-12.5-0.1l0.1-8.2l12.5,0.1c2.2,0,3.7,0.4,4.5,1.3c0.8,0.8,1.2,1.8,1.2,2.9
				C197.6,202,197.2,202.9,196.4,203.8z M261.8,225.1c-0.8-1.9-1.6-4-2.6-6.4s-1.9-4.9-3-7.4c-1-2.5-2-5-3-7.4s-1.8-4.6-2.5-6.5
				s-1.3-3.5-1.8-4.7s-0.7-1.8-0.7-1.9c0-0.4,0.1-0.6,0.4-0.7c0.2-0.1,0.6-0.2,1-0.2V189l-19.5-0.1v0.9c0.3,0.1,0.7,0.1,1,0.2
				c0.3,0.1,0.5,0.3,0.5,0.5c0,0-0.2,0.6-0.6,1.6c-0.4,1-0.9,2.3-1.5,3.9c-0.6,1.6-1.3,3.4-2.1,5.4s-1.6,4.1-2.4,6.2
				c-0.8,2.1-1.6,4.2-2.4,6.2c-0.8,2-1.5,3.9-2.2,5.5c-0.7,1.7-1.2,3-1.6,4.1s-0.7,1.8-0.8,2c-0.3,0.6-0.5,1-0.8,1.2
				s-0.6,0.4-1.2,0.5v0.9l13.2,0.1v-0.9c-0.5,0-0.9-0.1-1.1-0.2c-0.2-0.1-0.3-0.3-0.3-0.6c0-0.1,0-0.3,0.1-0.5s0.2-0.6,0.4-1.1
				s0.4-1.2,0.7-2s0.7-1.9,1.2-3.3l17.7,0.1c0,0.2,0.2,0.7,0.5,1.4s0.5,1.4,0.8,2.2s0.6,1.5,0.8,2.1s0.4,1,0.4,1
				c0,0.5-0.5,0.8-1.4,0.9v0.9l14.7,0.1v-0.9c-0.4,0-0.8-0.2-1.1-0.5C262.5,226.6,262.2,226,261.8,225.1z M232.3,213.5l6.8-17.7
				l7.1,17.8L232.3,213.5z M312.5,194.9c-1.6-1.8-3.7-3.2-6.2-4.2s-5.5-1.5-8.9-1.6l-24.8-0.2v0.9c0.9,0.1,1.5,0.3,1.8,0.5
				c0.2,0.2,0.3,0.5,0.3,0.9l-0.3,34.8c0,0.3-0.1,0.6-0.3,0.9c-0.2,0.2-0.8,0.4-1.8,0.5v0.9l24,0.2c3.5,0,6.5-0.5,9.2-1.6
				c2.6-1.1,4.8-2.5,6.6-4.3c1.8-1.8,3.1-3.9,4-6.2c0.9-2.4,1.3-4.8,1.4-7.3c0-2.8-0.4-5.4-1.2-7.8S314.1,196.7,312.5,194.9z
				 M303.6,216.7c-1.8,2-4.6,3-8.5,3l-9.5-0.1l0.2-21.7l9.5,0.1c3.9,0,6.8,1.1,8.5,3.1s2.6,4.6,2.6,7.8
				C306.2,212.1,305.3,214.7,303.6,216.7z M326.5,190.3c0.9,0.1,1.5,0.3,1.8,0.5c0.2,0.2,0.3,0.5,0.3,0.9l-0.3,34.8
				c0,0.3-0.1,0.6-0.3,0.9c-0.2,0.2-0.8,0.4-1.8,0.5v0.9l15.4,0.1V228c-0.9-0.1-1.5-0.3-1.8-0.5s-0.3-0.5-0.3-0.9l0.3-34.8
				c0-0.3,0.1-0.6,0.3-0.9c0.2-0.2,0.8-0.4,1.8-0.5v-0.9l-15.4-0.1V190.3z M392.6,210.8c-0.9-1.4-2-2.6-3.5-3.5
				c-1.4-0.9-3.1-1.6-4.9-2s-3.7-0.8-5.7-1.1c-1.9-0.3-3.8-0.5-5.7-0.6c-1.8-0.1-3.5-0.3-4.9-0.5s-2.6-0.5-3.5-1
				c-0.9-0.4-1.3-1.1-1.3-1.9c0-0.8,0.7-1.6,2-2.4c1.3-0.7,3.6-1.1,6.8-1.1c1.7,0,3.5,0.2,5.4,0.4c1.8,0.3,3.5,0.6,5,1
				s2.7,0.8,3.7,1.3s1.4,0.9,1.4,1.4v0.8l0.9,0.5l5.2-10.3l-0.8-0.3c-0.3,0.3-0.5,0.6-0.8,0.8s-0.7,0.3-1.2,0.3s-1.3-0.2-2.5-0.5
				c-1.1-0.3-2.6-0.7-4.2-1.1c-1.7-0.4-3.6-0.8-5.8-1.1c-2.2-0.3-4.6-0.5-7.1-0.5c-2.7,0-5.2,0.3-7.5,0.9c-2.2,0.6-4.2,1.5-5.7,2.5
				c-1.6,1.1-2.8,2.4-3.7,3.9c-0.9,1.5-1.3,3.3-1.3,5.1c0,2.4,0.7,4.3,2.2,5.7s3.4,2.4,5.7,3.2c2.3,0.7,4.7,1.3,7.4,1.5
				c2.6,0.3,5.1,0.6,7.4,0.8s4.2,0.6,5.7,0.9c1.5,0.4,2.3,1,2.3,1.9c0,1.6-0.9,2.9-2.6,3.8c-1.8,0.9-4.5,1.3-8.2,1.2
				c-1.9,0-3.9-0.2-5.7-0.6c-1.9-0.4-3.6-0.9-5-1.4c-1.5-0.6-2.7-1.2-3.6-1.8s-1.4-1.2-1.4-1.7c0-0.7,0.1-1.3,0.2-1.6l-0.7-0.4
				l-5.6,13.3l0.9,0.2c0.3-0.2,0.5-0.5,0.7-0.7s0.5-0.3,0.8-0.3c0.4,0,1.1,0.2,2,0.5c0.9,0.4,2.2,0.8,3.8,1.2
				c1.6,0.4,3.5,0.8,5.8,1.1s5,0.5,8.1,0.5c4,0,7.4-0.3,10.1-1s4.9-1.7,6.5-3s2.8-2.7,3.5-4.3s1-3.2,1-4.8
				C394,214,393.5,212.2,392.6,210.8z"/>
		</g>
	</g>
</g>
<g>
	<g>
		<g>
			<g>
				<path class="st9" d="M246.4,154.1c-2.6,0.1-4.9-0.8-7.1-1.9c-4.1-1.9-8-2.1-12.5-0.7c-8.5,2.7-16.9,1.7-25-2.2
					c-1.5-0.8-3-1.7-4.2-2.9c-2.9-3.1-2.4-6.2,1.6-7.9c3.3-1.4,6.8-2,10.3-2.2c4.8-0.3,9.7-0.4,14.5-0.9c7.9-0.9,14.9-4.6,22.1-7.6
					c4.3-1.8,8.7-3.4,13.3-4.3c0.9-0.2,1.9-0.3,2.8-0.3c1.1-0.1,2.2-0.1,2.7,1.1c0.5,1.1-0.2,2-0.9,2.8c-0.4,0.5-0.8,1.1-1.3,1.5
					c-4.8,4.1-6.6,9.2-6.2,15.5C256.9,150.2,252.6,154.1,246.4,154.1z"/>
			</g>
			<g>
				<path class="st10" d="M154.9,177.3c-0.9-4.9-0.5-9.4,1.1-13.6c2.4-6,2.2-11.6-0.3-17.5c-0.8-2-1.3-4.2-1.4-6.4
					c-0.2-6.2,3.6-10.3,9.8-10.5c3.1-0.1,6.1,0,9,1.1c2.1,0.8,3,1.8,2.1,4.1c-1.1,2.8-2,5.7-3.1,8.9c1.7-0.2,2.6-1.5,3.7-2.4
					c2.6-2.3,5.4-4.2,9-2.5s4.9,5,5,8.7c0.2,7.5-2.7,13.8-8.6,18.5c-2.3,1.8-4.6,3.7-6.4,6.1c-1.3,1.7-3,2.5-5,1.4
					c-4.6-2.6-8.4-1.1-12.1,1.8C157,175.6,156.1,176.3,154.9,177.3z"/>
			</g>
			<g>
				<path class="st9" d="M249.6,95.1c2.7-7.9,3-15.5,1.2-23.2c-3-12.7-9.9-19.2-22.9-20.9c-15.4-2.1-28.6,2.5-39.4,13.8
					c-0.5,0.5-0.9,1.2-1.4,1.8c-1.3-1.2-1.7-2.2-0.8-3.5c4.2-6.5,7.8-13.3,12.8-19.3c5.7-6.9,12.8-10.4,21.9-9.3
					c5.7,0.6,11.4,0.8,16.7,3.4c1.1,0.5,2.3,1.1,3.1,2c7.7,7.8,14.7,16.1,17.1,27.2c1.9,8.7-1,16.6-5,24.1
					C252.1,92.4,251.8,94.3,249.6,95.1z"/>
			</g>
			<g>
				<path class="st9" d="M243.1,91.4c-1.9,7.2-5,13.7-10,19.3c-3.2,3.5-7.7,4.1-12,4.6c-9.5,1.2-18.1-1.2-25.7-7.1
					c-1.6-1.2-3.7-3-2.6-5.2c1.2-2.3,3.6-1,5.4-0.5c3.5,0.9,7,0.5,10.5-0.2c5.4-1.1,10.8-2.2,16.2-3.4c5.8-1.2,11.1-3.4,16-6.7
					C241.5,91.8,242,91.1,243.1,91.4z"/>
			</g>
			<g>
				<path class="st9" d="M207.3,9.6c3.8,0,5.9,2.8,4.6,6.1c-1.5,3.8-4.3,6.9-6.4,10.4c-0.3,0.6-0.8,0.7-1.4,0.3
					c-3.9-2.3-8.5-2.8-12.7-4c-1.8-0.5-3.4-1.3-4.5-2.8c-1.5-1.9-1.2-3.6,1.1-4.5c0.9-0.3,1.9-0.6,2.8-0.5c4.4,0.3,8.2-0.9,11.8-3.4
					C203.9,10.3,205.6,9.7,207.3,9.6z"/>
			</g>
			<g>
				<path class="st9" d="M128.8,83.7c0.5-2.5,1.5-5.5,1.3-8.7c-0.1-1.1,0.9-0.7,1.4-0.2c1.2,1.1,2,2.5,2.8,3.9
					c2.1,3.8,4.9,5.5,9.4,4.5c3.3-0.8,5.4,1.5,4.7,4.8c-0.6,2.7-1.4,5.3-2.3,7.9c-0.6,1.6-1.9,2.2-3.4,1.4
					c-4.1-2.2-8.3-4.4-11.7-7.6C129.5,88.3,128.7,86.4,128.8,83.7z"/>
			</g>
			<g>
				<path class="st11" d="M201.5,62.3c-4,3.3-4,7.9-4,12.4c0,1.4,0.5,2.7,2,3.1c1.7,0.4,3.2-0.2,4.1-1.9c1-1.9,1.4-3.9,1.6-6l0,0
					c0.1-0.2,0.2-0.5,0.3-0.7c0.8-6.2,6.7-7.4,11.1-10.8C210.5,57.8,205.6,58.5,201.5,62.3z"/>
			</g>
			<g>
				<path class="st12" d="M218.7,70.7c-1.2-0.3-2.2,0.2-3.3,0.3c-0.6,0-1.2,0-1.5-0.6c-0.4-0.7-0.1-1.2,0.4-1.7
					c1-1.1,4.5-1.9,5.9-1.2c0.8,0.4,1.3,1,1.2,1.9s-0.8,1.2-1.6,1.2C219.4,70.8,218.9,70.7,218.7,70.7z"/>
			</g>
			<g>
				<path class="st11" d="M240.9,68.6c-2.9-4.5-11.2-7.4-16.5-5.8c4.2,3,7,7,9.2,11.5c0.7,2.5,1.6,4.9,1.7,7.5
					c0,0.6,0.2,1.4,0.9,1.7c0.8,0.3,1.5-0.3,2-0.9c1.7-2.1,3-4.4,3.3-7.2C242.1,73.1,242.3,70.8,240.9,68.6z"/>
			</g>
			<g>
				<path class="st11" d="M292,88.9c-0.2-0.6-0.4-1.3-0.6-1.9c-0.4-1.4-0.7-2.9-1.6-4.1c-1-3.6-3.4-6.4-5.2-9.5
					c-1.4-2.5-2.2-5-1.1-7.9c1.5-3.8,0.6-7.2-1.9-10.2c-4.5-5.4-9.5-10.2-15.7-13.6c-3.9-2.1-7.9-3.4-12.9-2.8
					c3.8,2.4,6.7,5,8.6,8.6c3.4,6.2,4.1,12.9,3.1,19.7c-0.7,4.8-0.7,9.2,2.7,13.2c1.8,2.2,2.6,5,3.4,7.8c2,7.2,1,14.1-1.3,21
					c-1.6,2.6-3.2,5.1-4.8,7.7c0.1,0.1,0.3,0.3,0.4,0.4c2.9-1.4,5.5-3.2,7.6-5.7c2.3-1.7,3.4-4.2,4.5-6.8c1-2.5,1.7-5,2.9-7.4
					c2-4.1,5.4-6.4,10-6.2C292.5,91.5,292.6,90.6,292,88.9z"/>
			</g>
			<g>
				<path class="st12" d="M226.8,76c-1.1-0.9-2.5-0.9-3.4-0.1c-3,2.6-6.8,3.2-10.5,4.2c-1.4,0.4-3.5,0.4-3.4,2.2
					c0.1,2,2.2,2.3,3.9,2.3c3.5,0.5,6.8-0.1,10.1-1.3c1.7-0.6,3.3-1.6,4-3.4C228.2,78.5,228.1,77.1,226.8,76z"/>
			</g>
			<g>
				<path class="st11" d="M249.7,20.5c-1-1.2-2.2-2-3.5-2.8c-3.5-3.3-7.2-6.2-12.4-3.6c-3.5,1.8-7.2,3-11.1,3.7
					c-1.2,0.1-2.4,0.3-3.4,1.1c-2.7,0.6-4.3,2.4-5.2,4.8c-1.1,2.7-0.5,3.5,2.3,3.5c1.1,0,2.3-0.1,3.4-0.1c9.3-0.1,18.7-0.6,27.4,4.1
					c1.2,0.7,2.7,1,4.1,0.9c1.1,0,1.9-0.5,1.8-1.7C252.8,26.8,252.7,23.1,249.7,20.5z"/>
			</g>
			<g>
				<path class="st11" d="M262.9,93.8c-0.4-1.7-0.6-4.4-2.3-4.5c-1.8-0.1-1.8,2.7-2.5,4.3c-0.5,1.1-1,2.1-1.5,3.2
					c-0.5,0.9-1.1,1.8-1.6,2.7c-5.5,9.2-11.8,17.6-21.7,22.6c-1.2,0.6-3.3,1.1-2.8,2.6c0.6,2,2.9,1.4,4.5,1.3
					c0.8-0.1,1.7-0.3,2.5-0.6c3.3-1.1,6.6-1.6,10.1-1.8c3.6-0.2,7.1-1.2,10.1-3.5c1.3-0.7,2-1.8,2-3.3c0.4-2.8,1.3-5.5,2.4-8.1
					C263.9,103.8,264.1,98.8,262.9,93.8z"/>
			</g>
			<g>
				<path class="st11" d="M217,92.5c-5.5,0.6-10.9,0.4-16-1.9c-1.8-1.4-3.5-2.7-5.3-4.1c-1-1.4-1.9-2.7-2.9-4.1
					c-0.6-1.1-1.1-2.2-1.8-3.1c-1.2-1.5-1.9-4.6-4-4.1s-2.1,3.4-2.5,5.5c0,0.6-0.1,1.1-0.1,1.7c0.5,0.4,0.5,0.8,0,1.1
					c0,0.4,0.1,0.8,0.1,1.2c0.6,0.7,0.4,1.5,0.4,2.3c0.3,5.9,0.9,6.4,6.6,6.5c1.2,0,2.2,0.4,2.9,1.4c0.6,0.9,1.1,2,2.4,2.3
					c2.1,1.6,4.5,1.8,7,1.6c8.5,0.4,16.2-2.6,17.2-6.9C219.6,92.2,218.3,92.3,217,92.5z"/>
			</g>
			<path class="st13" d="M265.1,117.4c-0.2,0.5-0.5,0.7-1,0.4c0.2-0.3,0.4-0.5,0.6-0.8C264.9,117.1,265,117.3,265.1,117.4z"/>
			<path class="st13" d="M205.1,69.9c0.1-0.2,0.2-0.5,0.3-0.7C205.3,69.5,205.2,69.7,205.1,69.9z"/>
			<g>
				<g>
					<path class="st11" d="M171.7,94.6c-0.1,0.1-0.2,0.3-0.3,0.5C171.6,94.9,171.6,94.7,171.7,94.6z"/>
				</g>
				<g>
					<path class="st11" d="M192.9,30.9c-0.6-0.1-1.2,0-1.7,0.5c-2.4-0.3-4.7,1.1-7.4-0.3c-3.1-1.6-6.4-2.9-9.9-3.5
						c-7.8-1.4-13.3,2.5-14.3,10.3c-0.4,2.8-1.3,5.5-3.3,7.5c-7,6.9-7.8,14.6-3.4,23.1c0.1,0.3,0.3,0.5,0.4,0.8
						c0.5,4.4,0.9,8.8,5.7,11c2.3,2.2,4.4,4.4,6.1,7.1c1.8,3.1,3.7,6.2,5.5,9.3c0.2-0.1,0.3-0.4,0.5-0.6c-0.1,0.2-0.3,0.5-0.5,0.6
						c0.7,1.6,1.6,3.2,2.8,4.4c1.4,1.8,2.8,3.7,5.4,2.7c2.6-1,2.2-3.5,2.1-5.6c-0.1-0.9-0.3-1.9-0.6-2.8c-1.7-4.9-3.5-9.8-5.2-14.7
						c-0.6-2.5-1.1-5-1.7-7.5c0-0.4,0-0.8-0.1-1.2c0-0.2,0-0.4,0-0.6c-0.1-0.8-0.2-1.6-0.2-2.4c0.3-0.9,0.2-1.8,0-2.7
						c0.1-0.6,0.2-1.2,0.2-1.8c0-0.2,0-0.4,0-0.6c1.1-6.4,4.5-11.6,9.2-16c4.2-3.8,9-6.7,13.8-9.6c3.4-2.1,6.9-4,9.9-6.8
						C201.8,28.6,197.4,29.8,192.9,30.9z M171.5,95c0.1-0.2,0.2-0.3,0.3-0.5C171.6,94.7,171.6,94.9,171.5,95z"/>
				</g>
				<g>
					<path class="st11" d="M184.9,87c0-0.8,0.3-1.6-0.4-2.3C184.3,85.5,184.5,86.3,184.9,87z"/>
				</g>
				<g>
					<path class="st11" d="M184.4,82.4c0,0.4,0,0.8,0,1.1C184.9,83.1,184.9,82.8,184.4,82.4z"/>
				</g>
			</g>
			<g>
				<path class="st11" d="M212.3,123.4c-3.5,0.8-6.9,0.1-9.9-1.7c-8-4.6-16.6-7.4-25.4-10.2c-8.8-2.8-14.2-8.8-16.6-17.7
					c-0.4-1.7-0.8-3.3-1.7-4.8c-0.6-1-1.1-2.1-2.5-2.1c-1.5,0.1-2.1,1.3-2.5,2.4c-1.2,3.5-2.5,7-3.5,10.5c-0.7,2.5-0.4,4.9,2,6.7
					c1.1,0.8,2.1,1.7,2.5,3.1c2.8,8.4,9,12.6,17.4,14.3c3.3,0.6,6.4,1.8,8.8,4.4c0.4,0.6,0.8,1.1,1.2,1.7c2.6,6.1,4.2,6.7,9.9,3.9
					c4-2,8.1-3.2,12.5-3.8c2-0.3,4-0.1,5.9-0.7c2.2-0.6,3.7-1.9,3.8-4.4C214.2,123.7,213.8,123,212.3,123.4z"/>
			</g>
			<g>
				<g>
					<path class="st14" d="M309.2,154.5c-2.5-5.1-4.5-10.4-5.6-16c-0.5-2.6-1.9-5.1-4.9-5.2c-3.3-0.1-4.7-1.8-5.7-4.5
						c-0.2-1.4-0.9-2.6-2-3.5c-0.4-1.1-1.3-1.8-2.3-2.3c-1.6-1.6-3.7-2.4-5.9-2.7c-0.4,0-0.8,0-1.1-0.1c-2-0.5-3.9-0.1-5.8,0.6
						c-1.8,0.7-4.3,1.3-4.6,3.3c-0.3,2.1,1.7,3.6,3.5,4.7c3,2.5,6.1,5,9.1,7.4c0.2,0.2,0.4,0.4,0.6,0.6l0,0l0,0
						c0.7,1.2,1.7,2.1,2.8,2.9c-1.9,0.4-2.7-1.6-4.3-1.9c-1.9-1.6-4.3-2.3-6.5-3.1c-3.9-1.3-7.8-2.3-11,1.5
						c-0.5,0.2-0.8,0.6-0.9,1.2c-4,6.8-2.6,11.9,4.3,14.8c2.3,1,4.7,1.6,7,2.4c1.1,0.8,2.4,1.1,3.6,1.5c3.2,1.6,6.4,3.3,8.9,6
						c2.4,2.6,3.7,2.6,5.9-0.3c1.8-2.4,4.1-3.8,7-4.5c3.4-0.3,6.8,0.5,10.4,1.3C310.9,156.9,310.2,155.6,309.2,154.5z"/>
				</g>
				<path class="st14" d="M284,136.2c0.2,0.2,0.4,0.4,0.6,0.6"/>
				<line class="st0" x1="284.5" y1="136.8" x2="284.5" y2="136.8"/>
			</g>
			<g>
				<path class="st14" d="M155.7,123.9c-4.2-2.4-8.7-0.2-13.1-0.5c2.3-1.4,4.6-2.6,6.9-3.9c2.3-1.2,2.6-2.5,0.8-4.5
					c-1.9-2.2-4.5-3.5-6.9-5.1c-1.8-1.2-2.9-0.8-3.9,1.1c-2.2,4.1-3.3,4.7-7.7,3.2c-3.1-1-5.9-1-8.7,0.9c-2.5,2.3-5.1,4.6-7.6,6.9
					l-0.1,0.1c-0.9,1.7-2.9,2.6-3.4,4.6c7-3.3,10.4-2.5,16.1,3.5c4.3,4.6,7.5,5.3,13.2,2.6c1.9-0.9,3.9-1.1,5.2,0.6
					c1.7,2.1,2.5,1.1,3.4-0.4c0.7-1.1,1.4-2.3,2-3.4c1.1-2.1,2.7-3.6,5.1-3.9C157.1,124.7,156.4,124.2,155.7,123.9z"/>
			</g>
		</g>
		<g class="st15">
			<g>
				<pattern  id="SVGID_52_" xlink:href="#SVGID_4_" patternTransform="matrix(1 0 0 -1 1387.7524 -17335.9609)">
				</pattern>
				<path class="st16" d="M246.4,154.1c-2.6,0.1-4.9-0.8-7.1-1.9c-4.1-1.9-8-2.1-12.5-0.7c-8.5,2.7-16.9,1.7-25-2.2
					c-1.5-0.8-3-1.7-4.2-2.9c-2.9-3.1-2.4-6.2,1.6-7.9c3.3-1.4,6.8-2,10.3-2.2c4.8-0.3,9.7-0.4,14.5-0.9c7.9-0.9,14.9-4.6,22.1-7.6
					c4.3-1.8,8.7-3.4,13.3-4.3c0.9-0.2,1.9-0.3,2.8-0.3c1.1-0.1,2.2-0.1,2.7,1.1c0.5,1.1-0.2,2-0.9,2.8c-0.4,0.5-0.8,1.1-1.3,1.5
					c-4.8,4.1-6.6,9.2-6.2,15.5C256.9,150.2,252.6,154.1,246.4,154.1z"/>
				<pattern  id="SVGID_53_" xlink:href="#SVGID_5_" patternTransform="matrix(1 0 0 -1 1387.7833 -17335.9004)">
				</pattern>
				<path class="st17" d="M262.8,124.1L262.8,124.1c0.9,0,1.1,0.2,1.2,0.5c0.2,0.5,0,0.8-0.7,1.7l-0.1,0.1c-0.1,0.1-0.2,0.2-0.3,0.3
					c-0.3,0.4-0.6,0.8-0.9,1c-4.9,4.1-7,9.4-6.6,16.3c0.2,2.6-0.5,4.8-2,6.4c-1.6,1.7-4.1,2.6-7,2.6h-0.1c-0.1,0-0.2,0-0.3,0
					c-2.3,0-4.4-0.9-6.4-1.8c-2.5-1.1-4.9-1.7-7.4-1.7c-1.9,0-3.8,0.3-5.8,0.9c-3.1,1-6.2,1.5-9.3,1.5c-4.9,0-9.9-1.2-14.9-3.7
					c-1.7-0.8-2.9-1.7-3.9-2.7c-0.9-0.9-1.8-2.3-1.5-3.7c0.3-1.3,1.7-2.2,2.8-2.6c2.8-1.2,6-1.9,10-2.1c1.8-0.1,3.6-0.2,5.3-0.3
					c3-0.1,6.2-0.3,9.2-0.6c6.4-0.7,12.3-3.3,18-5.8c1.4-0.6,2.9-1.3,4.3-1.9c3.8-1.6,8.2-3.3,13.1-4.3c0.9-0.2,1.9-0.3,2.7-0.3
					C262.4,124.1,262.6,124.1,262.8,124.1 M262.8,123.1c-0.2,0-0.4,0-0.6,0c-0.9,0-1.9,0.1-2.8,0.3c-4.6,0.9-9,2.5-13.3,4.3
					c-7.2,3-14.2,6.7-22.1,7.6c-4.8,0.5-9.7,0.6-14.5,0.9c-3.5,0.2-7,0.8-10.3,2.2c-3.9,1.7-4.5,4.7-1.6,7.9
					c1.2,1.3,2.6,2.2,4.2,2.9c5,2.4,10.1,3.8,15.3,3.8c3.2,0,6.4-0.5,9.6-1.5c1.9-0.6,3.7-0.9,5.5-0.9c2.4,0,4.7,0.5,7,1.6
					c2.2,1,4.4,1.9,6.8,1.9c0.1,0,0.2,0,0.3,0h0.1c6.2,0,10.4-3.9,10-10.1c-0.4-6.3,1.4-11.4,6.2-15.5c0.5-0.4,0.9-1,1.3-1.5
					c0.7-0.8,1.4-1.7,0.9-2.8C264.5,123.2,263.7,123.1,262.8,123.1L262.8,123.1z"/>
			</g>
			<g>
				<pattern  id="SVGID_54_" xlink:href="#SVGID_6_" patternTransform="matrix(1 0 0 -1 1346.2925 -17342.0703)">
				</pattern>
				<path class="st18" d="M154.9,177.3c-0.9-4.9-0.5-9.4,1.1-13.6c2.4-6,2.2-11.6-0.3-17.5c-0.8-2-1.3-4.2-1.4-6.4
					c-0.2-6.2,3.6-10.3,9.8-10.5c3.1-0.1,6.1,0,9,1.1c2.1,0.8,3,1.8,2.1,4.1c-1.1,2.8-2,5.7-3.1,8.9c1.7-0.2,2.6-1.5,3.7-2.4
					c2.6-2.3,5.4-4.2,9-2.5s4.9,5,5,8.7c0.2,7.5-2.7,13.8-8.6,18.5c-2.3,1.8-4.6,3.7-6.4,6.1c-1.3,1.7-3,2.5-5,1.4
					c-4.6-2.6-8.4-1.1-12.1,1.8C157,175.6,156.1,176.3,154.9,177.3z"/>
				<pattern  id="SVGID_55_" xlink:href="#SVGID_7_" patternTransform="matrix(1 0 0 -1 1346.4924 -17342.0996)">
				</pattern>
				<path class="st19" d="M166,130.3c2.8,0,5,0.3,7,1c0.9,0.3,1.5,0.7,1.7,1.1c0.2,0.4,0.1,0.9-0.2,1.7c-0.8,2-1.4,4-2.2,6.1
					c-0.3,0.9-0.6,1.9-1,2.8l-0.5,1.5l1.6-0.2c1.7-0.2,2.8-1.3,3.7-2.1c0.2-0.2,0.4-0.3,0.5-0.5c1.7-1.5,3.5-2.9,5.6-2.9
					c0.8,0,1.5,0.2,2.3,0.6c2.8,1.3,4.3,3.9,4.4,7.8c0.2,7.2-2.5,13.2-8.2,17.6c-2.2,1.7-4.7,3.7-6.6,6.3c-0.8,1-1.6,1.5-2.4,1.5
					c-0.4,0-0.9-0.1-1.3-0.4c-1.7-1-3.4-1.4-5.1-1.4c-2.6,0-5.2,1.1-8.1,3.4c-0.5,0.4-1,0.8-1.6,1.3c-0.5-4.1,0-7.8,1.3-11.3
					c2.4-6.1,2.3-12-0.3-18.2c-0.8-1.9-1.2-4-1.3-6c-0.2-5.7,3.2-9.3,8.9-9.5C164.9,130.3,165.4,130.3,166,130.3 M166,129.3
					c-0.6,0-1.1,0-1.7,0c-6.2,0.2-10,4.3-9.8,10.5c0.1,2.2,0.5,4.4,1.4,6.4c2.4,5.8,2.6,11.5,0.3,17.5c-1.6,4.1-2,8.6-1.1,13.6
					c1.2-1,2.1-1.7,2.9-2.4c2.4-1.9,4.8-3.2,7.5-3.2c1.5,0,3,0.4,4.6,1.3c0.6,0.4,1.2,0.5,1.8,0.5c1.2,0,2.3-0.8,3.2-1.9
					c1.8-2.4,4.1-4.2,6.4-6.1c5.9-4.7,8.8-10.9,8.6-18.5c-0.1-3.7-1.3-7-5-8.7c-1-0.4-1.9-0.6-2.7-0.6c-2.4,0-4.3,1.5-6.3,3.2
					c-1,0.9-2,2.1-3.7,2.4c1.1-3.2,2-6.1,3.1-8.9c0.9-2.3,0-3.3-2.1-4.1C170.9,129.5,168.5,129.3,166,129.3L166,129.3z"/>
			</g>
			<g>
				<pattern  id="SVGID_56_" xlink:href="#SVGID_8_" patternTransform="matrix(1 0 0 -1 1377.8146 -17247.1016)">
				</pattern>
				<path class="st20" d="M249.6,95.1c2.7-7.9,3-15.5,1.2-23.2c-3-12.7-9.9-19.2-22.9-20.9c-15.4-2.1-28.6,2.5-39.4,13.8
					c-0.5,0.5-0.9,1.2-1.4,1.8c-1.3-1.2-1.7-2.2-0.8-3.5c4.2-6.5,7.8-13.3,12.8-19.3c5.7-6.9,12.8-10.4,21.9-9.3
					c5.7,0.6,11.4,0.8,16.7,3.4c1.1,0.5,2.3,1.1,3.1,2c7.7,7.8,14.7,16.1,17.1,27.2c1.9,8.7-1,16.6-5,24.1
					C252.1,92.4,251.8,94.3,249.6,95.1z"/>
				<pattern  id="SVGID_57_" xlink:href="#SVGID_9_" patternTransform="matrix(1 0 0 -1 1377.7587 -17247)">
				</pattern>
				<path class="st21" d="M217.8,34.2v1c1,0,2,0.1,3,0.2c0.9,0.1,1.9,0.2,2.8,0.3c4.6,0.5,9.3,0.9,13.6,3c1.1,0.5,2.1,1.1,2.8,1.8
					c8.5,8.6,14.6,16.5,16.8,26.7c1.9,8.7-1.4,16.6-4.8,23.2c1.4-6.2,1.3-12.4-0.2-18.8c-3.1-13.2-10.4-19.9-23.7-21.7
					c-2.4-0.3-4.8-0.5-7.1-0.5c-12.7,0-23.8,4.9-33.1,14.6c-0.3,0.3-0.5,0.6-0.8,0.9c-0.4-0.6-0.2-0.9,0.1-1.4
					c1.2-1.9,2.4-3.8,3.5-5.6c2.8-4.6,5.7-9.4,9.2-13.6c5.1-6.2,11-9.1,18-9.1L217.8,34.2 M217.8,34.2c-7.6,0-13.8,3.4-18.8,9.5
					c-4.9,6-8.6,12.8-12.8,19.3c-0.8,1.3-0.5,2.3,0.8,3.5c0.5-0.6,0.9-1.2,1.4-1.8c9.1-9.5,19.9-14.3,32.4-14.3c2.3,0,4.6,0.2,7,0.5
					c13,1.7,19.9,8.2,22.9,20.9c1.8,7.7,1.5,15.4-1.2,23.2c2.2-0.8,2.4-2.7,3.1-4c4-7.5,6.8-15.4,5-24.1
					c-2.4-11.1-9.4-19.4-17.1-27.2c-0.8-0.9-2-1.5-3.1-2c-5.3-2.6-11-2.8-16.7-3.4C219.9,34.2,218.8,34.2,217.8,34.2L217.8,34.2z"/>
			</g>
			<g>
				<pattern  id="SVGID_58_" xlink:href="#SVGID_10_" patternTransform="matrix(1 0 0 -1 1384.4941 -17304.127)">
				</pattern>
				<path class="st22" d="M243.1,91.4c-1.9,7.2-5,13.7-10,19.3c-3.2,3.5-7.7,4.1-12,4.6c-9.5,1.2-18.1-1.2-25.7-7.1
					c-1.6-1.2-3.7-3-2.6-5.2c1.2-2.3,3.6-1,5.4-0.5c3.5,0.9,7,0.5,10.5-0.2c5.4-1.1,10.8-2.2,16.2-3.4c5.8-1.2,11.1-3.4,16-6.7
					C241.5,91.8,242,91.1,243.1,91.4z"/>
				<pattern  id="SVGID_59_" xlink:href="#SVGID_11_" patternTransform="matrix(1 0 0 -1 1384.594 -17304.0996)">
				</pattern>
				<path class="st23" d="M241.7,92.9c-2,6.7-5,12.3-9.3,17.1c-2.9,3.2-7.1,3.8-11.3,4.3H221c-1.5,0.2-3.1,0.3-4.6,0.3
					c-7.3,0-14.2-2.4-20.3-7.2c-1.9-1.5-2.9-2.6-2.3-4c0.3-0.7,0.7-0.8,1.2-0.8c0.6,0,1.3,0.2,2.1,0.5c0.3,0.1,0.7,0.2,1,0.3
					c1.5,0.4,3,0.6,4.6,0.6c2.3,0,4.5-0.4,6.3-0.7c3.8-0.7,7.6-1.5,11.3-2.3c1.7-0.3,3.3-0.7,5-1c5.8-1.2,11.3-3.5,16.3-6.9
					C241.6,93,241.6,93,241.7,92.9 M242.7,91.3c-0.8,0-1.2,0.6-1.7,0.9c-4.9,3.3-10.2,5.5-16,6.7c-5.4,1.1-10.8,2.3-16.2,3.4
					c-2,0.4-4,0.7-6.1,0.7c-1.5,0-2.9-0.2-4.4-0.5c-1-0.3-2.2-0.8-3.3-0.8c-0.8,0-1.6,0.3-2.1,1.3c-1.1,2.2,1,4,2.6,5.2
					c6.3,4.9,13.3,7.4,21,7.4c1.5,0,3.1-0.1,4.7-0.3c4.3-0.6,8.8-1.1,12-4.6c5-5.5,8.1-12,10-19.3C243,91.4,242.8,91.3,242.7,91.3
					L242.7,91.3z"/>
			</g>
			<g>
				<pattern  id="SVGID_60_" xlink:href="#SVGID_12_" patternTransform="matrix(1 0 0 -1 1377.9766 -17222.4004)">
				</pattern>
				<path class="st24" d="M207.3,9.6c3.8,0,5.9,2.8,4.6,6.1c-1.5,3.8-4.3,6.9-6.4,10.4c-0.3,0.6-0.8,0.7-1.4,0.3
					c-3.9-2.3-8.5-2.8-12.7-4c-1.8-0.5-3.4-1.3-4.5-2.8c-1.5-1.9-1.2-3.6,1.1-4.5c0.9-0.3,1.9-0.6,2.8-0.5c4.4,0.3,8.2-0.9,11.8-3.4
					C203.9,10.3,205.6,9.7,207.3,9.6z"/>
				<pattern  id="SVGID_61_" xlink:href="#SVGID_13_" patternTransform="matrix(1 0 0 -1 1377.7335 -17222.4004)">
				</pattern>
				<path class="st25" d="M207.3,9.6v1c1.6,0,2.8,0.5,3.5,1.5c0.6,0.9,0.6,2,0.1,3.3c-0.9,2.4-2.4,4.4-3.9,6.6
					c-0.8,1.2-1.7,2.4-2.4,3.7l0,0c0,0,0,0-0.1,0c-3-1.7-6.2-2.5-9.3-3.2c-1.2-0.3-2.5-0.6-3.7-0.9c-1.8-0.5-3.1-1.3-4-2.5
					c-0.6-0.7-0.8-1.3-0.7-1.8s0.8-0.9,1.4-1.1c0.8-0.3,1.5-0.5,2.1-0.5c0.1,0,0.2,0,0.2,0c0.5,0,0.9,0,1.4,0
					c3.9,0,7.5-1.2,11.1-3.6c1.4-0.9,2.9-1.5,4.3-1.5L207.3,9.6 M207.3,9.6L207.3,9.6c-1.7,0.1-3.4,0.7-4.9,1.7
					c-3.2,2.2-6.7,3.4-10.5,3.4c-0.4,0-0.9,0-1.3,0c-0.1,0-0.2,0-0.3,0c-0.8,0-1.7,0.2-2.5,0.5c-2.3,0.9-2.7,2.5-1.1,4.5
					c1.2,1.5,2.8,2.3,4.5,2.8c4.3,1.2,8.8,1.7,12.7,4c0.2,0.1,0.4,0.2,0.6,0.2c0.3,0,0.6-0.2,0.8-0.5c2.1-3.5,4.9-6.6,6.4-10.4
					C213.2,12.4,211.1,9.6,207.3,9.6L207.3,9.6z"/>
			</g>
			<g>
				<pattern  id="SVGID_62_" xlink:href="#SVGID_14_" patternTransform="matrix(1 0 0 -1 1320.7916 -17287.0977)">
				</pattern>
				<path class="st26" d="M128.8,83.7c0.5-2.5,1.5-5.5,1.3-8.7c-0.1-1.1,0.9-0.7,1.4-0.2c1.2,1.1,2,2.5,2.8,3.9
					c2.1,3.8,4.9,5.5,9.4,4.5c3.3-0.8,5.4,1.5,4.7,4.8c-0.6,2.7-1.4,5.3-2.3,7.9c-0.6,1.6-1.9,2.2-3.4,1.4
					c-4.1-2.2-8.3-4.4-11.7-7.6C129.5,88.3,128.7,86.4,128.8,83.7z"/>
				<pattern  id="SVGID_63_" xlink:href="#SVGID_15_" patternTransform="matrix(1 0 0 -1 1320.7916 -17287.0996)">
				</pattern>
				<path class="st27" d="M131.1,75.8c1,1,1.6,2.2,2.3,3.4c2,3.6,4.5,5.3,7.8,5.3c0.8,0,1.7-0.1,2.6-0.3c0.4-0.1,0.7-0.1,1-0.1
					c0.9,0,1.5,0.3,2,0.8c0.5,0.7,0.7,1.7,0.4,2.9c-0.6,2.7-1.5,5.3-2.3,7.8c-0.2,0.5-0.5,1.1-1.2,1.1c-0.3,0-0.5-0.1-0.8-0.2
					c-4-2.1-8.1-4.3-11.4-7.4c-1.3-1.3-1.9-2.9-1.9-5.2c0.1-0.6,0.3-1.2,0.4-1.8C130.6,80.1,131.1,78,131.1,75.8 M130.5,74.3
					c-0.3,0-0.5,0.2-0.4,0.7c0.2,3.2-0.8,6.2-1.3,8.7c-0.1,2.7,0.7,4.6,2.2,6c3.4,3.2,7.5,5.4,11.7,7.6c0.5,0.2,0.9,0.4,1.3,0.4
					c1,0,1.7-0.6,2.1-1.8c0.9-2.6,1.7-5.2,2.3-7.9c0.6-2.9-0.9-4.9-3.4-4.9c-0.4,0-0.8,0-1.3,0.2c-0.9,0.2-1.7,0.3-2.4,0.3
					c-3.1,0-5.3-1.7-7-4.8c-0.8-1.4-1.6-2.8-2.8-3.9C131.2,74.6,130.8,74.3,130.5,74.3L130.5,74.3z"/>
			</g>
			<g>
				<pattern  id="SVGID_64_" xlink:href="#SVGID_16_" patternTransform="matrix(1 0 0 -1 1389.5 -17271.0098)">
				</pattern>
				<path class="st28" d="M201.5,62.3c-4,3.3-4,7.9-4,12.4c0,1.4,0.5,2.7,2,3.1c1.7,0.4,3.2-0.2,4.1-1.9c1-1.9,1.4-3.9,1.6-6l0,0
					c0.1-0.2,0.2-0.5,0.3-0.7c0.8-6.2,6.7-7.4,11.1-10.8C210.5,57.8,205.6,58.5,201.5,62.3z"/>
				<pattern  id="SVGID_65_" xlink:href="#SVGID_17_" patternTransform="matrix(1 0 0 -1 1389.5 -17271)">
				</pattern>
				<path class="st29" d="M212.8,59.2c0.3,0,0.5,0,0.8,0c-0.5,0.3-1,0.6-1.5,0.8c-3.5,2-7,4-7.7,8.9l-0.2,0.6l-0.1,0.2v0.2l0,0
					c-0.1,2.1-0.6,3.9-1.4,5.5c-0.5,0.9-1.2,1.4-2.2,1.4c-0.2,0-0.5,0-0.8-0.1c-0.4-0.1-1.2-0.3-1.2-2.1c0-4.2,0-8.6,3.7-11.7l0,0
					l0,0C205,60.4,208.3,59.2,212.8,59.2 M212.8,58.2c-4.3,0-8.1,1.1-11.3,4.1c-4,3.3-4,7.9-4,12.4c0,1.4,0.5,2.7,2,3.1
					c0.3,0.1,0.7,0.1,1,0.1c1.3,0,2.4-0.6,3.1-2c1-1.9,1.4-3.9,1.6-6l0,0c0.1-0.2,0.2-0.5,0.3-0.7c0.8-6.2,6.7-7.4,11.1-10.8
					C215.2,58.3,214,58.2,212.8,58.2L212.8,58.2z"/>
			</g>
			<g>
				<pattern  id="SVGID_66_" xlink:href="#SVGID_18_" patternTransform="matrix(1 0 0 -1 1405.7146 -17280.0371)">
				</pattern>
				<path class="st30" d="M218.7,70.7c-1.2-0.3-2.2,0.2-3.3,0.3c-0.6,0-1.2,0-1.5-0.6c-0.4-0.7-0.1-1.2,0.4-1.7
					c1-1.1,4.5-1.9,5.9-1.2c0.8,0.4,1.3,1,1.2,1.9s-0.8,1.2-1.6,1.2C219.4,70.8,218.9,70.7,218.7,70.7z"/>
				<pattern  id="SVGID_67_" xlink:href="#SVGID_19_" patternTransform="matrix(1 0 0 -1 1405.759 -17280.0996)">
				</pattern>
				<path class="st31" d="M218.8,68.3L218.8,68.3c0.6,0,0.9,0.1,1,0.2c0.7,0.3,0.6,0.7,0.6,0.9c0,0.2,0,0.3-0.7,0.4
					c-0.1,0-0.3,0-0.4,0c-0.1,0-0.2,0-0.3,0h-0.1c-0.3-0.1-0.6-0.1-0.9-0.1c-0.6,0-1.1,0.1-1.6,0.2c-0.3,0.1-0.7,0.1-0.9,0.2
					c-0.1,0-0.2,0-0.3,0c-0.2,0-0.3,0-0.3,0c-0.1-0.1-0.1-0.2,0.2-0.6C215.5,68.9,217.3,68.3,218.8,68.3 M218.8,67.3
					c-1.6,0-3.7,0.6-4.5,1.4c-0.5,0.5-0.7,1.1-0.4,1.7c0.3,0.5,0.7,0.6,1.2,0.6c0.1,0,0.2,0,0.3,0c0.8,0,1.6-0.4,2.5-0.4
					c0.2,0,0.5,0,0.8,0.1c0.1,0,0.4,0,0.6,0c0.1,0,0.3,0,0.4,0c0.8-0.1,1.5-0.3,1.6-1.2c0.1-0.9-0.4-1.6-1.2-1.9
					C219.9,67.4,219.4,67.3,218.8,67.3L218.8,67.3z"/>
			</g>
			<g>
				<pattern  id="SVGID_68_" xlink:href="#SVGID_20_" patternTransform="matrix(1 0 0 -1 1416.4 -17275.1562)">
				</pattern>
				<path class="st32" d="M240.9,68.6c-2.9-4.5-11.2-7.4-16.5-5.8c4.2,3,7,7,9.2,11.5c0.7,2.5,1.6,4.9,1.7,7.5
					c0,0.6,0.2,1.4,0.9,1.7c0.8,0.3,1.5-0.3,2-0.9c1.7-2.1,3-4.4,3.3-7.2C242.1,73.1,242.3,70.8,240.9,68.6z"/>
				<pattern  id="SVGID_69_" xlink:href="#SVGID_21_" patternTransform="matrix(1 0 0 -1 1416.4 -17275.1992)">
				</pattern>
				<path class="st33" d="M227.7,63.4c4.7,0,10.2,2.6,12.3,5.8c1,1.6,1.2,3.4,0.5,6.1v0.1v0.1c-0.2,2.3-1.2,4.4-3,6.6
					c-0.4,0.5-0.7,0.6-0.8,0.6h-0.1c0,0-0.2-0.1-0.2-0.8c-0.1-2.1-0.7-4.1-1.3-6c-0.2-0.6-0.3-1.1-0.5-1.7v-0.1V74
					c-2.2-4.5-4.8-7.8-7.8-10.5C227.1,63.4,227.4,63.4,227.7,63.4 M227.7,62.4c-1.2,0-2.3,0.2-3.3,0.5c4.2,3,7,7,9.2,11.5
					c0.7,2.5,1.6,4.9,1.7,7.5c0,0.6,0.2,1.4,0.9,1.7c0.2,0.1,0.3,0.1,0.5,0.1c0.6,0,1.1-0.5,1.5-0.9c1.7-2.1,3-4.4,3.3-7.2
					c0.6-2.4,0.8-4.7-0.6-6.9C238.5,65,232.7,62.4,227.7,62.4L227.7,62.4z"/>
			</g>
			<g>
				<pattern  id="SVGID_70_" xlink:href="#SVGID_22_" patternTransform="matrix(1 0 0 -1 1445 -17251.5527)">
				</pattern>
				<path class="st34" d="M292,88.9c-0.2-0.6-0.4-1.3-0.6-1.9c-0.4-1.4-0.7-2.9-1.6-4.1c-1-3.6-3.4-6.4-5.2-9.5
					c-1.4-2.5-2.2-5-1.1-7.9c1.5-3.8,0.6-7.2-1.9-10.2c-4.5-5.4-9.5-10.2-15.7-13.6c-3.9-2.1-7.9-3.4-12.9-2.8
					c3.8,2.4,6.7,5,8.6,8.6c3.4,6.2,4.1,12.9,3.1,19.7c-0.7,4.8-0.7,9.2,2.7,13.2c1.8,2.2,2.6,5,3.4,7.8c2,7.2,1,14.1-1.3,21
					c-1.6,2.6-3.2,5.1-4.8,7.7c0.1,0.1,0.3,0.3,0.4,0.4c2.9-1.4,5.5-3.2,7.6-5.7c2.3-1.7,3.4-4.2,4.5-6.8c1-2.5,1.7-5,2.9-7.4
					c2-4.1,5.4-6.4,10-6.2C292.5,91.5,292.6,90.6,292,88.9z"/>
				<pattern  id="SVGID_71_" xlink:href="#SVGID_23_" patternTransform="matrix(1 0 0 -1 1445 -17251.5996)">
				</pattern>
				<path class="st35" d="M256,39.8c3.1,0.1,6.1,1,9.4,2.8c5.4,3,10.5,7.4,15.4,13.4c2.4,2.9,3,6,1.7,9.2c-1.4,3.5-0.1,6.5,1.2,8.7
					c0.5,0.9,1.1,1.8,1.7,2.7c1.4,2.1,2.7,4.2,3.4,6.5l0.1,0.2l0.1,0.2c0.6,0.8,0.9,1.7,1.1,2.7c0.1,0.3,0.2,0.7,0.3,1l0.2,0.6
					c0.1,0.4,0.3,0.9,0.4,1.3c0.2,0.7,0.3,1,0.3,1.1c-0.1,0-0.3,0.1-0.8,0.1c-0.1,0-0.2,0-0.4,0c-0.2,0-0.5,0-0.7,0
					c-4.6,0-8.1,2.3-10.3,6.7c-0.7,1.5-1.3,3.1-1.9,4.7c-0.3,0.9-0.7,1.9-1,2.8c-1,2.4-2,4.8-4.2,6.4l0,0.1l-0.1,0.1
					c-1.4,1.7-3.1,3.1-5,4.2l3.4-5.5l0.1-0.1v-0.1c2.8-8.2,3.2-15,1.3-21.6c-0.8-2.7-1.6-5.8-3.6-8.2c-3-3.6-3.1-7.6-2.4-12.4
					c1.1-7.7,0-14.3-3.2-20.3C261,44.3,258.9,42,256,39.8 M255.4,38.8c-0.8,0-1.6,0-2.4,0.1c3.8,2.4,6.7,5,8.6,8.6
					c3.4,6.2,4.1,12.9,3.1,19.7c-0.7,4.8-0.7,9.2,2.7,13.2c1.8,2.2,2.6,5,3.4,7.8c2,7.2,1,14.1-1.3,21c-1.6,2.6-3.2,5.1-4.8,7.7
					c0.1,0.1,0.3,0.3,0.4,0.4c2.9-1.4,5.5-3.2,7.6-5.7c2.3-1.7,3.4-4.2,4.5-6.8c1-2.5,1.7-5,2.9-7.4c1.9-3.9,5.1-6.2,9.4-6.2
					c0.2,0,0.4,0,0.7,0c0.2,0,0.3,0,0.4,0c2,0,2-0.9,1.4-2.5c-0.2-0.6-0.4-1.3-0.6-1.9c-0.4-1.4-0.7-2.9-1.6-4.1
					c-1-3.6-3.4-6.4-5.2-9.5c-1.4-2.5-2.2-5-1.1-7.9c1.5-3.8,0.6-7.2-1.9-10.2c-4.5-5.4-9.5-10.2-15.7-13.6
					C262.6,40,259.3,38.8,255.4,38.8L255.4,38.8z"/>
			</g>
			<g>
				<pattern  id="SVGID_72_" xlink:href="#SVGID_24_" patternTransform="matrix(1 0 0 -1 1401.4966 -17288.1113)">
				</pattern>
				<path class="st36" d="M226.8,76c-1.1-0.9-2.5-0.9-3.4-0.1c-3,2.6-6.8,3.2-10.5,4.2c-1.4,0.4-3.5,0.4-3.4,2.2
					c0.1,2,2.2,2.3,3.9,2.3c3.5,0.5,6.8-0.1,10.1-1.3c1.7-0.6,3.3-1.6,4-3.4C228.2,78.5,228.1,77.1,226.8,76z"/>
				<pattern  id="SVGID_73_" xlink:href="#SVGID_25_" patternTransform="matrix(1 0 0 -1 1401.4966 -17288.0996)">
				</pattern>
				<path class="st37" d="M225.1,76.3c0.4,0,0.8,0.2,1.1,0.5s1.2,1,0.5,2.8c-0.5,1.3-1.6,2.2-3.4,2.9c-2.4,0.9-4.9,1.4-7.2,1.4
					c-0.8,0-1.6-0.1-2.4-0.2h-0.1h-0.1h-0.2c-2.6,0-2.7-0.9-2.7-1.3s0.1-0.6,1.7-0.9c0.3-0.1,0.6-0.1,0.9-0.2
					c0.7-0.2,1.5-0.4,2.2-0.6c3-0.8,6-1.6,8.6-3.8C224.4,76.4,224.7,76.3,225.1,76.3 M225.1,75.3c-0.6,0-1.2,0.2-1.7,0.6
					c-3,2.6-6.8,3.2-10.5,4.2c-1.4,0.4-3.5,0.4-3.4,2.2c0.1,1.9,2,2.3,3.7,2.3c0.1,0,0.2,0,0.2,0c0.8,0.1,1.7,0.2,2.5,0.2
					c2.6,0,5.1-0.5,7.6-1.4c1.7-0.6,3.3-1.6,4-3.4c0.6-1.4,0.5-2.9-0.8-3.9C226.3,75.5,225.7,75.3,225.1,75.3L225.1,75.3z"/>
			</g>
			<g>
				<pattern  id="SVGID_74_" xlink:href="#SVGID_26_" patternTransform="matrix(1 0 0 -1 1405.582 -17225.8965)">
				</pattern>
				<path class="st38" d="M249.7,20.5c-1-1.2-2.2-2-3.5-2.8c-3.5-3.3-7.2-6.2-12.4-3.6c-3.5,1.8-7.2,3-11.1,3.7
					c-1.2,0.1-2.4,0.3-3.4,1.1c-2.7,0.6-4.3,2.4-5.2,4.8c-1.1,2.7-0.5,3.5,2.3,3.5c1.1,0,2.3-0.1,3.4-0.1c9.3-0.1,18.7-0.6,27.4,4.1
					c1.2,0.7,2.7,1,4.1,0.9c1.1,0,1.9-0.5,1.8-1.7C252.8,26.8,252.7,23.1,249.7,20.5z"/>
				<pattern  id="SVGID_75_" xlink:href="#SVGID_27_" patternTransform="matrix(1 0 0 -1 1405.582 -17225.9004)">
				</pattern>
				<path class="st39" d="M237.7,14.1c3,0,5.5,2.1,7.8,4.3l0.1,0.1l0.1,0.1c1.2,0.7,2.4,1.5,3.2,2.6l0.1,0.1l0.1,0.1
					c2.6,2.3,2.8,5.5,3.1,8.9v0.4c0,0.1,0,0.3-0.1,0.4s-0.3,0.2-0.8,0.2c-0.1,0-0.2,0-0.2,0c-1.2,0-2.4-0.3-3.4-0.8
					c-7-3.8-14.5-4.3-21.6-4.3c-1.5,0-3.1,0-4.6,0h-1.7c-0.5,0-1,0-1.5,0c-0.6,0-1.2,0-1.8,0h-0.1c-1.6,0-1.8-0.3-1.8-0.3
					s-0.2-0.3,0.4-1.8c0.9-2.4,2.4-3.7,4.5-4.2h0.2l0.2-0.1c0.7-0.5,1.6-0.8,2.9-0.9h0.1h0.1c4-0.8,7.8-2,11.3-3.8
					C235.4,14.4,236.6,14.1,237.7,14.1 M237.7,13.1c-1.2,0-2.5,0.3-3.9,1c-3.5,1.8-7.2,3-11.1,3.7c-1.2,0.1-2.4,0.3-3.4,1.1
					c-2.7,0.6-4.3,2.4-5.2,4.8c-1.1,2.7-0.5,3.5,2.3,3.5h0.1c1.1,0,2.2-0.1,3.3-0.1c2.1,0,4.2-0.1,6.3-0.1c7.2,0,14.4,0.5,21.1,4.2
					c1.2,0.6,2.5,0.9,3.9,0.9c0.1,0,0.2,0,0.3,0c1.1,0,1.9-0.5,1.8-1.7c-0.3-3.6-0.5-7.3-3.4-9.9c-1-1.2-2.2-2-3.5-2.8
					C243.6,15.3,241,13.1,237.7,13.1L237.7,13.1z"/>
			</g>
			<g>
				<pattern  id="SVGID_76_" xlink:href="#SVGID_28_" patternTransform="matrix(1 0 0 -1 1422.4244 -17302.0977)">
				</pattern>
				<path class="st40" d="M262.9,93.8c-0.4-1.7-0.6-4.4-2.3-4.5c-1.8-0.1-1.8,2.7-2.5,4.3c-0.5,1.1-1,2.1-1.5,3.2
					c-0.5,0.9-1.1,1.8-1.6,2.7c-5.5,9.2-11.8,17.6-21.7,22.6c-1.2,0.6-3.3,1.1-2.8,2.6c0.6,2,2.9,1.4,4.5,1.3
					c0.8-0.1,1.7-0.3,2.5-0.6c3.3-1.1,6.6-1.6,10.1-1.8c3.6-0.2,7.1-1.2,10.1-3.5c1.3-0.7,2-1.8,2-3.3c0.4-2.8,1.3-5.5,2.4-8.1
					C263.9,103.8,264.1,98.8,262.9,93.8z"/>
				<pattern  id="SVGID_77_" xlink:href="#SVGID_29_" patternTransform="matrix(1 0 0 -1 1422.3245 -17302.0996)">
				</pattern>
				<path class="st41" d="M260.5,90.3L260.5,90.3c0.6,0,0.9,1.2,1.2,2.7c0.1,0.4,0.1,0.7,0.2,1c1.2,5,0.9,9.8-0.9,14.2
					c-1,2.4-2,5.3-2.4,8.4v0.1v0.1c0,1.1-0.4,1.9-1.5,2.4H257h-0.1c-2.6,2-5.9,3.1-9.6,3.2c-3.9,0.2-7.3,0.8-10.4,1.8
					c-0.7,0.3-1.5,0.5-2.2,0.5c-0.3,0-0.5,0-0.8,0.1c-0.4,0-0.9,0.1-1.3,0.1c-1.1,0-1.3-0.3-1.4-0.8c-0.1-0.3,0.7-0.7,1.6-1.1
					c0.3-0.1,0.5-0.2,0.8-0.3c10.7-5.4,17.2-14.6,22.1-22.9c0.4-0.6,0.7-1.2,1.1-1.8l0.5-0.9l0,0l0,0l1.5-3.2
					c0.3-0.5,0.4-1.2,0.6-1.8C259.9,90.9,260.1,90.3,260.5,90.3 M260.5,89.3c-1.8,0-1.7,2.7-2.5,4.3c-0.5,1.1-1,2.1-1.5,3.2
					c-0.5,0.9-1.1,1.8-1.6,2.7c-5.5,9.2-11.8,17.6-21.7,22.6c-1.2,0.6-3.3,1.1-2.8,2.6c0.4,1.2,1.3,1.5,2.4,1.5
					c0.7,0,1.5-0.1,2.1-0.2c0.8-0.1,1.7-0.3,2.5-0.6c3.3-1.1,6.6-1.6,10.1-1.8c3.6-0.2,7.1-1.2,10.1-3.5c1.3-0.7,2-1.8,2-3.3
					c0.4-2.8,1.3-5.5,2.4-8.1c2-4.8,2.1-9.8,0.9-14.8C262.5,92.1,262.3,89.4,260.5,89.3L260.5,89.3L260.5,89.3z"/>
			</g>
			<g>
				<pattern  id="SVGID_78_" xlink:href="#SVGID_30_" patternTransform="matrix(1 0 0 -1 1376.4 -17287.9453)">
				</pattern>
				<path class="st42" d="M217,92.5c-5.5,0.6-10.9,0.4-16-1.9c-1.8-1.4-3.5-2.7-5.3-4.1c-1-1.4-1.9-2.7-2.9-4.1
					c-0.6-1.1-1.1-2.2-1.8-3.1c-1.2-1.5-1.9-4.6-4-4.1s-2.1,3.4-2.5,5.5c0,0.6-0.1,1.1-0.1,1.7c0.5,0.4,0.5,0.8,0,1.1
					c0,0.4,0.1,0.8,0.1,1.2c0.6,0.7,0.4,1.5,0.4,2.3c0.3,5.9,0.9,6.4,6.6,6.5c1.2,0,2.2,0.4,2.9,1.4c0.6,0.9,1.1,2,2.4,2.3
					c2.1,1.6,4.5,1.8,7,1.6c8.5,0.4,16.2-2.6,17.2-6.9C219.6,92.2,218.3,92.3,217,92.5z"/>
				<pattern  id="SVGID_79_" xlink:href="#SVGID_31_" patternTransform="matrix(1 0 0 -1 1376.4 -17287.9004)">
				</pattern>
				<path class="st43" d="M187.4,76.1L187.4,76.1c0.6,0,1.1,0.8,1.7,2c0.3,0.6,0.7,1.2,1.1,1.8c0.5,0.6,0.8,1.3,1.2,2
					c0.2,0.3,0.4,0.7,0.6,1l0,0l0,0l1.4,2.1l1.4,2.1l0.1,0.1l0.1,0.1l3.3,2.5l2,1.6l0.1,0.1h0.1c3.4,1.5,7.2,2.3,11.5,2.3
					c1.6,0,3.3-0.1,5.1-0.3c0.7-0.1,1.5-0.2,2.2-0.3c-2,2.7-7.7,4.7-14,4.7c-0.5,0-1,0-1.5,0h-0.1h-0.1C203,98,202.5,98,202,98
					c-2,0-3.5-0.4-4.7-1.4l-0.2-0.1h-0.2c-0.6-0.1-0.9-0.6-1.4-1.3c-0.1-0.2-0.3-0.4-0.4-0.6c-0.9-1.2-2.1-1.8-3.7-1.9
					c-5.2-0.1-5.4-0.2-5.6-5.5c0-0.1,0-0.2,0-0.3c0.1-0.7,0.1-1.5-0.4-2.4v-0.3v-0.1c0.3-0.3,0.3-0.7,0.3-0.9c0-0.3-0.1-0.6-0.3-1
					v-0.9V81c0.1-0.4,0.1-0.8,0.2-1.2c0.3-2,0.5-3.2,1.5-3.5C187.3,76.1,187.4,76.1,187.4,76.1 M187.4,75.1c-0.1,0-0.3,0-0.4,0.1
					c-2.1,0.5-2.1,3.4-2.5,5.5c0,0.6-0.1,1.1-0.1,1.7c0.5,0.4,0.5,0.8,0,1.1c0,0.4,0.1,0.8,0.1,1.2c0.6,0.7,0.4,1.5,0.4,2.3
					c0.3,5.9,0.9,6.4,6.6,6.5c1.2,0,2.2,0.4,2.9,1.4c0.6,0.9,1.1,2,2.4,2.3c1.6,1.3,3.4,1.6,5.3,1.6c0.6,0,1.1,0,1.7-0.1
					c0.5,0,1.1,0,1.6,0c7.8,0,14.6-2.9,15.6-6.9c-1.4,0.2-2.7,0.3-4,0.5c-1.7,0.2-3.3,0.3-5,0.3c-3.8,0-7.5-0.6-11-2.2
					c-1.8-1.4-3.5-2.7-5.3-4.1c-1-1.4-1.9-2.7-2.9-4.1c-0.6-1.1-1.1-2.2-1.8-3.1C189.9,77.8,189.2,75.1,187.4,75.1L187.4,75.1z"/>
			</g>
			<pattern  id="SVGID_80_" xlink:href="#SVGID_32_" patternTransform="matrix(1 0 0 -1 1456.1 -17329.8008)"  class="st15">
			</pattern>
			<path class="st44" d="M265.1,117.4c-0.2,0.5-0.5,0.7-1,0.4c0.2-0.3,0.4-0.5,0.6-0.8C264.9,117.1,265,117.3,265.1,117.4z"/>
			<pattern  id="SVGID_81_" xlink:href="#SVGID_33_" patternTransform="matrix(1 0 0 -1 1397.1 -17282)"  class="st15">
			</pattern>
			<path class="st45" d="M205.1,69.9c0.1-0.2,0.2-0.5,0.3-0.7C205.3,69.5,205.2,69.7,205.1,69.9z"/>
			<g>
				<g>
					<pattern  id="SVGID_82_" xlink:href="#SVGID_34_" patternTransform="matrix(1 0 0 -1 1363.4 -17307.4004)">
					</pattern>
					<path class="st46" d="M171.7,94.6c-0.1,0.1-0.2,0.3-0.3,0.5C171.6,94.9,171.6,94.7,171.7,94.6z"/>
					<pattern  id="SVGID_83_" xlink:href="#SVGID_35_" patternTransform="matrix(1 0 0 -1 1363.5 -17307.4004)">
					</pattern>
					<path class="st47" d="M171.7,94.6c-0.1,0.1-0.2,0.3-0.2,0.5C171.6,94.9,171.6,94.7,171.7,94.6L171.7,94.6z M171.5,95L171.5,95
						L171.5,95L171.5,95z"/>
				</g>
				<g>
					<pattern  id="SVGID_84_" xlink:href="#SVGID_36_" patternTransform="matrix(1 0 0 -1 1342.1792 -17240.1191)">
					</pattern>
					<path class="st48" d="M192.9,30.9c-0.6-0.1-1.2,0-1.7,0.5c-2.4-0.3-4.7,1.1-7.4-0.3c-3.1-1.6-6.4-2.9-9.9-3.5
						c-7.8-1.4-13.3,2.5-14.3,10.3c-0.4,2.8-1.3,5.5-3.3,7.5c-7,6.9-7.8,14.6-3.4,23.1c0.1,0.3,0.3,0.5,0.4,0.8
						c0.5,4.4,0.9,8.8,5.7,11c2.3,2.2,4.4,4.4,6.1,7.1c1.8,3.1,3.7,6.2,5.5,9.3c0.2-0.1,0.3-0.4,0.5-0.6c-0.1,0.2-0.3,0.5-0.5,0.6
						c0.7,1.6,1.6,3.2,2.8,4.4c1.4,1.8,2.8,3.7,5.4,2.7c2.6-1,2.2-3.5,2.1-5.6c-0.1-0.9-0.3-1.9-0.6-2.8c-1.7-4.9-3.5-9.8-5.2-14.7
						c-0.6-2.5-1.1-5-1.7-7.5c0-0.4,0-0.8-0.1-1.2c0-0.2,0-0.4,0-0.6c-0.1-0.8-0.2-1.6-0.2-2.4c0.3-0.9,0.2-1.8,0-2.7
						c0.1-0.6,0.2-1.2,0.2-1.8c0-0.2,0-0.4,0-0.6c1.1-6.4,4.5-11.6,9.2-16c4.2-3.8,9-6.7,13.8-9.6c3.4-2.1,6.9-4,9.9-6.8
						C201.8,28.6,197.4,29.8,192.9,30.9z M171.5,95c0.1-0.2,0.2-0.3,0.3-0.5C171.6,94.7,171.6,94.9,171.5,95z"/>
					<pattern  id="SVGID_85_" xlink:href="#SVGID_37_" patternTransform="matrix(1 0 0 -1 1342.0791 -17240.0996)">
					</pattern>
					<path class="st49" d="M170.8,28.3c0.9,0,1.9,0.1,2.8,0.3c3.1,0.6,6.2,1.7,9.6,3.4c1,0.5,2,0.7,3.1,0.7c0.8,0,1.5-0.1,2.2-0.2
						c0.6-0.1,1.3-0.2,1.9-0.2c0.2,0,0.4,0,0.6,0l0.5,0.1l0.3-0.3c0.1-0.1,0.3-0.2,0.6-0.2c0.1,0,0.2,0,0.3,0h0.2h0.2h0.1
						c2.3-0.6,4.5-1.1,6.6-1.1c1.7,0,3.2,0.3,4.7,1.1c-2.1,1.7-4.4,3.2-6.7,4.5c-0.7,0.4-1.4,0.8-2.1,1.3c-0.5,0.3-1.1,0.7-1.6,1
						c-4.2,2.6-8.5,5.3-12.3,8.7c-5.3,4.9-8.4,10.3-9.5,16.6l0,0l0,0v0.5l-0.2,1.8v0.2v0.2c0.2,0.9,0.2,1.6,0,2.2L172,69v0.2
						l0.2,2.4v0.3v0.3l0.1,1.2v0.1v0.1l0.6,2.6l1.1,4.9v0.1v0.1l1.3,3.7c1.3,3.6,2.6,7.3,3.9,11c0.3,0.9,0.5,1.7,0.5,2.5V99
						c0.2,2.2,0.2,3.5-1.5,4.1c-0.3,0.1-0.7,0.2-1,0.2c-1.3,0-2.2-1.2-3.2-2.6v-0.1l0,0c-0.9-0.9-1.7-2.1-2.4-3.5
						c0.1-0.1,0.1-0.2,0.2-0.3l-0.4-0.2l0,0l0,0l-0.1-0.1l0.1-0.1l-1.7-2.8c-1.3-2.2-2.6-4.3-3.8-6.5c-1.8-3-4.1-5.4-6.2-7.4
						l-0.1-0.1l-0.1-0.1c-4.2-1.9-4.6-5.8-5.1-10v-0.2v-0.2l-0.1-0.2l-0.1-0.2c-0.1-0.2-0.2-0.3-0.3-0.5c-4.4-8.3-3.3-15.5,3.2-21.9
						c1.9-1.9,3.1-4.5,3.5-8.1C161.4,31.8,165.1,28.3,170.8,28.3 M172.4,95.4c0.1-0.1,0.1-0.2,0.2-0.3l-1.7-1.1
						c-0.1,0.2-0.2,0.4-0.3,0.6L172.4,95.4 M170.8,27.3c-6.1,0-10.4,3.9-11.3,10.6c-0.4,2.8-1.3,5.5-3.3,7.5
						c-7,6.9-7.8,14.6-3.4,23.1c0.1,0.3,0.3,0.5,0.4,0.8c0.5,4.4,0.9,8.8,5.7,11c2.3,2.2,4.4,4.4,6.1,7.1c1.8,3.1,3.7,6.2,5.5,9.3
						c0.2-0.1,0.3-0.4,0.5-0.6c-0.1,0.2-0.3,0.5-0.5,0.6c0.7,1.6,1.6,3.2,2.8,4.4c1.1,1.4,2.3,2.9,4,2.9c0.4,0,0.8-0.1,1.3-0.3
						c2.6-1,2.2-3.5,2.1-5.6c-0.1-0.9-0.3-1.9-0.6-2.8c-1.7-4.9-3.5-9.8-5.2-14.7c-0.6-2.5-1.1-5-1.7-7.5c0-0.4,0-0.8-0.1-1.2
						c0-0.2,0-0.4,0-0.6c-0.1-0.8-0.2-1.6-0.2-2.4c0.3-0.9,0.2-1.8,0-2.7c0.1-0.6,0.2-1.2,0.2-1.8c0-0.2,0-0.4,0-0.6
						c1.1-6.4,4.5-11.6,9.2-16c4.2-3.8,9-6.7,13.8-9.6c3.4-2.1,6.9-4,9.9-6.8c-2.1-1.4-4.2-1.9-6.4-1.9c-2.3,0-4.7,0.6-7,1.2
						c-0.1,0-0.3,0-0.4,0c-0.5,0-0.9,0.1-1.3,0.5c-0.2,0-0.5,0-0.7,0c-1.3,0-2.7,0.4-4,0.4c-0.9,0-1.7-0.1-2.7-0.6
						c-3.1-1.6-6.4-2.9-9.9-3.5C172.8,27.4,171.8,27.3,170.8,27.3L170.8,27.3z M171.5,95c0.1-0.2,0.2-0.3,0.3-0.5
						C171.6,94.7,171.6,94.9,171.5,95L171.5,95z"/>
				</g>
				<g>
					<pattern  id="SVGID_86_" xlink:href="#SVGID_38_" patternTransform="matrix(1 0 0 -1 1376.4215 -17297.5)">
					</pattern>
					<path class="st50" d="M184.9,87c0-0.8,0.3-1.6-0.4-2.3C184.3,85.5,184.5,86.3,184.9,87z"/>
					<pattern  id="SVGID_87_" xlink:href="#SVGID_39_" patternTransform="matrix(1 0 0 -1 1376.4215 -17297.5)">
					</pattern>
					<path class="st51" d="M184.5,84.7c-0.2,0.8,0,1.6,0.4,2.3C184.9,86.2,185.1,85.4,184.5,84.7L184.5,84.7z"/>
				</g>
				<g>
					<pattern  id="SVGID_88_" xlink:href="#SVGID_40_" patternTransform="matrix(1 0 0 -1 1376.4 -17295.1992)">
					</pattern>
					<path class="st52" d="M184.4,82.4c0,0.4,0,0.8,0,1.1C184.9,83.1,184.9,82.8,184.4,82.4z"/>
					<pattern  id="SVGID_89_" xlink:href="#SVGID_41_" patternTransform="matrix(1 0 0 -1 1375.9 -17295.1992)">
					</pattern>
					<path class="st53" d="M183.9,83.2L183.9,83.2L183.9,83.2 M184.4,82.4c0,0.4,0,0.8,0,1.1C184.9,83.1,184.9,82.8,184.4,82.4
						L184.4,82.4z"/>
				</g>
			</g>
			<g>
				<pattern  id="SVGID_90_" xlink:href="#SVGID_42_" patternTransform="matrix(1 0 0 -1 1341.8696 -17299.6992)">
				</pattern>
				<path class="st54" d="M212.3,123.4c-3.5,0.8-6.9,0.1-9.9-1.7c-8-4.6-16.6-7.4-25.4-10.2c-8.8-2.8-14.2-8.8-16.6-17.7
					c-0.4-1.7-0.8-3.3-1.7-4.8c-0.6-1-1.1-2.1-2.5-2.1c-1.5,0.1-2.1,1.3-2.5,2.4c-1.2,3.5-2.5,7-3.5,10.5c-0.7,2.5-0.4,4.9,2,6.7
					c1.1,0.8,2.1,1.7,2.5,3.1c2.8,8.4,9,12.6,17.4,14.3c3.3,0.6,6.4,1.8,8.8,4.4c0.4,0.6,0.8,1.1,1.2,1.7c2.6,6.1,4.2,6.7,9.9,3.9
					c4-2,8.1-3.2,12.5-3.8c2-0.3,4-0.1,5.9-0.7c2.2-0.6,3.7-1.9,3.8-4.4C214.2,123.7,213.8,123,212.3,123.4z"/>
				<pattern  id="SVGID_91_" xlink:href="#SVGID_43_" patternTransform="matrix(1 0 0 -1 1341.8696 -17299.6992)">
				</pattern>
				<path class="st55" d="M156.3,87.9L156.3,87.9c0.6,0,0.8,0.4,1.4,1.3l0.2,0.3c0.8,1.3,1.1,2.7,1.5,4.2l0.1,0.3
					c2.5,9.4,8.3,15.6,17.2,18.4c9.2,2.9,17.5,5.7,25.2,10.1c2.4,1.4,5,2.1,7.6,2.1c1,0,2.1-0.1,3.1-0.3c0.2,0,0.4-0.1,0.5-0.1h0.1
					c0,0.1,0.1,0.3,0.1,0.7c-0.1,1.8-1,2.8-3.1,3.4c-1.1,0.3-2.3,0.4-3.6,0.5c-0.7,0-1.5,0.1-2.2,0.2c-4.6,0.6-8.9,1.9-12.8,3.9
					c-2.1,1.1-3.5,1.5-4.5,1.5c-1.3,0-2.3-0.8-4.1-4.9v-0.1l-0.1-0.1l-1.2-1.7v-0.1l0,0c-2.2-2.4-5.2-3.9-9.3-4.7
					c-8.6-1.7-14.1-6.2-16.6-13.6c-0.6-1.6-1.8-2.8-2.8-3.5c-1.8-1.3-2.3-3.2-1.6-5.6c1-3.4,2.2-6.8,3.4-10l0.2-0.4
					C155.1,88.4,155.5,88,156.3,87.9L156.3,87.9 M156.3,86.9C156.2,86.9,156.2,86.9,156.3,86.9c-1.6,0.1-2.2,1.3-2.6,2.4
					c-1.2,3.5-2.5,7-3.5,10.5c-0.7,2.5-0.4,4.9,2,6.7c1.1,0.8,2.1,1.7,2.5,3.1c2.8,8.4,9,12.6,17.4,14.3c3.3,0.6,6.4,1.8,8.8,4.4
					c0.4,0.6,0.8,1.1,1.2,1.7c1.6,3.8,2.9,5.5,5,5.5c1.2,0,2.8-0.6,4.9-1.6c4-2,8.1-3.2,12.5-3.8c2-0.3,4-0.1,5.9-0.7
					c2.2-0.6,3.7-1.9,3.8-4.4c0-1-0.2-1.7-1.2-1.7c-0.2,0-0.4,0-0.7,0.1c-1,0.2-1.9,0.3-2.9,0.3c-2.5,0-4.9-0.7-7.1-2
					c-8-4.6-16.6-7.4-25.4-10.2c-8.8-2.8-14.2-8.8-16.6-17.7c-0.4-1.7-0.8-3.3-1.7-4.8C158.1,88,157.6,86.9,156.3,86.9L156.3,86.9z"
					/>
			</g>
			<g>
				<g>
					<pattern  id="SVGID_92_" xlink:href="#SVGID_44_" patternTransform="matrix(1 0 0 -1 1454.3828 -17332.7773)">
					</pattern>
					<path class="st56" d="M309.2,154.5c-2.5-5.1-4.5-10.4-5.6-16c-0.5-2.6-1.9-5.1-4.9-5.2c-3.3-0.1-4.7-1.8-5.7-4.5
						c-0.2-1.4-0.9-2.6-2-3.5c-0.4-1.1-1.3-1.8-2.3-2.3c-1.6-1.6-3.7-2.4-5.9-2.7c-0.4,0-0.8,0-1.1-0.1c-2-0.5-3.9-0.1-5.8,0.6
						c-1.8,0.7-4.3,1.3-4.6,3.3c-0.3,2.1,1.7,3.6,3.5,4.7c3,2.5,6.1,5,9.1,7.4c0.2,0.2,0.4,0.4,0.6,0.6l0,0l0,0
						c0.7,1.2,1.7,2.1,2.8,2.9c-1.9,0.4-2.7-1.6-4.3-1.9c-1.9-1.6-4.3-2.3-6.5-3.1c-3.9-1.3-7.8-2.3-11,1.5
						c-0.5,0.2-0.8,0.6-0.9,1.2c-4,6.8-2.6,11.9,4.3,14.8c2.3,1,4.7,1.6,7,2.4c1.1,0.8,2.4,1.1,3.6,1.5c3.2,1.6,6.4,3.3,8.9,6
						c2.4,2.6,3.7,2.6,5.9-0.3c1.8-2.4,4.1-3.8,7-4.5c3.4-0.3,6.8,0.5,10.4,1.3C310.9,156.9,310.2,155.6,309.2,154.5z"/>
					<pattern  id="SVGID_93_" xlink:href="#SVGID_45_" patternTransform="matrix(1 0 0 -1 1454.3828 -17332.8008)">
					</pattern>
					<path class="st57" d="M279.8,121c0.6,0,1.1,0.1,1.6,0.2h0.1h0.1h0.7h0.4c2.2,0.3,4,1.1,5.3,2.4l0.1,0.1l0.1,0.1
						c0.9,0.5,1.6,1,1.8,1.8l0.1,0.2l0.2,0.2c0.9,0.8,1.5,1.8,1.7,2.9v0.1v0.1c0.9,2.5,2.4,5.1,6.6,5.2c2,0,3.3,1.5,3.9,4.4
						c1.1,5.2,3,10.5,5.7,16.2l0.1,0.1l0.1,0.1c0.5,0.6,1,1.3,1.4,2.1c-2.4-0.5-4.8-1-7.2-1c-0.5,0-1.1,0-1.6,0.1h-0.1h-0.1
						c-3.2,0.8-5.7,2.3-7.6,4.8c-0.9,1.2-1.6,1.8-2.1,1.8s-1.2-0.5-2.2-1.6c-2.5-2.7-5.7-4.4-9.2-6.2h-0.1h-0.1
						c-0.3-0.1-0.5-0.2-0.8-0.3c-0.9-0.3-1.8-0.6-2.5-1.1l-0.1-0.1l-0.2-0.1c-0.7-0.3-1.5-0.5-2.2-0.7c-1.6-0.5-3.2-1-4.7-1.7
						c-3-1.3-4.9-3-5.6-5.1c-0.7-2.2-0.1-5,1.8-8.3l0.1-0.2v-0.2c0-0.3,0.2-0.4,0.3-0.5l0.2-0.1l0.1-0.2c1.4-1.6,2.9-2.3,4.8-2.3
						c1.7,0,3.6,0.6,5.2,1.1l0.7,0.3c2,0.7,3.9,1.4,5.5,2.7l0.2,0.2h0.3c0.4,0.1,0.8,0.4,1.3,0.7c0.7,0.5,1.5,1.2,2.7,1.2
						c0.2,0,0.5,0,0.7-0.1l2.1-0.5l-1.8-1.3c-1.1-0.8-2-1.7-2.6-2.6l-0.8,0.5l0.7-0.7l-0.4-0.4l-0.2-0.2l0,0l0,0l-9.1-7.4l0,0l0,0
						c-1.8-1.2-3.3-2.3-3.1-3.7c0.2-1,1.4-1.6,3.1-2.2c0.3-0.1,0.6-0.2,0.9-0.3C277.5,121.2,278.7,121,279.8,121 M279.8,120
						c-1.3,0-2.7,0.3-3.9,0.8c-1.8,0.7-4.3,1.3-4.6,3.3c-0.3,2.1,1.7,3.6,3.5,4.7c3,2.5,6.1,5,9.1,7.4c0.2,0.2,0.4,0.4,0.6,0.6l0,0
						l0,0c0.7,1.2,1.7,2.1,2.8,2.9c-0.2,0-0.4,0.1-0.5,0.1c-1.5,0-2.4-1.7-3.8-1.9c-1.9-1.6-4.3-2.3-6.5-3.1
						c-1.9-0.6-3.7-1.2-5.5-1.2c-2,0-3.8,0.7-5.5,2.6c-0.5,0.2-0.8,0.6-0.9,1.2c-4,6.8-2.6,11.9,4.3,14.8c2.3,1,4.7,1.6,7,2.4
						c1.1,0.8,2.4,1.1,3.6,1.5c3.2,1.6,6.4,3.3,8.9,6c1.2,1.3,2.1,1.9,2.9,1.9c0.9,0,1.8-0.7,2.9-2.2c1.8-2.4,4.1-3.8,7-4.5
						c0.5,0,1-0.1,1.5-0.1c2.9,0,5.8,0.7,8.9,1.4c-0.7-1.8-1.4-3.1-2.4-4.2c-2.5-5.1-4.5-10.4-5.6-16c-0.5-2.6-1.9-5.1-4.9-5.2
						c-3.3-0.1-4.7-1.8-5.7-4.5c-0.2-1.4-0.9-2.6-2-3.5c-0.4-1.1-1.3-1.8-2.3-2.3c-1.6-1.6-3.7-2.4-5.9-2.7c-0.4,0-0.8,0-1.1-0.1
						C281.1,120,280.4,120,279.8,120L279.8,120z"/>
				</g>
				<pattern  id="SVGID_94_" xlink:href="#SVGID_46_" patternTransform="matrix(1 0 0 -1 1476 -17349)">
				</pattern>
				<path class="st58" d="M284,136.2c0.2,0.2,0.4,0.4,0.6,0.6"/>
				<line class="st0" x1="284.5" y1="136.8" x2="284.5" y2="136.8"/>
			</g>
			<g>
				<pattern  id="SVGID_95_" xlink:href="#SVGID_48_" patternTransform="matrix(1 0 0 -1 1304 -17322.0195)">
				</pattern>
				<path class="st59" d="M155.7,123.9c-4.2-2.4-8.7-0.2-13.1-0.5c2.3-1.4,4.6-2.6,6.9-3.9c2.3-1.2,2.6-2.5,0.8-4.5
					c-1.9-2.2-4.5-3.5-6.9-5.1c-1.8-1.2-2.9-0.8-3.9,1.1c-2.2,4.1-3.3,4.7-7.7,3.2c-3.1-1-5.9-1-8.7,0.9c-2.5,2.3-5.1,4.6-7.6,6.9
					l-0.1,0.1c-0.9,1.7-2.9,2.6-3.4,4.6c7-3.3,10.4-2.5,16.1,3.5c4.3,4.6,7.5,5.3,13.2,2.6c1.9-0.9,3.9-1.1,5.2,0.6
					c1.7,2.1,2.5,1.1,3.4-0.4c0.7-1.1,1.4-2.3,2-3.4c1.1-2.1,2.7-3.6,5.1-3.9C157.1,124.7,156.4,124.2,155.7,123.9z"/>
				<pattern  id="SVGID_96_" xlink:href="#SVGID_49_" patternTransform="matrix(1 0 0 -1 1304 -17322.0996)">
				</pattern>
				<path class="st60" d="M141.7,110.3L141.7,110.3c0.3,0,0.7,0.2,1.2,0.5c0.6,0.4,1.1,0.7,1.7,1.1c1.8,1.2,3.6,2.2,4.9,3.8
					c0.8,0.9,0.9,1.4,0.9,1.7c0,0.2-0.3,0.7-1.4,1.2l-0.9,0.5c-2,1.1-4.1,2.2-6,3.4l-2.5,1.6l3,0.2c0.3,0,0.6,0,0.9,0
					c1.3,0,2.7-0.2,3.9-0.3c1.3-0.2,2.4-0.3,3.6-0.3c1.6,0,2.9,0.3,4.2,1c0.1,0.1,0.3,0.1,0.4,0.2c-2.4,0.7-3.7,2.6-4.5,4.1
					c-0.7,1.2-1.3,2.3-2,3.4c-0.6,0.9-0.8,1.1-0.9,1.1c0,0-0.3,0-0.9-0.8c-0.8-1.1-2-1.6-3.4-1.6c-0.9,0-2,0.3-3.1,0.8
					c-2.1,1-3.8,1.5-5.2,1.5c-2.2,0-4.2-1.1-6.8-3.9c-3.2-3.5-6.2-5.8-10-5.8c-1.2,0-2.6,0.2-4.1,0.7c0.5-0.5,1.1-1.1,1.5-1.8l7-6.3
					l0.5-0.5c1.4-0.9,2.8-1.3,4.3-1.3c1.1,0,2.2,0.2,3.5,0.6c1.7,0.6,2.8,0.8,3.7,0.8c2.6,0,3.9-1.9,5.2-4.5
					C141.1,110.3,141.6,110.3,141.7,110.3 M141.7,109.3c-0.8,0-1.5,0.6-2.1,1.7c-1.5,2.8-2.5,3.9-4.4,3.9c-0.9,0-2-0.3-3.4-0.7
					c-1.3-0.4-2.6-0.7-3.8-0.7c-1.7,0-3.3,0.5-4.9,1.5c-2.5,2.3-5.1,4.6-7.6,6.9l-0.1,0.1c-0.9,1.7-2.9,2.6-3.4,4.6
					c2.7-1.3,4.9-1.9,6.8-1.9c3.2,0,5.8,1.7,9.3,5.5c2.7,2.9,4.9,4.2,7.5,4.2c1.7,0,3.5-0.5,5.7-1.6c0.9-0.4,1.8-0.7,2.6-0.7
					c1,0,1.9,0.4,2.6,1.2c0.7,0.8,1.2,1.2,1.7,1.2c0.7,0,1.2-0.7,1.7-1.6c0.7-1.1,1.4-2.3,2-3.4c1.1-2.1,2.7-3.6,5.1-3.9
					c-0.1-1-0.8-1.4-1.4-1.8c-1.5-0.9-3.1-1.1-4.6-1.1c-2.5,0-5,0.7-7.5,0.7c-0.3,0-0.6,0-0.9,0c2.3-1.4,4.6-2.6,6.9-3.9
					c2.3-1.2,2.6-2.5,0.8-4.5c-1.9-2.2-4.5-3.5-6.9-5.1C142.8,109.5,142.3,109.3,141.7,109.3L141.7,109.3z"/>
			</g>
		</g>
	</g>
	<g class="st7">
		<g>
			<g>
				<path class="st61" d="M246.4,154.1c-2.6,0.1-4.9-0.8-7.1-1.9c-4.1-1.9-8-2.1-12.5-0.7c-8.5,2.7-16.9,1.7-25-2.2
					c-1.5-0.8-3-1.7-4.2-2.9c-2.9-3.1-2.4-6.2,1.6-7.9c3.3-1.4,6.8-2,10.3-2.2c4.8-0.3,9.7-0.4,14.5-0.9c7.9-0.9,14.9-4.6,22.1-7.6
					c4.3-1.8,8.7-3.4,13.3-4.3c0.9-0.2,1.9-0.3,2.8-0.3c1.1-0.1,2.2-0.1,2.7,1.1c0.5,1.1-0.2,2-0.9,2.8c-0.4,0.5-0.8,1.1-1.3,1.5
					c-4.8,4.1-6.6,9.2-6.2,15.5C256.9,150.2,252.6,154.1,246.4,154.1z"/>
			</g>
			<g>
				<path class="st61" d="M154.9,177.3c-0.9-4.9-0.5-9.4,1.1-13.6c2.4-6,2.2-11.6-0.3-17.5c-0.8-2-1.3-4.2-1.4-6.4
					c-0.2-6.2,3.6-10.3,9.8-10.5c3.1-0.1,6.1,0,9,1.1c2.1,0.8,3,1.8,2.1,4.1c-1.1,2.8-2,5.7-3.1,8.9c1.7-0.2,2.6-1.5,3.7-2.4
					c2.6-2.3,5.4-4.2,9-2.5s4.9,5,5,8.7c0.2,7.5-2.7,13.8-8.6,18.5c-2.3,1.8-4.6,3.7-6.4,6.1c-1.3,1.7-3,2.5-5,1.4
					c-4.6-2.6-8.4-1.1-12.1,1.8C157,175.6,156.1,176.3,154.9,177.3z"/>
			</g>
			<g>
				<path class="st61" d="M249.6,95.1c2.7-7.9,3-15.5,1.2-23.2c-3-12.7-9.9-19.2-22.9-20.9c-15.4-2.1-28.6,2.5-39.4,13.8
					c-0.5,0.5-0.9,1.2-1.4,1.8c-1.3-1.2-1.7-2.2-0.8-3.5c4.2-6.5,7.8-13.3,12.8-19.3c5.7-6.9,12.8-10.4,21.9-9.3
					c5.7,0.6,11.4,0.8,16.7,3.4c1.1,0.5,2.3,1.1,3.1,2c7.7,7.8,14.7,16.1,17.1,27.2c1.9,8.7-1,16.6-5,24.1
					C252.1,92.4,251.8,94.3,249.6,95.1z"/>
			</g>
			<g>
				<path class="st61" d="M243.1,91.4c-1.9,7.2-5,13.7-10,19.3c-3.2,3.5-7.7,4.1-12,4.6c-9.5,1.2-18.1-1.2-25.7-7.1
					c-1.6-1.2-3.7-3-2.6-5.2c1.2-2.3,3.6-1,5.4-0.5c3.5,0.9,7,0.5,10.5-0.2c5.4-1.1,10.8-2.2,16.2-3.4c5.8-1.2,11.1-3.4,16-6.7
					C241.5,91.8,242,91.1,243.1,91.4z"/>
			</g>
			<g>
				<path class="st61" d="M207.3,9.6c3.8,0,5.9,2.8,4.6,6.1c-1.5,3.8-4.3,6.9-6.4,10.4c-0.3,0.6-0.8,0.7-1.4,0.3
					c-3.9-2.3-8.5-2.8-12.7-4c-1.8-0.5-3.4-1.3-4.5-2.8c-1.5-1.9-1.2-3.6,1.1-4.5c0.9-0.3,1.9-0.6,2.8-0.5c4.4,0.3,8.2-0.9,11.8-3.4
					C203.9,10.3,205.6,9.7,207.3,9.6z"/>
			</g>
			<g>
				<path class="st61" d="M128.8,83.7c0.5-2.5,1.5-5.5,1.3-8.7c-0.1-1.1,0.9-0.7,1.4-0.2c1.2,1.1,2,2.5,2.8,3.9
					c2.1,3.8,4.9,5.5,9.4,4.5c3.3-0.8,5.4,1.5,4.7,4.8c-0.6,2.7-1.4,5.3-2.3,7.9c-0.6,1.6-1.9,2.2-3.4,1.4
					c-4.1-2.2-8.3-4.4-11.7-7.6C129.5,88.3,128.7,86.4,128.8,83.7z"/>
			</g>
			<g>
				<path class="st61" d="M201.5,62.3c-4,3.3-4,7.9-4,12.4c0,1.4,0.5,2.7,2,3.1c1.7,0.4,3.2-0.2,4.1-1.9c1-1.9,1.4-3.9,1.6-6l0,0
					c0.1-0.2,0.2-0.5,0.3-0.7c0.8-6.2,6.7-7.4,11.1-10.8C210.5,57.8,205.6,58.5,201.5,62.3z"/>
			</g>
			<g>
				<path class="st61" d="M218.7,70.7c-1.2-0.3-2.2,0.2-3.3,0.3c-0.6,0-1.2,0-1.5-0.6c-0.4-0.7-0.1-1.2,0.4-1.7
					c1-1.1,4.5-1.9,5.9-1.2c0.8,0.4,1.3,1,1.2,1.9s-0.8,1.2-1.6,1.2C219.4,70.8,218.9,70.7,218.7,70.7z"/>
			</g>
			<g>
				<path class="st61" d="M240.9,68.6c-2.9-4.5-11.2-7.4-16.5-5.8c4.2,3,7,7,9.2,11.5c0.7,2.5,1.6,4.9,1.7,7.5
					c0,0.6,0.2,1.4,0.9,1.7c0.8,0.3,1.5-0.3,2-0.9c1.7-2.1,3-4.4,3.3-7.2C242.1,73.1,242.3,70.8,240.9,68.6z"/>
			</g>
			<g>
				<path class="st61" d="M292,88.9c-0.2-0.6-0.4-1.3-0.6-1.9c-0.4-1.4-0.7-2.9-1.6-4.1c-1-3.6-3.4-6.4-5.2-9.5
					c-1.4-2.5-2.2-5-1.1-7.9c1.5-3.8,0.6-7.2-1.9-10.2c-4.5-5.4-9.5-10.2-15.7-13.6c-3.9-2.1-7.9-3.4-12.9-2.8
					c3.8,2.4,6.7,5,8.6,8.6c3.4,6.2,4.1,12.9,3.1,19.7c-0.7,4.8-0.7,9.2,2.7,13.2c1.8,2.2,2.6,5,3.4,7.8c2,7.2,1,14.1-1.3,21
					c-1.6,2.6-3.2,5.1-4.8,7.7c0.1,0.1,0.3,0.3,0.4,0.4c2.9-1.4,5.5-3.2,7.6-5.7c2.3-1.7,3.4-4.2,4.5-6.8c1-2.5,1.7-5,2.9-7.4
					c2-4.1,5.4-6.4,10-6.2C292.5,91.5,292.6,90.6,292,88.9z"/>
			</g>
			<g>
				<path class="st61" d="M226.8,76c-1.1-0.9-2.5-0.9-3.4-0.1c-3,2.6-6.8,3.2-10.5,4.2c-1.4,0.4-3.5,0.4-3.4,2.2
					c0.1,2,2.2,2.3,3.9,2.3c3.5,0.5,6.8-0.1,10.1-1.3c1.7-0.6,3.3-1.6,4-3.4C228.2,78.5,228.1,77.1,226.8,76z"/>
			</g>
			<g>
				<path class="st61" d="M249.7,20.5c-1-1.2-2.2-2-3.5-2.8c-3.5-3.3-7.2-6.2-12.4-3.6c-3.5,1.8-7.2,3-11.1,3.7
					c-1.2,0.1-2.4,0.3-3.4,1.1c-2.7,0.6-4.3,2.4-5.2,4.8c-1.1,2.7-0.5,3.5,2.3,3.5c1.1,0,2.3-0.1,3.4-0.1c9.3-0.1,18.7-0.6,27.4,4.1
					c1.2,0.7,2.7,1,4.1,0.9c1.1,0,1.9-0.5,1.8-1.7C252.8,26.8,252.7,23.1,249.7,20.5z"/>
			</g>
			<g>
				<path class="st61" d="M262.9,93.8c-0.4-1.7-0.6-4.4-2.3-4.5c-1.8-0.1-1.8,2.7-2.5,4.3c-0.5,1.1-1,2.1-1.5,3.2
					c-0.5,0.9-1.1,1.8-1.6,2.7c-5.5,9.2-11.8,17.6-21.7,22.6c-1.2,0.6-3.3,1.1-2.8,2.6c0.6,2,2.9,1.4,4.5,1.3
					c0.8-0.1,1.7-0.3,2.5-0.6c3.3-1.1,6.6-1.6,10.1-1.8c3.6-0.2,7.1-1.2,10.1-3.5c1.3-0.7,2-1.8,2-3.3c0.4-2.8,1.3-5.5,2.4-8.1
					C263.9,103.8,264.1,98.8,262.9,93.8z"/>
			</g>
			<g>
				<path class="st61" d="M217,92.5c-5.5,0.6-10.9,0.4-16-1.9c-1.8-1.4-3.5-2.7-5.3-4.1c-1-1.4-1.9-2.7-2.9-4.1
					c-0.6-1.1-1.1-2.2-1.8-3.1c-1.2-1.5-1.9-4.6-4-4.1s-2.1,3.4-2.5,5.5c0,0.6-0.1,1.1-0.1,1.7c0.5,0.4,0.5,0.8,0,1.1
					c0,0.4,0.1,0.8,0.1,1.2c0.6,0.7,0.4,1.5,0.4,2.3c0.3,5.9,0.9,6.4,6.6,6.5c1.2,0,2.2,0.4,2.9,1.4c0.6,0.9,1.1,2,2.4,2.3
					c2.1,1.6,4.5,1.8,7,1.6c8.5,0.4,16.2-2.6,17.2-6.9C219.6,92.2,218.3,92.3,217,92.5z"/>
			</g>
			<path class="st61" d="M265.1,117.4c-0.2,0.5-0.5,0.7-1,0.4c0.2-0.3,0.4-0.5,0.6-0.8C264.9,117.1,265,117.3,265.1,117.4z"/>
			<path class="st61" d="M205.1,69.9c0.1-0.2,0.2-0.5,0.3-0.7C205.3,69.5,205.2,69.7,205.1,69.9z"/>
			<g>
				<g>
					<path class="st61" d="M171.7,94.6c-0.1,0.1-0.2,0.3-0.3,0.5C171.6,94.9,171.6,94.7,171.7,94.6z"/>
				</g>
				<g>
					<path class="st61" d="M192.9,30.9c-0.6-0.1-1.2,0-1.7,0.5c-2.4-0.3-4.7,1.1-7.4-0.3c-3.1-1.6-6.4-2.9-9.9-3.5
						c-7.8-1.4-13.3,2.5-14.3,10.3c-0.4,2.8-1.3,5.5-3.3,7.5c-7,6.9-7.8,14.6-3.4,23.1c0.1,0.3,0.3,0.5,0.4,0.8
						c0.5,4.4,0.9,8.8,5.7,11c2.3,2.2,4.4,4.4,6.1,7.1c1.8,3.1,3.7,6.2,5.5,9.3c0.2-0.1,0.3-0.4,0.5-0.6c-0.1,0.2-0.3,0.5-0.5,0.6
						c0.7,1.6,1.6,3.2,2.8,4.4c1.4,1.8,2.8,3.7,5.4,2.7c2.6-1,2.2-3.5,2.1-5.6c-0.1-0.9-0.3-1.9-0.6-2.8c-1.7-4.9-3.5-9.8-5.2-14.7
						c-0.6-2.5-1.1-5-1.7-7.5c0-0.4,0-0.8-0.1-1.2c0-0.2,0-0.4,0-0.6c-0.1-0.8-0.2-1.6-0.2-2.4c0.3-0.9,0.2-1.8,0-2.7
						c0.1-0.6,0.2-1.2,0.2-1.8c0-0.2,0-0.4,0-0.6c1.1-6.4,4.5-11.6,9.2-16c4.2-3.8,9-6.7,13.8-9.6c3.4-2.1,6.9-4,9.9-6.8
						C201.8,28.6,197.4,29.8,192.9,30.9z M171.5,95c0.1-0.2,0.2-0.3,0.3-0.5C171.6,94.7,171.6,94.9,171.5,95z"/>
				</g>
				<g>
					<path class="st61" d="M184.9,87c0-0.8,0.3-1.6-0.4-2.3C184.3,85.5,184.5,86.3,184.9,87z"/>
				</g>
				<g>
					<path class="st61" d="M184.4,82.4c0,0.4,0,0.8,0,1.1C184.9,83.1,184.9,82.8,184.4,82.4z"/>
				</g>
			</g>
			<g>
				<path class="st61" d="M212.3,123.4c-3.5,0.8-6.9,0.1-9.9-1.7c-8-4.6-16.6-7.4-25.4-10.2c-8.8-2.8-14.2-8.8-16.6-17.7
					c-0.4-1.7-0.8-3.3-1.7-4.8c-0.6-1-1.1-2.1-2.5-2.1c-1.5,0.1-2.1,1.3-2.5,2.4c-1.2,3.5-2.5,7-3.5,10.5c-0.7,2.5-0.4,4.9,2,6.7
					c1.1,0.8,2.1,1.7,2.5,3.1c2.8,8.4,9,12.6,17.4,14.3c3.3,0.6,6.4,1.8,8.8,4.4c0.4,0.6,0.8,1.1,1.2,1.7c2.6,6.1,4.2,6.7,9.9,3.9
					c4-2,8.1-3.2,12.5-3.8c2-0.3,4-0.1,5.9-0.7c2.2-0.6,3.7-1.9,3.8-4.4C214.2,123.7,213.8,123,212.3,123.4z"/>
			</g>
			<g>
				<g>
					<path class="st61" d="M309.2,154.5c-2.5-5.1-4.5-10.4-5.6-16c-0.5-2.6-1.9-5.1-4.9-5.2c-3.3-0.1-4.7-1.8-5.7-4.5
						c-0.2-1.4-0.9-2.6-2-3.5c-0.4-1.1-1.3-1.8-2.3-2.3c-1.6-1.6-3.7-2.4-5.9-2.7c-0.4,0-0.8,0-1.1-0.1c-2-0.5-3.9-0.1-5.8,0.6
						c-1.8,0.7-4.3,1.3-4.6,3.3c-0.3,2.1,1.7,3.6,3.5,4.7c3,2.5,6.1,5,9.1,7.4c0.2,0.2,0.4,0.4,0.6,0.6l0,0l0,0
						c0.7,1.2,1.7,2.1,2.8,2.9c-1.9,0.4-2.7-1.6-4.3-1.9c-1.9-1.6-4.3-2.3-6.5-3.1c-3.9-1.3-7.8-2.3-11,1.5
						c-0.5,0.2-0.8,0.6-0.9,1.2c-4,6.8-2.6,11.9,4.3,14.8c2.3,1,4.7,1.6,7,2.4c1.1,0.8,2.4,1.1,3.6,1.5c3.2,1.6,6.4,3.3,8.9,6
						c2.4,2.6,3.7,2.6,5.9-0.3c1.8-2.4,4.1-3.8,7-4.5c3.4-0.3,6.8,0.5,10.4,1.3C310.9,156.9,310.2,155.6,309.2,154.5z"/>
				</g>
				<path class="st61" d="M284,136.2c0.2,0.2,0.4,0.4,0.6,0.6"/>
				<line class="st0" x1="284.5" y1="136.8" x2="284.5" y2="136.8"/>
			</g>
			<g>
				<path class="st61" d="M155.7,123.9c-4.2-2.4-8.7-0.2-13.1-0.5c2.3-1.4,4.6-2.6,6.9-3.9c2.3-1.2,2.6-2.5,0.8-4.5
					c-1.9-2.2-4.5-3.5-6.9-5.1c-1.8-1.2-2.9-0.8-3.9,1.1c-2.2,4.1-3.3,4.7-7.7,3.2c-3.1-1-5.9-1-8.7,0.9c-2.5,2.3-5.1,4.6-7.6,6.9
					l-0.1,0.1c-0.9,1.7-2.9,2.6-3.4,4.6c7-3.3,10.4-2.5,16.1,3.5c4.3,4.6,7.5,5.3,13.2,2.6c1.9-0.9,3.9-1.1,5.2,0.6
					c1.7,2.1,2.5,1.1,3.4-0.4c0.7-1.1,1.4-2.3,2-3.4c1.1-2.1,2.7-3.6,5.1-3.9C157.1,124.7,156.4,124.2,155.7,123.9z"/>
			</g>
		</g>
		<g class="st15">
			<g>
				<path class="st61" d="M246.4,154.1c-2.6,0.1-4.9-0.8-7.1-1.9c-4.1-1.9-8-2.1-12.5-0.7c-8.5,2.7-16.9,1.7-25-2.2
					c-1.5-0.8-3-1.7-4.2-2.9c-2.9-3.1-2.4-6.2,1.6-7.9c3.3-1.4,6.8-2,10.3-2.2c4.8-0.3,9.7-0.4,14.5-0.9c7.9-0.9,14.9-4.6,22.1-7.6
					c4.3-1.8,8.7-3.4,13.3-4.3c0.9-0.2,1.9-0.3,2.8-0.3c1.1-0.1,2.2-0.1,2.7,1.1c0.5,1.1-0.2,2-0.9,2.8c-0.4,0.5-0.8,1.1-1.3,1.5
					c-4.8,4.1-6.6,9.2-6.2,15.5C256.9,150.2,252.6,154.1,246.4,154.1z"/>
				<path class="st61" d="M262.8,124.1L262.8,124.1c0.9,0,1.1,0.2,1.2,0.5c0.2,0.5,0,0.8-0.7,1.7l-0.1,0.1c-0.1,0.1-0.2,0.2-0.3,0.3
					c-0.3,0.4-0.6,0.8-0.9,1c-4.9,4.1-7,9.4-6.6,16.3c0.2,2.6-0.5,4.8-2,6.4c-1.6,1.7-4.1,2.6-7,2.6h-0.1c-0.1,0-0.2,0-0.3,0
					c-2.3,0-4.4-0.9-6.4-1.8c-2.5-1.1-4.9-1.7-7.4-1.7c-1.9,0-3.8,0.3-5.8,0.9c-3.1,1-6.2,1.5-9.3,1.5c-4.9,0-9.9-1.2-14.9-3.7
					c-1.7-0.8-2.9-1.7-3.9-2.7c-0.9-0.9-1.8-2.3-1.5-3.7c0.3-1.3,1.7-2.2,2.8-2.6c2.8-1.2,6-1.9,10-2.1c1.8-0.1,3.6-0.2,5.3-0.3
					c3-0.1,6.2-0.3,9.2-0.6c6.4-0.7,12.3-3.3,18-5.8c1.4-0.6,2.9-1.3,4.3-1.9c3.8-1.6,8.2-3.3,13.1-4.3c0.9-0.2,1.9-0.3,2.7-0.3
					C262.4,124.1,262.6,124.1,262.8,124.1 M262.8,123.1c-0.2,0-0.4,0-0.6,0c-0.9,0-1.9,0.1-2.8,0.3c-4.6,0.9-9,2.5-13.3,4.3
					c-7.2,3-14.2,6.7-22.1,7.6c-4.8,0.5-9.7,0.6-14.5,0.9c-3.5,0.2-7,0.8-10.3,2.2c-3.9,1.7-4.5,4.7-1.6,7.9
					c1.2,1.3,2.6,2.2,4.2,2.9c5,2.4,10.1,3.8,15.3,3.8c3.2,0,6.4-0.5,9.6-1.5c1.9-0.6,3.7-0.9,5.5-0.9c2.4,0,4.7,0.5,7,1.6
					c2.2,1,4.4,1.9,6.8,1.9c0.1,0,0.2,0,0.3,0h0.1c6.2,0,10.4-3.9,10-10.1c-0.4-6.3,1.4-11.4,6.2-15.5c0.5-0.4,0.9-1,1.3-1.5
					c0.7-0.8,1.4-1.7,0.9-2.8C264.5,123.2,263.7,123.1,262.8,123.1L262.8,123.1z"/>
			</g>
			<g>
				<path class="st61" d="M154.9,177.3c-0.9-4.9-0.5-9.4,1.1-13.6c2.4-6,2.2-11.6-0.3-17.5c-0.8-2-1.3-4.2-1.4-6.4
					c-0.2-6.2,3.6-10.3,9.8-10.5c3.1-0.1,6.1,0,9,1.1c2.1,0.8,3,1.8,2.1,4.1c-1.1,2.8-2,5.7-3.1,8.9c1.7-0.2,2.6-1.5,3.7-2.4
					c2.6-2.3,5.4-4.2,9-2.5s4.9,5,5,8.7c0.2,7.5-2.7,13.8-8.6,18.5c-2.3,1.8-4.6,3.7-6.4,6.1c-1.3,1.7-3,2.5-5,1.4
					c-4.6-2.6-8.4-1.1-12.1,1.8C157,175.6,156.1,176.3,154.9,177.3z"/>
				<path class="st61" d="M166,130.3c2.8,0,5,0.3,7,1c0.9,0.3,1.5,0.7,1.7,1.1c0.2,0.4,0.1,0.9-0.2,1.7c-0.8,2-1.4,4-2.2,6.1
					c-0.3,0.9-0.6,1.9-1,2.8l-0.5,1.5l1.6-0.2c1.7-0.2,2.8-1.3,3.7-2.1c0.2-0.2,0.4-0.3,0.5-0.5c1.7-1.5,3.5-2.9,5.6-2.9
					c0.8,0,1.5,0.2,2.3,0.6c2.8,1.3,4.3,3.9,4.4,7.8c0.2,7.2-2.5,13.2-8.2,17.6c-2.2,1.7-4.7,3.7-6.6,6.3c-0.8,1-1.6,1.5-2.4,1.5
					c-0.4,0-0.9-0.1-1.3-0.4c-1.7-1-3.4-1.4-5.1-1.4c-2.6,0-5.2,1.1-8.1,3.4c-0.5,0.4-1,0.8-1.6,1.3c-0.5-4.1,0-7.8,1.3-11.3
					c2.4-6.1,2.3-12-0.3-18.2c-0.8-1.9-1.2-4-1.3-6c-0.2-5.7,3.2-9.3,8.9-9.5C164.9,130.3,165.4,130.3,166,130.3 M166,129.3
					c-0.6,0-1.1,0-1.7,0c-6.2,0.2-10,4.3-9.8,10.5c0.1,2.2,0.5,4.4,1.4,6.4c2.4,5.8,2.6,11.5,0.3,17.5c-1.6,4.1-2,8.6-1.1,13.6
					c1.2-1,2.1-1.7,2.9-2.4c2.4-1.9,4.8-3.2,7.5-3.2c1.5,0,3,0.4,4.6,1.3c0.6,0.4,1.2,0.5,1.8,0.5c1.2,0,2.3-0.8,3.2-1.9
					c1.8-2.4,4.1-4.2,6.4-6.1c5.9-4.7,8.8-10.9,8.6-18.5c-0.1-3.7-1.3-7-5-8.7c-1-0.4-1.9-0.6-2.7-0.6c-2.4,0-4.3,1.5-6.3,3.2
					c-1,0.9-2,2.1-3.7,2.4c1.1-3.2,2-6.1,3.1-8.9c0.9-2.3,0-3.3-2.1-4.1C170.9,129.5,168.5,129.3,166,129.3L166,129.3z"/>
			</g>
			<g>
				<path class="st61" d="M249.6,95.1c2.7-7.9,3-15.5,1.2-23.2c-3-12.7-9.9-19.2-22.9-20.9c-15.4-2.1-28.6,2.5-39.4,13.8
					c-0.5,0.5-0.9,1.2-1.4,1.8c-1.3-1.2-1.7-2.2-0.8-3.5c4.2-6.5,7.8-13.3,12.8-19.3c5.7-6.9,12.8-10.4,21.9-9.3
					c5.7,0.6,11.4,0.8,16.7,3.4c1.1,0.5,2.3,1.1,3.1,2c7.7,7.8,14.7,16.1,17.1,27.2c1.9,8.7-1,16.6-5,24.1
					C252.1,92.4,251.8,94.3,249.6,95.1z"/>
				<path class="st61" d="M217.8,34.2v1c1,0,2,0.1,3,0.2c0.9,0.1,1.9,0.2,2.8,0.3c4.6,0.5,9.3,0.9,13.6,3c1.1,0.5,2.1,1.1,2.8,1.8
					c8.5,8.6,14.6,16.5,16.8,26.7c1.9,8.7-1.4,16.6-4.8,23.2c1.4-6.2,1.3-12.4-0.2-18.8c-3.1-13.2-10.4-19.9-23.7-21.7
					c-2.4-0.3-4.8-0.5-7.1-0.5c-12.7,0-23.8,4.9-33.1,14.6c-0.3,0.3-0.5,0.6-0.8,0.9c-0.4-0.6-0.2-0.9,0.1-1.4
					c1.2-1.9,2.4-3.8,3.5-5.6c2.8-4.6,5.7-9.4,9.2-13.6c5.1-6.2,11-9.1,18-9.1L217.8,34.2 M217.8,34.2c-7.6,0-13.8,3.4-18.8,9.5
					c-4.9,6-8.6,12.8-12.8,19.3c-0.8,1.3-0.5,2.3,0.8,3.5c0.5-0.6,0.9-1.2,1.4-1.8c9.1-9.5,19.9-14.3,32.4-14.3c2.3,0,4.6,0.2,7,0.5
					c13,1.7,19.9,8.2,22.9,20.9c1.8,7.7,1.5,15.4-1.2,23.2c2.2-0.8,2.4-2.7,3.1-4c4-7.5,6.8-15.4,5-24.1
					c-2.4-11.1-9.4-19.4-17.1-27.2c-0.8-0.9-2-1.5-3.1-2c-5.3-2.6-11-2.8-16.7-3.4C219.9,34.2,218.8,34.2,217.8,34.2L217.8,34.2z"/>
			</g>
			<g>
				<path class="st61" d="M243.1,91.4c-1.9,7.2-5,13.7-10,19.3c-3.2,3.5-7.7,4.1-12,4.6c-9.5,1.2-18.1-1.2-25.7-7.1
					c-1.6-1.2-3.7-3-2.6-5.2c1.2-2.3,3.6-1,5.4-0.5c3.5,0.9,7,0.5,10.5-0.2c5.4-1.1,10.8-2.2,16.2-3.4c5.8-1.2,11.1-3.4,16-6.7
					C241.5,91.8,242,91.1,243.1,91.4z"/>
				<path class="st61" d="M241.7,92.9c-2,6.7-5,12.3-9.3,17.1c-2.9,3.2-7.1,3.8-11.3,4.3H221c-1.5,0.2-3.1,0.3-4.6,0.3
					c-7.3,0-14.2-2.4-20.3-7.2c-1.9-1.5-2.9-2.6-2.3-4c0.3-0.7,0.7-0.8,1.2-0.8c0.6,0,1.3,0.2,2.1,0.5c0.3,0.1,0.7,0.2,1,0.3
					c1.5,0.4,3,0.6,4.6,0.6c2.3,0,4.5-0.4,6.3-0.7c3.8-0.7,7.6-1.5,11.3-2.3c1.7-0.3,3.3-0.7,5-1c5.8-1.2,11.3-3.5,16.3-6.9
					C241.6,93,241.6,93,241.7,92.9 M242.7,91.3c-0.8,0-1.2,0.6-1.7,0.9c-4.9,3.3-10.2,5.5-16,6.7c-5.4,1.1-10.8,2.3-16.2,3.4
					c-2,0.4-4,0.7-6.1,0.7c-1.5,0-2.9-0.2-4.4-0.5c-1-0.3-2.2-0.8-3.3-0.8c-0.8,0-1.6,0.3-2.1,1.3c-1.1,2.2,1,4,2.6,5.2
					c6.3,4.9,13.3,7.4,21,7.4c1.5,0,3.1-0.1,4.7-0.3c4.3-0.6,8.8-1.1,12-4.6c5-5.5,8.1-12,10-19.3C243,91.4,242.8,91.3,242.7,91.3
					L242.7,91.3z"/>
			</g>
			<g>
				<path class="st61" d="M207.3,9.6c3.8,0,5.9,2.8,4.6,6.1c-1.5,3.8-4.3,6.9-6.4,10.4c-0.3,0.6-0.8,0.7-1.4,0.3
					c-3.9-2.3-8.5-2.8-12.7-4c-1.8-0.5-3.4-1.3-4.5-2.8c-1.5-1.9-1.2-3.6,1.1-4.5c0.9-0.3,1.9-0.6,2.8-0.5c4.4,0.3,8.2-0.9,11.8-3.4
					C203.9,10.3,205.6,9.7,207.3,9.6z"/>
				<path class="st61" d="M207.3,9.6v1c1.6,0,2.8,0.5,3.5,1.5c0.6,0.9,0.6,2,0.1,3.3c-0.9,2.4-2.4,4.4-3.9,6.6
					c-0.8,1.2-1.7,2.4-2.4,3.7l0,0c0,0,0,0-0.1,0c-3-1.7-6.2-2.5-9.3-3.2c-1.2-0.3-2.5-0.6-3.7-0.9c-1.8-0.5-3.1-1.3-4-2.5
					c-0.6-0.7-0.8-1.3-0.7-1.8s0.8-0.9,1.4-1.1c0.8-0.3,1.5-0.5,2.1-0.5c0.1,0,0.2,0,0.2,0c0.5,0,0.9,0,1.4,0
					c3.9,0,7.5-1.2,11.1-3.6c1.4-0.9,2.9-1.5,4.3-1.5L207.3,9.6 M207.3,9.6L207.3,9.6c-1.7,0.1-3.4,0.7-4.9,1.7
					c-3.2,2.2-6.7,3.4-10.5,3.4c-0.4,0-0.9,0-1.3,0c-0.1,0-0.2,0-0.3,0c-0.8,0-1.7,0.2-2.5,0.5c-2.3,0.9-2.7,2.5-1.1,4.5
					c1.2,1.5,2.8,2.3,4.5,2.8c4.3,1.2,8.8,1.7,12.7,4c0.2,0.1,0.4,0.2,0.6,0.2c0.3,0,0.6-0.2,0.8-0.5c2.1-3.5,4.9-6.6,6.4-10.4
					C213.2,12.4,211.1,9.6,207.3,9.6L207.3,9.6z"/>
			</g>
			<g>
				<path class="st61" d="M128.8,83.7c0.5-2.5,1.5-5.5,1.3-8.7c-0.1-1.1,0.9-0.7,1.4-0.2c1.2,1.1,2,2.5,2.8,3.9
					c2.1,3.8,4.9,5.5,9.4,4.5c3.3-0.8,5.4,1.5,4.7,4.8c-0.6,2.7-1.4,5.3-2.3,7.9c-0.6,1.6-1.9,2.2-3.4,1.4
					c-4.1-2.2-8.3-4.4-11.7-7.6C129.5,88.3,128.7,86.4,128.8,83.7z"/>
				<path class="st61" d="M131.1,75.8c1,1,1.6,2.2,2.3,3.4c2,3.6,4.5,5.3,7.8,5.3c0.8,0,1.7-0.1,2.6-0.3c0.4-0.1,0.7-0.1,1-0.1
					c0.9,0,1.5,0.3,2,0.8c0.5,0.7,0.7,1.7,0.4,2.9c-0.6,2.7-1.5,5.3-2.3,7.8c-0.2,0.5-0.5,1.1-1.2,1.1c-0.3,0-0.5-0.1-0.8-0.2
					c-4-2.1-8.1-4.3-11.4-7.4c-1.3-1.3-1.9-2.9-1.9-5.2c0.1-0.6,0.3-1.2,0.4-1.8C130.6,80.1,131.1,78,131.1,75.8 M130.5,74.3
					c-0.3,0-0.5,0.2-0.4,0.7c0.2,3.2-0.8,6.2-1.3,8.7c-0.1,2.7,0.7,4.6,2.2,6c3.4,3.2,7.5,5.4,11.7,7.6c0.5,0.2,0.9,0.4,1.3,0.4
					c1,0,1.7-0.6,2.1-1.8c0.9-2.6,1.7-5.2,2.3-7.9c0.6-2.9-0.9-4.9-3.4-4.9c-0.4,0-0.8,0-1.3,0.2c-0.9,0.2-1.7,0.3-2.4,0.3
					c-3.1,0-5.3-1.7-7-4.8c-0.8-1.4-1.6-2.8-2.8-3.9C131.2,74.6,130.8,74.3,130.5,74.3L130.5,74.3z"/>
			</g>
			<g>
				<path class="st61" d="M201.5,62.3c-4,3.3-4,7.9-4,12.4c0,1.4,0.5,2.7,2,3.1c1.7,0.4,3.2-0.2,4.1-1.9c1-1.9,1.4-3.9,1.6-6l0,0
					c0.1-0.2,0.2-0.5,0.3-0.7c0.8-6.2,6.7-7.4,11.1-10.8C210.5,57.8,205.6,58.5,201.5,62.3z"/>
				<path class="st61" d="M212.8,59.2c0.3,0,0.5,0,0.8,0c-0.5,0.3-1,0.6-1.5,0.8c-3.5,2-7,4-7.7,8.9l-0.2,0.6l-0.1,0.2v0.2l0,0
					c-0.1,2.1-0.6,3.9-1.4,5.5c-0.5,0.9-1.2,1.4-2.2,1.4c-0.2,0-0.5,0-0.8-0.1c-0.4-0.1-1.2-0.3-1.2-2.1c0-4.2,0-8.6,3.7-11.7l0,0
					l0,0C205,60.4,208.3,59.2,212.8,59.2 M212.8,58.2c-4.3,0-8.1,1.1-11.3,4.1c-4,3.3-4,7.9-4,12.4c0,1.4,0.5,2.7,2,3.1
					c0.3,0.1,0.7,0.1,1,0.1c1.3,0,2.4-0.6,3.1-2c1-1.9,1.4-3.9,1.6-6l0,0c0.1-0.2,0.2-0.5,0.3-0.7c0.8-6.2,6.7-7.4,11.1-10.8
					C215.2,58.3,214,58.2,212.8,58.2L212.8,58.2z"/>
			</g>
			<g>
				<path class="st61" d="M218.7,70.7c-1.2-0.3-2.2,0.2-3.3,0.3c-0.6,0-1.2,0-1.5-0.6c-0.4-0.7-0.1-1.2,0.4-1.7
					c1-1.1,4.5-1.9,5.9-1.2c0.8,0.4,1.3,1,1.2,1.9s-0.8,1.2-1.6,1.2C219.4,70.8,218.9,70.7,218.7,70.7z"/>
				<path class="st61" d="M218.8,68.3L218.8,68.3c0.6,0,0.9,0.1,1,0.2c0.7,0.3,0.6,0.7,0.6,0.9c0,0.2,0,0.3-0.7,0.4
					c-0.1,0-0.3,0-0.4,0c-0.1,0-0.2,0-0.3,0h-0.1c-0.3-0.1-0.6-0.1-0.9-0.1c-0.6,0-1.1,0.1-1.6,0.2c-0.3,0.1-0.7,0.1-0.9,0.2
					c-0.1,0-0.2,0-0.3,0c-0.2,0-0.3,0-0.3,0c-0.1-0.1-0.1-0.2,0.2-0.6C215.5,68.9,217.3,68.3,218.8,68.3 M218.8,67.3
					c-1.6,0-3.7,0.6-4.5,1.4c-0.5,0.5-0.7,1.1-0.4,1.7c0.3,0.5,0.7,0.6,1.2,0.6c0.1,0,0.2,0,0.3,0c0.8,0,1.6-0.4,2.5-0.4
					c0.2,0,0.5,0,0.8,0.1c0.1,0,0.4,0,0.6,0c0.1,0,0.3,0,0.4,0c0.8-0.1,1.5-0.3,1.6-1.2c0.1-0.9-0.4-1.6-1.2-1.9
					C219.9,67.4,219.4,67.3,218.8,67.3L218.8,67.3z"/>
			</g>
			<g>
				<path class="st61" d="M240.9,68.6c-2.9-4.5-11.2-7.4-16.5-5.8c4.2,3,7,7,9.2,11.5c0.7,2.5,1.6,4.9,1.7,7.5
					c0,0.6,0.2,1.4,0.9,1.7c0.8,0.3,1.5-0.3,2-0.9c1.7-2.1,3-4.4,3.3-7.2C242.1,73.1,242.3,70.8,240.9,68.6z"/>
				<path class="st61" d="M227.7,63.4c4.7,0,10.2,2.6,12.3,5.8c1,1.6,1.2,3.4,0.5,6.1v0.1v0.1c-0.2,2.3-1.2,4.4-3,6.6
					c-0.4,0.5-0.7,0.6-0.8,0.6h-0.1c0,0-0.2-0.1-0.2-0.8c-0.1-2.1-0.7-4.1-1.3-6c-0.2-0.6-0.3-1.1-0.5-1.7v-0.1V74
					c-2.2-4.5-4.8-7.8-7.8-10.5C227.1,63.4,227.4,63.4,227.7,63.4 M227.7,62.4c-1.2,0-2.3,0.2-3.3,0.5c4.2,3,7,7,9.2,11.5
					c0.7,2.5,1.6,4.9,1.7,7.5c0,0.6,0.2,1.4,0.9,1.7c0.2,0.1,0.3,0.1,0.5,0.1c0.6,0,1.1-0.5,1.5-0.9c1.7-2.1,3-4.4,3.3-7.2
					c0.6-2.4,0.8-4.7-0.6-6.9C238.5,65,232.7,62.4,227.7,62.4L227.7,62.4z"/>
			</g>
			<g>
				<path class="st61" d="M292,88.9c-0.2-0.6-0.4-1.3-0.6-1.9c-0.4-1.4-0.7-2.9-1.6-4.1c-1-3.6-3.4-6.4-5.2-9.5
					c-1.4-2.5-2.2-5-1.1-7.9c1.5-3.8,0.6-7.2-1.9-10.2c-4.5-5.4-9.5-10.2-15.7-13.6c-3.9-2.1-7.9-3.4-12.9-2.8
					c3.8,2.4,6.7,5,8.6,8.6c3.4,6.2,4.1,12.9,3.1,19.7c-0.7,4.8-0.7,9.2,2.7,13.2c1.8,2.2,2.6,5,3.4,7.8c2,7.2,1,14.1-1.3,21
					c-1.6,2.6-3.2,5.1-4.8,7.7c0.1,0.1,0.3,0.3,0.4,0.4c2.9-1.4,5.5-3.2,7.6-5.7c2.3-1.7,3.4-4.2,4.5-6.8c1-2.5,1.7-5,2.9-7.4
					c2-4.1,5.4-6.4,10-6.2C292.5,91.5,292.6,90.6,292,88.9z"/>
				<path class="st61" d="M256,39.8c3.1,0.1,6.1,1,9.4,2.8c5.4,3,10.5,7.4,15.4,13.4c2.4,2.9,3,6,1.7,9.2c-1.4,3.5-0.1,6.5,1.2,8.7
					c0.5,0.9,1.1,1.8,1.7,2.7c1.4,2.1,2.7,4.2,3.4,6.5l0.1,0.2l0.1,0.2c0.6,0.8,0.9,1.7,1.1,2.7c0.1,0.3,0.2,0.7,0.3,1l0.2,0.6
					c0.1,0.4,0.3,0.9,0.4,1.3c0.2,0.7,0.3,1,0.3,1.1c-0.1,0-0.3,0.1-0.8,0.1c-0.1,0-0.2,0-0.4,0c-0.2,0-0.5,0-0.7,0
					c-4.6,0-8.1,2.3-10.3,6.7c-0.7,1.5-1.3,3.1-1.9,4.7c-0.3,0.9-0.7,1.9-1,2.8c-1,2.4-2,4.8-4.2,6.4l0,0.1l-0.1,0.1
					c-1.4,1.7-3.1,3.1-5,4.2l3.4-5.5l0.1-0.1v-0.1c2.8-8.2,3.2-15,1.3-21.6c-0.8-2.7-1.6-5.8-3.6-8.2c-3-3.6-3.1-7.6-2.4-12.4
					c1.1-7.7,0-14.3-3.2-20.3C261,44.3,258.9,42,256,39.8 M255.4,38.8c-0.8,0-1.6,0-2.4,0.1c3.8,2.4,6.7,5,8.6,8.6
					c3.4,6.2,4.1,12.9,3.1,19.7c-0.7,4.8-0.7,9.2,2.7,13.2c1.8,2.2,2.6,5,3.4,7.8c2,7.2,1,14.1-1.3,21c-1.6,2.6-3.2,5.1-4.8,7.7
					c0.1,0.1,0.3,0.3,0.4,0.4c2.9-1.4,5.5-3.2,7.6-5.7c2.3-1.7,3.4-4.2,4.5-6.8c1-2.5,1.7-5,2.9-7.4c1.9-3.9,5.1-6.2,9.4-6.2
					c0.2,0,0.4,0,0.7,0c0.2,0,0.3,0,0.4,0c2,0,2-0.9,1.4-2.5c-0.2-0.6-0.4-1.3-0.6-1.9c-0.4-1.4-0.7-2.9-1.6-4.1
					c-1-3.6-3.4-6.4-5.2-9.5c-1.4-2.5-2.2-5-1.1-7.9c1.5-3.8,0.6-7.2-1.9-10.2c-4.5-5.4-9.5-10.2-15.7-13.6
					C262.6,40,259.3,38.8,255.4,38.8L255.4,38.8z"/>
			</g>
			<g>
				<path class="st61" d="M226.8,76c-1.1-0.9-2.5-0.9-3.4-0.1c-3,2.6-6.8,3.2-10.5,4.2c-1.4,0.4-3.5,0.4-3.4,2.2
					c0.1,2,2.2,2.3,3.9,2.3c3.5,0.5,6.8-0.1,10.1-1.3c1.7-0.6,3.3-1.6,4-3.4C228.2,78.5,228.1,77.1,226.8,76z"/>
				<path class="st61" d="M225.1,76.3c0.4,0,0.8,0.2,1.1,0.5s1.2,1,0.5,2.8c-0.5,1.3-1.6,2.2-3.4,2.9c-2.4,0.9-4.9,1.4-7.2,1.4
					c-0.8,0-1.6-0.1-2.4-0.2h-0.1h-0.1h-0.2c-2.6,0-2.7-0.9-2.7-1.3s0.1-0.6,1.7-0.9c0.3-0.1,0.6-0.1,0.9-0.2
					c0.7-0.2,1.5-0.4,2.2-0.6c3-0.8,6-1.6,8.6-3.8C224.4,76.4,224.7,76.3,225.1,76.3 M225.1,75.3c-0.6,0-1.2,0.2-1.7,0.6
					c-3,2.6-6.8,3.2-10.5,4.2c-1.4,0.4-3.5,0.4-3.4,2.2c0.1,1.9,2,2.3,3.7,2.3c0.1,0,0.2,0,0.2,0c0.8,0.1,1.7,0.2,2.5,0.2
					c2.6,0,5.1-0.5,7.6-1.4c1.7-0.6,3.3-1.6,4-3.4c0.6-1.4,0.5-2.9-0.8-3.9C226.3,75.5,225.7,75.3,225.1,75.3L225.1,75.3z"/>
			</g>
			<g>
				<path class="st61" d="M249.7,20.5c-1-1.2-2.2-2-3.5-2.8c-3.5-3.3-7.2-6.2-12.4-3.6c-3.5,1.8-7.2,3-11.1,3.7
					c-1.2,0.1-2.4,0.3-3.4,1.1c-2.7,0.6-4.3,2.4-5.2,4.8c-1.1,2.7-0.5,3.5,2.3,3.5c1.1,0,2.3-0.1,3.4-0.1c9.3-0.1,18.7-0.6,27.4,4.1
					c1.2,0.7,2.7,1,4.1,0.9c1.1,0,1.9-0.5,1.8-1.7C252.8,26.8,252.7,23.1,249.7,20.5z"/>
				<path class="st61" d="M237.7,14.1c3,0,5.5,2.1,7.8,4.3l0.1,0.1l0.1,0.1c1.2,0.7,2.4,1.5,3.2,2.6l0.1,0.1l0.1,0.1
					c2.6,2.3,2.8,5.5,3.1,8.9v0.4c0,0.1,0,0.3-0.1,0.4s-0.3,0.2-0.8,0.2c-0.1,0-0.2,0-0.2,0c-1.2,0-2.4-0.3-3.4-0.8
					c-7-3.8-14.5-4.3-21.6-4.3c-1.5,0-3.1,0-4.6,0h-1.7c-0.5,0-1,0-1.5,0c-0.6,0-1.2,0-1.8,0h-0.1c-1.6,0-1.8-0.3-1.8-0.3
					s-0.2-0.3,0.4-1.8c0.9-2.4,2.4-3.7,4.5-4.2h0.2l0.2-0.1c0.7-0.5,1.6-0.8,2.9-0.9h0.1h0.1c4-0.8,7.8-2,11.3-3.8
					C235.4,14.4,236.6,14.1,237.7,14.1 M237.7,13.1c-1.2,0-2.5,0.3-3.9,1c-3.5,1.8-7.2,3-11.1,3.7c-1.2,0.1-2.4,0.3-3.4,1.1
					c-2.7,0.6-4.3,2.4-5.2,4.8c-1.1,2.7-0.5,3.5,2.3,3.5h0.1c1.1,0,2.2-0.1,3.3-0.1c2.1,0,4.2-0.1,6.3-0.1c7.2,0,14.4,0.5,21.1,4.2
					c1.2,0.6,2.5,0.9,3.9,0.9c0.1,0,0.2,0,0.3,0c1.1,0,1.9-0.5,1.8-1.7c-0.3-3.6-0.5-7.3-3.4-9.9c-1-1.2-2.2-2-3.5-2.8
					C243.6,15.3,241,13.1,237.7,13.1L237.7,13.1z"/>
			</g>
			<g>
				<path class="st61" d="M262.9,93.8c-0.4-1.7-0.6-4.4-2.3-4.5c-1.8-0.1-1.8,2.7-2.5,4.3c-0.5,1.1-1,2.1-1.5,3.2
					c-0.5,0.9-1.1,1.8-1.6,2.7c-5.5,9.2-11.8,17.6-21.7,22.6c-1.2,0.6-3.3,1.1-2.8,2.6c0.6,2,2.9,1.4,4.5,1.3
					c0.8-0.1,1.7-0.3,2.5-0.6c3.3-1.1,6.6-1.6,10.1-1.8c3.6-0.2,7.1-1.2,10.1-3.5c1.3-0.7,2-1.8,2-3.3c0.4-2.8,1.3-5.5,2.4-8.1
					C263.9,103.8,264.1,98.8,262.9,93.8z"/>
				<path class="st61" d="M260.5,90.3L260.5,90.3c0.6,0,0.9,1.2,1.2,2.7c0.1,0.4,0.1,0.7,0.2,1c1.2,5,0.9,9.8-0.9,14.2
					c-1,2.4-2,5.3-2.4,8.4v0.1v0.1c0,1.1-0.4,1.9-1.5,2.4H257h-0.1c-2.6,2-5.9,3.1-9.6,3.2c-3.9,0.2-7.3,0.8-10.4,1.8
					c-0.7,0.3-1.5,0.5-2.2,0.5c-0.3,0-0.5,0-0.8,0.1c-0.4,0-0.9,0.1-1.3,0.1c-1.1,0-1.3-0.3-1.4-0.8c-0.1-0.3,0.7-0.7,1.6-1.1
					c0.3-0.1,0.5-0.2,0.8-0.3c10.7-5.4,17.2-14.6,22.1-22.9c0.4-0.6,0.7-1.2,1.1-1.8l0.5-0.9l0,0l0,0l1.5-3.2
					c0.3-0.5,0.4-1.2,0.6-1.8C259.9,90.9,260.1,90.3,260.5,90.3 M260.5,89.3c-1.8,0-1.7,2.7-2.5,4.3c-0.5,1.1-1,2.1-1.5,3.2
					c-0.5,0.9-1.1,1.8-1.6,2.7c-5.5,9.2-11.8,17.6-21.7,22.6c-1.2,0.6-3.3,1.1-2.8,2.6c0.4,1.2,1.3,1.5,2.4,1.5
					c0.7,0,1.5-0.1,2.1-0.2c0.8-0.1,1.7-0.3,2.5-0.6c3.3-1.1,6.6-1.6,10.1-1.8c3.6-0.2,7.1-1.2,10.1-3.5c1.3-0.7,2-1.8,2-3.3
					c0.4-2.8,1.3-5.5,2.4-8.1c2-4.8,2.1-9.8,0.9-14.8C262.5,92.1,262.3,89.4,260.5,89.3L260.5,89.3L260.5,89.3z"/>
			</g>
			<g>
				<path class="st61" d="M217,92.5c-5.5,0.6-10.9,0.4-16-1.9c-1.8-1.4-3.5-2.7-5.3-4.1c-1-1.4-1.9-2.7-2.9-4.1
					c-0.6-1.1-1.1-2.2-1.8-3.1c-1.2-1.5-1.9-4.6-4-4.1s-2.1,3.4-2.5,5.5c0,0.6-0.1,1.1-0.1,1.7c0.5,0.4,0.5,0.8,0,1.1
					c0,0.4,0.1,0.8,0.1,1.2c0.6,0.7,0.4,1.5,0.4,2.3c0.3,5.9,0.9,6.4,6.6,6.5c1.2,0,2.2,0.4,2.9,1.4c0.6,0.9,1.1,2,2.4,2.3
					c2.1,1.6,4.5,1.8,7,1.6c8.5,0.4,16.2-2.6,17.2-6.9C219.6,92.2,218.3,92.3,217,92.5z"/>
				<path class="st61" d="M187.4,76.1L187.4,76.1c0.6,0,1.1,0.8,1.7,2c0.3,0.6,0.7,1.2,1.1,1.8c0.5,0.6,0.8,1.3,1.2,2
					c0.2,0.3,0.4,0.7,0.6,1l0,0l0,0l1.4,2.1l1.4,2.1l0.1,0.1l0.1,0.1l3.3,2.5l2,1.6l0.1,0.1h0.1c3.4,1.5,7.2,2.3,11.5,2.3
					c1.6,0,3.3-0.1,5.1-0.3c0.7-0.1,1.5-0.2,2.2-0.3c-2,2.7-7.7,4.7-14,4.7c-0.5,0-1,0-1.5,0h-0.1h-0.1C203,98,202.5,98,202,98
					c-2,0-3.5-0.4-4.7-1.4l-0.2-0.1h-0.2c-0.6-0.1-0.9-0.6-1.4-1.3c-0.1-0.2-0.3-0.4-0.4-0.6c-0.9-1.2-2.1-1.8-3.7-1.9
					c-5.2-0.1-5.4-0.2-5.6-5.5c0-0.1,0-0.2,0-0.3c0.1-0.7,0.1-1.5-0.4-2.4v-0.3v-0.1c0.3-0.3,0.3-0.7,0.3-0.9c0-0.3-0.1-0.6-0.3-1
					v-0.9V81c0.1-0.4,0.1-0.8,0.2-1.2c0.3-2,0.5-3.2,1.5-3.5C187.3,76.1,187.4,76.1,187.4,76.1 M187.4,75.1c-0.1,0-0.3,0-0.4,0.1
					c-2.1,0.5-2.1,3.4-2.5,5.5c0,0.6-0.1,1.1-0.1,1.7c0.5,0.4,0.5,0.8,0,1.1c0,0.4,0.1,0.8,0.1,1.2c0.6,0.7,0.4,1.5,0.4,2.3
					c0.3,5.9,0.9,6.4,6.6,6.5c1.2,0,2.2,0.4,2.9,1.4c0.6,0.9,1.1,2,2.4,2.3c1.6,1.3,3.4,1.6,5.3,1.6c0.6,0,1.1,0,1.7-0.1
					c0.5,0,1.1,0,1.6,0c7.8,0,14.6-2.9,15.6-6.9c-1.4,0.2-2.7,0.3-4,0.5c-1.7,0.2-3.3,0.3-5,0.3c-3.8,0-7.5-0.6-11-2.2
					c-1.8-1.4-3.5-2.7-5.3-4.1c-1-1.4-1.9-2.7-2.9-4.1c-0.6-1.1-1.1-2.2-1.8-3.1C189.9,77.8,189.2,75.1,187.4,75.1L187.4,75.1z"/>
			</g>
			<path class="st61" d="M265.1,117.4c-0.2,0.5-0.5,0.7-1,0.4c0.2-0.3,0.4-0.5,0.6-0.8C264.9,117.1,265,117.3,265.1,117.4z"/>
			<path class="st61" d="M205.1,69.9c0.1-0.2,0.2-0.5,0.3-0.7C205.3,69.5,205.2,69.7,205.1,69.9z"/>
			<g>
				<g>
					<path class="st61" d="M171.7,94.6c-0.1,0.1-0.2,0.3-0.3,0.5C171.6,94.9,171.6,94.7,171.7,94.6z"/>
					<path class="st61" d="M171.7,94.6c-0.1,0.1-0.2,0.3-0.2,0.5C171.6,94.9,171.6,94.7,171.7,94.6L171.7,94.6z M171.5,95L171.5,95
						L171.5,95L171.5,95z"/>
				</g>
				<g>
					<path class="st61" d="M192.9,30.9c-0.6-0.1-1.2,0-1.7,0.5c-2.4-0.3-4.7,1.1-7.4-0.3c-3.1-1.6-6.4-2.9-9.9-3.5
						c-7.8-1.4-13.3,2.5-14.3,10.3c-0.4,2.8-1.3,5.5-3.3,7.5c-7,6.9-7.8,14.6-3.4,23.1c0.1,0.3,0.3,0.5,0.4,0.8
						c0.5,4.4,0.9,8.8,5.7,11c2.3,2.2,4.4,4.4,6.1,7.1c1.8,3.1,3.7,6.2,5.5,9.3c0.2-0.1,0.3-0.4,0.5-0.6c-0.1,0.2-0.3,0.5-0.5,0.6
						c0.7,1.6,1.6,3.2,2.8,4.4c1.4,1.8,2.8,3.7,5.4,2.7c2.6-1,2.2-3.5,2.1-5.6c-0.1-0.9-0.3-1.9-0.6-2.8c-1.7-4.9-3.5-9.8-5.2-14.7
						c-0.6-2.5-1.1-5-1.7-7.5c0-0.4,0-0.8-0.1-1.2c0-0.2,0-0.4,0-0.6c-0.1-0.8-0.2-1.6-0.2-2.4c0.3-0.9,0.2-1.8,0-2.7
						c0.1-0.6,0.2-1.2,0.2-1.8c0-0.2,0-0.4,0-0.6c1.1-6.4,4.5-11.6,9.2-16c4.2-3.8,9-6.7,13.8-9.6c3.4-2.1,6.9-4,9.9-6.8
						C201.8,28.6,197.4,29.8,192.9,30.9z M171.5,95c0.1-0.2,0.2-0.3,0.3-0.5C171.6,94.7,171.6,94.9,171.5,95z"/>
					<path class="st61" d="M170.8,28.3c0.9,0,1.9,0.1,2.8,0.3c3.1,0.6,6.2,1.7,9.6,3.4c1,0.5,2,0.7,3.1,0.7c0.8,0,1.5-0.1,2.2-0.2
						c0.6-0.1,1.3-0.2,1.9-0.2c0.2,0,0.4,0,0.6,0l0.5,0.1l0.3-0.3c0.1-0.1,0.3-0.2,0.6-0.2c0.1,0,0.2,0,0.3,0h0.2h0.2h0.1
						c2.3-0.6,4.5-1.1,6.6-1.1c1.7,0,3.2,0.3,4.7,1.1c-2.1,1.7-4.4,3.2-6.7,4.5c-0.7,0.4-1.4,0.8-2.1,1.3c-0.5,0.3-1.1,0.7-1.6,1
						c-4.2,2.6-8.5,5.3-12.3,8.7c-5.3,4.9-8.4,10.3-9.5,16.6l0,0l0,0v0.5l-0.2,1.8v0.2v0.2c0.2,0.9,0.2,1.6,0,2.2L172,69v0.2
						l0.2,2.4v0.3v0.3l0.1,1.2v0.1v0.1l0.6,2.6l1.1,4.9v0.1v0.1l1.3,3.7c1.3,3.6,2.6,7.3,3.9,11c0.3,0.9,0.5,1.7,0.5,2.5V99
						c0.2,2.2,0.2,3.5-1.5,4.1c-0.3,0.1-0.7,0.2-1,0.2c-1.3,0-2.2-1.2-3.2-2.6v-0.1l0,0c-0.9-0.9-1.7-2.1-2.4-3.5
						c0.1-0.1,0.1-0.2,0.2-0.3l-0.4-0.2l0,0l0,0l-0.1-0.1l0.1-0.1l-1.7-2.8c-1.3-2.2-2.6-4.3-3.8-6.5c-1.8-3-4.1-5.4-6.2-7.4
						l-0.1-0.1l-0.1-0.1c-4.2-1.9-4.6-5.8-5.1-10v-0.2v-0.2l-0.1-0.2l-0.1-0.2c-0.1-0.2-0.2-0.3-0.3-0.5c-4.4-8.3-3.3-15.5,3.2-21.9
						c1.9-1.9,3.1-4.5,3.5-8.1C161.4,31.8,165.1,28.3,170.8,28.3 M172.4,95.4c0.1-0.1,0.1-0.2,0.2-0.3l-1.7-1.1
						c-0.1,0.2-0.2,0.4-0.3,0.6L172.4,95.4 M170.8,27.3c-6.1,0-10.4,3.9-11.3,10.6c-0.4,2.8-1.3,5.5-3.3,7.5
						c-7,6.9-7.8,14.6-3.4,23.1c0.1,0.3,0.3,0.5,0.4,0.8c0.5,4.4,0.9,8.8,5.7,11c2.3,2.2,4.4,4.4,6.1,7.1c1.8,3.1,3.7,6.2,5.5,9.3
						c0.2-0.1,0.3-0.4,0.5-0.6c-0.1,0.2-0.3,0.5-0.5,0.6c0.7,1.6,1.6,3.2,2.8,4.4c1.1,1.4,2.3,2.9,4,2.9c0.4,0,0.8-0.1,1.3-0.3
						c2.6-1,2.2-3.5,2.1-5.6c-0.1-0.9-0.3-1.9-0.6-2.8c-1.7-4.9-3.5-9.8-5.2-14.7c-0.6-2.5-1.1-5-1.7-7.5c0-0.4,0-0.8-0.1-1.2
						c0-0.2,0-0.4,0-0.6c-0.1-0.8-0.2-1.6-0.2-2.4c0.3-0.9,0.2-1.8,0-2.7c0.1-0.6,0.2-1.2,0.2-1.8c0-0.2,0-0.4,0-0.6
						c1.1-6.4,4.5-11.6,9.2-16c4.2-3.8,9-6.7,13.8-9.6c3.4-2.1,6.9-4,9.9-6.8c-2.1-1.4-4.2-1.9-6.4-1.9c-2.3,0-4.7,0.6-7,1.2
						c-0.1,0-0.3,0-0.4,0c-0.5,0-0.9,0.1-1.3,0.5c-0.2,0-0.5,0-0.7,0c-1.3,0-2.7,0.4-4,0.4c-0.9,0-1.7-0.1-2.7-0.6
						c-3.1-1.6-6.4-2.9-9.9-3.5C172.8,27.4,171.8,27.3,170.8,27.3L170.8,27.3z M171.5,95c0.1-0.2,0.2-0.3,0.3-0.5
						C171.6,94.7,171.6,94.9,171.5,95L171.5,95z"/>
				</g>
				<g>
					<path class="st61" d="M184.9,87c0-0.8,0.3-1.6-0.4-2.3C184.3,85.5,184.5,86.3,184.9,87z"/>
					<path class="st61" d="M184.5,84.7c-0.2,0.8,0,1.6,0.4,2.3C184.9,86.2,185.1,85.4,184.5,84.7L184.5,84.7z"/>
				</g>
				<g>
					<path class="st61" d="M184.4,82.4c0,0.4,0,0.8,0,1.1C184.9,83.1,184.9,82.8,184.4,82.4z"/>
					<path class="st61" d="M183.9,83.2L183.9,83.2L183.9,83.2 M184.4,82.4c0,0.4,0,0.8,0,1.1C184.9,83.1,184.9,82.8,184.4,82.4
						L184.4,82.4z"/>
				</g>
			</g>
			<g>
				<path class="st61" d="M212.3,123.4c-3.5,0.8-6.9,0.1-9.9-1.7c-8-4.6-16.6-7.4-25.4-10.2c-8.8-2.8-14.2-8.8-16.6-17.7
					c-0.4-1.7-0.8-3.3-1.7-4.8c-0.6-1-1.1-2.1-2.5-2.1c-1.5,0.1-2.1,1.3-2.5,2.4c-1.2,3.5-2.5,7-3.5,10.5c-0.7,2.5-0.4,4.9,2,6.7
					c1.1,0.8,2.1,1.7,2.5,3.1c2.8,8.4,9,12.6,17.4,14.3c3.3,0.6,6.4,1.8,8.8,4.4c0.4,0.6,0.8,1.1,1.2,1.7c2.6,6.1,4.2,6.7,9.9,3.9
					c4-2,8.1-3.2,12.5-3.8c2-0.3,4-0.1,5.9-0.7c2.2-0.6,3.7-1.9,3.8-4.4C214.2,123.7,213.8,123,212.3,123.4z"/>
				<path class="st61" d="M156.3,87.9L156.3,87.9c0.6,0,0.8,0.4,1.4,1.3l0.2,0.3c0.8,1.3,1.1,2.7,1.5,4.2l0.1,0.3
					c2.5,9.4,8.3,15.6,17.2,18.4c9.2,2.9,17.5,5.7,25.2,10.1c2.4,1.4,5,2.1,7.6,2.1c1,0,2.1-0.1,3.1-0.3c0.2,0,0.4-0.1,0.5-0.1h0.1
					c0,0.1,0.1,0.3,0.1,0.7c-0.1,1.8-1,2.8-3.1,3.4c-1.1,0.3-2.3,0.4-3.6,0.5c-0.7,0-1.5,0.1-2.2,0.2c-4.6,0.6-8.9,1.9-12.8,3.9
					c-2.1,1.1-3.5,1.5-4.5,1.5c-1.3,0-2.3-0.8-4.1-4.9v-0.1l-0.1-0.1l-1.2-1.7v-0.1l0,0c-2.2-2.4-5.2-3.9-9.3-4.7
					c-8.6-1.7-14.1-6.2-16.6-13.6c-0.6-1.6-1.8-2.8-2.8-3.5c-1.8-1.3-2.3-3.2-1.6-5.6c1-3.4,2.2-6.8,3.4-10l0.2-0.4
					C155.1,88.4,155.5,88,156.3,87.9L156.3,87.9 M156.3,86.9C156.2,86.9,156.2,86.9,156.3,86.9c-1.6,0.1-2.2,1.3-2.6,2.4
					c-1.2,3.5-2.5,7-3.5,10.5c-0.7,2.5-0.4,4.9,2,6.7c1.1,0.8,2.1,1.7,2.5,3.1c2.8,8.4,9,12.6,17.4,14.3c3.3,0.6,6.4,1.8,8.8,4.4
					c0.4,0.6,0.8,1.1,1.2,1.7c1.6,3.8,2.9,5.5,5,5.5c1.2,0,2.8-0.6,4.9-1.6c4-2,8.1-3.2,12.5-3.8c2-0.3,4-0.1,5.9-0.7
					c2.2-0.6,3.7-1.9,3.8-4.4c0-1-0.2-1.7-1.2-1.7c-0.2,0-0.4,0-0.7,0.1c-1,0.2-1.9,0.3-2.9,0.3c-2.5,0-4.9-0.7-7.1-2
					c-8-4.6-16.6-7.4-25.4-10.2c-8.8-2.8-14.2-8.8-16.6-17.7c-0.4-1.7-0.8-3.3-1.7-4.8C158.1,88,157.6,86.9,156.3,86.9L156.3,86.9z"
					/>
			</g>
			<g>
				<g>
					<path class="st61" d="M309.2,154.5c-2.5-5.1-4.5-10.4-5.6-16c-0.5-2.6-1.9-5.1-4.9-5.2c-3.3-0.1-4.7-1.8-5.7-4.5
						c-0.2-1.4-0.9-2.6-2-3.5c-0.4-1.1-1.3-1.8-2.3-2.3c-1.6-1.6-3.7-2.4-5.9-2.7c-0.4,0-0.8,0-1.1-0.1c-2-0.5-3.9-0.1-5.8,0.6
						c-1.8,0.7-4.3,1.3-4.6,3.3c-0.3,2.1,1.7,3.6,3.5,4.7c3,2.5,6.1,5,9.1,7.4c0.2,0.2,0.4,0.4,0.6,0.6l0,0l0,0
						c0.7,1.2,1.7,2.1,2.8,2.9c-1.9,0.4-2.7-1.6-4.3-1.9c-1.9-1.6-4.3-2.3-6.5-3.1c-3.9-1.3-7.8-2.3-11,1.5
						c-0.5,0.2-0.8,0.6-0.9,1.2c-4,6.8-2.6,11.9,4.3,14.8c2.3,1,4.7,1.6,7,2.4c1.1,0.8,2.4,1.1,3.6,1.5c3.2,1.6,6.4,3.3,8.9,6
						c2.4,2.6,3.7,2.6,5.9-0.3c1.8-2.4,4.1-3.8,7-4.5c3.4-0.3,6.8,0.5,10.4,1.3C310.9,156.9,310.2,155.6,309.2,154.5z"/>
					<path class="st61" d="M279.8,121c0.6,0,1.1,0.1,1.6,0.2h0.1h0.1h0.7h0.4c2.2,0.3,4,1.1,5.3,2.4l0.1,0.1l0.1,0.1
						c0.9,0.5,1.6,1,1.8,1.8l0.1,0.2l0.2,0.2c0.9,0.8,1.5,1.8,1.7,2.9v0.1v0.1c0.9,2.5,2.4,5.1,6.6,5.2c2,0,3.3,1.5,3.9,4.4
						c1.1,5.2,3,10.5,5.7,16.2l0.1,0.1l0.1,0.1c0.5,0.6,1,1.3,1.4,2.1c-2.4-0.5-4.8-1-7.2-1c-0.5,0-1.1,0-1.6,0.1h-0.1h-0.1
						c-3.2,0.8-5.7,2.3-7.6,4.8c-0.9,1.2-1.6,1.8-2.1,1.8s-1.2-0.5-2.2-1.6c-2.5-2.7-5.7-4.4-9.2-6.2h-0.1h-0.1
						c-0.3-0.1-0.5-0.2-0.8-0.3c-0.9-0.3-1.8-0.6-2.5-1.1l-0.1-0.1l-0.2-0.1c-0.7-0.3-1.5-0.5-2.2-0.7c-1.6-0.5-3.2-1-4.7-1.7
						c-3-1.3-4.9-3-5.6-5.1c-0.7-2.2-0.1-5,1.8-8.3l0.1-0.2v-0.2c0-0.3,0.2-0.4,0.3-0.5l0.2-0.1l0.1-0.2c1.4-1.6,2.9-2.3,4.8-2.3
						c1.7,0,3.6,0.6,5.2,1.1l0.7,0.3c2,0.7,3.9,1.4,5.5,2.7l0.2,0.2h0.3c0.4,0.1,0.8,0.4,1.3,0.7c0.7,0.5,1.5,1.2,2.7,1.2
						c0.2,0,0.5,0,0.7-0.1l2.1-0.5l-1.8-1.3c-1.1-0.8-2-1.7-2.6-2.6l-0.8,0.5l0.7-0.7l-0.4-0.4l-0.2-0.2l0,0l0,0l-9.1-7.4l0,0l0,0
						c-1.8-1.2-3.3-2.3-3.1-3.7c0.2-1,1.4-1.6,3.1-2.2c0.3-0.1,0.6-0.2,0.9-0.3C277.5,121.2,278.7,121,279.8,121 M279.8,120
						c-1.3,0-2.7,0.3-3.9,0.8c-1.8,0.7-4.3,1.3-4.6,3.3c-0.3,2.1,1.7,3.6,3.5,4.7c3,2.5,6.1,5,9.1,7.4c0.2,0.2,0.4,0.4,0.6,0.6l0,0
						l0,0c0.7,1.2,1.7,2.1,2.8,2.9c-0.2,0-0.4,0.1-0.5,0.1c-1.5,0-2.4-1.7-3.8-1.9c-1.9-1.6-4.3-2.3-6.5-3.1
						c-1.9-0.6-3.7-1.2-5.5-1.2c-2,0-3.8,0.7-5.5,2.6c-0.5,0.2-0.8,0.6-0.9,1.2c-4,6.8-2.6,11.9,4.3,14.8c2.3,1,4.7,1.6,7,2.4
						c1.1,0.8,2.4,1.1,3.6,1.5c3.2,1.6,6.4,3.3,8.9,6c1.2,1.3,2.1,1.9,2.9,1.9c0.9,0,1.8-0.7,2.9-2.2c1.8-2.4,4.1-3.8,7-4.5
						c0.5,0,1-0.1,1.5-0.1c2.9,0,5.8,0.7,8.9,1.4c-0.7-1.8-1.4-3.1-2.4-4.2c-2.5-5.1-4.5-10.4-5.6-16c-0.5-2.6-1.9-5.1-4.9-5.2
						c-3.3-0.1-4.7-1.8-5.7-4.5c-0.2-1.4-0.9-2.6-2-3.5c-0.4-1.1-1.3-1.8-2.3-2.3c-1.6-1.6-3.7-2.4-5.9-2.7c-0.4,0-0.8,0-1.1-0.1
						C281.1,120,280.4,120,279.8,120L279.8,120z"/>
				</g>
				<path class="st61" d="M284,136.2c0.2,0.2,0.4,0.4,0.6,0.6"/>
				<line class="st0" x1="284.5" y1="136.8" x2="284.5" y2="136.8"/>
			</g>
			<g>
				<path class="st61" d="M155.7,123.9c-4.2-2.4-8.7-0.2-13.1-0.5c2.3-1.4,4.6-2.6,6.9-3.9c2.3-1.2,2.6-2.5,0.8-4.5
					c-1.9-2.2-4.5-3.5-6.9-5.1c-1.8-1.2-2.9-0.8-3.9,1.1c-2.2,4.1-3.3,4.7-7.7,3.2c-3.1-1-5.9-1-8.7,0.9c-2.5,2.3-5.1,4.6-7.6,6.9
					l-0.1,0.1c-0.9,1.7-2.9,2.6-3.4,4.6c7-3.3,10.4-2.5,16.1,3.5c4.3,4.6,7.5,5.3,13.2,2.6c1.9-0.9,3.9-1.1,5.2,0.6
					c1.7,2.1,2.5,1.1,3.4-0.4c0.7-1.1,1.4-2.3,2-3.4c1.1-2.1,2.7-3.6,5.1-3.9C157.1,124.7,156.4,124.2,155.7,123.9z"/>
				<path class="st61" d="M141.7,110.3L141.7,110.3c0.3,0,0.7,0.2,1.2,0.5c0.6,0.4,1.1,0.7,1.7,1.1c1.8,1.2,3.6,2.2,4.9,3.8
					c0.8,0.9,0.9,1.4,0.9,1.7c0,0.2-0.3,0.7-1.4,1.2l-0.9,0.5c-2,1.1-4.1,2.2-6,3.4l-2.5,1.6l3,0.2c0.3,0,0.6,0,0.9,0
					c1.3,0,2.7-0.2,3.9-0.3c1.3-0.2,2.4-0.3,3.6-0.3c1.6,0,2.9,0.3,4.2,1c0.1,0.1,0.3,0.1,0.4,0.2c-2.4,0.7-3.7,2.6-4.5,4.1
					c-0.7,1.2-1.3,2.3-2,3.4c-0.6,0.9-0.8,1.1-0.9,1.1c0,0-0.3,0-0.9-0.8c-0.8-1.1-2-1.6-3.4-1.6c-0.9,0-2,0.3-3.1,0.8
					c-2.1,1-3.8,1.5-5.2,1.5c-2.2,0-4.2-1.1-6.8-3.9c-3.2-3.5-6.2-5.8-10-5.8c-1.2,0-2.6,0.2-4.1,0.7c0.5-0.5,1.1-1.1,1.5-1.8l7-6.3
					l0.5-0.5c1.4-0.9,2.8-1.3,4.3-1.3c1.1,0,2.2,0.2,3.5,0.6c1.7,0.6,2.8,0.8,3.7,0.8c2.6,0,3.9-1.9,5.2-4.5
					C141.1,110.3,141.6,110.3,141.7,110.3 M141.7,109.3c-0.8,0-1.5,0.6-2.1,1.7c-1.5,2.8-2.5,3.9-4.4,3.9c-0.9,0-2-0.3-3.4-0.7
					c-1.3-0.4-2.6-0.7-3.8-0.7c-1.7,0-3.3,0.5-4.9,1.5c-2.5,2.3-5.1,4.6-7.6,6.9l-0.1,0.1c-0.9,1.7-2.9,2.6-3.4,4.6
					c2.7-1.3,4.9-1.9,6.8-1.9c3.2,0,5.8,1.7,9.3,5.5c2.7,2.9,4.9,4.2,7.5,4.2c1.7,0,3.5-0.5,5.7-1.6c0.9-0.4,1.8-0.7,2.6-0.7
					c1,0,1.9,0.4,2.6,1.2c0.7,0.8,1.2,1.2,1.7,1.2c0.7,0,1.2-0.7,1.7-1.6c0.7-1.1,1.4-2.3,2-3.4c1.1-2.1,2.7-3.6,5.1-3.9
					c-0.1-1-0.8-1.4-1.4-1.8c-1.5-0.9-3.1-1.1-4.6-1.1c-2.5,0-5,0.7-7.5,0.7c-0.3,0-0.6,0-0.9,0c2.3-1.4,4.6-2.6,6.9-3.9
					c2.3-1.2,2.6-2.5,0.8-4.5c-1.9-2.2-4.5-3.5-6.9-5.1C142.8,109.5,142.3,109.3,141.7,109.3L141.7,109.3z"/>
			</g>
		</g>
	</g>
</g>
</svg>
