<?xml version="1.0" encoding="utf-8"?>
<!-- Generator: Adobe Illustrator 24.1.2, SVG Export Plug-In . SVG Version: 6.00 Build 0)  -->
<svg version="1.1" id="圖層_1" xmlns="http://www.w3.org/2000/svg" xmlns:xlink="http://www.w3.org/1999/xlink" x="0px" y="0px"
	 viewBox="0 0 436.2 245.2" style="enable-background:new 0 0 436.2 245.2;" xml:space="preserve">
<style type="text/css">
	.st0{fill:#6699A1;}
	.st1{fill:none;stroke:#FFFFFF;stroke-width:3.2426;stroke-miterlimit:10;}
	.st2{fill:#FFFFFF;}
	.st3{font-family:'NotoSansCJKtc-Bold-B5pc-H';}
	.st4{font-size:34.047px;}
	.st5{letter-spacing:5;}
</style>
<g>
	<g>
		<path class="st0" d="M371.7,161.6V82.8c-11.8,0-21.4-9.6-21.4-21.4H86.5c0,11.8-9.6,21.4-21.4,21.4v78.9
			c11.8,0,21.4,9.6,21.4,21.4h263.7C350.2,171.2,359.8,161.6,371.7,161.6z"/>
	</g>
	<path class="st1" d="M362,155.2v-66c-10.7-2.1-17.1-6.4-21.4-19.3H96.2C91.9,82.8,85.4,87,74.7,89.2v66
		c12.9,4.3,17.1,8.6,21.4,19.3h244.4C344.9,161.6,351.3,157.3,362,155.2z"/>
	<g>
		<text transform="matrix(1 0 0 1 203.3351 133.7812)" class="st2 st3 st4 st5">登出</text>
	</g>
	<g>
		<g>
			<path class="st2" d="M156.9,108.8c-1.5,0-2.9,0.1-4.4,0.1c0-0.1,0-0.2,0-0.3c0-1.3-0.1-2.5-0.1-3.8c0-0.9-0.4-1.3-1.3-1.3
				c-5.7,0.1-11.3,0.3-17,0.5c-0.1,0-0.2,0-0.4,0c0.1,0.1,0.2,0.1,0.3,0.2c3.1,1.5,6.2,3,9.4,4.5c1,0.5,1.5,1.2,1.5,2.4
				c0.1,6,0.3,12,0.5,18c0,0.1,0,0.3,0,0.4c0.1,0,0.3,0,0.4,0c2-0.1,4-0.1,5.9-0.2c0.9,0,1.3-0.4,1.3-1.3c-0.1-2.7-0.1-5.4-0.2-8.2
				c0-0.1,0-0.2,0-0.4c0.1,0,0.2,0,0.3,0c1.3,0,2.6-0.1,3.8-0.1c0.2,0,0.3,0,0.3,0.3c0.1,3.9,0.2,7.8,0.3,11.7
				c0,1.4-0.9,2.3-2.3,2.4c-3.1,0.1-6.2,0.2-9.3,0.2c-0.1,0-0.2,0-0.4,0c0,0.1,0,0.3,0,0.4c0.1,2.6,0.1,5.3,0.2,7.9
				c0,0.7-0.3,1.1-0.9,1.2c-0.3,0-0.6,0-0.9-0.1c-2.7-1.3-5.4-2.6-8.1-3.9c-2.8-1.4-5.7-2.8-8.5-4.1c-0.9-0.4-1.4-1.2-1.4-2.2
				c-0.3-10.2-0.5-20.5-0.8-30.7c0-1.5,0.8-2.4,2.4-2.5c8.9-0.2,17.8-0.5,26.8-0.7c1.5,0,2.4,0.8,2.5,2.4c0.1,2.4,0.1,4.7,0.2,7.1
				C156.9,108.5,156.9,108.6,156.9,108.8z"/>
		</g>
		<g>
			<path class="st2" d="M162.6,111.3c-0.5-0.5-1-0.9-1.5-1.4c-0.6-0.5-1.2-1.1-1.7-1.6c-0.6-0.6-0.9-1.4-0.6-2.3
				c0.2-0.8,0.7-1.3,1.5-1.5s1.6,0,2.2,0.6c1.4,1.3,2.7,2.5,4,3.8c1.1,1,2.2,2.1,3.3,3.1c0.9,0.8,1.1,1.9,0.5,2.8
				c-0.1,0.2-0.3,0.4-0.5,0.6c-2.2,2.4-4.5,4.7-6.7,7.1c-0.6,0.6-1.2,1-2,0.9c-0.9-0.1-1.5-0.6-1.9-1.4c-0.3-0.9-0.1-1.8,0.5-2.5
				c0.8-0.8,1.5-1.6,2.3-2.4c0.2-0.2,0.5-0.5,0.7-0.7v-0.1c-0.1,0-0.2,0-0.3,0c-4,0.1-8,0.2-11.9,0.3c-1,0-1.7-0.3-2.2-1.2
				c-0.5-0.8-0.5-1.7,0-2.6c0.4-0.7,1.1-1.1,1.9-1.1c4-0.1,8-0.2,12-0.3C162.4,111.3,162.5,111.3,162.6,111.3L162.6,111.3z"/>
		</g>
	</g>
</g>
</svg>
