<?xml version="1.0" encoding="utf-8"?>
<!-- Generator: Adobe Illustrator 24.1.2, SVG Export Plug-In . SVG Version: 6.00 Build 0)  -->
<svg version="1.1" id="圖層_1" xmlns="http://www.w3.org/2000/svg" xmlns:xlink="http://www.w3.org/1999/xlink" x="0px" y="0px"
	 viewBox="0 0 518.4 189.4" style="enable-background:new 0 0 518.4 189.4;" xml:space="preserve">
<g>
	<path d="M232.3,132.5c5-1,10-2.8,15-2.9c13.1-0.4,26.1-0.1,39.6-1.7c-7.9-4.4-15.6-9.1-23.7-13c-1.6-0.8-4.8,0.5-6.8,1.6
		c-16.3,9.3-32.5,18.9-48.8,28.3c-7.2,4.2-8.6,3.3-8.7-5.2c-0.1-7.6,0-15.2,0-24.4c-11.1,5.3-21,10-30.9,14.8
		c-3.7,1.8-7.2,3.9-11,5.2c-2.8,0.9-5.9,0.6-8.9,0.8c-0.2-0.8-0.5-1.6-0.7-2.4c2-1.2,4-2.4,6.1-3.4c14.2-6.9,28.4-13.7,42.6-20.5
		c7.7-3.7,9-2.8,9.1,6.1c0.1,7.3,0,14.5,0,23.2c17.2-10,33.2-18.9,48.6-28.5c5.6-3.5,9.6-3.2,15.1,0c15.1,8.9,30.5,17.1,44.2,24.6
		c2.7-6.9,3.9-14.4,8-19.6c5.2-6.7,14.1-7.3,22.4-7.3c21.6,0,43.3-0.1,64.9,0.1c2.8,0,5.6,1.8,8.4,2.8c-2.7,1.1-5.3,3-8,3.1
		c-21.6,0.3-43.3-0.1-64.9,0.3c-5.4,0.1-11.3,1.2-16,3.7c-3.1,1.7-6.2,6.8-6.1,10.2c0.1,3.3,3.8,7.9,7.1,9.4
		c4.6,2.2,10.3,2.8,15.5,2.9c21.9,0.3,43.8,0,65.6,0.3c2.4,0,4.7,1.8,7,2.7c-2.4,1.2-4.8,3.4-7.2,3.4c-22.6,0.3-45.3,0.5-67.9,0
		c-13.1-0.3-26.5-0.1-37.6-9.4c-2.2-1.8-6.2-1.9-9.4-1.9c-18.3-0.2-36.6-0.1-55-0.1c-2.4,0-4.8,0-7.3,0
		C232.6,134.6,232.5,133.6,232.3,132.5z"/>
	<path d="M108.1,114.8c0,9.9,0.2,18.2-0.1,26.6c-0.1,1.9-1.6,3.7-2.5,5.6c-1.2-1.8-3.3-3.7-3.4-5.5c-0.3-9.6-0.1-19.3-0.1-28.9
		c0-5.3,2-7,7.1-4.4c13.1,6.7,26.2,13.3,39.3,19.9c-0.1,0.8-0.1,1.6-0.2,2.4c-3.4-0.2-7.2,0.5-10.1-0.8
		C128.4,125.3,119.1,120.3,108.1,114.8z"/>
	<path d="M223.2,123.2c-3.7,0.2-7.3,0.4-11,0.6c-0.1-1.4-0.1-2.7-0.2-4.1c3.7-0.2,7.4-0.3,11-0.5C223,120.6,223.1,121.9,223.2,123.2
		z"/>
	<path d="M299.9,119.8c3.7,0,7.4,0,11.1,0c0,1.1,0.1,2.1,0.1,3.2c-3.7,0.2-7.3,0.5-11,0.7C300,122.4,299.9,121.1,299.9,119.8z"/>
</g>
</svg>
