<?xml version="1.0" encoding="utf-8"?>
<!-- Generator: Adobe Illustrator 24.1.2, SVG Export Plug-In . SVG Version: 6.00 Build 0)  -->
<svg version="1.1" id="圖層_1" xmlns="http://www.w3.org/2000/svg" xmlns:xlink="http://www.w3.org/1999/xlink" x="0px" y="0px"
	 viewBox="0 0 518.4 189.4" style="enable-background:new 0 0 518.4 189.4;" xml:space="preserve">
<g>
	<path d="M214.7,135.9c8.2-1.6,16.5-4.6,24.7-4.8c21.6-0.7,43-0.2,65.2-2.8c-13-7.2-25.7-15-39-21.4c-2.6-1.3-7.9,0.8-11.2,2.6
		c-26.8,15.3-53.5,31.1-80.4,46.6c-11.9,6.9-14.2,5.4-14.3-8.6c-0.2-12.5,0-25,0-40.2c-18.3,8.7-34.6,16.5-50.9,24.4
		c-6.1,3-11.9,6.4-18.1,8.6c-4.6,1.5-9.7,1-14.7,1.3c-0.3-1.3-0.8-2.6-1.2-4c3.3-2,6.6-4,10-5.6c23.4-11.4,46.8-22.6,70.2-33.8
		c12.7-6.1,14.8-4.6,15,10c0.2,12,0,23.9,0,38.2c28.3-16.5,54.7-31.1,80-46.9c9.2-5.8,15.8-5.3,24.9,0
		c24.9,14.7,50.2,28.2,72.8,40.5c4.4-11.4,6.4-23.7,13.2-32.3c8.6-11,23.2-12,36.9-12c35.6,0,71.3-0.2,106.9,0.2
		c4.6,0,9.2,3,13.8,4.6c-4.4,1.8-8.7,4.9-13.2,5.1c-35.6,0.5-71.3-0.2-106.9,0.5c-8.9,0.2-18.6,2-26.4,6.1
		c-5.1,2.8-10.2,11.2-10,16.8c0.2,5.4,6.3,13,11.7,15.5c7.6,3.6,17,4.6,25.5,4.8c36.1,0.5,72.1,0,108,0.5c4,0,7.7,3,11.5,4.4
		c-4,2-7.9,5.6-11.9,5.6c-37.2,0.5-74.6,0.8-111.8,0c-21.6-0.5-43.6-0.2-61.9-15.5c-3.6-3-10.2-3.1-15.5-3.1
		c-30.1-0.3-60.3-0.2-90.6-0.2c-4,0-7.9,0-12,0C215.2,139.4,215.1,137.7,214.7,135.9z"/>
	<path d="M10.2,106.8c0,16.3,0.3,30-0.2,43.8c-0.2,3.1-2.6,6.1-4.1,9.2c-2-3-5.4-6.1-5.6-9.1c-0.5-15.8-0.2-31.8-0.2-47.6
		c0-8.7,3.3-11.5,11.7-7.2c21.6,11,43.2,21.9,64.7,32.8c-0.2,1.3-0.2,2.6-0.3,4c-5.6-0.3-11.9,0.8-16.6-1.3
		C43.6,124.1,28.3,115.8,10.2,106.8z"/>
	<path d="M199.7,120.6c-6.1,0.3-12,0.7-18.1,1c-0.2-2.3-0.2-4.4-0.3-6.8c6.1-0.3,12.2-0.5,18.1-0.8
		C199.4,116.3,199.6,118.5,199.7,120.6z"/>
	<path d="M326.1,115c6.1,0,12.2,0,18.3,0c0,1.8,0.2,3.5,0.2,5.3c-6.1,0.3-12,0.8-18.1,1.2C326.2,119.3,326.1,117.2,326.1,115z"/>
</g>
</svg>
