<?xml version="1.0" encoding="utf-8"?>
<!-- Generator: Adobe Illustrator 24.1.2, SVG Export Plug-In . SVG Version: 6.00 Build 0)  -->
<svg version="1.1" id="圖層_1" xmlns="http://www.w3.org/2000/svg" xmlns:xlink="http://www.w3.org/1999/xlink" x="0px" y="0px"
	 viewBox="0 0 974.8 686.6" style="enable-background:new 0 0 974.8 686.6;" xml:space="preserve">
<style type="text/css">
	.st0{fill:#CCCCCC;}
	.st1{fill:#999999;}
</style>
<g>
	<g>
		<circle class="st0" cx="469.7" cy="344.3" r="228.7"/>
	</g>
	<g>
		<g>
			<path class="st1" d="M524.6,355c-15.4,11.3-33.8,17.5-53.4,18h-1.7c-20.5,0-39.7-6.8-55.1-18.4c-25,20.1-41.2,53.4-40.6,91
				c0,0.6,6.4-11.8,0,1.9c-5.6,12,191.7,13.5,191.5-3.4c0-1.3,0-1.9,0-2.6C564.6,405.6,548.5,374.2,524.6,355z"/>
		</g>
		<g>
			<path class="st1" d="M565.4,441.5c0,0.2,0,0.4,0,0.6C565.4,442.8,565.4,438.1,565.4,441.5z"/>
		</g>
		<g>
			<path class="st1" d="M469.7,348.8c0.4,0,0.9,0,1.3,0c-1.5,0-2.8,0-4.3-0.2C467.6,348.6,468.6,348.8,469.7,348.8z"/>
		</g>
		<g>
			<path class="st1" d="M538.9,270.8c0-0.9-0.2-1.5-0.4-2.4c-0.2-1.5-0.4-3-0.9-4.5c-0.2-0.9-0.4-1.7-0.6-2.6
				c-0.4-1.3-0.6-2.8-1.1-4.1c-0.2-0.9-0.6-1.7-1.1-2.6c-0.4-1.3-0.9-2.6-1.5-3.8c-0.4-0.9-0.9-1.7-1.3-2.6
				c-0.6-1.3-1.1-2.4-1.7-3.4c-0.4-0.9-1.1-1.5-1.5-2.4c-0.6-1.1-1.3-2.1-2.1-3.2c-0.6-0.9-1.1-1.5-1.7-2.1c-0.9-1.1-1.5-2.1-2.4-3
				c-0.6-0.6-1.3-1.3-1.9-2.1c-0.9-0.9-1.7-1.9-2.6-2.8c-0.6-0.6-1.5-1.3-2.1-1.9c-0.9-0.9-1.9-1.7-2.8-2.6
				c-0.9-0.6-1.5-1.1-2.4-1.7c-1.1-0.6-1.9-1.5-3-2.1c-0.9-0.6-1.7-1.1-2.6-1.5c-1.1-0.6-2.1-1.3-3.2-1.9c-0.9-0.4-1.7-0.9-2.8-1.3
				c-1.1-0.4-2.1-1.1-3.4-1.5c-0.9-0.4-1.9-0.6-3-1.1s-2.4-0.9-3.4-1.3c-1.1-0.2-2.1-0.4-3-0.9c-1.3-0.2-2.4-0.6-3.6-0.9
				c-1.1-0.2-2.1-0.4-3.2-0.4c-1.3-0.2-2.4-0.4-3.6-0.4c-1.1,0-2.4-0.2-3.4-0.2c-1.5,0-2.8-0.2-4.3-0.2c-4.9,0-9.4,0.6-14.1,1.7
				c-31.6,7.1-54.9,35.5-54.5,69.2c0,2.4,0.2,4.7,0.4,7.1c0,0.6,0.2,1.5,0.4,2.1c0.2,1.5,0.4,3.2,0.9,4.7c0.2,0.9,0.4,1.7,0.6,2.6
				c0.4,1.3,0.6,2.8,1.1,4.1c0.2,0.9,0.6,1.7,1.1,2.6c0.4,1.3,0.9,2.6,1.5,3.6c0.4,0.9,0.9,1.7,1.3,2.6c0.6,1.1,1.1,2.4,1.7,3.4
				c0.4,0.9,1.1,1.7,1.5,2.4c0.6,1.1,1.3,2.1,2.1,3.2c0.6,0.9,1.1,1.5,1.7,2.4c0.9,1.1,1.5,2.1,2.4,3c0.6,0.6,1.3,1.5,1.9,2.1
				c0.9,0.9,1.7,1.9,2.6,2.8c0.6,0.6,1.5,1.3,2.1,1.9c0.9,0.9,1.7,1.7,2.8,2.4c0.9,0.6,1.7,1.3,2.4,1.7c1.1,0.6,1.9,1.5,3,2.1
				c0.9,0.6,1.7,1.1,2.6,1.5c1.1,0.6,2.1,1.3,3.2,1.9c0.2,0,0.4,0.2,0.4,0.2c0.9,0.4,1.5,0.6,2.4,1.1c1.1,0.4,2.1,1.1,3.2,1.5
				c1.1,0.4,1.9,0.6,3,1.1s2.1,0.9,3.4,1.1c1.1,0.2,2.1,0.6,3.2,0.9c1.1,0.2,2.4,0.6,3.4,0.9s2.1,0.4,3.2,0.4
				c1.3,0.2,2.4,0.4,3.6,0.4c1.1,0,2.4,0.2,3.4,0.2c1.5,0,2.8,0.2,4.3,0.2c10.9-0.2,21.2-3,30.3-7.7c23.1-11.8,38.7-35.7,38.3-63.3
				C539.4,275.5,539.1,273.1,538.9,270.8z"/>
		</g>
		<g>
			<path class="st1" d="M437.2,340.7c0.2,0,0.4,0.2,0.4,0.2l0,0C437.6,340.9,437.4,340.9,437.2,340.7z"/>
		</g>
		<g>
			<path class="st1" d="M437.6,340.9c0.9,0.4,1.5,0.6,2.4,1.1C439.3,341.7,438.5,341.3,437.6,340.9L437.6,340.9z"/>
		</g>
	</g>
</g>
</svg>
