<?xml version="1.0" encoding="utf-8"?>
<!-- Generator: Adobe Illustrator 24.1.2, SVG Export Plug-In . SVG Version: 6.00 Build 0)  -->
<svg version="1.1" id="圖層_1" xmlns="http://www.w3.org/2000/svg" xmlns:xlink="http://www.w3.org/1999/xlink" x="0px" y="0px"
	 viewBox="0 0 843.1 247" style="enable-background:new 0 0 843.1 247;" xml:space="preserve">
<style type="text/css">
	.st0{fill:#CCCCCC;}
	.st1{fill:#999999;}
</style>
<g>
	<g>
		<circle class="st0" cx="421.8" cy="124.5" r="107"/>
	</g>
	<g>
		<g>
			<path class="st1" d="M447.5,129.5c-7.2,5.3-15.8,8.2-25,8.4h-0.8c-9.6,0-18.6-3.2-25.8-8.6c-11.7,9.4-19.3,25-19,42.6
				c0,0.3,3-5.5,0,0.9c-2.6,5.6,89.7,6.3,89.6-1.6c0-0.6,0-0.9,0-1.2C466.2,153.2,458.7,138.5,447.5,129.5z"/>
		</g>
		<g>
			<path class="st1" d="M466.6,170c0,0.1,0,0.2,0,0.3C466.6,170.6,466.6,168.4,466.6,170z"/>
		</g>
		<g>
			<path class="st1" d="M421.8,126.6c0.2,0,0.4,0,0.6,0c-0.7,0-1.3,0-2-0.1C420.8,126.5,421.3,126.6,421.8,126.6z"/>
		</g>
		<g>
			<path class="st1" d="M454.2,90.1c0-0.4-0.1-0.7-0.2-1.1c-0.1-0.7-0.2-1.4-0.4-2.1c-0.1-0.4-0.2-0.8-0.3-1.2
				c-0.2-0.6-0.3-1.3-0.5-1.9c-0.1-0.4-0.3-0.8-0.5-1.2c-0.2-0.6-0.4-1.2-0.7-1.8c-0.2-0.4-0.4-0.8-0.6-1.2
				c-0.3-0.6-0.5-1.1-0.8-1.6c-0.2-0.4-0.5-0.7-0.7-1.1c-0.3-0.5-0.6-1-1-1.5c-0.3-0.4-0.5-0.7-0.8-1c-0.4-0.5-0.7-1-1.1-1.4
				c-0.3-0.3-0.6-0.6-0.9-1c-0.4-0.4-0.8-0.9-1.2-1.3c-0.3-0.3-0.7-0.6-1-0.9c-0.4-0.4-0.9-0.8-1.3-1.2c-0.4-0.3-0.7-0.5-1.1-0.8
				c-0.5-0.3-0.9-0.7-1.4-1c-0.4-0.3-0.8-0.5-1.2-0.7c-0.5-0.3-1-0.6-1.5-0.9c-0.4-0.2-0.8-0.4-1.3-0.6s-1-0.5-1.6-0.7
				c-0.4-0.2-0.9-0.3-1.4-0.5s-1.1-0.4-1.6-0.6c-0.5-0.1-1-0.2-1.4-0.4c-0.6-0.1-1.1-0.3-1.7-0.4c-0.5-0.1-1-0.2-1.5-0.2
				c-0.6-0.1-1.1-0.2-1.7-0.2c-0.5,0-1.1-0.1-1.6-0.1c-0.7,0-1.3-0.1-2-0.1c-2.3,0-4.4,0.3-6.6,0.8c-14.8,3.3-25.7,16.6-25.5,32.4
				c0,1.1,0.1,2.2,0.2,3.3c0,0.3,0.1,0.7,0.2,1c0.1,0.7,0.2,1.5,0.4,2.2c0.1,0.4,0.2,0.8,0.3,1.2c0.2,0.6,0.3,1.3,0.5,1.9
				c0.1,0.4,0.3,0.8,0.5,1.2c0.2,0.6,0.4,1.2,0.7,1.7c0.2,0.4,0.4,0.8,0.6,1.2c0.3,0.5,0.5,1.1,0.8,1.6c0.2,0.4,0.5,0.8,0.7,1.1
				c0.3,0.5,0.6,1,1,1.5c0.3,0.4,0.5,0.7,0.8,1.1c0.4,0.5,0.7,1,1.1,1.4c0.3,0.3,0.6,0.7,0.9,1c0.4,0.4,0.8,0.9,1.2,1.3
				c0.3,0.3,0.7,0.6,1,0.9c0.4,0.4,0.8,0.8,1.3,1.1c0.4,0.3,0.8,0.6,1.1,0.8c0.5,0.3,0.9,0.7,1.4,1c0.4,0.3,0.8,0.5,1.2,0.7
				c0.5,0.3,1,0.6,1.5,0.9c0.1,0,0.2,0.1,0.2,0.1c0.4,0.2,0.7,0.3,1.1,0.5c0.5,0.2,1,0.5,1.5,0.7s0.9,0.3,1.4,0.5s1,0.4,1.6,0.5
				c0.5,0.1,1,0.3,1.5,0.4s1.1,0.3,1.6,0.4s1,0.2,1.5,0.2c0.6,0.1,1.1,0.2,1.7,0.2c0.5,0,1.1,0.1,1.6,0.1c0.7,0,1.3,0.1,2,0.1
				c5.1-0.1,9.9-1.4,14.2-3.6c10.8-5.5,18.1-16.7,17.9-29.6C454.4,92.3,454.3,91.2,454.2,90.1z"/>
		</g>
		<g>
			<path class="st1" d="M406.6,122.8c0.1,0,0.2,0.1,0.2,0.1l0,0C406.8,122.9,406.7,122.9,406.6,122.8z"/>
		</g>
		<g>
			<path class="st1" d="M406.8,122.9c0.4,0.2,0.7,0.3,1.1,0.5C407.6,123.3,407.2,123.1,406.8,122.9L406.8,122.9z"/>
		</g>
	</g>
</g>
</svg>
