<svg xmlns="http://www.w3.org/2000/svg" viewBox="0 0 51.3 43.1"><defs><style>.cls-1{fill:#e16b8c;}.cls-2{fill:#81c7d4;}.cls-3{fill:#cb4042;}.cls-4{fill:#9b1f2b;}.cls-5{fill:#d82948;}.cls-6{fill:#6699a1;}</style></defs><g id="圖層_2" data-name="圖層 2"><g id="圖層_1-2" data-name="圖層 1"><path class="cls-1" d="M34.53,37.13a4,4,0,0,1-1.83-.47,4.24,4.24,0,0,0-3.21-.18,8.45,8.45,0,0,1-6.42-.58A3.53,3.53,0,0,1,22,35.14c-.75-.8-.6-1.59.41-2A8,8,0,0,1,25,32.55c1.25-.09,2.5-.1,3.74-.24a21.16,21.16,0,0,0,5.67-2,18.74,18.74,0,0,1,3.42-1.12c.24,0,.48-.06.73-.08s.56,0,.69.29-.06.51-.23.72a2.52,2.52,0,0,1-.33.39,4.43,4.43,0,0,0-1.6,4A2.35,2.35,0,0,1,34.53,37.13Z" transform="translate(0)"/><path class="cls-2" d="M11,43.1a6.36,6.36,0,0,1,.29-3.49,5.69,5.69,0,0,0-.06-4.49,4.35,4.35,0,0,1-.35-1.65,2.46,2.46,0,0,1,2.53-2.71,5.93,5.93,0,0,1,2.32.28c.53.19.76.47.54,1.05s-.52,1.47-.8,2.28a1.73,1.73,0,0,0,.94-.61c.67-.6,1.38-1.08,2.31-.65A2.31,2.31,0,0,1,20,35.35a5.56,5.56,0,0,1-2.21,4.74,8.36,8.36,0,0,0-1.64,1.56.93.93,0,0,1-1.28.36,2.59,2.59,0,0,0-3.12.48Z" transform="translate(0)"/><path class="cls-1" d="M35.36,22a10.46,10.46,0,0,0,.3-6c-.76-3.27-2.55-4.93-5.88-5.38a11.24,11.24,0,0,0-10.13,3.54c-.13.14-.24.31-.36.46-.34-.3-.44-.56-.22-.89a48.43,48.43,0,0,1,3.29-5A6,6,0,0,1,28,6.36a12.62,12.62,0,0,1,4.29.87,2.74,2.74,0,0,1,.8.51c2,2,3.78,4.13,4.39,7a9.08,9.08,0,0,1-1.29,6.2C36,21.28,35.92,21.76,35.36,22Z" transform="translate(0)"/><path class="cls-1" d="M33.7,21A11.64,11.64,0,0,1,31.13,26,4.64,4.64,0,0,1,28,27.17a8.64,8.64,0,0,1-6.6-1.83c-.41-.32-1-.76-.66-1.34s.92-.26,1.38-.14a5.73,5.73,0,0,0,2.7,0c1.39-.27,2.78-.57,4.16-.86a11.75,11.75,0,0,0,4.11-1.72C33.28,21.14,33.41,21,33.7,21Z" transform="translate(0)"/><path class="cls-1" d="M24.47,0c1,0,1.52.71,1.17,1.58A19.49,19.49,0,0,1,24,4.26a.24.24,0,0,1-.37.09,13.38,13.38,0,0,0-3.27-1,2.18,2.18,0,0,1-1.17-.72c-.39-.5-.3-.92.29-1.15a1.76,1.76,0,0,1,.71-.14,4.64,4.64,0,0,0,3-.87A2.52,2.52,0,0,1,24.47,0Z" transform="translate(0)"/><path class="cls-1" d="M4.29,19.05a9.17,9.17,0,0,0,.34-2.24c0-.28.22-.17.35-.06a3.62,3.62,0,0,1,.73,1,2,2,0,0,0,2.41,1.15c.84-.19,1.38.38,1.2,1.23a17.54,17.54,0,0,1-.6,2,.58.58,0,0,1-.88.37,12.94,12.94,0,0,1-3-1.95A1.91,1.91,0,0,1,4.29,19.05Z" transform="translate(0)"/><path class="cls-3" d="M23,13.55c-1,.85-1,2-1,3.2,0,.36.11.7.51.78a.88.88,0,0,0,1.05-.47,3.75,3.75,0,0,0,.4-1.55h0l.07-.19c.2-1.6,1.72-1.89,2.86-2.77A4.42,4.42,0,0,0,23,13.55Z" transform="translate(0)"/><path class="cls-4" d="M27.42,15.71a2.51,2.51,0,0,0-.84.07c-.16,0-.31,0-.39-.14a.37.37,0,0,1,.1-.45,1.76,1.76,0,0,1,1.52-.3.47.47,0,0,1,.3.5c0,.24-.22.3-.42.32Z" transform="translate(0)"/><path class="cls-3" d="M33.11,15.17a4.25,4.25,0,0,0-4.23-1.48,7.89,7.89,0,0,1,2.38,2.94,9.82,9.82,0,0,1,.44,1.93c0,.17,0,.37.22.43a.46.46,0,0,0,.51-.22,3.32,3.32,0,0,0,.84-1.84A2.09,2.09,0,0,0,33.11,15.17Z" transform="translate(0)"/><path class="cls-3" d="M46.25,20.37c-.06-.16-.11-.32-.16-.49a3.58,3.58,0,0,0-.41-1,10.69,10.69,0,0,0-1.33-2.44,2.22,2.22,0,0,1-.29-2,2.5,2.5,0,0,0-.49-2.61,14.06,14.06,0,0,0-4-3.49,5.3,5.3,0,0,0-3.32-.73,6.11,6.11,0,0,1,2.22,2.21,7.88,7.88,0,0,1,.81,5.06,4,4,0,0,0,.68,3.4,5.41,5.41,0,0,1,.89,2,8.93,8.93,0,0,1-.34,5.41l-1.23,2,.1.11a5.65,5.65,0,0,0,1.95-1.47,3.73,3.73,0,0,0,1.15-1.74c.26-.63.45-1.29.74-1.9A2.57,2.57,0,0,1,45.77,21C46.39,21.05,46.4,20.82,46.25,20.37Z" transform="translate(0)"/><path class="cls-4" d="M29.51,17.07a.65.65,0,0,0-.88,0,6.8,6.8,0,0,1-2.69,1.09c-.36.09-.9.09-.87.56s.56.59,1,.58A5.57,5.57,0,0,0,28.68,19a1.63,1.63,0,0,0,1-.88A.84.84,0,0,0,29.51,17.07Z" transform="translate(0)"/><path class="cls-3" d="M35.38,2.79a3,3,0,0,0-.91-.72c-.9-.86-1.85-1.59-3.19-.92a10.53,10.53,0,0,1-2.84.94,1.61,1.61,0,0,0-.88.28A1.85,1.85,0,0,0,26.21,3.6c-.27.69-.12.89.6.9l.88,0c2.4,0,4.82-.14,7,1.06a2.12,2.12,0,0,0,1.06.24c.3,0,.5-.13.47-.43A3.4,3.4,0,0,0,35.38,2.79Z" transform="translate(0)"/><path class="cls-3" d="M38.78,21.63c-.11-.44-.15-1.13-.6-1.15s-.46.7-.65,1.1l-.39.81-.42.69a13.87,13.87,0,0,1-5.58,5.8c-.3.15-.84.29-.73.67s.74.36,1.17.33a2.13,2.13,0,0,0,.64-.15,8.75,8.75,0,0,1,2.59-.45,4.58,4.58,0,0,0,2.61-.89.89.89,0,0,0,.51-.86,8.08,8.08,0,0,1,.61-2.09A6.14,6.14,0,0,0,38.78,21.63Z" transform="translate(0)"/><path class="cls-3" d="M27,21.3a7.75,7.75,0,0,1-4.12-.48l-1.35-1.06-.74-1.05a5.9,5.9,0,0,0-.47-.81c-.32-.4-.48-1.18-1-1.06s-.54.89-.64,1.43l0,.44c.12.09.13.19,0,.29l0,.3c.16.18.1.39.09.6.07,1.5.22,1.65,1.7,1.68a.84.84,0,0,1,.75.37c.17.23.29.52.62.6a2.44,2.44,0,0,0,1.8.4c2.17.11,4.15-.67,4.43-1.77Z" transform="translate(0)"/><path class="cls-5" d="M39.35,27.71c-.05.13-.12.19-.26.1l.16-.21Z" transform="translate(0)"/><path class="cls-5" d="M23.92,15.51l.07-.19Z" transform="translate(0)"/><path class="cls-3" d="M15.34,21.83a.75.75,0,0,0-.07.12A.75.75,0,0,1,15.34,21.83Z" transform="translate(0)"/><path class="cls-3" d="M20.78,5.47a.53.53,0,0,0-.45.11c-.62-.07-1.21.28-1.89-.07a9.79,9.79,0,0,0-2.55-.9,2.89,2.89,0,0,0-3.68,2.65,3.13,3.13,0,0,1-.84,1.92,4.59,4.59,0,0,0-.86,5.94l.11.2c.12,1.12.23,2.26,1.45,2.82A8.85,8.85,0,0,1,13.63,20L15,22.38a.44.44,0,0,0,.12-.15.44.44,0,0,1-.12.15,3.55,3.55,0,0,0,.74,1.14c.35.45.72.93,1.37.68s.58-.88.54-1.44a2.9,2.9,0,0,0-.15-.71c-.44-1.26-.9-2.52-1.35-3.78l-.43-1.92,0-.3v-.14l-.06-.62a1.25,1.25,0,0,0,0-.69l.06-.46V14a7.19,7.19,0,0,1,2.38-4.11A23,23,0,0,1,21.67,7.4a16.28,16.28,0,0,0,2.55-1.75C23.07,4.87,21.92,5.18,20.78,5.47ZM15.27,22a.75.75,0,0,1,.07-.12A.75.75,0,0,0,15.27,22Z" transform="translate(0)"/><path class="cls-3" d="M18.71,19.9c0-.21.07-.42-.09-.6A.89.89,0,0,0,18.71,19.9Z" transform="translate(0)"/><path class="cls-3" d="M18.6,18.71V19C18.73,18.9,18.72,18.8,18.6,18.71Z" transform="translate(0)"/><path class="cls-3" d="M25.76,29.25a3.54,3.54,0,0,1-2.55-.43,32.8,32.8,0,0,0-6.52-2.62,6.13,6.13,0,0,1-4.26-4.56A5,5,0,0,0,12,20.4c-.15-.25-.28-.54-.64-.53s-.53.33-.64.63c-.32.89-.64,1.79-.91,2.71a1.46,1.46,0,0,0,.51,1.71,1.64,1.64,0,0,1,.64.78,5.4,5.4,0,0,0,4.47,3.67,4.07,4.07,0,0,1,2.25,1.13l.32.43c.65,1.56,1.07,1.74,2.54,1a10.09,10.09,0,0,1,3.22-1,9.84,9.84,0,0,0,1.52-.18,1.15,1.15,0,0,0,1-1.12C26.25,29.34,26.16,29.16,25.76,29.25Z" transform="translate(0)"/><path class="cls-6" d="M50.69,37.25a17.79,17.79,0,0,1-1.45-4.11c-.14-.67-.49-1.32-1.25-1.34a1.44,1.44,0,0,1-1.45-1.16,1.54,1.54,0,0,0-.53-.91,1.1,1.1,0,0,0-.59-.59,2.44,2.44,0,0,0-1.52-.7l-.29,0a2.45,2.45,0,0,0-1.49.16c-.46.18-1.1.33-1.18.84s.44.92.9,1.22l2.35,1.91.15.15h0a2.74,2.74,0,0,0,.73.75c-.49.11-.7-.42-1.11-.49a6.18,6.18,0,0,0-1.68-.8c-1-.33-2-.59-2.84.38a.36.36,0,0,0-.23.3c-1,1.75-.67,3,1.1,3.81.58.24,1.2.42,1.8.63a3,3,0,0,0,.92.39,7.84,7.84,0,0,1,2.28,1.54c.63.67.94.67,1.51-.08A3.09,3.09,0,0,1,48.62,38a8.75,8.75,0,0,1,2.68.35A3.78,3.78,0,0,0,50.69,37.25Z" transform="translate(0)"/><path class="cls-6" d="M44.19,32.55l.15.15" transform="translate(0)"/><path class="cls-6" d="M44.34,32.7h0" transform="translate(0)"/><path class="cls-6" d="M11.22,29.37c-1.09-.62-2.23-.05-3.36-.12.58-.38,1.18-.68,1.77-1s.66-.63.21-1.15a8.39,8.39,0,0,0-1.76-1.31c-.45-.3-.74-.19-1,.28-.56,1.06-.86,1.21-2,.83a2.39,2.39,0,0,0-2.23.22l-2,1.77,0,0c-.23.43-.74.66-.87,1.17,1.81-.84,2.68-.65,4.13.91a2.45,2.45,0,0,0,3.39.68,1,1,0,0,1,1.35.14c.42.54.63.28.88-.11s.35-.59.51-.89a1.69,1.69,0,0,1,1.33-1A.61.61,0,0,0,11.22,29.37Z" transform="translate(0)"/></g></g></svg>