<svg xmlns="http://www.w3.org/2000/svg" viewBox="0 0 69.51 63.78"><defs><style>.cls-1{fill:#fff;}.cls-2{fill:#e16b8c;}</style></defs><title>資產 6</title><g id="圖層_2" data-name="圖層 2"><g id="圖層_1-2" data-name="圖層 1"><ellipse class="cls-1" cx="33.78" cy="28.99" rx="25.5" ry="25.57"/><path class="cls-2" d="M68.73,36.76a7.25,7.25,0,0,1-2.38,2.42A7.63,7.63,0,0,0,63.22,44a15.08,15.08,0,0,1-6.62,9.47,6.22,6.22,0,0,1-2.13,1c-1.94.46-3-.48-2.8-2.43a14.76,14.76,0,0,1,1.47-4.62c1-2,2.08-4,3-6,1.45-3.36,1.56-7,2-10.56a33,33,0,0,1,1.31-6.3A10,10,0,0,1,60,23.33c.23-.43.48-.89,1.07-.83s.74.56.92,1a4.48,4.48,0,0,1,.3.87,8,8,0,0,0,4.76,6C69.6,31.68,70.18,34.27,68.73,36.76Z"/><path class="cls-2" d="M45.9,21.94a18.87,18.87,0,0,0-9-5.79c-5.77-1.72-9.95-.42-13.61,4.36A20.15,20.15,0,0,0,19.75,39.4a9.08,9.08,0,0,0,.39,1c-.77.25-1.26.18-1.59-.46a89.26,89.26,0,0,1-4.78-9.53,10.84,10.84,0,0,1,1.28-10.88c1.55-2.11,2.95-4.38,5.18-5.9a5.29,5.29,0,0,1,1.51-.78c4.88-1.29,9.79-2.19,14.77-.59,3.91,1.26,6.38,4.21,8.49,7.52C45.39,20.36,46.08,20.89,45.9,21.94Z"/><path class="cls-2" d="M42.94,23.69a20.87,20.87,0,0,1,5.41,8.41c.68,2.07-.13,4-.9,5.86a15.41,15.41,0,0,1-8.72,8.64c-.87.36-2,.79-2.67-.17s.42-1.67,1-2.28a10.53,10.53,0,0,0,2.34-4.22c.81-2.4,1.58-4.83,2.37-7.25a20.81,20.81,0,0,0,1-7.92C42.75,24.44,42.57,24.08,42.94,23.69Z"/><path class="cls-2" d="M21.79,33.68c.39,2.35,2.21,3.42,4,4.46a1.28,1.28,0,0,0,1.69-.1,1.61,1.61,0,0,0,.19-2,6.82,6.82,0,0,0-2-2h0l-.23-.28c-2.3-1.74-1.4-4.37-1.75-6.92C22,29,21.17,31.15,21.79,33.68Z"/><path class="cls-2" d="M29.08,28.72c-.4.43-.41,1-.63,1.37-.13.25-.26.49-.57.48s-.51-.25-.61-.55a3.22,3.22,0,0,1,.89-2.64.84.84,0,0,1,1,0c.35.27.28.61.12.94A3.45,3.45,0,0,1,29.08,28.72Z"/><path class="cls-2" d="M33.32,19.38c-2.46.13-5.54,2.79-6.07,5.26A14.16,14.16,0,0,1,34,23.57a16.72,16.72,0,0,1,3.38,1,.8.8,0,0,0,.88,0,.84.84,0,0,0,.11-1,6.1,6.1,0,0,0-2.11-2.94A3.8,3.8,0,0,0,33.32,19.38Z"/><path class="cls-2" d="M53.11,3.6l-.89-.18a5.89,5.89,0,0,0-2-.3c-1.65-.43-3.31-.11-5-.11a4,4,0,0,1-3.41-1.35A4.46,4.46,0,0,0,37.35.09a25.29,25.29,0,0,0-9,3.16,9.44,9.44,0,0,0-4.08,4.51,10.93,10.93,0,0,1,5.41-1.49,14.11,14.11,0,0,1,8.58,3.26c1.77,1.38,3.52,2.37,5.89,2a9.46,9.46,0,0,1,3.9.41,15.94,15.94,0,0,1,8.11,5.34l2,3.68.26-.06a10.09,10.09,0,0,0-.54-4.33,6.93,6.93,0,0,0-1.68-3.35c-.76-1-1.61-1.84-2.3-2.85a4.61,4.61,0,0,1-.16-5.41C54.29,4,54,3.76,53.11,3.6Z"/><path class="cls-2" d="M33.06,26.68A1.18,1.18,0,0,0,32.24,28c.36,1.82-.3,3.46-.7,5.15-.16.64-.65,1.49.1,1.85s1.41-.33,1.81-1.06a9.63,9.63,0,0,0,1.8-4.31,2.9,2.9,0,0,0-.45-2.39A1.51,1.51,0,0,0,33.06,26.68Z"/><path class="cls-2" d="M16.09,2.83a5.72,5.72,0,0,0-1.92.76C12,4.24,10.05,5.05,9.89,7.73A19.35,19.35,0,0,1,8.83,13a2.93,2.93,0,0,0-.36,1.62,3.32,3.32,0,0,0,.72,3.18c.83,1,1.27,1,1.93-.12.26-.46.3-1.11.75-1.4,5.64-3.71,4.79-6.33,8.64-8.71.55-.35.27-2.13.59-2.73s.23-.88-.25-1.11C19.35,3,17.84,2.25,16.09,2.83Z"/><path class="cls-2" d="M48.41,16.34c-.78-.23-1.88-.79-2.32-.1s.68,1.34,1.13,2l.91,1.33.71,1.26c2.44,4.3,4.32,8.75,4,13.85,0,.6-.3,1.57.39,1.73.94.21,1.22-.82,1.56-1.51a4.85,4.85,0,0,0,.34-1.14,16.11,16.11,0,0,1,1.6-4.43,8.18,8.18,0,0,0,.94-4.84,1.59,1.59,0,0,0-.88-1.56,15.09,15.09,0,0,1-2.71-2.82A11,11,0,0,0,48.41,16.34Z"/><path class="cls-2" d="M37.39,34.38a13.94,13.94,0,0,1-4.42,6l-2.85,1.17-2.3.2a10.33,10.33,0,0,0-1.67,0c-.9.14-2.27-.3-2.57.67s.9,1.63,1.65,2.26l.66.43c.26-.11.41,0,.45.26l.49.24c.42-.09.7.19,1,.39,2.4,1.23,2.77,1.13,4.13-1.15A1.55,1.55,0,0,1,33.21,44c.52,0,1.08,0,1.48-.42a4.28,4.28,0,0,0,2.23-2.44c2.11-3.28,2.67-7,1.19-8.46C37.87,33.26,37.63,33.82,37.39,34.38Z"/><path class="cls-2" d="M58.37,20.86c.16.19.19.36-.07.49-.06-.14-.13-.29-.19-.44Z"/><path class="cls-2" d="M25.65,34l-.23-.28Z"/><path class="cls-2" d="M27.84,53a2.39,2.39,0,0,0,.13.21A2.39,2.39,0,0,1,27.84,53Z"/><path class="cls-2" d="M7.25,29.91a.93.93,0,0,0-.22.8c-.66.91-.65,2.13-1.8,2.89a16.93,16.93,0,0,0-3.67,3.16c-2.35,2.78-2,5.88.84,8.07a5.79,5.79,0,0,1,2.24,3c1.16,4.38,4,6.47,8.47,6.63h.39c1.87.81,3.73,1.66,5.7.26A15.28,15.28,0,0,1,23.44,54l5-.06a.7.7,0,0,0-.14-.32.7.7,0,0,1,.14.32,6,6,0,0,0,2.42-.13c1-.14,2.1-.28,2.3-1.52s-.87-1.68-1.77-2.13a5.41,5.41,0,0,0-1.24-.39c-2.36-.44-4.72-.86-7.08-1.28l-3.37-1-.48-.24L19,47.06l-1-.46A2.33,2.33,0,0,0,16.91,46l-.67-.51L16,45.32A12.93,12.93,0,0,1,11.74,38a42.55,42.55,0,0,1-.7-7.72,28.86,28.86,0,0,0-.44-5.52C8.36,25.83,7.82,27.87,7.25,29.91ZM28,53.16a2.39,2.39,0,0,1-.13-.21A2.39,2.39,0,0,0,28,53.16Z"/><path class="cls-2" d="M27.84,46c-.31-.2-.59-.48-1-.39A1.61,1.61,0,0,0,27.84,46Z"/><path class="cls-2" d="M25.89,45.1l.45.26C26.3,45.08,26.15,45,25.89,45.1Z"/><path class="cls-2" d="M48.65,43.36A6.25,6.25,0,0,1,45.71,47a59.09,59.09,0,0,0-9.88,7.8A11,11,0,0,1,25,57.31a8.84,8.84,0,0,0-2.32-.41c-.52,0-1.1,0-1.4.52s0,1.12.4,1.55c1.11,1.3,2.22,2.6,3.4,3.83a2.62,2.62,0,0,0,3.11.74,3.09,3.09,0,0,1,1.79-.3c4,.78,7.11-.7,9.69-3.67a7.23,7.23,0,0,1,3.77-2.5l1-.1c3,.36,3.65-.14,3.82-3.07A17.82,17.82,0,0,1,49.51,48,17.82,17.82,0,0,0,50.6,45.5,2.07,2.07,0,0,0,49.72,43C49.23,42.68,48.87,42.66,48.65,43.36Z"/></g></g></svg>