<?xml version="1.0" encoding="utf-8"?>
<!-- Generator: Adobe Illustrator 24.1.2, SVG Export Plug-In . SVG Version: 6.00 Build 0)  -->
<svg version="1.1" id="圖層_1" xmlns="http://www.w3.org/2000/svg" xmlns:xlink="http://www.w3.org/1999/xlink" x="0px" y="0px"
	 viewBox="0 0 898.5 209" style="enable-background:new 0 0 898.5 209;" xml:space="preserve">
<style type="text/css">
	.st0{fill:#C74042;}
	.st1{font-family:'Kefa-Regular';}
	.st2{font-size:46.1411px;}
	.st3{fill:#C38150;}
	.st4{font-family:'NaikaiFont-Bold';}
	.st5{font-size:30.7607px;}
	.st6{fill:#D8B479;}
</style>
<text transform="matrix(1 0 0 1 317.418 109.2727)" class="st0 st1 st2">My Favorites</text>
<text transform="matrix(1 0 0 1 387.2871 145.8962)" class="st3 st4 st5">我的最愛</text>
<g>
	<g>
		<path class="st6" d="M440.3,39.9c0.6-2.2,0.8-4.5,3.8-4.4c-0.7,1.5-1.9,2.8-1.9,4.1c0.1,1.5,1.1,3,2,4.3c2.1,3.2,2.5,6.7,0.9,9.3
			c-1.8,2.8-7,5.1-10.1,4.3c-0.7-0.2-1.3-0.8-2.2-1.6c2.6,0,4.9,0.5,6.7-0.1c3-0.9,5.3-2.8,5.4-6.5c0-2.7-2.8-7.3-5.6-8.1
			c-1.3-0.3-3.1,0-4.3,0.5c-2,0.8-3.5,0.8-4.8-1.4c0.7-0.4,1.3-0.6,2.3-1.3c-4.3,0-8.5-1.1-10.4,3.9c-1.7-4.5,0.2-6.6,6.2-7.4
			c-11-3.4-22.1-4.9-32.9,0.7c-5.5,2.8-7,8.3-4.3,13.1c2.5,4.7,8.9,6.8,13.6,4.1c1.8-1,3.9-3.4,4-5.2c0.1-1.6-2.4-3.4-4.3-5.6
			c0.4-0.2,1.4-1.4,2.4-1.6c2.7-0.3,4.5,1.9,6.2,7.1c0.7-1.1,1.4-2.4,2.1-3.5c1-1.6,2.1-3.1,4.3-0.9c0.7,0.7,2.8,0.1,4.3,0.1
			c2.7-0.1,5.5-0.8,8.3-0.5c4.1,0.5,5.6,3,5.3,7.5c-2.5-3.4-5.8-2.6-8.8-1.5c-3.8,1.4-7.6,3.2-11.2,5.1c-5.8,3.1-11.9,3.8-18.3,2.5
			c-10.6-2-14.7-13.2-6.7-20.7c-4.3,0.2-5.9,2.4-6.9,8.8c-0.6-1.6-1.1-3.1-1.9-5.1c-5,3.8-10,7.6-15.7,12c1.8,0.1,2.8,0.2,3.8,0.2
			c2,0,4.1-1.4,6,0.8c0.4,0.5,2.6-0.5,4-0.6c1.3-0.1,2.6,0.1,3.9,0.5c-5.9,5.3-12,4.3-18.1,1c-0.9-0.5-2.4-0.6-3.4-0.2
			c-8.1,3.6-16.4,3.8-24.9,2c-1.3-0.3-2.6-0.7-3.9-0.8c-1.9-0.1-3.7,0.2-5.9,0.3c-0.4-2.2,1.8-2.6,4-3.6c-2.1-0.3-4.3-0.6-6.7-0.9
			c0.7-0.6,1.4-1.1,2.1-1.8c-4.4-1.5-8.8-1.7-13.1-0.5c-1.5,0.4-3,1.5-4,2.6c-0.5,0.5-0.2,1.9-0.2,3c0.9-0.3,1.9-0.5,2.8-0.8
			c0.3-0.1,0.4-0.6,1-1.6c0.3,1.5,0.4,2.4,0.6,3.5c3,0.3,5-4.3,8.4-1.9c0.4,0.3,0.3,1.3,0.3,1.1c-1.9,0.5-3.6,0.7-5,1.5
			c-4.4,2.4-7.8,1.9-11-2.2c-0.4,1.1-0.8,2.1-1.4,3.6c-0.6-0.8-1.1-1.6-1.8-2.3c-0.2,0.4-0.4,0.8-0.8,1.7c-0.3-0.8-0.4-1.5-0.7-2.2
			c-4.2,2.6-8.5,3.1-13.3,1.7c-2.3-0.6-5.1,0.1-7.6,0.2c0.5-0.6,1-1.3,2.2-2.7c-3.8,1.1-6.7,2.1-9.6,2.8c-1.7,0.4-3.4,0.7-5.1,0.5
			c-0.6-0.1-1.1-1.6-1.4-2.8c2.2,2.3,4.2,1.5,6.4,0.3c3.8-2.1,7.7-2.6,12.2-1.5c0-1.5,0-2.8,0-4.1c2.4,2.7,4.9,4.8,8.6,4.3
			c0.1,0,0-0.8,0-1.5c0.9,0.3,1.9,0.6,3.3,1c-1-1.4-2.3-2.3-2.6-3.5c-0.3-1,0.5-2.4,1.1-3.6c2.3,4.1,6,3.3,9.3,3
			c2.5-0.2,5.1-1,7.6-1.5c6.5-1.3,8.2-1,18.8,2.2c-0.6-1.5-1.4-2.8-1.7-4.2c-0.2-0.8,0.2-1.9,0.3-2.8c0.9,0.2,2.2,0,2.7,0.6
			c1.7,1.9,3.1,4,4.2,5.6c2.3-6,8.3-7.9,14.7-8.4c4.1-0.3,8.3,0.5,12.4,0.5c2.8,0,5.8-0.4,7.4-3.5c1.4,3.5,0.6,5.7-2.5,7.2
			c-1.6,0.7-3.4,0.8-5,1.5c-1.8,0.6-3.4,1.6-5.5,2.5c3.4,3.1,5.9,3,8.7,0.5c4.2-3.6,8.8-6.9,13.2-10.4c-1-0.5-2.4-0.8-3.2-1.7
			c-0.7-0.8-0.9-2.1-1-3.6c3,4.4,6.9,3.6,10.6,2C407,28.8,423.8,30.2,440.3,39.9z M364.3,52.8c-2.5-1.7-4.7-3.2-6.2-4.2
			c-1.3,1.7-2.3,3.4-3.7,4.8c-0.3,0.3-1.7-0.5-2.7-0.8c2-1.9,3.6-3.5,1.9-5.8c-1.5-2.1-4.9-2.3-7.9-0.6c4.2,2,5.3,4.2,3.6,9.4
			c-1.3-1.9-2.4-3.2-3.2-4.8c-0.5-1.4-0.5-3-2.6-2.5c-1.8,0.4-3.1,3-1.9,4.4c1.3,1.5,3.1,3.1,4.9,3.3
			C352.3,56.8,358.4,55.7,364.3,52.8z"/>
	</g>
	<g>
		<path class="st6" d="M528.8,51.9c-5.1-3.9-10.2-7.8-15.2-11.8c-0.6,1.9-1.1,3.6-1.6,5.2c-0.4,0.1-0.8,0.2-1.1,0.3
			c1.4-5.4-1.1-8.1-6.2-9.6c0.5,0.7,0.7,0.9,0.8,1.3c0.3,0.3,0.5,0.6,0.8,0.9c5.2,6.4,3,15.1-4.8,18.1c-7.2,2.7-14.3,2.1-21.3-1.3
			c-4.3-2.1-8.8-3.9-13.3-5.7c-2.5-0.9-5.1-0.6-7,1.8c-0.4-3.9,0.9-6.8,4.2-7.3c2.8-0.4,5.9-0.1,8.8,0.2c2.1,0.2,4.2,1.5,5.9-0.8
			c0.2-0.2,1.8,0.2,2.2,0.7c1,1.1,1.9,2.6,3.1,4.3c1.1-3.5,2.3-7,6.7-6.8c0.8,0,1.7,1.3,2.5,2c-0.4,0-0.7,0-1.1,0
			c-1.4,1.8-3.9,3.8-3.7,5.4c0.2,1.9,2.6,4.1,4.7,5.2c5,2.3,11.2-0.2,13.4-5c2.3-4.8,0.4-9.9-4.9-12.7c-7.4-4-15.6-3.8-23.6-2.8
			c-3.1,0.4-6.1,1.4-9.2,2.2c6.2,1,7.9,2.8,6.4,7.6c-2-5.4-6.1-3.9-10.7-4.1c1.3,0.6,1.9,0.9,2.6,1.4c-1.1,2-2.7,2.5-4.4,1.4
			c-3.6-2.6-6.9,0.3-9,3.7c-2.1,3.3-1.5,6.5,1.5,8.8c2.2,1.7,3,1.8,9.1,1.8c-0.8,0.4-1.6,1.3-2.4,1.4c-3.5,0.5-8.3-1.8-9.9-4.8
			c-1.8-3.5-0.7-6.6,1.6-9.4c2.6-3.4,2.5-4.4-0.4-7.6c2.6-0.1,3.1,0.3,4,4.2c7.4-4.9,15.6-7.5,24.4-8.4c8.7-0.7,17,0.5,25.2,3.7
			c1.5,0.5,2.8,1.1,4.4,1.4c2.8,0.5,5.4,0.2,6.6-3.2c1.6,2.6,0.5,4-3.7,5.3c5.4,4,10.5,8.2,15.9,11.9c1.3,0.8,3.7-0.2,5.6-0.3
			c-0.6-3.3-2.5-3.8-4.8-4.1c-1.8-0.3-3.7-0.7-5.3-1.5c-3-1.5-3.5-3.5-2.4-6.2c2,0.8,4,2.1,6.1,2.4c2.5,0.3,5.2-0.2,7.7-0.1
			c4.2,0.2,8.5,0.2,12.5,1s7.2,3.4,8.9,7.7c-0.1-3.3,1.5-5.3,4.1-6.7c0.6-0.3,1.9-0.6,2.2-0.3c0.5,0.5,0.8,1.7,0.6,2.4
			c-0.4,1.6-1.1,3.1-1.8,4.7c2.6-0.7,5.2-1.6,7.8-2.3c5.8-1.6,11.5,0.5,17.1,1.4c1.7,0.3,3.5,0.5,5.2,0.3c1.8-0.3,3.5-1.3,6-2.1
			c1.9,1,1.7,2.8-1.7,6.1c0.9-0.3,2-0.7,3.2-1.1c-0.1,0.5-0.2,1-0.4,1.7c3.8,0.3,6.4-1.4,8.9-4.4c0.1,1.3,0.1,2.5,0.2,4.1
			c4.5-1.1,9-0.1,13.3,2.1c1.1,0.6,3-0.1,4.5-0.5c1.4,1,0.8,2.3-0.8,2.6c-1.7,0.2-3.6-0.3-5.3-0.7c-2.8-0.6-5.7-1.6-8.6-2.3
			c-0.2,0.3-0.3,0.6-0.5,0.8c0.8,0.3,1.7,0.7,2.3,1c-4.3,0.3-8.2,1-12.1,0.9c-3.1-0.1-6.1-1-9.4-1.6c0,0-0.1,0.5-0.4,1.3
			c-0.4-0.7-0.8-1.3-1.1-1.8c-0.4,0.8-0.7,1.6-1.4,3c-0.6-1.7-1-2.8-1.5-4c-3.1,4.1-6.6,4.8-11.1,2.2c-1.3-0.7-2.8-0.9-4.8-1.6
			c-0.1-1.5,1-2.3,3.5-1.4c1.7,0.7,3.2,1.7,5.1,2.7c0.2-1.4,0.3-2.3,0.4-3.2c0.4,0,0.6-0.1,0.7,0c0.8,1.1,1.7,3,3.3,1.6
			c1.7-1.4,0.4-3.3-0.8-3.8c-3-1.1-6.1-2-9.3-2.4c-2.2-0.2-4.4,0.5-7.2,0.9c0.9,0.8,1.6,1.5,2.2,2.1c-2.3,0.3-4.7,0.5-6.9,0.8
			c2,1,4.4,1.1,4,4.8c-2.2-2.7-4.7-1.9-7.1-1.3c-9.4,2.5-18.7,2.5-27.8-1.5c-0.9-0.4-2.5,0.1-3.6,0.6c-5.9,3-11.8,3.7-17.5-1
			c2.7-3.5,6.4,1.9,8.6-0.5C522.9,50.3,526.1,54.4,528.8,51.9z M533.3,52.8c5.8,2.8,11.7,3.8,17.7,3.2c2.3-0.2,5-1.1,5.3-3.9
			c0.1-1.1-1.4-2.5-2-3.9c-0.8,0.7-1.9,1.4-2.5,2.3c-1,1.4-1.9,3.1-2.8,4.5c-0.4-0.2-0.8-0.3-1.3-0.5c0.2-1.8,0-3.7,0.7-5.2
			s2.4-2.4,3.6-3.6c-3.5-1.3-7.2-0.9-7.8,1.4c-0.4,1.6,0.5,3.6,1,5.9c-0.1,0-1.5,0.7-1.8,0.4c-1.4-1.4-2.5-3.1-3.7-4.7
			C537.7,49.8,535.7,51.1,533.3,52.8z"/>
	</g>
	<g>
		<path class="st6" d="M663.6,57.4c0.1,0.9,0.2,1.4,0.2,1.9c0,0.3-0.1,0.5-0.2,1c-143.3,0-286.4,0-429.7,0c0-0.9,0-1.8,0-3
			c8.4,0,16.7-0.9,24.7,0.3c6.1,0.9,12.2,0.8,18.2,0.8c118.5,0.1,237,0.2,355.5-0.1c9.3,0,18.6-0.9,28-1
			C661.3,57.4,662.3,57.4,663.6,57.4z"/>
	</g>
</g>
<g>
	<g>
		<path class="st6" d="M457.3,181.9c-0.6,2.2-0.8,4.5-3.8,4.4c0.7-1.5,1.9-2.8,1.9-4.1c-0.1-1.5-1.1-3-2-4.3
			c-2.1-3.2-2.5-6.7-0.9-9.3c1.8-2.8,7-5.1,10.1-4.3c0.7,0.2,1.3,0.8,2.2,1.6c-2.6,0-4.9-0.5-6.7,0.1c-3,0.9-5.3,2.8-5.4,6.5
			c0,2.7,2.8,7.3,5.6,8.1c1.3,0.3,3.1,0,4.3-0.5c2-0.8,3.5-0.8,4.8,1.4c-0.7,0.4-1.3,0.6-2.3,1.3c4.3,0,8.5,1.1,10.4-3.9
			c1.7,4.5-0.2,6.6-6.2,7.4c11,3.4,22.1,4.9,32.9-0.7c5.5-2.8,7-8.3,4.3-13.1c-2.5-4.7-8.9-6.8-13.6-4.1c-1.8,1-3.9,3.4-4,5.2
			c-0.1,1.6,2.4,3.4,4.3,5.6c-0.4,0.2-1.4,1.4-2.4,1.6c-2.7,0.3-4.5-1.9-6.2-7.1c-0.7,1.1-1.4,2.4-2.1,3.5c-1,1.6-2.1,3.1-4.3,0.9
			c-0.7-0.7-2.8-0.1-4.3-0.1c-2.7,0.1-5.5,0.8-8.3,0.5c-4.1-0.5-5.6-3-5.3-7.5c2.5,3.4,5.8,2.6,8.8,1.5c3.8-1.4,7.6-3.2,11.2-5.1
			c5.8-3.1,11.9-3.8,18.3-2.5c10.6,2,14.7,13.2,6.7,20.7c4.3-0.2,5.9-2.4,6.9-8.8c0.6,1.6,1.1,3.1,1.9,5.1c5-3.8,10-7.6,15.7-12
			c-1.8-0.1-2.8-0.2-3.8-0.2c-2,0-4.1,1.4-6-0.8c-0.4-0.5-2.6,0.5-4,0.6c-1.3,0.1-2.6-0.1-3.9-0.5c5.9-5.3,12-4.3,18.1-1
			c0.9,0.5,2.4,0.6,3.4,0.2c8.1-3.6,16.4-3.8,24.9-2c1.3,0.3,2.6,0.7,3.9,0.8c1.9,0.1,3.7-0.2,5.9-0.3c0.4,2.2-1.8,2.6-4,3.6
			c2.1,0.3,4.3,0.6,6.7,0.9c-0.7,0.6-1.4,1.1-2.1,1.8c4.4,1.5,8.8,1.7,13.1,0.5c1.5-0.4,3-1.5,4-2.6c0.5-0.5,0.2-1.9,0.2-3
			c-0.9,0.3-1.9,0.5-2.8,0.8c-0.3,0.1-0.4,0.6-1,1.6c-0.3-1.5-0.4-2.4-0.6-3.5c-3-0.3-5,4.3-8.4,1.9c-0.4-0.3-0.3-1.3-0.3-1.1
			c1.9-0.5,3.6-0.7,5-1.5c4.4-2.4,7.8-1.9,11,2.2c0.4-1.1,0.8-2.1,1.4-3.6c0.6,0.8,1.1,1.6,1.8,2.3c0.2-0.4,0.4-0.8,0.8-1.7
			c0.3,0.8,0.4,1.5,0.7,2.2c4.2-2.6,8.5-3.1,13.3-1.7c2.3,0.6,5.1-0.1,7.6-0.2c-0.5,0.6-1,1.3-2.2,2.7c3.8-1.1,6.7-2.1,9.6-2.8
			c1.7-0.4,3.4-0.7,5.1-0.5c0.6,0.1,1.1,1.6,1.4,2.8c-2.2-2.3-4.2-1.5-6.4-0.3c-3.8,2.1-7.7,2.6-12.2,1.5c0,1.5,0,2.8,0,4.1
			c-2.4-2.7-4.9-4.8-8.6-4.3c-0.1,0,0,0.8,0,1.5c-0.9-0.3-1.9-0.6-3.3-1c1,1.4,2.3,2.3,2.6,3.5c0.3,1-0.5,2.4-1.1,3.6
			c-2.3-4.1-6-3.3-9.3-3c-2.5,0.2-5.1,1-7.6,1.5c-6.5,1.3-8.2,1-18.8-2.2c0.6,1.5,1.4,2.8,1.7,4.2c0.2,0.8-0.2,1.9-0.3,2.8
			c-0.9-0.2-2.2,0-2.7-0.6c-1.7-1.9-3.1-4-4.2-5.6c-2.3,6-8.3,7.9-14.7,8.4c-4.1,0.3-8.3-0.5-12.4-0.5c-2.8,0-5.8,0.4-7.4,3.5
			c-1.4-3.5-0.6-5.7,2.5-7.2c1.6-0.7,3.4-0.8,5-1.5c1.8-0.6,3.4-1.6,5.5-2.5c-3.4-3.1-5.9-3-8.7-0.5c-4.2,3.6-8.8,6.9-13.2,10.4
			c1,0.5,2.4,0.8,3.2,1.7c0.7,0.8,0.9,2.1,1,3.6c-3-4.4-6.9-3.6-10.6-2C490.6,193,473.8,191.7,457.3,181.9z M533.4,169
			c2.5,1.7,4.7,3.2,6.2,4.2c1.3-1.7,2.3-3.4,3.7-4.8c0.3-0.3,1.7,0.5,2.7,0.8c-2,1.9-3.6,3.5-1.9,5.8c1.5,2.1,4.9,2.3,7.9,0.6
			c-4.2-2-5.3-4.2-3.6-9.4c1.3,1.9,2.4,3.2,3.2,4.8c0.5,1.4,0.5,3,2.6,2.5c1.8-0.4,3.1-3,1.9-4.4c-1.3-1.5-3.1-3.1-4.9-3.3
			C545.3,165.2,539.2,166.1,533.4,169z"/>
	</g>
	<g>
		<path class="st6" d="M368.8,169.9c5.1,3.9,10.2,7.8,15.2,11.8c0.6-1.9,1.1-3.6,1.6-5.2c0.4-0.1,0.8-0.2,1.1-0.3
			c-1.4,5.4,1.1,8.1,6.2,9.6c-0.5-0.7-0.7-0.9-0.8-1.3c-0.3-0.3-0.5-0.6-0.8-0.9c-5.2-6.4-3-15.1,4.8-18.1
			c7.2-2.7,14.3-2.1,21.3,1.3c4.3,2.1,8.8,3.9,13.3,5.7c2.5,0.9,5.1,0.6,7-1.8c0.4,3.9-0.9,6.8-4.2,7.3c-2.8,0.4-5.9,0.1-8.8-0.2
			c-2.1-0.2-4.2-1.5-5.9,0.8c-0.2,0.2-1.8-0.2-2.2-0.7c-1-1.1-1.9-2.6-3.1-4.3c-1.1,3.5-2.3,7-6.7,6.8c-0.8,0-1.7-1.3-2.5-2
			c0.4,0,0.7,0,1.1,0c1.4-1.8,3.9-3.8,3.7-5.4c-0.2-1.9-2.6-4.1-4.7-5.2c-5-2.3-11.2,0.2-13.4,5c-2.3,4.8-0.4,9.9,4.9,12.7
			c7.4,4,15.6,3.8,23.6,2.8c3.1-0.4,6.1-1.4,9.2-2.2c-6.2-1-7.9-2.8-6.4-7.6c2,5.4,6.1,3.9,10.7,4.1c-1.3-0.6-1.9-0.9-2.6-1.4
			c1.1-2,2.7-2.5,4.4-1.4c3.6,2.6,6.9-0.3,9-3.7c2.1-3.3,1.5-6.5-1.5-8.8c-2.2-1.7-3-1.8-9.1-1.8c0.8-0.4,1.6-1.3,2.4-1.4
			c3.5-0.5,8.3,1.8,9.9,4.8c1.8,3.5,0.7,6.6-1.6,9.4c-2.6,3.4-2.5,4.4,0.4,7.6c-2.6,0.1-3.1-0.3-4-4.2c-7.4,4.9-15.6,7.5-24.4,8.4
			c-8.7,0.7-17-0.5-25.2-3.7c-1.5-0.5-2.8-1.1-4.4-1.4c-2.8-0.5-5.4-0.2-6.6,3.2c-1.6-2.6-0.5-4,3.7-5.3c-5.4-4-10.5-8.2-15.9-11.9
			c-1.3-0.8-3.7,0.2-5.6,0.3c0.6,3.3,2.5,3.8,4.8,4.1c1.8,0.3,3.7,0.7,5.3,1.5c3,1.5,3.5,3.5,2.4,6.2c-2-0.8-4-2.1-6.1-2.4
			c-2.5-0.3-5.2,0.2-7.7,0.1c-4.2-0.2-8.5-0.2-12.5-1s-7.2-3.4-8.9-7.7c0.1,3.3-1.5,5.3-4.1,6.7c-0.6,0.3-1.9,0.6-2.2,0.3
			c-0.5-0.5-0.8-1.7-0.6-2.4c0.4-1.6,1.1-3.1,1.8-4.7c-2.6,0.7-5.2,1.6-7.8,2.3c-5.8,1.6-11.5-0.5-17.1-1.4
			c-1.7-0.3-3.5-0.5-5.2-0.3c-1.8,0.3-3.5,1.3-6,2.1c-1.9-1-1.7-2.8,1.7-6.1c-0.9,0.3-2,0.7-3.2,1.1c0.1-0.5,0.2-1,0.4-1.7
			c-3.8-0.3-6.4,1.4-8.9,4.4c-0.1-1.3-0.1-2.5-0.2-4.1c-4.5,1.1-9,0.1-13.3-2.1c-1.1-0.6-3,0.1-4.5,0.5c-1.4-1-0.8-2.3,0.8-2.6
			c1.7-0.2,3.6,0.3,5.3,0.7c2.8,0.6,5.7,1.6,8.6,2.3c0.2-0.3,0.3-0.6,0.5-0.8c-0.8-0.3-1.7-0.7-2.3-1c4.3-0.3,8.2-1,12.1-0.9
			c3.1,0.1,6.1,1,9.4,1.6c0,0,0.1-0.5,0.4-1.3c0.4,0.7,0.8,1.3,1.1,1.8c0.4-0.8,0.7-1.6,1.4-3c0.6,1.7,1,2.8,1.5,4
			c3.1-4.1,6.6-4.8,11.1-2.2c1.3,0.7,2.8,0.9,4.8,1.6c0.1,1.5-1,2.3-3.5,1.4c-1.7-0.7-3.2-1.7-5.1-2.7c-0.2,1.4-0.3,2.3-0.4,3.2
			c-0.4,0-0.6,0.1-0.7,0c-0.8-1.1-1.7-3-3.3-1.6c-1.7,1.4-0.4,3.3,0.8,3.8c3,1.1,6.1,2,9.3,2.4c2.2,0.2,4.4-0.5,7.2-0.9
			c-0.9-0.8-1.6-1.5-2.2-2.1c2.3-0.3,4.7-0.5,6.9-0.8c-2-1-4.4-1.1-4-4.8c2.2,2.7,4.7,1.9,7.1,1.3c9.4-2.5,18.7-2.5,27.8,1.5
			c0.9,0.4,2.5-0.1,3.6-0.6c5.9-3,11.8-3.7,17.5,1c-2.7,3.5-6.4-1.9-8.6,0.5C374.7,171.5,371.6,167.4,368.8,169.9z M364.3,169.1
			c-5.8-2.8-11.7-3.8-17.7-3.2c-2.3,0.2-5,1.1-5.3,3.9c-0.1,1.1,1.4,2.5,2,3.9c0.8-0.7,1.9-1.4,2.5-2.3c1-1.4,1.9-3.1,2.8-4.5
			c0.4,0.2,0.8,0.3,1.3,0.5c-0.2,1.8,0,3.7-0.7,5.2s-2.4,2.4-3.6,3.6c3.5,1.3,7.2,0.9,7.8-1.4c0.4-1.6-0.5-3.6-1-5.9
			c0.1,0,1.5-0.7,1.8-0.4c1.4,1.4,2.5,3.1,3.7,4.7C359.9,172,361.9,170.7,364.3,169.1z"/>
	</g>
	<g>
		<path class="st6" d="M234,164.5c-0.1-0.9-0.2-1.4-0.2-1.9c0-0.3,0.1-0.5,0.2-1c143.3,0,286.4,0,429.7,0c0,0.9,0,1.8,0,3
			c-8.4,0-16.7,0.9-24.7-0.3c-6.1-0.9-12.2-0.8-18.2-0.8c-118.5-0.1-237-0.2-355.5,0.1c-9.3,0-18.6,0.9-28,1
			C236.3,164.5,235.3,164.5,234,164.5z"/>
	</g>
</g>
</svg>
