<?xml version="1.0" encoding="utf-8"?>
<!-- Generator: Adobe Illustrator 24.1.2, SVG Export Plug-In . SVG Version: 6.00 Build 0)  -->
<svg version="1.1" id="圖層_1" xmlns="http://www.w3.org/2000/svg" xmlns:xlink="http://www.w3.org/1999/xlink" x="0px" y="0px"
	 viewBox="0 0 501 500" style="enable-background:new 0 0 501 500;" xml:space="preserve">
<style type="text/css">
	.st0{fill:#D8B479;}
	.st1{fill:#FFFFFF;}
	.st2{fill:#CB4042;}
	.st3{font-family:'Kefa-Regular';}
	.st4{font-size:45.3508px;}
	.st5{fill:#C78550;}
	.st6{font-family:'NaikaiFont-Regular';}
	.st7{font-size:40.3118px;}
</style>
<g>
	<g>
		<g>
			<path class="st0" d="M252.4,137.6c42.5,0,82.4,16.5,112.4,46.6c30,30,46.6,69.9,46.6,112.4s-16.5,82.4-46.6,112.4
				c-30,30-69.9,46.6-112.4,46.6S170,438.9,140,408.9c-30-30-46.6-69.9-46.6-112.4S110,214.2,140,184.1
				C170,154.1,209.9,137.6,252.4,137.6 M252.4,132.5c-90.6,0-164,73.4-164,164s73.4,164,164,164s164-73.4,164-164
				S342.9,132.5,252.4,132.5L252.4,132.5z"/>
		</g>
		<g>
			
				<ellipse transform="matrix(0.7071 -0.7071 0.7071 0.7071 -135.7611 265.304)" class="st1" cx="252.4" cy="296.5" rx="156.1" ry="156.1"/>
			<path class="st0" d="M252.4,141.3c41.5,0,80.4,16.1,109.7,45.5c29.3,29.3,45.5,68.3,45.5,109.7s-16.1,80.4-45.5,109.7
				c-29.3,29.3-68.3,45.5-109.7,45.5s-80.4-16.1-109.7-45.5C113.3,377,97.2,338,97.2,296.5s16.1-80.4,45.5-109.7
				C171.9,157.5,210.9,141.3,252.4,141.3 M252.4,139.4c-86.8,0-157.1,70.3-157.1,157.1s70.3,157.1,157.1,157.1
				s157.1-70.3,157.1-157.1S339.1,139.4,252.4,139.4L252.4,139.4z"/>
		</g>
		<g>
			<g>
				<path class="st0" d="M77.9,304.9c-10.6,9.4-7.1,19.9-4.4,30.3c2.8,10.9,6.8,21.2,14.5,29.8c0.8-2.5,1.2-5.3,2.6-7.2
					c1.2-1.7,3.7-2.8,5.8-3.4c0.7-0.2,2.5,1.7,3,3c0.2,0.7-1.1,2.6-2.1,3c-7,2.8-8.1,6.2-3.3,12.4c5.9,7.5,10.8,15.4,9.7,25.5
					c-0.1,0.7-0.2,1.4-1.1,2.2c-0.2-1-0.3-2-0.6-2.9c-1.8-4.6-2.7-10-5.6-13.8c-7-9.1-19.2-6.9-23.6,3.7c-0.6,1.5-1.9,2.7-2.9,4
					c-1.5-1.5-3.6-2.8-4.3-4.6c-2.7-6.9,2.9-14.5,11.4-14.8c5.1-0.2,10.3,1.3,15.2,2c-3.3-3.8-7.1-8.2-10.9-12.7
					c-7.4-8.8-14.3-18.2-16.9-29.5c-1.3-5.7-1.4-12.1-0.3-17.9C65.3,307.6,70.9,304.2,77.9,304.9z M67.9,312.6
					c-8.3,8.2-0.4,35,13.3,46.1C73,344.4,68.2,329.3,67.9,312.6z M91.8,377.8c-7.5-5.7-17.2-5.7-22.3-0.4c-2.2,2.4-3.6,5-0.8,8.6
					C75.3,379.9,81.8,373.8,91.8,377.8z M89.7,361.4c0.4,0.2,0.8,0.5,1.2,0.7c1.7-0.8,3.5-1.5,5-2.5c0.7-0.5,0.9-1.8,1.3-2.7
					c-1-0.2-2.6-1-3-0.6C92.5,357.7,91.2,359.6,89.7,361.4z"/>
			</g>
			<g>
				<path class="st0" d="M77.7,236.6c3.7-4.6,7.3-9.3,11-13.9c1.2-1.5,2.4-2.9,3.5-4.6c-6,2.3-11.8,4.1-18.2,2.1
					c-7.1-2.2-11-8.6-8.5-14.7c0.7-1.7,2.7-2.8,4.1-4.2c1,1.3,2.4,2.4,3,3.9c4.7,11,17.1,12.8,24.3,3.3c1.8-2.3,3.1-5.1,4-7.9
					c0.9-2.6,1-5.5,1.8-8.3c1.6,4.7,1.4,9.5-0.6,13.8c-2.3,4.9-5.3,9.6-8.4,14.1c-4.3,6.1-3.5,9.7,3.4,12.1c2.1,0.7,3.4,1.9,2.1,3.8
					c-0.8,1.3-3,2.5-4.4,2.3c-3.5-0.4-5.3-3.6-6.8-11.3c-2.9,4.5-6.3,8.1-7.9,12.4c-3.6,9.9-6.6,19.9-9.2,30.1
					c-1.5,5.9,0.1,11.5,4.7,16c0.4,0.4,0.7,0.9,1,1.5c0.1,0.2,0,0.6,0,0.8c-4.8,0.8-9.6-1.4-11.5-6.7c-1.6-4.3-2.6-9.3-2.1-13.8
					c1.3-11.9,6.8-22.2,14.9-31.1c-0.6,1.3-1.3,2.6-1.9,3.8c-3.1,5.9-7.1,11.5-9.2,17.7c-1.8,5.3-1.8,11.3-2.1,17
					c-0.1,1.8,1.5,3.7,2.3,5.5c1-16.5,6.3-31.2,13.8-45.9c-0.9,0.7-1.3,0.9-1.6,1.1C78.7,236.1,78.2,236.3,77.7,236.6z M91.8,215
					c-8.1,3.1-14.2,0.1-19.9-5c-1.1-1-2.6-1.5-3.9-2.2c-0.1,1.8-0.7,3.7-0.2,5.3c0.5,1.5,2,2.9,3.4,3.9
					C76.7,221.1,87.6,220,91.8,215z M90.3,230.3c-0.3,0.2-0.6,0.4-0.9,0.6c1.5,2,3,4.1,4.7,5.8c0.4,0.4,2-0.4,3-0.6
					c-0.4-0.9-0.5-2.2-1.2-2.7C94.2,232.3,92.2,231.4,90.3,230.3z"/>
			</g>
			<g>
				<path class="st0" d="M76.1,235.2c-1,1.5-2.1,4.3-4.2,5.8c-5.7,4.2-11.3,8.7-17.7,11.7c-9.9,4.6-19.1,9.6-24.3,19.8
					c-0.4,0.8-1.1,1.4-1.8,2c-0.3,0.3-0.8,0.3-2.6,0.7c0.3-3.7,0-7.1,0.9-10c2.4-7.7,7.6-12.4,15.8-13.8c5.7-0.9,11.8-1.4,16.8-4
					C65.4,244.3,70.7,239.2,76.1,235.2z M29.6,266.8c7.3-5,14.7-10.2,21.5-14.9C37.6,252.4,28.5,258.7,29.6,266.8z"/>
			</g>
			<g>
				<path class="st0" d="M55.4,341.3c9.6,2.7,16.4,8.6,20.5,17.8c-0.3-0.2-0.7-0.2-0.9-0.5c-7.3-11.2-18.1-15.7-30.9-16.8
					c-10.7-0.9-17.8-8.2-18.6-18.8c-0.1-1.6,0.5-3.3,0.9-6.1c1.8,1.9,3.2,2.9,3.9,4.2c4.8,9.1,12.5,14.5,21.8,18.1
					C53.3,339.7,54.3,340.6,55.4,341.3c-10.1-2.6-18.5-8.1-25.7-15.8c-0.5,4.7,1.5,8,4.7,10.5C40.5,340.8,48,341.2,55.4,341.3z"/>
			</g>
			<g>
				<path class="st0" d="M62.9,354.9c8.9,2.3,15.6,7.7,21,15c-6.1-5.4-12.1-10.7-20.5-12.1c-8.2-1.3-15,2.4-19.4,10.4
					c-5.2-3.3-3.4-9.6,4-13.8c-1,1.2-2.2,2.3-3.1,3.6c-0.8,1.3-1.3,2.8-2,4.1c6.9-4.4,13.7-6.8,21.6-5.5
					C63.9,356,63.4,355.5,62.9,354.9z"/>
			</g>
			<g>
				<path class="st0" d="M44.6,325.1c-7.8-3.3-10.5-17.1-4.5-22c1.3-1,3.7-0.6,5.6-0.9c-0.1,2,0.7,4.7-0.3,5.9
					C39,316.2,38.9,316.5,44.6,325.1z M37.5,314c0.4,0,0.7,0.1,1.1,0.1c1.6-2,3.4-4,4.7-6.2c0.6-1,0.1-2.6,0.2-4
					c-1.2,0.5-3.1,0.7-3.5,1.6C38.9,308.2,38.3,311.2,37.5,314z"/>
			</g>
			<g>
				<path class="st0" d="M54.6,240c-3.6-1.4-7.8-2.2-10.8-4.5c-4-3.1-3.5-8.3,0.4-10.7c3.3,10.2,12,10.4,20.5,11
					c0.1,0.2,0.2,0.4,0.1,0.6c-8,1.1-15.1-0.9-21.7-6.6c0.2,5,3,6.7,6.2,8.1C51,238.6,52.8,239.2,54.6,240z"/>
			</g>
			<g>
				<path class="st0" d="M44.3,268.3c-0.8,1.2-1.6,2.3-2.3,3.6c-2.7,4.4-2.3,7.5,1.5,11.1c2,1.9,4.3,3.6,2.8,6.7
					c-0.4,0.9-2.6,2.1-3.1,1.8c-2-1.4-4.5-3-5.4-5.2C35,279.9,37.8,272.3,44.3,268.3z M38.6,278.6c-0.4,0.1-0.7,0.1-1.1,0.2
					c0.7,2.8,1.2,5.8,2.4,8.5c0.4,0.9,2.3,1.2,3.5,1.8c0-1.4,0.4-3.1-0.2-4.2C41.9,282.7,40.2,280.7,38.6,278.6z"/>
			</g>
			<g>
				<path class="st0" d="M50.3,321.1c1.8-1.6,3-2.8,4.3-4c1,1.2,2.9,2.7,2.7,3.7c-0.4,1.8-2,3.4-3.1,5
					C53,324.4,51.9,323.1,50.3,321.1z"/>
			</g>
			<g>
				<path class="st0" d="M50.1,271.1c2.1-1.8,3.4-2.9,4.7-4c0.9,1.9,2.2,3.7,2.5,5.6c0.1,0.8-1.8,2-2.9,3
					C53.2,274.4,51.9,273.1,50.1,271.1z"/>
			</g>
			<g>
				<path class="st0" d="M64.4,237.4c0.2-0.4,0.3-0.7,0.5-1.1c0.1-0.2,0.1-0.4-0.1-0.6c6.5-4.1,13.1-8.1,19.1-11.9
					C79,229.8,72.9,235.2,64.4,237.4z"/>
			</g>
			<g>
				<path class="st0" d="M54.6,334.6c-1.7-2.4-2-4.9,0.7-6.4c0.9-0.5,4.3,0.9,4.4,1.7c0.4,2.7,0.8,6.8-0.7,8c-2.3,1.9-3.9-1-4.6-3.5
					c1.3,1,2.5,1.9,4.8,3.6c-0.3-3.6,1.2-6.4-2.4-7.6C56.6,330.3,55.3,333.1,54.6,334.6z"/>
			</g>
			<g>
				<path class="st0" d="M52,261.2c2.4-2.7,4.2-4.8,6-6.8c0.9,1.6,2.6,3.2,2.6,4.8c0,2.6-0.1,6.1-4.1,6
					C55.3,265.1,54.1,263.1,52,261.2z M59.7,256.7c-0.9-0.4-1.7-0.7-2.6-1.1c-0.7,1.9-1.6,3.8-2.1,5.8c-0.1,0.3,1.4,1,2.2,1.5
					C58,260.8,58.8,258.8,59.7,256.7z"/>
			</g>
			<g>
				<path class="st0" d="M58.5,282.7c-1.5,1-2.9,2.1-3,1.9c-0.9-0.9-1.9-2.1-2.2-3.3c-0.2-0.7,1.1-1.6,1.7-2.5
					C55.9,279.9,56.9,281,58.5,282.7z"/>
			</g>
		</g>
		<g>
			<g>
				<path class="st0" d="M423.2,288.2c10.6-9.4,7.1-19.9,4.4-30.3c-2.8-10.9-6.8-21.2-14.5-29.8c-0.8,2.5-1.2,5.3-2.6,7.2
					c-1.2,1.7-3.7,2.8-5.8,3.4c-0.7,0.2-2.5-1.7-3-3c-0.2-0.7,1.1-2.6,2.1-3c7-2.8,8.1-6.2,3.3-12.4c-5.9-7.5-10.8-15.4-9.7-25.5
					c0.1-0.7,0.2-1.4,1.1-2.2c0.2,1,0.3,2,0.6,2.9c1.8,4.6,2.7,10,5.6,13.8c7,9.1,19.2,6.9,23.6-3.7c0.6-1.5,1.9-2.7,2.9-4
					c1.5,1.5,3.6,2.8,4.3,4.6c2.7,6.9-2.9,14.5-11.4,14.8c-5.1,0.2-10.3-1.3-15.2-2c3.3,3.8,7.1,8.2,10.9,12.7
					c7.4,8.8,14.3,18.2,16.9,29.5c1.3,5.7,1.4,12.1,0.3,17.9C435.8,285.4,430.2,288.8,423.2,288.2z M433.2,280.5
					c8.3-8.2,0.4-35-13.3-46.1C428,248.7,432.9,263.8,433.2,280.5z M409.3,215.2c7.5,5.7,17.2,5.7,22.3,0.4c2.2-2.4,3.6-5,0.8-8.6
					C425.8,213.2,419.3,219.2,409.3,215.2z M411.4,231.7c-0.4-0.2-0.8-0.5-1.2-0.7c-1.7,0.8-3.5,1.5-5,2.5c-0.7,0.5-0.9,1.8-1.3,2.7
					c1,0.2,2.6,1,3,0.6C408.6,235.4,409.9,233.4,411.4,231.7z"/>
			</g>
			<g>
				<path class="st0" d="M423.4,356.5c-3.7,4.6-7.3,9.3-11,13.9c-1.2,1.5-2.4,2.9-3.5,4.6c6-2.3,11.8-4.1,18.2-2.1
					c7.1,2.2,11,8.6,8.5,14.7c-0.7,1.7-2.7,2.8-4.1,4.2c-1-1.3-2.4-2.4-3-3.9c-4.7-11-17.1-12.8-24.3-3.3c-1.8,2.3-3.1,5.1-4,7.9
					c-0.9,2.6-1,5.5-1.8,8.3c-1.6-4.7-1.4-9.5,0.6-13.8c2.3-4.9,5.3-9.6,8.4-14.1c4.3-6.1,3.5-9.7-3.4-12.1
					c-2.1-0.7-3.4-1.9-2.1-3.8c0.8-1.3,3-2.5,4.4-2.3c3.5,0.4,5.3,3.6,6.8,11.3c2.9-4.5,6.3-8.1,7.9-12.4c3.6-9.9,6.6-19.9,9.2-30.1
					c1.5-5.9-0.1-11.5-4.7-16c-0.4-0.4-0.7-0.9-1-1.5c-0.1-0.2,0-0.6,0-0.8c4.8-0.8,9.6,1.4,11.5,6.7c1.6,4.3,2.6,9.3,2.1,13.8
					c-1.3,11.9-6.8,22.2-14.9,31.1c0.6-1.3,1.3-2.6,1.9-3.8c3.1-5.9,7.1-11.5,9.2-17.7c1.8-5.3,1.8-11.3,2.1-17
					c0.1-1.8-1.5-3.7-2.3-5.5c-1,16.5-6.3,31.2-13.8,45.9c0.9-0.7,1.3-0.9,1.6-1.1C422.4,357,422.9,356.8,423.4,356.5z M409.3,378
					c8.1-3.1,14.2-0.1,19.9,5c1.1,1,2.6,1.5,3.9,2.2c0.1-1.8,0.7-3.7,0.2-5.3c-0.5-1.5-2-2.9-3.4-3.9C424.4,372,413.5,373,409.3,378
					z M410.8,362.8c0.3-0.2,0.6-0.4,0.9-0.6c-1.5-2-3-4.1-4.7-5.8c-0.4-0.4-2,0.4-3,0.6c0.4,0.9,0.5,2.2,1.2,2.7
					C406.9,360.8,408.9,361.7,410.8,362.8z"/>
			</g>
			<g>
				<path class="st0" d="M425,357.8c1-1.5,2.1-4.3,4.2-5.8c5.7-4.2,11.3-8.7,17.7-11.7c9.9-4.6,19.1-9.6,24.3-19.8
					c0.4-0.8,1.1-1.4,1.8-2c0.3-0.3,0.8-0.3,2.6-0.7c-0.3,3.7,0,7.1-0.9,10c-2.4,7.7-7.6,12.4-15.8,13.8c-5.7,0.9-11.8,1.4-16.8,4
					C435.7,348.8,430.4,353.9,425,357.8z M471.5,326.3c-7.3,5-14.7,10.2-21.5,14.9C463.5,340.7,472.6,334.4,471.5,326.3z"/>
			</g>
			<g>
				<path class="st0" d="M445.7,251.7c-9.6-2.7-16.4-8.6-20.5-17.8c0.3,0.2,0.7,0.2,0.9,0.5c7.3,11.2,18.1,15.7,30.9,16.8
					c10.7,0.9,17.8,8.2,18.6,18.8c0.1,1.6-0.5,3.3-0.9,6.1c-1.8-1.9-3.2-2.9-3.9-4.2c-4.8-9.1-12.5-14.5-21.8-18.1
					C447.8,253.4,446.8,252.5,445.7,251.7c10.1,2.6,18.5,8.1,25.7,15.8c0.5-4.7-1.5-8-4.7-10.5C460.6,252.3,453.1,251.9,445.7,251.7
					z"/>
			</g>
			<g>
				<path class="st0" d="M438.2,238.1c-8.9-2.3-15.6-7.7-21-15c6.1,5.4,12.1,10.7,20.5,12.1c8.2,1.3,15-2.4,19.4-10.4
					c5.2,3.3,3.4,9.6-4,13.8c1-1.2,2.2-2.3,3.1-3.6c0.8-1.3,1.3-2.8,2-4.1c-6.9,4.4-13.7,6.8-21.6,5.5
					C437.2,237.1,437.7,237.6,438.2,238.1z"/>
			</g>
			<g>
				<path class="st0" d="M456.5,268c7.8,3.3,10.5,17.1,4.5,22c-1.3,1-3.7,0.6-5.6,0.9c0.1-2-0.7-4.7,0.3-5.9
					C462.1,276.9,462.2,276.6,456.5,268z M463.5,279.1c-0.4,0-0.7-0.1-1.1-0.1c-1.6,2-3.4,4-4.7,6.2c-0.6,1-0.1,2.6-0.2,4
					c1.2-0.5,3.1-0.7,3.5-1.6C462.2,284.9,462.8,281.9,463.5,279.1z"/>
			</g>
			<g>
				<path class="st0" d="M446.5,353.1c3.6,1.4,7.8,2.2,10.8,4.5c4,3.1,3.5,8.3-0.4,10.7c-3.3-10.2-12-10.4-20.5-11
					c-0.1-0.2-0.2-0.4-0.1-0.6c8-1.1,15.1,0.9,21.7,6.6c-0.2-5-3-6.7-6.2-8.1C450,354.5,448.3,353.8,446.5,353.1z"/>
			</g>
			<g>
				<path class="st0" d="M456.8,324.8c0.8-1.2,1.6-2.3,2.3-3.6c2.7-4.4,2.3-7.5-1.5-11.1c-2-1.9-4.3-3.6-2.8-6.7
					c0.4-0.9,2.6-2.1,3.1-1.8c2,1.4,4.5,3,5.4,5.2C466,313.2,463.3,320.8,456.8,324.8z M462.5,314.4c0.4-0.1,0.7-0.1,1.1-0.2
					c-0.7-2.8-1.2-5.8-2.4-8.5c-0.4-0.9-2.3-1.2-3.5-1.8c0,1.4-0.4,3.1,0.2,4.2C459.1,310.4,460.9,312.4,462.5,314.4z"/>
			</g>
			<g>
				<path class="st0" d="M450.8,272c-1.8,1.6-3,2.8-4.3,4c-1-1.2-2.9-2.7-2.7-3.7c0.4-1.8,2-3.4,3.1-5
					C448.1,268.6,449.2,270,450.8,272z"/>
			</g>
			<g>
				<path class="st0" d="M451,321.9c-2.1,1.8-3.4,2.9-4.7,4c-0.9-1.9-2.2-3.7-2.5-5.6c-0.1-0.8,1.8-2,2.9-3
					C447.9,318.6,449.2,320,451,321.9z"/>
			</g>
			<g>
				<path class="st0" d="M436.7,355.7c-0.2,0.4-0.3,0.7-0.5,1.1c-0.1,0.2-0.1,0.4,0.1,0.6c-6.5,4.1-13.1,8.1-19.1,11.9
					C422,363.3,428.2,357.9,436.7,355.7z"/>
			</g>
			<g>
				<path class="st0" d="M446.5,258.5c1.7,2.4,2,4.9-0.7,6.4c-0.9,0.5-4.3-0.9-4.4-1.7c-0.4-2.7-0.8-6.8,0.7-8
					c2.3-1.9,3.9,1,4.6,3.5c-1.3-1-2.5-1.9-4.8-3.6c0.3,3.6-1.2,6.4,2.4,7.6C444.5,262.8,445.8,259.9,446.5,258.5z"/>
			</g>
			<g>
				<path class="st0" d="M449.1,331.9c-2.4,2.7-4.2,4.8-6,6.8c-0.9-1.6-2.6-3.2-2.6-4.8c0-2.6,0.1-6.1,4.1-6
					C445.8,328,447,330,449.1,331.9z M441.4,336.4c0.9,0.4,1.7,0.7,2.6,1.1c0.7-1.9,1.6-3.8,2.1-5.8c0.1-0.3-1.4-1-2.2-1.5
					C443.1,332.3,442.2,334.3,441.4,336.4z"/>
			</g>
			<g>
				<path class="st0" d="M442.6,310.4c1.5-1,2.9-2.1,3-1.9c0.9,0.9,1.9,2.1,2.2,3.3c0.2,0.7-1.1,1.6-1.7,2.5
					C445.1,313.1,444.2,312.1,442.6,310.4z"/>
			</g>
		</g>
	</g>
	<g>
		<text transform="matrix(1 0 0 1 123.9095 62.8703)" class="st2 st3 st4">My Favorite</text>
	</g>
	<g>
		<text transform="matrix(1 0 0 1 163.5716 103.5392)" class="st5 st6 st7">我的最愛</text>
	</g>
</g>
<g>
	<path class="st0" d="M302.5,256.7c-13.8-8.9-32.2-5.3-42.6,7.4l-8.9,10.8c-0.1,0.1-0.2,0.1-0.2,0l-8.9-10.8
		c-10.4-12.7-28.8-16.3-42.6-7.4c-16.3,10.5-20.5,27.9-7.4,47.3s49.7,48.5,49.7,48.5c4.8,5.9,13.8,5.9,18.6,0
		c0,0,42.8-35.8,49.7-48.5S318.9,267.2,302.5,256.7z"/>
</g>
</svg>
