<?xml version="1.0" encoding="utf-8"?>
<!-- Generator: Adobe Illustrator 24.1.2, SVG Export Plug-In . SVG Version: 6.00 Build 0)  -->
<svg version="1.1" id="圖層_1" xmlns="http://www.w3.org/2000/svg" xmlns:xlink="http://www.w3.org/1999/xlink" x="0px" y="0px"
	 viewBox="0 0 761.7 428.3" style="enable-background:new 0 0 761.7 428.3;" xml:space="preserve">
<style type="text/css">
	.st0{fill:#CB4042;}
</style>
<g>
	<g>
		<path class="st0" d="M376.6,14c1.8,0.5,3.6,0.9,5.4,1.5c11.4,3.8,19.1,14.3,19.2,26.4c0,13.7,0,27.4,0,41.1c0,0.7,0,1.5,0,2.4
			c0.9,0,1.6,0,2.3,0c12,0,24.2,0,36.2,0c6.1,0,9.5,3.4,9.5,9.5c0,7.9,0,15.8,0,24c-54,0-108,0-162.2,0c0-0.6,0-1.2,0-1.8
			c0-7.4,0-14.8,0-22.1c0-5.8,3.5-9.2,9.2-9.2c12.9,0,25.8,0,38.7,0c0.7,0,1.5,0,2.4,0c0-0.9,0-1.6,0-2.3c0-13.4,0-26.9,0-40.2
			c0-14.8,9.2-25.8,23.8-28.5c0.2,0,0.5-0.2,0.7-0.4C366.8,14,371.7,14,376.6,14z M381.6,59.8c0-6.4-5.2-11.4-11.6-11.4
			s-11.6,5.1-11.6,11.6s5.2,11.7,11.7,11.6C376.5,71.3,381.6,66.2,381.6,59.8z"/>
	</g>
	<g>
		<path class="st0" d="M402.8,409.2c-4.7-4.9-9.4-9.5-14-14.2c-8.3-8.4-16.3-16.9-24.7-25.2c-12.6-12.4-27.4-21.8-42.9-30
			c-4.6-2.4-9.2-4.9-14.1-7.5c19.8-12.6,39.4-25.3,59.2-37.9c10.7,19.3,21.4,38.4,32.2,57.9c1.6-3.3,2.9-6.2,4.4-9.1
			c15.7-31.6,33.6-61.8,55.6-89.4c11.6-14.5,24.1-27.8,38.9-38.9c7.4-5.6,15.3-10.3,24-13.9c0.2-0.1,0.6-0.2,1.2-0.4
			c-0.2,3.8-0.5,7.2-0.7,10.7c-1,15.3-1.7,30.8-0.1,46.1c0.4,3.2,0.9,6.4,1.7,9.5c1,3.3,2.7,6.4,4,9.6
			c-19.8,10.8-36.8,26.1-53.3,42.2c-27.2,26.8-50.8,56.4-70.5,89.1C403.4,408.1,403.2,408.5,402.8,409.2z"/>
	</g>
	<g>
		<path class="st0" d="M327.2,50.2c0,6.7,0,13.1,0,19.9c-0.9,0-1.6,0-2.4,0c-15.6,0-31,0-46.6,0c-4.9,0-9.4,1.2-13,4.4
			c-3.3,2.8-5.2,6.4-5.2,10.8c0,2.2,0,4.4,0,6.7c0,86.1,0,172.2,0,258.4c0,10.1,6.7,17,16.8,17.1c15.8,0.1,31.6,0,47.3,0.1
			c1.1,0,2.4,0.4,3.4,1c8.4,5.1,16.4,10.8,23.7,17.3c0.5,0.4,1,0.9,1.2,1.7c-0.6,0-1.3,0-1.9,0c-29.1,0-58,0-87.1,0
			c-6.7,0-12.8-1.7-17.5-6.8c-2.7-2.9-4.1-6.2-4.1-10.2c0-0.9,0-1.6,0-2.4c0-99.5,0-198.9,0-298.4c0-11.2,7.4-19.1,18.7-19.3
			c11.8-0.2,23.5-0.1,35.3-0.1c9.7,0,19.3,0,29.1,0C325.6,50.2,326.4,50.2,327.2,50.2z"/>
	</g>
	<g>
		<path class="st0" d="M475.3,207.5c0-1,0-1.8,0-2.6c0.6-38.8,1-77.7,1.9-116.5c0.4-12.4-9.1-18.1-17.8-18.2
			c-14.5-0.2-28.9-0.5-43.3-0.6c-0.7,0-1.6,0-2.4,0c0.1-6.7,0.2-13.1,0.2-19.9c0.7,0,1.5,0,2.2,0c19.3,0.2,38.5,0.6,57.9,0.9
			c5.6,0.1,10.8,1.2,15.2,4.9c4.3,3.4,6.4,7.8,6.3,13.3c-0.6,40.7-1.2,81.4-1.8,122.1c0,1.3-0.5,2.1-1.5,2.8
			C486.7,198.1,481.2,202.7,475.3,207.5z"/>
	</g>
	<g>
		<path class="st0" d="M440.8,387.6c4.5-5.7,8.8-10.9,12.9-16.2c0.2-0.2,0.5-0.5,0.6-0.7c1.3-2.3,3.3-3,6.1-3.2
			c8-0.1,14.8-5.8,15.9-13.1c0.4-2.3,0.1-4.7,0.2-7.1c0-0.7,0.2-1.7,0.7-2.1c5.5-5.1,10.9-10.1,16.4-15.1c0.1-0.1,0.4-0.2,1-0.6
			c0,1,0,1.7,0,2.4c0,12,0,24.2,0,36.2c0,10.7-6.8,18.4-17.6,19.1c-7.2,0.5-14.3,0.2-21.5,0.4C450.9,387.6,446.1,387.6,440.8,387.6z
			"/>
	</g>
	<g>
		<path class="st0" d="M291.9,226.7c0-2.6,0-4.9,0-7.4c51.6,0,103.1,0,154.8,0c0,2.4,0,4.9,0,7.4
			C395.1,226.7,343.6,226.7,291.9,226.7z"/>
	</g>
	<g>
		<path class="st0" d="M291.8,203.8c0-2.4,0-4.9,0-7.4c51.6,0,103,0,154.7,0c0,2.4,0,4.9,0,7.4C395.1,203.8,343.6,203.8,291.8,203.8
			z"/>
	</g>
	<g>
		<path class="st0" d="M291.8,249.3c0-2.4,0-4.9,0-7.4c51.6,0,103,0,154.7,0c0,2.3,0,4.9,0,7.4C395.1,249.3,343.5,249.3,291.8,249.3
			z"/>
	</g>
	<g>
		<path class="st0" d="M291.8,163.9c0-2.6,0-4.9,0-7.4c18.2,0,36.5,0,54.8,0c0,2.4,0,4.9,0,7.4C328.4,163.9,310.2,163.9,291.8,163.9
			z"/>
	</g>
	<g>
		<path class="st0" d="M291.8,181.6c0-2.6,0-4.9,0-7.4c18.2,0,36.5,0,54.8,0c0,2.4,0,4.9,0,7.4C328.4,181.6,310.3,181.6,291.8,181.6
			z"/>
	</g>
</g>
</svg>
