<?xml version="1.0" encoding="utf-8"?>
<!-- Generator: Adobe Illustrator 24.1.2, SVG Export Plug-In . SVG Version: 6.00 Build 0)  -->
<svg version="1.1" id="圖層_1" xmlns="http://www.w3.org/2000/svg" xmlns:xlink="http://www.w3.org/1999/xlink" x="0px" y="0px"
	 viewBox="0 0 501 500" style="enable-background:new 0 0 501 500;" xml:space="preserve">
<style type="text/css">
	.st0{fill:#D8B479;}
	.st1{fill:#FFFFFF;}
	.st2{fill:#CB4042;}
	.st3{font-family:'Kefa-Regular';}
	.st4{font-size:44.5404px;}
	.st5{fill:#C78550;}
	.st6{font-family:'NaikaiFont-Regular';}
	.st7{font-size:39.5914px;}
</style>
<g>
	<g>
		<path class="st0" d="M261.1,366.3c-27.9,0-55.7,0-83.6,0c-16,0-20.7-4.6-20.7-20.3c0-31.1-0.1-62.3,0-93.4
			c0-13.8,5.1-19.1,19-19.1c57-0.1,114.1-0.1,171.1,0c13.4,0,18.6,5.2,18.6,18.3c0.1,32.1,0.1,64.3,0,96.4c0,12.7-5.1,17.9-17.9,18
			C318.8,366.4,289.9,366.3,261.1,366.3z M325.7,315.9C325.7,315.9,325.7,315.9,325.7,315.9c4.9-0.1,9.8,0.3,14.7-0.1
			c10.4-0.8,10.8-8.5,10.8-16.4c0-7.8-1.2-14.9-11-15.2c-9.8-0.4-19.7-0.9-29.3,0.3c-3.7,0.5-9,4.8-10,8.3c-4.6,16.5,1,23.1,18,23.1
			C321.1,315.9,323.4,315.9,325.7,315.9z M220.4,333.8c0.2,7.7,0.2,7.7,25.8,7.4c8-0.1,8-0.1,7.9-7.4
			C242.8,333.8,231.6,333.8,220.4,333.8z M303.3,336.8c-0.5-1-1-1.9-1.5-2.9c-11.3,0-22.6,0-33.9,0c0.8,8.3,1.1,8.5,27.6,7.1
			C298.2,340.8,300.7,338.2,303.3,336.8z M351.3,337.5c-0.4-1.2-0.9-2.4-1.3-3.6c-11.3,0-22.5,0-33.8,0c-0.4,1.1-0.8,2.1-1.2,3.2
			c2.8,1.3,5.8,4.1,8.4,3.8C332.6,339.5,343.6,345.4,351.3,337.5z M207.5,336.3c-0.6-1-1.3-2-1.9-3c-9.7,0-19.4-0.2-29.1,0.1
			c-1.7,0.1-3.2,2-4.9,3.1c1.6,1.5,3.1,4.2,4.8,4.3c8.4,0.4,16.9,0.5,25.3,0C203.7,340.7,205.6,337.9,207.5,336.3z"/>
	</g>
</g>
<g>
	<g>
		<g>
			<g>
				<g>
					
						<ellipse transform="matrix(0.7071 -0.7071 0.7071 0.7071 -138.5733 273.0692)" class="st1" cx="260.3" cy="303.8" rx="158.6" ry="158.6"/>
					<path class="st0" d="M260.3,147.7c41.7,0,80.9,16.2,110.4,45.7c29.5,29.5,45.7,68.7,45.7,110.4s-16.2,80.9-45.7,110.4
						c-29.5,29.5-68.7,45.7-110.4,45.7s-80.9-16.2-110.4-45.7c-29.5-29.5-45.7-68.7-45.7-110.4s16.2-80.9,45.7-110.4
						C179.4,163.9,218.6,147.7,260.3,147.7 M260.3,142.7c-89,0-161.1,72.1-161.1,161.1s72.1,161.1,161.1,161.1
						s161.1-72.1,161.1-161.1S349.3,142.7,260.3,142.7L260.3,142.7z"/>
				</g>
				<g>
					<path class="st0" d="M260.3,153.2c40.2,0,78.1,15.7,106.5,44.1S411,263.6,411,303.8s-15.7,78.1-44.1,106.5
						s-66.3,44.1-106.5,44.1s-78.1-15.7-106.5-44.1c-28.5-28.5-44.1-66.3-44.1-106.5s15.7-78.1,44.1-106.5
						C182.3,168.8,220.1,153.2,260.3,153.2 M260.3,151.3c-84.2,0-152.5,68.3-152.5,152.5s68.3,152.5,152.5,152.5
						S412.8,388,412.8,303.8S344.6,151.3,260.3,151.3L260.3,151.3z"/>
				</g>
				<g>
					<g>
						<path class="st0" d="M88.9,312c-10.5,9.2-7,19.5-4.3,29.8c2.8,10.7,6.7,20.8,14.3,29.3c0.8-2.5,1.1-5.2,2.5-7.1
							c1.2-1.6,3.6-2.7,5.7-3.3c0.7-0.2,2.5,1.7,2.9,2.9c0.2,0.7-1.1,2.5-2.1,2.9c-6.9,2.8-7.9,6.1-3.2,12.2
							c5.7,7.4,10.6,15.1,9.6,25.1c-0.1,0.7-0.2,1.4-1.1,2.2c-0.2-1-0.3-2-0.6-2.9c-1.7-4.6-2.6-9.8-5.5-13.5
							c-6.9-9-18.8-6.8-23.2,3.7c-0.6,1.5-1.9,2.7-2.8,4c-1.5-1.5-3.5-2.7-4.2-4.5c-2.7-6.7,2.9-14.3,11.2-14.6
							c5-0.2,10.2,1.3,15,1.9c-3.2-3.7-7-8-10.7-12.4c-7.3-8.7-14-17.8-16.6-29c-1.3-5.6-1.4-11.9-0.3-17.6
							C76.6,314.7,82.1,311.4,88.9,312z M79.2,319.6c-8.2,8-0.4,34.4,13.1,45.3C84.2,350.8,79.5,335.9,79.2,319.6z M102.7,383.7
							c-7.3-5.6-16.9-5.6-21.9-0.4c-2.2,2.3-3.5,4.9-0.8,8.4C86.4,385.7,92.8,379.7,102.7,383.7z M100.6,367.5
							c0.4,0.2,0.8,0.5,1.1,0.7c1.7-0.8,3.4-1.4,4.9-2.5c0.7-0.5,0.9-1.7,1.3-2.6c-1-0.2-2.5-1-3-0.6
							C103.3,363.9,102,365.8,100.6,367.5z"/>
					</g>
					<g>
						<path class="st0" d="M88.8,244.9c3.6-4.5,7.2-9.1,10.8-13.6c1.2-1.4,2.4-2.8,3.4-4.5c-5.9,2.3-11.6,4.1-17.8,2.1
							c-7-2.2-10.8-8.5-8.3-14.4c0.7-1.6,2.6-2.8,4-4.1c1,1.3,2.3,2.4,2.9,3.8c4.6,10.8,16.8,12.5,23.9,3.2c1.7-2.3,3-5,3.9-7.7
							c0.9-2.6,1-5.4,1.8-8.1c1.6,4.6,1.4,9.3-0.6,13.6c-2.3,4.8-5.2,9.4-8.3,13.8c-4.2,6-3.4,9.5,3.3,11.9c2,0.7,3.3,1.9,2.1,3.7
							c-0.8,1.2-2.9,2.4-4.3,2.3c-3.5-0.4-5.2-3.6-6.7-11.1c-2.9,4.4-6.2,8-7.7,12.2c-3.5,9.7-6.5,19.6-9.1,29.6
							c-1.5,5.8,0.1,11.3,4.6,15.7c0.4,0.4,0.7,0.9,1,1.4c0.1,0.2,0,0.6,0,0.8c-4.7,0.8-9.4-1.4-11.3-6.6c-1.6-4.2-2.6-9.1-2.1-13.6
							c1.3-11.7,6.7-21.8,14.7-30.5c-0.6,1.3-1.2,2.5-1.9,3.8c-3.1,5.8-7,11.3-9.1,17.4c-1.8,5.2-1.8,11.1-2,16.7
							c-0.1,1.8,1.5,3.6,2.3,5.4c0.9-16.2,6.2-30.6,13.5-45c-0.9,0.7-1.2,0.9-1.6,1.1C89.8,244.4,89.3,244.7,88.8,244.9z
							 M102.6,223.8c-7.9,3-14,0.1-19.5-4.9c-1.1-1-2.5-1.5-3.8-2.2c-0.1,1.7-0.7,3.7-0.2,5.2c0.5,1.5,2,2.9,3.3,3.9
							C87.8,229.7,98.5,228.7,102.6,223.8z M101.1,238.8c-0.3,0.2-0.6,0.4-0.9,0.6c1.5,1.9,2.9,4,4.6,5.7c0.4,0.4,1.9-0.3,2.9-0.6
							c-0.4-0.9-0.5-2.1-1.2-2.6C104.9,240.7,103,239.8,101.1,238.8z"/>
					</g>
					<g>
						<path class="st0" d="M87.2,243.6c-1,1.5-2.1,4.2-4.1,5.7c-5.6,4.2-11.1,8.6-17.4,11.5c-9.8,4.5-18.8,9.5-23.9,19.5
							c-0.4,0.7-1.1,1.4-1.7,1.9c-0.3,0.3-0.8,0.2-2.5,0.7c0.3-3.6,0-6.9,0.9-9.9c2.3-7.6,7.4-12.2,15.6-13.5
							c5.6-0.9,11.6-1.4,16.5-3.9C76.7,252.5,81.9,247.5,87.2,243.6z M41.5,274.6c7.1-5,14.5-10,21.1-14.7
							C49.4,260.5,40.5,266.7,41.5,274.6z"/>
					</g>
					<g>
						<path class="st0" d="M66.9,347.8c9.4,2.7,16.1,8.5,20.1,17.5c-0.3-0.2-0.7-0.2-0.9-0.5c-7.1-11-17.8-15.4-30.3-16.5
							c-10.5-0.9-17.5-8.1-18.2-18.5c-0.1-1.6,0.5-3.3,0.9-6c1.8,1.9,3.2,2.8,3.8,4.1c4.7,8.9,12.3,14.3,21.4,17.8
							C64.8,346.2,65.8,347.1,66.9,347.8c-9.9-2.6-18.2-7.9-25.2-15.5c-0.5,4.6,1.5,7.9,4.6,10.3C52.3,347.3,59.6,347.7,66.9,347.8z
							"/>
					</g>
					<g>
						<path class="st0" d="M74.2,361.2c8.8,2.3,15.4,7.6,20.6,14.7c-6-5.3-11.9-10.5-20.2-11.9c-8-1.3-14.7,2.3-19,10.2
							c-5.1-3.2-3.3-9.5,4-13.5c-1,1.2-2.2,2.3-3.1,3.6c-0.8,1.2-1.3,2.7-2,4.1c6.8-4.3,13.4-6.6,21.3-5.4
							C75.2,362.2,74.7,361.7,74.2,361.2z"/>
					</g>
					<g>
						<path class="st0" d="M56.3,331.9c-7.7-3.3-10.3-16.8-4.4-21.6c1.2-1,3.6-0.6,5.5-0.9c-0.1,2,0.6,4.6-0.3,5.8
							C50.8,323.1,50.6,323.4,56.3,331.9z M49.3,321c0.4,0,0.7,0.1,1.1,0.1c1.6-2,3.4-3.9,4.7-6.1c0.6-1,0.1-2.6,0.2-3.9
							c-1.2,0.5-3.1,0.7-3.4,1.6C50.7,315.3,50.1,318.2,49.3,321z"/>
					</g>
					<g>
						<path class="st0" d="M66.1,248.2c-3.6-1.4-7.7-2.2-10.6-4.4c-3.9-3-3.4-8.2,0.4-10.5c3.2,10.1,11.8,10.2,20.2,10.8
							c0.1,0.2,0.2,0.4,0.1,0.6c-7.8,1.1-14.8-0.9-21.3-6.5c0.2,4.9,2.9,6.6,6.1,7.9C62.6,246.9,64.4,247.5,66.1,248.2z"/>
					</g>
					<g>
						<path class="st0" d="M56,276.1c-0.8,1.2-1.6,2.3-2.3,3.5c-2.6,4.4-2.3,7.4,1.5,10.9c2,1.8,4.2,3.6,2.8,6.6
							c-0.4,0.9-2.6,2-3,1.7c-2-1.4-4.4-3-5.3-5.1C46.9,287.5,49.6,280,56,276.1z M50.4,286.2c-0.3,0.1-0.7,0.1-1,0.2
							c0.7,2.8,1.2,5.7,2.3,8.3c0.4,0.9,2.2,1.2,3.4,1.8c0-1.4,0.4-3-0.2-4.1C53.7,290.2,51.9,288.3,50.4,286.2z"/>
					</g>
					<g>
						<path class="st0" d="M61.9,327.9c1.7-1.6,3-2.8,4.2-3.9c0.9,1.2,2.8,2.6,2.6,3.6c-0.4,1.8-2,3.3-3.1,4.9
							C64.6,331.2,63.5,329.9,61.9,327.9z"/>
					</g>
					<g>
						<path class="st0" d="M61.7,278.9c2-1.7,3.3-2.8,4.6-3.9c0.9,1.8,2.1,3.6,2.4,5.5c0.1,0.8-1.8,1.9-2.8,2.9
							C64.7,282.1,63.5,280.8,61.7,278.9z"/>
					</g>
					<g>
						<path class="st0" d="M75.7,245.7c0.2-0.4,0.3-0.7,0.5-1.1c0.1-0.2,0.1-0.4-0.1-0.6c6.4-4,12.8-8,18.8-11.7
							C90.1,238.3,84.1,243.5,75.7,245.7z"/>
					</g>
					<g>
						<path class="st0" d="M66.1,341.2c-1.7-2.3-1.9-4.8,0.7-6.3c0.9-0.5,4.2,0.9,4.3,1.7c0.4,2.6,0.8,6.7-0.7,7.9
							c-2.2,1.8-3.8-1-4.5-3.4c1.3,0.9,2.5,1.9,4.7,3.5c-0.3-3.5,1.1-6.3-2.3-7.5C68,337,66.8,339.8,66.1,341.2z"/>
					</g>
					<g>
						<path class="st0" d="M63.5,269.1c2.4-2.7,4.1-4.7,5.9-6.7c0.9,1.6,2.5,3.1,2.6,4.7c0,2.6-0.1,6-4,5.9
							C66.7,272.9,65.6,271,63.5,269.1z M71.1,264.7c-0.9-0.4-1.7-0.7-2.6-1.1c-0.7,1.9-1.6,3.7-2.1,5.7c-0.1,0.3,1.4,0.9,2.2,1.4
							C69.4,268.7,70.3,266.7,71.1,264.7z"/>
					</g>
					<g>
						<path class="st0" d="M69.9,290.2c-1.4,0.9-2.8,2-2.9,1.9c-0.9-0.9-1.9-2-2.2-3.2c-0.1-0.6,1.1-1.6,1.7-2.4
							C67.4,287.5,68.4,288.6,69.9,290.2z"/>
					</g>
				</g>
				<g>
					<g>
						<path class="st0" d="M428.1,295.6c10.5-9.2,7-19.5,4.3-29.8c-2.8-10.7-6.7-20.8-14.3-29.3c-0.8,2.5-1.1,5.2-2.5,7.1
							c-1.2,1.6-3.6,2.7-5.7,3.3c-0.7,0.2-2.5-1.7-2.9-2.9c-0.2-0.7,1.1-2.5,2.1-2.9c6.9-2.8,7.9-6.1,3.2-12.2
							c-5.7-7.4-10.6-15.1-9.6-25.1c0.1-0.7,0.2-1.4,1.1-2.2c0.2,1,0.3,2,0.6,2.9c1.7,4.6,2.6,9.8,5.5,13.5c6.9,9,18.8,6.8,23.2-3.7
							c0.6-1.5,1.9-2.7,2.8-4c1.5,1.5,3.5,2.7,4.2,4.5c2.7,6.7-2.9,14.3-11.2,14.6c-5,0.2-10.2-1.3-15-1.9c3.2,3.7,7,8,10.7,12.4
							c7.3,8.7,14,17.8,16.6,29c1.3,5.6,1.4,11.9,0.3,17.6C440.5,292.9,435,296.2,428.1,295.6z M437.9,288c8.2-8,0.4-34.4-13.1-45.3
							C432.9,256.8,437.6,271.7,437.9,288z M414.4,224c7.3,5.6,16.9,5.6,21.9,0.4c2.2-2.3,3.5-4.9,0.8-8.4
							C430.7,221.9,424.2,227.9,414.4,224z M416.5,240.1c-0.4-0.2-0.8-0.5-1.1-0.7c-1.7,0.8-3.4,1.4-4.9,2.5
							c-0.7,0.5-0.9,1.7-1.3,2.6c1,0.2,2.5,1,3,0.6C413.8,243.7,415.1,241.9,416.5,240.1z"/>
					</g>
					<g>
						<path class="st0" d="M428.3,362.7c-3.6,4.5-7.2,9.1-10.8,13.6c-1.2,1.4-2.4,2.8-3.4,4.5c5.9-2.3,11.6-4.1,17.8-2.1
							c7,2.2,10.8,8.5,8.3,14.4c-0.7,1.6-2.6,2.8-4,4.1c-1-1.3-2.3-2.4-2.9-3.8c-4.6-10.8-16.8-12.5-23.9-3.2c-1.7,2.3-3,5-3.9,7.7
							c-0.9,2.6-1,5.4-1.8,8.1c-1.6-4.6-1.4-9.3,0.6-13.6c2.3-4.8,5.2-9.4,8.3-13.8c4.2-6,3.4-9.5-3.3-11.9c-2-0.7-3.3-1.9-2.1-3.7
							c0.8-1.2,2.9-2.4,4.3-2.3c3.5,0.4,5.2,3.6,6.7,11.1c2.9-4.4,6.2-8,7.7-12.2c3.5-9.7,6.5-19.6,9.1-29.6
							c1.5-5.8-0.1-11.3-4.6-15.7c-0.4-0.4-0.7-0.9-1-1.4c-0.1-0.2,0-0.6,0-0.8c4.7-0.8,9.4,1.4,11.3,6.6c1.6,4.2,2.6,9.1,2.1,13.6
							c-1.3,11.7-6.7,21.8-14.7,30.5c0.6-1.3,1.2-2.5,1.9-3.8c3.1-5.8,7-11.3,9.1-17.4c1.8-5.2,1.8-11.1,2-16.7
							c0.1-1.8-1.5-3.6-2.3-5.4c-0.9,16.2-6.2,30.6-13.5,45c0.9-0.7,1.2-0.9,1.6-1.1C427.3,363.2,427.8,363,428.3,362.7z
							 M414.4,383.9c7.9-3,14-0.1,19.5,4.9c1.1,1,2.5,1.5,3.8,2.2c0.1-1.7,0.7-3.7,0.2-5.2c-0.5-1.5-2-2.9-3.3-3.9
							C429.3,377.9,418.6,379,414.4,383.9z M416,368.9c0.3-0.2,0.6-0.4,0.9-0.6c-1.5-1.9-2.9-4-4.6-5.7c-0.4-0.4-1.9,0.3-2.9,0.6
							c0.4,0.9,0.5,2.1,1.2,2.6C412.1,366.9,414.1,367.8,416,368.9z"/>
					</g>
					<g>
						<path class="st0" d="M429.9,364c1-1.5,2.1-4.2,4.1-5.7c5.6-4.2,11.1-8.6,17.4-11.5c9.8-4.5,18.8-9.5,23.9-19.5
							c0.4-0.7,1.1-1.4,1.7-1.9c0.3-0.3,0.8-0.2,2.5-0.7c-0.3,3.6,0,6.9-0.9,9.9c-2.3,7.6-7.4,12.2-15.6,13.5
							c-5.6,0.9-11.6,1.4-16.5,3.9C440.4,355.1,435.2,360.1,429.9,364z M475.6,333c-7.1,5-14.5,10-21.1,14.7
							C467.7,347.1,476.6,341,475.6,333z"/>
					</g>
					<g>
						<path class="st0" d="M450.2,259.8c-9.4-2.7-16.1-8.5-20.1-17.5c0.3,0.2,0.7,0.2,0.9,0.5c7.1,11,17.8,15.4,30.3,16.5
							c10.5,0.9,17.5,8.1,18.2,18.5c0.1,1.6-0.5,3.3-0.9,6c-1.8-1.9-3.2-2.8-3.8-4.1c-4.7-8.9-12.3-14.3-21.4-17.8
							C452.3,261.4,451.3,260.5,450.2,259.8c9.9,2.6,18.2,7.9,25.2,15.5c0.5-4.6-1.5-7.9-4.6-10.3
							C464.8,260.3,457.5,259.9,450.2,259.8z"/>
					</g>
					<g>
						<path class="st0" d="M442.8,246.5c-8.8-2.3-15.4-7.6-20.6-14.7c6,5.3,11.9,10.5,20.2,11.9c8,1.3,14.7-2.3,19-10.2
							c5.1,3.2,3.3,9.5-4,13.5c1-1.2,2.2-2.3,3.1-3.6c0.8-1.2,1.3-2.7,2-4.1c-6.8,4.3-13.4,6.6-21.3,5.4
							C441.9,245.4,442.4,245.9,442.8,246.5z"/>
					</g>
					<g>
						<path class="st0" d="M460.8,275.8c7.7,3.3,10.3,16.8,4.4,21.6c-1.2,1-3.6,0.6-5.5,0.9c0.1-2-0.6-4.6,0.3-5.8
							C466.3,284.5,466.4,284.3,460.8,275.8z M467.7,286.7c-0.4,0-0.7-0.1-1.1-0.1c-1.6,2-3.4,3.9-4.7,6.1c-0.6,1-0.1,2.6-0.2,3.9
							c1.2-0.5,3.1-0.7,3.4-1.6C466.4,292.3,467,289.5,467.7,286.7z"/>
					</g>
					<g>
						<path class="st0" d="M451,359.4c3.6,1.4,7.7,2.2,10.6,4.4c3.9,3,3.4,8.2-0.4,10.5c-3.2-10.1-11.8-10.2-20.2-10.8
							c-0.1-0.2-0.2-0.4-0.1-0.6c7.8-1.1,14.8,0.9,21.3,6.5c-0.2-4.9-2.9-6.6-6.1-7.9C454.5,360.8,452.7,360.1,451,359.4z"/>
					</g>
					<g>
						<path class="st0" d="M461.1,331.5c0.8-1.2,1.6-2.3,2.3-3.5c2.6-4.4,2.3-7.4-1.5-10.9c-2-1.8-4.2-3.6-2.8-6.6
							c0.4-0.9,2.6-2,3-1.7c2,1.4,4.4,3,5.3,5.1C470.2,320.2,467.5,327.7,461.1,331.5z M466.7,321.4c0.3-0.1,0.7-0.1,1-0.2
							c-0.7-2.8-1.2-5.7-2.3-8.3c-0.4-0.9-2.2-1.2-3.4-1.8c0,1.4-0.4,3,0.2,4.1C463.4,317.5,465.2,319.4,466.7,321.4z"/>
					</g>
					<g>
						<path class="st0" d="M455.2,279.7c-1.7,1.6-3,2.8-4.2,3.9c-0.9-1.2-2.8-2.6-2.6-3.6c0.4-1.8,2-3.3,3.1-4.9
							C452.5,276.4,453.6,277.8,455.2,279.7z"/>
					</g>
					<g>
						<path class="st0" d="M455.4,328.8c-2,1.7-3.3,2.8-4.6,3.9c-0.9-1.8-2.1-3.6-2.4-5.5c-0.1-0.8,1.8-1.9,2.8-2.9
							C452.4,325.5,453.6,326.8,455.4,328.8z"/>
					</g>
					<g>
						<path class="st0" d="M441.4,361.9c-0.2,0.4-0.3,0.7-0.5,1.1c-0.1,0.2-0.1,0.4,0.1,0.6c-6.4,4-12.8,8-18.8,11.7
							C427,369.4,433,364.1,441.4,361.9z"/>
					</g>
					<g>
						<path class="st0" d="M451,266.4c1.7,2.3,1.9,4.8-0.7,6.3c-0.9,0.5-4.2-0.9-4.3-1.7c-0.4-2.6-0.8-6.7,0.7-7.9
							c2.2-1.8,3.8,1,4.5,3.4c-1.3-0.9-2.5-1.9-4.7-3.5c0.3,3.5-1.1,6.3,2.3,7.5C449,270.6,450.3,267.9,451,266.4z"/>
					</g>
					<g>
						<path class="st0" d="M453.6,338.5c-2.4,2.7-4.1,4.7-5.9,6.7c-0.9-1.6-2.5-3.1-2.6-4.7c0-2.6,0.1-6,4-5.9
							C450.3,334.7,451.5,336.7,453.6,338.5z M446,342.9c0.9,0.4,1.7,0.7,2.6,1.1c0.7-1.9,1.6-3.7,2.1-5.7c0.1-0.3-1.4-0.9-2.2-1.4
							C447.7,338.9,446.8,340.9,446,342.9z"/>
					</g>
					<g>
						<path class="st0" d="M447.2,317.4c1.4-0.9,2.8-2,2.9-1.9c0.9,0.9,1.9,2,2.2,3.2c0.1,0.6-1.1,1.6-1.7,2.4
							C449.7,320.1,448.7,319.1,447.2,317.4z"/>
					</g>
				</g>
			</g>
			<text transform="matrix(1 0 0 1 149.136 71.8503)" class="st2 st3 st4">My Orders</text>
			<text transform="matrix(1 0 0 1 178.0726 114.2658)" class="st5 st6 st7">我的訂單</text>
		</g>
	</g>
	<g>
		<g>
			<path class="st0" d="M260.3,196.9c0.9,0.2,1.9,0.4,2.8,0.7c6,2,10,7.5,10,13.8c0,7.2,0,14.4,0,21.5c0,0.4,0,0.8,0,1.3
				c0.4,0,0.8,0,1.2,0c6.3,0,12.7,0,19,0c3.2,0,5,1.8,5,4.9c0,4.1,0,8.3,0,12.5c-28.3,0-56.5,0-84.9,0c0-0.3,0-0.6,0-1
				c0-3.9,0-7.7,0-11.6c0-3,1.8-4.9,4.9-4.9c6.8,0,13.5,0,20.3,0c0.4,0,0.8,0,1.3,0c0-0.4,0-0.8,0-1.2c0-7,0-14.1,0-21.1
				c0-7.8,4.8-13.5,12.5-14.9c0.1,0,0.3-0.1,0.4-0.2C255.3,196.9,257.8,196.9,260.3,196.9z M262.9,220.9c0-3.3-2.7-6-6.1-6
				c-3.3,0-6,2.7-6,6c0,3.4,2.7,6.1,6.1,6.1C260.3,227,263,224.3,262.9,220.9z"/>
		</g>
		<g>
			<path class="st0" d="M274.1,403.9c-2.5-2.5-4.9-5-7.3-7.4c-4.3-4.4-8.6-8.9-12.9-13.2c-6.6-6.5-14.3-11.4-22.5-15.8
				c-2.4-1.3-4.8-2.6-7.4-3.9c10.4-6.7,20.6-13.2,31-19.9c5.6,10.1,11.2,20.1,16.9,30.3c0.8-1.7,1.6-3.3,2.3-4.8
				c8.2-16.5,17.6-32.4,29.1-46.8c6-7.6,12.6-14.6,20.4-20.4c3.9-2.9,8-5.4,12.6-7.2c0.2-0.1,0.3-0.1,0.7-0.2
				c-0.1,2-0.2,3.8-0.4,5.6c-0.5,8-0.9,16.1-0.1,24.1c0.2,1.7,0.4,3.4,0.9,5c0.5,1.8,1.4,3.4,2.1,5.1C329,340,320,348,311.5,356.4
				c-14.3,14-26.6,29.6-36.9,46.7C274.4,403.3,274.3,403.5,274.1,403.9z"/>
		</g>
		<g>
			<path class="st0" d="M234.5,215.9c0,3.5,0,6.9,0,10.4c-0.4,0-0.8,0-1.2,0c-8.1,0-16.3,0-24.4,0c-2.5,0-4.9,0.6-6.8,2.3
				c-1.7,1.5-2.7,3.4-2.7,5.7c0,1.2,0,2.3,0,3.5c0,45.1,0,90.2,0,135.3c0,5.3,3.5,8.9,8.8,9c8.3,0.1,16.5,0,24.8,0.1
				c0.6,0,1.3,0.2,1.8,0.5c4.4,2.7,8.6,5.7,12.4,9.1c0.2,0.2,0.5,0.4,0.6,0.9c-0.3,0-0.7,0-1,0c-15.2,0-30.4,0-45.6,0
				c-3.5,0-6.7-0.9-9.1-3.6c-1.4-1.5-2.2-3.3-2.2-5.3c0-0.4,0-0.8,0-1.3c0-52.1,0-104.2,0-156.3c0-5.8,3.9-10,9.8-10.1
				c6.2-0.1,12.3-0.1,18.5-0.1c5.1,0,10.1,0,15.2,0C233.6,215.9,234,215.9,234.5,215.9z"/>
		</g>
		<g>
			<path class="st0" d="M312.1,298.3c0-0.5,0-0.9,0-1.3c0.3-20.3,0.5-40.7,1-61c0.2-6.5-4.8-9.5-9.3-9.6c-7.6-0.1-15.1-0.2-22.7-0.3
				c-0.4,0-0.8,0-1.3,0c0.1-3.5,0.1-6.9,0.2-10.4c0.4,0,0.8,0,1.2,0c10.1,0.2,20.2,0.3,30.3,0.4c2.9,0,5.7,0.7,8,2.6
				c2.2,1.8,3.3,4.1,3.3,7c-0.3,21.3-0.7,42.6-1,64c0,0.7-0.2,1.1-0.8,1.5C318,293.4,315.1,295.8,312.1,298.3z"/>
		</g>
		<g>
			<path class="st0" d="M294,392.6c2.4-3,4.6-5.7,6.7-8.5c0.1-0.1,0.2-0.3,0.3-0.4c0.7-1.2,1.7-1.6,3.2-1.6c4.2-0.1,7.8-3.1,8.3-6.9
				c0.2-1.2,0-2.5,0.1-3.7c0-0.4,0.1-0.9,0.4-1.1c2.9-2.7,5.7-5.3,8.6-7.9c0.1-0.1,0.2-0.1,0.5-0.3c0,0.5,0,0.9,0,1.2
				c0,6.3,0,12.7,0,19c0,5.6-3.6,9.6-9.2,10c-3.7,0.3-7.5,0.1-11.3,0.2C299.2,392.6,296.8,392.6,294,392.6z"/>
		</g>
		<g>
			<path class="st0" d="M216,308.3c0-1.3,0-2.6,0-3.9c27,0,54,0,81,0c0,1.3,0,2.6,0,3.9C270.1,308.3,243.1,308.3,216,308.3z"/>
		</g>
		<g>
			<path class="st0" d="M216,296.3c0-1.3,0-2.6,0-3.9c27,0,54,0,81,0c0,1.3,0,2.5,0,3.9C270,296.3,243.1,296.3,216,296.3z"/>
		</g>
		<g>
			<path class="st0" d="M216,320.2c0-1.3,0-2.5,0-3.9c27,0,53.9,0,81,0c0,1.2,0,2.5,0,3.9C270,320.2,243,320.2,216,320.2z"/>
		</g>
		<g>
			<path class="st0" d="M216,275.4c0-1.3,0-2.6,0-3.9c9.6,0,19.1,0,28.7,0c0,1.3,0,2.6,0,3.9C235.1,275.4,225.6,275.4,216,275.4z"/>
		</g>
		<g>
			<path class="st0" d="M216,284.7c0-1.3,0-2.6,0-3.9c9.6,0,19.1,0,28.7,0c0,1.3,0,2.6,0,3.9C235.2,284.7,225.6,284.7,216,284.7z"/>
		</g>
	</g>
</g>
</svg>
