<?xml version="1.0" encoding="utf-8"?>
<!-- Generator: Adobe Illustrator 24.1.2, SVG Export Plug-In . SVG Version: 6.00 Build 0)  -->
<svg version="1.1" id="圖層_1" xmlns="http://www.w3.org/2000/svg" xmlns:xlink="http://www.w3.org/1999/xlink" x="0px" y="0px"
	 viewBox="0 0 289.5 199" style="enable-background:new 0 0 289.5 199;" xml:space="preserve">
<style type="text/css">
	.st0{fill:#CB4042;}
	.st1{fill:#FFFFFF;}
	.st2{font-family:'NaikaiFont-Light';}
	.st3{font-size:10.2278px;}
</style>
<g>
	<g>
		<polygon class="st0" points="187.6,122.9 274.8,122.9 274.8,87.5 187.6,87.5 178.6,104.2 		"/>
	</g>
	<g>
		<text transform="matrix(1.14 0 0 1 210.9912 101.6172)" class="st1 st2 st3">馬上填寫</text>
		<text transform="matrix(1.14 0 0 1 210.9912 113.8867)" class="st1 st2 st3">會員資料</text>
	</g>
	<g>
		<path class="st1" d="M194.1,110c0.3-1,0.7-2,1-3.1c0.1-0.2,0.2-0.4,0.2-0.6c0-0.1,0.2-0.2,0.2-0.3c0,0,0.1-0.1,0.2-0.1
			c1.8-1.6,3.6-3.1,5.4-4.7l0.1-0.1c1.2,1.1,2.4,2.1,3.6,3.1c0,0-0.1,0-0.2,0.1c-1.8,1.5-3.6,3.1-5.4,4.7c-0.2,0.2-0.5,0.3-0.8,0.4
			c-1.2,0.3-2.5,0.6-3.7,0.9c-0.1,0-0.2,0-0.2,0.1c0,0,0,0-0.1,0s-0.2,0-0.2-0.1C194.2,110.3,194.1,110.2,194.1,110L194.1,110z
			 M196.2,106.8c-0.2,0.6-0.4,1.2-0.6,1.8c0,0,0,0.1,0,0.2c0.1,0.1,0.2,0.2,0.3,0.3c0.1,0.1,0.1,0.1,0.2,0c0.6-0.2,1.3-0.3,2-0.5
			c0,0,0.1,0,0.2,0c-0.1-0.1-0.2-0.2-0.3-0.2l-0.1-0.1c0-0.2,0-0.3,0-0.5c0-0.2,0-0.4,0-0.6c-0.3,0-0.7-0.1-1-0.1
			c-0.2,0-0.4,0-0.5-0.2C196.3,106.9,196.3,106.9,196.2,106.8z"/>
		<path class="st1" d="M206.6,102.5c-1.1-1-2.3-2-3.4-3c0.2-0.2,0.5-0.5,0.8-0.5c0.5-0.3,1.1-0.2,1.5,0.2c0.5,0.5,1.1,1,1.7,1.5
			c0.5,0.5,0.5,1.1,0,1.5C206.9,102.3,206.7,102.4,206.6,102.5z"/>
		<path class="st1" d="M202.5,100c1.1,1.1,2.4,2.1,3.6,3.1c-0.3,0.2-0.5,0.5-0.8,0.6c-1.1-1.1-2.4-2.1-3.6-3.1
			C202,100.4,202.3,100.2,202.5,100z"/>
	</g>
</g>
</svg>
