<?xml version="1.0" encoding="utf-8"?>
<!-- Generator: Adobe Illustrator 24.1.2, SVG Export Plug-In . SVG Version: 6.00 Build 0)  -->
<svg version="1.1" id="圖層_1" xmlns="http://www.w3.org/2000/svg" xmlns:xlink="http://www.w3.org/1999/xlink" x="0px" y="0px"
	 viewBox="0 0 455.3 144" style="enable-background:new 0 0 455.3 144;" xml:space="preserve">
<style type="text/css">
	.st0{fill:#CB4042;}
	.st1{fill:none;stroke:#FADBDD;stroke-width:1.2299;stroke-miterlimit:10;}
	.st2{fill:#FFFFFF;}
	.st3{font-family:'NaikaiFont-Light';}
	.st4{font-size:15.2396px;}
</style>
<g>
	<g>
		<path class="st0" d="M307.1,99.4V43.5c-7.1,0-12.9-5.1-12.9-11.4H161.8c0,6.3-5.8,11.4-12.9,11.4v55.9c7.1,0,12.9,5.1,12.9,11.4
			h132.3C294.2,104.5,299.9,99.4,307.1,99.4z"/>
	</g>
	<path class="st1" d="M301.2,96V46.9c-6.5-1.1-10.3-3.4-12.9-10.2H167.6c-2.6,6.8-6.5,9.1-12.9,10.2v49.2
		c7.7,2.3,10.3,4.6,12.9,10.2h120.7C290.8,99.4,294.8,97.1,301.2,96z"/>
</g>
<g>
	<g>
		<path class="st0" d="M307.1,99.4V43.5c-7.1,0-12.9-5.1-12.9-11.4H161.8c0,6.3-5.8,11.4-12.9,11.4v55.9c7.1,0,12.9,5.1,12.9,11.4
			h132.3C294.2,104.5,299.9,99.4,307.1,99.4z"/>
	</g>
	<path class="st1" d="M301.2,96V46.9c-6.5-1.1-10.3-3.4-12.9-10.2H167.6c-2.6,6.8-6.5,9.1-12.9,10.2v49.2
		c7.7,2.3,10.3,4.6,12.9,10.2h120.7C290.8,99.4,294.8,97.1,301.2,96z"/>
</g>
<g>
	<g>
		<text transform="matrix(1.14 0 0 1 199.6646 65.7778)" class="st2 st3 st4">馬上填寫</text>
		<text transform="matrix(1.14 0 0 1 199.6646 84.0664)" class="st2 st3 st4">會員資料</text>
	</g>
	<g>
		<path class="st2" d="M170.5,80.7c0.5-1.4,0.9-2.9,1.4-4.3c0.1-0.3,0.2-0.6,0.3-0.9c0.1-0.2,0.2-0.3,0.3-0.4
			c0.1-0.1,0.1-0.1,0.2-0.2c2.6-2.2,5.2-4.5,7.7-6.7c0.1-0.1,0.1-0.1,0.1-0.2c1.8,1.5,3.4,3,5.2,4.5c-0.1,0.1-0.2,0.1-0.2,0.1
			c-2.6,2.2-5.1,4.4-7.7,6.7c-0.3,0.3-0.7,0.5-1.1,0.6c-1.8,0.4-3.4,0.9-5.2,1.4c-0.1,0.1-0.2,0.1-0.3,0.1c-0.1,0-0.1,0-0.1,0
			c-0.1-0.1-0.2-0.1-0.3-0.1C170.6,81.1,170.6,80.8,170.5,80.7L170.5,80.7z M173.5,76.2c-0.3,0.9-0.6,1.8-0.9,2.6
			c0,0.1,0,0.2,0.1,0.2c0.2,0.2,0.3,0.3,0.5,0.4c0.1,0.1,0.2,0.1,0.3,0.1c0.9-0.3,1.9-0.5,2.8-0.8c0.1,0,0.1-0.1,0.2-0.1
			c-0.2-0.1-0.3-0.2-0.4-0.3c-0.1-0.1-0.1-0.1-0.1-0.2c0-0.2-0.1-0.4-0.1-0.7c0-0.3-0.1-0.6-0.1-0.9c-0.5-0.1-0.9-0.1-1.4-0.1
			C173.9,76.4,173.7,76.3,173.5,76.2C173.6,76.2,173.5,76.2,173.5,76.2z"/>
		<path class="st2" d="M188.3,70c-1.6-1.4-3.2-2.8-4.9-4.3c0.3-0.3,0.7-0.6,1-0.9c0.7-0.4,1.5-0.3,2.1,0.3c0.8,0.7,1.6,1.4,2.4,2.1
			c0.8,0.7,0.8,1.5,0,2.2C188.7,69.5,188.5,69.8,188.3,70z"/>
		<path class="st2" d="M182.5,66.3c1.7,1.5,3.4,3,5.1,4.5c-0.3,0.3-0.8,0.6-1.1,0.9c-1.7-1.5-3.4-3-5.1-4.5
			C181.8,66.9,182.2,66.6,182.5,66.3z"/>
	</g>
</g>
</svg>
