<?xml version="1.0" encoding="utf-8"?>
<!-- Generator: Adobe Illustrator 24.1.2, SVG Export Plug-In . SVG Version: 6.00 Build 0)  -->
<svg version="1.1" id="圖層_1" xmlns="http://www.w3.org/2000/svg" xmlns:xlink="http://www.w3.org/1999/xlink" x="0px" y="0px"
	 viewBox="0 0 226.6 222.3" style="enable-background:new 0 0 226.6 222.3;" xml:space="preserve">
<style type="text/css">
	.st0{fill:#C74042;}
	.st1{fill:none;stroke:#FEDFE1;stroke-width:2.402;stroke-miterlimit:10;}
	.st2{fill:#FFFFFF;}
	.st3{font-family:'NotoSansCJKtc-Bold-B5pc-H';}
	.st4{font-size:25.2215px;}
	.st5{letter-spacing:4;}
</style>
<g>
	<g>
		<path class="st0" d="M227.1,140.4V81.9c-8.8,0-15.9-7.1-15.9-15.9H15.9c0,8.8-7.1,15.9-15.9,15.9v58.4c8.8,0,15.9,7.1,15.9,15.9
			h195.4C211.3,147.5,218.4,140.4,227.1,140.4z"/>
	</g>
	<path class="st1" d="M220,135.6V86.7c-7.9-1.6-12.7-4.8-15.9-14.3H23c-3.2,9.5-7.9,12.7-15.9,14.3v48.9c9.5,3.2,12.7,6.3,15.9,14.3
		h181.1C207.3,140.4,212.1,137.2,220,135.6z"/>
	<g>
		<text transform="matrix(1 0 0 1 42.39 119.7451)" class="st2 st3 st4 st5">新增信用卡</text>
	</g>
</g>
</svg>
