<?xml version="1.0" encoding="utf-8"?>
<!-- Generator: Adobe Illustrator 24.1.2, SVG Export Plug-In . SVG Version: 6.00 Build 0)  -->
<svg version="1.1" id="圖層_1" xmlns="http://www.w3.org/2000/svg" xmlns:xlink="http://www.w3.org/1999/xlink" x="0px" y="0px"
	 viewBox="0 0 395.3 222.3" style="enable-background:new 0 0 395.3 222.3;" xml:space="preserve">
<style type="text/css">
	.st0{fill:#E16B8C;}
	.st1{fill:none;stroke:#FEDFE1;stroke-width:2;stroke-miterlimit:10;}
	.st2{fill:#FFFFFF;}
	.st3{font-family:'NotoSansCJKtc-Bold-B5pc-H';}
	.st4{font-size:23.8845px;}
	.st5{letter-spacing:3;}
</style>
<g>
	<g>
		<path class="st0" d="M395.3,132.6V77.3c-8.3,0-15-6.7-15-15h-185c0,8.3-6.7,15-15,15v55.3c8.3,0,15,6.7,15,15h185
			C380.3,139.4,387,132.6,395.3,132.6z"/>
	</g>
	<path class="st1" d="M388.5,128.1V81.8c-7.5-1.5-12-4.5-15-13.5H202c-3,9-7.5,12-15,13.5v46.3c9,3,12,6,15,13.5h171.5
		C376.5,132.6,381,129.6,388.5,128.1z"/>
	<g>
		<text transform="matrix(1 0 0 1 261.1862 113.1335)" class="st2 st3 st4 st5">保存</text>
	</g>
</g>
</svg>
