<svg xmlns="http://www.w3.org/2000/svg" viewBox="0 0 311.23 20.89"><defs><style>.cls-1{fill:#dcb879;}</style></defs><title>資產 1</title><g id="圖層_2" data-name="圖層 2"><g id="圖層_1-2" data-name="圖層 1"><path class="cls-1" d="M149.45,6.12c.44-1.57.63-3.28,2.74-3.22-.51,1.05-1.38,2.06-1.34,3A6.77,6.77,0,0,0,152.32,9c1.57,2.31,1.88,4.82.66,6.72s-5.06,3.7-7.26,3.14a6.42,6.42,0,0,1-1.63-1.15c1.93,0,3.51.35,4.84-.08,2.12-.68,3.84-2.1,3.87-4.67,0-2-2.09-5.26-4-5.8a5.13,5.13,0,0,0-3.14.39c-1.46.63-2.52.6-3.47-1l1.72-.91c-3.16,0-6.13-.87-7.52,2.84-1.22-3.29.14-4.74,4.51-5.39-8-2.42-16-3.55-23.83.51-4,2.07-5.07,5.95-3.12,9.47a7.5,7.5,0,0,0,9.92,3c1.32-.75,2.84-2.42,2.91-3.74.06-1.16-1.78-2.42-3.12-4,.28-.19,1-1,1.76-1.12,2-.21,3.26,1.35,4.53,5.11.53-.88,1-1.73,1.54-2.52.8-1.16,1.49-2.23,3.13-.69.57.54,2.09.11,3.18.05,2-.12,4-.61,6-.36,3,.38,4.08,2.13,3.85,5.46-1.84-2.43-4.19-1.89-6.33-1.1a71.85,71.85,0,0,0-8.14,3.71,19.75,19.75,0,0,1-13.26,1.87c-7.65-1.46-10.67-9.6-4.87-15-3.14.18-4.3,1.75-5,6.36-.43-1.13-.86-2.25-1.41-3.67l-11.36,8.7c1.27.07,2,.17,2.79.15,1.47,0,3-1,4.38.62.35.4,1.92-.36,2.94-.43a7.71,7.71,0,0,1,2.84.36c-4.29,3.84-8.65,3.12-13.13.81a3.18,3.18,0,0,0-2.44-.12c-5.85,2.6-11.87,2.74-18,1.45a16.92,16.92,0,0,0-2.84-.6c-1.35,0-2.7.15-4.27.26-.31-1.64,1.27-1.91,2.91-2.59l-4.82-.71L69,13.07a16,16,0,0,0-9.52-.39,6.78,6.78,0,0,0-2.92,1.88c-.39.4-.14,1.42-.17,2.15a21.08,21.08,0,0,0,2-.63c.21-.08.32-.45.76-1.12.21,1.09.33,1.75.48,2.54,2.16.21,3.59-3.14,6-1.38.29.2.23.89.22.83A19.45,19.45,0,0,0,62.37,18c-3.19,1.76-5.67,1.37-7.95-1.59l-1,2.59-1.27-1.66-.6,1.22L51.05,17a11.48,11.48,0,0,1-9.65,1.25c-1.68-.47-3.64.08-5.54.17l1.62-2c-2.72.81-4.84,1.51-7,2.05a10.63,10.63,0,0,1-3.66.38c-.48-.06-.84-1.15-1-2.09,1.59,1.7,3.09,1.11,4.57.26A11.29,11.29,0,0,1,39.22,16v-3c1.76,2,3.53,3.42,6.19,3.11a8,8,0,0,0,0-1.08l2.34.75c-.78-1-1.68-1.65-1.9-2.51s.36-1.72.87-2.62c1.72,3,4.38,2.35,6.74,2.18A43.76,43.76,0,0,0,59,11.66c4.65-.94,5.93-.79,13.62,1.61a21.44,21.44,0,0,1-1.25-3.06,6.15,6.15,0,0,1,.24-2.09c.67.13,1.61,0,2,.44,1.21,1.36,2.21,2.9,3.08,4.09,1.67-4.34,5.95-5.72,10.64-6,3-.19,6,.38,8.95.42,2.1,0,4.21-.29,5.37-2.52,1,2.55.48,4.15-1.81,5.23-1.13.53-2.44.64-3.62,1.08s-2.48,1.12-4,1.81c2.45,2.19,4.25,2.12,6.3.39,3.08-2.61,6.36-5,9.59-7.49a7.44,7.44,0,0,1-2.31-1.19,4.23,4.23,0,0,1-.74-2.6c2.17,3.24,5,2.57,7.67,1.48C125.35-1.89,137.51-.92,149.45,6.12Zm-55,9.34L89.89,12.4a34.73,34.73,0,0,1-2.71,3.47c-.21.21-1.2-.35-2-.61,1.43-1.38,2.58-2.56,1.4-4.24s-3.52-1.7-5.71-.49c3.06,1.45,3.81,3.09,2.63,6.82a24.36,24.36,0,0,1-2.27-3.46c-.42-1-.41-2.17-1.92-1.84-1.27.27-2.24,2.18-1.4,3.18a6.56,6.56,0,0,0,3.49,2.39A21.38,21.38,0,0,0,94.42,15.46Z"/><path class="cls-1" d="M213.54,14.82l-11-8.47-1.18,3.79-.87.21c1-3.91-.82-5.84-4.49-7,.38.53.49.72.64.89s.42.42.61.65A8.1,8.1,0,0,1,193.77,18,18.62,18.62,0,0,1,178.35,17c-3.14-1.53-6.38-2.86-9.63-4.14a4.07,4.07,0,0,0-5.06,1.34c-.35-2.85.67-4.88,3.07-5.25a26.87,26.87,0,0,1,6.39.15c1.51.13,3,1.08,4.33-.6.13-.17,1.28.14,1.63.52a29.45,29.45,0,0,1,2.21,3.13c.83-2.55,1.67-5.09,4.86-4.93.63,0,1.21.93,1.81,1.43h-.85c-1,1.32-2.85,2.76-2.7,3.93.19,1.39,1.9,3,3.34,3.72a7.54,7.54,0,0,0,9.74-3.58c1.65-3.46.3-7.16-3.53-9.22-5.41-2.91-11.24-2.8-17.08-2a40.76,40.76,0,0,0-6.66,1.65c4.52.78,5.76,2.05,4.63,5.53-1.45-3.91-4.47-2.87-7.74-3l1.89,1c-.87,1.47-2,1.87-3.23,1-2.64-1.91-5,.23-6.53,2.68a4.41,4.41,0,0,0,1.07,6.35c1.58,1.22,2.15,1.3,6.62,1.3a5.86,5.86,0,0,1-1.76,1c-2.52.39-6-1.29-7.1-3.44-1.29-2.52-.51-4.75,1.12-6.86,1.92-2.49,1.85-3.23-.34-5.49,1.92-.05,2.21.23,2.92,3.05a37.75,37.75,0,0,1,17.64-6,39.35,39.35,0,0,1,18.24,2.7,15.8,15.8,0,0,0,3.19,1c2,.35,3.93.16,4.78-2.26,1.13,1.91.41,2.93-2.69,3.83,3.87,2.93,7.56,5.93,11.5,8.55.91.6,2.69-.13,4.1-.26-.44-2.39-1.87-2.72-3.47-3a13.85,13.85,0,0,1-3.83-1.11c-2.17-1.08-2.54-2.51-1.79-4.49a20.13,20.13,0,0,0,4.42,1.75c1.82.26,3.72-.19,5.58-.11a53.33,53.33,0,0,1,9.05.79,8.58,8.58,0,0,1,6.43,5.56,4.89,4.89,0,0,1,3-4.8c.47-.24,1.37-.44,1.57-.21a2.14,2.14,0,0,1,.45,1.74,26.79,26.79,0,0,1-1.31,3.34c1.89-.56,3.77-1.17,5.67-1.68,4.25-1.12,8.29.36,12.4,1a12.33,12.33,0,0,0,3.77.21,26,26,0,0,0,4.36-1.57c1.38.77,1.22,2.07-1.23,4.46l2.28-.8-.3,1.22c2.74.19,4.63-1,6.4-3.22,0,.93.08,1.86.13,3,3.29-.87,6.48,0,9.63,1.55.83.43,2.14-.07,3.26-.4,1,.73.65,1.71-.63,1.88a11.16,11.16,0,0,1-3.85-.5c-2.09-.5-4.14-1.13-6.21-1.71l-.39.64,1.7.75a81.62,81.62,0,0,1-8.73.67A44.8,44.8,0,0,1,260,17.58s-.11.38-.27.92c-.33-.5-.59-.9-.86-1.33-.31.63-.57,1.17-1,2.13-.48-1.25-.78-2-1.1-2.89-2.26,3-4.72,3.42-8,1.6a21.25,21.25,0,0,0-3.45-1.17c-.1-1.05.78-1.71,2.51-1,1.21.51,2.32,1.24,3.65,2,.14-1,.23-1.65.32-2.29.29,0,.49-.08.53,0,.61.81,1.2,2.16,2.38,1.19s.3-2.4-.64-2.77a27.88,27.88,0,0,0-6.77-1.75c-1.58-.19-3.24.4-5.2.69l1.62,1.52-5,.61c1.44.8,3.25.82,2.91,3.46-1.57-2-3.38-1.39-5.12-.93-6.86,1.83-13.58,1.83-20.2-1.09a3.74,3.74,0,0,0-2.63.45c-4.32,2.12-8.52,2.72-12.64-.79,2-2.51,4.56,1.37,6.22-.36C209.28,13.64,211.52,16.62,213.54,14.82Zm3.2.64a22.81,22.81,0,0,0,12.81,2.26c1.72-.18,3.59-.84,3.82-2.85.1-.87-1-1.88-1.5-2.82A12,12,0,0,0,230,13.74c-.78,1-1.39,2.18-2.07,3.29l-.9-.36c.15-1.27,0-2.7.52-3.78s1.75-1.78,2.63-2.61c-2.56-.93-5.22-.66-5.68,1-.32,1.15.41,2.59.74,4.26-.08,0-1.08.54-1.32.3a30.88,30.88,0,0,1-2.67-3.41Z"/><path class="cls-1" d="M311.1,18.76c.07.65.12,1,.13,1.39a4,4,0,0,1-.15.74H0V18.76c6,0,12.1-.7,17.92.23a83.3,83.3,0,0,0,13.16.61q128.67.11,257.36-.11c6.72,0,13.5-.71,20.28-.73C309.45,18.75,310.19,18.76,311.1,18.76Z"/></g></g></svg>