<svg xmlns="http://www.w3.org/2000/svg" viewBox="0 0 27.09 23.71"><defs><style>.cls-1{fill:#c78550;}</style></defs><title>資產 8</title><g id="圖層_2" data-name="圖層 2"><g id="圖層_1-2" data-name="圖層 1"><path class="cls-1" d="M8.9,15.49l.24,1.25h3.72c3.4,0,6.79,0,10.19,0,.68,0,1.23.17,1.24,1s-.56,1-1.23,1c-.18,0-.36,0-.54,0H9.27c-1.41,0-1.74-.27-2-1.63q-1.5-7-3-14.09c-.06-.31-.15-.62-.24-1-.93,0-1.83,0-2.72,0C.61,2,0,1.76,0,1S.59,0,1.3,0c.93,0,1.86,0,2.79,0A1.55,1.55,0,0,1,5.9,1.48c.35,1.64.35,1.64,2,1.64,5.77,0,11.54,0,17.31,0,1.68,0,2.09.5,1.74,2.15-.46,2.27-.95,4.52-1.42,6.78-.28,1.36-.67,1.68-2.05,1.82L9.36,15.36A2.64,2.64,0,0,0,8.9,15.49Zm1.82-2.21-.91-8.2H6.67l1.79,8.47Zm4.11-.43V5.09H11.75l.88,8Zm2-7.78v7.58l2.37-.28L20,5.07Zm8.18,0H21.91l-.72,7.07c.71-.06,1.31-.08,1.89-.18.22,0,.55-.24.59-.41C24.15,9.44,24.59,7.3,25.05,5.09Z"/><path class="cls-1" d="M21.07,19.85a1.93,1.93,0,1,1-2,1.92A2,2,0,0,1,21.07,19.85Z"/><path class="cls-1" d="M12.6,21.81a1.89,1.89,0,0,1-1.95,1.9,1.93,1.93,0,0,1,0-3.86A1.91,1.91,0,0,1,12.6,21.81Z"/></g></g></svg>