<svg xmlns="http://www.w3.org/2000/svg" viewBox="0 0 22.99 22.43"><defs><style>.cls-1{fill:#6699a1;}</style></defs><title>資產 7</title><g id="圖層_2" data-name="圖層 2"><g id="圖層_1-2" data-name="圖層 1"><path class="cls-1" d="M16.09,4.94,13.86,5V4.83c0-.64,0-1.28,0-1.92a.57.57,0,0,0-.66-.64L4.56,2.5H4.38l.14.08c1.58.76,3.15,1.52,4.74,2.27A1.28,1.28,0,0,1,10,6.06c.07,3,.16,6.06.24,9.09v.22h.18l3-.08c.46,0,.66-.23.65-.68,0-1.38-.07-2.75-.11-4.13v-.19h.14l1.94,0c.11,0,.15,0,.15.14.05,2,.11,3.94.16,5.91a1.13,1.13,0,0,1-1.17,1.19l-4.69.12h-.21v.19c0,1.34.08,2.68.11,4a.55.55,0,0,1-.44.63.84.84,0,0,1-.44-.08c-1.37-.65-2.73-1.32-4.1-2L1.13,18.28a1.19,1.19,0,0,1-.72-1.12Q.22,9.39,0,1.62A1.13,1.13,0,0,1,1.2.36L14.73,0A1.13,1.13,0,0,1,16,1.2l.09,3.57Z"/><path class="cls-1" d="M19,6.19l-.77-.72c-.29-.28-.59-.54-.88-.83A1.15,1.15,0,0,1,17,3.49a1,1,0,0,1,.77-.76,1.14,1.14,0,0,1,1.1.28l2,1.93,1.66,1.57a1.1,1.1,0,0,1,.27,1.42,1.72,1.72,0,0,1-.24.31l-3.4,3.59a1.21,1.21,0,0,1-1,.44,1.06,1.06,0,0,1-.94-.71,1.18,1.18,0,0,1,.27-1.26c.39-.41.78-.82,1.18-1.22l.36-.38v0h-.16l-6,.17a1.14,1.14,0,0,1-1.11-.59,1.22,1.22,0,0,1,0-1.29,1.13,1.13,0,0,1,1-.56l6.08-.16H19Z"/></g></g></svg>