<svg xmlns="http://www.w3.org/2000/svg" viewBox="0 0 195.09 66.07"><defs><style>.cls-1{fill:#fff;}.cls-2{fill:#e16b8c;}</style></defs><title>資產 2</title><g id="圖層_2" data-name="圖層 2"><g id="圖層_1-2" data-name="圖層 1"><path class="cls-1" d="M14.18,65.07A14.24,14.24,0,0,0,1,51.89V14.18A14.24,14.24,0,0,0,14.18,1H180.92a14.23,14.23,0,0,0,13.17,13.18V51.89a14.23,14.23,0,0,0-13.17,13.18Z"/><path class="cls-2" d="M180,2a15.24,15.24,0,0,0,13.08,13.08V51A15.27,15.27,0,0,0,180,64.07H15.08A15.25,15.25,0,0,0,2,51V15.08A15.23,15.23,0,0,0,15.08,2H180m1.87-2H13.21A13.2,13.2,0,0,1,0,13.21V52.85A13.21,13.21,0,0,1,13.21,66.07H181.88a13.22,13.22,0,0,1,13.21-13.22V13.21A13.21,13.21,0,0,1,181.88,0Z"/><path class="cls-2" d="M175.22,6.29C178,14.1,182.27,16.68,188.15,18V48.08C182.27,49.39,178,52,175.22,59.78H19.83C17.14,53.33,14.21,50.69,7,48.17V18c5.88-1.31,10.13-3.89,12.92-11.7H175.22m.71-1H19.16C16.52,13.21,12.55,15.86,6,17.18V48.89c7.92,2.64,10.57,5.29,13.21,11.89H175.93c2.65-7.93,6.61-10.57,13.22-11.89V17.18c-6.61-1.32-10.57-4-13.22-11.89Z"/></g></g></svg>