<svg xmlns="http://www.w3.org/2000/svg" viewBox="0 0 542.16 539.31"><defs><style>.cls-1{fill:#fff;}.cls-2{fill:#dcb879;}</style></defs><title>資產 4</title><g id="圖層_2" data-name="圖層 2"><g id="圖層_1-2" data-name="圖層 1"><ellipse class="cls-1" cx="271.27" cy="269.65" rx="183.78" ry="268.15"/><path class="cls-2" d="M271.27,3C371.78,3,453.56,122.62,453.56,269.65S371.78,536.31,271.27,536.31,89,416.69,89,269.65,170.76,3,271.27,3m0-3C168.94,0,86,120.73,86,269.65s83,269.66,185.28,269.66S456.56,418.58,456.56,269.65,373.6,0,271.27,0Z"/><path class="cls-2" d="M271.27,11.29c23.87,0,47,6.8,68.85,20.23,21.1,13,40.06,31.6,56.35,55.3s29.11,51.37,38,82.16a369.74,369.74,0,0,1,0,201.35c-8.94,30.79-21.75,58.43-38,82.16s-35.25,42.31-56.35,55.3c-21.81,13.42-45,20.23-68.85,20.23s-47-6.81-68.84-20.23c-21.11-13-40.06-31.6-56.35-55.3S117,401.12,108,370.33A370,370,0,0,1,108,169c9-30.79,21.75-58.43,38.06-82.16s35.24-42.31,56.35-55.3c21.81-13.43,45-20.23,68.84-20.23m0-1c-98.42,0-178.21,116.12-178.21,259.36S172.85,529,271.27,529,449.49,412.9,449.49,269.65,369.7,10.29,271.27,10.29Z"/><path class="cls-2" d="M59.13,279.1c-12,10.6-8,22.46-5,34.27,3.17,12.31,7.67,23.94,16.4,33.7.94-2.84,1.3-6,2.92-8.14,1.4-1.9,4.12-3.13,6.5-3.8.82-.22,2.87,2,3.37,3.38.28.79-1.23,2.92-2.36,3.38-8,3.2-9.11,7-3.7,14,6.61,8.53,12.14,17.41,11,28.87A3.54,3.54,0,0,1,87,387.29a23.77,23.77,0,0,0-.73-3.29c-2-5.25-3-11.26-6.3-15.54-7.9-10.3-21.66-7.77-26.72,4.2-.71,1.68-2.13,3.06-3.23,4.58-1.67-1.71-4.06-3.12-4.88-5.16-3.08-7.75,3.3-16.43,12.9-16.74,5.81-.19,11.68,1.45,17.23,2.23-3.7-4.31-8.06-9.26-12.3-14.32-8.36-10-16.12-20.51-19.11-33.34a50.36,50.36,0,0,1-.38-20.24C44.89,282.2,51.28,278.37,59.13,279.1Zm-11.24,8.71c-9.42,9.22-.5,39.55,15.07,52.1C53.69,323.73,48.24,306.62,47.89,287.81Zm27,73.71c-8.42-6.39-19.48-6.48-25.25-.41-2.54,2.67-4.06,5.62-.93,9.71C56.2,363.86,63.62,357,74.92,361.52Zm-2.4-18.59,1.31.79a41.22,41.22,0,0,0,5.67-2.86c.8-.56,1-2,1.46-3.05-1.18-.27-2.92-1.17-3.43-.71A52,52,0,0,0,72.52,342.93Z"/><path class="cls-2" d="M59,201.92c4.14-5.22,8.26-10.45,12.43-15.65a43.87,43.87,0,0,0,3.92-5.22c-6.74,2.66-13.36,4.68-20.53,2.43-8-2.51-12.43-9.75-9.58-16.55.8-1.9,3-3.18,4.63-4.75,1.14,1.45,2.67,2.73,3.36,4.37,5.26,12.38,19.35,14.43,27.46,3.73a31.45,31.45,0,0,0,4.5-8.92c1-3,1.13-6.22,2.06-9.32a20.49,20.49,0,0,1-.69,15.6A115.43,115.43,0,0,1,77,183.53c-4.81,6.95-3.94,10.93,3.8,13.67,2.36.83,3.83,2.19,2.42,4.27-1,1.42-3.37,2.82-5,2.64-4-.46-6-4.11-7.67-12.77-3.3,5.1-7.12,9.2-8.88,14-4.05,11.14-7.5,22.54-10.42,34a18,18,0,0,0,5.31,18,6.38,6.38,0,0,1,1.12,1.66c.13.25,0,.63,0,1a11.5,11.5,0,0,1-13.05-7.62c-1.81-4.86-3-10.52-2.39-15.6,1.51-13.47,7.67-25.1,16.85-35.09-.72,1.44-1.42,2.9-2.18,4.32-3.55,6.65-8,13-10.41,20-2.05,6-2,12.75-2.34,19.2-.1,2,1.71,4.16,2.65,6.24C48,232.86,54,216.33,62.42,199.74c-1.07.76-1.42,1.06-1.81,1.29S59.52,201.63,59,201.92Zm15.92-24.33c-9.14,3.47-16.09.13-22.44-5.68-1.2-1.11-2.9-1.68-4.38-2.5-.13,2-.83,4.21-.23,6s2.28,3.29,3.84,4.46C57.8,184.41,70.1,183.23,74.89,177.59Zm-1.74,17.26-1,.7a69.64,69.64,0,0,0,5.34,6.6c.45.45,2.21-.4,3.36-.65-.43-1-.57-2.46-1.33-3A62.4,62.4,0,0,0,73.15,194.85Z"/><path class="cls-2" d="M57.09,200.41c-1.16,1.68-2.4,4.82-4.7,6.54-6.39,4.78-12.81,9.88-20,13.19C21.17,225.33,10.82,231,5,242.56a8.41,8.41,0,0,1-2,2.23c-.33.29-.92.28-2.92.83.35-4.19,0-8,1.07-11.35,2.68-8.73,8.56-14.05,17.91-15.55,6.42-1,13.32-1.61,19-4.48C45.05,210.63,51.05,204.9,57.09,200.41ZM4.56,236.08l24.28-16.86C13.67,219.82,3.39,226.92,4.56,236.08Z"/><path class="cls-2" d="M33.74,320.29q16.2,4.57,23.16,20.1c-.33-.18-.8-.28-1-.56-8.2-12.66-20.45-17.76-34.91-19C9,319.74.91,311.52,0,299.55c-.14-1.86.52-3.78,1-6.9,2.05,2.17,3.62,3.25,4.41,4.74,5.38,10.28,14.12,16.4,24.62,20.49a21.36,21.36,0,0,1,3.69,2.4c-11.42-2.95-20.92-9.11-29-17.85-.61,5.29,1.72,9.07,5.26,11.83C16.93,319.69,25.34,320.13,33.74,320.29Z"/><path class="cls-2" d="M42.22,335.65c10.1,2.6,17.67,8.71,23.75,16.94-6.86-6-13.7-12.13-23.18-13.68-9.26-1.51-16.94,2.68-21.9,11.77C15,347,17.08,339.81,25.44,335.12a38.8,38.8,0,0,0-3.51,4.1,36,36,0,0,0-2.27,4.67c7.79-4.95,15.44-7.63,24.45-6.22Z"/><path class="cls-2" d="M21.52,301.92c-8.83-3.75-11.84-19.3-5.09-24.81,1.43-1.17,4.19-.71,6.34-1-.08,2.27.75,5.26-.39,6.7C15.24,291.87,15.07,292.17,21.52,301.92ZM13.58,289.4l1.22.15a64.17,64.17,0,0,0,5.37-7c.66-1.14.15-3,.17-4.49-1.37.57-3.55.81-4,1.78A73.59,73.59,0,0,0,13.58,289.4Z"/><path class="cls-2" d="M32.87,205.73c-4.11-1.64-8.82-2.5-12.19-5.1-4.51-3.48-3.93-9.43.47-12.07,3.72,11.57,13.6,11.7,23.18,12.4a.6.6,0,0,1,.09.65c-9,1.29-17-1-24.55-7.42.21,5.64,3.36,7.59,7,9.12C28.84,204.16,30.86,204.93,32.87,205.73Z"/><path class="cls-2" d="M21.25,237.77c-.88,1.34-1.8,2.66-2.63,4-3,5-2.62,8.52,1.7,12.49,2.29,2.12,4.83,4.12,3.19,7.58-.5,1-3,2.33-3.47,2-2.3-1.64-5.07-3.44-6.14-5.86C10.76,250.85,13.85,242.23,21.25,237.77Zm-6.47,11.68-1.2.18a73.25,73.25,0,0,0,2.65,9.58c.43,1,2.59,1.37,4,2-.05-1.6.44-3.48-.24-4.73A61.33,61.33,0,0,0,14.78,249.45Z"/><path class="cls-2" d="M28,297.41l4.85-4.5c1.09,1.41,3.26,3,3,4.17-.41,2-2.27,3.78-3.53,5.65Z"/><path class="cls-2" d="M27.76,241c2.34-2,3.81-3.24,5.29-4.5,1,2.12,2.47,4.16,2.81,6.38.15.94-2.07,2.24-3.22,3.38C31.23,244.7,29.82,243.18,27.76,241Z"/><path class="cls-2" d="M43.88,202.86l.54-1.25a.6.6,0,0,0-.09-.65l21.6-13.47C60.47,194.25,53.53,200.32,43.88,202.86Z"/><path class="cls-2" d="M32.81,312.69c-1.91-2.68-2.23-5.58.79-7.24,1.07-.59,4.85,1,5,2,.44,3,.92,7.66-.77,9.06-2.55,2.12-4.4-1.18-5.17-3.93l5.37,4c-.33-4.06,1.31-7.25-2.66-8.62C35.09,307.84,33.68,311,32.81,312.69Z"/><path class="cls-2" d="M29.88,229.75,36.7,222c1,1.8,2.91,3.58,2.94,5.39,0,3-.17,6.94-4.61,6.77C33.6,234.15,32.24,231.88,29.88,229.75Zm8.72-5.09-3-1.24A65.15,65.15,0,0,0,33.24,230c-.08.3,1.62,1.09,2.5,1.65Q37.16,228.14,38.6,224.66Z"/><path class="cls-2" d="M37.22,254c-1.66,1.09-3.23,2.34-3.38,2.19a8.65,8.65,0,0,1-2.5-3.71c-.17-.74,1.22-1.84,1.9-2.77Z"/><path class="cls-2" d="M483,260.23c12-10.6,8-22.46,5-34.27-3.17-12.31-7.67-23.94-16.4-33.7-.94,2.84-1.3,6-2.92,8.14-1.4,1.89-4.12,3.13-6.5,3.79-.82.23-2.87-1.95-3.37-3.37-.28-.79,1.23-2.92,2.36-3.38,8-3.21,9.12-7,3.7-14-6.61-8.53-12.14-17.42-11-28.87a3.53,3.53,0,0,1,1.27-2.52,23.77,23.77,0,0,0,.73,3.29c2,5.25,3,11.26,6.3,15.54,7.9,10.3,21.66,7.77,26.72-4.2.71-1.68,2.14-3.06,3.23-4.58,1.67,1.71,4.06,3.12,4.88,5.16,3.09,7.75-3.3,16.42-12.9,16.74-5.81.19-11.68-1.45-17.23-2.23,3.71,4.3,8.06,9.26,12.3,14.31,8.36,10,16.13,20.52,19.11,33.35a50.36,50.36,0,0,1,.38,20.24C497.27,257.13,490.88,261,483,260.23Zm11.24-8.71c9.42-9.22.5-39.55-15.07-52.1C488.47,215.59,493.92,232.7,494.27,251.52Zm-27-73.71c8.42,6.39,19.47,6.48,25.24.41,2.54-2.67,4.06-5.62.93-9.71C486,175.47,478.54,182.33,467.25,177.81Zm2.39,18.59-1.31-.79a41.22,41.22,0,0,0-5.67,2.86c-.8.56-1,2-1.46,3,1.18.28,2.92,1.18,3.43.72A52,52,0,0,0,469.64,196.4Z"/><path class="cls-2" d="M483.19,337.4c-4.14,5.22-8.26,10.46-12.43,15.66a44.56,44.56,0,0,0-3.92,5.21c6.74-2.65,13.36-4.67,20.53-2.42,8,2.51,12.43,9.75,9.58,16.55-.79,1.9-3,3.18-4.62,4.75-1.15-1.45-2.67-2.73-3.37-4.37-5.26-12.39-19.35-14.43-27.46-3.73A31.45,31.45,0,0,0,457,378c-1,3-1.12,6.21-2.06,9.32a20.44,20.44,0,0,1,.7-15.6,114.77,114.77,0,0,1,9.52-15.89c4.82-6.95,3.94-10.93-3.8-13.67-2.35-.83-3.83-2.19-2.42-4.27.95-1.42,3.38-2.82,5-2.64,4,.46,6,4.1,7.67,12.77,3.31-5.1,7.12-9.2,8.88-14.05,4.05-11.14,7.5-22.54,10.42-34a18,18,0,0,0-5.31-18,6.38,6.38,0,0,1-1.12-1.66c-.13-.26,0-.64,0-1a11.5,11.5,0,0,1,13.05,7.62c1.81,4.86,3,10.52,2.39,15.6-1.51,13.47-7.67,25.1-16.85,35.09.72-1.44,1.42-2.9,2.18-4.33,3.55-6.64,8-13,10.41-20,2-6,2-12.75,2.34-19.2.1-2-1.71-4.16-2.65-6.24-1.08,18.68-7.08,35.21-15.54,51.8,1.06-.76,1.41-1.06,1.8-1.29S482.64,337.7,483.19,337.4Zm-15.92,24.34c9.15-3.47,16.09-.13,22.44,5.68,1.2,1.11,2.9,1.68,4.38,2.49.13-2,.83-4.2.23-6s-2.28-3.29-3.84-4.46C484.37,354.92,472.06,356.1,467.27,361.74ZM469,344.48l1-.7a68.4,68.4,0,0,0-5.34-6.6c-.45-.45-2.2.4-3.36.65.43,1,.57,2.46,1.34,3A61.2,61.2,0,0,0,469,344.48Z"/><path class="cls-2" d="M485.07,338.92c1.16-1.68,2.4-4.82,4.7-6.54,6.39-4.78,12.81-9.88,20-13.19,11.24-5.2,21.6-10.88,27.46-22.42a8.41,8.41,0,0,1,2-2.23c.33-.29.92-.28,2.92-.83-.35,4.19,0,8-1.07,11.35-2.68,8.73-8.56,14.05-17.91,15.54-6.42,1-13.32,1.62-18.94,4.49C497.11,328.69,491.11,334.43,485.07,338.92Zm52.53-35.67-24.27,16.86C528.49,319.51,538.77,312.41,537.6,303.25Z"/><path class="cls-2" d="M508.42,219q-16.2-4.57-23.16-20.1c.33.18.8.28,1,.55,8.2,12.67,20.45,17.77,34.91,19,12,1.06,20.1,9.28,21,21.25.14,1.86-.52,3.78-1,6.9-2.06-2.17-3.63-3.25-4.41-4.74-5.39-10.28-14.13-16.4-24.63-20.49a20.91,20.91,0,0,1-3.68-2.4c11.42,2.95,20.91,9.11,29,17.85.61-5.29-1.71-9.07-5.26-11.84C525.23,219.64,516.82,219.2,508.42,219Z"/><path class="cls-2" d="M499.94,203.68c-10.1-2.6-17.67-8.71-23.75-16.94,6.87,6,13.7,12.13,23.19,13.68,9.25,1.51,16.93-2.68,21.89-11.78,5.89,3.74,3.81,10.88-4.54,15.57a39.91,39.91,0,0,0,3.5-4.1,36,36,0,0,0,2.27-4.67c-7.79,4.95-15.44,7.63-24.45,6.21Z"/><path class="cls-2" d="M520.64,237.41c8.83,3.75,11.84,19.3,5.1,24.81-1.44,1.17-4.2.71-6.35,1,.08-2.27-.75-5.26.39-6.7C526.92,247.46,527.1,247.16,520.64,237.41Zm8,12.52-1.23-.15a62.84,62.84,0,0,0-5.36,7c-.67,1.14-.16,3-.18,4.49,1.37-.57,3.55-.81,4-1.79A74.6,74.6,0,0,0,528.59,249.93Z"/><path class="cls-2" d="M509.29,333.6c4.11,1.64,8.82,2.5,12.19,5.1,4.52,3.48,3.93,9.43-.46,12.07-3.73-11.57-13.61-11.71-23.19-12.41a.59.59,0,0,1-.09-.65c9-1.28,17,1,24.55,7.43-.21-5.64-3.36-7.59-7-9.13C513.32,335.17,511.3,334.4,509.29,333.6Z"/><path class="cls-2" d="M520.91,301.55c.88-1.34,1.8-2.65,2.63-4,3-5,2.62-8.52-1.7-12.5-2.29-2.11-4.83-4.11-3.19-7.57.5-1,3-2.34,3.47-2,2.3,1.64,5.07,3.44,6.14,5.85C531.4,288.48,528.31,297.1,520.91,301.55Zm6.47-11.67,1.2-.18a72.82,72.82,0,0,0-2.65-9.58c-.43-1-2.59-1.37-4-2,0,1.59-.44,3.48.24,4.72A61.44,61.44,0,0,0,527.38,289.88Z"/><path class="cls-2" d="M514.18,241.92l-4.85,4.5c-1.09-1.41-3.26-3-3-4.17.41-2,2.27-3.78,3.53-5.65Z"/><path class="cls-2" d="M514.4,298.36c-2.34,2-3.81,3.24-5.29,4.5-1-2.12-2.47-4.17-2.81-6.38-.15-.94,2.07-2.24,3.22-3.38C510.93,294.63,512.35,296.15,514.4,298.36Z"/><path class="cls-2" d="M498.28,336.47l-.54,1.24a.59.59,0,0,0,.09.65l-21.6,13.48C481.69,345.07,488.64,339,498.28,336.47Z"/><path class="cls-2" d="M509.36,226.64c1.9,2.68,2.22,5.58-.8,7.24-1.07.59-4.85-1-5-2-.44-3-.92-7.66.77-9.06,2.55-2.12,4.41,1.18,5.18,3.93l-5.38-4c.33,4.06-1.3,7.24,2.66,8.62C507.07,231.49,508.48,228.31,509.36,226.64Z"/><path class="cls-2" d="M512.28,309.58l-6.82,7.71c-1-1.8-2.91-3.58-2.94-5.39,0-3,.17-6.94,4.61-6.77C508.57,305.18,509.92,307.45,512.28,309.58Zm-8.72,5.09,2.95,1.24a62.79,62.79,0,0,0,2.41-6.55c.08-.31-1.62-1.09-2.49-1.65Z"/><path class="cls-2" d="M504.94,285.35c1.66-1.09,3.23-2.35,3.39-2.19a8.72,8.72,0,0,1,2.49,3.71c.17.74-1.22,1.84-1.9,2.77Z"/></g></g></svg>